<svg width="21" height="20" viewBox="0 0 21 20" fill="none" xmlns="http://www.w3.org/2000/svg">
<path d="M7.58329 15.8334H7.16663C3.83329 15.8334 2.16663 15.0001 2.16663 10.8334V6.66675C2.16663 3.33341 3.83329 1.66675 7.16663 1.66675H13.8333C17.1666 1.66675 18.8333 3.33341 18.8333 6.66675V10.8334C18.8333 14.1667 17.1666 15.8334 13.8333 15.8334H13.4166C13.1583 15.8334 12.9083 15.9584 12.75 16.1667L11.5 17.8334C10.95 18.5667 10.05 18.5667 9.49996 17.8334L8.24996 16.1667C8.11663 15.9834 7.80829 15.8334 7.58329 15.8334Z" stroke="black" stroke-width="2" stroke-miterlimit="10" stroke-linecap="round" stroke-linejoin="round"/>
<path d="M13.8304 9.16667H13.8379" stroke="black" stroke-width="2" stroke-linecap="round" stroke-linejoin="round"/>
<path d="M10.4962 9.16667H10.5037" stroke="black" stroke-width="2" stroke-linecap="round" stroke-linejoin="round"/>
<path d="M7.16209 9.16667H7.16957" stroke="black" stroke-width="2" stroke-linecap="round" stroke-linejoin="round"/>
</svg>
