<svg width="43" height="41" viewBox="0 0 43 41" fill="none" xmlns="http://www.w3.org/2000/svg">
<rect x="0.800049" y="0.359863" width="41.6" height="40.28" rx="10" fill="#14191E" fill-opacity="0.1"/>
<path d="M16.2974 28.3066C14.5688 26.5195 14.5981 23.6777 16.3267 21.9199L22.479 15.6211C23.7681 14.3027 25.8774 14.3027 27.1958 15.6211C28.4556 16.9395 28.4849 19.0781 27.1958 20.3965L21.8345 25.875C20.9556 26.7539 19.52 26.7539 18.6704 25.8457C17.8208 24.9668 17.8501 23.5605 18.6997 22.7109L22.9185 18.4043C23.0942 18.2285 23.3872 18.1992 23.5923 18.4043L24.2368 19.0488C24.4419 19.2246 24.4419 19.5176 24.2661 19.7227L20.0474 24C19.9009 24.1465 19.9009 24.4102 20.0181 24.5566C20.1646 24.6738 20.3696 24.6738 20.4868 24.5566L25.8481 19.0781C26.4048 18.4922 26.4048 17.5254 25.8481 16.9395C25.2915 16.3828 24.3833 16.3828 23.8267 16.9395L17.6743 23.2383C16.6489 24.2637 16.6489 25.9629 17.645 26.9883C18.6411 28.0137 20.2524 28.0137 21.2485 26.9883L26.2876 21.832C26.4634 21.6562 26.7563 21.6562 26.9321 21.832L27.606 22.5059C27.811 22.6816 27.811 22.9746 27.6353 23.1504L22.5962 28.3066C20.8384 30.0938 18.0259 30.0645 16.2974 28.3066Z" fill="#14191E"/>
</svg>
