<svg width="18" height="20" viewBox="0 0 18 20" fill="none" xmlns="http://www.w3.org/2000/svg">
<path d="M6.97605 3.18194C6.97605 2.66529 7.18929 2.16979 7.56886 1.80446C7.94844 1.43913 8.46325 1.23389 9.00005 1.23389C9.53684 1.23389 10.0517 1.43913 10.4312 1.80446C10.8108 2.16979 11.024 2.66529 11.024 3.18194C12.1862 3.71087 13.177 4.53422 13.8901 5.56374C14.6032 6.59326 15.0118 7.79015 15.072 9.02612V11.9482C15.1482 12.5538 15.371 13.1337 15.7226 13.6412C16.0741 14.1487 16.5446 14.5697 17.096 14.8703H0.904053C1.45553 14.5697 1.92598 14.1487 2.27753 13.6412C2.62907 13.1337 2.85189 12.5538 2.92805 11.9482V9.02612C2.98833 7.79015 3.39691 6.59326 4.11002 5.56374C4.82312 4.53422 5.81386 3.71087 6.97605 3.18194" stroke="#2C3E50" stroke-width="1.75" stroke-linecap="round" stroke-linejoin="round"/>
<path d="M5.96411 14.8701V15.8441C5.96411 16.6191 6.28398 17.3624 6.85334 17.9104C7.4227 18.4584 8.19492 18.7662 9.00012 18.7662C9.80532 18.7662 10.5775 18.4584 11.1469 17.9104C11.7163 17.3624 12.0361 16.6191 12.0361 15.8441V14.8701" stroke="#2C3E50" stroke-width="1.75" stroke-linecap="round" stroke-linejoin="round"/>
</svg>
