<svg width="48" height="48" viewBox="0 0 48 48" fill="none" xmlns="http://www.w3.org/2000/svg">
<path fill-rule="evenodd" clip-rule="evenodd" d="M4 24C4 12.954 12.954 4 24 4C35.046 4 44 12.954 44 24C44 35.046 35.046 44 24 44C12.954 44 4 35.046 4 24ZM27.414 19.414C27.7783 19.0368 27.9799 18.5316 27.9753 18.0072C27.9708 17.4828 27.7605 16.9812 27.3896 16.6104C27.0188 16.2395 26.5172 16.0292 25.9928 16.0247C25.4684 16.0201 24.9632 16.2217 24.586 16.586L18.586 22.586C18.2111 22.9611 18.0004 23.4697 18.0004 24C18.0004 24.5303 18.2111 25.0389 18.586 25.414L24.586 31.414C24.9632 31.7783 25.4684 31.9799 25.9928 31.9753C26.5172 31.9708 27.0188 31.7605 27.3896 31.3896C27.7605 31.0188 27.9708 30.5172 27.9753 29.9928C27.9799 29.4684 27.7783 28.9632 27.414 28.586L22.828 24L27.414 19.414Z" fill="white"/>
</svg>
