<svg width="22" height="22" viewBox="0 0 22 22" fill="none" xmlns="http://www.w3.org/2000/svg">
<path d="M7.9375 17.125H7.5C4 17.125 2.25 16.25 2.25 11.875V7.5C2.25 4 4 2.25 7.5 2.25H14.5C18 2.25 19.75 4 19.75 7.5V11.875C19.75 15.375 18 17.125 14.5 17.125H14.0625C13.7912 17.125 13.5287 17.2562 13.3625 17.475L12.05 19.225C11.4725 19.995 10.5275 19.995 9.95 19.225L8.6375 17.475C8.4975 17.2825 8.17375 17.125 7.9375 17.125Z" stroke="#2C3E50" stroke-width="1.3125" stroke-miterlimit="10" stroke-linecap="round" stroke-linejoin="round"/>
<path d="M14.4969 10.125H14.5048" stroke="#2C3E50" stroke-width="1.75" stroke-linecap="round" stroke-linejoin="round"/>
<path d="M10.9962 10.125H11.004" stroke="#2C3E50" stroke-width="1.75" stroke-linecap="round" stroke-linejoin="round"/>
<path d="M7.49519 10.125H7.50305" stroke="#2C3E50" stroke-width="1.75" stroke-linecap="round" stroke-linejoin="round"/>
</svg>
