<svg width="48" height="48" viewBox="0 0 48 48" fill="none" xmlns="http://www.w3.org/2000/svg">
<g opacity="0.62" clip-path="url(#clip0_346_4707)">
<path d="M38.5312 0.824219V9.37591H47.0823L38.5312 0.824219Z" fill="white"/>
<path d="M37.125 12.1875C36.3484 12.1875 35.7188 11.5579 35.7188 10.7812V0H15.5625C13.2363 0 11.3438 1.89253 11.3438 4.21875V19.9396C11.8071 19.8976 12.2759 19.875 12.75 19.875C17.5433 19.875 21.8341 22.0665 24.6737 25.5H39.9375C40.7141 25.5 41.3438 26.1296 41.3438 26.9062C41.3438 27.6829 40.7141 28.3125 39.9375 28.3125H26.5264C27.4249 30.0657 27.9775 31.9754 28.1542 33.9375H39.9375C40.7141 33.9375 41.3438 34.5671 41.3438 35.3438C41.3438 36.1204 40.7141 36.75 39.9375 36.75H28.1542C27.7336 41.3943 25.2522 45.4524 21.6336 48H43.6875C46.0137 48 47.9062 46.1075 47.9062 43.7812V12.1875H37.125ZM39.9375 19.875H19.3125C18.5359 19.875 17.9062 19.2454 17.9062 18.4688C17.9062 17.6921 18.5359 17.0625 19.3125 17.0625H39.9375C40.7141 17.0625 41.3438 17.6921 41.3438 18.4688C41.3438 19.2454 40.7141 19.875 39.9375 19.875Z" fill="white"/>
<path d="M12.75 22.6875C5.77134 22.6875 0.09375 28.3651 0.09375 35.3438C0.09375 42.3224 5.77134 48 12.75 48C19.7287 48 25.4062 42.3224 25.4062 35.3438C25.4062 28.3651 19.7287 22.6875 12.75 22.6875ZM16.5 36.75H12.75C11.9734 36.75 11.3438 36.1204 11.3438 35.3438V29.7188C11.3438 28.9421 11.9734 28.3125 12.75 28.3125C13.5266 28.3125 14.1562 28.9421 14.1562 29.7188V33.9375H16.5C17.2766 33.9375 17.9062 34.5671 17.9062 35.3438C17.9062 36.1204 17.2766 36.75 16.5 36.75Z" fill="white"/>
</g>
<defs>
<clipPath id="clip0_346_4707">
<rect width="48" height="48" fill="white"/>
</clipPath>
</defs>
</svg>
