<svg width="48" height="48" viewBox="0 0 48 48" fill="none" xmlns="http://www.w3.org/2000/svg">
<path fill-rule="evenodd" clip-rule="evenodd" d="M44 24C44 12.954 35.046 4 24 4C12.954 4 4 12.954 4 24C4 35.046 12.954 44 24 44C35.046 44 44 35.046 44 24ZM20.586 19.414C20.2217 19.0368 20.0201 18.5316 20.0247 18.0072C20.0292 17.4828 20.2395 16.9812 20.6104 16.6104C20.9812 16.2395 21.4828 16.0292 22.0072 16.0247C22.5316 16.0201 23.0368 16.2217 23.414 16.586L29.414 22.586C29.7889 22.9611 29.9996 23.4697 29.9996 24C29.9996 24.5303 29.7889 25.0389 29.414 25.414L23.414 31.414C23.0368 31.7783 22.5316 31.9799 22.0072 31.9753C21.4828 31.9708 20.9812 31.7605 20.6104 31.3896C20.2395 31.0188 20.0292 30.5172 20.0247 29.9928C20.0201 29.4684 20.2217 28.9632 20.586 28.586L25.172 24L20.586 19.414Z" fill="white"/>
</svg>
