<svg width="47" height="15" viewBox="0 0 47 15" fill="none" xmlns="http://www.w3.org/2000/svg">
<path fill-rule="evenodd" clip-rule="evenodd" d="M33.6514 1.39594C32.9234 1.12158 31.7824 0.827148 30.3576 0.827148C26.726 0.827148 24.1681 2.66394 24.1462 5.29644C24.1257 7.2424 25.9724 8.32804 27.3665 8.97577C28.7971 9.63976 29.2779 10.063 29.2711 10.6557C29.2619 11.5635 28.1287 11.978 27.0722 11.978C25.6013 11.978 24.8198 11.7728 23.6128 11.2674L23.1391 11.0521L22.6234 14.0837C23.4818 14.4619 25.0691 14.7893 26.7174 14.8063C30.5807 14.8063 33.0887 12.9905 33.1172 10.1792C33.1309 8.63859 32.1518 7.46634 30.0314 6.49969C28.7468 5.87319 27.9601 5.45514 27.9684 4.82076C27.9684 4.25785 28.6343 3.65591 30.0733 3.65591C31.275 3.63716 32.1457 3.90039 32.824 4.17476L33.1533 4.33104L33.6514 1.39594ZM16.7004 14.6467L18.998 1.10402H22.6732L20.3738 14.6467H16.7004ZM40.2703 1.10379H43.1101V1.10338L46.0847 14.6377H42.6745C42.6745 14.6377 42.3372 13.0826 42.2273 12.6084C41.9433 12.6084 40.757 12.6068 39.6417 12.6052C38.6523 12.6039 37.7187 12.6026 37.5205 12.6026C37.3778 12.969 36.7469 14.6377 36.7469 14.6377H32.8877L38.3459 2.22686C38.7321 1.34495 39.3906 1.10379 40.2703 1.10379ZM38.6042 9.84887L38.6043 9.84867H41.655C41.5079 9.17084 40.8042 5.93814 40.8042 5.93814L40.5558 4.77052C40.4582 5.03815 40.3223 5.39213 40.2187 5.66215C40.1255 5.90514 40.0583 6.08015 40.0686 6.06308C40.0686 6.06308 38.9085 9.06806 38.6043 9.84867H38.6042V9.84887ZM9.98275 10.3393L13.5808 1.1038V1.10359L17.4741 1.10366L11.6881 14.6207L7.79961 14.6251L4.50954 2.78148C6.84262 3.95498 8.92954 6.299 9.59945 8.46253L9.98275 10.3393Z" fill="#0E4595"/>
<path d="M6.625 1.10352H0.698708L0.651733 1.38529C5.26232 2.50627 8.31298 5.21529 9.57964 8.47068L8.29101 2.24727C8.0686 1.38971 7.42336 1.13375 6.62514 1.10386" fill="#F2AE14"/>
</svg>
