<svg width="353" height="330" viewBox="0 0 353 330" fill="none" xmlns="http://www.w3.org/2000/svg">
<g clip-path="url(#clip0_691_2893)">
<path d="M47.0386 330.038C46.8537 330.038 46.7129 329.888 46.7129 329.702V315.099C46.7129 314.914 46.8625 314.764 47.0386 314.764C47.2147 314.764 47.3643 314.914 47.3643 315.099V329.702C47.3643 329.888 47.2147 330.038 47.0386 330.038Z" fill="#2B5AAC"/>
<path d="M51.1851 327.655C51.0002 327.655 50.8594 327.505 50.8594 327.32V319.441C50.8594 319.255 51.009 319.105 51.1851 319.105C51.3611 319.105 51.5108 319.255 51.5108 319.441V327.32C51.5108 327.505 51.3611 327.655 51.1851 327.655Z" fill="#2B5AAC"/>
<path d="M55.3218 325.273C55.1369 325.273 54.9961 325.123 54.9961 324.938V317.058C54.9961 316.873 55.1457 316.723 55.3218 316.723C55.4979 316.723 55.6475 316.873 55.6475 317.058V324.938C55.6475 325.123 55.4979 325.273 55.3218 325.273Z" fill="#2B5AAC"/>
<path d="M59.4683 322.891C59.2834 322.891 59.1426 322.74 59.1426 322.555V314.676C59.1426 314.491 59.2922 314.349 59.4683 314.349C59.6443 314.349 59.794 314.499 59.794 314.676V322.555C59.794 322.74 59.6443 322.891 59.4683 322.891Z" fill="#2B5AAC"/>
<path d="M63.605 320.508C63.4201 320.508 63.2793 320.358 63.2793 320.173V312.293C63.2793 312.108 63.429 311.967 63.605 311.967C63.7811 311.967 63.9307 312.117 63.9307 312.293V320.173C63.9307 320.358 63.7811 320.508 63.605 320.508Z" fill="#2B5AAC"/>
<path d="M67.7515 318.126C67.5666 318.126 67.4258 317.976 67.4258 317.791V303.188C67.4258 303.002 67.5754 302.861 67.7515 302.861C67.9276 302.861 68.0772 303.011 68.0772 303.188V317.791C68.0772 317.976 67.9276 318.126 67.7515 318.126Z" fill="#2B5AAC"/>
<path d="M71.899 315.743C71.7141 315.743 71.5645 315.593 71.5645 315.408V307.529C71.5645 307.343 71.7141 307.202 71.899 307.202C72.0838 307.202 72.2335 307.352 72.2335 307.529V315.408C72.2335 315.593 72.0838 315.743 71.899 315.743Z" fill="#2B5AAC"/>
<path d="M76.0347 313.352C75.8498 313.352 75.709 313.202 75.709 313.026V305.146C75.709 304.961 75.8586 304.82 76.0347 304.82C76.2108 304.82 76.3604 304.97 76.3604 305.146V313.026C76.3604 313.211 76.2108 313.352 76.0347 313.352Z" fill="#2B5AAC"/>
<path d="M80.1812 310.97C79.9963 310.97 79.8555 310.82 79.8555 310.643V302.764C79.8555 302.579 80.0051 302.438 80.1812 302.438C80.3572 302.438 80.5069 302.588 80.5069 302.764V310.643C80.5069 310.829 80.3572 310.97 80.1812 310.97Z" fill="#2B5AAC"/>
<path d="M84.3277 308.588C84.1428 308.588 84.002 308.438 84.002 308.252V300.373C84.002 300.188 84.1516 300.046 84.3277 300.046C84.5037 300.046 84.6534 300.196 84.6534 300.373V308.252C84.6534 308.438 84.5037 308.588 84.3277 308.588Z" fill="#2B5AAC"/>
<path d="M88.4663 306.205C88.2815 306.205 88.1406 306.055 88.1406 305.879V291.276C88.1406 291.09 88.2903 290.94 88.4663 290.94C88.6424 290.94 88.792 291.09 88.792 291.276V305.879C88.792 306.064 88.6424 306.205 88.4663 306.205Z" fill="#2B5AAC"/>
<path d="M92.6109 303.823C92.426 303.823 92.2852 303.673 92.2852 303.496V295.617C92.2852 295.432 92.4348 295.282 92.6109 295.282C92.7869 295.282 92.9366 295.432 92.9366 295.617V303.496C92.9366 303.682 92.7869 303.823 92.6109 303.823Z" fill="#2B5AAC"/>
<path d="M96.7495 301.441C96.5647 301.441 96.4238 301.29 96.4238 301.114V293.235C96.4238 293.049 96.5735 292.908 96.7495 292.908C96.9256 292.908 97.0752 293.058 97.0752 293.235V301.114C97.0752 301.299 96.9256 301.441 96.7495 301.441Z" fill="#2B5AAC"/>
<path d="M100.896 299.058C100.711 299.058 100.57 298.908 100.57 298.732V290.852C100.57 290.667 100.72 290.526 100.896 290.526C101.072 290.526 101.222 290.676 101.222 290.852V298.732C101.222 298.917 101.072 299.058 100.896 299.058Z" fill="#2B5AAC"/>
<path d="M105.041 296.676C104.856 296.676 104.715 296.526 104.715 296.349V288.47C104.715 288.285 104.864 288.143 105.041 288.143C105.217 288.143 105.366 288.293 105.366 288.47V296.349C105.366 296.535 105.217 296.676 105.041 296.676Z" fill="#2B5AAC"/>
<path d="M109.179 294.293C108.994 294.293 108.854 294.143 108.854 293.958V279.355C108.854 279.17 109.003 279.029 109.179 279.029C109.355 279.029 109.505 279.179 109.505 279.355V293.958C109.505 294.143 109.355 294.293 109.179 294.293Z" fill="#2B5AAC"/>
<path d="M113.325 291.902C113.14 291.902 112.99 291.752 112.99 291.576V283.696C112.99 283.511 113.14 283.37 113.325 283.37C113.51 283.37 113.659 283.52 113.659 283.696V291.576C113.659 291.761 113.51 291.902 113.325 291.902Z" fill="#2B5AAC"/>
<path d="M117.471 289.52C117.286 289.52 117.137 289.37 117.137 289.193V281.314C117.137 281.129 117.286 280.988 117.471 280.988C117.656 280.988 117.806 281.138 117.806 281.314V289.193C117.806 289.379 117.656 289.52 117.471 289.52Z" fill="#2B5AAC"/>
<path d="M121.609 287.138C121.424 287.138 121.283 286.988 121.283 286.811V278.932C121.283 278.746 121.433 278.605 121.609 278.605C121.785 278.605 121.935 278.755 121.935 278.932V286.811C121.935 286.996 121.785 287.138 121.609 287.138Z" fill="#2B5AAC"/>
<path d="M125.755 284.755C125.571 284.755 125.43 284.605 125.43 284.429V276.549C125.43 276.364 125.579 276.223 125.755 276.223C125.931 276.223 126.081 276.373 126.081 276.549V284.429C126.081 284.614 125.931 284.755 125.755 284.755Z" fill="#2B5AAC"/>
<path d="M129.892 282.373C129.707 282.373 129.566 282.223 129.566 282.046V267.443C129.566 267.258 129.716 267.117 129.892 267.117C130.068 267.117 130.218 267.267 130.218 267.443V282.046C130.218 282.232 130.068 282.373 129.892 282.373Z" fill="#2B5AAC"/>
<path d="M134.039 279.99C133.854 279.99 133.713 279.84 133.713 279.664V271.785C133.713 271.599 133.863 271.458 134.039 271.458C134.215 271.458 134.364 271.608 134.364 271.785V279.664C134.364 279.849 134.215 279.99 134.039 279.99Z" fill="#2B5AAC"/>
<path d="M138.185 277.608C138 277.608 137.859 277.458 137.859 277.282V269.402C137.859 269.217 138.009 269.076 138.185 269.076C138.361 269.076 138.511 269.226 138.511 269.402V277.282C138.511 277.467 138.361 277.608 138.185 277.608Z" fill="#2B5AAC"/>
<path d="M142.322 275.226C142.137 275.226 141.996 275.076 141.996 274.899V267.02C141.996 266.835 142.146 266.693 142.322 266.693C142.498 266.693 142.648 266.843 142.648 267.02V274.899C142.648 275.085 142.498 275.226 142.322 275.226Z" fill="#2B5AAC"/>
<path d="M146.468 272.835C146.283 272.835 146.143 272.685 146.143 272.508V264.629C146.143 264.443 146.292 264.302 146.468 264.302C146.644 264.302 146.794 264.452 146.794 264.629V272.508C146.794 272.693 146.644 272.835 146.468 272.835Z" fill="#2B5AAC"/>
<path d="M150.615 270.452C150.43 270.452 150.289 270.302 150.289 270.126V255.523C150.289 255.338 150.439 255.196 150.615 255.196C150.791 255.196 150.94 255.346 150.94 255.523V270.126C150.94 270.311 150.791 270.452 150.615 270.452Z" fill="#2B5AAC"/>
<path d="M154.752 268.07C154.568 268.07 154.418 267.92 154.418 267.743V259.864C154.418 259.679 154.568 259.538 154.752 259.538C154.937 259.538 155.087 259.688 155.087 259.864V267.743C155.087 267.929 154.937 268.07 154.752 268.07Z" fill="#2B5AAC"/>
<path d="M158.899 265.688C158.714 265.688 158.564 265.538 158.564 265.361V257.482C158.564 257.296 158.714 257.155 158.899 257.155C159.084 257.155 159.233 257.305 159.233 257.482V265.361C159.233 265.546 159.084 265.688 158.899 265.688Z" fill="#2B5AAC"/>
<path d="M163.035 263.305C162.85 263.305 162.709 263.155 162.709 262.979V255.099C162.709 254.914 162.859 254.764 163.035 254.764C163.211 254.764 163.36 254.914 163.36 255.099V262.979C163.36 263.164 163.211 263.305 163.035 263.305Z" fill="#2B5AAC"/>
<path d="M167.181 260.923C166.996 260.923 166.855 260.773 166.855 260.596V252.717C166.855 252.532 167.005 252.391 167.181 252.391C167.357 252.391 167.507 252.54 167.507 252.717V260.596C167.507 260.782 167.357 260.923 167.181 260.923Z" fill="#2B5AAC"/>
<path d="M171.328 258.54C171.143 258.54 171.002 258.39 171.002 258.214V243.611C171.002 243.426 171.152 243.285 171.328 243.285C171.504 243.285 171.653 243.435 171.653 243.611V258.214C171.653 258.399 171.504 258.54 171.328 258.54Z" fill="#2B5AAC"/>
<path d="M175.466 256.158C175.281 256.158 175.141 256.008 175.141 255.832V247.952C175.141 247.767 175.29 247.626 175.466 247.626C175.642 247.626 175.792 247.776 175.792 247.952V255.832C175.792 256.017 175.642 256.158 175.466 256.158Z" fill="#2B5AAC"/>
<path d="M179.611 253.776C179.426 253.776 179.285 253.626 179.285 253.449V245.57C179.285 245.385 179.435 245.243 179.611 245.243C179.787 245.243 179.937 245.393 179.937 245.57V253.449C179.937 253.635 179.787 253.776 179.611 253.776Z" fill="#2B5AAC"/>
<path d="M183.757 251.385C183.572 251.385 183.432 251.235 183.432 251.058V243.179C183.432 242.993 183.581 242.852 183.757 242.852C183.933 242.852 184.083 243.002 184.083 243.179V251.058C184.083 251.243 183.933 251.385 183.757 251.385Z" fill="#2B5AAC"/>
<path d="M187.896 249.002C187.711 249.002 187.57 248.852 187.57 248.676V240.796C187.57 240.611 187.72 240.461 187.896 240.461C188.072 240.461 188.222 240.611 188.222 240.796V248.676C188.222 248.861 188.072 249.002 187.896 249.002Z" fill="#2B5AAC"/>
<path d="M192.041 246.62C191.856 246.62 191.715 246.47 191.715 246.293V231.69C191.715 231.505 191.864 231.364 192.041 231.364C192.217 231.364 192.366 231.514 192.366 231.69V246.293C192.366 246.479 192.217 246.62 192.041 246.62Z" fill="#2B5AAC"/>
<path d="M196.178 244.238C195.993 244.238 195.844 244.088 195.844 243.911V236.032C195.844 235.846 195.993 235.705 196.178 235.705C196.363 235.705 196.513 235.855 196.513 236.032V243.911C196.513 244.096 196.363 244.238 196.178 244.238Z" fill="#2B5AAC"/>
<path d="M200.325 241.855C200.14 241.855 199.99 241.705 199.99 241.529V233.649C199.99 233.464 200.14 233.323 200.325 233.323C200.51 233.323 200.659 233.473 200.659 233.649V241.529C200.659 241.714 200.51 241.855 200.325 241.855Z" fill="#2B5AAC"/>
<path d="M204.472 239.473C204.287 239.473 204.146 239.323 204.146 239.138V231.258C204.146 231.073 204.296 230.932 204.472 230.932C204.648 230.932 204.798 231.082 204.798 231.258V239.138C204.798 239.323 204.648 239.473 204.472 239.473Z" fill="#2B5AAC"/>
<path d="M208.609 237.091C208.424 237.091 208.283 236.941 208.283 236.764V228.885C208.283 228.699 208.433 228.558 208.609 228.558C208.785 228.558 208.935 228.708 208.935 228.885V236.764C208.935 236.949 208.785 237.091 208.609 237.091Z" fill="#2B5AAC"/>
<path d="M212.755 234.708C212.571 234.708 212.43 234.558 212.43 234.382V219.779C212.43 219.593 212.579 219.452 212.755 219.452C212.931 219.452 213.081 219.602 213.081 219.779V234.382C213.081 234.567 212.931 234.708 212.755 234.708Z" fill="#2B5AAC"/>
<path d="M328.927 152.208C328.812 152.208 328.698 152.146 328.636 152.04C328.548 151.882 328.601 151.679 328.759 151.59L349.473 139.679C349.631 139.59 349.834 139.643 349.922 139.802C350.01 139.961 349.957 140.164 349.799 140.252L329.085 152.164C329.032 152.19 328.979 152.208 328.918 152.208H328.927Z" fill="#2B5AAC"/>
<path d="M328.927 35.1463C328.812 35.1463 328.698 35.0846 328.636 34.9787C328.548 34.8199 328.601 34.6169 328.759 34.5287L349.473 22.6169C349.631 22.5287 349.834 22.5816 349.922 22.7405C350.01 22.8993 349.957 23.1022 349.799 23.1905L329.085 35.1022C329.032 35.1287 328.979 35.1463 328.918 35.1463H328.927Z" fill="#2B5AAC"/>
<path d="M346.462 140.19C346.278 140.19 346.137 140.04 346.137 139.864V27.7081C346.137 27.5228 346.286 27.3816 346.462 27.3816C346.638 27.3816 346.788 27.5316 346.788 27.7081V139.855C346.788 140.04 346.638 140.182 346.462 140.182V140.19Z" fill="#2B5AAC"/>
<path d="M340.589 43.9787C340.589 43.9787 340.519 43.9787 340.484 43.961C340.308 43.8993 340.22 43.714 340.281 43.5375L346.153 26.7199C346.197 26.5963 346.303 26.5081 346.435 26.4993C346.558 26.4905 346.69 26.5522 346.752 26.6581L352.623 36.7081C352.72 36.8669 352.658 37.0699 352.509 37.1581C352.35 37.2463 352.148 37.1934 352.06 37.0434L346.549 27.611L340.906 43.7581C340.862 43.8905 340.73 43.9787 340.598 43.9787H340.589Z" fill="#2B5AAC"/>
<path d="M346.462 139.749C346.347 139.749 346.233 139.687 346.18 139.582L340.308 129.532C340.212 129.373 340.273 129.17 340.423 129.082C340.581 128.993 340.784 129.046 340.872 129.196L346.391 138.629L352.034 122.482C352.096 122.314 352.28 122.217 352.456 122.279C352.633 122.34 352.721 122.526 352.659 122.702L346.787 139.52C346.743 139.643 346.638 139.732 346.506 139.74C346.497 139.74 346.488 139.74 346.47 139.74L346.462 139.749Z" fill="#2B5AAC"/>
<path d="M12.4423 218.252C12.3278 218.252 12.2134 218.19 12.1518 218.085C12.0638 217.926 12.1166 217.723 12.275 217.635L32.9885 205.723C33.1469 205.626 33.3494 205.688 33.4374 205.846C33.5254 206.005 33.4726 206.208 33.3142 206.296L12.6007 218.208C12.5479 218.235 12.4951 218.252 12.4335 218.252H12.4423Z" fill="#2B5AAC"/>
<path d="M12.4423 60.4787C12.3278 60.4787 12.2134 60.4169 12.1518 60.3111C12.0638 60.1522 12.1166 59.9493 12.275 59.8611L32.9885 47.9493C33.1469 47.8611 33.3494 47.914 33.4374 48.0728C33.5254 48.2317 33.4726 48.4346 33.3142 48.5228L12.6007 60.4346C12.5479 60.4611 12.4951 60.4787 12.4335 60.4787H12.4423Z" fill="#2B5AAC"/>
<path d="M29.9781 203.817C29.7932 203.817 29.6523 203.667 29.6523 203.49V53.7111C29.6523 53.5258 29.802 53.3846 29.9781 53.3846C30.1541 53.3846 30.3038 53.5346 30.3038 53.7111V203.49C30.3038 203.676 30.1541 203.817 29.9781 203.817Z" fill="#2B5AAC"/>
<path d="M24.0972 71.0846C24.0972 71.0846 24.0268 71.0846 23.9916 71.067C23.8155 71.0052 23.7275 70.8199 23.7891 70.6434L29.6607 53.8258C29.7047 53.7023 29.8104 53.614 29.9424 53.6052C30.0745 53.5876 30.1977 53.6582 30.2593 53.764L36.1309 63.814C36.219 63.9729 36.1661 64.1758 36.0165 64.264C35.858 64.3523 35.6556 64.2993 35.5675 64.1493L30.0569 54.717L24.4141 70.864C24.3701 70.9964 24.2381 71.0846 24.106 71.0846H24.0972Z" fill="#2B5AAC"/>
<path d="M29.9773 204.135C29.8628 204.135 29.7484 204.073 29.6956 203.967L23.824 193.908C23.7359 193.749 23.7888 193.546 23.9384 193.458C24.0969 193.361 24.2993 193.414 24.3874 193.573L29.898 203.014L35.5407 186.858C35.6024 186.682 35.7872 186.593 35.9633 186.655C36.1394 186.717 36.2274 186.902 36.1658 187.079L30.2942 203.905C30.2502 204.029 30.1445 204.117 30.0125 204.126C30.0037 204.126 29.9949 204.126 29.9773 204.126V204.135Z" fill="#2B5AAC"/>
<path d="M166.24 117.805C166.055 117.805 165.914 117.655 165.914 117.479V102.876C165.914 102.69 166.064 102.549 166.24 102.549C166.416 102.549 166.565 102.699 166.565 102.876V117.479C166.565 117.664 166.416 117.805 166.24 117.805Z" fill="#2B5AAC"/>
<path d="M170.386 115.423C170.201 115.423 170.061 115.273 170.061 115.096V107.217C170.061 107.032 170.21 106.89 170.386 106.89C170.562 106.89 170.712 107.04 170.712 107.217V115.096C170.712 115.282 170.562 115.423 170.386 115.423Z" fill="#2B5AAC"/>
<path d="M174.523 113.04C174.338 113.04 174.197 112.89 174.197 112.714V104.835C174.197 104.649 174.347 104.508 174.523 104.508C174.699 104.508 174.849 104.658 174.849 104.835V112.714C174.849 112.899 174.699 113.04 174.523 113.04Z" fill="#2B5AAC"/>
<path d="M178.669 110.658C178.485 110.658 178.344 110.508 178.344 110.332V102.452C178.344 102.267 178.493 102.126 178.669 102.126C178.846 102.126 178.995 102.276 178.995 102.452V110.332C178.995 110.517 178.846 110.658 178.669 110.658Z" fill="#2B5AAC"/>
<path d="M182.806 108.276C182.621 108.276 182.48 108.126 182.48 107.949V100.07C182.48 99.8846 182.63 99.7434 182.806 99.7434C182.982 99.7434 183.132 99.8934 183.132 100.07V107.949C183.132 108.135 182.982 108.276 182.806 108.276Z" fill="#2B5AAC"/>
<path d="M186.953 105.893C186.768 105.893 186.627 105.743 186.627 105.567V90.964C186.627 90.7787 186.777 90.6375 186.953 90.6375C187.129 90.6375 187.278 90.7875 187.278 90.964V105.567C187.278 105.752 187.129 105.893 186.953 105.893Z" fill="#2B5AAC"/>
<path d="M191.099 103.502C190.914 103.502 190.773 103.352 190.773 103.176V95.2963C190.773 95.1111 190.923 94.9699 191.099 94.9699C191.275 94.9699 191.425 95.1199 191.425 95.2963V103.176C191.425 103.361 191.275 103.502 191.099 103.502Z" fill="#2B5AAC"/>
<path d="M195.236 101.12C195.051 101.12 194.91 100.97 194.91 100.793V92.914C194.91 92.7287 195.06 92.5875 195.236 92.5875C195.412 92.5875 195.562 92.7375 195.562 92.914V100.793C195.562 100.979 195.412 101.12 195.236 101.12Z" fill="#2B5AAC"/>
<path d="M199.382 98.7375C199.197 98.7375 199.057 98.5875 199.057 98.411V90.5316C199.057 90.3463 199.206 90.2052 199.382 90.2052C199.558 90.2052 199.708 90.3552 199.708 90.5316V98.411C199.708 98.5963 199.558 98.7375 199.382 98.7375Z" fill="#2B5AAC"/>
<path d="M203.529 96.3552C203.344 96.3552 203.203 96.2052 203.203 96.0287V88.1493C203.203 87.964 203.353 87.8228 203.529 87.8228C203.705 87.8228 203.855 87.9728 203.855 88.1493V96.0287C203.855 96.214 203.705 96.3552 203.529 96.3552Z" fill="#2B5AAC"/>
<path d="M207.668 93.9728C207.483 93.9728 207.342 93.8228 207.342 93.6464V79.0434C207.342 78.8581 207.491 78.7169 207.668 78.7169C207.844 78.7169 207.993 78.867 207.993 79.0434V93.6464C207.993 93.8317 207.844 93.9728 207.668 93.9728Z" fill="#2B5AAC"/>
<path d="M211.812 91.5905C211.627 91.5905 211.486 91.4405 211.486 91.264V83.3846C211.486 83.1993 211.636 83.0581 211.812 83.0581C211.988 83.0581 212.138 83.2081 212.138 83.3846V91.264C212.138 91.4493 211.988 91.5905 211.812 91.5905Z" fill="#2B5AAC"/>
<path d="M215.951 89.2081C215.766 89.2081 215.625 89.0581 215.625 88.8817V81.0023C215.625 80.817 215.775 80.6758 215.951 80.6758C216.127 80.6758 216.276 80.8258 216.276 81.0023V88.8817C216.276 89.067 216.127 89.2081 215.951 89.2081Z" fill="#2B5AAC"/>
<path d="M220.096 86.8258C219.911 86.8258 219.762 86.6758 219.762 86.4905V78.6111C219.762 78.4258 219.911 78.2846 220.096 78.2846C220.281 78.2846 220.431 78.4346 220.431 78.6111V86.4905C220.431 86.6758 220.281 86.8258 220.096 86.8258Z" fill="#2B5AAC"/>
<path d="M224.243 84.4434C224.058 84.4434 223.908 84.2934 223.908 84.117V76.2375C223.908 76.0523 224.058 75.9111 224.243 75.9111C224.428 75.9111 224.577 76.0611 224.577 76.2375V84.117C224.577 84.3023 224.428 84.4434 224.243 84.4434Z" fill="#2B5AAC"/>
<path d="M228.38 82.0522C228.196 82.0522 228.055 81.9022 228.055 81.7258V67.1228C228.055 66.9375 228.204 66.7964 228.38 66.7964C228.556 66.7964 228.706 66.9464 228.706 67.1228V81.7258C228.706 81.9111 228.556 82.0522 228.38 82.0522Z" fill="#2B5AAC"/>
<path d="M232.527 79.6699C232.342 79.6699 232.201 79.5199 232.201 79.3346V71.4552C232.201 71.2699 232.351 71.1287 232.527 71.1287C232.703 71.1287 232.853 71.2787 232.853 71.4552V79.3346C232.853 79.5199 232.703 79.6699 232.527 79.6699Z" fill="#2B5AAC"/>
<path d="M236.673 77.2875C236.489 77.2875 236.348 77.1375 236.348 76.9611V69.0817C236.348 68.8964 236.497 68.7552 236.673 68.7552C236.849 68.7552 236.999 68.9052 236.999 69.0817V76.9611C236.999 77.1464 236.849 77.2875 236.673 77.2875Z" fill="#2B5AAC"/>
<path d="M240.81 74.9052C240.625 74.9052 240.484 74.7552 240.484 74.5787V66.6993C240.484 66.514 240.634 66.3728 240.81 66.3728C240.986 66.3728 241.136 66.5228 241.136 66.6993V74.5787C241.136 74.764 240.986 74.9052 240.81 74.9052Z" fill="#2B5AAC"/>
<path d="M244.957 72.5228C244.772 72.5228 244.631 72.3728 244.631 72.1964V64.3169C244.631 64.1317 244.781 63.9905 244.957 63.9905C245.133 63.9905 245.282 64.1405 245.282 64.3169V72.1964C245.282 72.3817 245.133 72.5228 244.957 72.5228Z" fill="#2B5AAC"/>
<path d="M249.093 70.1405C248.908 70.1405 248.768 69.9905 248.768 69.814V55.2111C248.768 55.0258 248.917 54.8846 249.093 54.8846C249.269 54.8846 249.419 55.0346 249.419 55.2111V69.814C249.419 69.9993 249.269 70.1405 249.093 70.1405Z" fill="#2B5AAC"/>
<path d="M253.24 67.7581C253.055 67.7581 252.914 67.6081 252.914 67.4317V59.5522C252.914 59.3669 253.064 59.2169 253.24 59.2169C253.416 59.2169 253.565 59.3669 253.565 59.5522V67.4317C253.565 67.6169 253.416 67.7581 253.24 67.7581Z" fill="#2B5AAC"/>
<path d="M257.386 65.3758C257.201 65.3758 257.061 65.2258 257.061 65.0493V57.1699C257.061 56.9846 257.21 56.8434 257.386 56.8434C257.562 56.8434 257.712 56.9934 257.712 57.1699V65.0493C257.712 65.2346 257.562 65.3758 257.386 65.3758Z" fill="#2B5AAC"/>
<path d="M261.523 62.9846C261.338 62.9846 261.197 62.8346 261.197 62.6581V54.7787C261.197 54.5934 261.347 54.4522 261.523 54.4522C261.699 54.4522 261.849 54.6022 261.849 54.7787V62.6581C261.849 62.8434 261.699 62.9846 261.523 62.9846Z" fill="#2B5AAC"/>
<path d="M265.669 60.6022C265.485 60.6022 265.344 60.4522 265.344 60.2758V52.3964C265.344 52.2111 265.493 52.0699 265.669 52.0699C265.846 52.0699 265.995 52.2199 265.995 52.3964V60.2758C265.995 60.4611 265.846 60.6022 265.669 60.6022Z" fill="#2B5AAC"/>
<path d="M269.816 58.2199C269.631 58.2199 269.49 58.0699 269.49 57.8846V43.2816C269.49 43.0963 269.64 42.9552 269.816 42.9552C269.992 42.9552 270.142 43.1052 270.142 43.2816V57.8846C270.142 58.0699 269.992 58.2199 269.816 58.2199Z" fill="#2B5AAC"/>
<path d="M273.953 55.8375C273.768 55.8375 273.627 55.6875 273.627 55.5111V47.6316C273.627 47.4464 273.777 47.3052 273.953 47.3052C274.129 47.3052 274.278 47.4552 274.278 47.6316V55.5111C274.278 55.6964 274.129 55.8375 273.953 55.8375Z" fill="#2B5AAC"/>
<path d="M278.099 53.4552C277.914 53.4552 277.773 53.3052 277.773 53.1287V45.2493C277.773 45.064 277.923 44.9228 278.099 44.9228C278.275 44.9228 278.425 45.0728 278.425 45.2493V53.1287C278.425 53.314 278.275 53.4552 278.099 53.4552Z" fill="#2B5AAC"/>
<path d="M282.236 51.0728C282.051 51.0728 281.91 50.9228 281.91 50.7463V42.8669C281.91 42.6816 282.06 42.5405 282.236 42.5405C282.412 42.5405 282.562 42.6905 282.562 42.8669V50.7463C282.562 50.9316 282.412 51.0728 282.236 51.0728Z" fill="#2B5AAC"/>
<path d="M286.382 48.6905C286.197 48.6905 286.057 48.5405 286.057 48.364V40.4846C286.057 40.2993 286.206 40.1581 286.382 40.1581C286.558 40.1581 286.708 40.3081 286.708 40.4846V48.364C286.708 48.5493 286.558 48.6905 286.382 48.6905Z" fill="#2B5AAC"/>
<path d="M290.529 46.3081C290.344 46.3081 290.203 46.1581 290.203 45.9817V31.3787C290.203 31.1934 290.353 31.0522 290.529 31.0522C290.705 31.0522 290.855 31.2022 290.855 31.3787V45.9817C290.855 46.167 290.705 46.3081 290.529 46.3081Z" fill="#2B5AAC"/>
<path d="M294.668 43.9258C294.483 43.9258 294.342 43.7758 294.342 43.5905V35.7111C294.342 35.5258 294.491 35.3846 294.668 35.3846C294.844 35.3846 294.993 35.5346 294.993 35.7111V43.5905C294.993 43.7758 294.844 43.9258 294.668 43.9258Z" fill="#2B5AAC"/>
<path d="M298.812 41.5346C298.627 41.5346 298.486 41.3846 298.486 41.2081V33.3287C298.486 33.1434 298.636 33.0022 298.812 33.0022C298.988 33.0022 299.138 33.1522 299.138 33.3287V41.2081C299.138 41.3934 298.988 41.5346 298.812 41.5346Z" fill="#2B5AAC"/>
<path d="M302.96 39.1522C302.775 39.1522 302.625 39.0022 302.625 38.8258V30.9463C302.625 30.761 302.775 30.6199 302.96 30.6199C303.144 30.6199 303.294 30.7699 303.294 30.9463V38.8258C303.294 39.011 303.144 39.1522 302.96 39.1522Z" fill="#2B5AAC"/>
<path d="M307.096 36.7699C306.911 36.7699 306.762 36.6199 306.762 36.4434V28.564C306.762 28.3787 306.911 28.2375 307.096 28.2375C307.281 28.2375 307.431 28.3875 307.431 28.564V36.4434C307.431 36.6287 307.281 36.7699 307.096 36.7699Z" fill="#2B5AAC"/>
<path d="M311.242 34.3875C311.057 34.3875 310.916 34.2375 310.916 34.0611V19.4581C310.916 19.2728 311.066 19.1317 311.242 19.1317C311.418 19.1317 311.567 19.2817 311.567 19.4581V34.0611C311.567 34.2464 311.418 34.3875 311.242 34.3875Z" fill="#2B5AAC"/>
<path d="M315.38 32.0052C315.196 32.0052 315.055 31.8552 315.055 31.6787V23.7993C315.055 23.614 315.204 23.4728 315.38 23.4728C315.556 23.4728 315.706 23.6228 315.706 23.7993V31.6787C315.706 31.864 315.556 32.0052 315.38 32.0052Z" fill="#2B5AAC"/>
<path d="M319.527 29.6228C319.342 29.6228 319.201 29.4728 319.201 29.2964V21.417C319.201 21.2317 319.351 21.0905 319.527 21.0905C319.703 21.0905 319.853 21.2405 319.853 21.417V29.2964C319.853 29.4817 319.703 29.6228 319.527 29.6228Z" fill="#2B5AAC"/>
<path d="M323.673 27.2405C323.488 27.2405 323.348 27.0905 323.348 26.914V19.0346C323.348 18.8493 323.497 18.6993 323.673 18.6993C323.849 18.6993 323.999 18.8493 323.999 19.0346V26.914C323.999 27.0993 323.849 27.2405 323.673 27.2405Z" fill="#2B5AAC"/>
<path d="M327.81 24.8581C327.625 24.8581 327.484 24.7081 327.484 24.5317V16.6522C327.484 16.467 327.634 16.3258 327.81 16.3258C327.986 16.3258 328.136 16.4758 328.136 16.6522V24.5317C328.136 24.717 327.986 24.8581 327.81 24.8581Z" fill="#2B5AAC"/>
<path d="M331.957 22.4758C331.772 22.4758 331.631 22.3258 331.631 22.1493V7.53753C331.631 7.35224 331.781 7.20224 331.957 7.20224C332.133 7.20224 332.282 7.35224 332.282 7.53753V22.1405C332.282 22.3258 332.133 22.4669 331.957 22.4669V22.4758Z" fill="#2B5AAC"/>
<path d="M292.517 108.161C292.455 108.161 292.403 108.143 292.35 108.117L273.371 96.9816C273.274 96.9287 273.212 96.8228 273.203 96.7081L273.098 93.4699C273.098 93.3463 273.159 93.2405 273.256 93.1787C273.362 93.1169 273.485 93.1169 273.591 93.1787L292.508 104.208L331.99 81.3993C332.095 81.3375 332.219 81.3375 332.324 81.3993C332.43 81.4611 332.491 81.5669 332.491 81.6905V85.2199C332.483 85.3346 332.412 85.4493 332.315 85.5022L292.684 108.135C292.631 108.161 292.579 108.179 292.517 108.179V108.161ZM273.864 96.4963L292.517 107.446L331.822 85.0081V82.2463L292.684 104.87C292.579 104.932 292.455 104.932 292.35 104.87L273.776 94.0434L273.855 96.4963H273.864Z" fill="#2B5AAC"/>
<path d="M292.517 104.905C292.455 104.905 292.403 104.888 292.35 104.861L273.265 93.7346C273.159 93.6728 273.098 93.5669 273.098 93.4434C273.098 93.3199 273.159 93.214 273.265 93.161L312.958 70.2905C313.063 70.2287 313.187 70.2287 313.283 70.2905L332.324 81.3728C332.43 81.4346 332.491 81.5405 332.491 81.6552C332.491 81.7699 332.43 81.8846 332.324 81.9375L292.676 104.843C292.623 104.87 292.57 104.888 292.508 104.888L292.517 104.905ZM274.092 93.4522L292.517 104.19L331.506 81.664L313.125 70.961L274.092 93.4522Z" fill="#2B5AAC"/>
<path d="M292.517 108.161C292.455 108.161 292.403 108.143 292.35 108.117L273.265 96.9817C273.159 96.9199 273.098 96.814 273.098 96.6993V93.4611C273.098 93.3464 273.159 93.2317 273.265 93.1699C273.371 93.1081 273.494 93.1081 273.591 93.1699L292.676 104.296C292.781 104.358 292.843 104.464 292.843 104.579V107.835C292.843 107.949 292.781 108.064 292.676 108.126C292.623 108.152 292.57 108.17 292.508 108.17L292.517 108.161ZM273.758 96.4964L292.183 107.252V104.764L273.758 94.0258V96.4964Z" fill="#2B5AAC"/>
<path d="M208.406 131.085C208.344 131.085 208.291 131.067 208.238 131.04L189.259 119.905C189.162 119.852 189.101 119.746 189.092 119.632L188.986 116.393C188.986 116.27 189.048 116.164 189.145 116.102C189.25 116.04 189.374 116.04 189.479 116.102L208.397 127.132L262.685 95.464C262.791 95.4023 262.914 95.4023 263.02 95.464C263.125 95.5258 263.187 95.6317 263.187 95.7552V99.2846C263.178 99.3993 263.108 99.514 263.011 99.567L208.573 131.058C208.52 131.085 208.467 131.102 208.406 131.102V131.085ZM189.752 119.42L208.406 130.37L262.518 99.0728V96.3111L208.573 127.785C208.467 127.846 208.344 127.846 208.238 127.785L189.664 116.967L189.743 119.42H189.752Z" fill="#2B5AAC"/>
<path d="M208.406 127.838C208.344 127.838 208.291 127.82 208.238 127.793L189.154 116.667C189.048 116.605 188.986 116.499 188.986 116.385C188.986 116.27 189.048 116.155 189.154 116.102L243.653 84.3728C243.759 84.3111 243.882 84.3111 243.987 84.3728L263.028 95.4552C263.134 95.5169 263.196 95.6228 263.196 95.7375C263.196 95.8522 263.134 95.9669 263.028 96.0199L208.573 127.785C208.52 127.811 208.467 127.829 208.406 127.829V127.838ZM189.972 116.385L208.406 127.123L262.201 95.7375L243.82 85.0346L189.981 116.376L189.972 116.385Z" fill="#2B5AAC"/>
<path d="M208.406 131.085C208.344 131.085 208.291 131.067 208.238 131.04L189.154 119.905C189.048 119.843 188.986 119.737 188.986 119.623V116.385C188.986 116.27 189.048 116.155 189.154 116.093C189.259 116.032 189.382 116.032 189.479 116.093L208.564 127.22C208.67 127.282 208.731 127.388 208.731 127.502V130.749C208.731 130.864 208.67 130.979 208.564 131.04C208.511 131.067 208.459 131.085 208.397 131.085H208.406ZM189.647 119.429L208.071 130.185V127.696L189.647 116.958V119.429Z" fill="#2B5AAC"/>
<path d="M91.353 283.714C91.2914 283.714 91.2386 283.696 91.1857 283.67L72.2065 272.535C72.1097 272.482 72.048 272.376 72.0392 272.261L71.9336 269.023C71.9336 268.899 71.9952 268.793 72.092 268.732C72.1977 268.67 72.3209 268.67 72.4266 268.732L91.3442 279.761L130.826 256.943C130.931 256.882 131.054 256.882 131.16 256.943C131.266 257.005 131.327 257.111 131.327 257.235V260.764C131.319 260.879 131.248 260.993 131.151 261.055L91.5203 283.688C91.4674 283.714 91.4146 283.732 91.353 283.732V283.714ZM72.6995 272.049L91.353 282.999L130.658 260.561V257.799L91.5203 280.423C91.4146 280.485 91.2914 280.485 91.1857 280.423L72.6114 269.605L72.6907 272.058L72.6995 272.049Z" fill="#2B5AAC"/>
<path d="M91.353 280.467C91.3002 280.467 91.2386 280.449 91.1857 280.423L72.1009 269.296C71.9952 269.235 71.9336 269.129 71.9336 269.005C71.9336 268.882 71.9952 268.776 72.1009 268.723L111.794 245.852C111.899 245.79 112.022 245.79 112.128 245.852L131.169 256.935C131.275 256.996 131.336 257.102 131.336 257.226C131.336 257.349 131.275 257.455 131.169 257.508L91.5203 280.414C91.4674 280.44 91.4146 280.458 91.353 280.458V280.467ZM72.9283 269.014L91.353 279.752L130.341 257.226L111.961 246.523L72.9283 269.014Z" fill="#2B5AAC"/>
<path d="M91.353 283.714C91.2914 283.714 91.2386 283.696 91.1857 283.67L72.1009 272.535C71.9952 272.473 71.9336 272.367 71.9336 272.252V269.014C71.9336 268.899 71.9952 268.785 72.1009 268.723C72.2065 268.661 72.3297 268.661 72.4354 268.723L91.5203 279.849C91.6259 279.911 91.6875 280.017 91.6875 280.132V283.379C91.6875 283.493 91.6259 283.608 91.5203 283.67C91.4674 283.696 91.4146 283.714 91.353 283.714ZM72.5938 272.058L91.0185 282.814V280.326L72.5938 269.588V272.058Z" fill="#2B5AAC"/>
<path d="M28.3842 253.767C28.3226 253.767 28.2698 253.749 28.217 253.723L9.23774 242.588C9.1409 242.535 9.07928 242.429 9.07048 242.314L8.96484 239.076C8.96484 238.952 9.02646 238.846 9.1233 238.785C9.22893 238.723 9.35217 238.723 9.45781 238.785L28.3754 249.814L67.8569 226.996C67.9625 226.935 68.0857 226.935 68.1914 226.996C68.297 227.058 68.3586 227.164 68.3586 227.288V230.817C68.3498 230.932 68.2794 231.046 68.1826 231.108L28.5515 253.741C28.4987 253.767 28.4459 253.785 28.3842 253.785V253.767ZM9.7307 242.102L28.3842 253.052L67.6896 230.614V227.852L28.5515 250.476C28.4459 250.538 28.3226 250.538 28.217 250.476L9.64267 239.658L9.7219 242.111L9.7307 242.102Z" fill="#2B5AAC"/>
<path d="M28.3842 250.52C28.3314 250.52 28.2698 250.502 28.217 250.476L9.1321 239.349C9.02646 239.288 8.96484 239.182 8.96484 239.058C8.96484 238.935 9.02646 238.829 9.1321 238.776L48.8248 215.905C48.9304 215.843 49.0537 215.843 49.1593 215.905L68.2002 226.988C68.3058 227.049 68.3674 227.155 68.3674 227.279C68.3674 227.402 68.3058 227.508 68.2002 227.561L28.5515 250.467C28.4987 250.493 28.4459 250.511 28.3842 250.511V250.52ZM9.95958 239.067L28.3842 249.805L67.3727 227.279L48.992 216.576L9.95958 239.067Z" fill="#2B5AAC"/>
<path d="M28.3842 253.767C28.3226 253.767 28.2698 253.749 28.217 253.723L9.1321 242.588C9.02646 242.526 8.96484 242.42 8.96484 242.305V239.067C8.96484 238.952 9.02646 238.838 9.1321 238.776C9.23774 238.714 9.36098 238.714 9.46661 238.776L28.5515 249.902C28.6571 249.964 28.7188 250.07 28.7188 250.185V253.441C28.7188 253.555 28.6571 253.67 28.5515 253.732C28.4987 253.758 28.4459 253.776 28.3842 253.776V253.767ZM9.62507 242.102L28.0497 252.858V250.37L9.62507 239.632V242.102Z" fill="#2B5AAC"/>
<path d="M9.58157 178.626C9.39671 178.626 9.25586 178.476 9.25586 178.299V157.688C9.25586 157.502 9.40551 157.361 9.58157 157.361C9.75763 157.361 9.90728 157.511 9.90728 157.688V178.299C9.90728 178.485 9.75763 178.626 9.58157 178.626Z" fill="#42B72A"/>
<path d="M15.4273 175.255C15.2424 175.255 15.1016 175.105 15.1016 174.929V163.811C15.1016 163.626 15.2512 163.485 15.4273 163.485C15.6033 163.485 15.753 163.635 15.753 163.811V174.929C15.753 175.114 15.6033 175.255 15.4273 175.255Z" fill="#42B72A"/>
<path d="M21.2808 171.893C21.0959 171.893 20.9551 171.743 20.9551 171.567V160.44C20.9551 160.255 21.1047 160.114 21.2808 160.114C21.4568 160.114 21.6065 160.264 21.6065 160.44V171.567C21.6065 171.752 21.4568 171.893 21.2808 171.893Z" fill="#42B72A"/>
<path d="M27.1255 168.532C26.9407 168.532 26.791 168.382 26.791 168.205V157.088C26.791 156.902 26.9407 156.761 27.1255 156.761C27.3104 156.761 27.46 156.911 27.46 157.088V168.205C27.46 168.39 27.3104 168.532 27.1255 168.532Z" fill="#42B72A"/>
<path d="M32.98 165.17C32.7951 165.17 32.6543 165.02 32.6543 164.843V153.726C32.6543 153.54 32.8039 153.399 32.98 153.399C33.1561 153.399 33.3057 153.549 33.3057 153.726V164.843C33.3057 165.029 33.1561 165.17 32.98 165.17Z" fill="#42B72A"/>
<path d="M38.8257 161.799C38.6408 161.799 38.5 161.649 38.5 161.473V140.861C38.5 140.676 38.6496 140.535 38.8257 140.535C39.0018 140.535 39.1514 140.685 39.1514 140.861V161.473C39.1514 161.658 39.0018 161.799 38.8257 161.799Z" fill="#42B72A"/>
<path d="M44.6695 158.438C44.4846 158.438 44.3438 158.288 44.3438 158.111V146.993C44.3438 146.808 44.4934 146.667 44.6695 146.667C44.8455 146.667 44.9952 146.817 44.9952 146.993V158.111C44.9952 158.296 44.8455 158.438 44.6695 158.438Z" fill="#42B72A"/>
<path d="M50.5249 155.067C50.3401 155.067 50.1992 154.917 50.1992 154.74V143.623C50.1992 143.437 50.3489 143.296 50.5249 143.296C50.701 143.296 50.8506 143.446 50.8506 143.623V154.74C50.8506 154.926 50.701 155.067 50.5249 155.067Z" fill="#42B72A"/>
<path d="M56.3687 151.705C56.1838 151.705 56.043 151.555 56.043 151.379V140.261C56.043 140.076 56.1926 139.935 56.3687 139.935C56.5447 139.935 56.6944 140.085 56.6944 140.261V151.379C56.6944 151.564 56.5447 151.705 56.3687 151.705Z" fill="#42B72A"/>
<path d="M62.2242 148.343C62.0393 148.343 61.8984 148.193 61.8984 148.017V136.899C61.8984 136.714 62.0481 136.573 62.2242 136.573C62.4002 136.573 62.5499 136.723 62.5499 136.899V148.017C62.5499 148.202 62.4002 148.343 62.2242 148.343Z" fill="#42B72A"/>
<path d="M68.0679 144.982C67.883 144.982 67.7422 144.832 67.7422 144.655V124.043C67.7422 123.858 67.8918 123.717 68.0679 123.717C68.244 123.717 68.3936 123.867 68.3936 124.043V144.655C68.3936 144.84 68.244 144.982 68.0679 144.982Z" fill="#42B72A"/>
<path d="M73.9136 141.611C73.7287 141.611 73.5879 141.461 73.5879 141.276V130.158C73.5879 129.973 73.7375 129.832 73.9136 129.832C74.0897 129.832 74.2393 129.982 74.2393 130.158V141.276C74.2393 141.461 74.0897 141.611 73.9136 141.611Z" fill="#42B72A"/>
<path d="M79.7671 138.249C79.5823 138.249 79.4414 138.099 79.4414 137.923V126.805C79.4414 126.62 79.5911 126.479 79.7671 126.479C79.9432 126.479 80.0928 126.629 80.0928 126.805V137.923C80.0928 138.108 79.9432 138.249 79.7671 138.249Z" fill="#42B72A"/>
<path d="M85.6128 134.888C85.428 134.888 85.2871 134.738 85.2871 134.561V123.443C85.2871 123.258 85.4368 123.117 85.6128 123.117C85.7889 123.117 85.9385 123.267 85.9385 123.443V134.561C85.9385 134.746 85.7889 134.888 85.6128 134.888Z" fill="#42B72A"/>
<path d="M91.4673 131.517C91.2825 131.517 91.1328 131.367 91.1328 131.19V120.073C91.1328 119.888 91.2825 119.746 91.4673 119.746C91.6522 119.746 91.8018 119.896 91.8018 120.073V131.19C91.8018 131.376 91.6522 131.517 91.4673 131.517Z" fill="#42B72A"/>
<path d="M97.312 128.155C97.1272 128.155 96.9863 128.005 96.9863 127.829V107.217C96.9863 107.032 97.136 106.882 97.312 106.882C97.4881 106.882 97.6377 107.032 97.6377 107.217V127.829C97.6377 128.014 97.4881 128.155 97.312 128.155Z" fill="#42B72A"/>
<path d="M103.158 124.793C102.973 124.793 102.832 124.643 102.832 124.467V113.349C102.832 113.164 102.982 113.023 103.158 113.023C103.334 113.023 103.483 113.173 103.483 113.349V124.467C103.483 124.652 103.334 124.793 103.158 124.793Z" fill="#42B72A"/>
<path d="M109.011 121.423C108.826 121.423 108.686 121.273 108.686 121.096V109.979C108.686 109.793 108.835 109.652 109.011 109.652C109.187 109.652 109.337 109.802 109.337 109.979V121.096C109.337 121.282 109.187 121.423 109.011 121.423Z" fill="#42B72A"/>
<path d="M114.857 118.061C114.672 118.061 114.531 117.911 114.531 117.735V106.617C114.531 106.432 114.681 106.29 114.857 106.29C115.033 106.29 115.183 106.44 115.183 106.617V117.735C115.183 117.92 115.033 118.061 114.857 118.061Z" fill="#42B72A"/>
<path d="M120.703 114.699C120.518 114.699 120.377 114.549 120.377 114.373V103.255C120.377 103.07 120.527 102.929 120.703 102.929C120.879 102.929 121.028 103.079 121.028 103.255V114.373C121.028 114.558 120.879 114.699 120.703 114.699Z" fill="#42B72A"/>
<path d="M126.556 111.329C126.371 111.329 126.23 111.179 126.23 111.002V90.3905C126.23 90.2052 126.38 90.064 126.556 90.064C126.732 90.064 126.882 90.214 126.882 90.3905V111.002C126.882 111.188 126.732 111.329 126.556 111.329Z" fill="#42B72A"/>
<path d="M132.402 107.967C132.217 107.967 132.076 107.817 132.076 107.64V96.5228C132.076 96.3375 132.226 96.1875 132.402 96.1875C132.578 96.1875 132.728 96.3375 132.728 96.5228V107.64C132.728 107.826 132.578 107.967 132.402 107.967Z" fill="#42B72A"/>
<path d="M138.255 104.605C138.071 104.605 137.93 104.455 137.93 104.27V93.1522C137.93 92.9669 138.079 92.8257 138.255 92.8257C138.431 92.8257 138.581 92.9757 138.581 93.1522V104.27C138.581 104.455 138.431 104.605 138.255 104.605Z" fill="#42B72A"/>
<path d="M144.099 101.235C143.914 101.235 143.773 101.085 143.773 100.899V89.7816C143.773 89.5963 143.923 89.4464 144.099 89.4464C144.275 89.4464 144.425 89.5963 144.425 89.7816V100.899C144.425 101.085 144.275 101.235 144.099 101.235Z" fill="#42B72A"/>
<path d="M149.945 97.8728C149.76 97.8728 149.619 97.7228 149.619 97.5463V86.4287C149.619 86.2434 149.769 86.0934 149.945 86.0934C150.121 86.0934 150.271 86.2434 150.271 86.4287V97.5463C150.271 97.7316 150.121 97.8728 149.945 97.8728Z" fill="#42B72A"/>
<path d="M155.798 94.511C155.614 94.511 155.473 94.361 155.473 94.1846V73.5728C155.473 73.3875 155.622 73.2463 155.798 73.2463C155.974 73.2463 156.124 73.3963 156.124 73.5728V94.1846C156.124 94.3699 155.974 94.511 155.798 94.511Z" fill="#42B72A"/>
<path d="M161.644 91.1405C161.459 91.1405 161.318 90.9905 161.318 90.8052V79.6875C161.318 79.5022 161.468 79.3611 161.644 79.3611C161.82 79.3611 161.97 79.5111 161.97 79.6875V90.8052C161.97 90.9905 161.82 91.1405 161.644 91.1405Z" fill="#42B72A"/>
<path d="M167.498 87.7787C167.313 87.7787 167.172 87.6287 167.172 87.4522V76.3346C167.172 76.1493 167.322 76.0081 167.498 76.0081C167.674 76.0081 167.823 76.1581 167.823 76.3346V87.4522C167.823 87.6375 167.674 87.7787 167.498 87.7787Z" fill="#42B72A"/>
<path d="M173.343 84.4169C173.158 84.4169 173.018 84.267 173.018 84.0905V72.9728C173.018 72.7875 173.167 72.6464 173.343 72.6464C173.519 72.6464 173.669 72.7964 173.669 72.9728V84.0905C173.669 84.2758 173.519 84.4169 173.343 84.4169Z" fill="#42B72A"/>
<path d="M179.189 81.0463C179.004 81.0463 178.863 80.8963 178.863 80.7199V69.6022C178.863 69.4169 179.013 69.2758 179.189 69.2758C179.365 69.2758 179.515 69.4258 179.515 69.6022V80.7199C179.515 80.9052 179.365 81.0463 179.189 81.0463Z" fill="#42B72A"/>
<path d="M185.043 77.6846C184.858 77.6846 184.717 77.5346 184.717 77.3581V56.7463C184.717 56.561 184.866 56.4199 185.043 56.4199C185.219 56.4199 185.368 56.5699 185.368 56.7463V77.3581C185.368 77.5434 185.219 77.6846 185.043 77.6846Z" fill="#42B72A"/>
<path d="M190.888 74.3228C190.703 74.3228 190.562 74.1728 190.562 73.9963V62.8787C190.562 62.6934 190.712 62.5522 190.888 62.5522C191.064 62.5522 191.214 62.7022 191.214 62.8787V73.9963C191.214 74.1816 191.064 74.3228 190.888 74.3228Z" fill="#42B72A"/>
<path d="M196.742 70.9522C196.557 70.9522 196.416 70.8022 196.416 70.6258V59.5081C196.416 59.3228 196.566 59.1816 196.742 59.1816C196.918 59.1816 197.067 59.3316 197.067 59.5081V70.6258C197.067 70.8111 196.918 70.9522 196.742 70.9522Z" fill="#42B72A"/>
<path d="M202.587 67.5905C202.403 67.5905 202.262 67.4405 202.262 67.264V56.1464C202.262 55.9611 202.411 55.8199 202.587 55.8199C202.763 55.8199 202.913 55.9699 202.913 56.1464V67.264C202.913 67.4493 202.763 67.5905 202.587 67.5905Z" fill="#42B72A"/>
<path d="M208.433 64.2287C208.248 64.2287 208.107 64.0787 208.107 63.9022V52.7846C208.107 52.5993 208.257 52.4581 208.433 52.4581C208.609 52.4581 208.759 52.6081 208.759 52.7846V63.9022C208.759 64.0875 208.609 64.2287 208.433 64.2287Z" fill="#42B72A"/>
<path d="M214.287 60.8581C214.102 60.8581 213.961 60.7081 213.961 60.5316V39.9199C213.961 39.7346 214.111 39.5934 214.287 39.5934C214.463 39.5934 214.612 39.7434 214.612 39.9199V60.5316C214.612 60.7169 214.463 60.8581 214.287 60.8581Z" fill="#42B72A"/>
<path d="M220.131 57.4964C219.947 57.4964 219.797 57.3464 219.797 57.1699V46.0522C219.797 45.8669 219.947 45.7258 220.131 45.7258C220.316 45.7258 220.466 45.8758 220.466 46.0522V57.1699C220.466 57.3552 220.316 57.4964 220.131 57.4964Z" fill="#42B72A"/>
<path d="M225.976 54.1346C225.791 54.1346 225.65 53.9846 225.65 53.8081V42.6905C225.65 42.5052 225.8 42.364 225.976 42.364C226.152 42.364 226.302 42.514 226.302 42.6905V53.8081C226.302 53.9934 226.152 54.1346 225.976 54.1346Z" fill="#42B72A"/>
<path d="M231.832 50.764C231.647 50.764 231.506 50.614 231.506 50.4375V39.3199C231.506 39.1346 231.656 38.9934 231.832 38.9934C232.008 38.9934 232.157 39.1434 232.157 39.3199V50.4375C232.157 50.6228 232.008 50.764 231.832 50.764Z" fill="#42B72A"/>
<path d="M237.675 47.4022C237.49 47.4022 237.35 47.2522 237.35 47.0758V35.9581C237.35 35.7728 237.499 35.6317 237.675 35.6317C237.851 35.6317 238.001 35.7817 238.001 35.9581V47.0758C238.001 47.2611 237.851 47.4022 237.675 47.4022Z" fill="#42B72A"/>
<path d="M243.529 44.0405C243.344 44.0405 243.203 43.8905 243.203 43.714V23.1022C243.203 22.9169 243.353 22.7758 243.529 22.7758C243.705 22.7758 243.855 22.9258 243.855 23.1022V43.714C243.855 43.8993 243.705 44.0405 243.529 44.0405Z" fill="#42B72A"/>
<path d="M295.865 77.4905C295.803 77.4905 295.75 77.4728 295.697 77.4463L276.718 66.3111C276.621 66.2581 276.56 66.1522 276.551 66.0375L276.445 62.7993C276.445 62.6758 276.507 62.5699 276.604 62.5081C276.709 62.4463 276.833 62.4463 276.938 62.5081L295.856 73.5375L335.337 50.7199C335.443 50.6581 335.566 50.6581 335.672 50.7199C335.777 50.7816 335.839 50.8875 335.839 51.0111V54.5405C335.83 54.6552 335.76 54.7699 335.663 54.8228L296.032 77.4552C295.979 77.4816 295.926 77.4993 295.865 77.4993V77.4905ZM277.211 65.8258L295.865 76.7758L335.17 54.3375V51.5758L296.032 74.1993C295.926 74.2611 295.803 74.2611 295.697 74.1993L277.123 63.3728L277.202 65.8258H277.211Z" fill="#42B72A"/>
<path d="M295.865 74.2434C295.803 74.2434 295.75 74.2258 295.697 74.1993L276.613 63.0728C276.507 63.011 276.445 62.9052 276.445 62.7816C276.445 62.6581 276.507 62.5522 276.613 62.4993L316.305 39.6287C316.411 39.5669 316.534 39.5669 316.631 39.6287L335.672 50.711C335.777 50.7728 335.839 50.8787 335.839 50.9934C335.839 51.1081 335.777 51.2228 335.672 51.2758L296.023 74.1816C295.97 74.2081 295.918 74.2258 295.856 74.2258L295.865 74.2434ZM277.44 62.7905L295.865 73.5287L334.853 51.0022L316.473 40.2993L277.44 62.7905Z" fill="#42B72A"/>
<path d="M295.865 77.4905C295.803 77.4905 295.75 77.4728 295.697 77.4464L276.613 66.3111C276.507 66.2493 276.445 66.1434 276.445 66.0287V62.7905C276.445 62.6758 276.507 62.5611 276.613 62.4993C276.718 62.4375 276.841 62.4375 276.938 62.4993L296.023 73.6258C296.129 73.6875 296.19 73.7934 296.19 73.9081V77.164C296.19 77.2787 296.129 77.3934 296.023 77.4552C295.97 77.4816 295.918 77.4993 295.856 77.4993L295.865 77.4905ZM277.106 65.8258L295.53 76.5816V74.0934L277.106 63.3552V65.8258Z" fill="#42B72A"/>
<path d="M19.3882 290.949C19.3265 290.949 19.2737 290.932 19.2209 290.905L0.241643 279.77C0.14481 279.717 0.0831889 279.611 0.0743859 279.496L-0.03125 276.258C-0.03125 276.135 0.030371 276.029 0.127204 275.967C0.23284 275.905 0.356082 275.905 0.461718 275.967L19.3793 286.996L73.6674 255.329C73.773 255.267 73.8963 255.267 74.0019 255.329C74.1076 255.39 74.1692 255.496 74.1692 255.62V259.149C74.1604 259.264 74.0899 259.379 73.9931 259.432L19.5554 290.914C19.5026 290.94 19.4498 290.958 19.3882 290.958V290.949ZM0.73461 279.285L19.3882 290.235L73.5001 258.937V256.176L19.5554 287.649C19.4498 287.711 19.3265 287.711 19.2209 287.649L0.64658 276.832L0.725807 279.285H0.73461Z" fill="#42B72A"/>
<path d="M19.3881 287.702C19.3353 287.702 19.2737 287.685 19.2209 287.658L0.136007 276.532C0.0303709 276.47 -0.03125 276.364 -0.03125 276.249C-0.03125 276.135 0.0303709 276.02 0.136007 275.967L54.6353 244.237C54.741 244.176 54.8642 244.176 54.9698 244.237L74.0107 255.32C74.1164 255.382 74.178 255.487 74.178 255.602C74.178 255.717 74.1164 255.832 74.0107 255.885L19.5554 287.649C19.5026 287.676 19.4498 287.693 19.3881 287.693V287.702ZM0.954685 276.249L19.3881 286.987L73.1832 255.602L54.8026 244.899L0.954685 276.249Z" fill="#42B72A"/>
<path d="M19.3882 290.949C19.3265 290.949 19.2737 290.932 19.2209 290.905L0.136007 279.77C0.030371 279.708 -0.03125 279.602 -0.03125 279.487V276.249C-0.03125 276.135 0.030371 276.02 0.136007 275.958C0.241643 275.896 0.364885 275.896 0.470521 275.958L19.5554 287.085C19.661 287.146 19.7227 287.252 19.7227 287.367V290.623C19.7227 290.737 19.661 290.852 19.5554 290.914C19.5026 290.94 19.4498 290.958 19.3882 290.958V290.949ZM0.628974 279.285L19.0536 290.04V287.552L0.628974 276.814V279.285Z" fill="#42B72A"/>
<path fill-rule="evenodd" clip-rule="evenodd" d="M152.717 94.5993C153.201 94.0258 154.46 91.3522 153.21 90.6552C151.387 89.9758 149.415 88.7052 149.125 88.5993C148.623 88.4052 145.41 87.4875 144.908 87.364C144.213 87.1875 143.658 88.0081 143.887 89.0758C143.658 89.6405 143.597 90.4875 144.046 90.9728C143.887 91.5463 143.755 91.9611 144.231 92.8081C144.187 93.2228 143.826 93.7875 144.142 94.0964C144.882 95.2875 146.396 95.2787 148.342 95.5964C150.217 95.9052 151.423 96.1258 152.708 94.6081L152.717 94.5993Z" fill="#F2B387"/>
<path fill-rule="evenodd" clip-rule="evenodd" d="M172.859 200.402C172.516 200.349 171.354 202.952 172.366 204.805C172.639 205.299 172.357 207.152 177.498 208.97C178.933 209.482 180.333 209.261 183.255 210.673C183.951 211.008 183.308 211.996 183.81 212.349C185.21 213.355 186.442 213.885 187.067 214.308C188.255 215.102 192.032 215.058 192.939 213.435C193.414 212.57 192.833 208.449 192.833 208.449L172.868 200.402H172.859Z" fill="#DCCF71"/>
<path fill-rule="evenodd" clip-rule="evenodd" d="M192.956 200.491C193.317 199.679 191.926 198.249 191.926 198.249C191.926 198.249 191.706 199.555 191.592 200.27C191.477 200.985 189.294 202.502 185.606 200.72C183.071 199.493 183.519 196.635 183.519 196.635C183.572 196.229 182.648 196.846 182.648 197.596C182.648 199.705 181.821 200.42 180.975 200.605C177.806 200.455 176.301 199.246 175.262 199.299C174.435 199.335 172.938 199.97 172.525 201.108C171.961 202.679 172.797 204.62 173.713 205.811C174.461 206.799 176.055 207.858 177.252 208.061C183.616 209.093 186.979 212.64 189.03 212.667C191.671 212.702 192.358 212.058 192.701 210.893C193.388 208.555 192.763 206.235 192.173 204.638C192.331 202.908 192.727 200.993 192.947 200.491H192.956Z" fill="#1E170E"/>
<path fill-rule="evenodd" clip-rule="evenodd" d="M192.956 200.491C193.317 199.679 191.926 198.249 191.926 198.249C191.926 198.249 191.706 199.555 191.592 200.27C191.477 200.985 189.294 202.502 185.606 200.72C183.071 199.493 183.519 196.635 183.519 196.635C183.572 196.229 182.648 196.846 182.648 197.596C182.648 199.705 181.821 200.42 180.975 200.605C177.806 200.455 176.301 199.246 175.262 199.299C174.435 199.335 172.938 199.97 172.525 201.108C171.961 202.679 172.797 204.62 173.713 205.811C174.461 206.799 176.055 207.858 177.252 208.061C183.616 209.093 186.979 212.64 189.03 212.667C191.671 212.702 192.358 212.058 192.701 210.893C193.388 208.555 192.763 206.235 192.173 204.638C192.331 202.908 192.727 200.993 192.947 200.491H192.956Z" fill="#1E170E"/>
<path fill-rule="evenodd" clip-rule="evenodd" d="M192.956 200.491C193.317 199.679 191.926 198.249 191.926 198.249C191.926 198.249 191.706 199.555 191.592 200.27C191.477 200.985 189.294 202.502 185.606 200.72C183.071 199.493 183.519 196.635 183.519 196.635C183.572 196.229 182.648 196.846 182.648 197.596C182.648 199.705 181.821 200.42 180.975 200.605C177.806 200.455 178.396 198.796 175.359 198.805C173.898 198.805 172.938 199.97 172.525 201.108C171.961 202.679 172.797 204.62 173.713 205.811C174.461 206.799 176.055 207.858 177.252 208.061C183.616 209.093 186.979 212.64 189.03 212.667C191.671 212.702 192.358 212.058 192.701 210.893C193.388 208.555 192.763 206.235 192.173 204.638C192.331 202.908 192.727 200.993 192.947 200.491H192.956Z" fill="#CB6E33"/>
<path d="M177.111 202.193C177.076 202.282 177.111 202.396 177.217 202.449C177.313 202.502 177.419 202.476 177.463 202.396C177.789 201.673 178.185 201.179 178.634 200.888C179.083 200.596 179.585 200.499 180.139 200.552C180.245 200.561 180.315 200.49 180.306 200.385C180.298 200.288 180.21 200.191 180.104 200.182C179.47 200.12 178.898 200.235 178.387 200.561C177.886 200.888 177.454 201.417 177.111 202.193Z" fill="#FFCC00"/>
<path d="M178.114 202.705C178.088 202.793 178.149 202.899 178.255 202.943C178.361 202.988 178.458 202.943 178.484 202.855C178.704 202.088 179.021 201.549 179.426 201.188C179.822 200.835 180.315 200.667 180.87 200.64C180.975 200.64 181.037 200.552 181.01 200.455C180.984 200.358 180.887 200.279 180.782 200.288C180.148 200.314 179.593 200.517 179.135 200.914C178.686 201.302 178.334 201.893 178.105 202.714L178.114 202.705Z" fill="#FFCC00"/>
<path d="M179.286 203.358C179.286 203.455 179.374 203.535 179.48 203.552C179.585 203.561 179.682 203.499 179.682 203.402C179.691 202.608 179.867 201.999 180.166 201.549C180.466 201.108 180.888 200.817 181.425 200.649C181.522 200.614 181.566 200.517 181.513 200.429C181.469 200.341 181.346 200.296 181.249 200.323C180.642 200.517 180.158 200.843 179.814 201.346C179.48 201.841 179.295 202.502 179.277 203.349L179.286 203.358Z" fill="#FFCC00"/>
<path d="M180.543 204.002C180.578 204.09 180.693 204.135 180.799 204.108C180.904 204.082 180.966 203.985 180.931 203.896C180.64 203.155 180.57 202.529 180.684 201.999C180.79 201.479 181.08 201.046 181.512 200.693C181.591 200.623 181.591 200.526 181.512 200.455C181.432 200.393 181.309 200.393 181.23 200.455C180.737 200.861 180.411 201.355 180.288 201.946C180.165 202.529 180.244 203.208 180.552 204.002H180.543Z" fill="#FFCC00"/>
<path fill-rule="evenodd" clip-rule="evenodd" d="M178.756 75.4434C184.082 72.5404 187.744 81.9904 188.069 87.161C188.034 87.4522 192.779 98.7375 191.327 108.496C189.997 113.508 183.351 110.685 182.075 105.69C178.36 99.5493 176.608 93.3905 175.657 91.4228C174.073 88.1228 172.62 77.4287 178.756 75.4346V75.4434Z" fill="#1057CC"/>
<path fill-rule="evenodd" clip-rule="evenodd" d="M153.871 90.5846C152.163 90.364 149.971 94.7934 151.6 96.1787C153.184 96.9552 154.241 97.3081 155.825 98.0846C158.017 97.6258 159.505 93.0199 157.524 91.5816C155.746 91.0963 155.64 91.0699 153.871 90.5846Z" fill="#2B5AAC"/>
<path fill-rule="evenodd" clip-rule="evenodd" d="M179.231 106.29C175.367 108.108 159.292 101.782 154.671 98.6052C153.597 96.4875 155.604 90.3905 157.62 90.9993C159.785 91.2728 172.576 95.2787 178.588 96.7964C182.479 98.764 181.476 103.379 179.231 106.29Z" fill="#1057CC"/>
<path fill-rule="evenodd" clip-rule="evenodd" d="M48.2695 204.214V197.482L60.8578 190.149V193.255C56.5179 195.779 54.6957 198.188 54.5901 200.535L48.2695 204.223V204.214Z" fill="#4D2C1A"/>
<path fill-rule="evenodd" clip-rule="evenodd" d="M48.2694 204.214V197.482L44.6426 195.382V202.114L48.2694 204.214Z" fill="#934428"/>
<path fill-rule="evenodd" clip-rule="evenodd" d="M60.8577 190.149L48.2694 197.482L44.6426 195.382L57.2309 188.049L60.8577 190.149Z" fill="#FFCC00"/>
<path fill-rule="evenodd" clip-rule="evenodd" d="M138.034 179.861V176.729L134.398 174.629V177.77L138.034 179.861Z" fill="#934428"/>
<path fill-rule="evenodd" clip-rule="evenodd" d="M144.39 176.208V169.255L131.793 176.57V179.764C135.807 177.47 137.295 177.929 137.973 179.905L144.381 176.208H144.39Z" fill="#B36A23"/>
<path fill-rule="evenodd" clip-rule="evenodd" d="M131.802 179.764V176.57L128.166 174.523V177.664L131.802 179.764Z" fill="#934428"/>
<path fill-rule="evenodd" clip-rule="evenodd" d="M144.39 169.29L131.802 176.57L128.166 174.523L140.763 167.19L144.39 169.29Z" fill="#FFCC00"/>
<path fill-rule="evenodd" clip-rule="evenodd" d="M71.3066 217.952V211.22L83.8949 203.888V206.993C79.555 209.517 77.7328 211.926 77.6272 214.273L71.3066 217.961V217.952Z" fill="#B36A23"/>
<path fill-rule="evenodd" clip-rule="evenodd" d="M71.3065 217.952V211.22L67.6797 209.12V215.852L71.3065 217.952Z" fill="#934428"/>
<path fill-rule="evenodd" clip-rule="evenodd" d="M83.9036 203.888L71.3065 211.22L67.6797 209.12L80.268 201.788L83.9036 203.888Z" fill="#FFCC00"/>
<path fill-rule="evenodd" clip-rule="evenodd" d="M144.389 17.5346L71.333 59.2258L71.3242 211.343L144.389 169.423V17.5346Z" fill="#B36A23"/>
<path fill-rule="evenodd" clip-rule="evenodd" d="M139.575 32.8875L139.601 167.835L77.4167 203.799L76.9941 69.2405L139.575 32.8875Z" fill="#663E29"/>
<path fill-rule="evenodd" clip-rule="evenodd" d="M44.6426 47.7993L71.3597 63.214L71.3244 211.343L44.6426 195.629V47.7993Z" fill="#934428"/>
<path fill-rule="evenodd" clip-rule="evenodd" d="M149.354 18.9463C130.833 35.6493 104.054 50.9316 69.0182 64.7846L39.6426 47.8346V45.911L120.049 2.05811L149.354 17.014V18.9375V18.9463Z" fill="#B36A23"/>
<path fill-rule="evenodd" clip-rule="evenodd" d="M68.9389 64.7405L39.6426 47.8434V45.911L45.655 42.6375H68.9389V64.7405Z" fill="#B36A23"/>
<path fill-rule="evenodd" clip-rule="evenodd" d="M149.354 17.0228C130.833 33.7258 104.054 49.0081 69.0182 62.861L39.6426 45.9111L120.049 0.134583L149.354 17.0228Z" fill="#D4A007"/>
<path fill-rule="evenodd" clip-rule="evenodd" d="M139.6 167.517L112.936 151.811V48.3552L139.573 32.8875L139.6 167.517Z" fill="#4D2C1A"/>
<path fill-rule="evenodd" clip-rule="evenodd" d="M77.311 172.167L112.778 151.82V48.4522L76.9941 69.2405L77.311 172.167Z" fill="#934428"/>
<path fill-rule="evenodd" clip-rule="evenodd" d="M148.324 30.7522L149.301 31.2463L148.35 165.646L118.482 183.814L117.505 183.32L117.082 48.5758L148.324 30.7522Z" fill="#633126"/>
<path fill-rule="evenodd" clip-rule="evenodd" d="M149.3 31.2463L149.327 166.14L118.481 183.814L118.059 49.061L149.3 31.2463Z" fill="#D4A007"/>
<path fill-rule="evenodd" clip-rule="evenodd" d="M184.453 151.079C183.625 155.79 185.958 168.496 185.852 173.27C189.743 180.073 193.194 201.717 194.065 205.767C195.095 210.664 181.468 209.429 179.989 204.355C179.241 192.232 174.021 189.32 171.433 175.282C169.074 162.496 166.389 148.996 166.283 147.002C166.089 143.561 168.854 141.911 168.827 138.108C168.827 138.108 174.039 127.952 182.296 128.949C187.622 139.546 186.627 149.535 184.453 151.087V151.079Z" fill="#1A8F02"/>
<path fill-rule="evenodd" clip-rule="evenodd" d="M166.352 80.7111C165.639 80.9052 161.317 82.9699 158.156 87.0552C155.85 90.064 155.973 96.7875 156.07 97.6787C156.36 100.538 153.077 128.755 157.197 129.373C155.181 137.588 176.334 130.82 182.409 125.685C186.299 122.852 184.636 104.949 185.243 101.764C185.851 98.5699 188.183 84.0199 183.993 78.1787C183.025 76.8287 181.317 75.2316 179.82 75.4081C174.486 76.0169 167.232 80.4728 166.343 80.7199L166.352 80.7111Z" fill="#2B5AAC"/>
<path fill-rule="evenodd" clip-rule="evenodd" d="M163.685 86.3846C169.627 87.5758 169.935 97.0787 166.88 102.311C166.669 102.514 159.838 114.073 152.478 120.629C148.253 123.62 145.938 116.649 148.156 111.999C149.239 104.905 153.376 99.1081 154.433 96.8493C154.415 91.2375 157.707 83.9669 163.693 86.3846H163.685Z" fill="#1057CC"/>
<path fill-rule="evenodd" clip-rule="evenodd" d="M159.152 85.8728C163.624 84.3728 172.947 91.661 176.441 106.855C178.246 107.464 177.727 105.311 179.54 104.817C176.582 92.2434 169.786 81.0905 163.695 82.0875C161.247 83.0581 161.054 84.0728 159.152 85.8728Z" fill="#2AB00F"/>
<path fill-rule="evenodd" clip-rule="evenodd" d="M175.553 76.8993C186.389 79.1581 181.627 90.6287 178.502 105.823C180.042 106.432 180.465 104.279 182.489 103.785C185.007 91.2111 189.743 78.7169 179.831 75.3993C178.731 75.0287 178.238 75.0993 175.553 76.8993Z" fill="#2AB00F"/>
<path fill-rule="evenodd" clip-rule="evenodd" d="M162.356 56.7463C162.4 58.2199 161.308 60.0905 160.991 61.5199C160.771 62.5257 160.675 62.8169 161.062 63.7169C161.652 65.0934 161.493 66.3463 161.15 67.6963C160.745 69.3287 161.247 71.0581 161.713 72.6728C162.083 73.9522 162.277 75.4434 163.421 76.211C166.282 78.1257 169.495 76.9963 172.383 75.9816C175.244 74.9846 174.759 69.8934 175.648 67.5199C177.259 63.2316 176.071 57.214 171.353 55.3522C169.24 54.5228 165.763 54.1081 163.606 54.9375C162.858 55.2287 162.356 56.7375 162.356 56.7375V56.7463Z" fill="#F0B186"/>
<path fill-rule="evenodd" clip-rule="evenodd" d="M166.327 74.0493C166.327 74.0493 165.403 78.8228 165.878 81.2846C166.195 82.0434 169.082 84.0022 171.38 84.0464C175.033 84.1169 179.259 82.1316 178.017 79.0964C177.348 77.464 175.597 75.8493 176.715 69.2316C177.067 67.1493 166.327 74.0405 166.327 74.0405V74.0493Z" fill="#F0B186"/>
<path fill-rule="evenodd" clip-rule="evenodd" d="M177.039 52.6258C172.602 49.6081 163.121 50.0228 160.26 53.3581C158.623 55.264 161.053 58.4052 161.053 58.4052C162.021 59.6581 163.465 58.811 164.054 62.3405C164.204 63.2669 165.155 64.2816 165.34 65.0758C168.738 79.9434 176.071 73.5728 176.343 72.964C178.518 67.8022 179.97 68.9758 180.965 65.8875C182.479 61.2022 183.289 56.861 177.048 52.6346L177.039 52.6258Z" fill="black"/>
<path fill-rule="evenodd" clip-rule="evenodd" d="M167.427 68.8611C166.811 70.4493 166.458 71.9228 165.763 71.6581C165.068 71.3758 164.319 69.8846 164.927 68.2964C165.552 66.7081 165.886 65.1905 166.626 65.1728C168.034 65.1464 168.034 67.2728 167.418 68.8611H167.427Z" fill="#F0B186"/>
<path fill-rule="evenodd" clip-rule="evenodd" d="M165.762 66.0993C164.996 67.3257 165.621 71.314 165.859 73.6522C165.965 74.6581 166.317 75.8052 166.352 76.7934C166.414 78.5846 167.312 79.0787 162.734 79.8816C160.481 80.2787 158.887 72.1434 161.273 71.0316C162.805 70.3169 163.236 70.211 163.905 68.261C164.204 67.3963 166.343 64.1316 165.762 66.1081V66.0993Z" fill="black"/>
<path fill-rule="evenodd" clip-rule="evenodd" d="M145.922 208.079C145.578 208.026 144.416 210.62 145.429 212.482C145.701 212.976 145.42 214.829 150.561 216.655C151.996 217.167 153.395 216.946 156.318 218.358C157.013 218.693 156.371 219.682 156.872 220.035C158.272 221.041 159.505 221.57 160.13 221.993C161.318 222.788 165.094 222.743 166.001 221.12C166.477 220.255 165.896 216.135 165.896 216.135L145.93 208.088L145.922 208.079Z" fill="#DCCF71"/>
<path fill-rule="evenodd" clip-rule="evenodd" d="M166.019 208.167C166.38 207.355 164.989 205.926 164.989 205.926C164.989 205.926 164.769 207.232 164.654 207.946C164.54 208.661 162.357 210.179 158.668 208.396C156.133 207.17 156.582 204.311 156.582 204.311C156.635 203.905 155.71 204.523 155.71 205.273C155.71 207.382 154.883 208.096 154.038 208.282C150.869 208.132 149.364 206.923 148.325 206.976C147.497 207.011 146.001 207.646 145.587 208.785C145.024 210.364 145.86 212.296 146.775 213.488C147.524 214.476 149.117 215.535 150.314 215.729C156.679 216.761 160.042 220.308 162.093 220.343C164.734 220.379 165.42 219.735 165.764 218.57C166.45 216.232 165.825 213.911 165.235 212.314C165.394 210.576 165.79 208.67 166.01 208.167H166.019Z" fill="#1E170E"/>
<path fill-rule="evenodd" clip-rule="evenodd" d="M166.019 208.167C166.38 207.355 164.989 205.926 164.989 205.926C164.989 205.926 164.769 207.232 164.654 207.946C164.54 208.661 162.357 210.179 158.668 208.396C156.133 207.17 156.582 204.311 156.582 204.311C156.635 203.905 155.71 204.523 155.71 205.273C155.71 207.382 154.883 208.096 154.038 208.282C150.869 208.132 149.364 206.923 148.325 206.976C147.497 207.011 146.001 207.646 145.587 208.785C145.024 210.364 145.86 212.296 146.775 213.488C147.524 214.476 149.117 215.535 150.314 215.729C156.679 216.761 160.042 220.308 162.093 220.343C164.734 220.379 165.42 219.735 165.764 218.57C166.45 216.232 165.825 213.911 165.235 212.314C165.394 210.576 165.79 208.67 166.01 208.167H166.019Z" fill="#1E170E"/>
<path fill-rule="evenodd" clip-rule="evenodd" d="M166.019 208.167C166.38 207.355 164.989 205.926 164.989 205.926C164.989 205.926 164.769 207.232 164.654 207.946C164.54 208.661 162.357 210.179 158.668 208.396C156.133 207.17 156.582 204.311 156.582 204.311C156.635 203.905 155.71 204.523 155.71 205.273C155.71 207.382 154.883 208.096 154.038 208.282C150.869 208.132 151.459 206.473 148.422 206.482C146.96 206.482 145.992 207.646 145.587 208.785C145.024 210.364 145.86 212.296 146.775 213.488C147.524 214.476 149.117 215.535 150.314 215.729C156.679 216.761 160.042 220.308 162.093 220.343C164.734 220.379 165.42 219.735 165.764 218.57C166.45 216.232 165.825 213.911 165.235 212.314C165.394 210.576 165.79 208.67 166.01 208.167H166.019Z" fill="#CB6E33"/>
<path d="M150.182 209.87C150.147 209.958 150.191 210.073 150.288 210.126C150.384 210.179 150.49 210.152 150.534 210.073C150.86 209.349 151.256 208.855 151.705 208.564C152.154 208.273 152.656 208.176 153.21 208.229C153.316 208.238 153.386 208.167 153.377 208.061C153.377 207.964 153.281 207.867 153.175 207.858C152.541 207.796 151.969 207.911 151.458 208.238C150.957 208.564 150.525 209.093 150.182 209.87Z" fill="#FFCC00"/>
<path d="M151.177 210.382C151.15 210.47 151.212 210.576 151.318 210.62C151.423 210.664 151.52 210.62 151.547 210.532C151.767 209.764 152.083 209.226 152.488 208.864C152.885 208.511 153.378 208.343 153.932 208.317C154.038 208.317 154.099 208.229 154.073 208.132C154.047 208.035 153.95 207.955 153.844 207.964C153.21 207.99 152.656 208.185 152.198 208.59C151.749 208.979 151.397 209.57 151.168 210.39L151.177 210.382Z" fill="#FFCC00"/>
<path d="M152.347 211.035C152.347 211.132 152.435 211.211 152.54 211.229C152.646 211.238 152.743 211.176 152.743 211.079C152.752 210.285 152.928 209.676 153.227 209.226C153.526 208.785 153.949 208.493 154.486 208.326C154.583 208.291 154.627 208.193 154.574 208.105C154.53 208.017 154.407 207.973 154.31 207.999C153.702 208.193 153.218 208.52 152.875 209.023C152.54 209.517 152.355 210.179 152.338 211.026L152.347 211.035Z" fill="#FFCC00"/>
<path d="M153.606 211.67C153.641 211.758 153.755 211.802 153.861 211.776C153.967 211.749 154.028 211.652 153.993 211.564C153.703 210.823 153.632 210.196 153.747 209.667C153.852 209.146 154.143 208.714 154.574 208.361C154.653 208.29 154.653 208.193 154.574 208.123C154.495 208.061 154.372 208.061 154.292 208.123C153.799 208.529 153.474 209.023 153.35 209.614C153.227 210.196 153.306 210.876 153.615 211.67H153.606Z" fill="#FFCC00"/>
<path fill-rule="evenodd" clip-rule="evenodd" d="M170.632 154.732C170.315 161.49 168.211 166.767 166.53 174.196C165.183 179.702 168.458 208.264 167.093 215.596C165.782 217.714 157.947 215.914 154.109 211.229C152.771 205.97 150.658 177.946 151.336 171.258C151.899 169.14 152.559 157.873 152.762 153.682C153.273 142.643 155.262 134.208 156.723 131.693C156.723 131.693 165.711 130.688 173.872 132.329C181.028 145.564 171.433 154.079 170.623 154.732H170.632Z" fill="#2AB00F"/>
<path fill-rule="evenodd" clip-rule="evenodd" d="M156.73 131.693C160.648 135.117 177.039 136.246 182.286 128.94C182.224 128.085 182.47 126.549 182.409 125.693C176.458 130.035 163.826 133.14 157.197 129.382C157.039 130.158 156.88 130.926 156.73 131.702V131.693Z" fill="#1A8F02"/>
<path fill-rule="evenodd" clip-rule="evenodd" d="M159.592 178.335C159.645 173.138 160.296 167.932 162.268 162.735C158.157 161.835 154.944 160.379 152.55 157.555C151.177 164.164 148.976 172.811 151.3 174.505C154.319 176.649 156.458 177.876 159.592 178.335Z" fill="#1A8F02"/>
<path fill-rule="evenodd" clip-rule="evenodd" d="M161.141 162.929C156.801 161.411 154.354 160.026 152.25 157.988C151.669 159.32 151.079 160.643 150.498 161.976C152.892 164.376 155.648 166.352 159.389 167.182C160.217 165.902 160.85 164.508 161.141 162.929Z" fill="#2FC410"/>
<path fill-rule="evenodd" clip-rule="evenodd" d="M152.937 163.061C153.175 162.814 153.078 162.285 152.726 161.87C152.374 161.455 151.898 161.314 151.67 161.561C151.441 161.808 151.529 162.338 151.881 162.752C152.233 163.167 152.708 163.308 152.937 163.061Z" fill="#1A8F02"/>
<path fill-rule="evenodd" clip-rule="evenodd" d="M159.134 166.37C159.363 166.123 159.275 165.593 158.923 165.179C158.571 164.764 158.096 164.623 157.867 164.87C157.638 165.117 157.726 165.646 158.078 166.061C158.43 166.476 158.906 166.617 159.134 166.37Z" fill="#1A8F02"/>
<path fill-rule="evenodd" clip-rule="evenodd" d="M155.789 133.723C152.558 145.282 151.088 154.679 152.672 155.49C156.546 157.767 158.438 158.649 162.092 158.861C163.016 155.737 163.377 151.193 164.187 147.761C157.488 145.59 158.13 139.008 159.037 135.117C157.426 134.896 157.206 134.393 155.789 133.723Z" fill="#1A8F02"/>
<path fill-rule="evenodd" clip-rule="evenodd" d="M124.284 106.89C123.465 105.673 121.3 104.093 120.507 103.573C119.495 102.911 118.861 102.788 117.849 102.126C117.752 103.035 117.285 103.396 119.196 104.42C120.243 105.576 121.854 110.27 123.474 108.99C124.231 108.029 125.419 108.338 124.284 106.89Z" fill="#DB9669"/>
<path fill-rule="evenodd" clip-rule="evenodd" d="M124.795 111.364C125.279 110.79 126.538 108.117 125.288 107.42C123.465 106.74 121.494 105.47 121.203 105.364C120.701 105.17 117.488 104.261 116.986 104.129C116.291 103.952 115.736 104.773 115.965 105.84C115.736 106.405 115.675 107.252 116.124 107.738C115.965 108.311 115.833 108.726 116.309 109.573C116.265 109.988 115.904 110.552 116.221 110.861C116.96 112.052 118.474 112.043 120.42 112.361C122.295 112.67 123.501 112.89 124.786 111.373L124.795 111.364Z" fill="#F2B387"/>
<path fill-rule="evenodd" clip-rule="evenodd" d="M125.814 107.146C124.098 107.04 122.196 111.602 123.913 112.882C125.541 113.552 126.624 113.835 128.253 114.505C130.409 113.905 131.589 109.211 129.52 107.896C127.716 107.535 127.61 107.508 125.805 107.146H125.814Z" fill="#2B5AAC"/>
<path fill-rule="evenodd" clip-rule="evenodd" d="M152.153 121.149C148.412 123.223 131.968 117.955 127.144 115.096C125.929 113.049 127.54 106.838 129.591 107.305C131.774 107.438 144.794 110.588 150.894 111.717C154.909 113.429 154.204 118.096 152.153 121.149Z" fill="#1057CC"/>
<path fill-rule="evenodd" clip-rule="evenodd" d="M151.661 89.6581C151.018 88.3346 149.099 86.464 148.395 85.8464C147.479 85.0434 146.881 84.8405 145.965 84.0375C145.745 84.9199 145.226 85.2199 146.969 86.4993C147.84 87.7964 148.773 92.667 150.56 91.6258C151.449 90.7787 152.576 91.2552 151.661 89.6581Z" fill="#DB9669"/>
<path fill-rule="evenodd" clip-rule="evenodd" d="M102.856 99.9905L103.878 100.485L114.925 234.893L86.6766 253.052L85.6554 252.567L73.1992 117.814L102.856 99.9905Z" fill="#633126"/>
<path fill-rule="evenodd" clip-rule="evenodd" d="M103.878 100.485L115.947 235.379L86.6769 253.052L74.2207 118.299L103.878 100.485Z" fill="#D4A007"/>
<path fill-rule="evenodd" clip-rule="evenodd" d="M171.838 130.202C174.655 123.179 176.556 115.485 176.433 106.326C178.502 105.32 180.57 104.323 182.639 103.317C182.569 110.773 182.49 118.229 182.419 125.693C179.347 129.532 175.764 130.758 171.838 130.202Z" fill="#1A8F02"/>
<path fill-rule="evenodd" clip-rule="evenodd" d="M219.419 210.435C219.419 210.435 213.274 213.17 213.847 210.099C214.093 208.793 211.681 209.596 210.836 209.914C210.079 210.399 208.838 214.555 209.022 215.296C209.216 216.064 209.656 216.364 209.102 217.22C208.547 218.076 207.711 217.996 207.051 219.302C206.478 220.423 205.378 225.135 208.054 228.743C209.207 230.305 209.947 231.099 211.567 230.076C212.077 229.758 213.53 224.535 213.926 223.079C214.92 219.346 218.16 217.167 218.899 216.682C219.639 216.196 221.884 214.652 221.884 214.652C221.884 214.652 222.033 213.038 219.419 210.435Z" fill="#DCCF71"/>
<path fill-rule="evenodd" clip-rule="evenodd" d="M219.419 210.435C217.791 209.879 215.185 208.996 212.57 209.94C211.813 210.426 210.22 214.308 210.405 215.049C210.845 216.805 209.19 217.723 208.477 219.117C207.236 221.482 206.602 226.185 210.176 229.608C211.1 230.288 212.333 229.529 212.843 228.929C213.768 227.852 213.521 224.535 213.917 223.079C214.938 218.755 219.437 216.867 220.185 216.382C220.924 215.896 221.884 214.652 221.884 214.652C221.884 214.652 222.034 213.038 219.419 210.435Z" fill="#CB6E33"/>
<path d="M211.592 221.596C211.504 221.579 211.399 221.64 211.364 221.746C211.328 221.852 211.372 221.949 211.469 221.976C212.244 222.152 212.807 222.443 213.177 222.832C213.547 223.211 213.749 223.688 213.802 224.243C213.811 224.349 213.899 224.402 213.996 224.376C214.093 224.349 214.163 224.243 214.154 224.138C214.093 223.502 213.864 222.955 213.441 222.523C213.027 222.099 212.42 221.782 211.592 221.596Z" fill="#FFCC00"/>
<path d="M212.13 220.59C212.051 220.573 211.963 220.635 211.936 220.723C211.91 220.811 211.945 220.899 212.024 220.917C212.693 221.067 213.178 221.314 213.503 221.658C213.82 221.985 213.996 222.399 214.04 222.885C214.049 222.973 214.128 223.026 214.208 222.999C214.296 222.973 214.348 222.885 214.34 222.796C214.287 222.249 214.084 221.773 213.723 221.402C213.363 221.032 212.843 220.758 212.121 220.599L212.13 220.59Z" fill="#FFCC00"/>
<path d="M212.71 219.585C212.631 219.567 212.543 219.629 212.516 219.717C212.49 219.805 212.525 219.893 212.605 219.911C213.274 220.061 213.758 220.308 214.083 220.652C214.4 220.979 214.576 221.393 214.62 221.879C214.629 221.967 214.708 222.02 214.788 221.993C214.876 221.967 214.928 221.879 214.92 221.791C214.867 221.243 214.664 220.767 214.303 220.396C213.943 220.026 213.423 219.752 212.701 219.593L212.71 219.585Z" fill="#FFCC00"/>
<path d="M213.282 218.579C213.203 218.561 213.115 218.623 213.089 218.711C213.062 218.799 213.098 218.888 213.177 218.905C213.846 219.055 214.33 219.302 214.656 219.638C214.973 219.964 215.149 220.379 215.193 220.864C215.201 220.952 215.281 221.005 215.36 220.979C215.448 220.952 215.51 220.864 215.492 220.776C215.439 220.229 215.237 219.752 214.876 219.382C214.515 219.011 213.995 218.738 213.274 218.579H213.282Z" fill="#FFCC00"/>
<path d="M213.864 217.573C213.785 217.555 213.697 217.617 213.671 217.705C213.644 217.793 213.68 217.882 213.759 217.899C214.428 218.049 214.912 218.305 215.238 218.64C215.555 218.967 215.731 219.382 215.775 219.867C215.783 219.955 215.863 220.008 215.942 219.982C216.03 219.955 216.083 219.867 216.074 219.779C216.021 219.232 215.819 218.755 215.458 218.385C215.097 218.014 214.577 217.74 213.856 217.582L213.864 217.573Z" fill="#FFCC00"/>
<path d="M214.445 216.567C214.365 216.549 214.277 216.611 214.251 216.699C214.224 216.788 214.26 216.876 214.339 216.893C215.008 217.043 215.492 217.299 215.818 217.635C216.135 217.961 216.311 218.376 216.355 218.861C216.364 218.949 216.443 219.002 216.522 218.976C216.61 218.949 216.663 218.861 216.654 218.773C216.601 218.226 216.399 217.749 216.038 217.379C215.677 217.008 215.158 216.735 214.436 216.576L214.445 216.567Z" fill="#FFCC00"/>
<path d="M215.017 215.561C214.938 215.543 214.85 215.605 214.823 215.693C214.797 215.782 214.832 215.87 214.911 215.888C215.58 216.038 216.064 216.285 216.39 216.629C216.707 216.955 216.883 217.37 216.927 217.855C216.936 217.943 217.015 217.996 217.094 217.97C217.174 217.943 217.235 217.855 217.226 217.767C217.174 217.22 216.971 216.743 216.61 216.373C216.249 216.002 215.73 215.729 215.008 215.57L215.017 215.561Z" fill="#FFCC00"/>
<path fill-rule="evenodd" clip-rule="evenodd" d="M215.183 209.27C212.692 211.052 210.544 214.167 213.845 220.767C222.393 225.955 228.405 239.252 236.61 245.385C232.393 236.835 233.573 232.767 229.347 224.217C223.537 214.432 218.361 209.552 215.175 209.27H215.183Z" fill="#1A8F02"/>
<path fill-rule="evenodd" clip-rule="evenodd" d="M241.178 148.705C240.5 148.599 231.389 149.543 226.97 151.379C223.854 153.002 224.62 159.699 224.356 160.476C223.484 162.99 218.546 179.129 217.771 182.702C216.996 186.276 214.408 187.017 216.671 189.549C216.996 200.676 231.653 213.479 236.548 206.226C237.745 198.77 248.511 181.255 253.379 169.705C254.55 166.926 260.184 157.988 257.42 152.632C256.716 151.264 254.788 149.808 253.458 149.367C248.722 147.796 242.023 148.846 241.187 148.705H241.178Z" fill="#2B5AAC"/>
<path fill-rule="evenodd" clip-rule="evenodd" d="M250.96 153.311C245.026 154.546 245.493 159.946 248.574 164.102C248.768 164.288 252.025 178.582 261.048 186.029C265.027 190.449 267.773 183.717 267.14 181.052C266.647 178.979 263.469 168.602 260.898 162.982C259.912 154.343 257.659 149.446 250.951 153.311H250.96Z" fill="#2B5AAC"/>
<path fill-rule="evenodd" clip-rule="evenodd" d="M247.289 150.788C252.404 151.158 253.53 159.717 247.254 173.579C248.557 174.735 249.525 173.976 251.523 174.214C256.656 162.726 259.42 154.732 253.548 150.443C250.652 150.364 250.185 149.976 247.28 150.788H247.289Z" fill="#2AB00F"/>
<path fill-rule="evenodd" clip-rule="evenodd" d="M266.955 180.311C273.46 184.476 280.098 190.935 281.207 192.179C281.585 194.526 277.915 198.849 275.089 197.499C271.022 195.558 268.117 194.129 260.3 185.755C256.796 182.288 263.645 178.079 266.955 180.311Z" fill="#1057CC"/>
<path fill-rule="evenodd" clip-rule="evenodd" d="M283.777 195.046C284.367 196.74 282.096 199.361 280.449 200.314C278.909 199.449 277.632 197.958 276.092 197.093C276.013 194.799 278.257 192.002 280.256 192.09C281.664 193.273 282.368 193.864 283.777 195.046Z" fill="#2B5AAC"/>
<path fill-rule="evenodd" clip-rule="evenodd" d="M283.636 196.476C284.965 196.088 285.493 195.938 286.259 196.555C287.641 198.038 290.934 199.096 291.154 199.335C291.541 199.74 289.763 200.402 291.039 201.558C291.488 202.14 288.205 201.205 289.877 203.543C287.307 204.09 286.946 203.217 287.694 205.255C287.351 206.005 285.837 205.343 284.243 204.964C283.592 205.343 281.585 201.576 281.409 199.811L280.546 198.929C279.956 196.97 281.779 196.026 282.958 195.885L283.645 196.476H283.636Z" fill="#DB9669"/>
<path fill-rule="evenodd" clip-rule="evenodd" d="M247.719 233.173C247.719 233.173 249.172 239.755 246.284 238.582C245.061 238.088 245.36 240.611 245.501 241.502C245.826 242.34 249.638 244.388 250.404 244.352C251.196 244.317 251.575 243.938 252.305 244.661C253.036 245.376 252.79 246.179 253.934 247.096C254.92 247.882 259.304 249.893 263.371 247.988C265.123 247.167 266.047 246.593 265.369 244.802C265.158 244.238 260.343 241.776 258.996 241.096C255.545 239.376 254.057 235.767 253.732 234.937C253.406 234.108 252.341 231.602 252.341 231.602C252.341 231.602 250.791 231.135 247.728 233.182L247.719 233.173Z" fill="#DCCF71"/>
<path fill-rule="evenodd" clip-rule="evenodd" d="M247.719 233.173C246.848 234.664 245.475 237.046 245.88 239.808C246.205 240.646 249.682 242.985 250.448 242.949C252.253 242.87 252.825 244.67 254.049 245.649C256.109 247.343 260.589 248.888 264.648 246.064C265.501 245.288 264.991 243.929 264.507 243.311C263.635 242.19 260.352 241.776 258.996 241.096C254.973 239.235 254.014 234.435 253.697 233.614C253.371 232.793 252.341 231.602 252.341 231.602C252.341 231.602 250.792 231.135 247.728 233.182L247.719 233.173Z" fill="#CB6E33"/>
<path d="M257.078 243.073C257.042 243.161 257.078 243.276 257.183 243.329C257.28 243.382 257.386 243.355 257.43 243.276C257.755 242.552 258.152 242.058 258.601 241.767C259.05 241.476 259.551 241.379 260.106 241.432C260.212 241.44 260.282 241.37 260.273 241.264C260.264 241.167 260.176 241.07 260.071 241.061C259.437 240.999 258.865 241.114 258.354 241.44C257.852 241.767 257.421 242.296 257.078 243.073Z" fill="#FFCC00"/>
<path d="M256.207 242.34C256.172 242.411 256.207 242.517 256.295 242.561C256.374 242.605 256.471 242.588 256.506 242.517C256.788 241.89 257.131 241.467 257.519 241.211C257.906 240.964 258.346 240.876 258.821 240.92C258.909 240.92 258.98 240.867 258.971 240.779C258.971 240.69 258.883 240.611 258.795 240.602C258.249 240.549 257.747 240.646 257.307 240.929C256.876 241.211 256.506 241.67 256.207 242.34Z" fill="#FFCC00"/>
<path d="M255.334 241.573C255.299 241.643 255.334 241.749 255.422 241.793C255.501 241.838 255.598 241.82 255.633 241.749C255.915 241.123 256.258 240.699 256.645 240.443C257.033 240.196 257.473 240.108 257.948 240.152C258.036 240.152 258.107 240.099 258.098 240.011C258.098 239.923 258.01 239.843 257.922 239.835C257.376 239.782 256.874 239.879 256.434 240.161C256.003 240.443 255.633 240.902 255.334 241.573Z" fill="#FFCC00"/>
<path d="M254.463 240.805C254.427 240.876 254.463 240.982 254.551 241.026C254.63 241.07 254.727 241.052 254.762 240.982C255.044 240.355 255.387 239.932 255.774 239.676C256.162 239.429 256.593 239.34 257.077 239.385C257.165 239.385 257.236 239.332 257.227 239.243C257.227 239.155 257.139 239.076 257.051 239.067C256.505 239.014 256.003 239.111 255.563 239.393C255.132 239.676 254.762 240.135 254.463 240.805Z" fill="#FFCC00"/>
<path d="M253.592 240.038C253.556 240.108 253.592 240.214 253.68 240.258C253.759 240.302 253.856 240.285 253.891 240.214C254.173 239.588 254.516 239.164 254.903 238.908C255.291 238.661 255.731 238.573 256.206 238.617C256.294 238.617 256.365 238.564 256.356 238.476C256.356 238.388 256.268 238.308 256.18 238.299C255.634 238.246 255.132 238.343 254.692 238.626C254.261 238.908 253.891 239.367 253.592 240.038Z" fill="#FFCC00"/>
<path d="M252.721 239.27C252.685 239.34 252.721 239.446 252.809 239.49C252.888 239.535 252.985 239.517 253.02 239.446C253.302 238.82 253.645 238.396 254.032 238.14C254.419 237.893 254.86 237.805 255.335 237.849C255.423 237.849 255.485 237.796 255.485 237.708C255.485 237.62 255.397 237.54 255.309 237.532C254.763 237.479 254.261 237.576 253.821 237.858C253.39 238.14 253.02 238.599 252.721 239.27Z" fill="#FFCC00"/>
<path d="M251.857 238.511C251.822 238.582 251.857 238.679 251.945 238.732C252.024 238.776 252.121 238.758 252.157 238.687C252.438 238.061 252.782 237.638 253.169 237.382C253.556 237.135 253.996 237.046 254.472 237.09C254.56 237.09 254.63 237.038 254.621 236.949C254.621 236.861 254.533 236.782 254.445 236.773C253.9 236.72 253.398 236.817 252.958 237.099C252.526 237.382 252.157 237.84 251.857 238.511Z" fill="#FFCC00"/>
<path fill-rule="evenodd" clip-rule="evenodd" d="M225.174 200.967C226.583 205.299 225.967 208.696 227.049 213.117C228.784 218.605 252.437 207.293 256.152 210.232C249.365 216.814 246.469 225.999 246.222 236.438C249.321 238.882 252.684 241.529 256.874 239.005C260.571 227.967 268.644 213.929 271.117 209.446C271.804 208.193 273.617 200.023 271.073 198.232C254.735 190.652 245.166 195.84 241.557 193.564C241.205 191.349 241.574 188.49 241.301 187.635C241.301 187.635 237.463 190.088 229.682 191.658C229.629 193.229 224.972 200.34 225.174 200.967Z" fill="#1A8F02"/>
<path fill-rule="evenodd" clip-rule="evenodd" d="M236.611 245.385C238.213 246.417 239.754 247.043 241.356 247.026C243.081 247.008 246.453 245.605 246.576 244.07C246.875 230.729 242.887 223.282 236.549 207.47C241.505 206.235 238.019 197.552 238.389 189.064C227.509 196.343 219.348 193.485 216.672 191.385C213.045 197.164 214.991 207.461 216.364 209.526C218.75 213.108 219.313 212.12 223.961 219.735C228.82 228.752 231.576 239.058 236.611 245.376V245.385Z" fill="#2AB00F"/>
<path fill-rule="evenodd" clip-rule="evenodd" d="M216.188 192.249C220.105 195.673 236.496 196.802 241.743 189.496C241.681 188.64 241.927 187.105 241.866 186.249C235.915 190.59 223.283 193.696 216.654 189.938C216.496 190.714 216.337 191.482 216.188 192.258V192.249Z" fill="#1A8F02"/>
<path fill-rule="evenodd" clip-rule="evenodd" d="M231.32 153.099C228.6 147.673 220.413 153.611 217.2 157.679C217.068 157.935 206.751 164.499 202.385 173.349C200.624 178.229 207.385 181.158 211.267 177.788C217.807 174.867 223.063 169.361 224.955 168.285C228.125 166.476 235.211 158.252 231.311 153.108L231.32 153.099Z" fill="#1057CC"/>
<path fill-rule="evenodd" clip-rule="evenodd" d="M220.678 191.314C227.35 187.211 231.435 179.049 233.829 166.97C241.444 169.185 249.217 168.029 255.141 165.373C251.515 174.073 246.171 189.849 241.268 194.102C238.037 195.443 232.271 196.396 220.678 191.305V191.314Z" fill="#2AB00F"/>
<path fill-rule="evenodd" clip-rule="evenodd" d="M227.42 151.193C232.13 151.414 235.404 157.873 233.195 173.314C234.665 174.532 236.83 174.761 238.697 174.946C240.457 162.152 240.607 150.805 234.568 149.535C231.936 149.552 229.832 150.196 227.42 151.193Z" fill="#2AB00F"/>
<path fill-rule="evenodd" clip-rule="evenodd" d="M231.029 188.19C233.925 182.888 236.179 177.338 237.007 171.232C241.936 172.026 246.567 171.735 250.748 169.864C248.186 176.005 246.857 184.97 243.397 187.97C238.934 188.896 234.665 189.02 231.029 188.182V188.19Z" fill="#1A8F02"/>
<path fill-rule="evenodd" clip-rule="evenodd" d="M238.291 230.623C235.607 226.167 233.441 221.411 232.42 215.985C228.406 217.308 224.876 217.705 221.328 216.523C223.608 222.841 226.24 231.32 229.136 231.585C232.86 231.876 235.342 231.832 238.291 230.623Z" fill="#1A8F02"/>
<path fill-rule="evenodd" clip-rule="evenodd" d="M231.548 216.726C227.015 217.643 224.18 217.705 221.293 217.043C221.487 218.473 221.68 219.902 221.874 221.332C225.202 222.152 228.608 222.435 232.27 221.243C232.306 219.735 232.121 218.226 231.548 216.735V216.726Z" fill="#2FC410"/>
<path fill-rule="evenodd" clip-rule="evenodd" d="M232.271 196.405C232.694 204.479 234.974 206.058 237.236 213.135C232.782 212.076 229.331 213.311 225.643 216.073C223.424 212.949 220.176 210.796 220.07 205.67C225.986 204.514 228.504 203.702 227.192 196.943C228.759 197.367 230.713 196.467 232.28 196.405H232.271Z" fill="#1A8F02"/>
<path fill-rule="evenodd" clip-rule="evenodd" d="M237.481 172.149C243.186 172.352 246.645 171.858 250.026 170.473C250.079 172.255 250.123 174.029 250.175 175.811C246.293 177.479 242.2 178.511 237.508 177.788C237.156 175.952 237.085 174.082 237.481 172.149Z" fill="#2FC410"/>
<path fill-rule="evenodd" clip-rule="evenodd" d="M224.551 221.005C224.621 220.679 224.26 220.273 223.741 220.096C223.222 219.92 222.737 220.043 222.667 220.37C222.597 220.696 222.957 221.102 223.477 221.279C223.996 221.455 224.48 221.332 224.551 221.005Z" fill="#015C42"/>
<path fill-rule="evenodd" clip-rule="evenodd" d="M231.619 220.679C231.69 220.352 231.329 219.946 230.809 219.77C230.29 219.593 229.806 219.717 229.735 220.043C229.665 220.37 230.026 220.776 230.545 220.952C231.065 221.129 231.549 221.005 231.619 220.679Z" fill="#1A8F02"/>
<path fill-rule="evenodd" clip-rule="evenodd" d="M246.937 175.44C246.813 175.132 247.104 174.673 247.588 174.417C248.072 174.161 248.565 174.205 248.697 174.514C248.82 174.823 248.53 175.282 248.046 175.538C247.562 175.793 247.069 175.749 246.945 175.44H246.937Z" fill="#1A8F02"/>
<path fill-rule="evenodd" clip-rule="evenodd" d="M238.812 176.685C238.688 176.376 238.979 175.917 239.463 175.652C239.947 175.396 240.44 175.44 240.572 175.749C240.695 176.058 240.405 176.517 239.921 176.782C239.437 177.038 238.944 176.993 238.82 176.685H238.812Z" fill="#1A8F02"/>
<path fill-rule="evenodd" clip-rule="evenodd" d="M243.943 141.364C242.958 143.923 240.942 146.543 239.965 149.076C239.199 151.07 241.919 154.176 242.737 155.217C246.496 160.035 249.322 157.44 249.894 154.776C250.141 153.558 250.334 152.049 250.37 150.779C250.414 149.367 247.922 148.635 248.433 147.329L243.943 141.364Z" fill="#DB9669"/>
<path fill-rule="evenodd" clip-rule="evenodd" d="M262.966 136.423C262.411 137.932 262.429 139.555 262.253 141.143C262.315 143.049 260.017 142.829 260.756 145.749C260.387 147.549 259.013 150.152 257.957 151.652C257.288 152.808 256.496 154.573 254.101 155.155C250.466 156.126 248.335 152.146 245.712 150.082C243.106 148.035 245.668 144.788 245.58 142.017C245.43 137.014 247.693 131.04 253.239 130.776C255.712 130.661 259.454 131.464 261.399 133.079C262.086 133.643 263.573 134.887 262.966 136.414V136.423Z" fill="#F2B387"/>
<path fill-rule="evenodd" clip-rule="evenodd" d="M250.819 139.714C249.851 139.829 249.622 139.855 248.997 140.852C248.477 141.699 247.791 141.54 247.324 143.455C247.139 143.879 244.586 141.373 242.439 144.373C239.886 139.829 242.412 129.938 245.995 128.482C251.321 130.74 253.213 131.438 254.261 135.188C254.147 136.882 252.06 139.564 250.81 139.723L250.819 139.714Z" fill="black"/>
<path fill-rule="evenodd" clip-rule="evenodd" d="M256.744 127.917C264.094 132.002 267.061 136.467 262.967 138.179C261.576 138.761 258.663 138.505 254.155 135.814C253.354 132.805 251.884 130.97 246.004 128.473C248.997 124.511 254.825 126.858 256.744 127.917Z" fill="black"/>
<path fill-rule="evenodd" clip-rule="evenodd" d="M243.662 141.311C243.741 143.129 244.445 144.567 245.237 144.523C246.03 144.488 246.839 142.952 246.751 141.143C246.681 139.335 245.748 137.94 244.956 137.985C244.163 138.011 243.582 139.511 243.662 141.311Z" fill="#F2B387"/>
<path fill-rule="evenodd" clip-rule="evenodd" d="M258.892 150.276C258.76 149.649 258.698 149.085 257.571 148.899C257.061 148.82 256.251 148.855 255.37 148.996V151.14C255.679 151.052 256.04 150.946 256.559 150.805C257.65 151.529 257.897 152.358 256.779 152.402C256.621 152.402 256.497 152.402 256.409 152.376C256.207 152.323 256.163 152.182 256.066 151.882C256.022 151.74 255.714 151.82 255.362 151.961V158.385C258.989 156.602 259.2 151.811 258.883 150.276H258.892ZM255.37 148.996C253.936 149.217 252.316 149.702 251.594 150.338C249.675 151.767 248.029 149.288 247.457 146.87C247.104 145.37 247.342 144.143 247.58 142.652L246.832 141.682C245.229 144.276 243.812 146.102 243.909 147.62C244.191 152.093 246.647 159.796 253.231 158.993C254.05 158.896 254.754 158.676 255.37 158.376V151.952C254.842 152.164 254.208 152.535 254.12 152.552C253.108 152.782 252.897 151.829 253.848 151.564C254.525 151.379 254.886 151.264 255.379 151.123V148.979L255.37 148.996Z" fill="black"/>
<path fill-rule="evenodd" clip-rule="evenodd" d="M306.947 249.302L263.689 273.999L242.976 261.84L242.861 258.311L286.181 239.746L306.965 245.446L306.947 249.302Z" fill="#B36A23"/>
<path fill-rule="evenodd" clip-rule="evenodd" d="M306.965 245.446L263.689 270.452L242.861 258.311L286.181 233.349L306.965 245.446Z" fill="#D4A007"/>
<path fill-rule="evenodd" clip-rule="evenodd" d="M263.689 270.452V273.999L242.861 261.841V258.311L263.689 270.452Z" fill="#934428"/>
<path fill-rule="evenodd" clip-rule="evenodd" d="M306.515 245.57L306.498 145.599L285.679 133.635L282.562 135.293L287.915 232.264L303.188 247.493L306.515 245.57Z" fill="#B36A23"/>
<path fill-rule="evenodd" clip-rule="evenodd" d="M303.188 247.493L303.426 147.364L282.563 135.293L282.387 235.44L303.188 247.493Z" fill="#934428"/>
<path fill-rule="evenodd" clip-rule="evenodd" d="M303.426 147.364L306.498 145.599L285.617 133.538L282.562 135.293L303.426 147.364Z" fill="#D4A007"/>
<path fill-rule="evenodd" clip-rule="evenodd" d="M211.971 203.773C212.834 204.955 213.573 207.54 213.793 208.458C214.075 209.64 213.969 210.276 214.242 211.458C213.362 211.238 212.86 211.555 212.543 209.411C211.813 208.035 207.966 204.911 209.726 203.817C210.888 203.429 211.003 202.211 211.971 203.773Z" fill="#DB9669"/>
<path fill-rule="evenodd" clip-rule="evenodd" d="M204.418 206.446L223.442 216.929C224.014 217.246 224.876 217.29 225.369 216.999C225.862 216.708 225.792 216.223 225.229 215.879L205.598 203.817C204.286 203.014 202.878 205.59 204.41 206.438L204.418 206.446Z" fill="#E0AB14"/>
<path fill-rule="evenodd" clip-rule="evenodd" d="M204.049 205.891L216.813 212.993V212.393L204.075 204.858C203.952 205.193 203.926 205.564 204.049 205.891Z" fill="#F8C300"/>
<path fill-rule="evenodd" clip-rule="evenodd" d="M226.937 220.167C227.544 217.229 227.518 213.849 226.822 209.358L223.178 207.293L218.768 209.879L219.137 220.882L222.122 222.982L226.937 220.158V220.167Z" fill="#E0AB14"/>
<path fill-rule="evenodd" clip-rule="evenodd" d="M226.83 209.358L221.742 206.42L216.971 209.217L217.129 209.764L220.325 213.17L226.83 209.358Z" fill="#CF9420"/>
<path fill-rule="evenodd" clip-rule="evenodd" d="M216.988 209.199L217.12 220.149L222.147 222.973C222.701 220.07 222.719 216.488 222.05 212.129L216.988 209.199Z" fill="#F8C300"/>
<path fill-rule="evenodd" clip-rule="evenodd" d="M225.96 215.57C226.312 215.888 226.215 216.655 225.749 217.282C225.282 217.908 224.622 218.155 224.279 217.829C223.926 217.511 224.023 216.743 224.49 216.117C224.956 215.49 225.617 215.243 225.96 215.57Z" fill="#CF9420"/>
<path fill-rule="evenodd" clip-rule="evenodd" d="M207.745 200.852C208.432 200.588 211.354 200.314 211.663 201.735C211.777 203.685 212.428 205.97 212.446 206.279C212.481 206.817 212.428 210.152 212.402 210.673C212.376 211.388 211.425 211.635 210.474 211.052C209.867 211.07 209.039 210.849 208.705 210.258C208.115 210.205 207.675 210.196 207.006 209.464C206.592 209.367 205.949 209.517 205.747 209.102C204.823 207.999 205.272 206.579 205.536 204.629C205.782 202.758 205.923 201.549 207.754 200.852H207.745Z" fill="#F2B387"/>
<path fill-rule="evenodd" clip-rule="evenodd" d="M211.741 201.364C211.521 203.076 206.697 204.09 205.764 202.167C205.412 200.438 205.333 199.317 204.98 197.588C205.966 195.576 210.79 195.285 211.688 197.57C211.715 199.414 211.715 199.529 211.732 201.373L211.741 201.364Z" fill="#2B5AAC"/>
<path fill-rule="evenodd" clip-rule="evenodd" d="M202.931 172.811C200.202 176.111 202.297 193.29 204.199 198.567C205.977 200.146 212.368 199.714 212.289 197.605C212.57 195.435 211.901 182.023 211.936 175.802C211.012 171.532 206.294 171.346 202.922 172.802L202.931 172.811Z" fill="#1057CC"/>
<path fill-rule="evenodd" clip-rule="evenodd" d="M147.753 240.629L234.286 290.332L255 278.173L255.114 274.643L168.519 231.073L147.744 236.773L147.753 240.629Z" fill="#934428"/>
<path fill-rule="evenodd" clip-rule="evenodd" d="M147.744 236.773L234.286 286.785L255.114 274.643L168.519 224.676L147.744 236.773Z" fill="#D4A007"/>
<path fill-rule="evenodd" clip-rule="evenodd" d="M234.287 286.785V290.332L255.115 278.173V274.643L234.287 286.785Z" fill="#B36A23"/>
<path fill-rule="evenodd" clip-rule="evenodd" d="M155.764 238.767L199.022 263.473L219.735 251.314L219.849 247.785L176.53 229.22L155.746 234.92L155.764 238.767Z" fill="#934428"/>
<path fill-rule="evenodd" clip-rule="evenodd" d="M155.746 234.92L199.022 259.926L219.849 247.785L176.53 222.823L155.746 234.92Z" fill="#D4A007"/>
<path fill-rule="evenodd" clip-rule="evenodd" d="M199.021 259.926V263.473L219.849 251.314V247.785L199.021 259.926Z" fill="#B36A23"/>
<path fill-rule="evenodd" clip-rule="evenodd" d="M329.604 239.296L335.546 253.079L335.458 270.002L322.016 261.938L326.796 239.173L328.354 238.529C328.9 238.493 329.384 238.793 329.604 239.296Z" fill="#FFCC00"/>
<path fill-rule="evenodd" clip-rule="evenodd" d="M335.519 253.026L335.546 253.079L335.467 270.161L322.016 262.096L322.394 260.535L335.519 253.026Z" fill="#CF9420"/>
<path fill-rule="evenodd" clip-rule="evenodd" d="M321.048 245.958L326.488 239.438C326.77 239.093 327.192 238.961 327.633 239.032C328.073 239.102 328.416 239.376 328.592 239.782L334.499 253.582L334.411 270.24L320.969 262.176L321.048 245.958Z" fill="#E0AB14"/>
<path fill-rule="evenodd" clip-rule="evenodd" d="M285.959 267.02L299.401 275.067L321.928 262.343V247.493L321.048 246.964L285.959 267.02Z" fill="#FFCC00"/>
<path fill-rule="evenodd" clip-rule="evenodd" d="M286.346 267.832L299.277 276.179L321.927 263.226V247.493L286.346 267.832Z" fill="#CF9420"/>
<path fill-rule="evenodd" clip-rule="evenodd" d="M317.843 238.899L306.523 264.196C306.179 264.964 306.214 266.058 306.628 266.658C307.042 267.258 307.658 267.117 308.037 266.367L321.294 240.143C322.183 238.388 318.768 236.861 317.852 238.899H317.843Z" fill="#E0AB14"/>
<path fill-rule="evenodd" clip-rule="evenodd" d="M318.503 238.37L310.818 255.338L311.584 255.267L319.824 238.291C319.384 238.167 318.908 238.176 318.512 238.37H318.503Z" fill="#F8C300"/>
<path fill-rule="evenodd" clip-rule="evenodd" d="M302.782 268.97C306.567 269.438 310.845 269.058 316.462 267.717L318.698 262.873L314.974 257.526L301.074 259.132L298.715 263.146L302.782 268.979V268.97Z" fill="#E0AB14"/>
<path fill-rule="evenodd" clip-rule="evenodd" d="M316.462 267.717L319.666 260.941L315.626 255.152L314.948 255.417L310.969 259.838L316.462 267.717Z" fill="#CF9420"/>
<path fill-rule="evenodd" clip-rule="evenodd" d="M315.642 255.179L301.786 256.476L298.723 263.164C302.455 263.57 306.997 263.226 312.447 261.92L315.633 255.179H315.642Z" fill="#F8C300"/>
<path fill-rule="evenodd" clip-rule="evenodd" d="M308.495 267.249C308.125 267.726 307.139 267.69 306.303 267.161C305.466 266.632 305.079 265.82 305.449 265.343C305.819 264.867 306.805 264.902 307.641 265.432C308.477 265.961 308.864 266.773 308.495 267.249Z" fill="#CF9420"/>
<path fill-rule="evenodd" clip-rule="evenodd" d="M333.143 253.635L303.504 277.37L299.41 275.499L299.252 274.952L327.554 239.79L328.328 240.161L333.143 253.635Z" fill="#C6C6C6"/>
<path fill-rule="evenodd" clip-rule="evenodd" d="M299.242 274.97L327.553 239.79L328.327 240.161L332.984 253.193L303.415 276.876L299.242 274.97Z" fill="#575756"/>
<path fill-rule="evenodd" clip-rule="evenodd" d="M328.388 240.329L332.984 253.193L303.414 276.876L300.166 275.393L328.388 240.329Z" fill="#878787"/>
<path fill-rule="evenodd" clip-rule="evenodd" d="M345.591 243.39C343.038 247.229 339.631 249.161 335.793 251.755V247.211C336.577 247.882 338.443 246.488 339.429 245.349C339.948 244.74 338.469 243.232 337.325 241.317C336.682 240.24 336.198 238.979 335.793 238.176V233.729C336.145 233.561 336.533 233.385 336.937 233.199C338.698 232.423 336.638 235.44 337.307 236.296C339.587 237.929 341.585 240.426 342.677 243.417C343.038 243.999 346.515 241.988 345.582 243.39H345.591ZM335.793 251.755C334.728 252.479 333.628 253.246 332.501 254.12L328.698 253.017L326.471 247.158L328.407 240.47C331.365 236.826 332.228 235.458 335.793 233.729V238.176C335.555 237.717 335.344 237.408 335.142 237.373C334.226 237.223 331.832 238.643 332.052 239.808C332.633 242.799 333.575 244.414 335.687 247.105C335.723 247.149 335.749 247.185 335.793 247.211V251.755Z" fill="#FED836"/>
<path fill-rule="evenodd" clip-rule="evenodd" d="M345.828 243.32C343.284 247.149 339.701 248.94 335.792 251.455V247.211C336.576 247.882 338.442 246.488 339.428 245.349C339.947 244.74 338.468 243.232 337.324 241.317C336.681 240.24 336.197 238.979 335.792 238.176V233.658C336.109 233.49 336.435 233.314 336.787 233.138C338.776 232.132 336.857 234.946 337.526 235.811C339.806 237.435 341.505 240.143 342.597 243.126C342.958 243.708 346.752 241.926 345.819 243.329L345.828 243.32ZM335.792 251.455C334.692 252.161 333.565 252.929 332.43 253.82L328.574 252.699L326.373 246.902L328.327 240.161C331.003 237.143 332.245 235.59 335.792 233.649V238.167C335.555 237.708 335.343 237.399 335.141 237.364C334.225 237.214 331.831 238.635 332.051 239.799C332.632 242.79 333.574 244.405 335.687 247.096C335.722 247.14 335.748 247.176 335.792 247.202V251.446V251.455Z" fill="#FFCC00"/>
<path fill-rule="evenodd" clip-rule="evenodd" d="M337.553 234.223C337.403 234.814 337.262 235.458 337.535 235.802C339.815 237.426 341.514 240.135 342.606 243.117C342.87 243.541 344.921 242.729 345.687 242.773L335.792 250.67V247.202C336.576 247.873 338.442 246.479 339.428 245.34C339.947 244.732 338.468 243.223 337.324 241.308C336.681 240.232 336.197 238.97 335.792 238.167V234.814C336.417 234.496 337.025 234.267 337.544 234.223H337.553ZM335.801 250.67L333.944 252.152C332.526 253.432 330.81 251.023 331.69 250.017L334.155 247.458C332.113 244.432 330.59 239.499 331.276 238.449C331.725 237.77 333.856 235.82 335.801 234.823V238.176C335.563 237.717 335.352 237.408 335.15 237.373C334.234 237.223 331.84 238.643 332.06 239.808C332.641 242.799 333.583 244.414 335.696 247.105C335.731 247.149 335.757 247.185 335.801 247.211V250.679V250.67Z" fill="#1D1D1B"/>
<path fill-rule="evenodd" clip-rule="evenodd" d="M345.827 243.32C342.561 248.226 337.464 250.652 332.297 254.676L332.174 253.74L342.174 244.705L345.237 242.773C345.836 242.649 346.259 242.658 345.818 243.32H345.827Z" fill="#FFED00"/>
<path fill-rule="evenodd" clip-rule="evenodd" d="M332.183 253.74L332.007 253.696L332.095 254.473L331.945 254.596L332.297 254.685L332.183 253.74Z" fill="#FED836"/>
<path fill-rule="evenodd" clip-rule="evenodd" d="M298.398 289.952L298.486 274.326L333.698 254.199L334.588 254.72L334.499 269.314L298.398 289.952Z" fill="#FFCC00"/>
<path fill-rule="evenodd" clip-rule="evenodd" d="M326.383 240.32L293.468 259.14C292.887 259.476 292.412 260.226 292.412 260.808C292.412 261.39 292.887 261.593 293.468 261.267L327.263 241.943C328.628 241.167 327.941 239.446 326.383 240.329V240.32Z" fill="#FFCC00"/>
<path fill-rule="evenodd" clip-rule="evenodd" d="M294.471 259.405L300.413 273.188L300.325 289.996L286.883 281.932L291.663 259.282L293.221 258.638C293.767 258.602 294.251 258.902 294.471 259.405Z" fill="#FFCC00"/>
<path fill-rule="evenodd" clip-rule="evenodd" d="M299.217 290.896L299.358 274.811L335.547 254.164L335.468 270.161L299.217 290.896Z" fill="#CF9420"/>
<path fill-rule="evenodd" clip-rule="evenodd" d="M300.379 273.108L300.414 273.188L300.326 289.996L290.66 284.199L290.695 278.649L300.379 273.108Z" fill="#CF9420"/>
<path fill-rule="evenodd" clip-rule="evenodd" d="M285.915 266.005L291.355 259.538C291.646 259.193 292.06 259.061 292.5 259.132C292.94 259.202 293.283 259.476 293.459 259.882L299.366 273.682L299.278 290.852L285.836 282.788L285.915 265.996V266.005Z" fill="#E0AB14"/>
<path fill-rule="evenodd" clip-rule="evenodd" d="M224.067 295.238L184.427 317.87L165.447 306.735L165.342 303.496L205.034 286.485L224.075 291.708L224.067 295.238Z" fill="#934428"/>
<path fill-rule="evenodd" clip-rule="evenodd" d="M224.075 291.708L184.427 314.623L165.342 303.496L205.034 280.626L224.075 291.708Z" fill="#D4A007"/>
<path fill-rule="evenodd" clip-rule="evenodd" d="M184.427 314.623V317.87L165.342 306.735V303.496L184.427 314.623Z" fill="#B36A23"/>
</g>
<defs>
<clipPath id="clip0_691_2893">
<rect width="353" height="330" fill="white"/>
</clipPath>
</defs>
</svg>
