<svg width="246" height="271" viewBox="0 0 246 271" fill="none" xmlns="http://www.w3.org/2000/svg">
<path d="M28.1077 0.0567322C-4.27131 0.0567322 -4.3213 46.1009 28.1077 46.1009C60.5367 46.1009 60.5367 0.0567322 28.1077 0.0567322Z" fill="#EBEBEB"/>
<path d="M47.7964 27.3933C46.0718 35.3162 39.5048 42.1832 28.1015 42.1832C1.19611 42.1832 1.2336 3.97446 28.1015 3.97446H28.6327C3.34554 4.43684 3.47051 40.6273 29.1263 40.6273C39.5923 40.6336 45.8344 34.5789 47.7964 27.3933Z" fill="#DBDBDB"/>
<path d="M28.3023 9.01063C28.409 9.0073 28.5153 9.02503 28.6151 9.0628C28.7149 9.10057 28.8063 9.15764 28.8841 9.23076C28.9619 9.30388 29.0245 9.3916 29.0683 9.48892C29.1121 9.58624 29.1363 9.69124 29.1396 9.79793V11.0476C31.3914 11.195 33.5565 11.9723 35.3879 13.2908C35.7066 13.5157 35.8816 13.7094 35.8816 14.0281C35.8639 14.2541 35.7587 14.4642 35.5882 14.6136C35.4178 14.7631 35.1957 14.84 34.9693 14.8279C34.741 14.8358 34.518 14.7577 34.3445 14.6092C32.8165 13.4463 30.999 12.7245 29.0896 12.5222V21.5073C34.4132 22.5383 36.6564 24.3628 36.6564 27.5058C36.6564 30.8986 33.5322 33.3043 29.1583 33.4355V35.9348C29.1402 36.1452 29.0438 36.3411 28.8882 36.4839C28.7326 36.6266 28.5291 36.7058 28.3179 36.7058C28.1068 36.7058 27.9033 36.6266 27.7477 36.4839C27.5921 36.3411 27.4957 36.1452 27.4775 35.9348V33.398C24.5888 33.2071 21.8329 32.1143 19.5983 30.2738C19.4836 30.2015 19.3883 30.1022 19.3208 29.9845C19.2532 29.8669 19.2155 29.7345 19.2109 29.599C19.2311 29.3807 19.332 29.1779 19.4937 29.03C19.6555 28.8821 19.8665 28.7998 20.0857 28.7992C20.3152 28.7911 20.5389 28.8717 20.7105 29.0241C22.6147 30.7087 25.0126 31.7323 27.5463 31.9421V22.8258C22.2789 21.7635 20.1294 20.0015 20.1294 16.7961C20.1294 13.5907 23.2099 11.0913 27.4838 10.9976V9.79793C27.4918 9.5863 27.5816 9.38604 27.7343 9.23923C27.8869 9.09242 28.0905 9.01048 28.3023 9.01063ZM27.5338 21.1887V12.441C24.1346 12.5035 21.9102 14.3655 21.9102 16.6711C21.8915 18.8518 23.0099 20.1952 27.5338 21.1887ZM29.0708 23.1444V31.9921C32.5762 31.9234 34.8506 30.0676 34.8506 27.6182C34.8506 25.4188 33.6259 24.0754 29.0708 23.1444Z" fill="#DBDBDB"/>
<path d="M225.525 62.2466C199.388 62.2466 199.345 99.4181 225.525 99.4181C251.706 99.4181 251.706 62.2466 225.525 62.2466Z" fill="#EBEBEB"/>
<path d="M241.42 84.3159C240.027 90.7142 234.722 96.2565 225.525 96.2565C203.799 96.2565 203.83 65.4083 225.525 65.4083H225.95C205.536 65.7832 205.636 95.0006 226.349 95.0006C234.797 95.0068 239.833 90.1143 241.42 84.3159Z" fill="#DBDBDB"/>
<path d="M225.7 69.476C225.873 69.4708 226.04 69.5333 226.168 69.65C226.295 69.7667 226.371 69.9285 226.381 70.1008V71.1381C228.195 71.2582 229.938 71.8861 231.411 72.9501C231.667 73.1313 231.811 73.2875 231.811 73.5437C231.79 73.7221 231.703 73.8859 231.566 74.002C231.429 74.1181 231.253 74.1776 231.074 74.1685C230.888 74.1734 230.708 74.1087 230.567 73.9873C229.335 73.0462 227.867 72.4625 226.325 72.3003V79.5484C230.624 80.3731 232.429 81.8478 232.429 84.3846C232.429 87.1276 229.93 89.0709 226.381 89.1708V91.189C226.365 91.3576 226.286 91.5141 226.161 91.628C226.036 91.7419 225.872 91.805 225.703 91.805C225.534 91.805 225.371 91.7419 225.245 91.628C225.12 91.5141 225.041 91.3576 225.025 91.189V89.1521C222.694 89.006 220.467 88.1318 218.658 86.6527C218.566 86.5942 218.489 86.5141 218.435 86.4194C218.381 86.3247 218.35 86.2183 218.346 86.1091C218.367 85.9358 218.452 85.7763 218.583 85.6611C218.714 85.5459 218.883 85.483 219.058 85.4843C219.243 85.4818 219.423 85.5461 219.564 85.6655C221.102 87.0231 223.037 87.8491 225.081 88.0211V80.6481C220.839 79.792 219.083 78.3674 219.083 75.7806C219.083 73.1938 221.582 71.1756 225.025 71.1006V70.0946C225.026 70.0087 225.044 69.9238 225.079 69.8453C225.114 69.7668 225.164 69.6963 225.228 69.6382C225.291 69.5802 225.366 69.5358 225.447 69.5079C225.528 69.48 225.614 69.4691 225.7 69.476ZM225.075 79.3109V72.244C222.332 72.294 220.52 73.7936 220.52 75.6619C220.508 77.4177 221.414 78.5299 225.075 79.3109ZM226.325 80.8855V88.0274C229.149 87.9774 230.992 86.4778 230.992 84.5096C230.974 82.7225 229.98 81.6541 226.325 80.8855Z" fill="#DBDBDB"/>
<path d="M155.943 98.081C126.789 103.311 134.493 146.5 163.691 141.257C192.89 136.015 185.142 92.8448 155.943 98.081Z" fill="#DBDBDB"/>
<path d="M158.68 97.5874C130.9 102.586 138.598 145.762 166.428 140.77C194.258 135.777 186.51 92.5949 158.68 97.5874Z" fill="#EBEBEB"/>
<path d="M180.175 120.194C180.025 127.892 175.551 135.346 165.766 137.102C142.647 141.245 136.28 105.398 159.337 101.261C159.487 101.261 159.636 101.205 159.793 101.186C138.167 105.517 144.366 139.439 166.385 135.484C175.364 133.878 179.7 127.267 180.175 120.194Z" fill="#DBDBDB"/>
<path d="M164.228 105.935C164.418 105.965 164.589 106.066 164.705 106.219C164.822 106.371 164.875 106.563 164.853 106.754L164.716 107.966C166.669 108.349 168.462 109.309 169.864 110.721C169.979 110.808 170.071 110.922 170.131 111.053C170.191 111.184 170.217 111.328 170.208 111.471C170.179 111.676 170.069 111.86 169.904 111.984C169.739 112.108 169.532 112.162 169.327 112.134C169.226 112.126 169.128 112.098 169.039 112.051C168.949 112.004 168.871 111.938 168.808 111.859C167.644 110.622 166.143 109.753 164.491 109.359L163.491 117.851C167.984 119.363 169.739 121.319 169.377 124.293C168.996 127.511 166.028 129.466 162.223 129.142L161.948 131.503C161.937 131.599 161.907 131.692 161.86 131.776C161.813 131.86 161.75 131.934 161.675 131.993C161.599 132.053 161.513 132.098 161.42 132.124C161.328 132.15 161.231 132.158 161.135 132.147C161.04 132.136 160.947 132.106 160.863 132.059C160.779 132.013 160.705 131.95 160.645 131.874C160.586 131.799 160.541 131.712 160.515 131.62C160.489 131.527 160.481 131.43 160.492 131.335L160.773 128.942C158.255 128.452 155.973 127.132 154.294 125.193C154.199 125.11 154.126 125.005 154.081 124.887C154.037 124.769 154.022 124.643 154.037 124.518C154.068 124.321 154.172 124.143 154.328 124.019C154.485 123.895 154.682 123.834 154.881 123.849C155.085 123.868 155.274 123.967 155.406 124.124C156.816 125.883 158.788 127.103 160.992 127.579L162.01 118.938C157.58 117.401 155.893 115.514 156.249 112.477C156.605 109.441 159.555 107.397 163.266 107.741L163.404 106.585C163.427 106.39 163.527 106.211 163.682 106.09C163.836 105.968 164.033 105.912 164.228 105.935ZM162.204 117.382L163.179 109.103C160.229 108.822 158.08 110.353 157.824 112.533C157.593 114.595 158.405 115.983 162.204 117.382ZM163.322 119.394L162.335 127.761C165.378 128.061 167.553 126.511 167.827 124.224C168.071 122.131 167.159 120.738 163.322 119.394Z" fill="#DBDBDB"/>
<path d="M225.525 47.2131C203.912 53.8926 182.299 24.7565 160.717 31.436C164.1 24.8629 167.898 18.5121 172.089 12.4222C189.684 15.409 207.273 33.7979 224.869 28.9554C225.081 35.0496 225.3 41.1355 225.525 47.2131Z" fill="#EBEBEB"/>
<path d="M203.961 35.6286C203.274 38.834 198.763 39.5776 193.889 36.9908C189.015 34.404 186.122 30.2426 187.441 27.437C188.759 24.6315 193.264 24.1816 197.513 26.3436C201.762 28.5055 204.642 32.4607 203.961 35.6286Z" fill="#DBDBDB"/>
<path d="M182.136 24.5816C181.786 25.2064 180.499 25.3251 179.268 24.8752C178.037 24.4253 177.344 23.5443 177.737 22.9195C178.131 22.2947 179.412 22.0572 180.605 22.5383C181.799 23.0195 182.492 23.938 182.136 24.5816Z" fill="#DBDBDB"/>
<path d="M213.91 38.3654C213.841 39.1465 212.779 39.6151 211.541 39.2902C210.304 38.9653 209.392 38.0405 209.504 37.2845C209.617 36.5284 210.673 36.2098 211.866 36.4972C213.06 36.7846 213.978 37.5781 213.91 38.3654Z" fill="#DBDBDB"/>
<path d="M173.651 12.7347C169.634 18.5794 165.96 24.6526 162.648 30.9236C162.023 31.0611 161.336 31.2298 160.68 31.436C164.067 24.864 167.867 18.5134 172.058 12.4222C172.589 12.516 173.12 12.6222 173.651 12.7347Z" fill="#DBDBDB"/>
<path d="M225.524 47.2131C224.868 47.413 224.218 47.5817 223.562 47.7254C223.45 41.5937 223.341 35.4641 223.237 29.3365C223.768 29.2303 224.306 29.1053 224.837 28.9554C225.07 35.0496 225.299 41.1355 225.524 47.2131Z" fill="#DBDBDB"/>
<path d="M225.481 46.0384C225.481 46.4196 225.513 46.807 225.525 47.1881C203.912 53.8676 182.299 24.7253 160.68 31.411L161.398 30.0426C182.761 24.2379 204.125 52.6179 225.481 46.0384Z" fill="#DBDBDB"/>
<path d="M224.837 28.9554C224.837 29.3366 224.869 29.7239 224.881 30.1051C207.036 35.0538 189.19 16.0463 171.339 13.4657L172.057 12.4222C189.653 15.4215 207.242 33.7979 224.837 28.9554Z" fill="#DBDBDB"/>
<path d="M167.628 29.274C166.191 29.2593 164.756 29.3785 163.342 29.6302C163.846 28.6888 164.356 27.7619 164.873 26.8497C167.178 26.6247 168.415 27.9182 167.628 29.274Z" fill="#DBDBDB"/>
<path d="M223.5 44.0077C223.5 44.8637 223.5 45.7135 223.544 46.5695C222.129 46.8653 220.69 47.0264 219.245 47.0506C219.283 45.626 221.188 44.4951 223.5 44.0077Z" fill="#DBDBDB"/>
<path d="M219.67 30.9049C220.874 30.8632 222.074 30.7253 223.256 30.4925C223.256 31.3423 223.287 32.192 223.306 33.0481C221.257 33.4542 219.632 32.292 219.67 30.9049Z" fill="#DBDBDB"/>
<path d="M171.433 16.0463C171.939 15.2652 172.451 14.5029 172.963 13.7469C174.157 13.9843 175.35 14.2905 176.544 14.6529C175.756 15.8213 173.476 16.3337 171.433 16.0463Z" fill="#DBDBDB"/>
<path d="M197.158 27.6995C197.364 27.7994 197.502 27.9931 197.464 28.1119C197.427 28.2306 197.383 28.3555 197.339 28.4805C198.322 29.0212 199.212 29.7151 199.976 30.5362C200.101 30.6737 200.163 30.7674 200.138 30.8611C200.113 30.9549 199.876 31.0048 199.651 30.8986C199.548 30.85 199.456 30.7797 199.382 30.6924C198.742 29.9785 197.993 29.3692 197.164 28.8867C196.883 29.7489 196.595 30.6112 196.308 31.4672C198.726 33.0481 199.638 34.0915 199.382 35.0225C199.126 35.9535 197.37 35.991 195.202 34.9101L194.958 35.6286C194.921 35.7473 194.696 35.7473 194.471 35.6286C194.246 35.5099 194.084 35.31 194.127 35.1912C194.209 34.9476 194.29 34.7101 194.377 34.4664C193.036 33.7305 191.84 32.7565 190.847 31.5922C190.747 31.4797 190.703 31.386 190.735 31.311C190.766 31.236 191.028 31.1923 191.247 31.311C191.355 31.3629 191.451 31.4375 191.528 31.5297C192.366 32.5632 193.392 33.4283 194.552 34.079L195.452 31.4735C193.078 29.8926 192.247 28.8617 192.609 27.9744C192.971 27.0871 194.64 27.1121 196.583 28.0744C196.627 27.9619 196.664 27.8432 196.702 27.7245C196.739 27.6057 196.958 27.5932 197.158 27.6995ZM195.615 31.0048L196.477 28.5055C194.921 27.7307 193.696 27.7182 193.446 28.368C193.196 29.0179 193.59 29.6302 195.615 31.0048ZM196.152 31.9421L195.302 34.4789C197.027 35.3475 198.301 35.3537 198.508 34.6414C198.714 33.9291 198.208 33.3105 196.152 31.9421Z" fill="#EBEBEB"/>
<path d="M91.8225 174.411C75.3394 189.907 43.1228 173.224 26.6396 188.72C26.7967 181.329 27.4228 173.956 28.5142 166.644C45.6284 161.596 69.5159 170.393 83.1935 158.309C86.072 163.682 88.9483 169.05 91.8225 174.411Z" fill="#EBEBEB"/>
<path d="M67.3608 173.505C68.1543 176.679 64.4303 179.328 58.913 179.128C53.3957 178.928 48.9719 176.479 48.9156 173.38C48.8594 170.281 52.7146 167.9 57.4759 167.975C62.2371 168.05 66.586 170.331 67.3608 173.505Z" fill="#DBDBDB"/>
<path d="M42.9038 173.136C42.9038 173.867 41.7603 174.523 40.4544 174.661C39.1485 174.798 38.155 174.336 38.2113 173.561C38.2675 172.786 39.336 172.049 40.6231 171.955C41.9103 171.862 42.9413 172.405 42.9038 173.136Z" fill="#DBDBDB"/>
<path d="M77.5007 171.562C77.7819 172.293 77.0321 173.174 75.7824 173.436C74.5327 173.699 73.283 173.255 73.0643 172.53C72.8457 171.805 73.6454 171.049 74.8451 170.781C76.0448 170.512 77.2195 170.831 77.5007 171.562Z" fill="#DBDBDB"/>
<path d="M30.0825 166.226C29.0359 173.241 28.3995 180.312 28.1767 187.401C27.6519 187.814 27.1395 188.251 26.6396 188.72C26.797 181.329 27.4231 173.956 28.5142 166.644C29.0265 166.494 29.5514 166.351 30.0825 166.226Z" fill="#DBDBDB"/>
<path d="M91.822 174.411C91.3221 174.88 90.8098 175.317 90.2787 175.729L81.9121 159.352C82.3495 159.027 82.7681 158.678 83.1618 158.309C86.061 163.682 88.9478 169.05 91.822 174.411Z" fill="#DBDBDB"/>
<path d="M91.2789 173.399L91.8225 174.411C75.3394 189.907 43.1228 173.224 26.6396 188.72C26.6396 188.201 26.6396 187.689 26.6834 187.176C43.3103 172.555 74.9707 188.67 91.2789 173.399Z" fill="#DBDBDB"/>
<path d="M83.1877 158.309L83.7313 159.327C69.8725 171.63 45.4976 162.389 28.3271 167.881C28.3834 167.457 28.4459 167.038 28.5084 166.632C45.6226 161.596 69.4913 170.381 83.1877 158.309Z" fill="#DBDBDB"/>
<path d="M31.9322 183.727C30.64 184.347 29.408 185.086 28.252 185.933C28.2957 184.858 28.3457 183.802 28.4082 182.759C30.3639 181.54 32.0322 182.146 31.9322 183.727Z" fill="#DBDBDB"/>
<path d="M88.5915 172.424L89.7537 174.698C88.6155 175.586 87.3958 176.365 86.1109 177.023C85.5173 175.723 86.7295 173.874 88.5915 172.424Z" fill="#DBDBDB"/>
<path d="M79.4014 162.333C80.4648 161.763 81.4822 161.111 82.4443 160.383L83.6065 162.658C81.9507 163.926 79.9825 163.62 79.4014 162.333Z" fill="#DBDBDB"/>
<path d="M29.5381 170.175C29.6506 169.25 29.7755 168.338 29.9005 167.438C31.0814 167.125 32.2874 166.875 33.5183 166.675C33.3246 168.069 31.4938 169.531 29.5381 170.175Z" fill="#DBDBDB"/>
<path d="M57.7695 169.337C57.9945 169.337 58.2069 169.45 58.2194 169.575L58.2757 169.962C59.3953 170.015 60.4989 170.25 61.5436 170.656C61.7185 170.718 61.8122 170.774 61.831 170.874C61.8497 170.974 61.6623 171.118 61.4123 171.118C61.296 171.123 61.1802 171.099 61.0749 171.049C60.1892 170.695 59.2527 170.484 58.3007 170.425L58.6568 173.118C61.5311 173.474 62.8057 174.011 62.9807 174.992C63.1556 175.973 61.5998 176.742 59.1754 176.723C59.1754 176.973 59.2442 177.223 59.2754 177.473C59.2754 177.598 59.0942 177.698 58.838 177.691C58.5818 177.685 58.3506 177.579 58.3381 177.454L58.2444 176.629C56.7157 176.555 55.213 176.205 53.8081 175.598C53.6706 175.536 53.5894 175.479 53.5831 175.392C53.5769 175.304 53.7956 175.155 54.0455 175.161C54.166 175.162 54.2851 175.187 54.3954 175.236C55.6019 175.796 56.9037 176.123 58.2319 176.198L57.8945 173.461C55.064 173.086 53.8706 172.524 53.8018 171.587C53.7331 170.649 55.2452 169.925 57.4196 169.931C57.4196 169.806 57.3884 169.687 57.3697 169.562C57.3509 169.437 57.5384 169.337 57.7695 169.337ZM57.832 172.993C57.7258 172.118 57.6133 171.243 57.5071 170.362C55.7701 170.362 54.6704 170.881 54.7266 171.568C54.7828 172.255 55.4139 172.643 57.832 172.993ZM58.7255 173.617L59.0817 176.273C61.0062 176.273 62.1559 175.742 62.0309 175.023C61.906 174.305 61.1936 173.911 58.7255 173.592V173.617Z" fill="#EBEBEB"/>
<path d="M191.14 55.3609C173.963 47.638 156.774 69.3198 139.616 61.6093C140.953 57.5354 142.288 53.2948 143.621 48.8876C157.599 51.7306 171.577 38.128 185.548 39.7775C187.41 44.67 189.272 49.8436 191.14 55.3609Z" fill="#EBEBEB"/>
<path d="M171.545 49.2251C171.945 51.7244 169.127 54.8486 165.247 56.4419C161.367 58.0353 158.317 56.9918 158.424 54.3175C158.53 51.6432 161.342 48.5377 164.716 47.1444C168.09 45.751 171.145 46.7195 171.545 49.2251Z" fill="#DBDBDB"/>
<path d="M154.1 55.2922C154.037 55.9171 153.194 56.6106 152.225 56.7918C151.257 56.973 150.526 56.5606 150.619 55.9483C150.713 55.336 151.557 54.7361 152.494 54.5549C153.431 54.3737 154.162 54.6736 154.1 55.2922Z" fill="#DBDBDB"/>
<path d="M179.336 46.8194C179.499 47.4005 178.836 47.9816 177.849 48.1816C176.862 48.3815 175.975 48.1316 175.837 47.5568C175.7 46.9819 176.368 46.3071 177.324 46.1009C178.28 45.8947 179.174 46.2384 179.336 46.8194Z" fill="#DBDBDB"/>
<path d="M144.89 49.0876C143.64 53.5927 142.39 57.979 141.178 62.2092C140.66 62.028 140.135 61.8218 139.616 61.5843C140.953 57.5104 142.288 53.2698 143.621 48.8627C144.046 48.9626 144.471 49.0314 144.89 49.0876Z" fill="#DBDBDB"/>
<path d="M191.14 55.361C190.615 55.1298 190.097 54.9236 189.578 54.7361C187.81 49.4375 186.041 44.4263 184.279 39.6526C184.698 39.6526 185.123 39.7088 185.529 39.7588C187.41 44.67 189.272 49.8437 191.14 55.361Z" fill="#DBDBDB"/>
<path d="M190.784 54.3237C190.903 54.6674 191.021 55.0173 191.134 55.361C173.963 47.638 156.768 69.3198 139.616 61.6093C139.704 61.3469 139.785 61.0907 139.866 60.8345C156.843 68.1701 173.838 47.0881 190.784 54.3237Z" fill="#DBDBDB"/>
<path d="M185.548 39.7901C185.666 40.0962 185.779 40.4149 185.897 40.7211C171.726 38.7841 157.549 52.8116 143.371 49.725C143.452 49.45 143.54 49.1751 143.621 48.9002C157.592 51.7182 171.57 38.1217 185.548 39.7901Z" fill="#DBDBDB"/>
<path d="M144.821 62.2154C143.662 62.053 142.52 61.7853 141.409 61.4156C141.584 60.7908 141.753 60.2284 141.928 59.6286C143.765 60.1784 145.058 61.1532 144.821 62.2154Z" fill="#DBDBDB"/>
<path d="M188.509 51.5619L189.24 53.7426C188.131 53.3809 186.991 53.1216 185.835 52.9678C185.473 51.8556 186.672 51.0371 188.509 51.5619Z" fill="#DBDBDB"/>
<path d="M181.755 40.5523C182.706 40.493 183.659 40.493 184.61 40.5523C184.854 41.2209 185.104 41.8957 185.348 42.5706C183.723 42.3956 182.117 41.6083 181.755 40.5523Z" fill="#DBDBDB"/>
<path d="M144.14 51.8057C144.315 51.1808 144.483 50.556 144.658 49.9312C145.6 50.0669 146.55 50.1379 147.501 50.1436C147.27 51.2246 145.764 52.0931 144.14 51.8057Z" fill="#DBDBDB"/>
<path d="M164.853 48.2566C165.016 48.1878 165.153 48.2191 165.166 48.3253V48.644C165.898 48.3633 166.682 48.2419 167.465 48.2878C167.584 48.2878 167.653 48.319 167.659 48.4003C167.665 48.4815 167.528 48.6565 167.347 48.7252C167.275 48.7601 167.194 48.7732 167.115 48.7627C166.454 48.7122 165.79 48.8016 165.166 49.0251C165.21 49.7687 165.26 50.5185 165.303 51.262C167.322 50.7059 168.215 50.8184 168.296 51.5932C168.378 52.368 167.234 53.4677 165.522 54.23L165.56 54.8548C165.56 54.961 165.422 55.111 165.241 55.186C165.06 55.261 164.903 55.2297 164.897 55.1298L164.86 54.5049C163.882 54.8992 162.823 55.0514 161.773 54.9485C161.679 54.9485 161.623 54.9048 161.623 54.8298C161.623 54.7549 161.779 54.5674 161.954 54.4987C162.03 54.4628 162.114 54.4477 162.198 54.4549C163.102 54.5791 164.024 54.4672 164.872 54.13C164.828 53.3677 164.785 52.6054 164.747 51.8431C162.76 52.3805 161.942 52.243 161.935 51.4307C161.929 50.6184 163.023 49.5562 164.56 48.8939V48.5877C164.554 48.4628 164.691 48.319 164.853 48.2566ZM164.741 51.4182L164.622 49.2251C163.373 49.7437 162.592 50.531 162.61 51.0996C162.629 51.6682 163.048 51.8494 164.741 51.4182ZM165.366 51.6682C165.416 52.4055 165.46 53.1428 165.51 53.8801C166.872 53.3052 167.715 52.4929 167.653 51.8931C167.59 51.2933 167.084 51.1995 165.347 51.6619L165.366 51.6682Z" fill="#EBEBEB"/>
<path d="M52.8953 152.26C40.9422 138.814 19.4228 145.056 7.46973 131.641C10.6564 129.017 13.943 126.18 17.3046 123.181C28.483 131.147 44.685 128.767 55.6008 137.258C54.7552 142.115 53.8534 147.116 52.8953 152.26Z" fill="#EBEBEB"/>
<path d="M39.63 137.558C38.6865 139.845 34.9062 140.932 31.1197 140.139C27.3332 139.345 25.4962 136.821 26.9208 134.646C28.3454 132.472 32.1444 131.354 35.4373 132.041C38.7302 132.728 40.586 135.252 39.63 137.558Z" fill="#DBDBDB"/>
<path d="M22.9968 133.209C22.6344 133.69 21.6034 133.834 20.7099 133.503C19.8164 133.172 19.429 132.472 19.8101 132.016C20.1913 131.56 21.1972 131.472 22.0658 131.791C22.9343 132.11 23.3592 132.728 22.9968 133.209Z" fill="#DBDBDB"/>
<path d="M46.9967 139.764C46.8405 140.326 46.0094 140.457 45.1222 140.107C44.2349 139.758 43.6476 139.07 43.8288 138.527C44.01 137.983 44.8785 137.783 45.7407 138.114C46.603 138.445 47.1529 139.183 46.9967 139.764Z" fill="#DBDBDB"/>
<path d="M18.3356 123.83C15.0115 126.955 11.7498 129.954 8.58193 132.766C8.20078 132.391 7.83213 132.003 7.46973 131.597C10.6501 128.973 13.9368 126.136 17.3046 123.137C17.6421 123.391 17.9857 123.622 18.3356 123.83Z" fill="#DBDBDB"/>
<path d="M52.8954 152.261C52.533 151.854 52.1644 151.461 51.7832 151.092C52.7704 146.118 53.7077 141.251 54.595 136.49C54.9324 136.727 55.2698 136.977 55.601 137.233C54.7553 142.107 53.8535 147.116 52.8954 152.261Z" fill="#DBDBDB"/>
<path d="M53.0765 151.273C53.0203 151.592 52.9578 151.898 52.8953 152.242C40.9422 138.795 19.4228 145.037 7.46973 131.622L8.09456 131.122C20.0039 144.138 41.1671 138.189 53.0765 151.273Z" fill="#DBDBDB"/>
<path d="M55.6005 137.214C55.5443 137.521 55.4943 137.839 55.4381 138.139C44.4347 129.392 27.9453 131.953 16.6982 123.699L17.3231 123.137C28.4826 131.104 44.6846 128.723 55.6005 137.214Z" fill="#DBDBDB"/>
<path d="M11.7997 134.396C10.8773 133.736 10.0024 133.011 9.18164 132.228L10.5125 131.041C11.8872 132.266 12.5245 133.653 11.7997 134.396Z" fill="#DBDBDB"/>
<path d="M52.3767 148.074C52.2393 148.755 52.1081 149.449 51.9706 150.136C51.1512 149.349 50.2763 148.623 49.3525 147.962C49.5962 146.899 51.0084 146.824 52.3767 148.074Z" fill="#DBDBDB"/>
<path d="M52.0765 135.884C52.8865 136.336 53.6708 136.832 54.4259 137.371L54.051 139.37C52.7701 138.408 51.8453 136.927 52.0765 135.884Z" fill="#DBDBDB"/>
<path d="M16.3301 125.711L17.711 124.424C18.4807 124.928 19.2753 125.393 20.0916 125.817C19.3543 126.598 17.6297 126.642 16.3301 125.711Z" fill="#DBDBDB"/>
<path d="M34.9815 133.047C35.1377 133.084 35.2314 133.191 35.1814 133.278C35.1314 133.365 35.0877 133.465 35.0377 133.559C35.7499 133.732 36.414 134.063 36.9809 134.528C37.0684 134.603 37.1122 134.659 37.0747 134.728C37.0372 134.796 36.8435 134.871 36.6685 134.834C36.5929 134.823 36.5228 134.788 36.4686 134.734C35.9979 134.331 35.4427 134.038 34.844 133.878L33.813 135.834C35.6438 136.458 36.2686 137.083 35.9437 137.758C35.6188 138.433 34.1567 138.77 32.4696 138.439L32.1822 138.983C32.1385 139.076 31.9448 139.12 31.7698 139.083C31.5949 139.045 31.4886 138.939 31.5386 138.845L31.8323 138.295C30.8663 138.08 29.9702 137.624 29.2267 136.971C29.1642 136.908 29.133 136.858 29.1705 136.796C29.2276 136.743 29.2974 136.707 29.3729 136.689C29.4485 136.672 29.5272 136.674 29.6016 136.696C29.6794 136.706 29.7517 136.741 29.8078 136.796C30.4293 137.382 31.1945 137.794 32.026 137.989L33.0945 135.996C31.3012 135.371 30.7326 134.803 31.1387 134.122C31.5449 133.44 32.9445 133.134 34.4566 133.428C34.5003 133.34 34.5503 133.253 34.6003 133.166C34.6462 133.112 34.7063 133.072 34.7738 133.051C34.8412 133.03 34.9132 133.029 34.9815 133.047ZM33.2882 135.64L34.3129 133.765C33.107 133.522 32.0822 133.765 31.8135 134.246C31.5449 134.728 31.7636 135.071 33.2882 135.64ZM33.6256 136.19C33.2882 136.815 32.9508 137.477 32.6071 138.12C33.9442 138.389 35.0065 138.177 35.2626 137.639C35.5188 137.102 35.1939 136.752 33.6256 136.19Z" fill="#EBEBEB"/>
<path d="M242.376 249.772H202.355V258.614H242.376V249.772Z" fill="#EBEBEB"/>
<g opacity="0.1">
<path d="M204.006 250.585C204.437 252.923 204.437 255.32 204.006 257.658C203.578 255.32 203.578 252.923 204.006 250.585Z" fill="black"/>
<path d="M206.986 250.585C207.417 252.923 207.417 255.32 206.986 257.658C206.558 255.32 206.558 252.923 206.986 250.585Z" fill="black"/>
<path d="M208.442 250.585C208.873 252.923 208.873 255.32 208.442 257.658C208.014 255.32 208.014 252.923 208.442 250.585Z" fill="black"/>
<path d="M216.433 250.585C216.864 252.923 216.864 255.32 216.433 257.658C216.005 255.32 216.005 252.923 216.433 250.585Z" fill="black"/>
<path d="M218.595 250.585C219.027 252.923 219.027 255.32 218.595 257.658C218.167 255.32 218.167 252.923 218.595 250.585Z" fill="black"/>
<path d="M227.537 250.585C227.968 252.923 227.968 255.32 227.537 257.658C227.109 255.32 227.109 252.923 227.537 250.585Z" fill="black"/>
<path d="M229.605 250.585C230.033 252.923 230.033 255.32 229.605 257.658C229.173 255.32 229.173 252.923 229.605 250.585Z" fill="black"/>
<path d="M233.398 250.585C233.826 252.923 233.826 255.32 233.398 257.658C232.966 255.32 232.966 252.923 233.398 250.585Z" fill="black"/>
<path d="M225.813 250.585C226.241 252.923 226.241 255.32 225.813 257.658C225.381 255.32 225.381 252.923 225.813 250.585Z" fill="black"/>
<path d="M211.085 250.585C211.513 252.923 211.513 255.32 211.085 257.658C210.654 255.32 210.654 252.923 211.085 250.585Z" fill="black"/>
<path d="M221.444 250.585C221.872 252.923 221.872 255.32 221.444 257.658C221.013 255.32 221.013 252.923 221.444 250.585Z" fill="black"/>
<path d="M222.932 250.585C223.363 252.923 223.363 255.32 222.932 257.658C222.504 255.32 222.504 252.923 222.932 250.585Z" fill="black"/>
<path d="M238.34 250.585C238.772 252.923 238.772 255.32 238.34 257.658C237.913 255.32 237.913 252.923 238.34 250.585Z" fill="black"/>
<path d="M240.577 250.585C241.005 252.923 241.005 255.32 240.577 257.658C240.146 255.32 240.146 252.923 240.577 250.585Z" fill="black"/>
<path d="M235.16 250.585C235.588 252.923 235.588 255.32 235.16 257.658C234.729 255.32 234.729 252.923 235.16 250.585Z" fill="black"/>
<path d="M214.709 250.585C215.137 252.923 215.137 255.32 214.709 257.658C214.278 255.32 214.278 252.923 214.709 250.585Z" fill="black"/>
</g>
<path opacity="0.1" d="M242.37 249.772V251.653L202.355 252.915V249.772H242.37Z" fill="black"/>
<path d="M239.64 240.931H199.619V249.772H239.64V240.931Z" fill="#EBEBEB"/>
<g opacity="0.1">
<path d="M201.269 241.743C201.7 244.081 201.7 246.478 201.269 248.816C200.841 246.478 200.841 244.082 201.269 241.743Z" fill="black"/>
<path d="M204.25 241.743C204.681 244.081 204.681 246.478 204.25 248.816C203.822 246.478 203.822 244.082 204.25 241.743Z" fill="black"/>
<path d="M205.705 241.743C206.136 244.081 206.136 246.478 205.705 248.816C205.277 246.478 205.277 244.082 205.705 241.743Z" fill="black"/>
<path d="M213.697 241.743C214.128 244.081 214.128 246.478 213.697 248.816C213.269 246.478 213.269 244.082 213.697 241.743Z" fill="black"/>
<path d="M215.859 241.743C216.29 244.081 216.29 246.478 215.859 248.816C215.431 246.478 215.431 244.082 215.859 241.743Z" fill="black"/>
<path d="M224.8 241.743C225.232 244.081 225.232 246.478 224.8 248.816C224.373 246.478 224.373 244.082 224.8 241.743Z" fill="black"/>
<path d="M226.868 241.743C227.296 244.082 227.296 246.478 226.868 248.816C226.437 246.478 226.437 244.081 226.868 241.743Z" fill="black"/>
<path d="M230.661 241.743C231.089 244.082 231.089 246.478 230.661 248.816C230.23 246.478 230.23 244.081 230.661 241.743Z" fill="black"/>
<path d="M223.076 241.743C223.504 244.082 223.504 246.478 223.076 248.816C222.645 246.478 222.645 244.081 223.076 241.743Z" fill="black"/>
<path d="M208.349 241.743C208.777 244.082 208.777 246.478 208.349 248.816C207.918 246.478 207.918 244.081 208.349 241.743Z" fill="black"/>
<path d="M218.708 241.743C219.136 244.082 219.136 246.478 218.708 248.816C218.277 246.478 218.277 244.081 218.708 241.743Z" fill="black"/>
<path d="M220.195 241.743C220.623 244.082 220.623 246.478 220.195 248.816C219.767 246.478 219.767 244.082 220.195 241.743Z" fill="black"/>
<path d="M235.604 241.743C236.035 244.081 236.035 246.478 235.604 248.816C235.176 246.478 235.176 244.082 235.604 241.743Z" fill="black"/>
<path d="M237.841 241.743C238.269 244.082 238.269 246.478 237.841 248.816C237.41 246.478 237.41 244.081 237.841 241.743Z" fill="black"/>
<path d="M232.424 241.743C232.852 244.082 232.852 246.478 232.424 248.816C231.993 246.478 231.993 244.081 232.424 241.743Z" fill="black"/>
<path d="M211.953 241.743C212.381 244.082 212.381 246.478 211.953 248.816C211.522 246.478 211.522 244.081 211.953 241.743Z" fill="black"/>
</g>
<path opacity="0.1" d="M239.634 240.931V242.812L199.619 244.074V240.931H239.634Z" fill="black"/>
<path d="M245.825 223.317H205.805V232.158H245.825V223.317Z" fill="#EBEBEB"/>
<g opacity="0.1">
<path d="M207.454 224.117C207.882 226.455 207.882 228.851 207.454 231.19C207.023 228.852 207.023 226.455 207.454 224.117Z" fill="black"/>
<path d="M210.428 224.117C210.86 226.455 210.86 228.852 210.428 231.19C210 228.851 210 226.455 210.428 224.117Z" fill="black"/>
<path d="M211.891 224.117C212.319 226.455 212.319 228.851 211.891 231.19C211.46 228.852 211.46 226.455 211.891 224.117Z" fill="black"/>
<path d="M219.882 224.117C220.31 226.455 220.31 228.851 219.882 231.19C219.451 228.852 219.451 226.455 219.882 224.117Z" fill="black"/>
<path d="M222.044 224.117C222.472 226.455 222.472 228.851 222.044 231.19C221.613 228.852 221.613 226.455 222.044 224.117Z" fill="black"/>
<path d="M230.985 224.117C231.413 226.455 231.413 228.851 230.985 231.19C230.554 228.852 230.554 226.455 230.985 224.117Z" fill="black"/>
<path d="M233.048 224.117C233.479 226.455 233.479 228.852 233.048 231.19C232.62 228.851 232.62 226.455 233.048 224.117Z" fill="black"/>
<path d="M236.84 224.117C237.272 226.455 237.272 228.852 236.84 231.19C236.413 228.851 236.413 226.455 236.84 224.117Z" fill="black"/>
<path d="M229.255 224.117C229.686 226.455 229.686 228.852 229.255 231.19C228.827 228.851 228.827 226.455 229.255 224.117Z" fill="black"/>
<path d="M214.528 224.117C214.959 226.455 214.959 228.852 214.528 231.19C214.1 228.851 214.1 226.455 214.528 224.117Z" fill="black"/>
<path d="M224.888 224.117C225.316 226.455 225.316 228.851 224.888 231.19C224.457 228.852 224.457 226.455 224.888 224.117Z" fill="black"/>
<path d="M226.375 224.117C226.806 226.455 226.806 228.852 226.375 231.19C225.947 228.851 225.947 226.455 226.375 224.117Z" fill="black"/>
<path d="M241.783 224.117C242.214 226.455 242.214 228.852 241.783 231.19C241.352 228.852 241.352 226.455 241.783 224.117Z" fill="black"/>
<path d="M244.019 224.117C244.45 226.455 244.45 228.852 244.019 231.19C243.591 228.851 243.591 226.455 244.019 224.117Z" fill="black"/>
<path d="M238.602 224.117C239.033 226.455 239.033 228.852 238.602 231.19C238.174 228.851 238.174 226.455 238.602 224.117Z" fill="black"/>
<path d="M218.152 224.117C218.583 226.455 218.583 228.852 218.152 231.19C217.724 228.851 217.724 226.455 218.152 224.117Z" fill="black"/>
</g>
<path opacity="0.1" d="M245.82 223.317V225.198L205.799 226.46V223.317H245.82Z" fill="black"/>
<path d="M244.814 214.475H204.793V223.317H244.814V214.475Z" fill="#EBEBEB"/>
<g opacity="0.1">
<path d="M243.014 222.361C242.583 220.023 242.583 217.626 243.014 215.288C243.442 217.626 243.442 220.023 243.014 222.361Z" fill="black"/>
<path d="M240.033 222.361C239.602 220.023 239.602 217.626 240.033 215.288C240.461 217.626 240.461 220.023 240.033 222.361Z" fill="black"/>
<path d="M238.577 222.361C238.146 220.023 238.146 217.626 238.577 215.288C239.005 217.626 239.005 220.023 238.577 222.361Z" fill="black"/>
<path d="M230.58 222.361C230.152 220.023 230.152 217.626 230.58 215.288C231.011 217.626 231.011 220.023 230.58 222.361Z" fill="black"/>
<path d="M228.418 222.361C227.99 220.023 227.99 217.626 228.418 215.288C228.849 217.626 228.849 220.023 228.418 222.361Z" fill="black"/>
<path d="M219.483 222.361C219.051 220.023 219.051 217.626 219.483 215.288C219.914 217.626 219.914 220.023 219.483 222.361Z" fill="black"/>
<path d="M217.414 222.361C216.983 220.023 216.983 217.626 217.414 215.288C217.842 217.626 217.842 220.023 217.414 222.361Z" fill="black"/>
<path d="M213.621 222.361C213.19 220.023 213.19 217.626 213.621 215.288C214.049 217.626 214.049 220.023 213.621 222.361Z" fill="black"/>
<path d="M221.207 222.361C220.776 220.023 220.776 217.626 221.207 215.288C221.635 217.626 221.635 220.023 221.207 222.361Z" fill="black"/>
<path d="M235.935 222.361C235.504 220.023 235.504 217.626 235.935 215.288C236.363 217.626 236.363 220.023 235.935 222.361Z" fill="black"/>
<path d="M225.575 222.361C225.147 220.023 225.147 217.626 225.575 215.288C226.006 217.626 226.006 220.023 225.575 222.361Z" fill="black"/>
<path d="M224.088 222.361C223.657 220.023 223.657 217.626 224.088 215.288C224.516 217.626 224.516 220.023 224.088 222.361Z" fill="black"/>
<path d="M208.679 222.361C208.248 220.023 208.248 217.626 208.679 215.288C209.107 217.626 209.107 220.023 208.679 222.361Z" fill="black"/>
<path d="M206.443 222.361C206.011 220.023 206.011 217.626 206.443 215.288C206.87 217.626 206.87 220.023 206.443 222.361Z" fill="black"/>
<path d="M211.859 222.361C211.431 220.023 211.431 217.626 211.859 215.288C212.29 217.626 212.29 220.023 211.859 222.361Z" fill="black"/>
<path d="M232.311 222.361C231.88 220.023 231.88 217.626 232.311 215.288C232.739 217.626 232.739 220.023 232.311 222.361Z" fill="black"/>
</g>
<path opacity="0.1" d="M244.807 214.475V216.356L204.793 217.618V214.475H244.807Z" fill="black"/>
<path d="M242.376 205.634H202.355V214.475H242.376V205.634Z" fill="#EBEBEB"/>
<g opacity="0.1">
<path d="M204.006 206.446C204.437 208.784 204.437 211.181 204.006 213.519C203.578 211.181 203.578 208.785 204.006 206.446Z" fill="black"/>
<path d="M206.986 206.446C207.417 208.784 207.417 211.181 206.986 213.519C206.558 211.181 206.558 208.785 206.986 206.446Z" fill="black"/>
<path d="M208.442 206.446C208.873 208.784 208.873 211.181 208.442 213.519C208.014 211.181 208.014 208.785 208.442 206.446Z" fill="black"/>
<path d="M216.433 206.446C216.864 208.784 216.864 211.181 216.433 213.519C216.005 211.181 216.005 208.785 216.433 206.446Z" fill="black"/>
<path d="M218.595 206.446C219.027 208.784 219.027 211.181 218.595 213.519C218.167 211.181 218.167 208.785 218.595 206.446Z" fill="black"/>
<path d="M227.537 206.446C227.968 208.784 227.968 211.181 227.537 213.519C227.109 211.181 227.109 208.785 227.537 206.446Z" fill="black"/>
<path d="M229.605 206.446C230.033 208.785 230.033 211.181 229.605 213.519C229.173 211.181 229.173 208.784 229.605 206.446Z" fill="black"/>
<path d="M233.398 206.446C233.826 208.785 233.826 211.181 233.398 213.519C232.966 211.181 232.966 208.784 233.398 206.446Z" fill="black"/>
<path d="M225.813 206.446C226.241 208.785 226.241 211.181 225.813 213.519C225.381 211.181 225.381 208.784 225.813 206.446Z" fill="black"/>
<path d="M211.086 206.446C211.514 208.785 211.514 211.181 211.086 213.519C210.658 211.181 210.658 208.785 211.086 206.446Z" fill="black"/>
<path d="M221.444 206.446C221.872 208.785 221.872 211.181 221.444 213.519C221.013 211.181 221.013 208.784 221.444 206.446Z" fill="black"/>
<path d="M222.932 206.446C223.363 208.784 223.363 211.181 222.932 213.519C222.504 211.181 222.504 208.785 222.932 206.446Z" fill="black"/>
<path d="M238.34 206.446C238.772 208.784 238.772 211.181 238.34 213.519C237.913 211.181 237.913 208.785 238.34 206.446Z" fill="black"/>
<path d="M240.577 206.446C241.005 208.785 241.005 211.181 240.577 213.519C240.146 211.181 240.146 208.784 240.577 206.446Z" fill="black"/>
<path d="M235.16 206.446C235.588 208.785 235.588 211.181 235.16 213.519C234.729 211.181 234.729 208.784 235.16 206.446Z" fill="black"/>
<path d="M214.709 206.446C215.137 208.785 215.137 211.181 214.709 213.519C214.278 211.181 214.278 208.784 214.709 206.446Z" fill="black"/>
</g>
<path opacity="0.1" d="M242.376 205.634V207.515L202.355 208.777V205.634H242.376Z" fill="black"/>
<path d="M242.376 232.158H202.355V241H242.376V232.158Z" fill="#EBEBEB"/>
<g opacity="0.1">
<path d="M240.577 240.044C240.146 237.706 240.146 235.309 240.577 232.971C241.005 235.309 241.005 237.705 240.577 240.044Z" fill="black"/>
<path d="M237.571 240.044C237.14 237.706 237.14 235.309 237.571 232.971C237.999 235.309 237.999 237.705 237.571 240.044Z" fill="black"/>
<path d="M236.141 240.044C235.71 237.706 235.71 235.309 236.141 232.971C236.569 235.309 236.569 237.705 236.141 240.044Z" fill="black"/>
<path d="M228.15 240.044C227.718 237.706 227.718 235.309 228.15 232.971C228.577 235.309 228.577 237.705 228.15 240.044Z" fill="black"/>
<path d="M225.987 240.044C225.556 237.706 225.556 235.309 225.987 232.971C226.415 235.309 226.415 237.705 225.987 240.044Z" fill="black"/>
<path d="M217.046 240.044C216.615 237.706 216.615 235.309 217.046 232.971C217.474 235.309 217.474 237.705 217.046 240.044Z" fill="black"/>
<path d="M214.977 240.044C214.549 237.705 214.549 235.309 214.977 232.971C215.408 235.309 215.408 237.706 214.977 240.044Z" fill="black"/>
<path d="M211.185 240.044C210.757 237.705 210.757 235.309 211.185 232.971C211.616 235.309 211.616 237.706 211.185 240.044Z" fill="black"/>
<path d="M218.77 240.044C218.342 237.705 218.342 235.309 218.77 232.971C219.201 235.309 219.201 237.706 218.77 240.044Z" fill="black"/>
<path d="M233.498 240.044C233.07 237.705 233.07 235.309 233.498 232.971C233.929 235.309 233.929 237.706 233.498 240.044Z" fill="black"/>
<path d="M223.138 240.044C222.71 237.705 222.71 235.309 223.138 232.971C223.569 235.309 223.569 237.706 223.138 240.044Z" fill="black"/>
<path d="M221.651 240.044C221.22 237.706 221.22 235.309 221.651 232.971C222.079 235.309 222.079 237.705 221.651 240.044Z" fill="black"/>
<path d="M206.242 240.044C205.811 237.706 205.811 235.309 206.242 232.971C206.67 235.309 206.67 237.705 206.242 240.044Z" fill="black"/>
<path d="M204.006 240.044C203.578 237.705 203.578 235.309 204.006 232.971C204.437 235.309 204.437 237.706 204.006 240.044Z" fill="black"/>
<path d="M209.454 240.044C209.026 237.705 209.026 235.309 209.454 232.971C209.885 235.309 209.885 237.706 209.454 240.044Z" fill="black"/>
<path d="M229.874 240.044C229.446 237.705 229.446 235.309 229.874 232.971C230.305 235.309 230.305 237.706 229.874 240.044Z" fill="black"/>
</g>
<path opacity="0.1" d="M242.37 232.164V234.039L202.355 235.301V232.164H242.37Z" fill="black"/>
<path d="M199.019 219.205C225.363 223.929 218.389 262.944 192.015 258.22C165.641 253.496 172.633 214.469 199.019 219.205Z" fill="#EBEBEB"/>
<path opacity="0.1" d="M199.019 219.205C225.363 223.929 218.389 262.944 192.015 258.22C165.641 253.496 172.633 214.469 199.019 219.205Z" fill="black"/>
<path d="M196.546 218.756C221.652 223.261 214.666 262.288 189.548 257.777C164.429 253.265 171.402 214.244 196.546 218.756Z" fill="#EBEBEB"/>
<path opacity="0.1" d="M177.125 239.181C177.256 246.136 181.305 252.872 190.14 254.459C211.01 258.208 216.79 225.816 195.951 222.073L195.545 222.011C215.078 225.922 209.479 256.571 189.584 253.003C181.468 251.547 177.587 245.542 177.125 239.181Z" fill="black"/>
<g opacity="0.1">
<path d="M195.214 226.122C195.382 226.167 195.527 226.275 195.617 226.424C195.707 226.574 195.735 226.752 195.695 226.922L195.432 227.997C197.137 228.565 198.633 229.632 199.725 231.059C199.819 231.149 199.888 231.262 199.927 231.386C199.967 231.511 199.974 231.643 199.95 231.771C199.9 231.95 199.782 232.103 199.62 232.195C199.459 232.287 199.267 232.312 199.088 232.264C198.998 232.245 198.913 232.208 198.838 232.155C198.763 232.103 198.699 232.036 198.65 231.958C197.752 230.713 196.506 229.759 195.07 229.215L193.196 236.713C197.057 238.588 198.388 240.537 197.732 243.162C197.026 245.998 194.139 247.411 190.765 246.686L190.246 248.773C190.204 248.943 190.096 249.09 189.945 249.181C189.795 249.272 189.614 249.299 189.443 249.257C189.273 249.215 189.126 249.106 189.035 248.956C188.944 248.805 188.917 248.625 188.959 248.454L189.49 246.336C187.289 245.61 185.395 244.167 184.11 242.237C184.015 242.125 183.957 241.986 183.945 241.839C183.933 241.693 183.967 241.546 184.043 241.42C184.119 241.294 184.233 241.195 184.369 241.138C184.504 241.08 184.654 241.067 184.798 241.1C184.886 241.12 184.97 241.157 185.044 241.21C185.118 241.262 185.181 241.329 185.229 241.406C186.292 243.146 187.919 244.47 189.84 245.155L191.746 237.526C187.953 235.651 186.66 233.777 187.328 231.077C187.997 228.378 190.871 226.897 194.158 227.634L194.414 226.616C194.434 226.531 194.47 226.451 194.521 226.38C194.572 226.309 194.637 226.249 194.711 226.203C194.785 226.157 194.868 226.126 194.954 226.112C195.041 226.099 195.129 226.102 195.214 226.122ZM192.09 236.151L193.908 228.84C191.302 228.247 189.197 229.371 188.722 231.296C188.266 233.121 188.834 234.458 192.09 236.151ZM192.858 238.075L191.015 245.467C193.708 246.092 195.832 244.961 196.338 242.924C196.801 241.081 196.145 239.738 192.858 238.075Z" fill="black"/>
</g>
<path d="M3.32715 258.601C80.9443 258.22 168.009 258.214 245.626 258.601C168.009 258.989 80.9443 258.982 3.32715 258.601Z" fill="#263238"/>
<path d="M135.048 135.827C135.792 149.28 136.329 163.126 135.004 176.542C133.973 186.995 129.581 195.599 118.715 198.167C108.636 200.542 94.2838 200.36 85.7611 193.681C81.7871 190.557 80.4062 186.183 80.6749 181.247C81.0373 174.373 86.4671 136.883 88.0855 125.205C89.0602 118.082 90.0162 110.865 92.2531 103.961C96.9394 89.5207 104.125 89.252 105.137 88.9646C105.993 88.4148 111.386 86.359 119.215 88.8459C121.254 89.4929 123.133 90.5624 124.731 91.9847C126.329 93.4069 127.609 95.1499 128.487 97.1C134.098 108.709 134.342 123.237 135.048 135.827Z" fill="#263238"/>
<path d="M102.845 91.3702C94.2532 95.3879 92.2225 104.767 90.1231 113.177C87.2301 124.886 84.4995 136.646 82.4063 148.518C81.3816 154.229 80.4881 159.958 79.7633 165.713C79.076 171.224 78.0013 177.098 78.3699 182.665C78.9947 191.869 87.3988 196.049 95.5591 197.361C95.642 197.377 95.7277 197.359 95.7974 197.312C95.8672 197.264 95.9152 197.191 95.9309 197.108C95.9467 197.025 95.9288 196.94 95.8814 196.87C95.8339 196.8 95.7607 196.752 95.6779 196.736C91.0291 195.812 86.3053 194.524 82.8312 191.075C78.4012 186.658 78.9135 180.89 79.4384 175.148C80.3319 165.37 81.7753 155.653 83.5748 146.006C85.3743 136.358 87.5113 126.748 89.8231 117.195C92.0038 108.097 93.5722 96.1252 102.945 91.5015C102.988 91.4702 102.938 91.3265 102.845 91.3702Z" fill="#263238"/>
<path d="M132.442 106.941C130.812 99.9117 127.156 93.0573 119.752 91.0141C129.318 94.0633 131.624 104.523 132.923 113.258C134.269 122.447 135.267 131.678 135.916 140.951C136.541 149.861 137.01 158.846 136.841 167.781C136.654 177.429 134.904 186.464 129.206 194.412C129.187 194.445 129.181 194.483 129.187 194.52C129.194 194.558 129.213 194.591 129.242 194.616C129.271 194.64 129.308 194.654 129.345 194.654C129.383 194.655 129.42 194.642 129.449 194.618C135.073 188.189 136.947 179.328 137.366 171.037C137.96 160.115 137.254 149.005 136.398 138.114C135.585 127.792 134.792 117.07 132.442 106.941Z" fill="#263238"/>
<path d="M22.765 266.468C23.3336 264.194 58.9055 209.495 61.5048 208.308C61.8048 208.152 80.2499 219.393 80.2499 219.393C81.0435 220.305 113.91 210.87 113.91 210.87L117.115 251.103L56.2375 254.152C56.2375 254.152 48.3708 259.57 41.1414 264.037C36.6926 266.805 32.7436 269.149 31.6002 269.536C28.601 270.542 22.1714 268.724 22.765 266.468Z" fill="#F7A9A0"/>
<path d="M31.5882 269.542C32.7379 269.155 36.6806 266.812 41.1232 264.044C41.1232 264.044 41.1232 264.044 41.1544 264.044C48.3775 259.576 56.2442 254.159 56.2442 254.159L69.7969 253.484L88.542 217.793C83.9495 218.949 80.5191 219.668 80.2629 219.393C80.2629 219.393 61.824 208.146 61.5178 208.315C58.906 209.502 23.3404 264.2 22.778 266.468C22.2157 268.736 28.6015 270.542 31.5882 269.542Z" fill="white"/>
<path d="M22.4092 266.562C23.0341 264.231 58.7622 209.552 61.4427 208.327C62.4612 207.858 71.4401 212.551 80.2628 219.393L57.1438 254.615C57.1438 254.615 34.531 268.749 31.4443 269.773C28.3577 270.798 21.7969 268.886 22.4092 266.562Z" fill="#C7C7C7"/>
<path d="M25.1275 267.23C31.3758 258.214 55.5695 221.249 61.0306 211.857C61.0743 211.782 61.0306 211.751 60.9743 211.82C54.6135 220.63 30.6885 257.789 24.9775 267.13C24.8401 267.305 24.9775 267.399 25.1275 267.23Z" fill="#263238"/>
<path d="M35.7498 267.543C36.4412 266.54 36.9175 265.405 37.1487 264.209C37.3799 263.013 37.361 261.783 37.0932 260.595C36.5934 258.645 35.4812 256.527 33.5379 255.346C33.4817 255.315 33.4129 255.415 33.4692 255.458C36.7121 258.326 37.7306 263.65 35.6311 267.468C35.6212 267.483 35.6179 267.503 35.622 267.521C35.6261 267.539 35.6372 267.555 35.653 267.565C35.6687 267.575 35.6878 267.578 35.7059 267.574C35.7241 267.57 35.7399 267.558 35.7498 267.543Z" fill="#263238"/>
<path d="M54.376 256.889C56.8253 253.259 58.3062 248.142 56.8004 243.918C56.7379 243.749 56.5067 243.836 56.4942 243.98C56.0715 248.287 55.1917 252.537 53.8699 256.658C53.8547 256.691 53.8462 256.727 53.8449 256.764C53.8436 256.8 53.8495 256.837 53.8623 256.871C53.875 256.905 53.8944 256.936 53.9193 256.963C53.9442 256.99 53.9741 257.012 54.0073 257.027C54.0406 257.042 54.0765 257.05 54.113 257.052C54.1495 257.053 54.1859 257.047 54.2201 257.034C54.2544 257.022 54.2858 257.002 54.3125 256.977C54.3392 256.952 54.3608 256.922 54.376 256.889Z" fill="#263238"/>
<path d="M51.4205 259.001C53.8698 255.365 55.3507 250.253 53.8448 246.023C53.7823 245.861 53.5512 245.948 53.5387 246.092C53.12 250.399 52.2445 254.649 50.9268 258.77C50.9068 258.834 50.9104 258.902 50.9372 258.963C50.964 259.024 51.012 259.074 51.0724 259.102C51.1327 259.13 51.2013 259.135 51.2653 259.117C51.3294 259.098 51.3845 259.057 51.4205 259.001Z" fill="#263238"/>
<path d="M48.4644 261.113C50.9138 257.477 52.3946 252.365 50.8888 248.135C50.8263 247.973 50.5951 248.06 50.5826 248.204C50.1633 252.511 49.2878 256.76 47.9708 260.882C47.9507 260.945 47.9544 261.014 47.9812 261.075C48.0079 261.136 48.056 261.185 48.1163 261.214C48.1767 261.242 48.2453 261.247 48.3093 261.229C48.3733 261.21 48.4284 261.169 48.4644 261.113Z" fill="#263238"/>
<path d="M45.5093 263.225C47.9587 259.589 49.4395 254.477 47.9337 250.247C47.8712 250.085 47.64 250.166 47.6275 250.316C47.2076 254.622 46.3321 258.872 45.0157 262.994C44.9956 263.057 44.9993 263.126 45.0261 263.187C45.0529 263.248 45.1009 263.297 45.1612 263.326C45.2216 263.354 45.2902 263.359 45.3542 263.341C45.4182 263.322 45.4734 263.281 45.5093 263.225Z" fill="#263238"/>
<path d="M68.1903 219.861C70.8709 215.738 64.4413 211.564 61.7795 215.7C59.1177 219.836 65.5035 223.992 68.1903 219.861Z" fill="#263238"/>
<path d="M61.5736 267.23C64.3229 266.381 64.3478 263.056 63.4981 260.869C61.9714 257.135 59.4863 253.87 56.2937 251.403C56.2802 251.392 56.2642 251.384 56.2471 251.381C56.23 251.377 56.2123 251.377 56.1953 251.381C56.1783 251.385 56.1625 251.394 56.1492 251.405C56.1359 251.416 56.1255 251.431 56.1188 251.447C56.0399 251.416 55.9548 251.405 55.8706 251.413C55.7864 251.422 55.7054 251.45 55.6341 251.495C55.5628 251.541 55.5034 251.603 55.4606 251.676C55.4177 251.749 55.3928 251.831 55.3877 251.916C55.4877 255.708 55.1253 259.776 56.3874 263.425C57.1185 265.581 58.968 268.061 61.5736 267.23ZM56.7186 257.633C56.6249 255.758 56.6186 253.884 56.4562 252.053C57.9116 253.858 59.2755 255.735 60.5426 257.677C61.1417 258.627 61.6761 259.616 62.1422 260.638C62.8295 262.225 63.5418 267.83 59.3117 265.587C56.9935 264.369 56.8311 259.882 56.7186 257.658V257.633Z" fill="#263238"/>
<path d="M60.8926 241.425C58.3183 244.293 57.0749 248.185 55.5065 251.641C55.4777 251.72 55.4682 251.805 55.4788 251.889C55.4894 251.972 55.5198 252.052 55.5674 252.122C55.615 252.191 55.6786 252.249 55.7527 252.289C55.8269 252.329 55.9096 252.351 55.9939 252.353C55.9939 252.428 56.0564 252.49 56.1439 252.465C60.0416 251.428 63.5987 249.385 66.4599 246.542C68.0907 244.855 69.3591 241.781 67.1535 239.925C65.0665 238.175 62.3985 239.737 60.8926 241.425ZM64.4292 240.575C69.2029 240.144 66.3662 245.036 65.1165 246.23C64.29 246.99 63.4133 247.693 62.4922 248.335C60.6177 249.697 58.5495 250.766 56.5438 251.928C57.4185 250.278 58.1433 248.566 58.9494 246.886C59.9179 244.88 61.7986 240.806 64.4292 240.575Z" fill="#263238"/>
<path d="M103.706 202.379C103.706 202.379 154.755 178.597 177.593 178.722C204.767 178.872 226.093 210.995 192.926 234.464C163.609 255.208 70.7773 254.302 70.7773 254.302L92.2217 215.206C92.2217 215.206 117.796 205.103 151.369 203.834L104.575 213.651L103.706 202.379Z" fill="#263238"/>
<path d="M104.7 210.139C108.712 209.089 112.823 208.377 116.866 207.64C120.908 206.902 125.088 206.19 129.212 205.546C137.443 204.237 145.735 203.345 154.056 202.872C154.837 202.828 155.618 202.803 156.399 202.778C156.562 202.714 156.729 202.66 156.899 202.616C157.293 202.491 157.68 202.36 158.08 202.254C158.817 202.06 159.567 201.897 160.31 201.723C161.866 201.373 163.435 201.098 164.972 200.692C165.065 200.692 165.115 200.804 165.022 200.835C163.472 201.298 161.96 201.86 160.41 202.316L159.067 202.704C162.129 202.641 165.184 202.66 168.246 202.704C168.34 202.704 168.352 202.853 168.246 202.853C164.091 202.903 159.917 203.172 155.78 203.541C151.644 203.909 147.57 204.284 143.477 204.79C135.198 205.859 126.95 207.196 118.734 208.658C114.123 209.477 109.505 210.383 104.856 210.914C104.419 210.995 104.25 210.252 104.7 210.139Z" fill="#37474F"/>
<path d="M80.2063 252.472C81.5185 249.972 82.6057 247.36 83.7929 244.811C84.9801 242.262 86.1673 239.694 87.367 237.138C89.7476 232.046 98.3703 214.857 99.2388 213.632C99.2951 213.557 99.4263 213.632 99.4013 213.719C99.0326 215.025 93.6903 226.379 92.4594 228.915C89.96 233.983 87.367 238.969 84.7926 243.98C84.0616 245.417 83.293 246.829 82.5432 248.254C81.7934 249.679 80.9936 251.085 80.3188 252.54C80.3181 252.553 80.3141 252.566 80.3071 252.577C80.3001 252.588 80.2904 252.597 80.2789 252.603C80.2674 252.609 80.2546 252.612 80.2416 252.611C80.2286 252.611 80.2159 252.607 80.2048 252.601C80.1937 252.594 80.1846 252.584 80.1783 252.573C80.172 252.561 80.1688 252.549 80.169 252.536C80.1691 252.523 80.1726 252.51 80.1792 252.499C80.1857 252.487 80.1951 252.478 80.2063 252.472Z" fill="#37474F"/>
<path d="M201.181 265.2C200.5 262.963 162.366 210.02 159.698 208.964C159.392 208.821 141.503 220.93 141.503 220.93C140.753 221.88 107.475 214.026 107.475 214.026L106.188 254.365L167.146 254.509C167.146 254.509 175.269 259.539 182.699 263.656C187.272 266.206 191.321 268.361 192.484 268.692C195.539 269.548 201.881 267.43 201.181 265.2Z" fill="#F7A9A0"/>
<path d="M192.514 268.692C191.346 268.367 187.297 266.193 182.723 263.656C175.294 259.539 167.171 254.496 167.171 254.496H153.606L133.161 219.743C137.804 220.68 141.284 221.255 141.503 220.949C141.503 220.949 159.392 208.846 159.698 208.989C162.36 210.052 200.493 262.988 201.181 265.225C201.868 267.461 195.539 269.555 192.514 268.692Z" fill="white"/>
<path d="M201.537 265.281C200.819 262.981 162.504 210.07 159.767 208.971C158.736 208.552 150.001 213.663 141.503 220.924L166.246 255.009C166.246 255.009 189.509 268.043 192.633 268.924C195.757 269.805 202.262 267.574 201.537 265.281Z" fill="#C7C7C7"/>
<path d="M198.876 266.049C192.234 257.339 166.272 221.574 160.373 212.457C160.323 212.382 160.373 212.345 160.423 212.413C167.196 220.905 192.865 256.883 199.019 265.949C199.151 266.137 199.013 266.237 198.876 266.049Z" fill="#263238"/>
<path d="M188.266 266.893C187.527 265.925 186.997 264.815 186.708 263.632C186.42 262.449 186.38 261.219 186.591 260.02C186.997 258.045 188.01 255.877 189.89 254.609C189.947 254.571 190.022 254.671 189.972 254.715C186.847 257.739 186.104 263.1 188.378 266.818C188.385 266.825 188.391 266.834 188.394 266.843C188.397 266.853 188.398 266.863 188.397 266.873C188.396 266.883 188.393 266.893 188.388 266.901C188.383 266.91 188.376 266.917 188.367 266.923C188.359 266.929 188.349 266.932 188.339 266.934C188.329 266.935 188.319 266.935 188.309 266.932C188.3 266.929 188.291 266.924 188.283 266.917C188.276 266.91 188.27 266.902 188.266 266.893Z" fill="#263238"/>
<path d="M169.145 257.145C166.527 253.634 164.803 248.61 166.108 244.299C166.158 244.13 166.396 244.205 166.415 244.349C167.035 248.632 168.114 252.836 169.633 256.889C169.65 256.951 169.646 257.018 169.621 257.077C169.595 257.137 169.55 257.186 169.493 257.216C169.436 257.246 169.37 257.255 169.307 257.242C169.243 257.23 169.186 257.195 169.145 257.145Z" fill="#263238"/>
<path d="M172.201 259.107C169.583 255.59 167.827 250.566 169.158 246.261C169.214 246.092 169.445 246.167 169.47 246.311C170.089 250.594 171.165 254.798 172.682 258.851C172.705 258.914 172.705 258.982 172.682 259.045C172.658 259.107 172.612 259.159 172.554 259.19C172.495 259.221 172.427 259.23 172.362 259.215C172.297 259.2 172.24 259.162 172.201 259.107Z" fill="#263238"/>
<path d="M175.256 261.082C172.632 257.564 170.883 252.54 172.213 248.235C172.263 248.067 172.501 248.142 172.52 248.285C173.136 252.567 174.206 256.771 175.712 260.826C175.724 260.883 175.717 260.942 175.693 260.995C175.669 261.047 175.628 261.091 175.578 261.12C175.527 261.148 175.469 261.16 175.411 261.153C175.353 261.146 175.299 261.121 175.256 261.082Z" fill="#263238"/>
<path d="M178.305 263.05C175.687 259.532 173.963 254.509 175.269 250.204C175.319 250.035 175.556 250.11 175.575 250.253C176.195 254.536 177.271 258.74 178.786 262.794C178.81 262.856 178.81 262.925 178.786 262.988C178.762 263.05 178.717 263.101 178.658 263.133C178.599 263.164 178.531 263.173 178.466 263.158C178.401 263.143 178.344 263.104 178.305 263.05Z" fill="#263238"/>
<path d="M153.581 220.817C150.707 216.825 156.906 212.351 159.786 216.35C162.666 220.349 156.462 224.816 153.581 220.817Z" fill="#263238"/>
<path d="M160.716 262.138C163.841 259.851 165.84 256.296 168.077 253.228C168.121 253.156 168.147 253.075 168.153 252.992C168.16 252.908 168.146 252.824 168.114 252.746C168.081 252.669 168.031 252.6 167.967 252.546C167.903 252.492 167.827 252.453 167.746 252.434C167.75 252.416 167.749 252.397 167.745 252.379C167.74 252.362 167.732 252.345 167.719 252.331C167.707 252.317 167.692 252.306 167.675 252.299C167.658 252.292 167.639 252.289 167.621 252.29C163.603 252.514 159.714 253.787 156.343 255.983C154.399 257.302 152.531 260.051 154.312 262.319C155.993 264.462 158.923 263.481 160.716 262.138ZM157.086 262.244C152.325 261.688 156.099 257.483 157.573 256.564C158.536 255.991 159.536 255.481 160.566 255.04C162.697 254.09 164.94 253.465 167.121 252.734C165.934 254.177 164.872 255.702 163.734 257.183C162.403 258.945 159.723 262.557 157.105 262.232L157.086 262.244Z" fill="#263238"/>
<path d="M155.574 240.812C153.456 242.768 154.868 245.773 156.587 247.386C159.579 250.089 163.229 251.959 167.171 252.809C167.188 252.813 167.206 252.813 167.224 252.809C167.241 252.804 167.257 252.796 167.27 252.785C167.284 252.773 167.294 252.759 167.301 252.742C167.307 252.726 167.31 252.708 167.309 252.69C167.393 252.684 167.474 252.657 167.546 252.613C167.619 252.57 167.679 252.509 167.724 252.437C167.768 252.366 167.795 252.284 167.802 252.2C167.809 252.116 167.797 252.031 167.765 251.953C166.04 248.579 164.641 244.749 161.898 242.006C160.311 240.4 157.593 238.956 155.574 240.812ZM164.097 247.367C164.991 249.01 165.79 250.685 166.746 252.29C164.652 251.294 162.61 250.191 160.629 248.985C159.679 248.389 158.771 247.73 157.911 247.011C156.605 245.873 153.537 241.125 158.324 241.325C160.96 241.431 163.035 245.411 164.097 247.367Z" fill="#263238"/>
<path d="M105.924 201.623C105.924 201.623 54.2943 186.058 26.7515 189.344C-0.235121 192.562 -11.3072 226.403 15.0046 244.736C43.7471 264.762 151.912 257.752 151.912 257.752L128.794 216.4C128.794 216.4 91.9844 207.733 58.3807 208.065L105.593 215.644L105.924 201.623Z" fill="#263238"/>
<path d="M130.356 219.068C130.331 219 130.314 218.928 130.306 218.855L130.269 218.687C130.269 218.549 130.206 218.418 130.175 218.287C130.103 218.014 130.015 217.744 129.913 217.481C129.819 217.218 129.707 216.956 129.594 216.7C129.468 216.446 129.324 216.202 129.163 215.969C129.163 215.969 129.119 215.969 129.1 215.919L129.057 215.888H128.994H128.938C124.883 215.032 97.3151 210.42 93.2099 209.858C89.1047 209.296 84.9246 208.802 80.7757 208.352C72.4914 207.438 64.1664 206.942 55.8322 206.865C55.0512 206.865 54.2764 206.865 53.4953 206.865C53.3272 206.81 53.1562 206.764 52.983 206.727C52.5893 206.621 52.1894 206.509 51.7895 206.421C51.0397 206.259 50.2899 206.134 49.5339 206.003C47.9655 205.721 46.4097 205.515 44.8289 205.19C44.7351 205.19 44.6914 205.309 44.7851 205.334C46.3535 205.721 47.9093 206.215 49.4651 206.584C49.915 206.69 50.3649 206.802 50.821 206.902C47.7656 206.99 44.7101 207.152 41.6547 207.359C41.561 207.359 41.5547 207.515 41.6547 207.508C45.8036 207.365 49.9837 207.434 54.1514 207.602C58.3191 207.771 62.393 207.958 66.5044 208.29C74.821 208.964 83.1313 209.908 91.4041 210.97C96.0467 211.595 124.152 216.35 128.826 216.656H128.851C128.887 216.764 128.928 216.871 128.976 216.975C129.094 217.237 129.219 217.487 129.35 217.743C129.482 217.999 129.607 218.224 129.75 218.456L129.975 218.799L130.088 218.968C130.133 219.023 130.171 219.084 130.2 219.149C130.244 219.23 130.406 219.162 130.356 219.068Z" fill="#37474F"/>
<path d="M143.296 255.071C141.859 252.647 140.647 250.072 139.341 247.573C138.035 245.074 136.723 242.574 135.411 240.075C132.786 235.076 123.351 218.343 122.408 217.162C122.345 217.087 122.22 217.162 122.245 217.256C122.683 218.549 128.556 229.634 129.912 232.102C132.618 237.051 135.473 241.899 138.285 246.792C139.085 248.185 139.922 249.56 140.734 250.953C141.547 252.347 142.415 253.703 143.165 255.127C143.221 255.233 143.346 255.152 143.296 255.071Z" fill="#37474F"/>
<path d="M99.2957 144.425C106.606 163.47 119.29 185.733 123.839 188.995C129.575 193.125 160.173 195.799 161.867 195.743C166.053 195.574 168.453 167.456 163.966 167.444C157.137 167.444 138.348 168.25 136.692 166.957C135.036 165.663 122.858 154.135 110.224 140.976C101.501 131.897 94.7656 132.616 99.2957 144.425Z" fill="#EB9481"/>
<path d="M160.26 195.793C160.76 195.968 167.865 198.361 172.132 198.967C175.319 199.423 184.523 200.479 185.366 197.024C185.947 194.668 180.611 193.406 176.856 192.431C174.875 191.919 172.295 190.288 172.676 189.007C173.345 186.77 178.449 188.201 181.874 189.588C188.497 192.275 197.551 197.524 200.844 193.887C202.093 192.512 200.15 190.613 197.451 188.857C201.693 190.732 206.13 192.162 207.567 190.688C208.398 189.851 208.304 188.876 207.629 187.839C208.879 188.064 209.941 187.839 210.566 186.945C211.647 185.446 210.753 183.577 209.085 181.765C209.319 181.707 209.536 181.594 209.718 181.436C209.899 181.277 210.04 181.077 210.129 180.853C212.228 176.385 197.157 166.557 192.358 166.113C178.256 164.801 163.959 167.444 163.959 167.444C159.211 172.486 160.248 195.787 160.26 195.793Z" fill="#EB9481"/>
<path d="M178.549 180.378C181.869 180.424 185.141 181.178 188.146 182.59C191.933 184.383 194.607 186.733 197.888 189.013C197.975 189.07 197.888 189.207 197.8 189.151C196.232 188.064 189.821 184.065 188.184 183.184C185.221 181.546 181.924 180.605 178.543 180.434C178.505 180.447 178.512 180.378 178.549 180.378Z" fill="#263238"/>
<path d="M180.274 174.236C184.023 174.711 187.815 175.179 191.383 176.404C195.289 177.748 198.569 180.372 201.787 182.884C203.715 184.396 205.611 185.95 207.473 187.545C207.554 187.614 207.473 187.745 207.385 187.682C204.111 185.075 200.764 182.575 197.344 180.184C194.18 177.938 190.605 176.335 186.822 175.467C184.66 174.973 182.448 174.655 180.267 174.33C180.255 174.329 180.243 174.323 180.235 174.314C180.227 174.304 180.223 174.292 180.224 174.28C180.225 174.267 180.23 174.256 180.24 174.247C180.249 174.239 180.261 174.235 180.274 174.236Z" fill="#263238"/>
<path d="M183.386 168.631C186.972 168.856 190.097 169.037 193.452 170.462C197.882 172.336 202.418 175.967 204.012 177.248C205.774 178.66 207.479 180.134 209.166 181.622C209.241 181.678 209.135 181.803 209.06 181.74C205.224 178.48 201.181 175.47 196.957 172.73C194.962 171.394 192.772 170.373 190.465 169.706C188.146 169.156 185.784 168.805 183.405 168.656C183.405 168.656 183.373 168.631 183.386 168.631Z" fill="#263238"/>
<path d="M163.841 165.345L158.174 199.361C158.174 199.361 129.219 195.355 123.358 190.613C117.497 185.87 104.101 158.859 99.3956 145.525C94.6906 132.191 101.676 131.547 109.281 139.276C116.885 147.006 135.736 165.751 136.692 166.082C137.648 166.413 163.841 165.345 163.841 165.345Z" fill="#455A64"/>
<path d="M153.437 185.271C154.137 181.259 154.868 177.248 155.424 173.205C155.737 170.906 156.049 168.612 156.355 166.332C156.355 166.244 156.218 166.213 156.199 166.301C155.337 170.306 154.481 174.317 153.8 178.36C153.119 182.403 152.412 186.395 151.788 190.425C151.432 192.719 151.163 195.012 150.932 197.299C150.932 197.342 151 197.361 151.013 197.299C152.013 193.343 152.731 189.313 153.437 185.271Z" fill="#263238"/>
<path opacity="0.1" d="M158.724 195.999L158.155 199.386C158.155 199.386 129.2 195.38 123.339 190.638C117.478 185.895 104.075 158.884 99.3704 145.544C95.9338 135.796 98.7455 132.822 103.476 134.965C117.366 149.986 143.578 178.566 158.724 195.999Z" fill="black"/>
<path d="M60.9863 201.348L128.137 202.472L124.795 181.003C124.795 181.003 130.249 176.279 127.069 167.294C124.988 161.421 115.572 147.649 110.823 141.926C99.2138 127.967 91.1722 135.759 87.9542 139.351C75.645 153.048 60.9863 201.348 60.9863 201.348Z" fill="#455A64"/>
<path d="M104.482 180.809C107.403 180.544 110.339 180.494 113.267 180.659C114.723 180.765 116.16 180.934 117.604 181.134C118.328 181.234 119.047 181.315 119.766 181.384C120.521 181.475 121.284 181.475 122.04 181.384C122.053 181.384 122.066 181.389 122.075 181.399C122.085 181.408 122.09 181.421 122.09 181.434C122.09 181.447 122.085 181.46 122.075 181.469C122.066 181.479 122.053 181.484 122.04 181.484C121.341 181.649 120.631 181.763 119.915 181.828C119.221 181.878 118.523 181.878 117.829 181.828C116.354 181.74 114.879 181.578 113.405 181.472C110.43 181.259 107.456 181.047 104.47 181.047C104.376 181.053 104.37 180.822 104.482 180.809Z" fill="#263238"/>
<path d="M97.864 184.646C100.187 183.966 102.546 183.42 104.931 183.009C106.124 182.802 107.318 182.671 108.53 182.571L110.255 182.459C110.879 182.421 111.504 182.459 112.167 182.459C112.235 182.459 112.254 182.553 112.167 182.559C111.542 182.615 110.979 182.777 110.386 182.871L108.599 183.146C107.405 183.334 106.218 183.534 105.025 183.708C102.632 184.058 100.251 184.433 97.8765 184.864C97.7641 184.864 97.7453 184.677 97.864 184.646Z" fill="#263238"/>
<path d="M96.0707 136.246C96.027 137.496 99.6448 146.806 105.181 148.018C106.98 148.405 109.555 138.645 109.555 138.645L109.911 137.97L114.866 128.517L105.106 117.763L103.669 116.301C103.669 116.301 102.482 118.982 101.038 122.331C100.969 122.481 100.901 122.637 100.832 122.806C100.763 122.974 100.663 123.168 100.588 123.349C100.37 123.843 100.145 124.355 99.9634 124.868C99.801 125.255 99.6385 125.63 99.4823 126.049C99.3261 126.467 99.1574 126.861 98.9887 127.298C97.8127 130.211 96.8378 133.2 96.0707 136.246Z" fill="#EB9481"/>
<path d="M101.014 122.331C101.271 125.43 102.2 128.437 103.736 131.141C105.273 133.845 107.38 136.182 109.911 137.989L114.866 128.517L105.106 117.763L103.669 116.301C103.669 116.301 102.457 118.982 101.014 122.331Z" fill="#263238"/>
<path d="M133.224 115.939C131.119 134.565 119.722 135.409 115.729 134.953C112.08 134.534 99.7207 132.659 99.8894 113.914C100.058 95.1692 109.381 90.258 117.772 90.7954C126.164 91.3327 135.305 97.3124 133.224 115.939Z" fill="#EB9481"/>
<path d="M130.937 112.427C130.523 112.305 130.117 112.161 129.718 111.996C129.269 111.902 128.862 111.663 128.562 111.315C128.488 111.188 128.458 111.04 128.477 110.894C128.497 110.748 128.564 110.612 128.669 110.509C128.907 110.335 129.187 110.228 129.48 110.199C129.773 110.169 130.069 110.218 130.337 110.34C130.917 110.506 131.414 110.883 131.73 111.396C131.796 111.517 131.825 111.655 131.814 111.792C131.803 111.929 131.752 112.06 131.668 112.169C131.584 112.278 131.47 112.361 131.341 112.406C131.211 112.452 131.071 112.459 130.937 112.427Z" fill="#263238"/>
<path d="M118.228 110.097C118.66 110.09 119.092 110.059 119.521 110.003C119.98 110.033 120.437 109.913 120.821 109.659C120.926 109.555 120.993 109.418 121.013 109.271C121.032 109.124 121.002 108.975 120.927 108.847C120.746 108.613 120.506 108.431 120.231 108.321C119.956 108.211 119.657 108.177 119.365 108.222C118.765 108.223 118.186 108.445 117.74 108.847C117.625 108.941 117.544 109.07 117.506 109.214C117.469 109.358 117.478 109.51 117.532 109.648C117.586 109.787 117.682 109.904 117.807 109.985C117.932 110.066 118.079 110.105 118.228 110.097Z" fill="#263238"/>
<path d="M120.534 115.62C120.534 115.57 120.428 115.67 120.422 115.72C120.322 116.97 119.991 118.438 118.797 118.732C118.76 118.732 118.753 118.801 118.797 118.801C120.222 118.763 120.64 116.845 120.534 115.62Z" fill="#263238"/>
<path d="M119.546 114.145C117.522 113.764 116.909 117.838 118.784 118.194C120.658 118.551 121.246 114.489 119.546 114.145Z" fill="#263238"/>
<path d="M118.715 114.264C118.321 114.439 117.915 114.795 117.465 114.77C117.015 114.745 116.653 114.264 116.391 113.802C116.391 113.758 116.322 113.802 116.316 113.839C116.184 114.62 116.359 115.464 117.184 115.714C118.009 115.964 118.584 115.326 118.896 114.577C118.965 114.427 118.852 114.195 118.715 114.264Z" fill="#263238"/>
<path d="M127.6 116.42C127.6 116.37 127.688 116.495 127.682 116.545C127.438 117.795 127.376 119.275 128.45 119.875C128.481 119.875 128.45 119.956 128.45 119.944C127.051 119.525 127.157 117.57 127.6 116.42Z" fill="#263238"/>
<path d="M128.925 115.283C130.975 115.451 130.487 119.538 128.588 119.382C126.688 119.225 127.201 115.139 128.925 115.283Z" fill="#263238"/>
<path d="M129.744 115.651C130.044 115.908 130.312 116.339 130.7 116.414C131.087 116.489 131.524 116.089 131.862 115.701C131.899 115.658 131.924 115.701 131.918 115.751C131.849 116.539 131.493 117.32 130.725 117.382C129.956 117.445 129.6 116.707 129.506 115.901C129.475 115.758 129.625 115.551 129.744 115.651Z" fill="#263238"/>
<path d="M118.853 125.961C119.091 126.311 119.309 126.773 119.759 126.905C120.226 126.985 120.705 126.968 121.165 126.855C121.175 126.85 121.186 126.85 121.196 126.853C121.206 126.857 121.215 126.864 121.22 126.873C121.226 126.882 121.227 126.893 121.225 126.903C121.223 126.914 121.217 126.923 121.209 126.93C120.978 127.137 120.695 127.278 120.39 127.337C120.085 127.397 119.77 127.372 119.478 127.267C119.237 127.15 119.036 126.964 118.9 126.733C118.764 126.502 118.7 126.235 118.716 125.967C118.685 125.917 118.785 125.905 118.853 125.961Z" fill="#263238"/>
<path d="M124.738 122.125C124.738 122.125 124.738 124.049 124.613 124.943C124.613 125.024 124.382 125.036 124.076 125.011C124.076 125.011 124.076 125.011 124.045 125.011C123.26 125.045 122.482 124.861 121.795 124.481C121.108 124.101 120.54 123.538 120.152 122.856C120.102 122.762 120.227 122.687 120.302 122.756C121.329 123.69 122.631 124.266 124.014 124.399C124.107 124.162 123.907 121.1 124.051 121.112C124.732 121.272 125.39 121.519 126.007 121.85C126.126 117.845 125.607 113.846 125.788 109.859C125.788 109.828 125.801 109.797 125.823 109.775C125.845 109.753 125.875 109.74 125.907 109.74C125.938 109.74 125.969 109.753 125.991 109.775C126.013 109.797 126.026 109.828 126.026 109.859C126.869 114.008 126.832 118.607 126.813 122.768C126.819 123.249 125.101 122.325 124.738 122.125Z" fill="#263238"/>
<path d="M124.008 124.561C123.419 125.234 122.665 125.742 121.821 126.036C121.358 126.186 120.859 126.186 120.396 126.036C119.39 125.699 119.428 124.755 119.665 123.962C119.8 123.542 119.982 123.14 120.209 122.762C121.251 123.752 122.582 124.382 124.008 124.561Z" fill="#263238"/>
<path d="M121.821 126.017C121.358 126.167 120.859 126.167 120.396 126.017C119.39 125.68 119.428 124.736 119.665 123.943C120.759 124.143 121.802 124.961 121.821 126.017Z" fill="#FF9BBC"/>
<path d="M99.9018 116.189C101.196 115.818 102.372 115.118 103.314 114.156C104.256 113.195 104.932 112.004 105.275 110.703C108.77 109.844 111.974 108.074 114.56 105.573C114.367 105.929 112.986 108.541 112.242 109.847C124.414 109.703 129.638 101.318 129.638 101.318C132.793 105.798 133.131 108.372 133.468 109.684C133.468 109.684 134.818 102.467 131.943 96.9813C128.432 90.258 122.027 90.3018 122.027 90.3018C119.239 89.0888 116.175 88.6494 113.158 89.0298C110.141 89.4103 107.282 90.5965 104.882 92.4637C95.7716 99.4681 99.9018 116.189 99.9018 116.189Z" fill="#263238"/>
<path d="M121.539 109.459C119.463 110.162 117.294 110.553 115.104 110.621C118.577 110.286 121.888 108.988 124.664 106.872C125.848 105.969 126.912 104.92 127.831 103.748C128.885 102.511 129.684 101.078 130.181 99.5306C130.187 99.5065 130.203 99.4861 130.225 99.4738C130.247 99.4615 130.272 99.4583 130.296 99.465C130.32 99.4716 130.341 99.4875 130.353 99.5092C130.365 99.5309 130.369 99.5565 130.362 99.5806C130.033 101.161 129.441 102.675 128.612 104.061C127.732 105.4 126.614 106.567 125.313 107.503C124.161 108.324 122.899 108.978 121.564 109.447L121.539 109.459Z" fill="#263238"/>
<path d="M98.7393 120.238C98.9936 120.396 99.2637 120.528 99.5453 120.631C99.8211 120.74 100.112 120.805 100.408 120.825C100.789 120.866 101.175 120.823 101.539 120.7C101.823 120.605 102.092 120.47 102.338 120.3C102.689 120.059 102.996 119.759 103.244 119.413L103.213 114.295C103.213 114.295 100.358 107.753 97.4709 108.672C94.5841 109.59 95.9088 118.519 98.7393 120.238Z" fill="#EB9481"/>
<path d="M97.9143 111.203C97.8643 111.203 97.8456 111.253 97.8831 111.284C99.8513 112.583 100.576 114.795 100.951 117.013C100.476 116.095 99.7013 115.483 98.4517 116.026C98.3892 116.057 98.4517 116.157 98.4892 116.151C98.8967 116.105 99.3085 116.188 99.6662 116.389C100.024 116.59 100.309 116.898 100.482 117.27C100.77 117.869 100.992 118.497 101.145 119.144C101.207 119.357 101.576 119.325 101.545 119.088C101.545 119.088 101.545 119.05 101.545 119.032C102.144 116.32 100.795 112.071 97.9143 111.203Z" fill="#263238"/>
<path d="M86.5611 142.807C78.6944 155.303 62.3424 200.079 71.3713 205.953C80.4002 211.826 120.846 193.862 131.655 185.92C134.873 183.558 117.209 164.051 112.954 164.357C109.411 164.588 93.2655 176.067 92.5595 175.148C91.7597 174.111 92.9469 165.076 94.2653 148.905C95.7836 130.223 90.0351 137.296 86.5611 142.807Z" fill="#EB9481"/>
<path d="M124.308 155.11C132.112 150.961 134.749 151.092 139.472 144.094C142.597 139.495 146.839 139.508 146.202 145.231C145.171 154.604 136.204 162.102 132.387 163.77L124.308 155.11Z" fill="#EB9481"/>
<path d="M161.553 141.707C186.222 146.137 179.705 182.684 154.993 178.254C130.28 173.824 136.835 137.264 161.553 141.707Z" fill="#2B5AAC"/>
<path opacity="0.1" d="M161.553 141.707C186.222 146.137 179.705 182.684 154.993 178.254C130.28 173.824 136.835 137.264 161.553 141.707Z" fill="black"/>
<path d="M159.236 141.295C182.749 145.512 176.232 182.065 152.675 177.835C129.119 173.605 135.68 137.064 159.236 141.295Z" fill="#2B5AAC"/>
<path opacity="0.1" d="M141.041 160.427C141.172 166.938 144.959 173.249 153.238 174.73C172.783 178.235 178.194 147.899 158.68 144.4L158.299 144.338C176.594 148.005 171.352 176.71 152.713 173.367C145.096 171.999 141.447 166.382 141.041 160.427Z" fill="black"/>
<g opacity="0.1">
<path d="M153.275 147.649C153.437 147.626 153.602 147.667 153.734 147.764C153.866 147.861 153.955 148.006 153.981 148.168L154.137 149.193C155.817 149.07 157.495 149.453 158.955 150.292C159.068 150.336 159.168 150.408 159.247 150.501C159.326 150.594 159.38 150.704 159.405 150.823C159.426 150.997 159.379 151.172 159.272 151.311C159.166 151.45 159.009 151.542 158.836 151.567C158.665 151.595 158.49 151.555 158.349 151.454C157.121 150.704 155.701 150.328 154.262 150.373L155.343 157.528C159.348 157.759 161.204 158.971 161.592 161.477C161.998 164.182 160.017 166.444 156.837 167.025L157.137 169.019C157.161 169.184 157.119 169.353 157.02 169.488C156.92 169.623 156.771 169.712 156.605 169.737C156.44 169.762 156.271 169.72 156.136 169.62C156.001 169.521 155.912 169.372 155.887 169.206L155.581 167.188C153.417 167.35 151.261 166.782 149.457 165.576C149.36 165.531 149.275 165.463 149.212 165.376C149.148 165.29 149.108 165.189 149.095 165.082C149.076 164.913 149.122 164.744 149.222 164.607C149.323 164.47 149.472 164.377 149.639 164.345C149.809 164.32 149.983 164.36 150.126 164.457C151.671 165.575 153.551 166.131 155.456 166.032L154.356 158.746C150.395 158.484 148.601 157.315 148.214 154.76C147.827 152.204 149.776 149.874 152.881 149.324L152.738 148.355C152.726 148.274 152.731 148.19 152.752 148.111C152.773 148.031 152.809 147.956 152.859 147.89C152.909 147.825 152.972 147.77 153.043 147.728C153.114 147.687 153.193 147.66 153.275 147.649ZM154.181 157.44L153.125 150.467C150.626 150.892 149.245 152.623 149.52 154.46C149.782 156.197 150.763 157.147 154.181 157.44ZM155.537 158.834L156.605 165.888C159.155 165.451 160.592 163.714 160.298 161.77C160.03 160.008 158.974 159.071 155.537 158.834Z" fill="black"/>
</g>
<path d="M105.369 171.006C105.369 171.006 112.73 162.495 120.603 157.259C126.051 153.629 138.779 147.056 156.368 155.553C160.542 157.572 165.053 163.401 157.049 162.583C151.357 162.002 147.927 159.915 144.553 160.183C144.553 160.183 149.414 168.306 147.233 172.38C145.325 175.966 143.164 179.411 140.766 182.69C140.066 182.386 139.386 182.04 138.729 181.653C138.729 181.653 136.33 185.289 129.919 186.964L105.369 171.006Z" fill="#EB9481"/>
<path d="M126.351 154.622C129.75 155.072 136.942 156.134 142.521 159.046C148.726 162.289 159.792 170.2 157.355 174.748C155.568 178.085 151.075 175.442 151.075 175.442C151.075 175.442 154.962 179.672 152.687 182.315C150.613 184.739 147.264 182.484 147.264 182.484C147.264 182.484 149.176 185.458 146.733 187.408C143.79 189.757 140.253 183.14 135.223 182.94C134.099 182.915 126.351 154.622 126.351 154.622Z" fill="#EB9481"/>
<path d="M138.017 165.026C141.141 165.969 147.708 169.937 151.076 175.292C151.157 175.417 151.107 175.536 151.014 175.442C147.107 171.475 142.732 167.998 137.986 165.088C137.955 165.07 137.98 165.02 138.017 165.026Z" fill="#263238"/>
<path d="M134.93 171.38C137.542 172.474 144.121 176.86 147.352 182.409C147.427 182.534 147.352 182.653 147.277 182.553C143.584 178.389 139.43 174.66 134.893 171.437C134.861 171.418 134.893 171.368 134.93 171.38Z" fill="#263238"/>
<path d="M144.533 160.127C147.501 159.933 149.725 160.615 152.562 161.377C153.96 161.766 155.378 162.075 156.811 162.302C158.117 162.495 160.054 162.795 160.879 161.446C161.335 160.696 160.985 159.765 160.573 159.077C159.847 158.113 158.974 157.27 157.986 156.578C157.948 156.547 157.986 156.484 158.029 156.509C158.966 157.126 159.838 157.838 160.629 158.634C161.163 159.183 161.517 159.883 161.641 160.64C161.785 162.258 160.116 163.089 158.729 163.139C157.89 163.141 157.052 163.057 156.23 162.889C155.443 162.758 154.668 162.583 153.893 162.389C152.306 161.995 150.769 161.508 149.157 161.096C147.626 160.724 146.073 160.447 144.508 160.265C144.471 160.221 144.471 160.127 144.533 160.127Z" fill="#263238"/>
<path d="M153.594 167.5C152.345 166.251 146.259 161.252 144.503 160.208C144.498 160.206 144.494 160.203 144.491 160.199C144.488 160.195 144.485 160.19 144.484 160.185C144.483 160.18 144.482 160.175 144.483 160.17C144.483 160.165 144.485 160.16 144.487 160.155C144.49 160.151 144.493 160.147 144.497 160.144C144.501 160.14 144.506 160.138 144.511 160.136C144.515 160.135 144.521 160.135 144.526 160.135C144.531 160.136 144.536 160.137 144.54 160.14C147.352 161.352 152.632 165.382 154.032 166.782C155.431 168.181 157.081 169.962 157.781 171.818C158.805 174.617 157.156 175.829 156.531 176.192C155.776 176.63 154.895 176.8 154.032 176.673C152.99 176.46 152.003 176.034 151.132 175.423C151.089 175.392 151.132 175.323 151.17 175.348C152.544 176.098 154.55 176.598 156 175.836C156.323 175.681 156.613 175.463 156.851 175.194C157.089 174.926 157.271 174.613 157.387 174.273C157.555 173.449 157.422 172.591 157.012 171.855C156.13 170.219 154.974 168.746 153.594 167.5Z" fill="#263238"/>
<path d="M107.918 166.519L126.919 192.437C126.919 192.437 76.1886 214.475 69.8528 206.121C63.517 197.767 77.1946 157.728 84.4615 145.437C92.878 131.197 95.0462 135.077 94.74 146.331C94.4214 158.115 92.7655 175.386 92.7655 175.386L107.918 166.519Z" fill="#455A64"/>
<path d="M78.1079 186.058C80.2498 183.886 82.5469 181.873 84.9811 180.034C87.3879 178.23 89.9231 176.603 92.5666 175.167C94.0725 174.33 95.6096 173.567 97.1404 172.799C97.1904 172.799 97.2217 172.849 97.1779 172.868C94.5235 174.326 91.9553 175.937 89.4862 177.691C87.016 179.412 84.5812 181.172 82.1819 182.971C80.826 183.996 79.5138 185.083 78.1892 186.145C78.1776 186.156 78.1622 186.162 78.1464 186.161C78.1305 186.161 78.1156 186.154 78.1048 186.142C78.094 186.131 78.0883 186.115 78.0889 186.099C78.0895 186.084 78.0963 186.069 78.1079 186.058Z" fill="#263238"/>
<path d="M107.756 166.463C107.506 166.588 93.928 174.142 93.4906 174.455C93.4906 174.223 94.6341 166.019 94.809 164.82C94.809 164.701 94.809 164.576 94.859 164.457C95.0215 163.907 95.1964 163.351 95.3401 162.789C95.5276 162.07 95.7088 161.352 95.89 160.633H95.8587C95.6463 161.346 95.4276 162.052 95.2339 162.764C95.1339 163.089 95.0527 163.389 94.9652 163.757C95.0652 162.908 95.1589 162.064 95.2526 161.214C95.3964 159.858 95.4963 158.503 95.5963 157.147C95.5963 157.103 95.5338 157.097 95.5276 157.147C95.1902 159.54 94.7778 161.927 94.4279 164.32C94.078 166.713 92.6846 175.567 92.7033 175.567C92.7221 175.567 107.606 166.838 107.856 166.632C107.868 166.615 107.875 166.595 107.877 166.574C107.878 166.553 107.873 166.532 107.862 166.514C107.851 166.496 107.835 166.482 107.816 166.472C107.798 166.463 107.776 166.46 107.756 166.463Z" fill="#263238"/>
<path d="M112.292 184.871C110.192 181.978 108.112 179.06 105.906 176.242C104.656 174.642 103.407 173.036 102.157 171.443C102.107 171.387 101.994 171.443 102.038 171.524C104.031 174.511 106.037 177.51 108.168 180.403C110.299 183.296 112.379 186.195 114.535 189.051C115.785 190.675 117.034 192.256 118.359 193.806C118.365 193.81 118.373 193.812 118.381 193.812C118.389 193.812 118.397 193.809 118.403 193.804C118.409 193.799 118.414 193.793 118.416 193.785C118.418 193.778 118.418 193.77 118.415 193.762C116.503 190.707 114.404 187.789 112.292 184.871Z" fill="#263238"/>
<path d="M127.687 192.75C126.988 191.975 126.075 190.838 125.344 190.094C125.151 189.894 124.988 189.976 125.151 190.188C125.707 190.907 126.213 191.738 126.769 192.481C126.057 192.769 125.332 193.044 124.619 193.343L122.12 194.381C120.5 195.047 118.875 195.699 117.246 196.336C113.947 197.624 110.615 198.84 107.249 199.985C100.532 202.321 93.6971 204.304 86.7731 205.928C84.8361 206.371 82.8866 206.784 80.9309 207.127C79.007 207.5 77.0654 207.776 75.1136 207.952C75.1041 207.956 75.0958 207.962 75.09 207.97C75.0842 207.979 75.0811 207.989 75.0811 207.999C75.0811 208.009 75.0842 208.019 75.09 208.028C75.0958 208.036 75.1041 208.042 75.1136 208.046C76.8331 208.078 78.5525 207.976 80.256 207.74C82.0368 207.49 83.8176 207.19 85.5796 206.834C89.0975 206.115 92.5716 205.215 96.0207 204.222C102.852 202.252 109.594 199.996 116.247 197.455C118.121 196.749 119.964 196.018 121.814 195.268C122.745 194.887 123.688 194.506 124.594 194.106C125.5 193.706 127.806 192.875 127.687 192.75Z" fill="#263238"/>
<path d="M120.002 206.053C120.209 204.997 120.333 204.053 120.44 203.041C120.54 202.036 120.59 201.027 120.59 200.017C120.594 198.969 120.502 197.923 120.315 196.892C120.123 195.689 119.64 194.55 118.909 193.575C118.454 193.008 117.866 192.563 117.197 192.281C116.866 192.144 116.52 192.048 116.166 191.994C115.839 191.948 115.508 191.934 115.179 191.95C113.95 192.044 112.78 192.516 111.829 193.3C110.978 193.985 110.252 194.814 109.686 195.749C109.103 196.676 108.704 197.707 108.512 198.786C108.389 199.429 108.441 200.094 108.662 200.71C108.815 201.108 109.085 201.45 109.436 201.691C109.772 201.913 110.16 202.043 110.561 202.066C110.974 202.087 111.385 201.987 111.742 201.779C112.049 201.586 112.309 201.328 112.504 201.023C112.818 200.532 113.03 199.984 113.129 199.411C113.307 198.396 113.307 197.358 113.129 196.343C112.947 195.326 112.556 194.357 111.979 193.5C111.68 193.043 111.275 192.666 110.798 192.4C110.306 192.132 109.739 192.038 109.186 192.131C108.194 192.353 107.296 192.879 106.618 193.637C105.33 195.053 104.304 196.686 103.588 198.461C104.427 196.777 105.559 195.256 106.931 193.968C107.569 193.352 108.384 192.95 109.261 192.819C109.657 192.811 110.047 192.921 110.38 193.135C110.714 193.348 110.977 193.656 111.136 194.018C111.531 194.796 111.758 195.647 111.804 196.518C111.883 197.379 111.812 198.248 111.592 199.086C111.5 199.443 111.341 199.78 111.123 200.079C111.055 200.17 110.964 200.243 110.861 200.292C110.802 200.31 110.739 200.31 110.68 200.292C110.605 200.282 110.535 200.249 110.48 200.198C110.454 200.153 110.435 200.105 110.424 200.054C110.38 199.763 110.404 199.466 110.492 199.186C110.972 197.641 111.967 196.306 113.31 195.405C113.859 195.02 114.514 194.814 115.185 194.818C115.326 194.826 115.466 194.847 115.603 194.881C115.717 194.911 115.826 194.955 115.928 195.012C116.123 195.124 116.286 195.283 116.403 195.474C116.733 196.072 116.925 196.736 116.966 197.417C117.04 198.249 117.04 199.085 116.966 199.917C116.892 200.795 116.773 201.669 116.609 202.535C116.447 203.397 116.241 204.316 115.985 205.103L120.002 206.053Z" fill="#2B5AAC"/>
<path opacity="0.1" d="M120.002 206.053C120.209 204.997 120.333 204.053 120.44 203.041C120.54 202.036 120.59 201.027 120.59 200.017C120.594 198.969 120.502 197.923 120.315 196.892C120.123 195.689 119.64 194.55 118.909 193.575C118.454 193.008 117.866 192.563 117.197 192.281C116.866 192.144 116.52 192.048 116.166 191.994C115.839 191.948 115.508 191.934 115.179 191.95C113.95 192.044 112.78 192.516 111.829 193.3C110.978 193.985 110.252 194.814 109.686 195.749C109.103 196.676 108.704 197.707 108.512 198.786C108.389 199.429 108.441 200.094 108.662 200.71C108.815 201.108 109.085 201.45 109.436 201.691C109.772 201.913 110.16 202.043 110.561 202.066C110.974 202.087 111.385 201.987 111.742 201.779C112.049 201.586 112.309 201.328 112.504 201.023C112.818 200.532 113.03 199.984 113.129 199.411C113.307 198.396 113.307 197.358 113.129 196.343C112.947 195.326 112.556 194.357 111.979 193.5C111.68 193.043 111.275 192.666 110.798 192.4C110.306 192.132 109.739 192.038 109.186 192.131C108.194 192.353 107.296 192.879 106.618 193.637C105.33 195.053 104.304 196.686 103.588 198.461C104.427 196.777 105.559 195.256 106.931 193.968C107.569 193.352 108.384 192.95 109.261 192.819C109.657 192.811 110.047 192.921 110.38 193.135C110.714 193.348 110.977 193.656 111.136 194.018C111.531 194.796 111.758 195.647 111.804 196.518C111.883 197.379 111.812 198.248 111.592 199.086C111.5 199.443 111.341 199.78 111.123 200.079C111.055 200.17 110.964 200.243 110.861 200.292C110.802 200.31 110.739 200.31 110.68 200.292C110.605 200.282 110.535 200.249 110.48 200.198C110.454 200.153 110.435 200.105 110.424 200.054C110.38 199.763 110.404 199.466 110.492 199.186C110.972 197.641 111.967 196.306 113.31 195.405C113.859 195.02 114.514 194.814 115.185 194.818C115.326 194.826 115.466 194.847 115.603 194.881C115.717 194.911 115.826 194.955 115.928 195.012C116.123 195.124 116.286 195.283 116.403 195.474C116.733 196.072 116.925 196.736 116.966 197.417C117.04 198.249 117.04 199.085 116.966 199.917C116.892 200.795 116.773 201.669 116.609 202.535C116.447 203.397 116.241 204.316 115.985 205.103L120.002 206.053Z" fill="black"/>
<path d="M124.052 251.409C126.789 255.283 126.232 267.099 127.888 268.755C129.544 270.411 146.546 270.242 147.696 269.267C148.845 268.293 148.32 264.112 149.57 263.425C150.095 263.156 124.052 251.409 124.052 251.409Z" fill="#2B5AAC"/>
<path opacity="0.1" d="M149.583 263.431C149.384 263.581 149.217 263.768 149.091 263.983C148.966 264.197 148.884 264.435 148.851 264.681C141.003 263.765 133.332 261.701 126.082 258.558C125.695 255.677 125.126 252.934 124.052 251.409C124.052 251.416 150.095 263.163 149.583 263.431Z" fill="black"/>
<path d="M205.53 251.609C202.112 256.552 203.962 267.112 202.3 268.767C200.638 270.423 183.642 270.254 182.499 269.28C181.355 268.305 181.874 263.9 181.199 263.063C180.843 262.606 205.53 251.609 205.53 251.609Z" fill="#2B5AAC"/>
<path opacity="0.1" d="M205.53 251.609C204.281 253.453 203.712 256.083 203.45 258.733C196.496 261.81 189.127 263.848 181.58 264.781C181.59 264.186 181.459 263.598 181.199 263.063C180.843 262.606 205.53 251.609 205.53 251.609Z" fill="black"/>
<path d="M163.841 180.759C125.657 180.759 111.042 207.527 111.042 223.192C111.042 238.65 122.139 264.918 163.841 264.918C205.542 264.918 219.376 242.668 219.376 222.836C219.376 203.003 202.399 180.759 163.841 180.759Z" fill="#2B5AAC"/>
<path d="M177.85 182.696C177.85 182.696 193.47 170.712 210.385 172.143C216.208 172.636 206.536 185.264 206.361 195.112L177.85 182.696Z" fill="#2B5AAC"/>
<path opacity="0.1" d="M199.838 190.288C199.738 190.913 205.131 193.218 205.687 192.869C206.243 192.519 206.805 184.746 211.204 176.473C211.854 175.254 200.882 183.615 199.838 190.288Z" fill="black"/>
<path opacity="0.3" d="M203.206 221.049C203.727 220.969 204.214 220.742 204.611 220.396C205.008 220.05 205.299 219.598 205.449 219.093C205.403 219.717 205.215 220.323 204.9 220.865C204.585 221.406 204.151 221.868 203.631 222.217C203.556 222.267 203.593 222.411 203.693 222.38C206.68 221.255 206.355 217.037 205.306 214.35C205.249 214.2 205.193 214.051 205.124 213.907C204.456 212.345 203.287 211.214 201.819 211.407C197.014 212.101 198.751 221.699 203.206 221.049Z" fill="black"/>
<path d="M214.735 207.384C215.478 209.627 222.264 207.802 223.97 209.227C226.663 211.457 225.919 239.163 223.457 241.393C222.076 242.643 214.385 241.325 212.21 242.849C210.036 244.374 214.735 207.384 214.735 207.384Z" fill="#2B5AAC"/>
<path opacity="0.1" d="M224.331 224.635C224.331 231.383 223.769 236.851 223.082 236.851C222.394 236.851 221.832 231.383 221.832 224.635C221.832 217.887 222.394 212.42 223.082 212.42C223.769 212.42 224.331 217.868 224.331 224.635Z" fill="black"/>
<path opacity="0.3" d="M145.377 190.163C145.552 190.119 162.992 185.533 179.231 189.12L180.849 184.34C162.779 180.353 144.221 185.252 143.44 185.464L145.384 190.163L144.409 187.814L145.377 190.163Z" fill="black"/>
<path d="M129.044 248.485C113.642 230.79 123.07 210.233 123.495 209.352C123.791 208.749 123.835 208.053 123.618 207.417C123.4 206.781 122.939 206.258 122.336 205.962C121.733 205.666 121.037 205.622 120.401 205.839C119.766 206.057 119.242 206.518 118.946 207.121C116.866 211.785 115.636 216.783 115.316 221.88C114.573 233.127 118.297 243.474 127.107 250.51C129.769 252.603 131.024 250.728 129.044 248.485Z" fill="white"/>
<path d="M122.346 201.466C122.346 202.012 122.507 202.545 122.811 202.998C123.114 203.451 123.544 203.804 124.048 204.013C124.552 204.221 125.106 204.275 125.641 204.168C126.176 204.062 126.667 203.799 127.052 203.413C127.437 203.027 127.699 202.535 127.805 202C127.91 201.465 127.855 200.911 127.645 200.407C127.436 199.904 127.082 199.474 126.628 199.172C126.174 198.87 125.64 198.71 125.095 198.711C124.365 198.712 123.666 199.003 123.151 199.52C122.635 200.037 122.346 200.737 122.346 201.466Z" fill="white"/>
</svg>
