<svg width="292" height="270" viewBox="0 0 292 270" fill="none" xmlns="http://www.w3.org/2000/svg">
<path d="M146.001 270C226.636 270 292.003 266.184 292.003 261.476C292.003 256.768 226.636 252.952 146.001 252.952C65.3671 252.952 0 256.768 0 261.476C0 266.184 65.3671 270 146.001 270Z" fill="#F5F5F5"/>
<path d="M41.739 255.269C40.233 254.207 11.4905 214.418 11.355 212.204C11.2947 211.368 16.852 206.835 23.7119 201.556C25.2179 200.412 45.5041 177.106 45.5041 177.106L64.3294 202.987L42.3414 227.159C42.3414 227.159 46.5432 247.325 46.4303 249.749C46.3173 252.174 43.2074 256.346 41.739 255.269Z" fill="#F7A9A0"/>
<path d="M41.7315 255.269C40.2255 254.215 11.4905 214.418 11.355 212.204C11.2947 211.361 16.8444 206.835 23.7119 201.556C24.2315 201.15 27.0553 198.025 30.5267 194.139L49.1487 219.681L42.3716 227.159C42.3716 227.159 46.5658 247.325 46.4529 249.749C46.3399 252.174 43.2074 256.346 41.7315 255.269Z" fill="#EBEBEB"/>
<path d="M41.7695 255.457C40.2635 254.395 11.3554 214.38 11.2123 212.151C11.1596 211.331 16.6114 207.084 22.9819 201.451C24.4879 200.096 25.8885 198.349 27.6054 197.053L46.5135 223.032L42.3719 227.189C42.3719 227.189 46.6039 247.468 46.4909 249.922C46.3779 252.377 43.253 256.519 41.7695 255.457Z" fill="#2B5AAC"/>
<path d="M42.9595 253.763C38.2683 246.933 18.7276 219.84 13.5921 213.447C13.5168 213.447 13.5921 213.394 13.5921 213.447C18.1101 220.314 37.8541 247.249 42.9068 253.816C42.952 253.944 43.0574 253.868 42.9595 253.763Z" fill="#263238"/>
<path d="M44.5484 227.061C43.1328 224.049 40.3918 221.127 37.0183 220.472C36.8903 220.472 36.8602 220.63 36.9505 220.698C39.5869 222.632 42.0102 224.841 44.1794 227.287C44.2094 227.336 44.2576 227.371 44.3134 227.384C44.3691 227.398 44.4279 227.388 44.4769 227.358C44.5258 227.328 44.5608 227.28 44.5742 227.224C44.5877 227.169 44.5784 227.11 44.5484 227.061Z" fill="#263238"/>
<path d="M44.7736 229.794C43.358 226.782 40.617 223.861 37.2812 223.206C37.1532 223.206 37.1155 223.364 37.2059 223.431C39.8458 225.364 42.2695 227.575 44.4348 230.028C44.47 230.06 44.5151 230.08 44.5629 230.083C44.6107 230.087 44.6582 230.074 44.6977 230.047C44.7371 230.02 44.7662 229.98 44.78 229.934C44.7938 229.888 44.7915 229.839 44.7736 229.794Z" fill="#263238"/>
<path d="M45.0074 232.528C43.5918 229.516 40.8508 226.602 37.4773 225.939C37.3493 225.939 37.3191 226.105 37.4095 226.165C40.046 228.101 42.4693 230.313 44.6384 232.761C44.6694 232.81 44.7185 232.845 44.775 232.858C44.8315 232.87 44.8907 232.86 44.9396 232.829C44.9886 232.798 45.0232 232.749 45.0359 232.692C45.0486 232.636 45.0384 232.577 45.0074 232.528Z" fill="#263238"/>
<path d="M45.2336 235.269C43.818 232.257 41.077 229.335 37.7411 228.68C37.6131 228.68 37.5755 228.838 37.6659 228.906C40.3039 230.838 42.7273 233.047 44.8948 235.495C44.9096 235.517 44.9287 235.536 44.9509 235.551C44.9731 235.566 44.998 235.576 45.0242 235.581C45.0505 235.587 45.0775 235.587 45.1037 235.581C45.1299 235.576 45.1549 235.566 45.1771 235.551C45.1994 235.536 45.2185 235.517 45.2334 235.495C45.2483 235.473 45.2586 235.448 45.2639 235.422C45.2691 235.395 45.2691 235.368 45.2639 235.342C45.2588 235.316 45.2484 235.291 45.2336 235.269Z" fill="#263238"/>
<path d="M54.1788 227.52C54.8565 225.45 52.8159 223.981 51.0915 223.552C48.122 222.862 45.0232 222.969 42.1081 223.861C42.0403 223.861 42.0327 223.936 42.0553 223.989C42.004 224.026 41.9622 224.076 41.9334 224.133C41.9046 224.19 41.8896 224.252 41.8896 224.316C41.8896 224.38 41.9046 224.443 41.9334 224.5C41.9622 224.557 42.004 224.606 42.0553 224.644C44.4424 226.24 46.7918 228.236 49.5855 229.056C51.1969 229.531 53.5388 229.478 54.1788 227.52ZM46.1367 226.323C44.9469 225.57 43.7948 224.757 42.5749 224.064C44.3294 224.011 46.0764 223.883 47.846 224.004C48.693 224.044 49.536 224.144 50.3686 224.305C51.6487 224.576 55.4213 226.564 52.1909 228.213C50.3611 229.087 47.5523 227.227 46.1367 226.323Z" fill="#263238"/>
<path d="M37.944 216.647C38.5916 219.493 40.444 221.963 41.8973 224.44C41.9343 224.492 41.9829 224.534 42.0392 224.562C42.0955 224.591 42.1579 224.606 42.2211 224.606C42.2843 224.606 42.3467 224.591 42.403 224.562C42.4593 224.534 42.5079 224.492 42.5449 224.44C42.5558 224.45 42.5689 224.456 42.5831 224.459C42.5972 224.462 42.6119 224.461 42.6256 224.457C42.6393 224.452 42.6516 224.444 42.6612 224.433C42.6708 224.422 42.6774 224.409 42.6804 224.395C43.7462 221.54 44.0397 218.454 43.5313 215.449C43.2075 213.703 41.8672 211.579 39.7663 212.129C37.6654 212.678 37.56 214.99 37.944 216.647ZM38.9681 214.094C40.7828 210.969 42.5675 214.847 42.7331 216.15C42.8398 216.991 42.8901 217.839 42.8838 218.687C42.8473 220.45 42.7191 222.209 42.4997 223.959C41.8672 222.693 41.1292 221.504 40.444 220.269C39.6533 218.763 37.959 215.818 38.9681 214.094Z" fill="#263238"/>
<path d="M60.5799 154.102C58.7953 162.912 29.5859 190.585 29.5859 190.585L55.0603 219.953C55.0603 219.953 99.601 175.63 96.8977 156.18C94.5407 139.305 69.1868 71.2327 69.1868 71.2327H39.97C39.97 71.2327 62.3344 145.45 60.5799 154.102Z" fill="#263238"/>
<path d="M60.5799 154.102C58.7953 162.912 29.5859 190.585 29.5859 190.585L55.0603 219.953C55.0603 219.953 99.601 175.63 96.8977 156.18C94.5407 139.305 69.1868 71.2327 69.1868 71.2327H39.97C39.97 71.2327 62.3344 145.45 60.5799 154.102Z" fill="#37474F"/>
<path d="M57.9517 213.002C54.5706 208.785 55.6023 209.945 52.1685 205.773C50.4893 203.733 39.4427 190.314 37.5451 188.68C37.4999 188.68 37.4321 188.68 37.4547 188.755C38.7348 190.909 50.0074 204.132 51.7619 206.142C55.2709 210.246 54.3071 209.034 57.8613 213.1C57.8914 213.175 58.0194 213.1 57.9517 213.002Z" fill="#263238"/>
<path d="M64.2099 149.847C63.7882 147.648 63.3138 145.465 62.8469 143.273C61.8981 138.8 60.8941 134.343 59.8349 129.9C57.7264 121.085 55.4373 112.317 52.9674 103.597C50.4749 94.8471 47.8394 86.1122 44.8048 77.5353C44.4282 76.4736 44.0518 75.4194 43.6602 74.3652C43.6602 74.2823 43.502 74.32 43.5322 74.3652C46.1602 82.957 48.8635 91.5263 51.3258 100.163C53.7882 108.8 56.0548 117.422 58.1933 126.112C59.2701 130.48 60.2641 134.855 61.243 139.245C61.745 141.398 62.2144 143.554 62.6511 145.713C63.221 147.904 63.6312 150.134 63.8786 152.385C63.9495 154.523 63.3491 156.629 62.1617 158.409C61.0623 160.201 59.7746 161.888 58.5246 163.575C56.0322 166.963 39.5638 186.014 38.7957 186.737C38.7355 186.79 38.7957 186.88 38.8861 186.82C42.0789 183.959 54.9403 169.568 57.5081 166.187C58.7731 164.516 60.0081 162.814 61.2279 161.105C62.4398 159.549 63.4166 157.824 64.127 155.984C64.684 153.98 64.7125 151.866 64.2099 149.847Z" fill="#263238"/>
<path d="M64.1492 71.2327L58.8405 140.879C53.7803 117.038 39.9775 71.2327 39.9775 71.2327H64.1492Z" fill="#263238"/>
<path d="M115.625 262.641C113.908 263.206 64.7966 263.01 62.914 261.82C62.1987 261.376 61.8146 254.215 61.5963 245.562C61.536 243.687 54.6836 213.544 54.6836 213.544L86.6791 213.582L93.283 245.593C93.283 245.593 112.048 254.079 113.953 255.6C115.858 257.121 117.379 262.046 115.625 262.641Z" fill="#F7A9A0"/>
<path d="M115.625 262.641C113.908 263.206 64.7969 263.01 62.9144 261.812C62.199 261.368 61.815 254.215 61.5966 245.555C61.5966 244.9 60.7156 240.773 59.6162 235.683H91.2427L93.2758 245.585C93.2758 245.585 112.041 254.079 113.946 255.6C115.851 257.121 117.38 262.046 115.625 262.641Z" fill="#EBEBEB"/>
<path d="M115.776 262.709C114.051 263.281 64.6614 263.085 62.7864 261.888C62.0861 261.436 61.8677 254.538 61.0695 246.075C60.8813 244.026 60.2789 241.895 60.2412 239.742H92.3722L93.2909 245.54C93.2909 245.54 112.169 254.072 114.089 255.608C116.009 257.144 117.508 262.136 115.776 262.709Z" fill="#2B5AAC"/>
<path d="M115.076 260.728C106.792 260.495 73.3888 260.321 65.1885 260.728C65.1208 260.728 65.1208 260.773 65.1885 260.781C73.3888 261.187 106.8 261.09 115.076 260.871C115.249 260.864 115.249 260.736 115.076 260.728Z" fill="#263238"/>
<path d="M94.4655 243.733C91.2125 243.108 87.2291 243.597 84.7291 245.909C84.6312 245.999 84.7291 246.135 84.8646 246.097C87.9817 245.109 91.195 244.455 94.4505 244.147C94.4991 244.139 94.5436 244.115 94.5764 244.079C94.6091 244.042 94.628 243.995 94.6298 243.946C94.6316 243.897 94.6161 243.849 94.5861 243.81C94.5562 243.771 94.5135 243.743 94.4655 243.733Z" fill="#263238"/>
<path d="M96.8149 245.156C93.5619 244.538 89.5709 245.02 87.0709 247.332C86.973 247.422 87.1086 247.558 87.214 247.528C90.3298 246.533 93.5436 245.877 96.7998 245.57C96.8484 245.563 96.893 245.539 96.9257 245.502C96.9585 245.465 96.9774 245.418 96.9791 245.369C96.9809 245.32 96.9655 245.272 96.9355 245.233C96.9055 245.194 96.8628 245.167 96.8149 245.156Z" fill="#263238"/>
<path d="M99.156 246.587C95.903 245.962 91.9195 246.451 89.4195 248.763C89.3216 248.846 89.4195 248.989 89.5551 248.951C92.672 247.961 95.8854 247.305 99.1409 246.993C99.1948 246.995 99.2474 246.976 99.2869 246.939C99.3264 246.902 99.3498 246.851 99.3518 246.797C99.3538 246.743 99.3343 246.691 99.2975 246.651C99.2608 246.612 99.2099 246.589 99.156 246.587Z" fill="#263238"/>
<path d="M101.507 248.01C98.2537 247.392 94.2628 247.874 91.7628 250.186C91.6724 250.276 91.7628 250.412 91.9058 250.382C95.0217 249.387 98.2354 248.731 101.492 248.424C101.54 248.417 101.585 248.393 101.618 248.356C101.65 248.319 101.669 248.272 101.671 248.223C101.673 248.174 101.657 248.126 101.627 248.087C101.597 248.048 101.555 248.021 101.507 248.01Z" fill="#263238"/>
<path d="M100.513 236.225C99.24 234.456 96.8529 235.239 95.49 236.376C93.1857 238.371 91.446 240.937 90.4448 243.815C90.4402 243.828 90.4385 243.842 90.44 243.856C90.4414 243.869 90.4459 243.882 90.4532 243.894C90.4604 243.906 90.4702 243.915 90.4818 243.923C90.4934 243.93 90.5065 243.934 90.5201 243.936C90.5179 244 90.5307 244.063 90.5573 244.12C90.584 244.178 90.6238 244.229 90.6736 244.268C90.7234 244.308 90.7818 244.335 90.8441 244.348C90.9063 244.361 90.9708 244.359 91.0322 244.343C93.7204 243.356 96.7249 242.641 99.0367 240.856C100.385 239.817 101.717 237.897 100.513 236.225ZM94.7897 242.016C93.4794 242.528 92.1466 242.98 90.859 243.522C91.7894 242.046 92.7948 240.618 93.871 239.245C94.4048 238.586 94.9835 237.964 95.6029 237.385C96.5743 236.504 100.422 234.644 99.8349 238.213C99.5487 240.209 96.371 241.398 94.7897 242.016Z" fill="#263238"/>
<path d="M82.169 242.934C84.8498 244.087 87.9371 244.041 90.791 244.335C90.8545 244.334 90.9168 244.318 90.9733 244.289C91.0297 244.26 91.0788 244.219 91.1166 244.168C91.1545 244.117 91.1801 244.058 91.1915 243.996C91.203 243.933 91.1999 243.869 91.1826 243.808C91.1954 243.804 91.2072 243.798 91.217 243.789C91.2267 243.78 91.2341 243.768 91.2385 243.756C91.243 243.743 91.2443 243.73 91.2424 243.716C91.2406 243.703 91.2355 243.691 91.2278 243.68C89.5481 241.134 87.2258 239.077 84.4958 237.716C82.8919 236.963 80.3844 236.782 79.5862 238.808C78.788 240.834 80.6028 242.257 82.169 242.934ZM80.7082 240.608C79.2474 237.287 83.4341 238.145 84.5937 238.755C85.3392 239.163 86.0562 239.621 86.7398 240.126C88.1314 241.19 89.4684 242.323 90.7459 243.522C89.3528 243.288 87.9522 243.183 86.5516 243.01C84.8799 242.799 81.5064 242.468 80.7082 240.608Z" fill="#263238"/>
<path d="M68.8857 71.2326C67.7417 76.0445 66.9016 80.9236 66.3707 85.8411C65.7607 91.9631 65.0002 97.3697 64.1794 98.0474C63.3586 98.7251 58.6372 101.775 57.086 102.724C57.086 102.724 71.4911 146.398 75.2035 160.939C80.5951 182.023 91.6418 233.394 91.6418 233.394H57.2517C57.2517 233.394 48.6598 185.081 44.0891 164.99C40.1659 147.769 25.1583 96.1046 25.1583 96.1046C23.5697 92.1173 22.8558 87.8353 23.0649 83.5482C23.2741 79.2611 24.4014 75.069 26.3707 71.2552C26.3707 71.2552 68.8857 71.2101 68.8857 71.2326Z" fill="#37474F"/>
<path d="M88.2382 226.715C83.2005 226.677 84.6463 226.609 79.6086 226.639C77.1463 226.639 60.949 226.752 58.6523 227.197C58.6383 227.197 58.6249 227.202 58.6151 227.212C58.6052 227.222 58.5996 227.235 58.5996 227.249C58.5996 227.263 58.6052 227.277 58.6151 227.286C58.6249 227.296 58.6383 227.302 58.6523 227.302C60.9641 227.678 77.1538 227.302 79.6162 227.212C84.6538 227.084 83.208 227.061 88.2382 226.873C88.3285 226.865 88.3285 226.715 88.2382 226.715Z" fill="#263238"/>
<path d="M66.6193 96.3004C63.2797 98.139 60.1052 100.263 57.1314 102.648C57.0184 102.739 57.1314 102.927 57.2594 102.844C60.4748 100.834 63.7654 98.8682 66.8678 96.6769C66.9142 96.6425 66.9456 96.5916 66.9556 96.5348C66.9657 96.4779 66.9535 96.4193 66.9217 96.3711C66.8899 96.3229 66.8408 96.2887 66.7846 96.2756C66.7283 96.2624 66.6692 96.2713 66.6193 96.3004Z" fill="#263238"/>
<path d="M63.991 72.5429C63.991 72.4299 63.75 72.4299 63.7726 72.5429C64.3705 76.3881 64.7751 80.261 64.985 84.1468C65.0979 85.9465 65.1958 95.9691 61.9729 95.7356C61.4383 95.6905 61.0994 95.2311 60.8961 94.4631C60.7516 93.4452 60.7313 92.4135 60.8359 91.3908C60.866 89.2873 60.8108 87.1865 60.6702 85.0881C60.4293 81.1714 59.7833 77.2902 58.7425 73.5067C58.74 73.4939 58.735 73.4816 58.7278 73.4707C58.7206 73.4598 58.7114 73.4504 58.7005 73.443C58.6897 73.4357 58.6775 73.4306 58.6647 73.4279C58.6518 73.4253 58.6386 73.4252 58.6258 73.4277C58.6129 73.4301 58.6007 73.4351 58.5898 73.4423C58.5788 73.4495 58.5694 73.4588 58.5621 73.4697C58.5547 73.4805 58.5496 73.4927 58.547 73.5055C58.5443 73.5183 58.5442 73.5315 58.5467 73.5444C59.4876 78.8879 60.0238 84.2948 60.1506 89.7191C60.1506 92.332 59.4729 96.3682 62.1988 96.3456C64.9247 96.323 65.738 89.6212 65.7982 87.8064C65.8604 82.6617 65.2529 77.5308 63.991 72.5429Z" fill="#263238"/>
<path d="M62.1307 95.9992C61.9566 96.7026 61.8308 97.4172 61.7542 98.1378C61.6444 98.7048 61.6444 99.2876 61.7542 99.8546C61.7639 99.8754 61.7793 99.893 61.7986 99.9053C61.818 99.9176 61.8404 99.9242 61.8634 99.9242C61.8863 99.9242 61.9087 99.9176 61.9281 99.9053C61.9474 99.893 61.9629 99.8754 61.9726 99.8546C62.2157 99.3024 62.3707 98.7154 62.4319 98.1152C62.575 97.4525 62.7256 96.7899 62.8385 96.1197C62.8545 96.0258 62.8325 95.9295 62.7775 95.8518C62.7224 95.7741 62.6387 95.7215 62.5448 95.7055C62.451 95.6896 62.3546 95.7115 62.2769 95.7666C62.1993 95.8217 62.1467 95.9053 62.1307 95.9992Z" fill="#263238"/>
<path d="M54.1717 214.764C54.0738 213.793 53.9533 212.829 53.8253 211.865C53.5768 210.013 50.7681 194.975 49.3072 187.648C48.4714 183.507 47.4924 179.418 46.4683 175.321C46.393 175.043 46.0241 175.178 46.0693 175.457C46.6942 179.222 47.2967 182.95 48.0045 186.677C48.7123 190.404 52.6958 209.546 53.0723 211.624C53.2605 212.663 53.4563 213.703 53.6672 214.734C53.878 215.766 54.1641 216.775 54.3223 217.814C54.3223 217.912 54.4729 217.859 54.4654 217.769C54.2997 216.775 54.2771 215.758 54.1717 214.764Z" fill="#263238"/>
<path d="M78.8248 173.989C77.6802 168.288 76.1366 162.656 74.5854 157.046C71.4604 145.751 67.8083 134.644 64.111 123.529C63.0517 120.332 61.9925 117.129 60.9333 113.921C60.4061 112.325 57.8158 103.687 57.492 102.867C57.492 102.849 57.4848 102.831 57.4721 102.819C57.4594 102.806 57.4422 102.799 57.4242 102.799C57.4062 102.799 57.389 102.806 57.3763 102.819C57.3636 102.831 57.3564 102.849 57.3564 102.867C58.1095 105.811 59.1185 110.103 59.9769 113.01C60.8353 115.916 61.754 118.748 62.6501 121.609C64.4046 127.242 66.1893 132.859 67.9212 138.507C71.2872 149.659 74.6381 160.818 77.3715 172.151C78.1245 175.321 78.8775 178.492 79.6305 181.684C80.3835 184.877 80.9257 188.078 81.5959 191.263C81.5959 191.353 81.7616 191.331 81.754 191.263C81.1215 185.465 79.9694 179.712 78.8248 173.989Z" fill="#263238"/>
<path d="M57.4472 203.838C55.5572 192.95 53.2906 182.129 50.7755 171.368C48.2605 160.608 45.4442 149.817 42.3418 139.154C39.2394 128.492 35.8132 117.927 32.131 107.46C30.2756 102.538 28.7165 97.5086 27.4623 92.3998C26.3253 87.317 25.753 81.82 26.9352 76.692C27.2293 75.389 27.622 74.1102 28.1099 72.8667C28.1476 72.7839 28.0195 72.7085 27.9819 72.7989C23.8478 82.4375 26.5286 92.9721 29.6762 102.475C31.4081 107.678 33.2454 112.844 34.9472 118.055C36.6942 123.411 38.3684 128.785 39.9698 134.177C43.14 144.87 46.0843 155.63 48.7274 166.466C51.3704 177.302 53.7123 188.213 55.7831 199.169C57.8539 210.126 57.7485 209.267 59.5482 220.314C59.7741 221.752 59.9548 223.198 60.143 224.644C60.143 224.719 60.2861 224.719 60.271 224.644C58.9156 213.665 59.3373 214.704 57.4472 203.838Z" fill="#263238"/>
<path d="M72.1529 30.4872C72.1702 30.5649 72.1582 30.6462 72.1193 30.7157C72.0804 30.7851 72.0173 30.8378 71.942 30.8637L70.6318 31.1423C69.0053 28.2282 67.3788 25.9541 67.8532 26.8652C68.5795 28.2869 69.0873 29.8101 69.3592 31.3833L66.7688 31.8878C64.9616 26.6167 63.0715 22.7613 63.3276 23.9962C64.3743 28.9586 64.314 30.6152 64.2086 32.3848C57.9511 33.5745 49.7282 35.058 43.7643 35.9917C42.6423 33.0926 41.573 29.93 41.5053 30.1709C40.933 31.9857 41.0685 34.4781 41.317 36.3757C39.4194 36.6619 37.8908 36.8577 36.9571 36.9254C36.9571 36.9254 36.1514 34.4631 35.9707 33.6423C35.4912 31.5375 35.4095 29.3615 35.7297 27.2266C36.1498 25.0762 36.796 22.9762 37.6574 20.9616C37.6574 20.9616 37.6574 20.9239 37.6574 20.9164C38.1632 19.5814 38.5095 18.1912 38.689 16.7748C38.8005 15.7521 38.8207 14.7214 38.7492 13.695C38.5008 9.92996 40.1273 6.44351 43.4706 4.96008C49.1709 -2.17847 56.1363 -0.521846 58.802 3.95105C59.058 4.38779 59.3215 4.89231 59.555 5.45707C60.5414 7.50526 61.5354 10.201 62.4014 12.2718C62.7246 13.088 63.1046 13.8806 63.5384 14.6438C65.82 18.2809 69.939 19.93 72.1529 30.4872Z" fill="#263238"/>
<path d="M42.0785 6.17242C41.0456 6.83918 40.2039 7.76323 39.6362 8.85375C39.0685 9.94427 38.7943 11.1637 38.8405 12.3923C38.9629 13.9755 38.8768 15.5679 38.5845 17.1287C38.1213 18.7003 37.4286 20.1948 36.5288 21.564C35.159 23.6536 34.4674 26.115 34.5484 28.6122C34.6244 31.481 35.299 34.3023 36.5288 36.8953C35.4215 34.1252 34.8936 31.1575 34.9776 28.1754C35.0529 25.1634 36.4836 23.0851 37.8315 20.6453C38.9405 18.7155 39.5101 16.523 39.4806 14.2974C39.3295 12.9358 39.3676 11.5598 39.5936 10.2086C40.1122 8.7128 41.0604 7.40317 42.3195 6.4435C42.3554 6.41155 42.3772 6.36663 42.38 6.31861C42.3828 6.2706 42.3665 6.22343 42.3345 6.18748C42.3026 6.15154 42.2576 6.12976 42.2096 6.12693C42.1616 6.12411 42.1144 6.14047 42.0785 6.17242Z" fill="#263238"/>
<path d="M68.0275 18.2507C66.1148 16.3757 64.1796 14.8245 62.8618 12.3547C61.657 10.0956 60.8061 7.66339 59.5937 5.41188H59.541C61.4913 9.43296 62.3573 13.6498 65.5651 16.7974C67.3196 18.5143 69.0516 20.0881 70.3618 22.2568C71.6949 24.5365 72.584 27.0482 72.9823 29.6589C72.9787 29.6691 72.9777 29.68 72.9792 29.6907C72.9807 29.7014 72.9848 29.7116 72.991 29.7204C72.9973 29.7292 73.0056 29.7364 73.0152 29.7414C73.0248 29.7463 73.0355 29.7489 73.0463 29.7489C73.0571 29.7489 73.0677 29.7463 73.0774 29.7414C73.087 29.7364 73.0953 29.7292 73.1015 29.7204C73.1078 29.7116 73.1119 29.7014 73.1134 29.6907C73.1149 29.68 73.1138 29.6691 73.1103 29.6589C72.9053 25.3536 71.0914 21.2822 68.0275 18.2507Z" fill="#263238"/>
<path d="M56.7775 37.076C66.6871 42.445 83.2233 47.9269 92.523 47.8968C96.529 47.8968 112.011 40.7206 119.729 35.442C122.613 33.4691 109.466 18.4013 106.1 20.1935C103.841 21.4134 92.2519 31.067 90.2414 31.4435C86.5441 32.1438 70.1811 29.9375 59.8272 29.9977C54.0516 30.0354 50.6179 33.7402 56.7775 37.076Z" fill="#F7A9A0"/>
<path d="M74.5937 29.817L75.919 48.5745C75.919 48.5745 56.9733 40.2914 52.0862 36.2778C46.5968 31.7598 50.1058 29.945 56.8227 29.2296C63.5395 28.5143 74.5937 29.817 74.5937 29.817Z" fill="#2B5AAC"/>
<path d="M71.2498 30.7206C71.0917 33.1303 71.6489 40.4269 71.7242 41.6318C71.7694 42.2718 72.048 44.8019 72.0856 45.4345C72.0856 45.5173 72.2137 45.4947 72.2061 45.4345C72.1384 44.2221 72.2061 43.0022 72.1308 41.7824C72.0555 40.5625 71.7769 33.1303 71.3401 30.7357C71.3421 30.7237 71.3393 30.7114 71.3322 30.7015C71.3252 30.6916 71.3145 30.685 71.3025 30.683C71.2905 30.681 71.2782 30.6838 71.2684 30.6909C71.2585 30.6979 71.2518 30.7086 71.2498 30.7206Z" fill="#263238"/>
<path opacity="0.1" d="M75.9187 48.5745C75.9187 48.5745 56.973 40.2914 52.0859 36.2778C49.8269 34.4405 49.0738 33.0549 49.4579 32.0007L75.1205 37.2718L75.9187 48.5745Z" fill="black"/>
<path d="M26.1592 71.9254L69.8339 72.6785L66.4077 59.5911C67.5592 57.9549 68.3375 56.0859 68.6875 54.1159C69.0375 52.146 68.9507 50.1232 68.4333 48.1905C67.3866 44.3426 62.4092 38.567 59.3971 34.8998C51.9649 25.9767 45.5191 30.0128 43.4559 32.3095C35.5342 41.0369 26.1592 71.9254 26.1592 71.9254Z" fill="#2B5AAC"/>
<path d="M54.7443 58.7929C56.6115 58.6173 58.4895 58.5846 60.3617 58.695C61.2954 58.7628 62.2141 58.8682 63.1403 58.9962C63.5997 59.064 64.059 59.1092 64.5259 59.1619C65.0087 59.2183 65.4964 59.2183 65.9792 59.1619C66.0168 59.1619 66.0319 59.2146 65.9792 59.2297C65.5321 59.3293 65.0795 59.4022 64.6238 59.448C64.1774 59.4744 63.7298 59.4744 63.2834 59.448C62.3421 59.3878 61.4009 59.2899 60.4596 59.2221C58.5545 59.0791 56.6494 58.9435 54.7443 58.9435C54.7243 58.9435 54.7051 58.9356 54.691 58.9215C54.6769 58.9073 54.6689 58.8882 54.6689 58.8682C54.6689 58.8482 54.6769 58.8291 54.691 58.815C54.7051 58.8008 54.7243 58.7929 54.7443 58.7929Z" fill="#263238"/>
<path d="M50.497 61.2477C51.9826 60.8139 53.4909 60.4619 55.0151 60.1935C55.7681 60.0655 56.5211 59.9827 57.3193 59.9224C57.6883 59.8848 58.0723 59.8622 58.4262 59.8471C58.7801 59.8321 59.2395 59.8471 59.6461 59.8471C59.6913 59.8471 59.6988 59.9149 59.6461 59.9149C59.2696 59.9525 58.8931 60.058 58.5091 60.1182L57.3645 60.2914C56.6115 60.4119 55.8585 60.5399 55.1054 60.6528C53.5994 60.8787 52.0934 61.1122 50.5347 61.4059C50.5137 61.4109 50.4916 61.4073 50.4733 61.396C50.4549 61.3847 50.4418 61.3666 50.4368 61.3456C50.4318 61.3246 50.4353 61.3025 50.4466 61.2842C50.4579 61.2658 50.476 61.2527 50.497 61.2477Z" fill="#263238"/>
<path d="M47.1907 32.189C47.4618 32.942 51.7765 37.5052 55.2931 36.9028C56.4376 36.6995 55.6319 30.4043 55.6319 30.4043L55.6846 29.9299L56.3322 23.2357L48.0491 19.2673L46.8593 18.7552C46.8593 18.7552 46.8066 20.6001 46.7539 22.8968C46.7539 23.0022 46.7539 23.1077 46.7539 23.2206C46.7539 23.3336 46.7539 23.4766 46.7539 23.5971C46.7539 23.936 46.7539 24.2899 46.7539 24.6363C46.7539 24.9827 46.7539 25.1634 46.7539 25.442C46.7539 25.7206 46.7539 25.9917 46.7539 26.2703C46.7641 28.2509 46.91 30.2284 47.1907 32.189Z" fill="#F7A9A0"/>
<path d="M46.7773 22.8968C47.6631 24.6451 48.9187 26.1798 50.457 27.3943C51.9952 28.6088 53.7793 29.474 55.6855 29.9299L56.3331 23.2357L48.0499 19.2673L46.8602 18.7552C46.8602 18.7552 46.8301 20.6001 46.7773 22.8968Z" fill="#263238"/>
<path d="M64.473 11.9781C68.2381 23.1679 61.9429 26.6845 59.5258 27.4902C57.3345 28.2432 49.7743 30.4345 44.8872 19.689C40.0002 8.9435 44.0212 3.65735 48.9459 1.71458C53.8706 -0.228192 60.7155 0.750728 64.473 11.9781Z" fill="#F7A9A0"/>
<path d="M61.4609 12.0459C61.19 12.0609 60.9185 12.0609 60.6476 12.0459C60.3634 12.1021 60.0686 12.0596 59.8118 11.9254C59.7377 11.869 59.6848 11.7893 59.6615 11.6992C59.6383 11.609 59.6461 11.5136 59.6838 11.4284C59.781 11.2721 59.918 11.1445 60.0807 11.0585C60.2434 10.9725 60.4261 10.9312 60.61 10.939C60.9911 10.9201 61.3652 11.0466 61.6567 11.2929C61.7121 11.3486 61.752 11.4177 61.7725 11.4936C61.793 11.5694 61.7934 11.6493 61.7737 11.7253C61.7539 11.8013 61.7147 11.8709 61.6598 11.9271C61.605 11.9833 61.5364 12.0243 61.4609 12.0459Z" fill="#263238"/>
<path d="M53.3739 13.8833C53.6329 13.7804 53.8845 13.6596 54.1269 13.5218C54.4028 13.4301 54.641 13.2502 54.8046 13.0098C54.8396 12.9242 54.8461 12.8296 54.823 12.74C54.8 12.6505 54.7486 12.5708 54.6766 12.5128C54.5168 12.4188 54.3348 12.3692 54.1495 12.3692C53.9641 12.3692 53.7821 12.4188 53.6223 12.5128C53.273 12.6576 52.989 12.9255 52.8242 13.2658C52.7839 13.3454 52.7686 13.4352 52.7801 13.5237C52.7916 13.6121 52.8295 13.695 52.8888 13.7617C52.9481 13.8283 53.0261 13.8755 53.1126 13.8972C53.1991 13.9189 53.2901 13.914 53.3739 13.8833Z" fill="#263238"/>
<path d="M55.6324 15.6453C55.6324 15.6453 55.5797 15.698 55.5872 15.7357C55.8357 16.4887 55.9863 17.4149 55.3613 17.8742C55.3613 17.8742 55.3613 17.9269 55.3613 17.9119C56.2273 17.5504 56.0164 16.3306 55.6324 15.6453Z" fill="#263238"/>
<path d="M54.7442 15.058C53.4717 15.314 54.0816 17.8366 55.2563 17.5956C56.431 17.3546 55.806 14.817 54.7442 15.058Z" fill="#263238"/>
<path d="M54.2774 15.2914C54.0891 15.4872 53.9385 15.7884 53.675 15.8787C53.4114 15.9691 53.0801 15.7733 52.8165 15.57C52.922 16.0595 53.2307 16.5113 53.7653 16.4586C54.3 16.4059 54.5183 15.8938 54.5183 15.3818C54.4656 15.3215 54.3527 15.2086 54.2774 15.2914Z" fill="#263238"/>
<path d="M60.2559 14.1092C60.2559 14.1092 60.3236 14.1092 60.3311 14.1619C60.4893 14.9149 60.8056 15.826 61.5736 15.9239V15.9691C60.6851 16.0444 60.2784 14.8772 60.2559 14.1092Z" fill="#263238"/>
<path d="M60.7606 13.1302C61.9955 12.7387 62.6883 15.2387 61.5136 15.6001C60.3389 15.9616 59.729 13.454 60.7606 13.1302Z" fill="#263238"/>
<path d="M61.3322 13.1453C61.5656 13.2281 61.8216 13.4089 62.0852 13.3637C62.3487 13.3185 62.4918 12.9796 62.5972 12.6709C62.5972 12.6709 62.5972 12.6709 62.6424 12.6709C62.7855 13.1453 62.7704 13.6875 62.3336 13.9059C61.8969 14.1242 61.5204 13.7778 61.2719 13.3336C61.2041 13.2658 61.2343 13.1152 61.3322 13.1453Z" fill="#263238"/>
<path d="M60.1499 18.4917C60.1499 18.4917 60.6017 19.6137 60.7447 20.1634C60.7447 20.2161 60.6318 20.2688 60.4435 20.329C59.9939 20.5366 59.4955 20.6155 59.0037 20.557C58.5119 20.4985 58.0459 20.3049 57.6574 19.9977C57.6047 19.9977 57.6574 19.8848 57.7176 19.9074C58.5408 20.2065 59.4385 20.2329 60.2779 19.9827C60.2779 19.817 59.427 18.0851 59.5249 18.055C59.962 17.9934 60.4055 17.9934 60.8426 18.055C59.9541 15.6905 58.6966 13.4842 57.8306 11.1197C57.8206 11.1017 57.8182 11.0805 57.8238 11.0608C57.8295 11.041 57.8427 11.0243 57.8607 11.0143C57.8787 11.0043 57.8999 11.0019 57.9196 11.0075C57.9394 11.0132 57.9561 11.0264 57.9661 11.0444C59.3865 13.3645 60.5696 15.8217 61.4978 18.3787C61.5956 18.6498 60.3607 18.5293 60.1499 18.4917Z" fill="#263238"/>
<path d="M60.3083 20.1408C60.1199 20.668 59.7982 21.1376 59.3746 21.5037C59.1394 21.696 58.8495 21.8093 58.5463 21.8275C57.8761 21.8275 57.6803 21.3004 57.6427 20.7884C57.6216 20.5118 57.6343 20.2336 57.6803 19.9601C58.5149 20.2978 59.4353 20.3611 60.3083 20.1408Z" fill="#263238"/>
<path d="M59.3979 21.5037C59.1627 21.696 58.8729 21.8093 58.5696 21.8275C57.8994 21.8275 57.7037 21.3004 57.666 20.7884C57.9931 20.6944 58.3423 20.714 58.6568 20.8439C58.9713 20.9738 59.2325 21.2064 59.3979 21.5037Z" fill="#FF9ABB"/>
<path d="M45.0449 20.329C45.7287 19.8323 46.272 19.1667 46.6218 18.3973C46.9715 17.6278 47.1158 16.7808 47.0404 15.939C48.9218 14.6842 50.4346 12.9504 51.4229 10.9164C51.3852 11.1724 51.1292 13.0098 50.9711 13.9284C58.1247 11.2402 59.4048 5.17092 59.4048 5.17092C61.05 6.22149 62.4373 7.62936 63.4635 9.28989C63.4635 9.28989 62.7105 4.77182 59.8416 2.12121C58.8992 1.19792 57.7278 0.542408 56.448 0.222121C55.1682 -0.0981658 53.8261 -0.0716545 52.5599 0.298926C50.6525 0.181885 48.7489 0.581816 47.0498 1.45653C45.3507 2.33125 43.9192 3.64832 42.9063 5.2688C39.0208 11.2929 45.0449 20.329 45.0449 20.329Z" fill="#263238"/>
<path d="M56.3853 11.7071C55.3085 12.5659 54.1108 13.2612 52.8311 13.7703C54.8071 12.8272 56.485 11.3577 57.6805 9.52332C58.1814 8.73735 58.5835 7.89263 58.8777 7.00826C59.2383 6.04661 59.4022 5.02236 59.3597 3.99621C59.3597 3.92091 59.4726 3.90585 59.4801 3.99621C59.6238 4.99737 59.5983 6.01553 59.4049 7.00826C59.175 7.98816 58.7666 8.91733 58.2 9.74922C57.6858 10.4803 57.0753 11.1389 56.3853 11.7071Z" fill="#263238"/>
<path d="M46.9579 18.8908C46.9579 18.8908 43.5844 15.8787 42.1763 17.1965C40.7681 18.5143 43.9007 23.2206 45.9865 23.4691C46.2511 23.5186 46.5229 23.5143 46.7857 23.4565C47.0485 23.3986 47.297 23.2884 47.5163 23.1323C47.7356 22.9763 47.9212 22.7777 48.062 22.5483C48.2028 22.319 48.296 22.0636 48.3359 21.7974L46.9579 18.8908Z" fill="#F7A9A0"/>
<path d="M43.1094 18.5293V18.582C44.5777 18.8079 45.5868 19.8772 46.385 21.0444C46.2754 20.9289 46.142 20.8386 45.9941 20.7798C45.8462 20.7209 45.6872 20.6949 45.5283 20.7035C45.3693 20.7121 45.2141 20.7551 45.0734 20.8295C44.9327 20.904 44.8098 21.0081 44.7133 21.1348C44.7133 21.1724 44.7133 21.2176 44.766 21.2025C44.9823 21.0681 45.2355 21.0051 45.4897 21.0227C45.7438 21.0403 45.9859 21.1374 46.1817 21.3004C46.5092 21.5719 46.807 21.8773 47.0702 22.2116C47.1606 22.317 47.3564 22.2116 47.2811 22.0685C46.882 20.329 44.9844 18.2582 43.1094 18.5293Z" fill="#263238"/>
<path d="M139.164 23.7025L156.747 83.0323C156.982 83.8205 157.059 84.6471 156.974 85.4651C156.889 86.2831 156.644 87.0764 156.252 87.7995C155.861 88.5226 155.33 89.1615 154.692 89.6795C154.053 90.1975 153.318 90.5845 152.53 90.8185L58.4035 118.68C56.8158 119.143 55.1096 118.958 53.6577 118.166C52.2058 117.375 51.1263 116.041 50.655 114.456L33.0421 55.1558C32.6028 53.674 32.7702 52.0783 33.5073 50.7199C34.2445 49.3614 35.491 48.3514 36.9728 47.9119L131.897 19.7718C132.633 19.552 133.404 19.4793 134.167 19.5579C134.931 19.6365 135.671 19.8649 136.346 20.23C137.021 20.5951 137.617 21.0898 138.101 21.6856C138.584 22.2815 138.946 22.9669 139.164 23.7025Z" fill="#2B5AAC"/>
<path opacity="0.3" d="M139.164 23.7025L156.747 83.0323C156.982 83.8205 157.059 84.6471 156.974 85.4651C156.889 86.2831 156.644 87.0764 156.252 87.7995C155.861 88.5226 155.33 89.1615 154.692 89.6795C154.053 90.1975 153.318 90.5845 152.53 90.8185L58.4035 118.68C56.8158 119.143 55.1096 118.958 53.6577 118.166C52.2058 117.375 51.1263 116.041 50.655 114.456L33.0421 55.1558C32.6028 53.674 32.7702 52.0783 33.5073 50.7199C34.2445 49.3614 35.491 48.3514 36.9728 47.9119L131.897 19.7718C132.633 19.552 133.404 19.4793 134.167 19.5579C134.931 19.6365 135.671 19.8649 136.346 20.23C137.021 20.5951 137.617 21.0898 138.101 21.6856C138.584 22.2815 138.946 22.9669 139.164 23.7025Z" fill="black"/>
<path d="M60.2266 52.1014L46.3721 56.208C44.6974 56.7043 43.7422 58.4643 44.2386 60.139L46.5198 67.8351C47.0162 69.5098 48.7761 70.465 50.4508 69.9686L64.3053 65.8621C65.98 65.3657 66.9352 63.6057 66.4388 61.9311L64.1576 54.2349C63.6613 52.5602 61.9013 51.6051 60.2266 52.1014Z" fill="#2B5AAC"/>
<path d="M50.4146 83.6423L49.7369 84.3576C49.7152 84.3897 49.6834 84.4135 49.6465 84.4254C49.6111 84.436 49.5734 84.4366 49.5376 84.4273C49.5017 84.418 49.4691 84.3992 49.4432 84.3727C49.4224 84.3543 49.4057 84.3317 49.3943 84.3064C49.3829 84.2811 49.377 84.2536 49.377 84.2259C49.377 84.1981 49.3829 84.1706 49.3943 84.1453C49.4057 84.12 49.4224 84.0974 49.4432 84.079L50.3544 83.0775C50.3937 83.0393 50.4464 83.018 50.5012 83.018C50.556 83.018 50.6087 83.0393 50.6481 83.0775C50.6852 83.1168 50.7089 83.1669 50.7158 83.2206L52.2896 88.4917C52.2977 88.5174 52.3007 88.5444 52.2982 88.5713C52.2958 88.5981 52.288 88.6242 52.2754 88.6481C52.2628 88.6719 52.2456 88.693 52.2248 88.7101C52.2039 88.7272 52.1799 88.74 52.1541 88.7477C52.1011 88.7643 52.0438 88.7594 51.9945 88.734C51.9451 88.7087 51.9078 88.6649 51.8905 88.6121L50.4146 83.6423Z" fill="#F8F8F8"/>
<path d="M53.6592 87.942L55.6396 84.704C55.7516 84.5318 55.8272 84.3385 55.8617 84.1359C55.8962 83.9334 55.8889 83.7259 55.8402 83.5263C55.7915 83.3267 55.7025 83.1391 55.5787 82.9752C55.4548 82.8112 55.2987 82.6744 55.12 82.573C54.9373 82.4601 54.7326 82.3876 54.5196 82.3604C54.3066 82.3331 54.0903 82.3517 53.885 82.4149C53.5118 82.5202 53.1919 82.7622 52.989 83.0926L52.7857 83.4315C52.7545 83.4723 52.7094 83.5004 52.659 83.5103C52.6086 83.5203 52.5563 83.5115 52.5119 83.4856C52.4675 83.4597 52.434 83.4185 52.4179 83.3697C52.4017 83.3209 52.404 83.2679 52.4242 83.2206L52.6275 82.8742C52.8866 82.4551 53.2916 82.1466 53.7646 82.0083C54.0256 81.9298 54.3004 81.908 54.5705 81.9443C54.8406 81.9807 55.0999 82.0744 55.3308 82.2191C55.7513 82.468 56.0631 82.8658 56.2043 83.3336C56.2825 83.598 56.3048 83.8758 56.2698 84.1494C56.2348 84.4229 56.1432 84.6862 56.001 84.9224L54.3067 87.6935L57.0402 86.8878C57.0664 86.8798 57.0939 86.8772 57.1212 86.8801C57.1484 86.883 57.1748 86.8914 57.1987 86.9048C57.2226 86.9181 57.2435 86.9362 57.2603 86.9579C57.2771 86.9795 57.2893 87.0043 57.2962 87.0309C57.3106 87.0828 57.3046 87.1382 57.2793 87.1858C57.2541 87.2334 57.2117 87.2696 57.1607 87.2869L53.9378 88.2432C53.9129 88.2585 53.8842 88.2666 53.8549 88.2666C53.8257 88.2666 53.797 88.2585 53.7721 88.2432C53.7441 88.2319 53.7187 88.2148 53.6976 88.1932C53.6765 88.1715 53.6601 88.1457 53.6495 88.1174C53.6388 88.0891 53.6342 88.0589 53.6359 88.0287C53.6375 87.9985 53.6455 87.969 53.6592 87.942Z" fill="#F8F8F8"/>
<path d="M60.5275 80.3968L59.4883 82.3772C59.9571 82.3341 60.4262 82.4556 60.8151 82.7208C61.204 82.9861 61.4884 83.3784 61.6194 83.8305C61.7331 84.2182 61.7295 84.6309 61.6092 85.0166C61.4889 85.4023 61.2573 85.7438 60.9434 85.9982C60.6294 86.2525 60.2473 86.4084 59.845 86.4461C59.4428 86.4838 59.0383 86.4017 58.6826 86.2101C58.6574 86.1967 58.6352 86.1784 58.6173 86.1562C58.5993 86.134 58.5861 86.1084 58.5784 86.0809C58.5706 86.0535 58.5685 86.0248 58.5722 85.9965C58.5759 85.9682 58.5853 85.9409 58.5998 85.9164C58.6124 85.8914 58.63 85.8693 58.6515 85.8515C58.673 85.8336 58.698 85.8204 58.7248 85.8126C58.7517 85.8048 58.7798 85.8027 58.8076 85.8063C58.8353 85.8099 58.862 85.8192 58.8859 85.8336C59.2611 86.0321 59.6991 86.0753 60.1058 85.954C60.5153 85.839 60.8638 85.5689 61.0772 85.201C61.2784 84.8215 61.3242 84.3788 61.2052 83.9661C61.0882 83.5615 60.818 83.2184 60.4522 83.0098C60.2663 82.908 60.0621 82.8443 59.8514 82.8223C59.6406 82.8004 59.4276 82.8206 59.2248 82.8817C59.1956 82.8963 59.1633 82.9039 59.1307 82.9039C59.098 82.9039 59.0658 82.8963 59.0365 82.8817C58.9853 82.8531 58.9472 82.8057 58.9303 82.7494C58.9135 82.6932 58.9192 82.6326 58.9462 82.5805L59.9477 80.6829L57.7338 81.3381C57.6789 81.3527 57.6206 81.3461 57.5703 81.3195C57.5201 81.293 57.4817 81.2486 57.4627 81.195C57.4547 81.1673 57.4522 81.1383 57.4555 81.1096C57.4587 81.081 57.4676 81.0533 57.4816 81.0281C57.4956 81.0029 57.5144 80.9807 57.537 80.9628C57.5597 80.9449 57.5856 80.9317 57.6134 80.9239L60.3091 80.1257C60.364 80.1092 60.4233 80.1149 60.474 80.1417C60.5247 80.1685 60.5629 80.2141 60.5802 80.2688C60.5876 80.301 60.5876 80.3345 60.5802 80.3667C60.5657 80.3813 60.5475 80.3918 60.5275 80.3968Z" fill="#F8F8F8"/>
<path d="M66.6267 83.1905L63.5017 84.1167C63.4578 84.1322 63.41 84.1322 63.3661 84.1167C63.3398 84.1077 63.3157 84.0933 63.2955 84.0743C63.2752 84.0554 63.2591 84.0323 63.2485 84.0066C63.2378 83.981 63.2327 83.9534 63.2335 83.9256C63.2343 83.8978 63.241 83.8706 63.2532 83.8456L65.3616 78.695C65.3723 78.6691 65.388 78.6457 65.4079 78.6259C65.4277 78.6062 65.4513 78.5907 65.4773 78.5801C65.5032 78.5696 65.5309 78.5644 65.5589 78.5647C65.5869 78.565 65.6146 78.5709 65.6402 78.5821C65.677 78.6014 65.7081 78.6299 65.7306 78.6649L66.8978 82.6257L67.2893 82.5128C67.3423 82.4962 67.3996 82.5011 67.4489 82.5264C67.4983 82.5518 67.5356 82.5956 67.5529 82.6483C67.5672 82.7022 67.5603 82.7595 67.5337 82.8085C67.5071 82.8575 67.4628 82.8945 67.4098 82.9119L67.0182 83.0248L67.3119 84.0113C67.3199 84.0385 67.3222 84.067 67.3189 84.0951C67.3156 84.1233 67.3067 84.1504 67.2926 84.175C67.2785 84.1996 67.2597 84.2212 67.2371 84.2383C67.2146 84.2554 67.1888 84.2679 67.1613 84.2748C67.1084 84.2889 67.0521 84.2818 67.0044 84.2551C66.9566 84.2284 66.921 84.1842 66.9053 84.1317L66.6267 83.1905ZM66.5137 82.7914L65.5122 79.4104L63.7803 83.6046L66.5137 82.7914Z" fill="#F8F8F8"/>
<path d="M74.0518 81.6619C74.0109 81.6297 73.9827 81.584 73.9725 81.5329C73.9623 81.4819 73.9706 81.4288 73.9961 81.3834C74.0215 81.3379 74.0624 81.3031 74.1113 81.2851C74.1602 81.2671 74.2138 81.2672 74.2627 81.2854C74.6378 81.4839 75.0758 81.5271 75.4825 81.4059C75.6847 81.3517 75.8737 81.257 76.0381 81.1276C76.2025 80.9981 76.3388 80.8366 76.4389 80.6528C76.5412 80.4687 76.6059 80.266 76.6292 80.0565C76.6525 79.8471 76.6338 79.6351 76.5744 79.433C76.4594 79.0235 76.1893 78.675 75.8214 78.4616C75.4442 78.2627 75.004 78.22 74.5956 78.3425C74.1871 78.465 73.8431 78.7431 73.6377 79.1167C73.6258 79.1423 73.6087 79.1651 73.5875 79.1838C73.5663 79.2024 73.5414 79.2164 73.5145 79.2249C73.4876 79.2334 73.4592 79.2362 73.4311 79.2331C73.4031 79.2301 73.376 79.2212 73.3515 79.2071C73.3232 79.1984 73.2991 79.1796 73.2838 79.1543C73.2762 79.135 73.2762 79.1135 73.2838 79.0941C73.2838 79.0941 73.2838 79.0941 73.2838 79.0489L72.8771 76.6393C72.8672 76.6097 72.8655 76.578 72.8721 76.5475C72.8787 76.517 72.8935 76.4889 72.9148 76.4661C72.9395 76.4227 72.9799 76.3903 73.0277 76.3757L75.7235 75.5775C75.7502 75.5683 75.7785 75.5648 75.8066 75.5671C75.8347 75.5695 75.862 75.5776 75.8868 75.5911C75.9116 75.6045 75.9333 75.623 75.9506 75.6453C75.9678 75.6676 75.9803 75.6932 75.9871 75.7206C75.9963 75.7478 75.9999 75.7766 75.9977 75.8052C75.9954 75.8338 75.9873 75.8616 75.9739 75.887C75.9606 75.9124 75.9421 75.9347 75.9198 75.9527C75.8974 75.9708 75.8716 75.984 75.844 75.9917L73.3289 76.7447L73.6301 78.5218C73.876 78.2585 74.1881 78.066 74.5338 77.9646C75.051 77.813 75.6073 77.873 76.0803 78.1314C76.5534 78.3898 76.9044 78.8254 77.0564 79.3426C77.1365 79.5996 77.1638 79.8703 77.1366 80.1381C77.1095 80.406 77.0284 80.6656 76.8982 80.9013C76.6373 81.3753 76.2 81.7272 75.6813 81.8809C75.1625 82.0345 74.6041 81.9775 74.1271 81.7221L74.0518 81.6619Z" fill="#F8F8F8"/>
<path d="M78.3887 76.0519C78.4737 75.6243 78.6713 75.227 78.9613 74.9014C79.2512 74.5757 79.6229 74.3334 80.0378 74.1995C80.0898 74.1825 80.1463 74.1864 80.1955 74.2103C80.2446 74.2342 80.2826 74.2762 80.3014 74.3275C80.3168 74.3825 80.3115 74.4412 80.2865 74.4926C80.2615 74.5439 80.2186 74.5843 80.1658 74.6062C79.8249 74.7154 79.5184 74.9119 79.2767 75.176C79.035 75.4402 78.8665 75.7629 78.7878 76.1122C78.6968 76.5325 78.6739 76.9647 78.7201 77.3923C78.8363 77.1345 79.0068 76.9049 79.22 76.7191C79.4331 76.5332 79.6838 76.3956 79.955 76.3155C80.3292 76.2056 80.7275 76.2082 81.1003 76.323C81.4731 76.4379 81.8038 76.6598 82.0514 76.9613C82.2989 77.2627 82.4523 77.6303 82.4925 78.0182C82.5327 78.4062 82.4578 78.7974 82.2772 79.1432C82.0967 79.4889 81.8184 79.7739 81.477 79.9626C81.1357 80.1514 80.7464 80.2355 80.3575 80.2046C79.9687 80.1737 79.5976 80.0291 79.2903 79.7888C78.9831 79.5484 78.7534 79.2231 78.6297 78.8531C78.577 78.7327 78.5469 78.6122 78.5017 78.4766C78.2636 77.6903 78.2248 76.857 78.3887 76.0519ZM79.0288 78.7402C79.0393 78.7748 79.0545 78.8077 79.074 78.8381C79.074 78.8381 79.074 78.8833 79.074 78.8983C79.1946 79.1787 79.3938 79.4181 79.6476 79.5877C79.9013 79.7574 80.1987 79.8499 80.5038 79.8543C80.809 79.8587 81.1089 79.7747 81.3674 79.6124C81.6259 79.4501 81.8318 79.2164 81.9605 78.9397C82.0891 78.6629 82.1349 78.3548 82.0923 78.0526C82.0498 77.7504 81.9207 77.4669 81.7206 77.2365C81.5205 77.006 81.258 76.8384 80.9647 76.7538C80.6715 76.6692 80.36 76.6713 80.068 76.7598C79.8709 76.8176 79.6871 76.9139 79.5274 77.043C79.3676 77.172 79.2349 77.3314 79.1369 77.512C79.039 77.6925 78.9776 77.8906 78.9565 78.095C78.9354 78.2993 78.9548 78.5058 79.0137 78.7025L79.0288 78.7402Z" fill="#F8F8F8"/>
<path d="M84.9996 78.7251L85.6396 73.0248L82.846 73.8531C82.7969 73.8578 82.7477 73.8451 82.707 73.8172C82.6663 73.7894 82.6366 73.7481 82.6232 73.7007C82.6098 73.6532 82.6134 73.6025 82.6335 73.5575C82.6535 73.5124 82.6887 73.4758 82.733 73.4541L85.7827 72.5504C85.8247 72.5393 85.8688 72.5393 85.9107 72.5504C85.9666 72.565 86.0166 72.5966 86.0538 72.6408C86.0707 72.6607 86.0835 72.6837 86.0915 72.7086C86.0991 72.7264 86.1031 72.7456 86.1031 72.765C86.1031 72.7845 86.0991 72.8037 86.0915 72.8215L85.4288 78.8004C85.4234 78.8406 85.4072 78.8786 85.382 78.9104C85.3569 78.9422 85.3236 78.9666 85.2857 78.9812C85.2561 78.9885 85.225 78.9885 85.1954 78.9812C85.1361 78.9718 85.0827 78.94 85.0462 78.8924C85.0097 78.8447 84.993 78.7848 84.9996 78.7251Z" fill="#F8F8F8"/>
<path d="M89.0962 71.5339C89.4148 71.4402 89.7574 71.4763 90.0494 71.6343C90.3414 71.7923 90.5591 72.0594 90.655 72.3772C90.7101 72.5672 90.7204 72.7675 90.6851 72.9621C90.6498 73.1568 90.5699 73.3406 90.4516 73.4992C90.9004 73.5469 91.3187 73.7487 91.6354 74.0702C91.952 74.3917 92.1473 74.8131 92.1881 75.2625C92.2288 75.7119 92.1125 76.1616 91.8589 76.5348C91.6052 76.9081 91.23 77.1818 90.7971 77.3094C90.3643 77.4369 89.9006 77.4105 89.4851 77.2345C89.0695 77.0584 88.7279 76.7438 88.5184 76.3441C88.3089 75.9444 88.2445 75.4845 88.3361 75.0426C88.4277 74.6007 88.6698 74.2043 89.0209 73.9209C88.8397 73.8486 88.6776 73.7357 88.547 73.5907C88.4165 73.4458 88.321 73.2728 88.2679 73.0851C88.1738 72.7695 88.2081 72.4296 88.3632 72.1392C88.5183 71.8487 88.7817 71.6312 89.0962 71.5339ZM90.6926 76.9179C90.9736 76.8279 91.2219 76.6574 91.4068 76.4275C91.5917 76.1976 91.705 75.9185 91.7326 75.6248C91.7603 75.3311 91.7011 75.0357 91.5623 74.7754C91.4236 74.515 91.2114 74.3012 90.9522 74.1603C90.693 74.0195 90.3981 73.9579 90.1042 73.9832C89.8103 74.0084 89.5302 74.1195 89.2989 74.3025C89.0675 74.4856 88.895 74.7325 88.8027 75.0127C88.7105 75.2929 88.7026 75.5941 88.78 75.8788C88.8333 76.075 88.9259 76.2585 89.0521 76.418C89.1783 76.5775 89.3355 76.7099 89.5143 76.807C89.693 76.9041 89.8896 76.964 90.0921 76.983C90.2946 77.0021 90.4989 76.9799 90.6926 76.9179ZM89.6911 73.5519C89.9041 73.4841 90.0827 73.3365 90.1893 73.14C90.296 72.9435 90.3225 72.7133 90.2634 72.4977C90.1989 72.2844 90.0527 72.1053 89.8565 71.9994C89.6604 71.8936 89.4304 71.8697 89.2167 71.933C89.1108 71.9632 89.012 72.0142 88.926 72.0831C88.8401 72.1519 88.7687 72.2372 88.7162 72.334C88.6636 72.4307 88.6308 72.537 88.6198 72.6466C88.6088 72.7562 88.6197 72.8668 88.652 72.9721C88.715 73.1854 88.8591 73.3655 89.0533 73.4739C89.2475 73.5823 89.4765 73.6103 89.6911 73.5519Z" fill="#F8F8F8"/>
<path d="M99.3678 68.5218C99.835 68.3809 100.338 68.4175 100.78 68.6246C101.222 68.8317 101.572 69.1946 101.762 69.6438V69.6815C101.815 69.8321 101.875 69.9977 101.928 70.1709C102.174 70.9711 102.218 71.8195 102.056 72.6408C101.965 73.0657 101.765 73.4598 101.476 73.7844C101.187 74.1091 100.818 74.3533 100.407 74.4932C100.381 74.5026 100.354 74.5068 100.327 74.5054C100.299 74.5041 100.273 74.4972 100.248 74.4853C100.223 74.4733 100.201 74.4565 100.183 74.4359C100.165 74.4153 100.152 74.3912 100.143 74.3652C100.134 74.3385 100.13 74.3102 100.132 74.282C100.134 74.2538 100.141 74.2262 100.154 74.2009C100.166 74.1756 100.184 74.1531 100.205 74.1348C100.227 74.1164 100.252 74.1026 100.279 74.0941C100.624 73.9799 100.933 73.7761 101.174 73.5036C101.414 73.2311 101.579 72.8996 101.649 72.5429C101.747 72.1261 101.77 71.6952 101.717 71.2703C101.576 71.5704 101.363 71.8305 101.096 72.0269C100.829 72.2233 100.517 72.3499 100.188 72.395C99.8598 72.4401 99.5254 72.4024 99.2152 72.2853C98.9051 72.1682 98.6292 71.9754 98.4126 71.7244C98.1961 71.4734 98.0457 71.1723 97.9752 70.8484C97.9047 70.5245 97.9163 70.1881 98.009 69.8698C98.1016 69.5515 98.2724 69.2615 98.5058 69.026C98.7392 68.7906 99.0277 68.6173 99.3452 68.5218H99.3678ZM101.439 69.9751C101.351 69.6761 101.177 69.4097 100.938 69.2098C100.699 69.0099 100.406 68.8854 100.096 68.8522C99.7863 68.8189 99.4736 68.8783 99.1976 69.0229C98.9216 69.1676 98.6948 69.3908 98.5458 69.6645C98.3968 69.9381 98.3324 70.2498 98.3608 70.5601C98.3891 70.8704 98.5089 71.1653 98.705 71.4074C98.9011 71.6496 99.1646 71.828 99.4623 71.9203C99.7599 72.0125 100.078 72.0143 100.377 71.9254C100.579 71.8687 100.767 71.7718 100.931 71.6405C101.095 71.5092 101.23 71.3462 101.329 71.1612C101.428 70.9763 101.489 70.7733 101.508 70.5643C101.527 70.3553 101.503 70.1447 101.439 69.945V69.9751Z" fill="#F8F8F8"/>
<path d="M103.599 70.3818C103.374 69.6707 103.358 68.9102 103.554 68.1905C103.632 67.8952 103.781 67.6235 103.989 67.3991C104.196 67.1746 104.455 67.0043 104.743 66.9029C105.041 66.8291 105.352 66.8304 105.649 66.9066C105.946 66.9828 106.22 67.1316 106.445 67.3396C106.993 67.84 107.393 68.4802 107.604 69.1914C107.815 69.9025 107.828 70.6577 107.642 71.3757C107.583 71.6808 107.441 71.9637 107.232 72.1937C107.023 72.4237 106.755 72.5921 106.457 72.6806C106.159 72.769 105.842 72.7742 105.541 72.6955C105.241 72.6168 104.967 72.4572 104.751 72.2342C104.196 71.7408 103.796 71.0974 103.599 70.3818ZM104.005 70.2613C104.18 70.8966 104.533 71.4688 105.022 71.9104C105.195 72.0723 105.404 72.1898 105.632 72.2528C105.861 72.3157 106.101 72.3223 106.332 72.2718C106.555 72.1895 106.753 72.0537 106.911 71.8764C107.069 71.6992 107.18 71.4858 107.236 71.2553C107.399 70.6176 107.386 69.9477 107.2 69.3166C107.013 68.6855 106.658 68.1168 106.174 67.6709C106.012 67.4918 105.803 67.3621 105.571 67.2967C105.338 67.2314 105.092 67.233 104.861 67.3015C104.629 67.37 104.422 67.5025 104.263 67.6838C104.103 67.8651 103.998 68.0877 103.96 68.326C103.788 68.962 103.804 69.6341 104.005 70.2613Z" fill="#F8F8F8"/>
<path d="M109.593 66.0971L108.916 66.8501C108.894 66.8802 108.862 66.9016 108.825 66.9104C108.79 66.9204 108.753 66.9215 108.718 66.9136C108.682 66.9057 108.649 66.8891 108.622 66.8652C108.601 66.8468 108.584 66.8242 108.573 66.7989C108.562 66.7736 108.556 66.7461 108.556 66.7184C108.556 66.6906 108.562 66.6631 108.573 66.6378C108.584 66.6125 108.601 66.5899 108.622 66.5715L109.533 65.5625C109.573 65.526 109.626 65.5057 109.68 65.5057C109.734 65.5057 109.787 65.526 109.827 65.5625C109.863 65.6026 109.886 65.6523 109.895 65.7055L111.468 70.9766C111.476 71.0023 111.479 71.0294 111.477 71.0562C111.475 71.0831 111.467 71.1092 111.454 71.133C111.442 71.1568 111.424 71.1779 111.403 71.195C111.383 71.2121 111.359 71.2249 111.333 71.2327C111.279 71.247 111.222 71.2401 111.173 71.2135C111.124 71.1869 111.087 71.1426 111.069 71.0896L109.593 66.0971Z" fill="#F8F8F8"/>
<path d="M112.861 70.3968L114.842 67.1664C114.955 66.9796 115.028 66.7714 115.056 66.555C115.085 66.3385 115.068 66.1185 115.007 65.9088C114.887 65.5189 114.618 65.192 114.259 64.9989C113.9 64.8058 113.479 64.7621 113.087 64.8772C112.712 64.9791 112.391 65.2219 112.191 65.5549L111.988 65.8938C111.957 65.9346 111.912 65.9627 111.861 65.9727C111.811 65.9826 111.758 65.9739 111.714 65.948C111.67 65.9221 111.636 65.8808 111.62 65.832C111.604 65.7832 111.606 65.7302 111.626 65.6829L111.83 65.3366C112.089 64.9174 112.494 64.609 112.967 64.4706C113.227 64.391 113.502 64.368 113.772 64.403C114.042 64.4381 114.301 64.5304 114.533 64.6739C114.954 64.9258 115.266 65.326 115.406 65.7959C115.483 66.0593 115.505 66.3357 115.47 66.6077C115.435 66.8798 115.344 67.1418 115.203 67.3772L113.509 70.1558L116.242 69.3426C116.269 69.3347 116.297 69.3324 116.325 69.3358C116.352 69.3392 116.379 69.3482 116.403 69.3623C116.427 69.3764 116.448 69.3953 116.464 69.4179C116.481 69.4404 116.492 69.466 116.498 69.4932C116.513 69.5451 116.507 69.6005 116.482 69.6482C116.456 69.6958 116.414 69.7319 116.363 69.7492L113.14 70.7055C113.114 70.7167 113.086 70.7225 113.057 70.7225C113.029 70.7225 113 70.7167 112.974 70.7055C112.946 70.6934 112.92 70.6756 112.899 70.6532C112.878 70.6309 112.862 70.6045 112.851 70.5755C112.841 70.5466 112.836 70.5159 112.838 70.4851C112.84 70.4544 112.848 70.4243 112.861 70.3968Z" fill="#F8F8F8"/>
<path d="M124.654 61.3908L123.615 63.3712C124.014 63.3374 124.413 63.4184 124.767 63.6046C125.241 63.867 125.593 64.3052 125.746 64.8245C125.823 65.0823 125.849 65.3529 125.82 65.6205C125.792 65.8882 125.71 66.1475 125.58 66.3832C125.318 66.8588 124.88 67.2129 124.361 67.3697C124.103 67.4453 123.834 67.4689 123.568 67.4391C123.301 67.4094 123.043 67.3269 122.809 67.1965C122.784 67.1839 122.762 67.1663 122.744 67.1448C122.727 67.1233 122.713 67.0983 122.706 67.0715C122.698 67.0446 122.696 67.0164 122.699 66.9887C122.703 66.961 122.712 66.9343 122.727 66.9104C122.739 66.8854 122.757 66.8633 122.778 66.8454C122.8 66.8276 122.825 66.8143 122.852 66.8066C122.878 66.7988 122.907 66.7966 122.934 66.8003C122.962 66.8039 122.989 66.8131 123.013 66.8275C123.294 66.9785 123.614 67.043 123.931 67.0129C124.249 66.9828 124.551 66.8594 124.799 66.6582C125.047 66.457 125.23 66.187 125.324 65.8822C125.419 65.5774 125.422 65.2513 125.332 64.945C125.217 64.5393 124.946 64.1955 124.579 63.9887C124.394 63.8853 124.189 63.8207 123.978 63.7987C123.767 63.7767 123.554 63.7978 123.352 63.8607C123.319 63.8681 123.286 63.8686 123.253 63.8621C123.221 63.8556 123.19 63.8423 123.163 63.823C123.113 63.7931 123.077 63.7456 123.06 63.6899C123.043 63.6342 123.048 63.5742 123.073 63.5218L124.074 61.6242L121.861 62.2793C121.833 62.2873 121.805 62.2897 121.777 62.2864C121.749 62.283 121.721 62.2741 121.697 62.26C121.672 62.246 121.651 62.2271 121.634 62.2045C121.616 62.182 121.604 62.1562 121.597 62.1287C121.588 62.1021 121.584 62.0738 121.587 62.0457C121.589 62.0176 121.597 61.9902 121.611 61.9655C121.624 61.9407 121.642 61.919 121.665 61.9017C121.687 61.8844 121.713 61.872 121.74 61.8652L124.436 61.067C124.463 61.0577 124.492 61.0541 124.52 61.0564C124.549 61.0586 124.577 61.0667 124.602 61.0801C124.628 61.0935 124.65 61.1119 124.668 61.1343C124.686 61.1566 124.699 61.1824 124.707 61.21C124.714 61.2423 124.714 61.2757 124.707 61.3079C124.7 61.3409 124.681 61.3702 124.654 61.3908Z" fill="#F8F8F8"/>
<path d="M130.76 64.1845L127.628 65.1107C127.584 65.1262 127.536 65.1262 127.492 65.1107C127.466 65.1017 127.442 65.0873 127.421 65.0683C127.401 65.0493 127.385 65.0262 127.374 65.0006C127.364 64.975 127.359 64.9473 127.359 64.9196C127.36 64.8918 127.367 64.8645 127.379 64.8396L129.495 59.689C129.506 59.6631 129.521 59.6396 129.541 59.6201C129.561 59.6006 129.585 59.5854 129.611 59.5755C129.638 59.5656 129.666 59.5612 129.693 59.5626C129.721 59.564 129.749 59.5711 129.774 59.5835C129.81 59.6029 129.842 59.6314 129.864 59.6664L131.039 63.6272L131.423 63.5143C131.449 63.505 131.477 63.5011 131.504 63.503C131.532 63.5048 131.559 63.5123 131.584 63.525C131.609 63.5377 131.63 63.5554 131.648 63.5768C131.666 63.5983 131.679 63.6231 131.686 63.6498C131.694 63.676 131.697 63.7036 131.694 63.7308C131.691 63.758 131.683 63.7844 131.669 63.8083C131.656 63.8322 131.638 63.8532 131.616 63.8699C131.595 63.8867 131.57 63.8989 131.543 63.9058L131.152 64.0263L131.445 65.0128C131.46 65.0667 131.453 65.124 131.426 65.173C131.4 65.222 131.355 65.259 131.302 65.2763C131.249 65.2888 131.192 65.2812 131.143 65.2548C131.095 65.2285 131.058 65.1852 131.039 65.1332L130.76 64.1845ZM130.64 63.7854L129.638 60.4043L127.906 64.5911L130.64 63.7854Z" fill="#F8F8F8"/>
<path d="M133.231 64.1242C133.182 64.0958 133.145 64.0491 133.13 63.9943C133.114 63.9394 133.121 63.8806 133.148 63.8306C133.175 63.7798 133.221 63.7419 133.276 63.725C133.331 63.7081 133.391 63.7135 133.442 63.7402C133.816 63.9412 134.254 63.9872 134.662 63.8682C135.07 63.7443 135.413 63.4649 135.618 63.0902C135.822 62.7155 135.871 62.2755 135.754 61.8652C135.638 61.4578 135.368 61.1118 135.001 60.9013C134.623 60.7025 134.183 60.6597 133.775 60.7822C133.366 60.9048 133.022 61.1828 132.817 61.5565C132.804 61.5814 132.787 61.6035 132.765 61.6214C132.744 61.6392 132.719 61.6525 132.692 61.6602C132.665 61.668 132.637 61.6702 132.609 61.6666C132.581 61.6629 132.555 61.6537 132.531 61.6393C132.503 61.6332 132.479 61.6171 132.463 61.5941C132.459 61.5717 132.459 61.5487 132.463 61.5263C132.467 61.5116 132.467 61.4959 132.463 61.4811L132.056 59.0715C132.045 59.0422 132.042 59.01 132.049 58.9791C132.055 58.9483 132.071 58.9201 132.094 58.8983C132.121 58.8566 132.16 58.8249 132.207 58.808L134.903 58.0173C134.929 58.0081 134.958 58.0046 134.986 58.0069C135.014 58.0092 135.041 58.0174 135.066 58.0308C135.091 58.0443 135.112 58.0627 135.13 58.085C135.147 58.1073 135.159 58.133 135.166 58.1604C135.175 58.187 135.179 58.2153 135.177 58.2434C135.174 58.2715 135.166 58.2988 135.153 58.3236C135.139 58.3484 135.121 58.3701 135.098 58.3874C135.076 58.4047 135.05 58.4171 135.023 58.4239L132.508 59.1769L132.809 60.9616C133.053 60.6959 133.366 60.503 133.713 60.4043C134.099 60.2922 134.51 60.2968 134.894 60.4174C135.277 60.5381 135.617 60.7694 135.87 61.0824C136.122 61.3954 136.277 61.776 136.314 62.1766C136.351 62.5771 136.268 62.9796 136.077 63.3336C135.819 63.8103 135.382 64.1651 134.863 64.3204C134.344 64.4757 133.784 64.4187 133.306 64.1619L133.231 64.1242Z" fill="#F8F8F8"/>
<path d="M137.56 58.5444C137.646 58.1159 137.845 57.718 138.136 57.3923C138.427 57.0665 138.801 56.8247 139.217 56.692C139.268 56.6753 139.323 56.6793 139.371 56.7033C139.419 56.7273 139.456 56.7692 139.473 56.82C139.49 56.873 139.487 56.9306 139.463 56.981C139.439 57.0314 139.397 57.0708 139.345 57.0911C138.998 57.2035 138.687 57.4066 138.445 57.6793C138.203 57.952 138.038 58.2845 137.967 58.6423C137.876 59.0601 137.853 59.4898 137.899 59.9149C138.016 59.658 138.186 59.4293 138.399 59.2447C138.613 59.0601 138.863 58.924 139.134 58.8456C139.508 58.7357 139.907 58.7384 140.28 58.8532C140.652 58.968 140.983 59.19 141.231 59.4914C141.478 59.7928 141.632 60.1604 141.672 60.5484C141.712 60.9364 141.637 61.3276 141.456 61.6733C141.276 62.019 140.998 62.304 140.656 62.4928C140.315 62.6815 139.926 62.7657 139.537 62.7347C139.148 62.7038 138.777 62.5592 138.47 62.3189C138.162 62.0786 137.933 61.7532 137.809 61.3833C137.758 61.2606 137.716 61.1348 137.681 61.0068C137.438 60.2086 137.396 59.3625 137.56 58.5444ZM138.208 61.2251C138.217 61.2626 138.232 61.2982 138.253 61.3306C138.261 61.3499 138.261 61.3714 138.253 61.3908C138.414 61.7728 138.717 62.0773 139.098 62.24C139.479 62.4027 139.909 62.4108 140.296 62.2626C140.683 62.1144 140.997 61.8215 141.172 61.4459C141.347 61.0702 141.369 60.6412 141.233 60.2496C141.098 59.858 140.815 59.5345 140.445 59.3474C140.076 59.1603 139.648 59.1243 139.252 59.2471C138.856 59.3699 138.523 59.6418 138.324 60.0053C138.125 60.3688 138.076 60.7954 138.185 61.195L138.208 61.2251Z" fill="#F8F8F8"/>
<path d="M106.003 83.5969L55.6172 98.5315L56.3512 101.008L106.737 86.0733L106.003 83.5969Z" fill="#37474F"/>
<path d="M92.9252 93.4501L57.2529 104.023L57.9869 106.5L93.6592 95.9265L92.9252 93.4501Z" fill="#37474F"/>
<path d="M112.013 36.7567L86.8818 44.2058L87.6158 46.6822L112.747 39.2331L112.013 36.7567Z" fill="#37474F"/>
<path d="M133.509 41.9555L132.907 41.6167L132.553 41.4284C132.978 40.6548 133.246 39.8047 133.341 38.9272C133.436 38.0496 133.357 37.1618 133.108 36.315C132.859 35.4681 132.445 34.6789 131.889 33.9928C131.334 33.3066 130.648 32.7371 129.872 32.317L130.068 31.9781L130.399 31.3757H130.437C130.67 31.5188 130.911 31.6619 131.145 31.82C131.616 32.1404 132.045 32.5172 132.425 32.942C132.885 33.4362 133.275 33.9911 133.584 34.5911C133.727 34.8772 133.848 35.1784 133.976 35.4721C134.014 35.57 134.217 36.2251 134.224 36.2703C134.27 36.4811 134.322 36.692 134.36 36.9104C134.462 37.5045 134.492 38.1087 134.45 38.7101C134.419 39.1462 134.353 39.5793 134.255 40.0052C134.144 40.4514 133.995 40.8872 133.81 41.3079C133.712 41.5263 133.607 41.7296 133.509 41.9405V41.9555Z" fill="white"/>
<path d="M128.833 34.2522C129.006 33.9284 129.179 33.6122 129.353 33.2808C130.001 33.6319 130.574 34.1074 131.039 34.6802C131.504 35.2529 131.851 35.9117 132.061 36.6188C132.271 37.3259 132.339 38.0675 132.262 38.801C132.185 39.5346 131.964 40.2457 131.612 40.8938L130.64 40.3592C131.207 39.3098 131.336 38.0789 130.999 36.9348C130.662 35.7908 129.886 34.8265 128.841 34.2522H128.833Z" fill="white"/>
<path d="M129.661 39.8396L128.705 39.3125C128.85 39.0456 128.942 38.7526 128.974 38.4502C129.007 38.1478 128.979 37.8421 128.893 37.5504C128.809 37.2588 128.667 36.9872 128.475 36.7517C128.284 36.5163 128.047 36.3218 127.778 36.1799L128.305 35.2161C128.699 35.4296 129.047 35.7189 129.328 36.0672C129.609 36.4156 129.819 36.8161 129.945 37.2459C130.071 37.6756 130.111 38.126 130.062 38.5711C130.013 39.0162 129.877 39.4473 129.661 39.8396Z" fill="white"/>
<path d="M40.4748 44.0866C38.8634 56.2778 34.7595 81.5037 39.9854 88.9811C46.8378 98.7703 69.2851 105.148 75.1661 107.053C77.7338 107.889 84.2549 91.1649 82.8091 88.6799C81.3634 86.195 56.8453 76.4134 55.2489 74.9601C53.6525 73.5067 51.7775 54.1393 49.5637 43.936C46.7625 31.0519 41.8453 33.7628 40.4748 44.0866Z" fill="#F7A9A0"/>
<path d="M89.8641 94.4781C88.9303 93.4616 89.4574 92.9721 91.8671 93.3637C94.2767 93.7552 103.486 97.3697 104.472 94.0489C105.459 90.7281 92.4243 85.826 88.3354 85.4796C84.2466 85.1333 77.5674 85.9842 77.5674 85.9842C79.9243 87.4525 85.2857 91.5489 89.8641 94.4781Z" fill="#F7A9A0"/>
<path d="M68.75 104.38C75.5271 108.258 83.7274 113.507 92.5301 113.416C93.5086 113.43 94.4632 113.114 95.241 112.52C99.1943 112.52 100.392 110.683 100.392 110.683C104.074 109.584 105.038 107.513 105.038 107.513C105.038 107.513 109.676 107.513 110.12 104.689C110.64 101.541 104.029 102.189 100.173 100.322C91.3479 96.0444 79.9925 87.5203 77.5828 86.0143L68.75 104.38Z" fill="#F7A9A0"/>
<path d="M87.7713 102.325C90.3405 103.607 92.9949 104.712 95.7156 105.63C98.751 106.458 101.845 107.054 104.97 107.415C104.99 107.415 105.009 107.423 105.023 107.437C105.037 107.451 105.045 107.47 105.045 107.49C105.045 107.51 105.037 107.529 105.023 107.543C105.009 107.558 104.99 107.565 104.97 107.565C98.8617 107.469 92.8969 105.698 87.7261 102.445C87.5981 102.407 87.6357 102.264 87.7713 102.325Z" fill="#263238"/>
<path d="M84.4127 107.279C87.0332 108.311 91.6416 110.096 100.392 110.578C100.392 110.578 100.429 110.63 100.392 110.63C94.849 111.063 89.2952 109.945 84.3525 107.4C84.2019 107.325 84.247 107.212 84.4127 107.279Z" fill="#263238"/>
<path d="M82.6576 109.975C87.1756 111.564 90.2253 111.993 95.2253 112.483V112.535C89.4873 112.573 87.394 111.94 82.5822 110.118C82.4166 110.058 82.4844 109.937 82.6576 109.975Z" fill="#263238"/>
<path d="M53.8477 58.0549L36.1143 64.2974C36.1143 64.2974 39.0811 43.8381 41.6489 38.0625C44.5405 31.5715 47.2287 34.4706 49.7061 40.7583C52.1835 47.0459 53.8477 58.0549 53.8477 58.0549Z" fill="#2B5AAC"/>
<path d="M52.0927 55.0655C49.7283 55.555 42.8382 58.0248 41.7012 58.4164C41.0988 58.6272 38.7268 59.5685 38.1244 59.7718C38.0491 59.7718 38.1243 59.9149 38.1846 59.8848C39.3292 59.5007 40.5265 59.2296 41.6786 58.8456C42.8307 58.4616 49.9617 56.2101 52.1228 55.1559C52.168 55.1333 52.1454 55.0504 52.0927 55.0655Z" fill="#263238"/>
<path d="M52.6575 50.073C52.5747 49.079 52.4843 48.0926 52.3714 47.1061C52.3714 47.8592 52.4542 48.5595 52.5069 49.2899C52.168 47.8742 51.8066 46.4586 51.3774 45.073C51.3774 45.073 51.3322 45.073 51.3397 45.073C51.671 47.2492 52.1304 49.4104 52.5144 51.579C52.8984 53.7477 53.3126 55.8336 53.7268 57.957C53.3452 58.1629 52.9612 58.3587 52.5747 58.5444C52.5636 58.5533 52.5556 58.5655 52.5518 58.5793C52.5481 58.593 52.5487 58.6076 52.5537 58.621C52.5587 58.6343 52.5678 58.6457 52.5797 58.6536C52.5916 58.6615 52.6056 58.6654 52.6198 58.6649C53.0792 58.5293 53.531 58.3938 53.9903 58.2733C54.0442 58.2641 54.0926 58.235 54.1261 58.1918C54.1596 58.1485 54.1756 58.0943 54.171 58.0399C53.7494 55.3968 53.2674 52.7086 52.6575 50.073Z" fill="#263238"/>
<path d="M104.45 21.9405C107.108 19.6137 109.872 14.8622 112.297 13.8456C112.886 13.5763 113.546 13.504 114.18 13.6397C114.813 13.7753 115.386 14.1116 115.813 14.5986C115.813 14.5986 116.348 11.7372 118.697 11.1799C119.902 10.8938 121.423 12.573 121.423 12.573C121.423 12.573 121.95 10.314 124.074 9.93748C125.76 9.6438 127.033 11.3682 127.033 11.3682C127.033 11.3682 128.539 9.42543 130.369 9.68145C134.051 10.1935 138.08 24.3426 133.494 28.0098C131.355 29.7191 130.557 26.2101 130.557 26.2101C130.557 26.2101 130.482 31.5339 127.59 32.4375C124.699 33.3411 123.931 28.7251 123.931 28.7251C123.931 28.7251 123.818 33.8833 120.723 34.5158C117.492 35.1784 117.53 30.4269 117.53 30.4269C117.53 30.4269 116.288 34.192 113.81 34.1242C109.706 34.0263 112.748 26.7221 111.129 23.823L105.512 23.567L104.45 21.9405Z" fill="#F7A9A0"/>
<path d="M108.102 17.8366C105.398 19.8245 100.572 17.1438 97.7328 18.6724C93.8623 20.7357 99.2388 24.2296 105.511 23.5519L110.293 22.1739L108.102 17.8366Z" fill="#F7A9A0"/>
<path d="M127.274 11.5941H127.342C129.903 16.0688 131.048 21.2147 130.625 26.3531C130.625 26.5188 130.332 26.5564 130.317 26.3531C130.018 21.3127 128.994 16.3417 127.274 11.5941Z" fill="#263238"/>
<path d="M121.431 12.4827C121.431 12.43 121.506 12.3923 121.536 12.4827C124.044 17.0007 125.422 23.2131 124.104 28.8757C124.066 29.0715 123.825 29.1995 123.863 28.9736C124.45 25.1031 123.117 16.9254 121.431 12.4827Z" fill="#263238"/>
<path d="M117.304 30.7959C118.35 25.314 117.537 20.0504 115.926 14.7568C115.926 14.689 116.001 14.6664 116.031 14.7568C117.537 17.1287 118.207 20.6077 118.501 23.3562C118.831 25.9112 118.483 28.5081 117.492 30.8863C117.454 30.9239 117.281 30.9089 117.304 30.7959Z" fill="#263238"/>
<path d="M53.0271 165.896L92.0632 251.152C92.9581 253.09 94.5832 254.595 96.5838 255.338C98.5844 256.082 100.798 256.003 102.741 255.12L108.938 252.289L252.44 186.589C254.378 185.697 255.885 184.074 256.63 182.074C257.375 180.075 257.298 177.862 256.416 175.919L221.92 100.617L217.402 90.6702C216.504 88.7353 214.879 87.2331 212.879 86.49C210.88 85.7469 208.668 85.823 206.724 86.7018L57.0181 155.226C55.0797 156.118 53.5726 157.74 52.825 159.739C52.0775 161.738 52.1501 163.951 53.0271 165.896Z" fill="#2B5AAC"/>
<path opacity="0.1" d="M53.0271 165.896L92.0632 251.152C92.9581 253.09 94.5832 254.595 96.5838 255.338C98.5844 256.082 100.798 256.003 102.741 255.12L108.938 252.289L252.44 186.589C254.378 185.697 255.885 184.074 256.63 182.074C257.375 180.075 257.298 177.862 256.416 175.919L221.92 100.617L217.402 90.6702C216.504 88.7353 214.879 87.2331 212.879 86.49C210.88 85.7469 208.668 85.823 206.724 86.7018L57.0181 155.226C55.0797 156.118 53.5726 157.74 52.825 159.739C52.0775 161.738 52.1501 163.951 53.0271 165.896Z" fill="white"/>
<path d="M233.219 125.251L68.8721 200.495L88.1062 242.506L252.453 167.262L233.219 125.251Z" fill="#2B5AAC"/>
<path opacity="0.3" d="M233.219 125.251L68.8721 200.495L88.1062 242.506L252.453 167.262L233.219 125.251Z" fill="white"/>
<path d="M226.415 144.686L122.558 192.236L129.441 207.271L233.298 159.721L226.415 144.686Z" fill="#2B5AAC"/>
<path opacity="0.8" d="M226.415 144.686L122.558 192.236L129.441 207.271L233.298 159.721L226.415 144.686Z" fill="white"/>
<path d="M227.594 109.941L63.1152 185.871L73.4705 208.302L237.95 132.372L227.594 109.941Z" fill="#2B5AAC"/>
<path opacity="0.3" d="M227.594 109.941L63.1152 185.871L73.4705 208.302L237.95 132.372L227.594 109.941Z" fill="black"/>
<path d="M75.3462 166.965L108.938 252.259L252.44 186.559C254.378 185.667 255.884 184.044 256.629 182.044C257.375 180.045 257.298 177.832 256.416 175.889L221.92 100.587L79.8944 156.521C77.9119 157.31 76.3213 158.85 75.4694 160.807C74.6175 162.763 74.5732 164.977 75.3462 166.965Z" fill="#2B5AAC"/>
<path d="M265.284 140.004L264.573 140.254L265.749 143.6L266.459 143.35L265.284 140.004Z" fill="#2B5AAC"/>
<path opacity="0.1" d="M265.284 140.004L264.573 140.254L265.749 143.6L266.459 143.35L265.284 140.004Z" fill="white"/>
<path d="M259.354 123.186L258.644 123.435L263.274 136.622L263.985 136.372L259.354 123.186Z" fill="#2B5AAC"/>
<path opacity="0.1" d="M259.354 123.186L258.644 123.435L263.274 136.622L263.985 136.372L259.354 123.186Z" fill="white"/>
<path d="M85.338 156.815L240.684 102.259C242.7 101.558 244.911 101.683 246.834 102.607C248.757 103.531 250.236 105.18 250.948 107.191L282.017 195.663C282.719 197.678 282.595 199.889 281.673 201.814C280.75 203.738 279.103 205.219 277.093 205.934L121.746 260.489C119.73 261.187 117.519 261.06 115.596 260.136C113.672 259.213 112.192 257.567 111.475 255.557L80.4058 167.086C79.7042 165.07 79.8291 162.857 80.7533 160.933C81.6775 159.008 83.3257 157.528 85.338 156.815Z" fill="#2B5AAC"/>
<path opacity="0.1" d="M85.338 156.815L240.684 102.259C242.7 101.558 244.911 101.683 246.834 102.607C248.757 103.531 250.236 105.18 250.948 107.191L282.017 195.663C282.719 197.678 282.595 199.889 281.673 201.814C280.75 203.738 279.103 205.219 277.093 205.934L121.746 260.489C119.73 261.187 117.519 261.06 115.596 260.136C113.672 259.213 112.192 257.567 111.475 255.557L80.4058 167.086C79.7042 165.07 79.8291 162.857 80.7533 160.933C81.6775 159.008 83.3257 157.528 85.338 156.815Z" fill="white"/>
<path d="M262.842 141.048L92.2998 200.938L105.815 239.425L276.358 179.534L262.842 141.048Z" fill="#2B5AAC"/>
<path opacity="0.3" d="M262.842 141.048L92.2998 200.938L105.815 239.425L276.358 179.534L262.842 141.048Z" fill="white"/>
<path d="M242.428 122.318L207.174 134.698L209.102 140.19L244.356 127.81L242.428 122.318Z" fill="#2B5AAC"/>
<path opacity="0.8" d="M242.428 122.318L207.174 134.698L209.102 140.19L244.356 127.81L242.428 122.318Z" fill="white"/>
<path d="M266.048 189.573L237.764 199.506L238.772 202.376L267.056 192.443L266.048 189.573Z" fill="#2B5AAC"/>
<path opacity="0.8" d="M266.048 189.573L237.764 199.506L238.772 202.376L267.056 192.443L266.048 189.573Z" fill="white"/>
<path d="M267.971 195.064L231.523 207.864L232.531 210.734L268.979 197.935L267.971 195.064Z" fill="#2B5AAC"/>
<path opacity="0.8" d="M267.971 195.064L231.523 207.864L232.531 210.734L268.979 197.935L267.971 195.064Z" fill="white"/>
<path d="M138.012 236.993L119.788 243.393L121.956 249.567L140.18 243.167L138.012 236.993Z" fill="#2B5AAC"/>
<path opacity="0.8" d="M138.012 236.993L119.788 243.393L121.956 249.567L140.18 243.167L138.012 236.993Z" fill="white"/>
<path d="M235.451 184.111L256.731 176.642C257.853 176.242 258.772 175.416 259.288 174.343C259.804 173.27 259.876 172.037 259.487 170.911C259.088 169.789 258.262 168.87 257.189 168.354C256.116 167.838 254.882 167.767 253.757 168.155L232.469 175.633C231.347 176.032 230.428 176.858 229.912 177.931C229.396 179.004 229.325 180.237 229.713 181.363C230.114 182.485 230.941 183.404 232.016 183.918C233.091 184.433 234.325 184.503 235.451 184.111Z" fill="#2B5AAC"/>
<path d="M198.998 196.913L220.286 189.435C221.399 189.034 222.311 188.213 222.825 187.147C223.339 186.081 223.414 184.856 223.034 183.735C222.633 182.615 221.807 181.697 220.734 181.183C219.661 180.668 218.428 180.598 217.304 180.986L196.024 188.464C194.902 188.863 193.983 189.689 193.467 190.762C192.951 191.835 192.879 193.069 193.268 194.194C193.674 195.309 194.503 196.219 195.576 196.728C196.648 197.237 197.877 197.303 198.998 196.913Z" fill="#2B5AAC"/>
<path d="M162.567 209.714L183.855 202.236C184.965 201.833 185.874 201.01 186.385 199.944C186.895 198.878 186.969 197.655 186.588 196.536C186.187 195.416 185.361 194.499 184.288 193.984C183.215 193.469 181.982 193.399 180.858 193.788L159.555 201.235C158.435 201.636 157.518 202.462 157.003 203.535C156.488 204.608 156.418 205.841 156.807 206.965C157.207 208.093 158.039 209.016 159.118 209.531C160.198 210.046 161.439 210.112 162.567 209.714Z" fill="#2B5AAC"/>
<path d="M126.099 222.515L147.386 215.038C148.501 214.638 149.414 213.817 149.93 212.751C150.445 211.685 150.522 210.459 150.142 209.337C149.742 208.217 148.915 207.3 147.842 206.785C146.769 206.271 145.537 206.2 144.412 206.589L123.124 214.066C122.002 214.466 121.084 215.291 120.568 216.365C120.051 217.438 119.98 218.671 120.368 219.797C120.775 220.912 121.604 221.822 122.676 222.33C123.749 222.839 124.978 222.905 126.099 222.515Z" fill="#2B5AAC"/>
<g opacity="0.8">
<path d="M235.451 184.111L256.731 176.642C257.853 176.242 258.772 175.416 259.288 174.343C259.804 173.27 259.876 172.037 259.487 170.911C259.088 169.789 258.262 168.871 257.189 168.354C256.116 167.838 254.882 167.767 253.757 168.155L232.469 175.633C231.347 176.032 230.428 176.858 229.912 177.931C229.396 179.004 229.325 180.237 229.713 181.363C230.114 182.485 230.941 183.404 232.016 183.918C233.091 184.433 234.325 184.503 235.451 184.111Z" fill="white"/>
<path d="M198.998 196.913L220.286 189.435C221.399 189.034 222.311 188.213 222.825 187.147C223.339 186.081 223.414 184.856 223.034 183.735C222.633 182.615 221.807 181.697 220.734 181.183C219.661 180.668 218.428 180.598 217.304 180.986L196.024 188.464C194.902 188.863 193.983 189.689 193.467 190.762C192.951 191.835 192.879 193.069 193.268 194.194C193.674 195.309 194.503 196.219 195.576 196.728C196.648 197.237 197.877 197.303 198.998 196.913Z" fill="white"/>
<path d="M162.567 209.714L183.855 202.236C184.965 201.833 185.874 201.01 186.385 199.944C186.895 198.878 186.969 197.655 186.588 196.536C186.187 195.416 185.361 194.499 184.288 193.984C183.215 193.469 181.982 193.399 180.858 193.788L159.555 201.235C158.435 201.636 157.518 202.462 157.003 203.535C156.488 204.608 156.418 205.841 156.807 206.965C157.207 208.093 158.039 209.016 159.118 209.531C160.198 210.046 161.439 210.112 162.567 209.714Z" fill="white"/>
<path d="M126.099 222.515L147.386 215.038C148.501 214.638 149.414 213.817 149.93 212.751C150.445 211.685 150.522 210.459 150.142 209.337C149.742 208.217 148.915 207.3 147.842 206.785C146.769 206.271 145.537 206.2 144.412 206.589L123.124 214.066C122.002 214.466 121.084 215.291 120.568 216.365C120.051 217.438 119.98 218.671 120.368 219.797C120.775 220.912 121.604 221.822 122.676 222.33C123.749 222.839 124.978 222.905 126.099 222.515Z" fill="white"/>
</g>
<path d="M246.512 143.269L227.571 149.921C225.962 150.486 225.116 152.248 225.681 153.857L229.628 165.097C230.193 166.706 231.955 167.552 233.564 166.987L252.505 160.335C254.114 159.77 254.96 158.008 254.395 156.399L250.448 145.159C249.883 143.551 248.121 142.705 246.512 143.269Z" fill="#2B5AAC"/>
<path opacity="0.3" d="M246.512 143.269L227.571 149.921C225.962 150.486 225.116 152.248 225.681 153.857L229.628 165.097C230.193 166.706 231.955 167.552 233.564 166.987L252.505 160.335C254.114 159.77 254.96 158.008 254.395 156.399L250.448 145.159C249.883 143.551 248.121 142.705 246.512 143.269Z" fill="black"/>
<path d="M132.206 164.157C131.734 162.807 131 161.563 130.047 160.497C129.094 159.431 127.939 158.564 126.65 157.944C125.362 157.324 123.963 156.965 122.535 156.886C121.107 156.807 119.678 157.011 118.328 157.485L103.027 163.23L102.831 163.283L102.38 163.471L102.101 163.577C99.6303 164.693 97.6844 166.717 96.6674 169.23C95.6504 171.743 95.6405 174.551 96.6398 177.071C97.6391 179.591 99.5707 181.629 102.033 182.762C104.496 183.895 107.301 184.036 109.865 183.155L124.353 178.336C124.77 178.242 125.182 178.127 125.587 177.989C125.887 177.885 126.181 177.764 126.468 177.628C128.931 176.5 130.884 174.495 131.945 172.003C133.006 169.511 133.099 166.713 132.206 164.157Z" fill="#2B5AAC"/>
<path opacity="0.8" d="M132.206 164.157C131.734 162.807 131 161.563 130.047 160.497C129.094 159.431 127.939 158.564 126.65 157.944C125.362 157.324 123.963 156.965 122.535 156.886C121.107 156.807 119.678 157.011 118.328 157.485L103.027 163.23L102.831 163.283L102.38 163.471L102.101 163.577C99.6303 164.693 97.6844 166.717 96.6674 169.23C95.6504 171.743 95.6405 174.551 96.6398 177.071C97.6391 179.591 99.5707 181.629 102.033 182.762C104.496 183.895 107.301 184.036 109.865 183.155L124.353 178.336C124.77 178.242 125.182 178.127 125.587 177.989C125.887 177.885 126.181 177.764 126.468 177.628C128.931 176.5 130.884 174.495 131.945 172.003C133.006 169.511 133.099 166.713 132.206 164.157Z" fill="white"/>
</svg>
