<svg width="49" height="39" viewBox="0 0 49 39" fill="none" xmlns="http://www.w3.org/2000/svg">
<path d="M43.5312 38.5111H4.5237C2.04998 38.5111 0.0195312 36.4679 0.0195312 33.9787V4.89956C0.0195312 2.41036 2.04998 0.367188 4.5237 0.367188H43.5312C46.0049 0.367188 48.0354 2.41036 48.0354 4.89956V33.9787C48.0497 36.4823 46.0192 38.5111 43.5312 38.5111Z" fill="#F6C859"/>
<path d="M18.5076 33.4323C18.3074 33.4323 18.1072 33.3172 18.0071 33.1301C17.8641 32.8568 17.9785 32.5114 18.2502 32.3819C19.0509 31.9647 20.152 31.1877 20.7811 29.8352C21.5819 28.1229 21.3817 26.2668 21.0385 26.1086C20.9527 26.0654 20.6095 26.2381 20.4093 26.3532C19.8803 26.6265 19.1653 27.0006 18.3217 26.6985C17.4924 26.4107 17.092 25.6769 16.9061 25.3172C15.6478 23.0006 15.2617 16.9575 16.5915 13.9503C17.0348 12.9575 17.6353 12.3675 18.3789 12.1949C19.1367 12.0222 19.7516 12.3388 20.2521 12.5978C20.6667 12.8136 20.8669 12.8999 20.9956 12.828C21.5104 12.5114 21.4961 10.5978 20.7811 9.07258C20.152 7.72006 19.0509 6.94308 18.2502 6.52581C17.9785 6.38193 17.8641 6.05099 18.0071 5.77761C18.1501 5.50423 18.479 5.38913 18.7507 5.53301C19.7087 6.02222 21.0099 6.95747 21.782 8.58337C22.5399 10.1949 22.8974 12.9719 21.5676 13.7776C20.8955 14.1805 20.2521 13.8496 19.7373 13.5906C19.3512 13.3891 18.9794 13.2021 18.622 13.2884C18.1358 13.4035 17.7926 13.9647 17.5925 14.4251C16.4342 17.0438 16.7631 22.756 17.8641 24.7992C18.05 25.1445 18.2788 25.5186 18.6649 25.6625C19.0366 25.792 19.3941 25.6337 19.8946 25.3747C20.3807 25.1301 20.9241 24.8424 21.5104 25.1301C22.7544 25.7345 22.6686 28.4395 21.7677 30.3532C20.9956 31.9791 19.6944 32.9143 18.7364 33.4035C18.6792 33.4035 18.5934 33.4323 18.5076 33.4323Z" fill="#7D662D"/>
<path d="M16.8369 14.9573H6.82768C6.5274 14.9573 6.27002 14.7127 6.27002 14.3961C6.27002 14.0796 6.5131 13.835 6.82768 13.835H16.8369C17.1372 13.835 17.3946 14.0796 17.3946 14.3961C17.3946 14.7127 17.1515 14.9573 16.8369 14.9573Z" fill="#7D662D"/>
<path d="M16.8369 25.0286H6.82768C6.5274 25.0286 6.27002 24.784 6.27002 24.4674C6.27002 24.1653 6.5131 23.9062 6.82768 23.9062H16.8369C17.1372 23.9062 17.3946 24.1509 17.3946 24.4674C17.3946 24.784 17.1515 25.0286 16.8369 25.0286Z" fill="#7D662D"/>
<path d="M30.1922 33.432C30.1064 33.432 30.0206 33.4176 29.9349 33.3744C28.9768 32.8852 27.6756 31.95 26.9035 30.3241C26.0026 28.4104 25.9169 25.7197 27.1609 25.101C27.7471 24.8133 28.2905 25.101 28.7766 25.3456C29.2771 25.6046 29.6346 25.7629 30.0064 25.6334C30.421 25.4895 30.6641 25.0435 30.8071 24.7701C31.9224 22.7269 32.2513 17.0291 31.0788 14.396C30.8786 13.95 30.5354 13.3744 30.0492 13.2593C29.749 13.1874 29.5631 12.8852 29.6346 12.5831C29.7061 12.2809 30.0064 12.0938 30.3066 12.1658C31.0502 12.3385 31.6507 12.9284 32.094 13.9356C33.4238 16.9284 33.0377 22.9715 31.7794 25.3025C31.5935 25.6622 31.1789 26.396 30.3638 26.6838C29.5202 26.9715 28.8052 26.6118 28.2762 26.3384C28.076 26.2377 27.7328 26.0651 27.647 26.0938C27.3181 26.2521 27.1037 28.1082 27.9044 29.8205C28.5336 31.173 29.6346 31.95 30.4353 32.3672C30.707 32.5111 30.8214 32.842 30.6784 33.1154C30.5783 33.3169 30.3924 33.432 30.1922 33.432Z" fill="#7D662D"/>
<path d="M27.963 12.7267C27.7343 12.7267 27.5198 12.5828 27.434 12.3382C26.2472 8.74112 29.0355 5.96414 29.9363 5.50371C30.208 5.35983 30.5511 5.47494 30.6798 5.74832C30.8228 6.0217 30.7084 6.36702 30.4368 6.49652C30.0364 6.69796 27.4769 8.91378 28.4921 11.9785C28.5922 12.2663 28.4349 12.5829 28.1346 12.6836C28.0774 12.7123 28.0202 12.7267 27.963 12.7267Z" fill="#7D662D"/>
<path d="M41.857 14.9573H31.8477C31.5474 14.9573 31.29 14.7127 31.29 14.3961C31.29 14.0796 31.5331 13.835 31.8477 13.835H41.857C42.1572 13.835 42.4146 14.0796 42.4146 14.3961C42.4146 14.7127 42.1715 14.9573 41.857 14.9573Z" fill="#7D662D"/>
<path d="M41.857 25.0286H31.8477C31.5474 25.0286 31.29 24.784 31.29 24.4674C31.29 24.1653 31.5331 23.9062 31.8477 23.9062H41.857C42.1572 23.9062 42.4146 24.1509 42.4146 24.4674C42.4146 24.784 42.1715 25.0286 41.857 25.0286Z" fill="#7D662D"/>
</svg>
