<svg width="277" height="271" viewBox="0 0 277 271" fill="none" xmlns="http://www.w3.org/2000/svg">
<path d="M195.344 0.399902H194.255V58.4918H195.344V0.399902Z" fill="#EBEBEB"/>
<path d="M197.817 53.6493H191.774V57.735H197.817V53.6493Z" fill="#DBDBDB"/>
<path d="M197.817 55.0091H191.774V57.7349H197.817V55.0091Z" fill="#C7C7C7"/>
<path d="M195.86 89.2959C198.361 88.7075 199.911 86.2032 199.323 83.7024C198.734 81.2016 196.23 79.6513 193.729 80.2397C191.228 80.8281 189.678 83.3324 190.267 85.8332C190.855 88.334 193.359 89.8843 195.86 89.2959Z" fill="#EBEBEB"/>
<path d="M209.939 84.7718H179.659L185.142 75.056L189.615 57.0089H199.983L204.456 75.056L209.939 84.7718Z" fill="#DBDBDB"/>
<path d="M139.042 0.399902H137.953V48.9359H139.042V0.399902Z" fill="#EBEBEB"/>
<path d="M141.522 44.0933H135.479V48.179H141.522V44.0933Z" fill="#DBDBDB"/>
<path d="M141.522 45.4534H135.479V48.1792H141.522V45.4534Z" fill="#C7C7C7"/>
<path d="M143.152 75.216C143.149 76.1353 142.873 77.0328 142.359 77.7954C141.846 78.5579 141.118 79.1513 140.268 79.5005C139.417 79.8498 138.483 79.9393 137.582 79.7577C136.68 79.5761 135.853 79.1316 135.205 78.4803C134.556 77.8291 134.115 77.0002 133.937 76.0983C133.759 75.1965 133.852 74.2621 134.204 73.4132C134.557 72.5642 135.153 71.8388 135.918 71.3285C136.682 70.8181 137.581 70.5458 138.5 70.5458C139.113 70.545 139.72 70.6653 140.286 70.9C140.852 71.1346 141.366 71.4789 141.798 71.913C142.23 72.347 142.573 72.8624 142.805 73.4292C143.037 73.9961 143.155 74.6034 143.152 75.216Z" fill="#EBEBEB"/>
<path d="M153.638 75.2161H123.364L128.847 65.5003L133.32 47.4531H143.682L148.155 65.5003L153.638 75.2161Z" fill="#DBDBDB"/>
<path d="M85.0422 0.399902H83.9531V38.9555H85.0422V0.399902Z" fill="#EBEBEB"/>
<path d="M87.516 34.113H81.4736V38.1987H87.516V34.113Z" fill="#DBDBDB"/>
<path d="M87.516 35.4728H81.4736V38.1987H87.516V35.4728Z" fill="#C7C7C7"/>
<path d="M89.1463 65.2356C89.1463 66.1557 88.8735 67.0551 88.3624 67.82C87.8512 68.585 87.1247 69.1812 86.2747 69.5333C85.4247 69.8854 84.4894 69.9775 83.587 69.798C82.6847 69.6186 81.8558 69.1755 81.2053 68.5249C80.5547 67.8744 80.1116 67.0455 79.9322 66.1432C79.7527 65.2408 79.8448 64.3055 80.1969 63.4555C80.549 62.6055 81.1452 61.879 81.9102 61.3678C82.6751 60.8567 83.5745 60.5839 84.4946 60.5839C85.7283 60.5839 86.9115 61.074 87.7839 61.9463C88.6562 62.8187 89.1463 64.0019 89.1463 65.2356Z" fill="#EBEBEB"/>
<path d="M99.6371 65.2356H69.3574L74.8399 55.5136L79.3132 37.4726H89.6813L94.1546 55.5136L99.6371 65.2356Z" fill="#DBDBDB"/>
<path d="M255.552 206.37C246.864 218.129 237.812 231.758 235.604 246.526C235.604 246.754 235.936 246.827 235.991 246.606C236.988 242.581 238.271 238.633 239.831 234.792C245.541 233.223 251.14 231.931 254.143 226.264C257.22 220.443 256.807 212.844 256.229 206.5C256.186 206.161 255.724 206.143 255.552 206.37Z" fill="#EBEBEB"/>
<path d="M239.917 234.681C243.818 225.931 248.826 217.138 255.189 209.939C255.232 209.89 255.3 209.939 255.263 210.013C251.091 215.139 247.928 220.719 244.833 226.405C247.707 223.482 250.857 220.867 253.583 217.791C253.638 217.729 253.718 217.821 253.669 217.877C250.968 221.126 248.008 224.645 244.488 227.051C243.541 228.799 242.593 230.546 241.627 232.294C241.861 232.158 242.107 232.041 242.347 231.924C242.39 231.924 242.427 231.967 242.384 231.986C242.12 232.121 241.849 232.263 241.572 232.386C241.117 233.21 240.661 234.041 240.194 234.847C240.089 235.032 239.831 234.866 239.917 234.681Z" fill="#A6A6A6"/>
<path d="M242.815 231.629C245.151 230.322 247.381 228.834 249.485 227.18C249.541 227.131 249.621 227.211 249.565 227.26C247.527 229.02 245.296 230.541 242.914 231.795C242.803 231.851 242.711 231.691 242.815 231.629Z" fill="#A6A6A6"/>
<path d="M234.6 244.335C234.6 244.514 234.92 244.514 234.92 244.335C234.964 239.474 234.92 234.595 234.994 229.721C236.225 227.205 238.914 225.82 240.766 223.808C242.102 222.339 243.265 220.72 244.23 218.984C246.471 214.838 247.838 210.277 248.248 205.583C248.765 200.389 246.79 183.247 244.599 183.837C243.467 184.151 239.794 192.643 238.815 195.448C237.236 200.079 236.079 204.842 235.357 209.681C233.585 221.095 233.733 232.835 234.6 244.335Z" fill="#EBEBEB"/>
<path d="M234.563 223.384C234.828 217.231 236.212 211.034 237.511 205.072C238.907 198.648 240.538 192.606 243.842 186.877C243.854 186.855 243.875 186.839 243.899 186.832C243.923 186.825 243.949 186.828 243.971 186.84C243.993 186.852 244.01 186.873 244.017 186.897C244.023 186.921 244.021 186.947 244.008 186.969C241.803 191.424 240.096 196.108 238.92 200.937C239.141 200.592 239.412 200.266 239.64 199.934C239.732 199.805 239.941 199.934 239.855 200.063C239.558 200.581 239.212 201.07 238.821 201.522C238.821 201.522 238.79 201.522 238.778 201.522C237.64 206.112 236.821 210.807 236.126 215.489L236.28 215.305C236.288 215.299 236.298 215.297 236.308 215.297C236.318 215.297 236.328 215.301 236.336 215.307C236.344 215.313 236.35 215.321 236.353 215.331C236.356 215.34 236.357 215.35 236.354 215.36C236.268 215.52 236.169 215.674 236.077 215.828C235.72 218.203 235.394 220.578 235.068 222.928C239.301 219.31 242.913 215.046 244.95 209.791C244.95 209.791 244.999 209.791 244.993 209.791C242.993 215.243 239.849 220.086 235 223.39C234.914 224.005 234.822 224.657 234.735 225.291C234.735 225.42 234.508 225.384 234.508 225.26C234.508 224.701 234.508 224.134 234.557 223.575C234.544 223.562 234.534 223.547 234.527 223.53C234.521 223.514 234.517 223.496 234.518 223.478C234.519 223.46 234.523 223.442 234.531 223.426C234.538 223.41 234.55 223.395 234.563 223.384Z" fill="#A6A6A6"/>
<path d="M236.558 214.48C239.794 209.65 242.815 204.961 245.172 199.627C245.172 199.571 245.301 199.627 245.277 199.676C243.283 204.974 240.49 210.345 236.711 214.603C236.644 214.69 236.496 214.579 236.558 214.48Z" fill="#A6A6A6"/>
<path d="M240.859 198.439C242.2 196.064 243.609 193.756 244.87 191.344C244.907 191.277 245 191.344 244.975 191.4C243.939 193.913 242.628 196.305 241.068 198.531C240.975 198.679 240.779 198.574 240.859 198.439Z" fill="#A6A6A6"/>
<path d="M240.335 199.467V199.51C240.335 199.51 240.311 199.467 240.335 199.467Z" fill="#A6A6A6"/>
<path d="M231.314 230.288C231.249 233.508 230.87 236.715 230.182 239.862C230.238 240.206 230.287 240.551 230.336 240.908C231.321 237.431 231.889 233.849 232.028 230.238C232.057 230.189 232.073 230.133 232.073 230.075C232.073 230.018 232.057 229.962 232.028 229.912C232.17 225.07 231.811 220.227 230.958 215.458C229.456 206.536 226.17 197.965 219.943 191.277C219.892 191.233 219.831 191.202 219.765 191.185C219.699 191.169 219.631 191.167 219.565 191.181C219.498 191.195 219.436 191.223 219.382 191.264C219.329 191.305 219.285 191.358 219.254 191.418C216.744 197.805 217.617 205.429 219.759 211.797C220.918 215.249 222.576 218.512 224.681 221.482C226.86 224.473 229.567 227.008 231.314 230.288Z" fill="#EBEBEB"/>
<path d="M220.707 194.255C226.602 203.829 230.712 215.176 231.21 226.491C231.21 226.694 230.884 226.743 230.853 226.54C230.718 225.525 230.558 224.516 230.398 223.513C227.937 221.175 225.476 218.707 223.704 215.785C223.7 215.773 223.7 215.761 223.703 215.75C223.707 215.739 223.714 215.729 223.724 215.722C223.734 215.715 223.745 215.712 223.757 215.712C223.769 215.712 223.78 215.716 223.79 215.723C225.913 218.147 227.894 220.646 230.294 222.799C229.869 220.295 229.371 217.834 228.774 215.415L228.306 214.868C228.208 214.751 228.38 214.572 228.485 214.696L228.626 214.849C227.796 211.528 226.769 208.259 225.549 205.06C224.048 203.263 222.368 201.719 221.273 199.559C221.242 199.503 221.316 199.467 221.353 199.516C222.233 200.746 223.082 201.977 224.079 203.134C224.479 203.589 224.916 204.02 225.31 204.463C223.947 200.994 222.333 197.63 220.479 194.396C220.466 194.366 220.464 194.333 220.474 194.302C220.483 194.271 220.504 194.244 220.532 194.227C220.559 194.209 220.592 194.203 220.625 194.208C220.657 194.213 220.686 194.23 220.707 194.255Z" fill="#A6A6A6"/>
<path d="M221.895 206.069C223.802 208.635 225.981 211.084 227.753 213.736C227.802 213.809 227.691 213.889 227.63 213.828C225.347 211.693 223.421 208.776 221.772 206.143C221.716 206.056 221.84 205.989 221.895 206.069Z" fill="#A6A6A6"/>
<path d="M228.016 214.326L228.096 214.406C228.152 214.468 228.066 214.554 228.01 214.499L227.93 214.412C227.921 214.401 227.917 214.386 227.918 214.371C227.919 214.356 227.926 214.343 227.936 214.332C227.946 214.322 227.96 214.315 227.975 214.314C227.99 214.313 228.005 214.317 228.016 214.326Z" fill="#A6A6A6"/>
<path d="M211.459 212.683C211.933 217.606 214.535 223.495 217.686 227.291C219.076 228.942 220.797 230.284 222.737 231.229C224.922 232.312 227.211 233.561 229.506 234.447C230.581 237.185 231.378 240.023 231.887 242.92L232.109 242.169C230.657 229.697 222.584 219.04 212.265 212.197C212.184 212.135 212.087 212.098 211.985 212.092C211.883 212.087 211.782 212.111 211.695 212.164C211.608 212.217 211.539 212.294 211.496 212.387C211.454 212.48 211.441 212.583 211.459 212.683Z" fill="#EBEBEB"/>
<path d="M215.028 216.376C214.954 216.314 215.028 216.185 215.133 216.24C220.804 220.46 225.327 226.034 228.288 232.454C228.362 232.626 228.128 232.774 228.03 232.601C227.55 231.781 227.061 230.961 226.565 230.14C224.208 229.697 221.975 228.042 220.227 226.448C220.178 226.405 220.227 226.337 220.295 226.374C221.198 227.196 222.201 227.901 223.279 228.473C224.239 228.959 225.273 229.266 226.27 229.66C225.396 228.27 224.491 226.94 223.538 225.654C220.995 224.682 218.608 223.341 216.455 221.673C216.388 221.624 216.455 221.513 216.523 221.556C218.653 222.847 220.851 224.022 223.107 225.076C221.67 223.178 220.119 221.37 218.461 219.661C217.655 219.237 216.843 218.812 216.068 218.357C216.057 218.347 216.05 218.334 216.047 218.32C216.044 218.306 216.046 218.291 216.052 218.278C216.059 218.265 216.069 218.254 216.081 218.247C216.094 218.24 216.109 218.238 216.123 218.24C216.772 218.464 217.392 218.766 217.969 219.138C217.015 218.185 216.031 217.255 215.028 216.376Z" fill="#A6A6A6"/>
<path d="M215.249 220.683C215.388 220.767 215.519 220.861 215.643 220.966C215.649 220.973 215.653 220.982 215.653 220.992C215.653 221.002 215.651 221.011 215.645 221.019C215.639 221.027 215.631 221.032 215.622 221.035C215.613 221.038 215.603 221.037 215.594 221.033C215.451 220.965 215.313 220.887 215.181 220.8C215.167 220.79 215.157 220.775 215.153 220.759C215.149 220.742 215.152 220.724 215.16 220.709C215.169 220.695 215.183 220.684 215.2 220.679C215.216 220.674 215.234 220.675 215.249 220.683Z" fill="#A6A6A6"/>
<path d="M248.186 269.908H219.9L222.183 244.144L222.682 238.465H245.405L245.904 244.144L248.186 269.908Z" fill="#C7C7C7"/>
<path d="M245.904 244.144H222.184L222.682 238.465H245.406L245.904 244.144Z" fill="#A6A6A6"/>
<path d="M246.759 234.49H221.334V240.114H246.759V234.49Z" fill="#C7C7C7"/>
<path d="M107.329 195.042H29.4053V141.732H107.329V195.042ZM30.0206 194.427H106.713V142.347H30.0206V194.427Z" fill="#2B5AAC"/>
<path d="M35.4967 145.165C35.4967 145.472 35.4058 145.771 35.2354 146.026C35.065 146.281 34.8228 146.48 34.5395 146.598C34.2562 146.715 33.9444 146.746 33.6436 146.686C33.3428 146.626 33.0665 146.478 32.8497 146.261C32.6328 146.045 32.4851 145.768 32.4253 145.467C32.3655 145.167 32.3962 144.855 32.5135 144.572C32.6309 144.288 32.8296 144.046 33.0846 143.876C33.3396 143.705 33.6394 143.614 33.9461 143.614C34.3573 143.614 34.7517 143.778 35.0425 144.069C35.3333 144.359 35.4967 144.754 35.4967 145.165Z" fill="#A6A6A6"/>
<path d="M41.8287 145.165C41.8287 145.472 41.7378 145.771 41.5674 146.026C41.397 146.281 41.1549 146.48 40.8715 146.598C40.5882 146.715 40.2764 146.746 39.9756 146.686C39.6748 146.626 39.3986 146.478 39.1817 146.261C38.9648 146.045 38.8172 145.768 38.7573 145.467C38.6975 145.167 38.7282 144.855 38.8456 144.572C38.9629 144.288 39.1617 144.046 39.4167 143.876C39.6717 143.705 39.9715 143.614 40.2781 143.614C40.6894 143.614 41.0838 143.778 41.3746 144.069C41.6654 144.359 41.8287 144.754 41.8287 145.165Z" fill="#EBEBEB"/>
<path d="M48.1598 145.165C48.1598 145.472 48.0688 145.771 47.8985 146.026C47.7281 146.281 47.4859 146.48 47.2026 146.598C46.9192 146.715 46.6075 146.746 46.3067 146.686C46.0059 146.626 45.7296 146.478 45.5128 146.261C45.2959 146.045 45.1482 145.768 45.0884 145.467C45.0286 145.167 45.0593 144.855 45.1766 144.572C45.294 144.288 45.4927 144.046 45.7477 143.876C46.0027 143.705 46.3025 143.614 46.6092 143.614C46.813 143.614 47.015 143.653 47.2035 143.731C47.392 143.808 47.5633 143.923 47.7074 144.067C47.8516 144.211 47.9658 144.382 48.0434 144.571C48.121 144.759 48.1606 144.961 48.1598 145.165Z" fill="#2B5AAC"/>
<path d="M107.021 147.897H29.7129V148.512H107.021V147.897Z" fill="#2B5AAC"/>
<path d="M224.208 168.658C222.989 169.418 221.655 169.977 220.257 170.313C216.909 171.131 213.376 170.658 210.362 168.986C207.347 167.314 205.074 164.568 203.996 161.294C202.917 158.021 203.112 154.461 204.542 151.325C205.973 148.189 208.532 145.707 211.711 144.375C214.89 143.043 218.455 142.959 221.693 144.138C224.932 145.318 227.606 147.676 229.183 150.74C230.761 153.805 231.124 157.352 230.202 160.673C229.28 163.994 227.139 166.845 224.208 168.658Z" fill="#EBEBEB"/>
<path d="M221.174 155.459C221.174 156.283 220.93 157.088 220.472 157.774C220.014 158.459 219.364 158.993 218.603 159.308C217.841 159.623 217.004 159.706 216.196 159.545C215.388 159.384 214.645 158.987 214.063 158.405C213.48 157.822 213.084 157.08 212.923 156.272C212.762 155.464 212.845 154.626 213.16 153.865C213.475 153.104 214.009 152.453 214.694 151.996C215.379 151.538 216.185 151.294 217.008 151.294C218.113 151.295 219.171 151.735 219.952 152.515C220.733 153.296 221.173 154.355 221.174 155.459Z" fill="white"/>
<path d="M224.208 166.941V168.658C222.988 169.418 221.654 169.977 220.257 170.313C218.491 170.749 216.656 170.826 214.859 170.541C213.062 170.256 211.341 169.613 209.797 168.652V166.941C209.797 165.032 210.555 163.201 211.905 161.85C213.256 160.5 215.087 159.742 216.996 159.742C218.905 159.742 220.737 160.5 222.087 161.85C223.437 163.201 224.195 165.032 224.195 166.941H224.208Z" fill="white"/>
<path d="M0.780273 270.092L35.2133 269.945L69.6402 269.889L138.5 269.785L207.36 269.889L241.793 269.945L276.22 270.092L241.793 270.246L207.36 270.295L138.5 270.4L69.6402 270.295L35.2133 270.246L0.780273 270.092Z" fill="#263238"/>
<path d="M108.984 263.594H30.5928V270.086H108.984V263.594Z" fill="#455A64"/>
<path d="M258.241 263.594H108.978V270.086H258.241V263.594Z" fill="#37474F"/>
<path d="M179.868 263.595H30.5926L10.2441 167.87H159.52L179.868 263.595Z" fill="#263238"/>
<path d="M77.7387 257.546H35.3497L17.5732 173.912H59.9623L77.7387 257.546Z" fill="white"/>
<path d="M34.4633 205.3C34.1671 205.511 33.8328 205.664 33.4788 205.749C32.477 205.98 31.4249 205.819 30.5376 205.3C29.5944 204.785 28.8399 203.983 28.384 203.011C27.4734 201.005 28.2671 198.986 30.1684 198.5C32.0698 198.014 34.3464 199.239 35.2632 201.239C36.0016 202.875 35.6263 204.5 34.4633 205.3Z" fill="#C7C7C7"/>
<path d="M32.8698 201.724C32.9056 201.859 32.9093 201.999 32.8807 202.135C32.8522 202.271 32.792 202.398 32.7052 202.507C32.6184 202.615 32.5073 202.702 32.3809 202.759C32.2545 202.817 32.1163 202.844 31.9776 202.838C31.6555 202.827 31.3462 202.709 31.0972 202.505C30.8482 202.3 30.6732 202.02 30.5993 201.706C30.5602 201.57 30.5539 201.427 30.5809 201.289C30.6079 201.15 30.6673 201.02 30.7544 200.909C30.8415 200.798 30.9538 200.709 31.0819 200.65C31.21 200.59 31.3504 200.562 31.4915 200.568C31.8163 200.583 32.1271 200.704 32.3761 200.913C32.6252 201.122 32.7986 201.407 32.8698 201.724Z" fill="white"/>
<path d="M34.3648 204.856L34.4632 205.324C34.167 205.536 33.8327 205.688 33.4787 205.773C32.4769 206.004 31.4247 205.844 30.5375 205.324L30.4391 204.856C30.3715 204.622 30.3607 204.375 30.4075 204.135C30.4543 203.896 30.5574 203.671 30.7083 203.479C30.8591 203.288 31.0535 203.134 31.2752 203.033C31.497 202.931 31.7397 202.883 31.9835 202.894C32.5396 202.918 33.0727 203.123 33.5022 203.477C33.9317 203.831 34.2345 204.315 34.3648 204.856Z" fill="white"/>
<path d="M54.7378 199.879H37.7367L37.4229 198.414H54.424L54.7378 199.879Z" fill="#C7C7C7"/>
<path d="M61.5367 202.568H38.3086L38.124 201.725H61.3583L61.5367 202.568Z" fill="#C7C7C7"/>
<path d="M61.9244 204.389H38.6902L38.5117 203.546H61.7399L61.9244 204.389Z" fill="#C7C7C7"/>
<path d="M36.9737 216.991C36.6791 217.201 36.347 217.353 35.9954 217.44C34.9916 217.671 33.9374 217.51 33.048 216.991C32.1052 216.478 31.3523 215.675 30.9006 214.702C29.9838 212.696 30.7775 210.677 32.6788 210.191C34.5802 209.705 36.8568 210.93 37.7737 212.929C38.4813 214.529 38.1059 216.172 36.9737 216.991Z" fill="#2B5AAC"/>
<path d="M35.3493 213.397C35.3886 213.532 35.395 213.675 35.3681 213.814C35.3411 213.952 35.2815 214.082 35.1943 214.193C35.1071 214.303 34.9947 214.392 34.8664 214.45C34.7382 214.509 34.5979 214.536 34.4571 214.529C34.1353 214.517 33.8265 214.399 33.5777 214.195C33.3288 213.99 33.1536 213.71 33.0788 213.397C33.0397 213.261 33.0334 213.118 33.0604 212.98C33.0874 212.841 33.1468 212.711 33.2339 212.6C33.321 212.489 33.4333 212.4 33.5614 212.341C33.6895 212.281 33.8299 212.253 33.971 212.259C34.2933 212.273 34.6022 212.391 34.8509 212.597C35.0997 212.802 35.2746 213.083 35.3493 213.397Z" fill="white"/>
<path d="M36.8448 216.529L36.974 216.99C36.6793 217.201 36.3473 217.353 35.9956 217.44C34.9918 217.671 33.9376 217.51 33.0483 216.99L32.9498 216.523C32.8822 216.288 32.8714 216.041 32.9182 215.802C32.965 215.562 33.0681 215.337 33.219 215.146C33.3699 214.954 33.5642 214.801 33.786 214.699C34.0077 214.597 34.2505 214.549 34.4943 214.56C35.0458 214.591 35.5725 214.8 35.996 215.155C36.4195 215.51 36.7171 215.991 36.8448 216.529Z" fill="white"/>
<path d="M57.2173 211.557H40.2162L39.9023 210.087H56.9096L57.2173 211.557Z" fill="#C7C7C7"/>
<path d="M64.0169 214.24H40.7888L40.6104 213.397H63.8385L64.0169 214.24Z" fill="#C7C7C7"/>
<path d="M64.4049 216.062H41.1768L40.9922 215.219H64.2265L64.4049 216.062Z" fill="#C7C7C7"/>
<path d="M39.4352 228.682C39.1405 228.892 38.8085 229.044 38.4568 229.131C37.4492 229.365 36.3899 229.204 35.4972 228.682C34.5543 228.169 33.8015 227.366 33.3497 226.393C32.4329 224.393 33.2328 222.368 35.128 221.882C37.0232 221.396 39.3121 222.621 40.229 224.62C40.9612 226.22 40.5858 227.845 39.4352 228.682Z" fill="#455A64"/>
<path d="M37.8288 225.07C37.8718 225.206 37.881 225.351 37.8558 225.492C37.8305 225.633 37.7715 225.765 37.6838 225.879C37.5961 225.992 37.4824 226.082 37.3522 226.141C37.2221 226.201 37.0795 226.228 36.9366 226.22C36.6149 226.208 36.3061 226.09 36.0572 225.886C35.8084 225.682 35.6332 225.401 35.5583 225.088C35.5191 224.952 35.5128 224.808 35.5401 224.669C35.5674 224.53 35.6275 224.4 35.7153 224.288C35.8031 224.177 35.9161 224.088 36.0451 224.03C36.174 223.971 36.3151 223.943 36.4567 223.95C36.7757 223.963 37.0819 224.079 37.3293 224.281C37.5767 224.483 37.7519 224.76 37.8288 225.07Z" fill="white"/>
<path d="M39.3245 228.201L39.4352 228.681C39.1406 228.892 38.8085 229.044 38.4569 229.131C37.4492 229.365 36.39 229.204 35.4972 228.681L35.3988 228.214C35.3256 227.975 35.3115 227.722 35.3576 227.476C35.4038 227.231 35.5088 227 35.6637 226.804C35.8186 226.608 36.0187 226.452 36.2469 226.351C36.4752 226.249 36.7246 226.204 36.974 226.22C37.5275 226.251 38.0559 226.461 38.4798 226.819C38.9037 227.176 39.2001 227.661 39.3245 228.201Z" fill="white"/>
<path d="M59.7036 223.23H42.6963L42.3887 221.759H59.3898L59.7036 223.23Z" fill="#C7C7C7"/>
<path d="M66.4964 225.913H43.2683L43.0898 225.07H66.318L66.4964 225.913Z" fill="#C7C7C7"/>
<path d="M66.8841 227.734H43.656L43.4775 226.891H66.7057L66.8841 227.734Z" fill="#C7C7C7"/>
<path d="M41.8957 240.373C41.6007 240.584 41.2689 240.738 40.9173 240.828C39.9126 241.054 38.8598 240.891 37.97 240.373C37.0298 239.856 36.2779 239.055 35.8225 238.084C34.9119 236.065 35.7425 234.029 37.5885 233.543C39.4344 233.057 41.7665 234.281 42.6833 236.281C43.4401 237.911 43.0709 239.517 41.8957 240.373Z" fill="#263238"/>
<path d="M40.3145 236.742C40.3576 236.879 40.3676 237.023 40.3435 237.165C40.3193 237.306 40.2618 237.439 40.1757 237.553C40.0896 237.668 39.9775 237.76 39.8485 237.822C39.7196 237.884 39.5777 237.915 39.4346 237.911C39.1123 237.897 38.8033 237.779 38.5546 237.573C38.3059 237.368 38.1309 237.087 38.0562 236.773C38.0184 236.637 38.0132 236.494 38.0411 236.355C38.0689 236.217 38.1291 236.087 38.2166 235.976C38.3041 235.865 38.4166 235.776 38.5448 235.717C38.673 235.658 38.8134 235.629 38.9546 235.635C39.2696 235.651 39.5713 235.767 39.8158 235.966C40.0604 236.165 40.235 236.437 40.3145 236.742Z" fill="white"/>
<path d="M41.804 239.874L41.8963 240.373C41.6013 240.584 41.2695 240.738 40.918 240.828C39.9133 241.054 38.8604 240.891 37.9706 240.373L37.8722 239.905C37.7995 239.667 37.7853 239.415 37.8308 239.171C37.8763 238.926 37.9802 238.696 38.1337 238.501C38.2871 238.305 38.4856 238.149 38.7122 238.046C38.9387 237.944 39.1867 237.897 39.4351 237.911C39.9896 237.937 40.5209 238.142 40.9483 238.496C41.3758 238.85 41.6762 239.334 41.804 239.874Z" fill="white"/>
<path d="M62.1831 234.902H45.1758L44.8682 233.432H61.8693L62.1831 234.902Z" fill="#C7C7C7"/>
<path d="M68.9759 237.585H45.7478L45.5693 236.742H68.7975L68.9759 237.585Z" fill="#C7C7C7"/>
<path d="M69.3636 239.407H46.1355L45.957 238.564H69.1852L69.3636 239.407Z" fill="#C7C7C7"/>
<path d="M44.3881 252.014C44.0909 252.225 43.7571 252.38 43.4036 252.47C42.4009 252.695 41.3499 252.533 40.4624 252.014C39.5192 251.5 38.7647 250.698 38.3088 249.725C37.3982 247.725 38.1919 245.701 40.0932 245.215C41.9946 244.729 44.2712 245.953 45.188 247.959C45.9264 249.602 45.5511 251.19 44.3881 252.014Z" fill="#C7C7C7"/>
<path d="M42.7946 248.415C42.8338 248.551 42.8401 248.694 42.8128 248.834C42.7855 248.973 42.7255 249.103 42.6376 249.214C42.5498 249.326 42.4368 249.414 42.3079 249.473C42.1789 249.532 42.0378 249.56 41.8962 249.553C41.5747 249.539 41.2667 249.42 41.019 249.214C40.7713 249.009 40.5975 248.728 40.5241 248.415C40.485 248.279 40.4787 248.136 40.5057 247.997C40.5327 247.859 40.5922 247.729 40.6792 247.617C40.7663 247.506 40.8786 247.417 41.0067 247.358C41.1348 247.299 41.2752 247.271 41.4163 247.276C41.7386 247.29 42.0475 247.409 42.2962 247.614C42.545 247.82 42.7199 248.101 42.7946 248.415Z" fill="white"/>
<path d="M44.2894 251.547L44.3879 252.014C44.0906 252.225 43.7568 252.38 43.4034 252.47C42.4007 252.695 41.3496 252.533 40.4622 252.014L40.3576 251.547C40.2951 251.314 40.2879 251.07 40.3365 250.834C40.3852 250.598 40.4884 250.377 40.6379 250.188C40.7874 249.999 40.979 249.847 41.1974 249.746C41.4159 249.644 41.655 249.595 41.8958 249.602C42.4514 249.624 42.9848 249.825 43.4164 250.176C43.8479 250.526 44.1542 251.007 44.2894 251.547Z" fill="white"/>
<path d="M64.6626 246.575H47.6615L47.3477 245.104H64.355L64.6626 246.575Z" fill="#C7C7C7"/>
<path d="M71.4616 249.258H48.2334L48.0488 248.415H71.277L71.4616 249.258Z" fill="#C7C7C7"/>
<path d="M71.8492 251.079H48.615L48.4365 250.236H71.6647L71.8492 251.079Z" fill="#C7C7C7"/>
<path d="M28.0827 185.413C27.8968 185.544 27.6882 185.64 27.4674 185.696C26.8385 185.841 26.1779 185.74 25.6214 185.413C25.0359 185.094 24.568 184.596 24.2862 183.991C23.714 182.761 24.2124 181.487 25.3938 181.179C26.038 181.069 26.7005 181.178 27.2758 181.488C27.8511 181.798 28.3063 182.291 28.5688 182.89C28.7982 183.3 28.8753 183.778 28.7863 184.24C28.6974 184.702 28.4482 185.117 28.0827 185.413Z" fill="#C7C7C7"/>
<path d="M27.0853 183.148C27.1097 183.233 27.1138 183.321 27.0972 183.408C27.0805 183.494 27.0436 183.575 26.9895 183.644C26.9354 183.713 26.8657 183.768 26.7861 183.805C26.7064 183.842 26.6192 183.859 26.5315 183.856C26.3312 183.848 26.1391 183.774 25.9846 183.646C25.8301 183.518 25.7218 183.343 25.6762 183.148C25.6518 183.064 25.6477 182.975 25.6644 182.889C25.681 182.803 25.7179 182.722 25.772 182.653C25.8261 182.584 25.8958 182.528 25.9754 182.491C26.0551 182.455 26.1423 182.437 26.23 182.441C26.43 182.45 26.6216 182.524 26.7759 182.651C26.9302 182.779 27.0388 182.953 27.0853 183.148Z" fill="white"/>
<path d="M28.0147 185.124L28.0824 185.413C27.8965 185.544 27.6879 185.64 27.4671 185.696C26.8382 185.841 26.1776 185.74 25.6211 185.413L25.5596 185.124C25.5177 184.977 25.5111 184.822 25.5405 184.672C25.5699 184.523 25.6344 184.382 25.7286 184.262C25.8229 184.142 25.9443 184.046 26.0828 183.982C26.2213 183.917 26.3731 183.887 26.5256 183.893C26.8744 183.907 27.2089 184.035 27.4779 184.257C27.7469 184.479 27.9355 184.784 28.0147 185.124Z" fill="white"/>
<path d="M57.1863 183.948C57.1791 183.925 57.1778 183.901 57.1823 183.877C57.1869 183.853 57.1972 183.831 57.2124 183.812C57.2276 183.793 57.2472 183.778 57.2695 183.769C57.2917 183.759 57.316 183.755 57.3401 183.758C57.3952 183.76 57.4482 183.779 57.4914 183.814C57.5346 183.848 57.5657 183.895 57.5801 183.948C57.5857 183.972 57.5859 183.997 57.5804 184.021C57.5749 184.045 57.5641 184.067 57.5486 184.086C57.5331 184.105 57.5135 184.12 57.4912 184.131C57.4689 184.141 57.4446 184.146 57.4201 184.145C57.3646 184.144 57.3114 184.123 57.2689 184.087C57.2265 184.052 57.1973 184.003 57.1863 183.948Z" fill="#C7C7C7"/>
<path d="M57.0208 183.148C57.014 183.125 57.0128 183.1 57.0174 183.076C57.022 183.052 57.0322 183.03 57.0473 183.01C57.0623 182.991 57.0817 182.976 57.1038 182.965C57.126 182.955 57.1503 182.95 57.1747 182.951C57.2309 182.953 57.285 182.973 57.3285 183.009C57.372 183.044 57.4023 183.093 57.4146 183.148C57.4215 183.172 57.4227 183.196 57.4181 183.22C57.4135 183.244 57.4032 183.267 57.3882 183.286C57.3732 183.305 57.3538 183.321 57.3316 183.331C57.3095 183.341 57.2852 183.346 57.2608 183.345C57.2046 183.344 57.1504 183.324 57.107 183.288C57.0635 183.252 57.0332 183.203 57.0208 183.148Z" fill="#C7C7C7"/>
<path d="M56.8548 182.397C56.848 182.374 56.8468 182.349 56.8514 182.325C56.856 182.301 56.8662 182.279 56.8812 182.26C56.8963 182.24 56.9157 182.225 56.9378 182.215C56.96 182.204 56.9843 182.2 57.0087 182.201C57.0649 182.202 57.119 182.222 57.1625 182.258C57.206 182.293 57.2363 182.343 57.2486 182.397C57.2555 182.421 57.2567 182.446 57.2521 182.47C57.2475 182.494 57.2372 182.516 57.2222 182.535C57.2072 182.555 57.1878 182.57 57.1656 182.58C57.1435 182.591 57.1192 182.595 57.0948 182.594C57.0392 182.591 56.986 182.57 56.9429 182.535C56.8998 182.499 56.869 182.451 56.8548 182.397Z" fill="#C7C7C7"/>
<path d="M54.3253 183.671H52.0794L51.7656 182.201H54.0115L54.3253 183.671Z" fill="#C7C7C7"/>
<path d="M52.0801 183.671L52.1785 184.145L52.5662 183.671H52.0801Z" fill="#C7C7C7"/>
<path d="M53.6675 182.595H52.2769L52.2461 182.453H53.6367L53.6675 182.595Z" fill="white"/>
<path d="M53.729 182.884H52.3384L52.3076 182.748H53.7044L53.729 182.884Z" fill="white"/>
<path d="M53.7902 183.173H52.3996L52.375 183.037H53.7656L53.7902 183.173Z" fill="white"/>
<path d="M155.724 178.435H18.5331L17.5732 173.912H154.764L155.724 178.435Z" fill="#37474F"/>
<path d="M21.6463 176.171C21.6855 176.305 21.6922 176.446 21.6659 176.583C21.6396 176.72 21.5811 176.849 21.4951 176.959C21.4091 177.069 21.2982 177.157 21.1715 177.216C21.0448 177.275 20.9059 177.302 20.7664 177.297C20.4478 177.283 20.1423 177.166 19.8967 176.963C19.6511 176.759 19.479 176.481 19.4066 176.171C19.3686 176.037 19.3628 175.896 19.3896 175.76C19.4165 175.624 19.4752 175.496 19.5611 175.386C19.6469 175.277 19.7574 175.19 19.8835 175.131C20.0095 175.073 20.1477 175.045 20.2865 175.051C20.6043 175.064 20.9091 175.18 21.1546 175.382C21.4001 175.584 21.5728 175.861 21.6463 176.171Z" fill="#C7C7C7"/>
<path d="M26.2307 176.171C26.2686 176.305 26.2742 176.447 26.247 176.584C26.2198 176.721 26.1606 176.849 26.0742 176.959C25.9878 177.069 25.8767 177.157 25.7499 177.215C25.6231 177.274 25.4842 177.302 25.3446 177.297C25.0266 177.281 24.7221 177.163 24.4769 176.96C24.2317 176.757 24.059 176.48 23.9848 176.171C23.9466 176.036 23.9409 175.895 23.968 175.758C23.9952 175.622 24.0545 175.493 24.141 175.384C24.2276 175.274 24.3389 175.187 24.4658 175.129C24.5927 175.071 24.7315 175.044 24.8708 175.051C25.1886 175.064 25.4935 175.18 25.739 175.382C25.9845 175.584 26.1571 175.861 26.2307 176.171Z" fill="white"/>
<path d="M30.8202 176.171C30.8593 176.305 30.866 176.446 30.8397 176.583C30.8134 176.72 30.7549 176.849 30.6689 176.959C30.5829 177.069 30.472 177.157 30.3453 177.216C30.2186 177.275 30.0798 177.302 29.9403 177.297C29.6217 177.283 29.3162 177.166 29.0706 176.963C28.825 176.759 28.6528 176.481 28.5804 176.171C28.5424 176.037 28.5366 175.896 28.5635 175.76C28.5903 175.624 28.6491 175.496 28.7349 175.386C28.8207 175.277 28.9312 175.19 29.0573 175.131C29.1834 175.073 29.3215 175.045 29.4603 175.051C29.7781 175.064 30.0829 175.18 30.3284 175.382C30.5739 175.584 30.7466 175.861 30.8202 176.171Z" fill="#2B5AAC"/>
<path d="M155.723 178.435H60.9219L77.7384 257.546H172.54L155.723 178.435Z" fill="#EBEBEB"/>
<path d="M164.35 253.731H85.6271L84.6426 249.122H163.372L164.35 253.731Z" fill="white"/>
<path d="M162.774 251.485C162.813 251.621 162.82 251.764 162.793 251.903C162.766 252.041 162.706 252.171 162.619 252.282C162.532 252.394 162.42 252.482 162.292 252.542C162.164 252.601 162.023 252.629 161.882 252.624C161.56 252.609 161.252 252.49 161.003 252.284C160.755 252.079 160.579 251.799 160.504 251.485C160.466 251.349 160.46 251.207 160.488 251.068C160.516 250.93 160.576 250.8 160.664 250.69C160.752 250.579 160.864 250.491 160.993 250.433C161.121 250.374 161.261 250.347 161.402 250.353C161.723 250.367 162.03 250.485 162.278 250.689C162.525 250.894 162.7 251.173 162.774 251.485Z" fill="#2B5AAC"/>
<path d="M161.291 250.833L162.134 251.485L161.574 252.144L161.396 251.99L161.821 251.485L161.181 250.987L161.291 250.833Z" fill="white"/>
<path d="M86.722 252.802H86.4205L85.8359 250.052H86.1374L86.722 252.802Z" fill="#263238"/>
<path d="M167.42 253.768C167.394 253.767 167.368 253.758 167.346 253.741C167.325 253.725 167.31 253.702 167.304 253.676L167.07 252.568C167.066 252.557 167.064 252.544 167.066 252.532C167.068 252.52 167.073 252.509 167.08 252.499C167.087 252.489 167.097 252.481 167.108 252.476C167.119 252.471 167.131 252.469 167.144 252.47C167.171 252.471 167.197 252.482 167.218 252.5C167.239 252.517 167.254 252.541 167.26 252.568L167.494 253.676C167.497 253.687 167.497 253.698 167.495 253.71C167.493 253.721 167.488 253.731 167.48 253.74C167.473 253.749 167.464 253.756 167.454 253.761C167.443 253.766 167.432 253.768 167.42 253.768Z" fill="#A6A6A6"/>
<path d="M168.036 253.768H166.806C166.779 253.767 166.753 253.758 166.732 253.742C166.71 253.725 166.695 253.702 166.689 253.676C166.686 253.664 166.686 253.652 166.688 253.641C166.691 253.629 166.695 253.619 166.703 253.609C166.71 253.6 166.719 253.592 166.729 253.586C166.739 253.581 166.751 253.578 166.763 253.577H167.993C168.021 253.578 168.048 253.588 168.069 253.606C168.09 253.624 168.105 253.648 168.11 253.676C168.113 253.687 168.113 253.698 168.111 253.71C168.108 253.721 168.103 253.731 168.096 253.74C168.089 253.749 168.08 253.756 168.07 253.761C168.059 253.766 168.048 253.768 168.036 253.768Z" fill="#A6A6A6"/>
<path d="M167.421 249.904L167.759 251.51C167.786 251.603 167.789 251.701 167.77 251.796C167.751 251.892 167.71 251.981 167.65 252.057C167.59 252.133 167.513 252.194 167.425 252.235C167.337 252.275 167.241 252.295 167.144 252.291C166.988 252.285 166.835 252.243 166.698 252.167C166.561 252.091 166.444 251.984 166.356 251.854C166.282 251.751 166.229 251.634 166.203 251.51L165.858 249.904C165.832 249.81 165.828 249.712 165.847 249.617C165.866 249.522 165.907 249.433 165.967 249.357C166.027 249.28 166.104 249.219 166.192 249.179C166.28 249.138 166.376 249.119 166.473 249.122C166.699 249.121 166.918 249.202 167.089 249.35C167.255 249.481 167.374 249.662 167.427 249.867C167.427 249.867 167.421 249.891 167.421 249.904Z" fill="#A6A6A6"/>
<path d="M167.199 252.679C166.888 252.673 166.589 252.562 166.349 252.365C166.086 252.161 165.901 251.872 165.826 251.547L165.685 250.87C165.681 250.858 165.68 250.846 165.682 250.834C165.683 250.822 165.688 250.811 165.695 250.801C165.703 250.791 165.712 250.783 165.723 250.778C165.734 250.773 165.747 250.771 165.759 250.771C165.786 250.773 165.812 250.783 165.832 250.801C165.852 250.819 165.865 250.843 165.87 250.87L166.017 251.547C166.081 251.817 166.235 252.058 166.454 252.23C166.665 252.404 166.931 252.496 167.205 252.488C167.319 252.483 167.431 252.451 167.532 252.396C167.633 252.341 167.72 252.264 167.786 252.17C167.852 252.076 167.897 251.969 167.915 251.855C167.934 251.742 167.927 251.626 167.894 251.516L167.759 250.87C167.754 250.858 167.753 250.846 167.755 250.834C167.757 250.822 167.762 250.811 167.769 250.801C167.776 250.791 167.786 250.783 167.797 250.778C167.808 250.773 167.82 250.771 167.832 250.771C167.859 250.773 167.885 250.783 167.905 250.801C167.926 250.819 167.939 250.843 167.943 250.87L168.085 251.516C168.124 251.649 168.133 251.789 168.11 251.925C168.087 252.062 168.033 252.191 167.952 252.303C167.871 252.416 167.766 252.508 167.644 252.573C167.522 252.638 167.386 252.674 167.248 252.679H167.199Z" fill="#A6A6A6"/>
<path d="M83.4613 251.448C83.5343 251.723 83.5428 252.011 83.4862 252.29C83.4295 252.568 83.3092 252.83 83.1347 253.055C82.9602 253.279 82.7362 253.46 82.4801 253.584C82.224 253.708 81.9428 253.771 81.6584 253.768C81.0062 253.74 80.3806 253.501 79.8758 253.087C79.3709 252.673 79.014 252.107 78.8587 251.473C78.7857 251.198 78.7772 250.91 78.8339 250.631C78.8905 250.352 79.0108 250.091 79.1853 249.866C79.3598 249.641 79.5839 249.46 79.8399 249.337C80.096 249.213 80.3772 249.15 80.6616 249.153C81.3144 249.179 81.941 249.417 82.4462 249.831C82.9515 250.245 83.3078 250.813 83.4613 251.448Z" fill="white"/>
<path d="M80.2853 250.974C80.2972 251.013 80.2996 251.054 80.2924 251.094C80.2851 251.133 80.2684 251.171 80.2437 251.203C80.219 251.235 80.1869 251.26 80.1503 251.277C80.1136 251.294 80.0734 251.302 80.033 251.3C79.9406 251.298 79.8516 251.265 79.7794 251.208C79.7072 251.15 79.6558 251.07 79.6331 250.98C79.6225 250.941 79.6212 250.9 79.6293 250.861C79.6374 250.821 79.6548 250.784 79.6799 250.752C79.7051 250.72 79.7373 250.695 79.7741 250.678C79.8108 250.661 79.8511 250.653 79.8915 250.654C79.9831 250.657 80.0713 250.69 80.1425 250.748C80.2136 250.806 80.2638 250.885 80.2853 250.974Z" fill="#A6A6A6"/>
<path d="M82.5068 250.968C82.5187 251.007 82.5211 251.048 82.5139 251.088C82.5066 251.127 82.4899 251.165 82.4652 251.197C82.4405 251.229 82.4084 251.254 82.3718 251.271C82.3351 251.288 82.2949 251.296 82.2545 251.294C82.1624 251.29 82.0741 251.256 82.003 251.197C81.932 251.138 81.882 251.058 81.8607 250.968C81.8489 250.93 81.8465 250.889 81.8537 250.849C81.8609 250.809 81.8776 250.772 81.9023 250.74C81.9271 250.708 81.9591 250.682 81.9958 250.665C82.0324 250.648 82.0726 250.64 82.113 250.642C82.2052 250.646 82.2934 250.68 82.3645 250.739C82.4356 250.798 82.4855 250.878 82.5068 250.968Z" fill="#A6A6A6"/>
<path d="M81.5282 250.87C81.5532 250.974 81.5378 251.084 81.4851 251.178C81.4501 251.236 81.4004 251.283 81.3409 251.316C81.2814 251.348 81.2144 251.364 81.1467 251.362C80.9874 251.36 80.8352 251.296 80.7221 251.184C80.6359 251.1 80.576 250.993 80.5498 250.876L81.5282 250.87Z" fill="#A6A6A6"/>
<path d="M81.4856 251.178C81.4507 251.236 81.4009 251.283 81.3415 251.316C81.282 251.348 81.2149 251.364 81.1472 251.362C80.9879 251.36 80.8357 251.296 80.7227 251.184C80.7683 251.137 80.8229 251.101 80.8833 251.076C80.9436 251.052 81.0083 251.04 81.0734 251.042C81.2217 251.043 81.366 251.09 81.4856 251.178Z" fill="#DBDBDB"/>
<path d="M28.5628 193.326L28.2736 193.59L27.4614 192.747L27.166 192.44C27.2097 192.423 27.2495 192.398 27.2829 192.366C27.3489 192.305 27.3941 192.226 27.4121 192.138L27.726 192.464L28.5628 193.326Z" fill="#A6A6A6"/>
<path d="M27.4671 191.357C27.3076 191.161 27.0793 191.033 26.8288 191C26.5783 190.967 26.3246 191.03 26.1196 191.178C26.0386 191.271 25.9769 191.379 25.9383 191.496C25.8996 191.612 25.8848 191.736 25.8945 191.859C25.9042 191.981 25.9384 192.101 25.9951 192.21C26.0517 192.319 26.1296 192.416 26.2242 192.495C26.3731 192.666 26.5744 192.784 26.7968 192.829C27.0192 192.875 27.2504 192.846 27.4548 192.747C27.4951 192.726 27.5324 192.699 27.5656 192.667C27.6291 192.61 27.6813 192.541 27.7194 192.464C27.7951 192.276 27.8115 192.069 27.7665 191.871C27.7214 191.673 27.6169 191.494 27.4671 191.357ZM27.2825 192.366C27.249 192.398 27.2092 192.423 27.1656 192.44C27.0464 192.485 26.9161 192.492 26.7926 192.46C26.6691 192.428 26.5587 192.359 26.4765 192.261C26.4199 192.215 26.3732 192.158 26.3391 192.093C26.3049 192.028 26.2841 191.957 26.2778 191.885C26.2715 191.812 26.2798 191.738 26.3023 191.669C26.3248 191.599 26.361 191.535 26.4088 191.48C26.5334 191.394 26.685 191.358 26.8348 191.377C26.9846 191.396 27.122 191.47 27.221 191.584C27.2938 191.655 27.3489 191.742 27.382 191.839C27.4151 191.935 27.4253 192.037 27.4117 192.138C27.3962 192.23 27.3508 192.314 27.2825 192.378V192.366Z" fill="#A6A6A6"/>
<path d="M32.2484 192.698C32.253 192.693 32.2587 192.688 32.265 192.686C32.2714 192.683 32.2783 192.681 32.2853 192.681C32.2923 192.681 32.2992 192.683 32.3055 192.686C32.3119 192.688 32.3176 192.693 32.3222 192.698C32.5001 192.832 32.7151 192.907 32.9375 192.913C33.0621 192.92 33.1846 192.88 33.2821 192.803C33.3198 192.775 33.3486 192.737 33.3649 192.693C33.3813 192.649 33.3846 192.602 33.3744 192.556C33.3631 192.507 33.3406 192.461 33.3086 192.421C33.2766 192.382 33.2359 192.35 33.1898 192.329C33.0596 192.258 32.918 192.21 32.7714 192.187C32.6217 192.169 32.4773 192.121 32.3468 192.046C32.2895 192.017 32.2389 191.976 32.1986 191.926C32.1582 191.877 32.1291 191.819 32.113 191.756C32.1002 191.699 32.1038 191.639 32.1234 191.584C32.1429 191.528 32.1777 191.479 32.2238 191.443C32.3295 191.357 32.4631 191.313 32.5991 191.32C32.7988 191.335 32.9915 191.401 33.159 191.51C33.1675 191.522 33.1721 191.536 33.1721 191.55C33.1721 191.565 33.1675 191.579 33.159 191.59C33.155 191.595 33.1499 191.6 33.144 191.602C33.1381 191.605 33.1317 191.607 33.1252 191.607C33.1187 191.607 33.1122 191.605 33.1064 191.602C33.1005 191.6 33.0954 191.595 33.0914 191.59C32.9434 191.489 32.7717 191.427 32.5929 191.412C32.4784 191.409 32.366 191.443 32.273 191.51C32.2386 191.538 32.2124 191.574 32.1972 191.615C32.182 191.656 32.1784 191.701 32.1868 191.744C32.2003 191.788 32.2226 191.828 32.2522 191.863C32.2818 191.898 32.3182 191.927 32.3591 191.947C32.4783 192.011 32.6072 192.055 32.7406 192.076C32.9027 192.099 33.0592 192.151 33.2021 192.23C33.2639 192.262 33.3183 192.306 33.3618 192.36C33.4053 192.414 33.4368 192.477 33.4544 192.544C33.4664 192.606 33.4613 192.671 33.4396 192.73C33.4179 192.79 33.3805 192.842 33.3313 192.883C33.2173 192.971 33.0757 193.017 32.9314 193.012C32.6895 192.997 32.4569 192.914 32.2607 192.772C32.2508 192.763 32.2442 192.75 32.242 192.737C32.2398 192.724 32.242 192.71 32.2484 192.698Z" fill="#A6A6A6"/>
<path d="M33.7561 192.421C33.7356 192.352 33.7318 192.279 33.745 192.209C33.7581 192.138 33.7878 192.071 33.8316 192.014C33.8754 191.957 33.9321 191.911 33.9971 191.88C34.062 191.85 34.1334 191.835 34.2053 191.837C34.3613 191.845 34.5106 191.903 34.6321 192.001C34.7535 192.099 34.841 192.233 34.8821 192.384C34.883 192.391 34.8824 192.398 34.8803 192.405C34.8782 192.412 34.8747 192.418 34.8701 192.423C34.8654 192.428 34.8597 192.432 34.8533 192.435C34.8468 192.438 34.8399 192.44 34.8329 192.44H33.8976C33.9315 192.562 34.0023 192.67 34.1003 192.751C34.1983 192.831 34.3188 192.879 34.4452 192.889C34.5164 192.893 34.5871 192.875 34.6469 192.836C34.7068 192.797 34.7526 192.74 34.7775 192.673C34.7877 192.664 34.8008 192.659 34.8144 192.659C34.828 192.659 34.8412 192.664 34.8513 192.673C34.866 192.68 34.8778 192.692 34.8846 192.707C34.8914 192.721 34.8927 192.738 34.8883 192.753C34.8537 192.835 34.7953 192.905 34.7207 192.953C34.6461 193.001 34.5587 193.026 34.4698 193.024C34.3005 193.018 34.1382 192.955 34.0088 192.846C33.8794 192.737 33.7904 192.587 33.7561 192.421ZM33.8607 192.329H34.7467C34.7041 192.224 34.6332 192.133 34.542 192.065C34.4508 191.998 34.3428 191.957 34.2299 191.947C34.1798 191.945 34.13 191.954 34.0835 191.973C34.0371 191.992 33.9951 192.02 33.9602 192.056C33.9254 192.092 33.8986 192.135 33.8814 192.182C33.8643 192.229 33.8572 192.279 33.8607 192.329Z" fill="#A6A6A6"/>
<path d="M36.1743 191.892L36.3958 192.95C36.3977 192.957 36.3979 192.964 36.3967 192.971C36.3954 192.978 36.3927 192.985 36.3886 192.991C36.3845 192.997 36.3791 193.002 36.373 193.005C36.3668 193.009 36.3599 193.011 36.3528 193.012C36.3365 193.01 36.3214 193.003 36.3093 192.992C36.2972 192.981 36.2887 192.966 36.2851 192.95L36.2482 192.778C36.2101 192.849 36.1532 192.908 36.0838 192.95C36.0144 192.991 35.9351 193.012 35.8544 193.012C35.6895 192.998 35.5338 192.93 35.4114 192.819C35.289 192.708 35.2068 192.559 35.1775 192.396C35.1549 192.329 35.1487 192.258 35.1594 192.188C35.17 192.118 35.1973 192.052 35.2389 191.994C35.2804 191.937 35.3351 191.891 35.3983 191.859C35.4615 191.827 35.5314 191.811 35.6021 191.812C35.6951 191.815 35.7866 191.837 35.8711 191.876C35.9556 191.915 36.0315 191.971 36.0943 192.039L36.0574 191.867C36.0574 191.83 36.0574 191.812 36.1005 191.812C36.111 191.811 36.1217 191.812 36.1316 191.816C36.1415 191.819 36.1504 191.825 36.1576 191.833C36.1648 191.841 36.17 191.85 36.1729 191.86C36.1758 191.871 36.1763 191.881 36.1743 191.892ZM36.1743 192.421C36.1452 192.295 36.0772 192.182 35.9801 192.097C35.8829 192.012 35.7614 191.959 35.6329 191.947C35.5763 191.948 35.5208 191.963 35.4708 191.989C35.4208 192.015 35.3776 192.053 35.3447 192.099C35.3118 192.145 35.2902 192.198 35.2814 192.254C35.2727 192.31 35.2772 192.367 35.2944 192.421C35.3236 192.547 35.3915 192.66 35.4887 192.745C35.5859 192.83 35.7073 192.883 35.8359 192.895C35.8919 192.893 35.9467 192.878 35.9959 192.851C36.0452 192.824 36.0876 192.786 36.1198 192.74C36.1519 192.695 36.1731 192.642 36.1815 192.586C36.1899 192.531 36.1853 192.474 36.1682 192.421H36.1743Z" fill="#A6A6A6"/>
<path d="M36.672 191.892C36.6697 191.885 36.6693 191.877 36.6709 191.87C36.6724 191.863 36.6758 191.856 36.6808 191.85C36.6858 191.845 36.6921 191.84 36.6992 191.838C36.7063 191.836 36.7138 191.835 36.7212 191.837C36.7366 191.838 36.7512 191.844 36.7633 191.854C36.7753 191.864 36.7842 191.877 36.7889 191.892L36.8442 192.15C36.8747 192.066 36.9307 191.992 37.0045 191.94C37.0783 191.889 37.1663 191.861 37.2565 191.861C37.2722 191.862 37.2873 191.868 37.2994 191.878C37.3116 191.888 37.3203 191.901 37.3242 191.917C37.3242 191.953 37.3242 191.978 37.2811 191.978C37.2179 191.978 37.156 191.996 37.1026 192.03C37.0492 192.063 37.0065 192.112 36.9796 192.169C36.9384 192.254 36.9113 192.346 36.8996 192.44L37.0104 192.956C37.0104 192.993 37.0104 193.018 36.9673 193.018C36.9503 193.016 36.9342 193.009 36.921 192.998C36.9079 192.987 36.8983 192.973 36.8935 192.956L36.672 191.892Z" fill="#A6A6A6"/>
<path d="M37.6939 192.421C37.6738 192.35 37.6714 192.274 37.6866 192.202C37.7019 192.129 37.7345 192.061 37.7816 192.004C37.8287 191.946 37.8889 191.901 37.9572 191.872C38.0255 191.843 38.0998 191.831 38.1738 191.837C38.3172 191.838 38.4568 191.883 38.5738 191.966C38.5822 191.977 38.5868 191.991 38.5868 192.006C38.5868 192.02 38.5822 192.034 38.5738 192.046C38.5626 192.055 38.5484 192.06 38.5338 192.06C38.5191 192.06 38.5049 192.055 38.4938 192.046C38.3983 191.978 38.2845 191.942 38.1676 191.941C38.1078 191.937 38.0479 191.947 37.9929 191.971C37.9379 191.995 37.8894 192.032 37.8515 192.078C37.8135 192.124 37.7872 192.179 37.7748 192.238C37.7623 192.296 37.7641 192.357 37.78 192.415C37.8125 192.553 37.8914 192.675 38.0035 192.761C38.1155 192.847 38.2539 192.892 38.3953 192.889C38.4995 192.891 38.6006 192.853 38.6784 192.784C38.6895 192.775 38.7037 192.769 38.7183 192.769C38.733 192.769 38.7472 192.775 38.7583 192.784C38.7583 192.784 38.7583 192.846 38.7583 192.864C38.6645 192.95 38.541 192.996 38.4138 192.993C38.2481 192.988 38.0886 192.93 37.9589 192.827C37.8291 192.724 37.7362 192.581 37.6939 192.421Z" fill="#A6A6A6"/>
<path d="M39.9829 192.298C39.9569 192.199 39.8987 192.111 39.8174 192.049C39.736 191.987 39.6362 191.953 39.5337 191.954C39.489 191.948 39.4436 191.953 39.4015 191.969C39.3594 191.985 39.3219 192.012 39.2926 192.046C39.2633 192.08 39.2429 192.121 39.2335 192.165C39.224 192.209 39.2257 192.255 39.2384 192.298L39.3737 192.95C39.3638 192.954 39.3529 192.954 39.343 192.95H39.2937L39.1584 192.298L38.9676 191.406C38.9657 191.399 38.9653 191.392 38.9666 191.386C38.9678 191.379 38.9707 191.373 38.9749 191.367C38.9791 191.362 38.9846 191.357 38.9908 191.355C38.997 191.352 39.0038 191.35 39.0107 191.351C39.0275 191.35 39.0439 191.355 39.0573 191.365C39.0708 191.375 39.0804 191.39 39.0845 191.406L39.2199 192.021C39.2554 191.966 39.3047 191.921 39.363 191.891C39.4213 191.861 39.4866 191.846 39.5522 191.849C39.6919 191.845 39.829 191.888 39.9408 191.972C40.0527 192.056 40.1326 192.175 40.1675 192.31L40.3029 192.963C40.3047 192.97 40.305 192.977 40.3037 192.984C40.3025 192.991 40.2997 192.998 40.2956 193.003C40.2915 193.009 40.2862 193.014 40.28 193.018C40.2738 193.021 40.2669 193.024 40.2598 193.024C40.2425 193.023 40.2259 193.017 40.2126 193.006C40.1993 192.995 40.1899 192.98 40.186 192.963L39.9829 192.298Z" fill="#A6A6A6"/>
<path d="M41.2808 192.421C41.2607 192.35 41.2583 192.274 41.2735 192.202C41.2888 192.129 41.3214 192.061 41.3685 192.004C41.4156 191.946 41.4758 191.901 41.5441 191.872C41.6124 191.843 41.6867 191.831 41.7607 191.837C41.9041 191.838 42.0437 191.883 42.1607 191.966C42.1692 191.977 42.1737 191.991 42.1737 192.006C42.1737 192.02 42.1692 192.034 42.1607 192.046C42.1495 192.055 42.1353 192.06 42.1207 192.06C42.106 192.06 42.0918 192.055 42.0807 192.046C41.9852 191.978 41.8714 191.942 41.7546 191.941C41.6948 191.937 41.6349 191.947 41.5798 191.971C41.5248 191.995 41.4763 192.032 41.4384 192.078C41.4004 192.124 41.3741 192.179 41.3617 192.238C41.3493 192.296 41.351 192.357 41.3669 192.415C41.3994 192.553 41.4783 192.675 41.5904 192.761C41.7024 192.847 41.8408 192.892 41.9822 192.889C42.0864 192.891 42.1875 192.853 42.2653 192.784C42.2764 192.775 42.2906 192.769 42.3053 192.769C42.3199 192.769 42.3341 192.775 42.3453 192.784C42.3453 192.784 42.3453 192.846 42.3453 192.864C42.2514 192.95 42.1279 192.996 42.0007 192.993C41.8351 192.988 41.6755 192.93 41.5458 192.827C41.4161 192.724 41.3231 192.581 41.2808 192.421Z" fill="#A6A6A6"/>
<path d="M43.5391 192.298C43.5132 192.199 43.4549 192.111 43.3736 192.049C43.2923 191.986 43.1925 191.953 43.09 191.953C43.0453 191.948 42.9998 191.953 42.9577 191.969C42.9156 191.985 42.8782 192.011 42.8489 192.046C42.8195 192.08 42.7992 192.121 42.7897 192.165C42.7802 192.209 42.7819 192.255 42.7946 192.298L42.93 192.95C42.9201 192.954 42.9091 192.954 42.8992 192.95H42.85L42.7085 192.298L42.5116 191.387C42.5096 191.381 42.5092 191.374 42.5105 191.367C42.5118 191.36 42.5146 191.354 42.5188 191.349C42.5231 191.343 42.5285 191.339 42.5347 191.336C42.541 191.333 42.5478 191.332 42.5546 191.332C42.5714 191.331 42.5879 191.337 42.6013 191.347C42.6147 191.357 42.6243 191.371 42.6285 191.387L42.7577 192.003C42.795 191.948 42.8456 191.903 42.9048 191.873C42.9639 191.843 43.0298 191.828 43.0961 191.83C43.2359 191.826 43.3729 191.869 43.4848 191.953C43.5966 192.037 43.6766 192.156 43.7114 192.292L43.8468 192.944C43.8487 192.951 43.8489 192.959 43.8473 192.967C43.8457 192.974 43.8424 192.981 43.8376 192.987C43.8328 192.993 43.8267 192.998 43.8198 193.001C43.8128 193.004 43.8052 193.006 43.7976 193.006C43.7814 193.003 43.7662 192.996 43.7541 192.985C43.742 192.974 43.7335 192.96 43.7299 192.944L43.5391 192.298Z" fill="#A6A6A6"/>
<path d="M45.1391 191.892L45.3606 192.95C45.3624 192.957 45.3627 192.964 45.3614 192.972C45.3602 192.979 45.3574 192.985 45.3533 192.991C45.3492 192.997 45.3439 193.002 45.3377 193.005C45.3315 193.009 45.3246 193.011 45.3175 193.012C45.3013 193.01 45.2861 193.003 45.274 192.992C45.2619 192.981 45.2535 192.966 45.2498 192.95L45.2129 192.778C45.1748 192.849 45.118 192.909 45.0486 192.95C44.9792 192.991 44.8998 193.012 44.8191 193.012C44.6539 192.998 44.4978 192.93 44.3745 192.819C44.2513 192.708 44.1676 192.559 44.1361 192.397C44.1148 192.329 44.1097 192.258 44.1213 192.188C44.1329 192.118 44.1608 192.052 44.2028 191.995C44.2448 191.938 44.2997 191.892 44.3629 191.86C44.4262 191.828 44.4961 191.812 44.5668 191.812C44.6599 191.815 44.7513 191.837 44.8359 191.876C44.9204 191.915 44.9963 191.971 45.0591 192.04L45.0222 191.867C45.0222 191.83 45.0222 191.812 45.0652 191.812C45.0854 191.814 45.1042 191.823 45.1179 191.838C45.1316 191.852 45.1391 191.872 45.1391 191.892ZM45.1391 192.421C45.11 192.295 45.042 192.182 44.9448 192.097C44.8476 192.012 44.7262 191.96 44.5976 191.947C44.5411 191.949 44.4856 191.963 44.4355 191.989C44.3855 192.016 44.3423 192.053 44.3095 192.099C44.2766 192.145 44.2549 192.198 44.2462 192.254C44.2375 192.31 44.2419 192.367 44.2592 192.421C44.2883 192.547 44.3563 192.66 44.4535 192.745C44.5506 192.831 44.6721 192.883 44.8007 192.895C44.8567 192.893 44.9115 192.878 44.9607 192.851C45.0099 192.824 45.0523 192.787 45.0845 192.741C45.1167 192.695 45.1378 192.642 45.1462 192.587C45.1546 192.531 45.1501 192.475 45.1329 192.421H45.1391Z" fill="#A6A6A6"/>
<path d="M46.0436 191.892C46.0456 191.899 46.0459 191.906 46.0447 191.912C46.0434 191.919 46.0405 191.925 46.0363 191.931C46.0321 191.936 46.0267 191.941 46.0204 191.943C46.0142 191.946 46.0074 191.948 46.0005 191.947H45.8528L46.0313 192.803C46.0367 192.827 46.0499 192.848 46.0689 192.864C46.0878 192.879 46.1114 192.888 46.1359 192.889C46.1527 192.891 46.1684 192.898 46.1815 192.909C46.1945 192.92 46.2043 192.934 46.2097 192.95C46.2116 192.958 46.2118 192.965 46.2102 192.973C46.2086 192.98 46.2053 192.987 46.2005 192.993C46.1957 192.999 46.1896 193.004 46.1827 193.007C46.1757 193.011 46.1681 193.012 46.1605 193.012C46.1015 193.011 46.0445 192.99 45.9996 192.952C45.9546 192.914 45.9245 192.861 45.9144 192.803L45.7298 191.947H45.5883C45.5329 191.947 45.5267 191.947 45.5206 191.892C45.5144 191.837 45.5206 191.837 45.5636 191.837H45.7113L45.619 191.4C45.6172 191.393 45.6169 191.386 45.6182 191.379C45.6194 191.372 45.6222 191.365 45.6263 191.359C45.6304 191.353 45.6357 191.348 45.6419 191.345C45.6481 191.341 45.655 191.339 45.6621 191.338C45.6621 191.338 45.7359 191.369 45.7359 191.4L45.8344 191.837H45.9821C45.9967 191.839 46.0103 191.845 46.0213 191.855C46.0323 191.865 46.04 191.878 46.0436 191.892Z" fill="#A6A6A6"/>
<path d="M64.6195 195.756H22.2305V195.91H64.6195V195.756Z" fill="#A6A6A6"/>
<path d="M63.0873 188.532H20.6982V188.686H63.0873V188.532Z" fill="#A6A6A6"/>
<path d="M39.484 267.791H24.7842V270.086H39.484V267.791Z" fill="#2B5AAC"/>
<path opacity="0.1" d="M39.484 267.791H24.7842V269.305H39.484V267.791Z" fill="black"/>
<path d="M7.33339 261.626C8.35946 263.184 9.89172 264.342 11.6717 264.902C13.4517 265.462 15.3706 265.392 17.1046 264.702C17.835 264.415 18.5322 264.05 19.1843 263.613L17.3384 260.844C16.9919 261.084 16.6231 261.29 16.237 261.459C12.7358 263.047 10.5207 260.29 10.0838 259.657C8.06561 256.826 7.34569 250.359 9.38854 247.873C9.5239 247.689 10.1146 247.393 12.4651 247.873C12.902 247.972 13.3942 248.083 13.9542 248.236C14.3902 248.386 14.8426 248.483 15.3017 248.526L15.3571 246.864L15.5232 245.203C15.3694 245.203 15.1294 245.111 14.8218 245.024C13.7261 244.705 12.6068 244.472 11.4745 244.329C9.73311 244.151 7.91178 244.329 6.79191 245.732C3.46921 249.855 4.8106 258.075 7.33339 261.626Z" fill="#2B5AAC"/>
<path opacity="0.1" d="M17.3133 260.875C16.9668 261.115 16.598 261.321 16.2119 261.49L17.1041 264.727C17.8345 264.439 18.5318 264.074 19.1839 263.638L17.3133 260.875Z" fill="black"/>
<path opacity="0.1" d="M11.4678 244.391L12.4584 247.935C12.8953 248.033 13.3876 248.144 13.9475 248.298C14.3836 248.447 14.8359 248.545 15.295 248.587L15.3504 246.926L15.5165 245.264C15.3627 245.264 15.1227 245.172 14.8151 245.086C13.7194 244.766 12.6002 244.533 11.4678 244.391Z" fill="black"/>
<path d="M51.6853 240.053C51.6853 240.053 49.9255 255.036 46.8797 261.349C43.8339 267.662 39.582 268.351 36.9362 268.351H27.3311C24.6853 268.351 20.4334 267.649 17.3876 261.349C14.3418 255.048 12.582 240.053 12.582 240.053H51.6853Z" fill="#2B5AAC"/>
<path d="M131.529 203.515H216.843V167.858H131.529V203.515Z" fill="#455A64"/>
<path d="M216.843 178.374V167.858H227.789L216.843 178.374Z" fill="#455A64"/>
<path d="M210.333 174.023H138.033V174.7H210.333V174.023Z" fill="white"/>
<path d="M189.461 177.678H138.033V178.355H189.461V177.678Z" fill="white"/>
<path d="M202.069 185.001H138.033V185.678H202.069V185.001Z" fill="white"/>
<path d="M210.333 188.656H138.033V189.332H210.333V188.656Z" fill="white"/>
<path d="M210.333 192.317H138.033V192.993H210.333V192.317Z" fill="white"/>
<path d="M182.484 195.978H138.033V196.655H182.484V195.978Z" fill="white"/>
<path d="M205.176 102.13H119.862V132.219H205.176V102.13Z" fill="#2B5AAC"/>
<path d="M119.875 112.652V102.13H108.923L119.875 112.652Z" fill="#2B5AAC"/>
<path d="M181.991 107.686H126.496V108.363H181.991V107.686Z" fill="white"/>
<path d="M198.796 111.347H126.496V112.024H198.796V111.347Z" fill="white"/>
<path d="M198.796 115.009H126.496V115.686H198.796V115.009Z" fill="white"/>
<path d="M190.833 118.664H126.496V119.34H190.833V118.664Z" fill="white"/>
<path d="M198.796 122.325H126.496V123.001H198.796V122.325Z" fill="white"/>
<path d="M172.54 125.986H126.496V126.663H172.54V125.986Z" fill="white"/>
<path d="M205.176 137.086H119.862V159.397H205.176V137.086Z" fill="#2B5AAC"/>
<path d="M119.875 147.602V137.086H108.923L119.875 147.602Z" fill="#2B5AAC"/>
<path d="M198.617 142.642H126.496V143.319H198.617V142.642Z" fill="white"/>
<path d="M180.859 146.303H126.496V146.98H180.859V146.303Z" fill="white"/>
<path d="M189.16 149.958H126.496V150.635H189.16V149.958Z" fill="white"/>
<path d="M168.374 153.62H126.496V154.296H168.374V153.62Z" fill="white"/>
<path d="M205.176 210.45H119.862V231.032H205.176V210.45Z" fill="#2B5AAC"/>
<path d="M119.863 220.966V210.45H108.91L119.863 220.966Z" fill="#2B5AAC"/>
<path d="M193.209 216.006H126.496V216.683H193.209V216.006Z" fill="white"/>
<path d="M175.93 219.661H126.496V220.338H175.93V219.661Z" fill="white"/>
<path d="M188.569 223.322H126.496V223.999H188.569V223.322Z" fill="white"/>
<path d="M250.9 188.422C261.781 188.422 270.602 179.601 270.602 168.719C270.602 157.838 261.781 149.017 250.9 149.017C240.018 149.017 231.197 157.838 231.197 168.719C231.197 179.601 240.018 188.422 250.9 188.422Z" fill="#A6A6A6"/>
<mask id="mask0_1956_6490" style="mask-type:luminance" maskUnits="userSpaceOnUse" x="231" y="142" width="40" height="47">
<path d="M270.608 168.719C270.614 171.593 269.988 174.433 268.775 177.038C267.561 179.643 265.791 181.949 263.588 183.795C262.131 185.019 260.507 186.028 258.764 186.791C258.561 186.883 258.351 186.97 258.148 187.05L257.81 187.179C256.695 187.603 255.541 187.914 254.364 188.108C253.228 188.322 252.074 188.427 250.918 188.422C250.232 188.422 249.546 188.385 248.863 188.311C248.57 188.289 248.279 188.252 247.989 188.2C247.645 188.151 247.3 188.096 246.956 188.016C246.849 188.003 246.744 187.98 246.642 187.948C246.125 187.843 245.608 187.708 245.104 187.554C244.599 187.4 244.021 187.191 243.491 186.976L243.362 186.914C243.26 186.882 243.161 186.841 243.067 186.791C242.415 186.514 241.782 186.196 241.172 185.837C238.377 184.251 236.014 182.004 234.288 179.294C232.561 176.583 231.525 173.492 231.268 170.289C231.011 167.086 231.542 163.868 232.815 160.918C234.088 157.967 236.063 155.373 238.569 153.361C238.772 152.604 238.981 151.878 239.184 151.214C235.782 148.906 237.289 144.537 237.892 143.614C238.495 142.692 240.624 144.931 240.624 144.931C240.624 144.931 241.307 142.212 242.089 142.039C242.87 141.867 243.424 143.658 243.424 143.658C243.424 143.658 249.251 142.612 254.284 143.504C259.317 144.396 261.053 149.854 261.053 149.854C261.053 149.854 263.668 150.82 264.252 152.838C264.346 153.291 264.346 153.758 264.252 154.21C266.259 156.057 267.86 158.3 268.954 160.797C270.048 163.295 270.611 165.993 270.608 168.719Z" fill="white"/>
</mask>
<g mask="url(#mask0_1956_6490)">
<path d="M245.263 181.776L247.005 189.677L259.754 180.256L264.326 184.465C264.326 184.465 254.087 196.408 245.78 196.408C241.424 196.408 240.568 186.409 240.568 186.409L245.263 181.776Z" fill="#2B5AAC"/>
<path d="M247.257 190.76C250.463 191.757 256.401 187.167 258.887 183.284C259.053 183.019 258.831 180.072 258.733 176.485C258.677 174.306 258.671 171.876 258.825 169.661C258.862 169.205 244.673 172.073 244.673 172.073C245.276 174.903 245.528 177.796 245.424 180.687C245.4 180.993 245.347 181.296 245.264 181.592C245.264 181.629 245.264 181.684 245.264 181.739C244.857 183.432 244.162 189.794 247.257 190.76Z" fill="#DD6A57"/>
<path d="M258.013 169.648C257.047 173.513 254.001 182.299 246.685 181.955C246.207 181.935 245.732 181.875 245.264 181.776C245.264 181.721 245.264 181.666 245.264 181.629C245.35 181.334 245.404 181.031 245.424 180.724V180.687C245.511 179.251 245.478 177.811 245.325 176.38C245.18 174.957 244.962 173.542 244.673 172.141L244.765 172.079C245.879 171.839 255.17 169.968 258.013 169.648Z" fill="#263238"/>
<path d="M260.031 152.019C261.742 156.893 259.742 171.254 256.37 174.583C251.478 179.407 243.165 180.201 238.993 174.251C234.945 168.485 237.88 149.811 241.676 146.752C247.275 142.254 257.496 144.826 260.031 152.019Z" fill="#DD6A57"/>
<path d="M258.763 164.074C255.398 163.563 255.65 157.355 255.65 157.355C255.65 157.355 250.008 155.546 249.811 151.072C249.811 151.072 243.805 153.761 239.726 151.558C235.646 149.355 237.264 144.611 237.88 143.639C238.495 142.667 240.612 144.956 240.612 144.956C240.612 144.956 241.295 142.236 242.076 142.064C242.858 141.892 243.411 143.682 243.411 143.682C243.411 143.682 249.245 142.642 254.265 143.528C259.286 144.414 261.034 149.878 261.034 149.878C261.034 149.878 263.643 150.851 264.24 152.869C264.837 154.887 260.905 164.375 258.763 164.074Z" fill="#263238"/>
<path d="M246.18 161.976C246.18 161.939 246.248 162.031 246.241 162.068C246.081 163.034 246.057 164.166 246.894 164.603C246.894 164.603 246.894 164.664 246.894 164.658C245.854 164.363 245.897 162.843 246.18 161.976Z" fill="#263238"/>
<path d="M247.202 161.077C248.777 161.169 248.482 164.307 247.023 164.227C245.565 164.147 245.885 160.997 247.202 161.077Z" fill="#263238"/>
<path d="M240.556 161.612C240.556 161.575 240.476 161.649 240.476 161.692C240.414 162.664 240.18 163.772 239.245 164.012V164.067C240.359 164.006 240.642 162.535 240.556 161.612Z" fill="#263238"/>
<path d="M239.787 160.499C238.23 160.234 237.812 163.36 239.251 163.606C240.691 163.852 241.085 160.726 239.787 160.499Z" fill="#263238"/>
<path d="M248.579 159.767C248.179 159.606 247.787 159.425 247.404 159.225C246.962 159.091 246.577 158.814 246.309 158.438C246.247 158.303 246.232 158.153 246.265 158.009C246.299 157.865 246.379 157.737 246.494 157.644C246.748 157.496 247.036 157.418 247.33 157.418C247.624 157.418 247.913 157.496 248.167 157.644C248.731 157.865 249.193 158.285 249.466 158.825C249.516 158.951 249.529 159.089 249.503 159.222C249.478 159.356 249.415 159.479 249.322 159.578C249.229 159.676 249.11 159.747 248.978 159.78C248.847 159.814 248.708 159.809 248.579 159.767Z" fill="#263238"/>
<path d="M238.722 158.807C239.153 158.761 239.58 158.692 240.002 158.597C240.462 158.59 240.906 158.43 241.264 158.142C241.36 158.03 241.416 157.89 241.423 157.742C241.429 157.595 241.386 157.45 241.301 157.33C241.099 157.116 240.844 156.96 240.561 156.877C240.279 156.795 239.98 156.79 239.695 156.862C239.093 156.923 238.534 157.203 238.126 157.65C238.04 157.757 237.987 157.888 237.974 158.024C237.961 158.161 237.987 158.299 238.05 158.421C238.113 158.543 238.21 158.645 238.329 158.713C238.449 158.782 238.585 158.814 238.722 158.807Z" fill="#263238"/>
<path d="M246.247 171.088C245.995 171.291 245.731 171.58 245.374 171.58C245.013 171.536 244.666 171.419 244.352 171.236C244.352 171.236 244.291 171.236 244.309 171.279C244.429 171.484 244.602 171.652 244.81 171.766C245.018 171.88 245.253 171.935 245.491 171.925C245.694 171.893 245.884 171.801 246.035 171.66C246.186 171.52 246.292 171.338 246.34 171.137C246.358 171.082 246.284 171.057 246.247 171.088Z" fill="#263238"/>
<path d="M245.509 168.135C245.221 168.492 244.862 168.787 244.454 168.998C244.046 169.21 243.599 169.335 243.14 169.365C242.739 169.398 242.335 169.375 241.941 169.298L241.713 169.248L241.504 169.193C241.453 169.176 241.41 169.144 241.379 169.101C241.348 169.058 241.331 169.006 241.331 168.953C241.328 168.92 241.328 168.887 241.331 168.855V168.775C241.387 168.018 241.584 166.886 241.584 166.886C241.294 166.996 239.83 167.501 239.892 167.089C240.433 163.864 241.03 160.283 242.242 157.194C242.25 157.173 242.265 157.155 242.285 157.144C242.305 157.133 242.328 157.13 242.351 157.136C242.373 157.141 242.392 157.154 242.405 157.173C242.418 157.192 242.423 157.215 242.42 157.237C242.027 160.351 241.085 163.391 240.642 166.504C241.162 166.324 241.705 166.218 242.254 166.19C242.359 166.233 241.842 168.375 241.842 168.713V168.75C243.073 169.045 244.076 168.75 245.386 168.049C245.503 167.987 245.565 168.061 245.509 168.135Z" fill="#263238"/>
<path d="M242.433 169.088C242.812 169.652 243.332 170.108 243.94 170.411C244.274 170.568 244.649 170.616 245.011 170.547C245.805 170.387 245.866 169.673 245.761 169.051C245.702 168.722 245.605 168.4 245.472 168.092C244.591 168.74 243.526 169.089 242.433 169.088Z" fill="#263238"/>
<path d="M243.94 170.411C244.274 170.568 244.649 170.616 245.011 170.547C245.805 170.387 245.866 169.673 245.762 169.052C245.35 169.043 244.947 169.172 244.617 169.418C244.287 169.664 244.049 170.014 243.94 170.411Z" fill="#FF99BA"/>
<path d="M257.477 163.766C257.477 163.766 260.597 159.083 262.714 160.185C264.83 161.286 262.56 168.03 260.123 169.002C259.819 169.147 259.488 169.229 259.151 169.243C258.815 169.257 258.478 169.203 258.163 169.085C257.848 168.966 257.559 168.784 257.316 168.551C257.072 168.318 256.878 168.038 256.745 167.729L257.477 163.766Z" fill="#DD6A57"/>
<path d="M262.018 162.154C262.055 162.154 262.061 162.203 262.018 162.221C260.307 162.954 259.44 164.572 258.843 166.246C259.341 165.593 260.03 165.23 260.898 165.821C260.941 165.852 260.898 165.926 260.855 165.913C260.55 165.823 260.224 165.831 259.923 165.934C259.622 166.038 259.36 166.233 259.175 166.492C258.863 166.922 258.601 167.386 258.394 167.876C258.314 168.03 258.037 167.956 258.092 167.778C258.09 167.764 258.09 167.749 258.092 167.735C258.025 165.538 259.661 162.431 262.018 162.154Z" fill="#263238"/>
<path d="M245.423 180.779L247.133 188.951L258.892 178.447L261.821 181.745C261.821 181.745 250.352 198.359 250.278 197.614L246.795 190.581L241.965 195.553L243.903 183.198L245.423 180.779Z" fill="white"/>
<path d="M243.824 183.315C243.824 183.241 243.965 183.204 243.965 183.315C243.854 185.837 242.248 193.074 242.279 194.944C242.482 194.729 246.753 190.563 246.802 190.637C247.546 191.751 250.088 196.87 250.26 197.338C251.884 194.944 259.428 185.105 261.268 182.607C261.277 182.591 261.292 182.579 261.31 182.573C261.328 182.568 261.347 182.57 261.363 182.579C261.379 182.588 261.392 182.603 261.397 182.621C261.402 182.639 261.4 182.658 261.391 182.675C260.025 185.456 250.494 198.378 250.371 198.341C249.047 195.909 247.854 193.41 246.796 190.852C246.076 191.757 241.768 196.452 241.75 196.15C241.596 194.107 243.134 185.844 243.824 183.315Z" fill="#263238"/>
</g>
<path d="M100.254 222.022C108.082 214.193 108.082 201.5 100.254 193.671C92.4247 185.842 79.7317 185.842 71.9029 193.671C64.0741 201.5 64.0741 214.193 71.9029 222.022C79.7317 229.85 92.4247 229.85 100.254 222.022Z" fill="#A6A6A6"/>
<mask id="mask1_1956_6490" style="mask-type:luminance" maskUnits="userSpaceOnUse" x="66" y="182" width="41" height="46">
<path d="M106.135 207.841C106.14 211.353 105.223 214.806 103.475 217.852C101.727 220.899 99.2092 223.433 96.174 225.201C93.1388 226.969 89.6925 227.908 86.18 227.925C82.6676 227.943 79.2122 227.037 76.1598 225.299C73.1074 223.561 70.5649 221.052 68.787 218.023C67.0091 214.994 66.058 211.55 66.029 208.038C66 204.526 66.8941 201.067 68.6217 198.009C70.3494 194.951 72.85 192.4 75.8733 190.612C76.8025 187.622 79.2206 184.773 84.5985 183.425C95.1327 180.792 97.4709 188.391 97.6924 189.215C97.6924 189.215 97.6924 189.215 97.6924 189.246C97.6948 189.256 97.6948 189.267 97.6924 189.277C98.0597 190.25 98.374 191.242 98.6338 192.249C100.972 194.12 102.861 196.492 104.159 199.191C105.457 201.89 106.132 204.846 106.135 207.841Z" fill="white"/>
</mask>
<g mask="url(#mask1_1956_6490)">
<path d="M91.8219 221.132L90.0437 229.131L77.922 220.812L74.9131 225.255C74.9131 225.255 82.8445 235.986 91.2928 235.986C95.7292 235.986 96.5968 225.815 96.5968 225.815L91.8219 221.132Z" fill="#2B5AAC"/>
<path d="M89.7915 230.269C86.5303 231.285 80.4879 226.614 77.959 222.664C77.7867 222.393 78.0143 219.397 78.1189 215.742C78.1682 213.527 78.1805 211.059 78.0205 208.807C77.9897 208.34 79.6203 209.084 79.6203 209.084L82.5861 209.583L92.3942 211.262C92.3942 211.262 91.3359 216.08 91.6312 220.006C91.6539 220.318 91.7075 220.627 91.7912 220.929C91.7912 220.972 91.7912 221.021 91.7912 221.077C92.2281 222.818 92.9665 229.297 89.7915 230.269Z" fill="#EB9481"/>
<path d="M91.791 220.978C91.791 221.021 91.791 221.07 91.791 221.132C91.3146 221.23 90.831 221.29 90.345 221.31C80.8076 221.76 78.7832 209.736 78.7832 209.736L82.5551 209.638L92.3632 211.311C92.3632 211.311 91.3049 216.136 91.6002 220.061C91.6324 220.373 91.6963 220.68 91.791 220.978Z" fill="#263238"/>
<path d="M76.796 190.859C75.0546 195.812 77.0852 210.426 80.5186 213.816C85.4965 218.738 93.9509 219.532 98.2027 213.478C102.319 207.607 99.3288 188.607 95.4646 185.499C89.7729 180.921 79.3741 183.536 76.796 190.859Z" fill="#EB9481"/>
<path d="M90.8628 200.993C90.8628 200.956 90.7951 201.048 90.8013 201.085C90.9612 202.069 90.9859 203.22 90.1367 203.663C90.1367 203.663 90.1367 203.731 90.1367 203.718C91.2197 203.417 91.1766 201.885 90.8628 200.993Z" fill="#263238"/>
<path d="M89.8472 200.076C88.2474 200.168 88.5489 203.362 90.0318 203.276C91.5147 203.19 91.1886 199.996 89.8472 200.076Z" fill="#263238"/>
<path d="M96.6034 200.605C96.6034 200.562 96.6896 200.642 96.6896 200.685C96.7511 201.676 96.9911 202.802 97.9202 203.048V203.103C96.8065 203.054 96.505 201.553 96.6034 200.605Z" fill="#263238"/>
<path d="M97.3906 199.485C98.972 199.214 99.3965 202.396 97.9321 202.648C96.4676 202.9 96.0431 199.713 97.3906 199.485Z" fill="#263238"/>
<path d="M88.4443 198.735C88.8688 198.581 89.238 198.372 89.6441 198.181C90.0914 198.044 90.4807 197.762 90.7517 197.381C90.8143 197.245 90.8302 197.092 90.7968 196.946C90.7634 196.801 90.6826 196.67 90.5671 196.575C90.3086 196.423 90.0145 196.344 89.7149 196.344C89.4153 196.344 89.1212 196.423 88.8627 196.575C88.2893 196.796 87.8196 197.224 87.5459 197.775C87.4948 197.903 87.4812 198.043 87.5067 198.178C87.5322 198.314 87.5958 198.439 87.6901 198.54C87.7843 198.641 87.9053 198.713 88.0389 198.747C88.1725 198.782 88.3131 198.777 88.4443 198.735Z" fill="#263238"/>
<path d="M98.5046 197.762C98.0686 197.715 97.6353 197.645 97.2063 197.553C96.738 197.543 96.2861 197.378 95.9203 197.086C95.8227 196.971 95.7655 196.828 95.7578 196.677C95.75 196.527 95.792 196.379 95.8772 196.255C96.0846 196.038 96.3463 195.88 96.6351 195.798C96.9239 195.715 97.2295 195.712 97.5201 195.787C98.1306 195.842 98.6978 196.125 99.1076 196.581C99.1958 196.69 99.2505 196.822 99.2651 196.962C99.2796 197.102 99.2534 197.242 99.1896 197.367C99.1258 197.492 99.0272 197.596 98.9056 197.666C98.784 197.736 98.6448 197.77 98.5046 197.762Z" fill="#263238"/>
<path d="M90.8191 210.253C91.0775 210.462 91.3421 210.758 91.7051 210.758C92.0725 210.715 92.4268 210.596 92.745 210.407C92.7478 210.404 92.7513 210.401 92.7551 210.399C92.759 210.397 92.7631 210.396 92.7674 210.396C92.7717 210.396 92.776 210.396 92.7801 210.398C92.7841 210.399 92.7879 210.401 92.7911 210.404C92.7944 210.407 92.797 210.41 92.7989 210.414C92.8008 210.418 92.8019 210.422 92.8022 210.426C92.8025 210.431 92.802 210.435 92.8006 210.439C92.7992 210.443 92.797 210.447 92.7942 210.45C92.6698 210.663 92.489 210.837 92.2718 210.953C92.0546 211.069 91.8095 211.123 91.5636 211.109C91.357 211.075 91.1649 210.982 91.0116 210.839C90.8583 210.697 90.7506 210.512 90.7021 210.309C90.7083 210.253 90.7821 210.223 90.8191 210.253Z" fill="#263238"/>
<path d="M91.4219 207.62C92.431 208.438 95.8029 208.438 95.8152 208.327L95.5383 205.958C95.8337 206.075 97.3104 206.574 97.2489 206.18C96.7443 202.906 96.1782 199.264 94.9784 196.107C94.9707 196.086 94.9554 196.068 94.9353 196.057C94.9153 196.046 94.8919 196.043 94.8698 196.048C94.8476 196.054 94.8282 196.067 94.8153 196.086C94.8024 196.105 94.7969 196.128 94.7999 196.15C95.163 199.319 96.0798 202.402 96.4982 205.577C95.9708 205.39 95.4199 205.279 94.8615 205.245C94.7569 205.288 95.2553 207.466 95.2553 207.81C94.0259 207.865 92.7966 207.701 91.6249 207.324C91.2373 207.201 91.1511 207.404 91.4219 207.62Z" fill="#263238"/>
<path d="M78.5746 202.66C79.8052 202.346 80.9989 198.255 81.0358 194.28C81.0358 191.726 82.0819 188.502 84.9308 187.542C86.8259 186.927 90.124 188.465 92.0069 188.003C93.8898 187.542 94.2405 186.465 95.3542 186.496C96.4679 186.527 97.7109 189.265 97.7109 189.265C97.7109 189.265 95.7234 180.614 84.5985 183.395C72.9075 186.33 75.2334 196.366 76.3594 199.584C77.2332 202.07 78.5746 202.66 78.5746 202.66Z" fill="#263238"/>
<path d="M79.4298 202.839C79.4298 202.839 76.2486 198.076 74.095 199.196C71.9414 200.316 74.255 207.195 76.7347 208.161C77.0433 208.31 77.3789 208.395 77.7212 208.411C78.0635 208.426 78.4055 208.373 78.7264 208.252C79.0473 208.132 79.3406 207.948 79.5884 207.711C79.8362 207.475 80.0334 207.19 80.1681 206.875L79.4298 202.839Z" fill="#EB9481"/>
<path d="M74.778 201.165C74.7714 201.168 74.7658 201.173 74.7619 201.179C74.758 201.185 74.7559 201.192 74.7559 201.199C74.7559 201.206 74.758 201.213 74.7619 201.219C74.7658 201.225 74.7714 201.23 74.778 201.233C76.5194 201.983 77.4054 203.632 78.0146 205.331C77.5039 204.672 76.784 204.297 75.9225 204.9C75.8733 204.9 75.9225 205.004 75.9656 204.992C76.2762 204.902 76.607 204.91 76.9131 205.015C77.2191 205.119 77.4855 205.315 77.6762 205.577C77.987 206.019 78.2529 206.491 78.4699 206.986C78.5438 207.146 78.833 207.072 78.7776 206.887C78.7739 206.873 78.7739 206.858 78.7776 206.844C78.8145 204.611 77.1716 201.448 74.778 201.165Z" fill="#263238"/>
</g>
<path d="M82.98 127.179C94.4968 127.179 103.833 117.843 103.833 106.326C103.833 94.8097 94.4968 85.4734 82.98 85.4734C71.4632 85.4734 62.127 94.8097 62.127 106.326C62.127 117.843 71.4632 127.179 82.98 127.179Z" fill="#A6A6A6"/>
<path d="M104.811 122.232H103.032C102.848 119.962 101.408 116.491 101.802 118.239C102.031 119.557 102.107 120.897 102.029 122.232H71.9036C71.5528 118.817 73.0788 113.199 73.0788 113.199C71.3375 116.024 70.6668 120.029 70.4145 122.232H67.5718C67.2764 120.189 68.0025 116.694 68.0025 116.694C67.221 118.067 66.7718 120.645 66.5442 122.232H63.3076C63.1846 118.817 64.3475 114.326 67.0734 110.252C69.2577 106.985 66.5503 105.083 66.6057 98.7211C66.6611 90.2544 72.4697 87.0301 73.4357 86.1195C86.5727 73.9485 98.4975 85.2457 99.7773 93.2879C101.008 101.152 98.7498 102.191 102.405 109.335C105.167 114.67 104.811 122.232 104.811 122.232Z" fill="#263238"/>
<path d="M69.3994 126.62C69.3994 126.62 69.4609 126.656 69.4856 126.681C73.8543 129.659 82.481 134.896 87.0959 133.234C90.6462 131.954 92.726 128.312 92.966 127.136C91.12 125.475 88.4434 123.961 87.262 123.174C80.4505 118.645 74.3158 121.359 69.3994 126.62Z" fill="#455A64"/>
<path d="M75.9778 124.041C76.2854 125.05 81.6202 131.37 86.2843 130.84C87.8041 130.662 87.2134 122.324 87.2134 122.324L87.3119 121.709L88.6656 112.953L78.1006 107.126L76.5746 106.363C76.5746 106.363 76.3654 108.781 76.1316 111.796L76.0947 112.227C76.0947 112.399 76.0578 112.559 76.0516 112.719C76.0085 113.169 75.9716 113.63 75.9409 114.085C75.9409 114.436 75.8916 114.775 75.8793 115.144C75.867 115.513 75.8424 115.87 75.824 116.239C75.698 118.84 75.7494 121.447 75.9778 124.041Z" fill="#AD6359"/>
<path d="M76.1318 111.772C77.165 114.136 78.7001 116.247 80.6307 117.959C82.5613 119.671 84.8411 120.942 87.3121 121.685L88.6658 112.929L78.1008 107.102L76.5749 106.339C76.5749 106.339 76.3533 108.775 76.1318 111.772Z" fill="#263238"/>
<path d="M99.4885 98.3702C101.95 113.753 93.0092 116.922 89.6927 117.445C86.6899 117.919 76.3896 119.156 72.3777 104.13C68.3659 89.1036 74.7344 83.1227 81.5521 81.6706C88.3697 80.2184 97.0518 83.0181 99.4885 98.3702Z" fill="#AD6359"/>
<path d="M73.6333 105.213C77.479 104.751 77.6205 92.8017 77.6205 91.3311C77.6636 92.2603 77.9343 97.152 78.3281 97.3182C78.7393 97.2721 79.1403 97.1599 79.5157 96.9859C79.4725 96.4001 79.4725 95.8119 79.5157 95.2261C79.5157 94.9553 79.6695 95.8045 79.9033 96.8505C80.1187 96.7705 80.3463 96.6782 80.5986 96.5921C80.4519 95.3458 80.4726 94.0856 80.6602 92.8448C80.734 92.3772 81.0293 94.4446 81.62 96.2167C84.8331 94.9837 88.1716 94.1067 91.5758 93.6017C92.5296 93.4847 93.3664 93.4294 94.1048 93.4048C93.9879 91.9588 93.6925 90.4389 93.8279 90.7589C94.1875 91.6058 94.4636 92.4858 94.6524 93.3863C95.0524 93.3863 95.4216 93.3863 95.7538 93.3863C95.6861 91.3434 94.4494 88.1746 94.8124 88.6422C95.9064 90.0937 96.7164 91.7388 97.1998 93.4909C98.6089 93.6447 99.0458 93.8847 99.0458 93.5217C99.0458 92.8694 97.8151 87.2393 93.0095 83.4243C87.8101 79.2894 78.0943 78.9449 73.2518 86.3902C73.2518 86.3902 69.0307 89.676 68.7169 94.4323C68.4031 99.1887 71.4304 105.471 73.6333 105.213Z" fill="#263238"/>
<path d="M93.0775 107.317C92.7497 107.984 92.256 108.557 91.6438 108.978C91.3008 109.196 90.8992 109.304 90.4932 109.286C89.6071 109.231 89.4287 108.468 89.4533 107.772C89.4696 107.406 89.5274 107.043 89.6256 106.69C90.6793 107.263 91.8893 107.483 93.0775 107.317Z" fill="white"/>
<path d="M96.2827 96.4874C95.9196 96.4874 95.5812 96.4012 95.2182 96.3582C94.8379 96.364 94.4662 96.2451 94.1598 96.0197C94.0758 95.9298 94.0242 95.8144 94.013 95.6919C94.0019 95.5693 94.0319 95.4465 94.0983 95.3429C94.2592 95.1596 94.466 95.0226 94.6974 94.9458C94.9288 94.869 95.1766 94.8553 95.4151 94.906C95.9176 94.9378 96.3899 95.1574 96.738 95.5213C96.8001 95.6102 96.8377 95.7138 96.8469 95.8218C96.8561 95.9298 96.8366 96.0383 96.7904 96.1364C96.7442 96.2344 96.6729 96.3185 96.5837 96.3801C96.4946 96.4418 96.3907 96.4788 96.2827 96.4874Z" fill="#263238"/>
<path d="M86.3149 97.7551C86.6718 97.6812 86.9917 97.552 87.3363 97.4474C87.7144 97.3848 88.062 97.2013 88.327 96.9244C88.3919 96.8214 88.421 96.6998 88.4099 96.5786C88.3988 96.4574 88.348 96.3432 88.2654 96.2537C88.0754 96.101 87.8481 96.0017 87.6069 95.966C87.3657 95.9303 87.1194 95.9595 86.8933 96.0506C86.4047 96.1666 85.9769 96.4606 85.6934 96.8752C85.6455 96.9741 85.6249 97.0842 85.6339 97.1938C85.6429 97.3034 85.6811 97.4086 85.7446 97.4985C85.808 97.5883 85.8944 97.6595 85.9947 97.7046C86.095 97.7498 86.2056 97.7672 86.3149 97.7551Z" fill="#263238"/>
<path d="M88.7206 101.484C88.7206 101.447 88.6406 101.545 88.6468 101.588C88.8006 102.634 88.7945 103.859 87.8838 104.314C87.853 104.314 87.8838 104.382 87.8838 104.376C89.0406 104.08 89.0283 102.45 88.7206 101.484Z" fill="#263238"/>
<path d="M87.656 100.487C85.9515 100.549 86.1977 103.957 87.779 103.902C89.3604 103.847 89.0896 100.438 87.656 100.487Z" fill="#263238"/>
<path d="M86.9976 100.696C86.7145 100.906 86.4499 101.269 86.0931 101.312C85.7362 101.355 85.3424 101.047 85.047 100.727C85.047 100.69 84.9855 100.727 84.9916 100.77C85.0286 101.422 85.3239 102.075 86.0315 102.124C86.7391 102.173 87.096 101.552 87.2129 100.893C87.2314 100.801 87.1145 100.635 86.9976 100.696Z" fill="#263238"/>
<path d="M94.5846 100.524C94.5846 100.487 94.6708 100.573 94.6708 100.616C94.6708 101.675 94.923 102.881 95.9014 103.17C95.9014 103.17 95.9014 103.231 95.9014 103.225C94.72 103.158 94.4431 101.533 94.5846 100.524Z" fill="#263238"/>
<path d="M95.4272 99.3611C97.1193 99.1211 97.4762 102.524 95.9072 102.745C94.3381 102.967 94.0366 99.5642 95.4272 99.3611Z" fill="#263238"/>
<path d="M96.1848 99.5148C96.474 99.6625 96.8002 99.964 97.0955 99.9517C97.3909 99.9394 97.7108 99.5394 97.9077 99.1641C97.9077 99.1272 97.9631 99.1641 97.9693 99.1948C98.0493 99.8409 97.9077 100.542 97.2986 100.733C96.6894 100.924 96.2648 100.389 96.0679 99.7609C96.0002 99.644 96.0741 99.4656 96.1848 99.5148Z" fill="#263238"/>
<path d="M89.1083 109.545C89.3667 109.791 89.6252 110.123 90.0128 110.16C90.407 110.139 90.7926 110.036 91.145 109.858C91.1523 109.856 91.1603 109.855 91.1677 109.858C91.1752 109.86 91.1818 109.864 91.1866 109.87C91.1914 109.877 91.1941 109.884 91.1943 109.892C91.1946 109.9 91.1924 109.907 91.1881 109.914C91.0447 110.127 90.8456 110.297 90.6124 110.406C90.3792 110.514 90.1208 110.557 89.8651 110.529C89.6475 110.48 89.4494 110.367 89.296 110.205C89.1426 110.043 89.0409 109.838 89.0037 109.618C88.9852 109.538 89.0652 109.514 89.1083 109.545Z" fill="#263238"/>
<path d="M93.1938 105.367C93.1938 105.367 93.5445 106.923 93.6061 107.662C93.6061 107.736 93.4399 107.785 93.1876 107.816C93.1876 107.816 93.1876 107.816 93.1569 107.816C92.5282 107.986 91.8648 107.979 91.2395 107.797C90.6143 107.614 90.0514 107.263 89.6127 106.782C89.5573 106.714 89.6127 106.628 89.7173 106.671C90.7189 107.241 91.8785 107.47 93.0215 107.323C93.0584 107.114 92.3324 104.677 92.4493 104.659C93.0316 104.663 93.6108 104.744 94.1722 104.899C93.5568 101.632 92.3816 98.4997 91.797 95.2385C91.7951 95.2155 91.8008 95.1924 91.8133 95.173C91.8259 95.1535 91.8445 95.1388 91.8663 95.131C91.8881 95.1233 91.9118 95.123 91.9338 95.1302C91.9558 95.1374 91.9748 95.1517 91.9878 95.1708C93.4276 98.3766 94.2398 102.118 94.9844 105.471C95.0828 105.896 93.5015 105.465 93.1938 105.367Z" fill="#263238"/>
<path d="M86.9487 106.763C86.0815 106.757 85.2334 106.508 84.5008 106.044C83.7682 105.58 83.1805 104.92 82.8046 104.138C82.4287 103.357 82.2797 102.486 82.3744 101.624C82.4692 100.762 82.804 99.9435 83.3408 99.2624C83.8775 98.5812 84.5947 98.0644 85.4106 97.7707C86.2266 97.4769 87.1086 97.4181 87.9563 97.6008C88.8041 97.7835 89.5835 98.2005 90.206 98.8043C90.8285 99.4081 91.269 100.174 91.4775 101.016C91.7713 102.209 91.58 103.47 90.9455 104.522C90.3111 105.574 89.2853 106.331 88.0932 106.628C87.7185 106.718 87.3343 106.764 86.9487 106.763ZM87.0041 98.1181C86.6703 98.1148 86.3374 98.1541 86.0135 98.235C85.0208 98.48 84.1589 99.0941 83.6033 99.9523C83.0476 100.81 82.84 101.848 83.0227 102.854C83.2055 103.86 83.7648 104.759 84.5868 105.366C85.4088 105.974 86.4316 106.246 87.447 106.126C88.4623 106.007 89.3938 105.504 90.0517 104.722C90.7096 103.939 91.0444 102.935 90.9879 101.914C90.9315 100.893 90.488 99.9324 89.7478 99.2272C89.0077 98.5219 88.0265 98.1253 87.0041 98.1181Z" fill="#2B5AAC"/>
<path d="M97.5076 105.533C95.7355 105.533 94.1418 103.687 93.8772 101.293C93.7278 100.148 93.9431 98.9856 94.4926 97.9703C94.7011 97.5178 95.0231 97.1268 95.4272 96.8354C95.8314 96.5439 96.304 96.3618 96.7992 96.3067C97.2944 96.2516 97.7955 96.3254 98.2538 96.5209C98.7121 96.7164 99.1121 97.0271 99.4151 97.4227C100.172 98.2963 100.637 99.3851 100.744 100.536C101.021 103.071 99.7166 105.311 97.8276 105.52C97.7215 105.534 97.6144 105.538 97.5076 105.533ZM97.0953 96.9181C97.0175 96.9118 96.9393 96.9118 96.8615 96.9181C96.4678 96.9767 96.0942 97.1299 95.7727 97.3646C95.4511 97.5993 95.1914 97.9085 95.0156 98.2657C94.5332 99.168 94.3439 100.198 94.4741 101.213C94.7202 103.416 96.1785 105.065 97.7291 104.905C99.2797 104.745 100.344 102.801 100.104 100.598C100.007 99.5775 99.5968 98.6123 98.929 97.835C98.7035 97.5635 98.4241 97.3418 98.1085 97.1839C97.7928 97.0261 97.4478 96.9356 97.0953 96.9181Z" fill="#2B5AAC"/>
<path d="M91.3786 101.564L90.9355 101.139C91.5509 100.475 93.0953 99.5088 94.3505 100.586L93.9444 101.053C92.8246 100.081 91.4401 101.509 91.3786 101.564Z" fill="#2B5AAC"/>
<path d="M70.9993 105.004L70.4209 104.782C70.5255 104.517 71.4731 102.142 72.8206 101.767C74.1682 101.392 82.4195 101.275 82.7764 101.269V101.884C80.389 101.921 73.959 102.087 72.9806 102.358C72.0023 102.628 71.2516 104.388 70.9993 105.004Z" fill="#2B5AAC"/>
<path d="M75.0051 104.923C75.0051 104.923 71.2763 100.321 69.1657 101.687C67.0552 103.053 70.101 109.889 72.7469 110.664C73.0797 110.787 73.4338 110.841 73.788 110.823C74.1423 110.805 74.4892 110.716 74.8081 110.561C75.1271 110.406 75.4113 110.188 75.644 109.92C75.8766 109.652 76.0527 109.34 76.1619 109.003L75.0051 104.923Z" fill="#AD6359"/>
<path d="M70.0886 103.625C70.082 103.628 70.0764 103.633 70.0724 103.639C70.0685 103.645 70.0664 103.652 70.0664 103.659C70.0664 103.666 70.0685 103.673 70.0724 103.679C70.0764 103.685 70.082 103.69 70.0886 103.693C71.9345 104.308 73.0236 105.908 73.7805 107.6C73.1959 106.985 72.4391 106.653 71.5899 107.354C71.5769 107.361 71.5673 107.374 71.5632 107.388C71.5592 107.402 71.5611 107.418 71.5684 107.431C71.5757 107.444 71.588 107.454 71.6024 107.458C71.6168 107.462 71.6323 107.46 71.6453 107.453C71.9597 107.321 72.3077 107.292 72.6393 107.371C72.971 107.449 73.2693 107.631 73.4913 107.889C73.8567 108.31 74.1745 108.771 74.4388 109.262C74.5373 109.415 74.8203 109.311 74.7465 109.132V109.089C74.5988 106.782 72.5806 103.681 70.0886 103.625Z" fill="#263238"/>
<mask id="mask2_1956_6490" style="mask-type:luminance" maskUnits="userSpaceOnUse" x="62" y="80" width="43" height="48">
<path d="M104.811 122.232H103.033C102.855 119.962 101.415 116.491 101.802 118.245C102.033 119.561 102.112 120.899 102.036 122.232H96.4984C94.8422 123.645 92.9732 124.787 90.9606 125.616C89.7814 126.109 88.5574 126.486 87.3056 126.742C85.8787 127.055 84.4222 127.211 82.9615 127.21C81.2629 127.21 79.5707 127.004 77.9221 126.595C75.8614 126.083 73.8933 125.253 72.0889 124.134C71.1531 123.574 70.2678 122.933 69.443 122.22H67.5971C67.5194 121.608 67.5009 120.99 67.5417 120.374C67.3571 120.159 67.1787 119.956 67.0002 119.759C66.8033 120.657 66.6618 121.555 66.5634 122.22H63.3084C63.2709 120.013 63.6251 117.817 64.3544 115.734C62.3529 111.765 61.6722 107.26 62.4116 102.877C63.151 98.4935 65.2719 94.4611 68.4647 91.368C70.2676 88.1807 72.8273 86.667 73.4303 86.1071H73.461C77.3683 80.44 84.1921 79.5417 89.3977 81.4738L89.5331 81.5168C95.1324 83.4489 99.0704 88.8698 99.7781 93.3001C99.8211 93.6139 99.8642 93.9154 99.9073 94.2108C101.662 96.6467 102.868 99.4338 103.443 102.38C104.017 105.327 103.947 108.363 103.236 111.28C105.088 116.301 104.811 122.232 104.811 122.232Z" fill="white"/>
</mask>
<g mask="url(#mask2_1956_6490)">
<path d="M92.966 127.155C92.726 128.311 90.6462 131.966 87.0959 133.24C82.481 134.908 73.8481 129.671 69.4794 126.699L69.3994 126.638C70.2353 125.734 71.1383 124.895 72.1006 124.127C73.9051 125.246 75.8732 126.077 77.9338 126.589C79.5824 126.997 81.2747 127.204 82.9733 127.204C84.4339 127.205 85.8904 127.048 87.3174 126.736C88.5692 126.48 89.7932 126.103 90.9723 125.61C91.6669 126.085 92.3326 126.601 92.966 127.155Z" fill="#455A64"/>
<path d="M87.3171 126.712C87.2741 128.754 87.0218 130.754 86.2834 130.834C83.2684 131.179 79.9764 128.662 77.9336 126.564C79.5822 126.973 81.2745 127.18 82.973 127.179C84.4337 127.181 85.8902 127.024 87.3171 126.712Z" fill="#DD6A57"/>
</g>
</svg>
