<svg width="357" height="344" viewBox="0 0 357 344" fill="none" xmlns="http://www.w3.org/2000/svg">
<g clip-path="url(#clip0_576_37586)">
<path d="M149.737 0.40332H42.5938V164.826H149.737V0.40332Z" fill="#DBDBDB"/>
<path d="M93.6766 6.98926H48.4336V80.1231H93.6766V6.98926Z" fill="white"/>
<path d="M143.89 6.98926H98.6465V80.1231H143.89V6.98926Z" fill="white"/>
<path d="M93.6766 85.1052H48.4336V158.239H93.6766V85.1052Z" fill="white"/>
<path d="M143.89 85.1052H98.6465V158.239H143.89V85.1052Z" fill="white"/>
<path d="M67.974 0.40332H42.5938V235.638H67.974V0.40332Z" fill="#EBEBEB"/>
<path d="M63.1566 11.5923L63.3499 37.0182L63.4224 62.4522L63.5594 113.32L63.4224 164.188L63.3499 189.622L63.1566 215.056L62.9553 189.622L62.8908 164.188L62.7539 113.32L62.8908 62.4522L62.9633 37.0182L63.1566 11.5923Z" fill="white"/>
<path d="M51.5014 17.4854L51.6947 40.1946L51.8074 62.9038L51.9041 108.33L51.8155 153.749L51.7027 176.458L51.5014 199.167L51.3081 176.458L51.1953 153.749L51.0986 108.33L51.1953 62.9038L51.3081 40.1946L51.5014 17.4854Z" fill="white"/>
<path d="M57.3334 22.8462L57.5267 49.4411L57.5992 76.0359L57.7281 129.218L57.5992 182.399L57.5267 208.994L57.3334 235.581L57.132 208.994L57.0595 182.399L56.9307 129.218L57.0595 76.0359L57.132 49.4411L57.3334 22.8462Z" fill="white"/>
<path d="M47.1684 12.9304L47.3617 40.7587L47.4342 68.595L47.5711 124.26L47.4342 179.924L47.3697 207.752L47.1684 235.581L46.975 207.752L46.9026 179.924L46.7656 124.26L46.9026 68.595L46.975 40.7587L47.1684 12.9304Z" fill="white"/>
<path d="M124.349 235.637H149.729L149.729 0.402863H124.349L124.349 235.637Z" fill="#EBEBEB"/>
<path d="M129.165 11.5923L129.359 37.0182L129.431 62.4522L129.568 113.32L129.431 164.188L129.367 189.622L129.165 215.056L128.972 189.622L128.9 164.188L128.763 113.32L128.9 62.4522L128.972 37.0182L129.165 11.5923Z" fill="white"/>
<path d="M140.821 17.4854L141.014 40.1946L141.127 62.9038L141.223 108.33L141.127 153.749L141.014 176.458L140.821 199.167L140.619 176.458L140.507 153.749L140.418 108.33L140.507 62.9038L140.619 40.1946L140.821 17.4854Z" fill="white"/>
<path d="M134.989 22.8462L135.191 49.4411L135.263 76.0359L135.392 129.218L135.263 182.399L135.191 208.994L134.989 235.581L134.796 208.994L134.724 182.399L134.595 129.218L134.724 76.0359L134.796 49.4411L134.989 22.8462Z" fill="white"/>
<path d="M145.154 12.9304L145.347 40.7587L145.42 68.595L145.556 124.26L145.42 179.924L145.347 207.752L145.154 235.581L144.952 207.752L144.888 179.924L144.751 124.26L144.888 68.595L144.952 40.7587L145.154 12.9304Z" fill="white"/>
<path d="M269.148 73.383C285.825 56.6914 285.825 29.6289 269.148 12.9373C252.47 -3.75438 225.43 -3.75438 208.753 12.9373C192.075 29.6289 192.075 56.6914 208.753 73.383C225.43 90.0747 252.47 90.0747 269.148 73.383Z" fill="#EBEBEB"/>
<path opacity="0.5" d="M251.959 83.8717C229.494 91.0625 205.459 78.6559 198.275 56.1805C191.09 33.697 203.478 9.64146 225.934 2.45061C234.561 -0.31448 243.421 -0.185496 251.476 2.29744C244.847 0.523916 237.646 0.580346 230.63 2.82144C211.098 9.07716 200.328 29.9887 206.579 49.5378C212.821 69.0869 233.723 79.8651 253.256 73.6094C272.788 67.3537 283.565 46.4341 277.315 26.8931C275.632 21.6208 272.885 16.9855 269.381 13.1563C273.94 17.7836 277.516 23.5234 279.627 30.1338C286.811 52.6173 274.423 76.6808 251.959 83.8717Z" fill="#DBDBDB"/>
<path d="M222.68 39.4852C223.695 42.6533 221.947 46.0391 218.781 47.0468C215.616 48.0626 212.233 46.3132 211.226 43.1451C210.211 39.9769 211.959 36.5911 215.125 35.5834C218.282 34.5757 221.665 36.325 222.68 39.4852Z" fill="#C7C7C7"/>
<path d="M261.527 27.0545C262.542 30.2226 260.794 33.6085 257.629 34.6162C254.464 35.6319 251.081 33.8826 250.074 30.7144C249.059 27.5462 250.807 24.1604 253.972 23.1527C257.13 22.145 260.513 23.8863 261.527 27.0545Z" fill="#C7C7C7"/>
<path d="M244.451 30.6013C245.104 32.6489 244.991 34.761 244.274 36.6233C243.324 39.0901 241.302 41.1296 238.579 42.0003C235.865 42.8709 233.038 42.3872 230.831 40.9281C229.172 39.8237 227.851 38.1711 227.198 36.1234L244.451 30.6013Z" fill="#C7C7C7"/>
<path d="M244.274 36.6234C243.324 39.0902 241.302 41.1297 238.58 42.0004C235.865 42.871 233.038 42.3873 230.831 40.9282C232.088 38.8241 234.158 37.1151 236.759 36.2848C239.361 35.4544 242.027 35.6399 244.274 36.6234Z" fill="#DBDBDB"/>
<path d="M337.545 135.042C341.563 118.522 331.439 101.87 314.933 97.8484C298.427 93.8272 281.789 103.96 277.771 120.48C273.753 137 283.877 153.652 300.383 157.673C316.889 161.695 333.527 151.562 337.545 135.042Z" fill="#EBEBEB"/>
<path opacity="0.5" d="M299.851 157.522C283.42 153.209 273.593 136.376 277.902 119.931C282.212 103.485 299.03 93.6504 315.453 97.9633C321.768 99.6239 327.1 103.123 331.039 107.742C327.696 104.098 323.298 101.349 318.16 100.003C303.871 96.2542 289.251 104.799 285.506 119.101C281.761 133.402 290.307 148.033 304.596 151.782C318.884 155.53 333.512 146.977 337.257 132.684C338.264 128.831 338.385 124.945 337.732 121.269C338.723 125.848 338.675 130.717 337.41 135.554C333.101 151.999 316.291 161.843 299.851 157.522Z" fill="#DBDBDB"/>
<path d="M327.6 126.686C326.996 129 324.628 130.386 322.308 129.782C319.996 129.177 318.611 126.807 319.215 124.485C319.819 122.164 322.187 120.785 324.507 121.39C326.818 121.994 328.204 124.364 327.6 126.686Z" fill="#C7C7C7"/>
<path d="M299.184 119.221C298.58 121.535 296.211 122.921 293.892 122.317C291.58 121.712 290.195 119.342 290.799 117.02C291.403 114.707 293.771 113.32 296.091 113.925C298.41 114.538 299.788 116.908 299.184 119.221Z" fill="#C7C7C7"/>
<path d="M302.107 118.044C302.148 119.979 302.631 121.858 303.638 123.317C304.653 124.776 306.215 125.703 307.947 126.17C309.663 126.67 311.475 126.638 313.086 125.88C314.697 125.13 316.098 123.792 317.202 122.204C316.638 124.066 315.398 125.792 313.617 126.88C312.731 127.428 311.7 127.742 310.653 127.863C309.606 127.952 308.551 127.831 307.552 127.557C306.57 127.267 305.603 126.848 304.749 126.243C303.904 125.622 303.163 124.824 302.671 123.905C301.689 122.059 301.552 119.915 302.107 118.044Z" fill="#C7C7C7"/>
<path d="M328.373 186.664H257.299V285.103H328.373V186.664Z" fill="#EBEBEB"/>
<path d="M331.82 183.012H253.859V186.664H331.82V183.012Z" fill="#DBDBDB"/>
<path d="M356.339 183.012H331.82V186.664H356.339V183.012Z" fill="#EBEBEB"/>
<path d="M352.456 186.664H328.373V285.103H352.456V186.664Z" fill="#DBDBDB"/>
<path d="M320.632 200.771H265.039V232.139H320.632V200.771Z" stroke="#C7C7C7" stroke-width="0.25" stroke-miterlimit="10"/>
<path d="M295.912 209.905H285.055V216.153H295.912V209.905Z" fill="#C7C7C7"/>
<path d="M299.118 210.373H288.261V215.677H299.118V210.373Z" stroke="#C7C7C7" stroke-width="0.25" stroke-miterlimit="10"/>
<path d="M320.632 240.402H265.039V271.769H320.632V240.402Z" stroke="#C7C7C7" stroke-width="0.25" stroke-miterlimit="10"/>
<path d="M295.912 249.535H285.055V255.783H295.912V249.535Z" fill="#C7C7C7"/>
<path d="M299.118 250.003H288.261V255.307H299.118V250.003Z" stroke="#C7C7C7" stroke-width="0.25" stroke-miterlimit="10"/>
<path d="M34.1285 158.045L23.5607 158.271L18.1963 158.36C16.4001 158.4 14.604 158.392 12.8078 158.408H12.4534V158.045L12.4131 149.025V148.622H12.8158L23.4802 148.67C27.0323 148.67 30.5925 148.759 34.1446 148.799H34.3701V149.017C34.354 150.548 34.2976 152.072 34.2654 153.571L34.1285 158.045ZM34.1285 158.045L34.0157 153.491C33.9754 151.991 33.9271 150.508 33.911 149.025L34.1285 149.242C30.5764 149.283 27.0162 149.371 23.4641 149.371L12.7997 149.42L13.2024 149.017L13.1622 158.037L12.7997 157.675C14.5556 157.691 16.3115 157.683 18.0755 157.715L23.3755 157.804L34.1285 158.045Z" fill="#EBEBEB"/>
<path d="M22.2315 169.42L11.6638 169.646L6.29936 169.735C4.50317 169.775 2.70698 169.767 0.910788 169.783H0.556383V169.42L0.5 160.399V159.996H0.902733L11.5671 160.045C15.1192 160.045 18.6794 160.133 22.2315 160.174H22.457V160.391C22.4409 161.923 22.3845 163.447 22.3523 164.946L22.2315 169.42ZM22.2315 169.42L22.1187 164.865C22.0784 163.366 22.0301 161.883 22.014 160.399L22.2315 160.617C18.6794 160.657 15.1192 160.746 11.5671 160.746L0.902733 160.802L1.30547 160.399L1.26519 169.42L0.902733 169.057C2.65865 169.074 4.41457 169.066 6.17854 169.098L11.4785 169.186L22.2315 169.42Z" fill="#EBEBEB"/>
<path d="M353.149 169.42L342.581 169.646L337.217 169.735C335.421 169.775 333.624 169.767 331.828 169.783H331.474V169.42L331.434 160.399V159.996H331.836L342.501 160.045C346.053 160.045 349.613 160.133 353.165 160.174H353.391V160.391C353.375 161.923 353.318 163.447 353.286 164.946L353.149 169.42ZM353.149 169.42L353.036 164.865C352.996 163.366 352.948 161.883 352.931 160.399L353.149 160.617C349.597 160.657 346.037 160.746 342.485 160.746L331.82 160.794L332.223 160.391L332.183 169.412L331.82 169.049C333.576 169.066 335.332 169.057 337.096 169.09L342.396 169.178L353.149 169.42Z" fill="#EBEBEB"/>
<path d="M341.253 9.42389L330.685 9.64961L325.321 9.73828C323.525 9.77859 321.728 9.77053 319.932 9.77859H319.578V9.41582L319.521 0.403075V0H319.924L330.589 0.048369C334.141 0.0564305 337.701 0.137045 341.253 0.177353H341.478V0.395013C341.462 1.9267 341.406 3.45032 341.374 4.94976L341.253 9.42389ZM341.253 9.42389L341.14 4.86914C341.1 3.3697 341.052 1.88639 341.035 0.403075L341.253 0.620735C337.701 0.661042 334.141 0.749719 330.589 0.749719L319.924 0.806149L320.327 0.403075L320.287 9.42389L319.924 9.06112C321.68 9.07724 323.436 9.06918 325.2 9.10949L330.5 9.19816L341.253 9.42389Z" fill="#EBEBEB"/>
<path d="M353.149 20.7986L342.581 21.0244L337.217 21.113C335.421 21.1533 333.624 21.1453 331.828 21.1614H331.474V20.7986L331.434 11.7778V11.3748H331.836L342.501 11.4231C346.053 11.4312 349.613 11.5118 353.165 11.5521H353.391V11.7698C353.375 13.3015 353.318 14.8251 353.286 16.3245L353.149 20.7986ZM353.149 20.7986L353.036 16.2439C352.996 14.7445 352.948 13.2611 352.931 11.7778L353.149 11.9955C349.597 12.0358 346.037 12.1245 342.485 12.1245L331.82 12.1728L332.223 11.7698L332.183 20.7906L331.82 20.4278C333.576 20.4439 335.332 20.4359 337.096 20.4762L342.396 20.5649L353.149 20.7986Z" fill="#EBEBEB"/>
<path d="M34.128 9.42389L23.5602 9.64961L18.1958 9.73828C16.3997 9.77859 14.6035 9.77053 12.8073 9.77859H12.4529V9.41582L12.3965 0.403075V0H12.7992L23.4636 0.048369C27.0157 0.0564305 30.5759 0.137045 34.128 0.177353H34.3535V0.395013C34.3374 1.9267 34.281 3.45032 34.2488 4.94976L34.128 9.42389ZM34.128 9.42389L34.0152 4.86914C33.9749 3.3697 33.9266 1.88639 33.9105 0.403075L34.128 0.620735C30.5759 0.661042 27.0157 0.749719 23.4636 0.749719L12.7992 0.806149L13.202 0.403075L13.1617 9.42389L12.7992 9.06112C14.5551 9.07724 16.311 9.06918 18.075 9.10949L23.375 9.19816L34.128 9.42389Z" fill="#EBEBEB"/>
<path d="M182.978 344C234.496 344 276.259 337.936 276.259 330.457C276.259 322.977 234.496 316.913 182.978 316.913C131.461 316.913 89.6973 322.977 89.6973 330.457C89.6973 337.936 131.461 344 182.978 344Z" fill="#EBEBEB"/>
<path d="M9.44922 285.103L52.8316 284.909L96.214 284.837L182.979 284.708L269.736 284.837L313.118 284.909L356.5 285.103L313.118 285.304L269.736 285.377L182.979 285.506L96.214 285.377L52.8316 285.304L9.44922 285.103Z" fill="#2B5AAC"/>
<path d="M61.1922 220.724C60.4592 223.86 59.6779 226.939 59.5249 230.156C59.6135 230.317 59.5974 230.897 59.5007 230.736C59.4846 231.252 58.6953 231.163 58.6953 230.647C58.7033 230.317 58.7114 229.978 58.7275 229.656C56.883 227.366 54.2169 225.915 52.0502 223.932C50.3023 222.32 49.0538 220.409 48.3934 218.104C46.5972 211.921 48.2806 205.375 46.122 199.208C44.2613 193.887 40.9347 189.268 38.1076 184.455C35.1273 179.36 32.9365 174.007 32.7109 168.042C32.5337 163.471 33.0814 157.385 36.553 153.966C40.234 150.331 44.809 153.056 47.6282 156.296C55.8117 165.696 59.5974 177.571 61.1278 189.711C61.9735 196.434 62.8515 203.19 62.6421 209.978C62.5454 213.622 62.0219 217.185 61.1922 220.724Z" fill="#6A6A6A"/>
<path d="M59.5651 232.623C59.992 226.27 59.9597 219.91 59.3395 213.581C59.3476 213.557 59.3717 213.541 59.3717 213.509C59.4765 208.366 59.8873 203.238 59.6778 198.087C59.4604 192.492 58.6388 187.003 57.4145 181.545C57.3984 181.48 57.3017 181.497 57.3178 181.561C58.3246 186.89 58.9126 192.323 59.1059 197.74C59.2107 200.651 59.1865 203.561 59.0335 206.463C58.9851 207.406 58.8965 208.357 58.8321 209.317V209.309C56.762 194.822 51.4137 181.085 43.5363 168.792C43.4316 168.622 43.1336 168.8 43.2383 168.977C48.9168 178.256 53.1052 188.446 55.6908 199.022C51.7601 191.727 45.8158 185.729 41.4018 178.715C41.3776 178.675 41.3132 178.715 41.3374 178.756C45.3003 186.559 51.8406 192.71 56.013 200.401C56.7379 203.537 57.3259 206.697 57.7689 209.881C58.373 214.25 58.6549 218.644 58.7193 223.054C56.3271 218.571 53.8382 214.283 51.8729 209.543C51.8245 209.414 51.6393 209.502 51.6795 209.631C53.3469 214.557 55.5861 219.861 58.7274 224.061C58.7435 227.181 58.6549 230.301 58.4696 233.413C57.9783 241.724 56.5607 249.923 55.9082 258.21C55.8921 258.46 56.2385 258.492 56.2868 258.25C58.0105 249.874 58.9932 241.144 59.5651 232.623Z" fill="#2B5AAC"/>
<path d="M50.7451 168.517C50.7209 168.461 50.6323 168.501 50.6565 168.558C52.1708 172.758 53.0326 177.006 54.128 181.311C54.1764 181.504 54.4583 181.464 54.4422 181.263C53.9911 176.901 52.4285 172.548 50.7451 168.517Z" fill="#2B5AAC"/>
<path d="M89.2624 186.116C88.2797 188.582 87.0554 190.969 85.7747 193.29C83.0442 198.256 80.1928 202.803 79.6773 208.583C79.4438 211.163 79.3632 213.758 78.5819 216.241C77.9053 218.394 76.8018 220.385 75.5292 222.239C72.5651 226.552 68.868 230.277 66.1213 234.751C63.27 239.402 61.1597 244.529 59.8709 249.834C59.8065 250.124 59.3474 250.043 59.4118 249.753C59.4199 249.729 59.4279 249.713 59.4279 249.689C59.4199 249.672 59.4037 249.656 59.4037 249.624C58.9688 237.225 59.9595 224.738 63.7372 212.864C65.3884 207.672 67.4262 202.505 69.7379 197.571C71.7596 193.266 74.2807 189.123 77.8328 185.906C80.1365 183.826 85.1384 179.892 88.4166 181.972C90.0034 182.988 89.8826 184.568 89.2624 186.116Z" fill="#6A6A6A"/>
<path d="M76.8183 214.218C74.6919 217.854 72.1788 221.231 69.6175 224.569C68.4173 226.133 67.2011 227.689 66.009 229.261C65.4451 230.002 64.8088 230.744 64.2933 231.534C64.6236 230.228 64.9377 228.922 65.2679 227.624C66.8628 221.36 68.4012 215.04 70.7854 209.018C73.1132 203.133 76.2062 197.603 79.3878 192.146C79.4683 192 79.2428 191.896 79.1542 192.041C76.5364 196.346 73.8784 200.65 71.6795 205.189C70.4471 207.728 69.4161 210.332 68.5059 212.993C69.5772 207.301 70.8579 201.835 72.7266 196.321C72.7427 196.273 72.6702 196.241 72.6541 196.289C70.3746 201.69 68.7314 207.777 68.2723 213.629C68.2723 213.638 68.2804 213.646 68.2804 213.654C67.7407 215.266 67.2494 216.886 66.7903 218.523C64.841 225.456 63.1254 232.461 61.5386 239.499C61.5628 234.855 61.8608 230.293 62.7307 225.714C62.7468 225.609 62.5938 225.585 62.5696 225.689C61.4178 230.405 60.9023 235.371 61.3695 240.224C60.7654 242.901 60.1854 245.577 59.6136 248.254C58.3973 253.969 56.8991 259.782 56.1903 265.586C56.1742 265.739 56.3836 265.771 56.4159 265.626C57.2616 262.498 57.7771 259.258 58.4698 256.089C59.1706 252.913 59.8874 249.745 60.6204 246.577C61.6997 241.966 62.8193 237.362 63.9711 232.767C64.7363 231.083 66.2184 229.591 67.3299 228.172C68.5462 226.625 69.7705 225.069 70.9545 223.497C73.1615 220.562 75.1913 217.515 76.915 214.266C76.9633 214.202 76.8586 214.153 76.8183 214.218Z" fill="#2B5AAC"/>
<path d="M77.3421 208.914C74.6599 212.364 72.2193 216.185 70.3023 220.111C70.2781 220.159 70.3587 220.216 70.3909 220.167C72.759 216.451 75.0948 212.703 77.4548 208.978C77.4951 208.922 77.3904 208.857 77.3421 208.914Z" fill="#2B5AAC"/>
<path d="M24.6241 197.869C26.227 200.634 28.0635 203.956 27.3708 207.277C26.9358 209.381 25.3974 211.09 25.1155 213.235C24.4953 217.967 29.2072 221.095 32.6224 223.336C41.1281 228.922 52.7913 233.896 54.3378 245.303C54.3942 245.706 55.0949 245.61 55.0466 245.214C55.0466 245.19 55.0385 245.166 55.0305 245.142C55.0466 245.118 55.0708 245.11 55.0708 245.077C56.1742 239.297 56.1501 233.412 54.9097 227.657C53.637 221.78 51.0756 216.499 48.0551 211.332C42.9404 202.593 37.5196 193.645 29.7791 186.954C27.6366 185.1 23.2468 181.771 21.5473 185.954C19.8799 190.001 22.6588 194.5 24.6241 197.869Z" fill="#6A6A6A"/>
<path d="M32.4047 216.395C38.0429 222.505 47.0078 225.931 51.8567 232.776C48.9812 222.288 44.2209 212.856 36.9072 204.665C36.722 204.456 37.0119 204.157 37.2213 204.351C42.5777 209.502 46.5486 215.532 49.4403 222.062C48.1354 217.394 46.3151 212.985 44.1806 208.591C44.1 208.422 44.3336 208.285 44.4303 208.446C47.1527 213.098 48.965 218.321 50.1008 223.586C56.4962 239.08 57.0922 257.25 55.7471 273.583C55.731 273.817 55.3766 273.825 55.3766 273.583C55.7471 260.709 55.5377 247.617 52.4527 235.049C52.3883 234.783 52.3158 234.525 52.2513 234.267C46.9675 226.899 38.0429 223.489 32.308 216.491C32.2516 216.427 32.3402 216.33 32.4047 216.395Z" fill="#2B5AAC"/>
<path d="M31.0997 211.147C34.0638 213.863 36.9715 216.645 39.9356 219.361C39.9679 219.385 39.9276 219.442 39.8954 219.418C36.6654 217.233 33.3872 214.347 30.9225 211.324C30.8178 211.203 30.9789 211.042 31.0997 211.147Z" fill="#2B5AAC"/>
<path d="M30.6327 199.377C33.3229 203.69 36.1421 207.737 39.4848 211.566C39.525 211.614 39.4606 211.687 39.4123 211.638C35.8199 208.172 32.6222 203.98 30.4716 199.465C30.4233 199.361 30.5683 199.272 30.6327 199.377Z" fill="#2B5AAC"/>
<path d="M43.9551 285.103H69.883L66.3873 250.197H47.9502L43.9551 285.103Z" fill="#2B5AAC"/>
<path d="M47.2979 255.872H66.9593L66.3874 250.197H47.9503L47.2979 255.872Z" fill="#2B5AAC"/>
<path d="M44.7713 251.901H69.0723V246.33H44.7713V251.901Z" fill="#2B5AAC"/>
<path d="M169.881 247.851C169.881 247.851 192.789 278.138 192.805 278.154C197.219 283.926 200.98 289.061 202.68 291.899C202.688 291.915 202.704 291.923 202.704 291.947C203.348 293.019 203.687 293.753 203.638 294.051C203.638 294.075 203.638 294.091 203.63 294.115C202.801 296.59 157.775 333.214 155.77 333.963C153.772 334.721 151.485 329.062 152.097 326.249C152.725 323.419 163.695 301.685 163.695 301.685L141.086 271.197L169.881 247.851Z" fill="#FFC2B5"/>
<path d="M188.101 271.938C188.101 271.938 192.789 278.138 192.805 278.154C197.219 283.926 200.981 289.061 202.68 291.898C202.688 291.915 202.705 291.923 202.705 291.947C203.285 293.051 203.623 293.809 203.639 294.051C203.639 294.075 203.639 294.091 203.631 294.115C202.801 296.59 157.776 333.214 155.77 333.963C153.773 334.721 151.485 329.062 152.097 326.249C152.725 323.419 163.696 301.685 163.696 301.685L158.839 295.438L188.101 271.938Z" fill="#EBEBEB"/>
<path d="M155.778 333.971C157.784 333.222 202.809 296.606 203.639 294.115C203.969 293.18 199.024 286.296 192.805 278.162C192.741 278.081 192.677 277.992 192.612 277.912L163.301 301.21L163.712 301.693C163.712 301.693 152.742 323.427 152.113 326.257C151.493 329.062 153.781 334.721 155.778 333.971Z" fill="#424242"/>
<path d="M154.868 331.803C162.31 325.442 192.91 300.492 200.747 294.776C200.812 294.728 200.844 294.768 200.788 294.825C193.554 301.29 162.745 325.991 154.973 331.932C154.803 332.053 154.715 331.94 154.868 331.803Z" fill="#2B5AAC"/>
<path d="M161.327 303.765C163.865 300.774 167.884 298.267 171.895 298.541C172.048 298.549 172.032 298.775 171.911 298.823C168.206 300.29 164.976 301.935 161.642 304.136C161.416 304.289 161.15 303.983 161.327 303.765Z" fill="#2B5AAC"/>
<path d="M160.232 306.82C162.769 303.83 166.789 301.322 170.8 301.596C170.953 301.605 170.937 301.83 170.816 301.879C167.111 303.346 163.881 304.99 160.546 307.191C160.313 307.344 160.047 307.03 160.232 306.82Z" fill="#2B5AAC"/>
<path d="M159.129 309.876C161.666 306.885 165.686 304.378 169.697 304.652C169.85 304.66 169.834 304.886 169.713 304.934C166.008 306.401 162.778 308.046 159.443 310.247C159.218 310.4 158.952 310.085 159.129 309.876Z" fill="#2B5AAC"/>
<path d="M191.106 274.195L159.733 300.5C159.733 300.5 123.624 254.348 115.488 231.058C109.697 214.476 136.463 131.499 136.463 131.499L170.663 129.177C170.663 129.177 148.521 209.099 150.977 216.862C153.982 226.318 191.106 274.195 191.106 274.195Z" fill="#2B5AAC"/>
<path d="M156.237 292.947C161.11 288.892 159.66 289.988 164.582 285.99C166.99 284.031 182.826 271.197 185.395 269.77C185.451 269.738 185.516 269.826 185.476 269.875C183.51 272.059 167.449 284.611 165.001 286.522C160.007 290.423 161.392 289.246 156.358 293.092C156.261 293.164 156.149 293.027 156.237 292.947Z" fill="#2B5AAC"/>
<path d="M180.691 268.488C174.852 261.176 169.141 253.752 163.631 246.19C158.162 238.677 152.75 231.058 147.836 223.166C146.717 221.36 145.645 219.49 145.009 217.459C144.284 215.129 144.373 212.791 144.759 210.405C145.533 205.737 146.499 201.094 147.474 196.467C149.439 187.18 151.67 177.941 154.175 168.783C156.672 159.626 159.467 150.556 162.423 141.536C162.786 140.423 163.156 139.311 163.527 138.206C163.583 138.037 163.325 137.98 163.261 138.142C159.942 147.179 156.978 156.345 154.32 165.599C151.67 174.805 149.31 184.092 147.256 193.452C146.225 198.151 145.267 202.867 144.381 207.591C143.946 209.897 143.43 212.259 143.559 214.621C143.672 216.693 144.332 218.676 145.235 220.53C146.201 222.529 147.458 224.367 148.69 226.213C149.995 228.172 151.308 230.123 152.637 232.066C155.319 235.984 158.058 239.862 160.853 243.699C166.41 251.301 172.137 258.846 178.275 265.997C179.024 266.868 179.781 267.746 180.53 268.617C180.611 268.689 180.756 268.569 180.691 268.488Z" fill="#2B5AAC"/>
<path d="M170.671 129.177C170.671 129.177 164.211 152.491 158.654 175.16C152.427 162.254 141.811 140.044 138.243 131.37L170.671 129.177Z" fill="#2B5AAC"/>
<path d="M211.354 182.318C211.354 182.318 231.781 155.449 231.797 155.425C236.566 149.943 240.843 145.227 243.275 142.994C243.283 142.978 243.299 142.97 243.315 142.962C244.234 142.116 244.886 141.632 245.192 141.624C245.216 141.624 245.232 141.616 245.257 141.616C247.85 141.93 292.699 178.771 293.834 180.585C294.978 182.399 289.896 185.769 287.012 185.728C284.12 185.68 260.649 179.263 260.649 179.263L238.893 206.164L211.354 182.318Z" fill="#FFC2B5"/>
<path d="M245.2 141.624C245.216 141.616 245.232 141.608 245.256 141.608C247.85 141.931 292.698 178.772 293.834 180.585C294.978 182.399 289.895 185.769 287.012 185.737C284.112 185.68 260.649 179.271 260.649 179.271L256.734 184.665C249.332 178.675 235.856 167.687 227.673 160.859C229.952 157.651 231.789 155.442 231.797 155.434C236.565 149.952 240.834 145.236 243.275 143.011C243.291 142.995 243.299 142.979 243.323 142.971C244.233 142.116 244.886 141.632 245.2 141.624Z" fill="#EBEBEB"/>
<path d="M293.834 180.585C292.698 178.772 247.85 141.931 245.256 141.616C244.274 141.479 238.531 147.711 231.805 155.434C231.733 155.514 231.668 155.595 231.596 155.675L260.262 179.763L260.657 179.263C260.657 179.263 284.128 185.68 287.02 185.729C289.887 185.769 294.97 182.391 293.834 180.585Z" fill="#424242"/>
<path d="M291.9 181.908C284.184 175.886 253.649 150.855 246.48 144.317C246.424 144.26 246.456 144.22 246.521 144.268C254.293 150.073 284.635 175.345 292.005 181.787C292.158 181.924 292.062 182.036 291.9 181.908Z" fill="#2B5AAC"/>
<path d="M263.154 181.174C259.722 179.287 256.46 175.837 255.929 171.855C255.904 171.702 256.13 171.669 256.202 171.782C258.377 175.12 260.632 177.965 263.46 180.795C263.653 180.988 263.403 181.311 263.154 181.174Z" fill="#2B5AAC"/>
<path d="M266.367 181.642C262.936 179.755 259.674 176.305 259.142 172.323C259.118 172.169 259.344 172.137 259.416 172.25C261.591 175.587 263.846 178.433 266.674 181.263C266.859 181.456 266.609 181.779 266.367 181.642Z" fill="#2B5AAC"/>
<path d="M269.573 182.109C266.141 180.223 262.879 176.772 262.348 172.79C262.323 172.637 262.549 172.605 262.621 172.717C264.796 176.055 267.051 178.901 269.879 181.73C270.072 181.924 269.822 182.246 269.573 182.109Z" fill="#2B5AAC"/>
<path d="M137.059 131.426C137.059 131.426 137.059 131.435 137.067 131.459C137.26 132.152 140.409 143.1 143.535 152.467C145.806 159.311 148.077 165.317 149.189 165.873C150.445 166.502 156.494 168.711 158.516 169.396C158.516 169.396 171.541 214.468 182.374 229.132C186.087 234.154 203.002 239.184 211.282 233.759C230.686 221.022 259.441 187.897 259.441 187.897L225.942 160.496L202.237 191.976C196.357 181.069 193.175 159.053 193.175 159.053C193.175 159.053 191.838 137.263 183.872 128.25L137.059 131.426Z" fill="#2B5AAC"/>
<path d="M251.322 191.896C246.28 188.058 247.674 189.227 242.672 185.334C240.223 183.431 224.154 170.887 222.181 168.711C222.14 168.662 222.205 168.582 222.261 168.606C224.831 170.033 240.682 182.851 243.09 184.81C248.02 188.8 246.562 187.712 251.443 191.751C251.524 191.823 251.411 191.968 251.322 191.896Z" fill="#2B5AAC"/>
<path d="M182.841 153.668C181.762 153.467 180.626 153.459 179.539 153.362C178.661 153.281 177.783 153.185 176.905 153.056C175.262 152.806 173.579 152.378 172.185 151.435C170.615 150.371 169.737 148.654 168.899 147.009C168.399 146.034 167.892 145.059 167.377 144.091C167.127 143.624 166.877 143.156 166.619 142.688C166.321 142.14 165.919 141.584 165.685 141.004C165.653 140.923 165.516 140.971 165.556 141.052C165.749 141.431 165.854 141.874 166.007 142.277C166.184 142.753 166.362 143.229 166.539 143.704C166.869 144.551 167.183 145.405 167.53 146.244C168.15 147.751 168.714 149.339 169.68 150.669C171.444 153.104 174.368 153.934 177.243 154.104C178.065 154.152 178.895 154.152 179.724 154.144C180.747 154.136 181.835 154.152 182.841 153.958C182.986 153.926 183.011 153.7 182.841 153.668Z" fill="#2B5AAC"/>
<path d="M145.951 164.527C150.244 165.688 154.425 167.462 158.444 169.348C158.605 169.42 158.516 169.662 158.347 169.606C154.151 168.131 149.874 166.736 145.766 165.027C145.444 164.898 145.621 164.438 145.951 164.527Z" fill="#2B5AAC"/>
<path d="M142.834 136.65C142.834 136.505 143.084 136.457 143.092 136.61C143.39 141.455 143.986 145.703 144.703 150.202C145.033 152.29 147.514 163.802 151.098 162.705C151.702 162.52 151.968 161.899 152 160.972C152.04 159.859 151.533 158.529 151.275 157.441C150.703 155.039 150.22 152.62 149.841 150.178C149.141 145.615 148.81 141.028 149.06 136.417C149.068 136.263 149.286 136.263 149.294 136.417C149.721 142.769 150.317 149.097 151.686 155.321C152.346 158.312 154.175 162.762 151.05 163.439C147.86 164.132 145.266 156.651 144.735 154.587C143.237 148.847 142.769 142.568 142.834 136.65Z" fill="#2B5AAC"/>
<path d="M151.018 163.028C151.396 163.785 151.718 164.584 152 165.382C152.218 166.002 152.5 166.671 152.475 167.341C152.467 167.47 152.298 167.494 152.226 167.413C151.759 166.897 151.533 166.172 151.251 165.543C150.921 164.817 150.583 164.1 150.276 163.358C150.067 162.866 150.776 162.56 151.018 163.028Z" fill="#2B5AAC"/>
<path d="M222.366 172.282C217.219 179.699 211.75 186.898 205.983 193.831C204.42 195.709 202.833 197.547 201.214 199.377C195.971 192.162 193.418 183.447 191.38 174.805C190.856 172.588 190.365 170.364 189.857 168.139C189.318 165.76 188.633 163.39 188.327 160.964C188.013 158.457 188.158 155.901 187.924 153.378C187.699 150.927 187.304 148.501 186.772 146.106C185.572 140.689 183.671 135.409 181.263 130.435C181.231 130.37 181.118 130.419 181.15 130.491C183.059 135.111 184.767 139.81 185.951 144.688C186.547 147.154 186.998 149.654 187.296 152.177C187.586 154.716 187.554 157.256 187.723 159.811C187.884 162.238 188.536 164.591 189.076 166.954C189.583 169.17 190.075 171.395 190.582 173.612C191.597 178.006 192.685 182.399 194.175 186.656C195.826 191.372 197.985 195.935 200.981 199.917C201.069 200.038 201.255 200.086 201.367 199.957C207.28 193.161 212.934 186.116 218.161 178.756C219.652 176.66 221.109 174.539 222.543 172.403C222.632 172.274 222.447 172.169 222.366 172.282Z" fill="#2B5AAC"/>
<path d="M202.438 191.751C202.229 192.073 202.051 192.395 201.89 192.726C201.834 192.774 201.778 192.815 201.721 192.863C201.616 192.944 201.504 193.024 201.415 193.129C201.238 193.339 201.085 193.572 200.956 193.814C200.69 194.314 200.626 194.854 200.602 195.41C200.602 195.435 200.634 195.427 200.634 195.41C200.682 194.886 200.916 194.387 201.165 193.927C201.286 193.701 201.431 193.492 201.592 193.298C201.641 193.242 201.681 193.185 201.721 193.129C201.697 193.194 201.657 193.25 201.633 193.323C201.423 193.919 201.286 194.54 201.198 195.169C201.109 195.773 201.157 196.354 201.23 196.958C201.302 197.539 201.326 198.176 201.52 198.732C201.528 198.756 201.56 198.748 201.56 198.724C201.576 198.127 201.488 197.531 201.56 196.934C201.625 196.354 201.745 195.773 201.826 195.193C201.898 194.628 202.027 194.064 202.156 193.508C202.293 192.936 202.406 192.355 202.575 191.791C202.575 191.726 202.478 191.694 202.438 191.751Z" fill="#2B5AAC"/>
<path d="M165.556 76.7291C159.233 81.2919 129.688 93.3116 118.919 87.8701C107.941 82.3237 97.0749 52.5365 94.9244 49.9569C89.0042 42.8789 114.465 32.8504 116.793 37.7598C120.683 45.9584 128.947 67.8614 132.741 68.3371C140.723 69.3367 148.037 68.2887 160.53 68.1436C169.245 68.0388 172.539 71.6826 165.556 76.7291Z" fill="#FFC2B5"/>
<path d="M119.467 43.2014C119.467 43.2014 129.825 66.5556 132.161 67.2247C136.043 68.3291 157.122 67.6036 164.694 67.7325C172.273 67.8615 179.554 74.5687 161.625 81.2678C143.703 87.9669 128.568 91.4575 118.846 89.2567C112.789 87.8863 96.1484 61.6058 96.1484 61.6058L119.467 43.2014Z" fill="#484848"/>
<path opacity="0.1" d="M119.467 43.2014C119.467 43.2014 129.825 66.5556 132.161 67.2247C136.043 68.3291 157.122 67.6036 164.694 67.7325C172.273 67.8615 179.554 74.5687 161.625 81.2678C143.703 87.9669 128.568 91.4575 118.846 89.2567C112.789 87.8863 96.1484 61.6058 96.1484 61.6058L119.467 43.2014Z" fill="#2B5AAC"/>
<path d="M100.676 65.8864C108.988 58.0506 118.855 51.15 120.49 49.8198C120.571 49.7553 120.659 49.8924 120.579 49.9569C118.903 51.1741 108.448 60.3562 100.772 66.0395C100.676 66.104 100.595 65.967 100.676 65.8864Z" fill="#2B5AAC"/>
<path opacity="0.1" d="M172.764 73.0693C172.442 75.4394 169.422 78.3496 161.625 81.2598C143.703 87.967 128.568 91.4495 118.855 89.2568C117.646 88.9827 116.011 87.7171 114.175 85.8549C127.989 82.8721 161.295 75.6974 172.764 73.0693Z" fill="#2B5AAC"/>
<path d="M96.5594 52.6496C99.0563 54.5037 116.696 44.1205 117.099 40.9443C117.171 40.3478 117.058 39.2192 116.793 37.76C116.801 37.752 116.801 37.752 116.801 37.752C116.801 37.752 118.041 30.7385 121.15 25.2647C123.752 20.6697 128.142 14.1399 125.725 12.6404C122.205 10.4558 115.665 18.0416 112.169 22.6286C110.929 19.7507 109.592 17.3886 108.311 16.3003C104.05 12.6807 85.4923 29.6582 86.5716 35.2368C87.6187 40.6219 94.0544 50.7874 96.5594 52.6496Z" fill="#FFC2B5"/>
<path d="M113.756 23.1928C112.758 25.9176 110.116 23.1767 110.116 23.1767C110.116 23.1767 112.967 28.0378 110.849 30.4481C108.803 32.7699 105.726 29.3437 105.508 29.1019C105.653 29.3598 108.158 33.8985 105.782 36.0993C103.309 38.3887 100.813 34.4225 100.651 34.1645C100.716 34.4547 101.489 38.2759 99.3063 39.5415C95.5448 41.71 93.2895 31.9879 90.2287 30.2547C90.2287 30.2547 86.7007 35.1077 86.5719 35.2286C86.5719 35.2286 84.236 26.0224 86.8055 22.0239C88.1586 19.9198 90.3898 20.7663 90.3898 20.7663C90.3898 20.7663 89.3105 17.8803 91.1228 16.0826C92.0571 15.1636 94.3607 15.8407 94.3607 15.8407C94.3607 15.8407 93.5955 13.4948 95.3112 11.9954C96.6805 10.7942 98.7747 11.6649 98.7747 11.6649C98.7747 11.6649 99.0808 9.06907 100.877 8.29517C104.477 6.74736 115.891 17.3482 113.756 23.1928Z" fill="#FFC2B5"/>
<path d="M99.1202 11.7617C99.0799 11.7295 99.1202 11.665 99.1605 11.6891C103.768 14.2608 108.037 18.493 110.276 23.3058C110.348 23.467 110.123 23.6524 110.01 23.4912C106.756 18.9767 103.51 15.2281 99.1202 11.7617Z" fill="#2B5AAC"/>
<path d="M94.3197 15.7763C94.2714 15.736 94.3358 15.6554 94.3922 15.6876C99.1203 18.364 103.8 23.2654 105.725 29.1181C105.79 29.3196 105.653 29.5614 105.556 29.3438C103.985 25.5468 98.2907 18.8719 94.3197 15.7763Z" fill="#2B5AAC"/>
<path d="M100.643 34.6322C98.5809 29.094 94.9483 24.773 90.5826 20.8712C90.5263 20.8229 90.6068 20.7422 90.6632 20.7745C93.3212 22.1046 95.8423 24.8778 97.6224 27.2076C99.33 29.4325 100.417 31.7865 100.836 34.5596C100.852 34.6644 100.691 34.7451 100.643 34.6322Z" fill="#2B5AAC"/>
<path d="M110.212 23.1929C110.3 23.3863 109.93 23.3057 110.011 23.4911C110.357 24.2973 112.008 29.3438 110.47 30.4482C109.229 31.3269 107.191 30.2709 106.571 29.5534L105.001 27.7637L105.846 29.9968C106.217 30.9722 106.475 32.0525 106.507 33.0843C106.539 34.1162 106.305 35.1561 105.621 35.793C104.912 36.4702 103.97 36.6475 103.14 36.1477C102.302 35.6882 101.585 34.8256 101.07 33.955L99.6281 31.5285L100.2 34.2774C100.353 35.0191 100.425 35.8414 100.385 36.6072C100.337 37.373 100.16 38.1389 99.7328 38.6871C99.3139 39.2191 98.6051 39.5335 97.9769 39.3803C97.3164 39.2272 96.6962 38.6871 96.1565 38.1066C95.0772 36.9216 94.2395 35.4866 93.3374 34.1081C92.8944 33.4148 92.4433 32.7135 91.96 32.0363C91.4687 31.3753 90.9612 30.6739 90.2363 30.2628C90.9129 30.7384 91.3318 31.4801 91.7748 32.1653C92.2017 32.8667 92.5883 33.5922 92.983 34.3258C93.7643 35.7769 94.5697 37.236 95.6491 38.5581C96.2048 39.1949 96.825 39.864 97.7835 40.1543C98.7662 40.4445 99.8214 39.985 100.417 39.2272C101.03 38.4613 101.223 37.5343 101.295 36.6717C101.352 35.793 101.295 34.9465 101.126 34.0759L100.248 34.4064C100.852 35.4383 101.569 36.3734 102.673 37.0183C103.212 37.3327 103.913 37.5101 104.59 37.3892C105.266 37.2682 105.83 36.9297 106.297 36.4863C107.248 35.5592 107.481 34.2129 107.425 33.0601C107.361 31.8751 107.079 30.7707 106.652 29.6743L105.935 30.1096C106.756 30.9883 108.907 32.4233 110.993 31.3027C113.482 29.4244 110.776 24.128 110.212 23.1929Z" fill="#2B5AAC"/>
<path d="M110.115 23.1767C110.647 23.5233 111.187 23.8136 111.718 23.9587C112.242 24.1038 112.733 23.999 113.055 23.6846C113.385 23.3782 113.563 22.822 113.675 22.2496C113.772 21.6692 113.853 21.0646 113.901 20.4277C114.159 21.0162 114.304 21.6531 114.304 22.3061C114.296 22.951 114.175 23.6926 113.619 24.265C113.321 24.531 112.959 24.7084 112.572 24.7487C112.185 24.7809 111.807 24.7003 111.493 24.5391C110.864 24.2489 110.413 23.741 110.115 23.1767Z" fill="#2B5AAC"/>
<path d="M188.076 140.681C187.915 140.81 135.955 135.078 135.52 134.377C134.924 133.385 150.405 79.4781 162.293 68.4177C165.265 65.6526 173.489 66.886 176.8 70.4572C193.199 88.1603 188.664 140.213 188.076 140.681Z" fill="#EBEBEB"/>
<path d="M161.842 68.4177L141.883 141.205L131.678 133.877C131.678 133.877 148.351 86.7173 153.151 79.2121C157.944 71.7068 161.842 68.4177 161.842 68.4177Z" fill="#484848"/>
<path opacity="0.1" d="M161.842 68.4177L141.883 141.205L131.678 133.877C131.678 133.877 148.351 86.7173 153.151 79.2121C157.944 71.7068 161.842 68.4177 161.842 68.4177Z" fill="#2B5AAC"/>
<path d="M173.602 67.8938C173.602 67.8938 172.813 95.8994 172.789 102.478C172.765 109.056 171.267 144.978 171.267 144.978L194.907 140.681C194.907 140.681 190.598 105.855 189.092 97.8019C187.585 89.7566 181.262 70.2639 173.602 67.8938Z" fill="#484848"/>
<path opacity="0.1" d="M173.602 67.8938C173.602 67.8938 172.813 95.8994 172.789 102.478C172.765 109.056 171.267 144.978 171.267 144.978L194.907 140.681C194.907 140.681 190.598 105.855 189.092 97.8019C187.585 89.7566 181.262 70.2639 173.602 67.8938Z" fill="#2B5AAC"/>
<path d="M179.201 83.638C192.942 97.7214 211.154 112.788 221.287 110.636C230.445 108.685 243.598 97.939 257.968 86.3627C260.819 84.0652 241.786 62.799 238.991 65.548C233.489 70.9734 222.197 84.823 217.984 86.3547C216.18 87.0077 195.971 76.9066 182.729 71.8521C166.652 65.7253 173.724 78.0272 179.201 83.638Z" fill="#FFC2B5"/>
<path d="M270.582 76.56C266.812 81.0986 253.731 89.6115 250.413 90.071C247.094 90.5305 235.802 71.6021 237.058 68.4017C238.315 65.2013 252.185 50.8922 258.073 49.6749C263.969 48.4657 274.48 71.8521 270.582 76.56Z" fill="#FFC2B5"/>
<path d="M249.382 53.3671C248.915 56.4627 252.829 55.2373 252.829 55.2373C252.829 55.2373 247.626 58.3571 248.383 61.7268C249.116 64.9756 253.788 63.3311 254.126 63.2182C253.852 63.3875 249.148 66.3783 250.252 69.6916C251.403 73.1338 255.809 70.6751 256.091 70.5139C255.882 70.7557 253.175 73.9642 254.585 76.2859C257.018 80.2763 264.162 72.2632 267.948 72.2068C267.948 72.2068 270.251 76.7212 270.308 76.9066C270.308 76.9066 275.793 71.3039 275.43 66.201C275.237 63.5084 272.7 63.1537 272.7 63.1537C272.7 63.1537 275.213 60.9852 274.424 58.3491C274.013 56.9947 271.492 56.4466 271.492 56.4466C271.492 56.4466 273.433 54.6247 272.579 52.3271C271.911 50.4891 269.478 50.2231 269.478 50.2231C269.478 50.2231 270.525 47.6112 269.236 45.9586C266.635 42.6372 250.38 46.7405 249.382 53.3671Z" fill="#FFC2B5"/>
<path d="M269.099 50.1424C269.155 50.1343 269.155 50.0537 269.091 50.0537C263.412 50.1021 257.194 51.8917 252.603 55.2776C252.45 55.3904 252.571 55.6806 252.756 55.592C258.161 53.0042 263.163 51.142 269.099 50.1424Z" fill="#2B5AAC"/>
<path d="M271.564 56.4062C271.628 56.3982 271.612 56.2853 271.54 56.2934C265.692 56.374 258.741 58.5828 253.9 63.1134C253.731 63.2666 253.739 63.5729 253.948 63.4117C257.396 60.6385 266.215 57.2849 271.564 56.4062Z" fill="#2B5AAC"/>
<path d="M255.857 70.9491C260.666 66.7813 266.32 64.5805 272.458 63.1536C272.539 63.1375 272.506 63.0246 272.434 63.0246C269.244 62.9037 265.426 64.2177 262.543 65.4995C259.78 66.7248 257.533 68.3774 255.712 70.7878C255.64 70.8684 255.753 71.0377 255.857 70.9491Z" fill="#2B5AAC"/>
<path d="M252.821 55.2373C251.878 55.9387 250.992 56.7045 250.203 57.551C249.43 58.3974 248.721 59.3729 248.511 60.4289C248.415 60.9529 248.479 61.485 248.737 61.9203C249.011 62.3637 249.389 62.7667 249.84 63.0166C250.734 63.5245 251.927 63.4439 252.885 63.0973L255.293 62.2105L253.344 63.8792C252.49 64.6048 251.693 65.4915 251.129 66.4589C250.565 67.4182 250.251 68.5226 250.573 69.4739C250.887 70.4816 251.693 71.1346 252.732 71.0862C253.755 71.0862 254.883 70.6348 255.825 70.0866L258.443 68.5468L256.485 70.8524C255.954 71.4732 255.463 72.2067 255.108 72.9565C254.754 73.7062 254.528 74.5204 254.649 75.254C254.762 75.9715 255.277 76.6406 255.946 76.8179C256.655 77.0195 257.516 76.826 258.322 76.56C259.949 75.9956 261.487 75.0766 263.05 74.2382C263.831 73.811 264.613 73.3837 265.418 72.9968C266.224 72.6259 267.061 72.2229 267.963 72.2148C267.077 72.3115 266.304 72.7952 265.531 73.2144C264.766 73.6578 264.025 74.1415 263.276 74.6252C261.785 75.5926 260.271 76.5519 258.572 77.2452C257.718 77.5596 256.783 77.874 255.736 77.6483C254.657 77.4064 253.9 76.431 253.731 75.4152C253.554 74.3753 253.852 73.3998 254.222 72.5453C254.617 71.6827 255.108 70.9169 255.72 70.1753L256.373 70.933C255.269 71.5941 254.109 72.1019 252.732 72.1503C252.055 72.1664 251.306 71.9649 250.734 71.5054C250.155 71.0459 249.8 70.4252 249.591 69.7722C249.172 68.4017 249.647 67.0071 250.291 65.951C250.96 64.8627 251.798 63.9598 252.772 63.1537L253.223 63.9357C251.991 64.3387 250.614 64.3468 249.47 63.6374C248.906 63.2827 248.487 62.7829 248.181 62.2105C247.867 61.622 247.819 60.9126 247.972 60.2919C248.302 59.0423 249.156 58.1233 249.993 57.3091C250.847 56.5191 251.806 55.8258 252.821 55.2373Z" fill="#2B5AAC"/>
<path d="M238.991 65.5479C238.991 65.5479 246.103 41.5327 254.118 48.917C256.502 51.1098 263.663 62.9602 261.311 64.4515C258.274 66.3702 254.36 61.9847 252.346 58.8327C252.346 58.8327 251.073 67.3375 244.895 68.2243C241.013 68.7725 238.991 65.5479 238.991 65.5479Z" fill="#FFC2B5"/>
<path d="M253.409 48.3447C254.473 49.0461 255.326 50.0296 256.14 51.005C256.953 51.9966 257.67 53.0526 258.339 54.1409C259.66 56.3337 260.892 58.5425 261.835 60.9771C262.06 61.5898 262.261 62.2266 262.318 62.9521C262.342 63.3149 262.318 63.718 262.173 64.1049C262.1 64.2984 262.02 64.4597 261.859 64.6692C261.714 64.8385 261.553 64.9836 261.375 65.0884C260.691 65.5318 259.901 65.6044 259.185 65.5157C258.468 65.3948 257.823 65.1288 257.227 64.7902C256.043 64.113 255.093 63.1779 254.247 62.1944C253.385 61.2109 252.668 60.1467 251.968 59.0665L252.781 58.8811C252.604 59.8727 252.322 60.7917 251.968 61.7026C251.613 62.6136 251.178 63.4842 250.655 64.3065C250.123 65.1207 249.471 65.8624 248.73 66.4831C247.989 67.1119 247.135 67.5875 246.225 67.8777C247.078 67.4585 247.86 66.9103 248.52 66.2493C249.189 65.5883 249.72 64.8144 250.179 64.0082C250.639 63.2021 251.009 62.3395 251.291 61.4527C251.573 60.574 251.798 59.6469 251.903 58.7602L252.04 57.6316L252.709 58.5748C253.434 59.5905 254.15 60.6143 254.996 61.5172C255.826 62.4201 256.72 63.2907 257.751 63.855C258.742 64.4193 259.982 64.7176 260.804 64.1856C261.569 63.7825 261.271 62.4201 260.884 61.2995C260.489 60.1387 259.966 58.9859 259.434 57.8492C258.903 56.7045 258.363 55.5678 257.759 54.4634C256.535 52.3029 255.286 50.0699 253.409 48.3447Z" fill="#2B5AAC"/>
<path d="M236.196 68.2727C236.196 68.2727 219.539 85.2744 217.106 85.1212C213.071 84.8633 188.601 73.2466 181.416 70.8282C174.231 68.4097 166.547 69.8366 177.896 83.251C190.695 98.3824 205.024 111.869 219.837 111.877C227.811 111.885 252.676 94.5129 252.676 94.5129L236.196 68.2727Z" fill="#484848"/>
<path opacity="0.1" d="M236.196 68.2727C236.196 68.2727 219.539 85.2744 217.106 85.1212C213.071 84.8633 188.601 73.2466 181.416 70.8282C174.231 68.4097 166.547 69.8366 177.896 83.251C190.695 98.3824 205.024 111.869 219.837 111.877C227.811 111.885 252.676 94.5129 252.676 94.5129L236.196 68.2727Z" fill="#2B5AAC"/>
<path d="M246.313 95.9478C241.101 85.7822 234.11 75.9714 233.014 74.1656C232.966 74.077 232.829 74.1818 232.885 74.2624C234.053 75.9714 240.835 88.1281 246.176 96.0526C246.24 96.1493 246.361 96.0445 246.313 95.9478Z" fill="#2B5AAC"/>
<path d="M188.513 94.7626C188.11 94.3999 187.812 93.9081 187.449 93.505C187.063 93.0778 186.668 92.6505 186.273 92.2233C185.5 91.401 184.735 90.5787 183.97 89.7484C182.439 88.0958 180.828 86.5319 179.25 84.9276C179.226 84.9034 179.193 84.9437 179.218 84.9679C180.659 86.7092 182.077 88.4586 183.64 90.1031C183.672 90.1353 183.712 90.1757 183.744 90.2079C183.438 89.9983 183.132 89.7968 182.826 89.5872C182.19 89.1599 181.561 88.7326 180.925 88.2973C180.885 88.2731 180.845 88.3296 180.877 88.3618C181.465 88.8455 182.069 89.305 182.705 89.7242C183.027 89.9419 183.35 90.1515 183.688 90.353C183.841 90.4417 184.002 90.5384 184.155 90.6271C184.743 91.2398 185.323 91.8524 185.911 92.4571C186.314 92.8763 186.724 93.2793 187.135 93.6824C187.546 94.0855 188.054 94.4079 188.424 94.8433C188.48 94.9158 188.577 94.8191 188.513 94.7626Z" fill="#2B5AAC"/>
<path d="M163.582 78.277C166.047 78.8736 172.12 75.2379 174.899 71.7069C175.092 71.4651 175.157 68.5871 175.398 65.0965C175.56 62.9763 175.777 60.6224 176.14 58.4861L162.213 59.4776C162.213 59.4776 162.769 64.1775 162.124 67.8938C162.068 68.2002 161.987 68.4904 161.883 68.7564C161.875 68.7967 161.851 68.8451 161.842 68.9015C161.295 70.5058 159.724 77.3419 163.582 78.277Z" fill="#FFC2B5"/>
<path d="M161.891 68.7483C161.883 68.7886 161.859 68.8289 161.843 68.8854C162.254 69.0144 162.705 69.1192 163.212 69.1917C170.848 70.3042 174.271 61.3479 175.141 58.5505L162.221 59.4615C162.221 59.4615 162.785 64.1613 162.141 67.8777C162.068 68.2001 161.996 68.4823 161.891 68.7483Z" fill="#2B5AAC"/>
<path d="M182.326 42.4678C182.527 47.4982 176.543 60.2999 172.451 62.4281C166.515 65.5156 158.557 63.8711 156.374 57.1317C154.264 50.6019 162.358 34.0516 166.764 32.2942C173.256 29.7065 182.028 35.0351 182.326 42.4678Z" fill="#FFC2B5"/>
<path d="M171.098 45.2089C170.751 44.9429 170.486 44.6446 170.171 44.3544C169.817 44.0239 169.503 43.7981 169.39 43.2983C169.334 43.0323 169.543 42.7018 169.793 42.6131C170.381 42.4196 170.912 42.7179 171.347 43.1048C171.823 43.516 172.088 43.9594 172.193 44.5882C172.306 45.1847 171.549 45.5475 171.098 45.2089Z" fill="#A6A6A6"/>
<path d="M162.487 41.4845C162.906 41.5893 163.309 41.6134 163.736 41.6779C164.211 41.7424 164.59 41.8472 165.041 41.6296C165.282 41.5086 165.411 41.1378 165.323 40.8879C165.105 40.3075 164.541 40.0818 163.969 39.977C163.349 39.8641 162.842 39.9366 162.286 40.2349C161.746 40.5332 161.94 41.3474 162.487 41.4845Z" fill="#A6A6A6"/>
<path d="M166.112 55.1083C165.814 55.2212 165.483 55.4146 165.153 55.3018C164.839 55.197 164.541 54.9068 164.307 54.681C164.283 54.6569 164.243 54.673 164.251 54.7133C164.332 55.1486 164.718 55.5597 165.153 55.6645C165.58 55.7693 165.918 55.5114 166.176 55.1889C166.208 55.1325 166.152 55.0922 166.112 55.1083Z" fill="#2B5AAC"/>
<path d="M166.313 52.0935C165.5 52.6416 164.598 52.7464 163.76 52.561C163.381 52.4804 163.011 52.3353 162.665 52.1499C162.592 52.1177 162.528 52.0773 162.471 52.037C162.407 52.0048 162.358 51.9725 162.294 51.9242C162.197 51.8677 162.181 51.7549 162.205 51.6501V51.642C162.222 51.6098 162.23 51.5856 162.254 51.5533C162.254 51.5533 162.254 51.5533 162.254 51.5453L162.286 51.4727C162.56 50.7875 163.059 49.7959 163.059 49.7959C162.761 49.8121 161.263 49.8362 161.432 49.4977C162.858 46.66 164.445 43.4999 166.458 40.9847C166.523 40.8961 166.66 40.9847 166.611 41.0734C165.347 43.8546 163.607 46.394 162.294 49.1671C162.761 49.1913 163.534 49.1833 163.881 49.3445C163.961 49.417 162.874 51.2551 162.769 51.5695C162.769 51.5695 162.761 51.5856 162.761 51.6017C163.833 52.2305 164.831 52.2547 166.249 51.9725C166.354 51.9564 166.402 52.0451 166.313 52.0935Z" fill="#2B5AAC"/>
<path d="M163.212 51.9805C163.212 51.9805 163.462 53.0446 164.154 53.6814C164.412 53.9152 164.718 54.1006 165.097 54.1571C165.87 54.2699 166.168 53.6411 166.273 53.0365C166.361 52.5448 166.321 52.0611 166.321 52.0611C166.321 52.0611 164.887 52.5851 163.212 51.9805Z" fill="#2B5AAC"/>
<path d="M164.154 53.6814C164.412 53.9151 164.718 54.1006 165.097 54.157C165.87 54.2698 166.168 53.6411 166.273 53.0364C165.491 52.7946 164.533 52.9881 164.154 53.6814Z" fill="#FF9BBC"/>
<path d="M170.05 47.3371C170.09 47.1033 170.082 46.8453 169.986 46.5793C169.889 46.3213 169.647 46.1117 169.389 46.015C169.124 45.9102 168.785 45.9747 168.568 46.1278C168.35 46.281 168.189 46.4825 168.077 46.6921C168.004 46.8292 167.948 46.9662 167.899 47.1033C167.795 47.4016 167.746 47.716 167.787 48.0223C167.851 47.7966 167.94 47.587 168.044 47.3935C168.141 47.2081 168.254 47.0388 168.375 46.8776C168.624 46.547 168.955 46.3133 169.253 46.4342C169.567 46.539 169.712 46.8776 169.704 47.2968C169.696 47.7079 169.607 48.1432 169.51 48.5866C169.776 48.2238 169.969 47.8046 170.05 47.3371Z" fill="#2B5AAC"/>
<path d="M161.601 43.4433C161.738 43.2498 161.931 43.0725 162.189 42.9677C162.447 42.8548 162.761 42.8871 163.011 42.9999C163.268 43.1209 163.462 43.4111 163.502 43.6771C163.542 43.9431 163.51 44.193 163.437 44.4188C163.389 44.5639 163.333 44.7009 163.26 44.838C163.115 45.1201 162.922 45.37 162.672 45.5554C162.785 45.3539 162.882 45.1443 162.946 44.9347C163.01 44.7332 163.059 44.5397 163.091 44.3381C163.155 43.927 163.099 43.5239 162.801 43.403C162.503 43.2498 162.165 43.3788 161.867 43.6771C161.577 43.9673 161.319 44.3301 161.069 44.709C161.15 44.2575 161.319 43.8303 161.601 43.4433Z" fill="#2B5AAC"/>
<g opacity="0.2">
<path d="M169.608 40.3557C169.1 40.2187 168.593 40.1058 168.11 39.9043C167.618 39.6947 167.175 39.3964 166.684 39.2029C165.75 38.8321 164.767 38.7837 163.728 38.7515C163.639 38.7515 163.631 38.8079 163.72 38.8079C164.775 38.8724 165.822 39.0175 166.773 39.5173C167.57 39.9365 168.295 40.2831 169.173 40.4766C171.114 40.9039 172.967 41.573 174.336 43.0805C174.344 43.0885 174.36 43.0805 174.352 43.0644C173.128 41.6617 171.38 40.8313 169.608 40.3557Z" fill="#2B5AAC"/>
<path d="M170.131 39.0578C169.656 38.9288 169.164 38.824 168.705 38.6305C168.238 38.4371 167.819 38.1469 167.352 37.9614C166.466 37.6067 165.532 37.5584 164.549 37.5342C164.468 37.5342 164.46 37.5825 164.541 37.5906C165.54 37.647 166.53 37.7921 167.433 38.2597C168.19 38.6547 168.874 38.9852 169.712 39.1707C171.557 39.5737 173.304 40.2106 174.609 41.6375C174.617 41.6455 174.633 41.6375 174.625 41.6294C173.474 40.2993 171.814 39.5092 170.131 39.0578Z" fill="#2B5AAC"/>
</g>
<path d="M162.753 35.7768C166.297 40.6862 174.473 38.1307 174.473 38.1307C174.666 42.3469 178.5 43.2337 178.5 43.2337C178.5 43.2337 176.567 51.5209 178.669 52.2545C181.875 53.3831 186.756 42.8951 186.515 40.4041C186.273 37.9131 183.76 36.3895 183.76 36.3895C183.76 36.3895 184.154 34.6643 182.721 32.4474C181.142 29.9886 172.797 29.5291 172.797 29.5291C172.797 29.5291 172.781 27.941 171.807 26.232C171.178 25.1517 169.938 24.8777 168.867 25.4661C169.044 26.1191 169.084 26.885 168.931 27.6992C168.472 30.166 166.571 29.4727 167.344 27.3687C167.691 26.4335 168.255 25.8047 168.867 25.4581C168.424 23.741 167.054 22.7414 165.854 23.1444C163.68 23.8942 159.805 31.6977 162.753 35.7768Z" fill="#6D2B2B"/>
<path d="M167.112 51.2791C165.315 50.1343 164.792 47.7401 165.936 45.9424C167.079 44.1446 169.472 43.6206 171.268 44.7654C173.064 45.9101 173.587 48.3044 172.444 50.1021C171.477 51.6176 169.616 52.2303 167.981 51.6902C167.675 51.5935 167.385 51.4564 167.112 51.2791ZM166.37 46.2245C165.38 47.7804 165.839 49.8522 167.393 50.8437C168.948 51.8353 171.018 51.3758 172.009 49.828C172.999 48.2721 172.54 46.2003 170.986 45.2088C170.744 45.0556 170.494 44.9347 170.237 44.8541C168.819 44.3784 167.208 44.9105 166.37 46.2245Z" fill="#2B5AAC"/>
<path d="M159.733 47.8126C158.299 47.1435 157.864 45.0314 158.758 43.0966C159.185 42.1776 159.854 41.4279 160.635 40.9925C161.441 40.5411 162.278 40.4766 162.995 40.8071C163.704 41.1377 164.195 41.8229 164.373 42.7338C164.542 43.6125 164.405 44.6041 163.97 45.5231C163.116 47.3531 161.376 48.3688 159.975 47.9012C159.886 47.8771 159.806 47.8529 159.733 47.8126ZM160.885 41.444C160.2 41.8229 159.604 42.492 159.226 43.3143C158.444 44.983 158.775 46.7968 159.951 47.345C161.135 47.9012 162.721 46.9822 163.503 45.3054C163.889 44.4832 164.01 43.6045 163.865 42.8306C163.72 42.0889 163.334 41.5327 162.778 41.2747C162.721 41.2505 162.657 41.2263 162.592 41.2021C162.069 41.0329 161.473 41.1135 160.885 41.444Z" fill="#2B5AAC"/>
<path d="M165.863 46.4018L166.33 46.1842C166.008 45.4909 165.057 44.322 163.776 44.8379L163.97 45.3135C165.113 44.854 165.83 46.3373 165.863 46.4018Z" fill="#2B5AAC"/>
<path d="M181.03 54.5681L181.545 54.5439C181.537 54.3021 181.417 52.1739 180.458 51.5209C179.556 50.9082 173.007 48.5784 172.734 48.4736L172.564 48.9573C174.441 49.6264 179.475 51.4644 180.176 51.9401C180.804 52.3835 181.006 53.9877 181.03 54.5681Z" fill="#2B5AAC"/>
<path d="M176.575 52.6737C176.575 52.6737 180.828 49.2072 182.479 50.8437C184.131 52.4802 180.079 58.1071 177.534 58.3087C174.988 58.5102 174.755 56.1562 174.755 56.1562L176.575 52.6737Z" fill="#FFC2B5"/>
<path d="M181.279 52.4237C181.319 52.4317 181.311 52.4881 181.271 52.4881C179.475 52.6816 178.194 53.9392 177.163 55.3258C177.816 54.8663 178.557 54.7212 179.201 55.5193C179.233 55.5596 179.177 55.616 179.137 55.5918C178.516 55.2613 178.009 55.2452 177.405 55.6483C176.986 55.9304 176.632 56.3496 176.285 56.7124C176.172 56.8333 175.931 56.6801 176.035 56.535C176.044 56.527 176.052 56.5108 176.06 56.5028C176.591 54.431 179.008 52.0045 181.279 52.4237Z" fill="#2B5AAC"/>
<path d="M161.77 68.4903L164.75 76.8339L175.35 66.8296L178.113 70.2799C178.113 70.2799 167.497 86.411 167.465 85.6612L164.356 78.4462L159.281 83.1864L160.159 70.8281L161.77 68.4903Z" fill="#EBEBEB"/>
<path d="M159.37 77.0516C159.58 75.0201 159.741 72.9644 160.047 70.941C160.055 70.8684 160.168 70.8443 160.184 70.9249C160.514 72.908 159.66 80.6873 159.596 82.5576C159.604 82.5495 159.612 82.5415 159.62 82.5334C159.829 82.3319 164.316 78.3737 164.356 78.4382C165.049 79.591 167.328 84.8471 167.481 85.3227C169.157 82.7591 175.576 73.4562 177.542 71.0458C177.598 70.9732 177.703 71.0377 177.662 71.1183C176.164 73.8351 167.658 86.3707 167.538 86.3304C167.449 86.3949 164.614 79.9215 164.292 78.7042C163.526 79.5748 158.984 84.057 158.976 83.7507C158.959 81.7111 159.161 79.0912 159.37 77.0516Z" fill="#2B5AAC"/>
<path d="M207.828 173.886L204.582 174.491L203.857 177.917L203.132 174.491L199.886 173.886L203.116 173.096L203.857 169.856L204.598 173.096L207.828 173.886Z" fill="#634B05"/>
<path d="M152.476 20.9599L149.23 21.5565L148.505 24.9826L147.78 21.5565L144.534 20.9519L147.764 20.1619L148.505 16.9292L149.246 20.1619L152.476 20.9599Z" fill="#634B05"/>
<path d="M113.491 130.999L110.245 131.604L109.52 135.03L108.795 131.604L105.541 130.999L108.779 130.209L109.52 126.969L110.261 130.209L113.491 130.999Z" fill="#634B05"/>
<path d="M205.773 117.19L202.527 117.795L201.794 121.221L201.069 117.795L197.823 117.19L201.061 116.4L201.794 113.167L202.535 116.4L205.773 117.19Z" fill="#634B05"/>
<path d="M247.755 103.655L245.934 103.993L245.532 105.904L245.129 103.993L243.309 103.655L245.121 103.211L245.532 101.397L245.942 103.211L247.755 103.655Z" fill="#634B05"/>
<path d="M135.19 97.3505L133.378 97.681L132.967 99.5996L132.564 97.681L130.752 97.3424L132.556 96.9071L132.967 95.0933L133.386 96.9071L135.19 97.3505Z" fill="#634B05"/>
<path d="M191.452 33.5761L189.639 33.9146L189.237 35.8333L188.826 33.9146L187.014 33.5761L188.818 33.1327L189.237 31.3269L189.648 33.1327L191.452 33.5761Z" fill="#634B05"/>
<path d="M233.811 134.643L231.999 134.982L231.588 136.892L231.186 134.982L229.365 134.643L231.178 134.2L231.588 132.386L232.007 134.2L233.811 134.643Z" fill="#634B05"/>
<path d="M219.04 138.327L217.227 138.666L216.817 140.576L216.414 138.666L214.602 138.327L216.406 137.884L216.817 136.078L217.235 137.884L219.04 138.327Z" fill="#634B05"/>
<path d="M219.04 62.025L217.227 62.3636L216.817 64.2823L216.414 62.3636L214.602 62.025L216.406 61.5817L216.817 59.7759L217.235 61.5817L219.04 62.025Z" fill="#634B05"/>
<path d="M140.216 59.2841L138.404 59.6146L137.993 61.5332L137.591 59.6146L135.778 59.2841L137.583 58.8407L137.993 57.0269L138.412 58.8407L140.216 59.2841Z" fill="#634B05"/>
<path d="M95.4891 57.3012L93.6688 57.6397L93.2661 59.5584L92.8633 57.6397L91.043 57.3012L92.8553 56.8658L93.2661 55.052L93.6768 56.8658L95.4891 57.3012Z" fill="#634B05"/>
<path d="M119.894 147.412L118.082 147.751L117.671 149.67L117.268 147.751L115.456 147.412L117.26 146.969L117.671 145.163L118.09 146.969L119.894 147.412Z" fill="#634B05"/>
<path d="M211.548 146.888C210.872 146.888 210.872 147.944 211.548 147.944C212.233 147.944 212.233 146.888 211.548 146.888Z" fill="#634B05"/>
<path d="M219.547 73.0049C218.87 73.0049 218.87 74.0609 219.547 74.0609C220.223 74.0609 220.231 73.0049 219.547 73.0049Z" fill="#634B05"/>
<path d="M126.919 27.804C126.242 27.804 126.242 28.86 126.919 28.86C127.595 28.86 127.595 27.804 126.919 27.804Z" fill="#634B05"/>
<path d="M86.7496 60.9771C86.073 60.9771 86.073 62.0331 86.7496 62.0331C87.4262 62.025 87.4262 60.9771 86.7496 60.9771Z" fill="#634B05"/>
<path d="M117.672 113.167C116.995 113.167 116.995 114.223 117.672 114.223C118.348 114.215 118.356 113.167 117.672 113.167Z" fill="#634B05"/>
<path d="M102.094 103.526C101.619 103.526 101.611 104.267 102.094 104.267C102.569 104.275 102.569 103.526 102.094 103.526Z" fill="#634B05"/>
<path d="M131.059 40.6702C130.583 40.6702 130.575 41.4118 131.059 41.4118C131.542 41.4118 131.542 40.6702 131.059 40.6702Z" fill="#634B05"/>
<path d="M142.093 93.0376C141.618 93.0376 141.61 93.7793 142.093 93.7793C142.576 93.7873 142.576 93.0376 142.093 93.0376Z" fill="#634B05"/>
<path d="M107.748 160.521C107.273 160.521 107.265 161.262 107.748 161.262C108.231 161.262 108.231 160.521 107.748 160.521Z" fill="#634B05"/>
<path d="M200.36 152.072C199.063 152.072 199.063 154.095 200.36 154.095C201.657 154.095 201.657 152.072 200.36 152.072Z" fill="#634B05"/>
<path d="M261.02 93.9163C259.724 93.9163 259.724 95.9397 261.02 95.9397C262.317 95.9316 262.317 93.9163 261.02 93.9163Z" fill="#634B05"/>
<path d="M159.177 13.8335C157.88 13.8335 157.88 15.8569 159.177 15.8569C160.474 15.8489 160.474 13.8335 159.177 13.8335Z" fill="#634B05"/>
<path d="M145.951 54.0684C144.654 54.0684 144.654 56.0918 145.951 56.0918C147.248 56.0918 147.248 54.0684 145.951 54.0684Z" fill="#634B05"/>
<path d="M112.517 157.094C111.22 157.094 111.212 159.118 112.517 159.118C113.813 159.11 113.821 157.094 112.517 157.094Z" fill="#634B05"/>
</g>
<defs>
<clipPath id="clip0_576_37586">
<rect width="356" height="344" fill="white" transform="translate(0.5)"/>
</clipPath>
</defs>
</svg>
