<svg width="279" height="270" viewBox="0 0 279 270" fill="none" xmlns="http://www.w3.org/2000/svg">
<path d="M28.2456 203.114L19.368 203.299L14.8697 203.372C13.3637 203.372 11.8511 203.372 10.3451 203.412H10.0479V203.114V195.551V195.188H10.3847L19.335 195.228C22.314 195.228 25.2798 195.307 28.2852 195.34H28.4635V195.518C28.4635 196.8 28.4041 198.081 28.3777 199.343L28.2456 203.114ZM28.2456 203.114L28.1531 199.297C28.1531 198.035 28.0738 196.793 28.0606 195.551L28.2456 195.73C25.2599 195.769 22.3008 195.835 19.2953 195.842L10.3451 195.849L10.6754 195.518L10.6357 203.114L10.3451 202.824C11.8181 202.824 13.2911 202.824 14.7707 202.857L19.2161 202.929L28.2456 203.114Z" fill="#EBEBEB"/>
<path d="M18.2585 212.626L9.38091 212.811L4.88268 212.884C3.37666 212.884 1.86404 212.884 0.358019 212.923H0.0673828V212.626V205.063V204.733H0.39765L9.34789 204.779C12.3335 204.779 15.2927 204.852 18.2981 204.885H18.4831V205.096C18.4831 206.378 18.4302 207.659 18.3972 208.921L18.2585 212.626ZM18.2585 212.626L18.166 208.808C18.166 207.547 18.0934 206.305 18.0801 205.063L18.2585 205.241C15.2729 205.281 12.3137 205.347 9.30825 205.354L0.358019 205.393L0.688286 205.063L0.648653 212.626L0.358019 212.336C1.83101 212.336 3.304 212.336 4.7836 212.369L9.22899 212.441L18.2585 212.626Z" fill="#EBEBEB"/>
<path d="M38.2266 205.063H20.3262V212.626H38.2266V205.063Z" fill="#EBEBEB"/>
<path d="M257.775 99.4106L248.904 99.5955L244.399 99.6682C242.893 99.7012 241.387 99.6682 239.874 99.7078H239.584V99.4106L239.544 91.8475V91.4842H239.874L248.824 91.5238C251.81 91.5238 254.769 91.6031 257.775 91.6361H257.96V91.8145C257.96 93.0959 257.9 94.3707 257.867 95.6389L257.775 99.4106ZM257.775 99.4106L257.682 95.5927C257.682 94.3311 257.61 93.0893 257.596 91.8475L257.775 92.0258C254.796 92.0589 251.83 92.1315 248.824 92.1381L239.874 92.1778L240.204 91.8475L240.171 99.4106L239.874 99.12C241.354 99.12 242.82 99.12 244.3 99.12L248.752 99.1926L257.775 99.4106Z" fill="#EBEBEB"/>
<path d="M247.787 101.379H229.887V108.942H247.787V101.379Z" fill="#EBEBEB"/>
<path d="M267.788 108.942L258.917 109.127L254.413 109.2C252.907 109.233 251.394 109.2 249.888 109.239H249.597V108.942L249.531 101.392V101.062H249.862L258.812 101.102C261.797 101.102 264.757 101.181 267.762 101.214H267.947V101.392C267.947 102.674 267.894 103.948 267.861 105.217L267.788 108.942ZM267.788 108.942L267.696 105.124C267.663 103.863 267.623 102.621 267.61 101.379L267.788 101.557C264.803 101.59 261.844 101.663 258.838 101.67L249.888 101.709L250.218 101.379L250.185 108.942L249.888 108.651C251.361 108.651 252.834 108.651 254.314 108.651L258.759 108.724L267.788 108.942Z" fill="#EBEBEB"/>
<path d="M268.944 205.063H251.044V212.626H268.944V205.063Z" fill="#EBEBEB"/>
<path d="M268.945 7.90023L260.074 8.08518L255.569 8.15784C254.063 8.15784 252.557 8.15784 251.044 8.19747H250.753V7.90023L250.714 0.330511V0.000244141H251.044L259.994 0.0398771C262.98 0.0398771 265.939 0.11914 268.945 0.152167H269.11V0.330511C269.11 1.61195 269.05 2.88678 269.024 4.1484L268.945 7.90023ZM268.945 7.90023L268.852 4.08234C268.852 2.82072 268.779 1.57231 268.766 0.337115L268.945 0.51546C265.966 0.51546 263 0.621147 259.994 0.627752L251.044 0.667382L251.374 0.337115V7.90023L251.077 7.6096C252.557 7.6096 254.023 7.6096 255.503 7.6096L259.955 7.68225L268.945 7.90023Z" fill="#EBEBEB"/>
<path d="M278.932 9.87531H261.031V17.4384H278.932V9.87531Z" fill="#EBEBEB"/>
<path d="M18.258 7.90681L9.3804 8.09176L4.89537 8.16442C3.38935 8.16442 1.87673 8.16442 0.370715 8.20405H0.0800781V7.90681V0.343695V0.0134277H0.410345L9.36058 0.0596649C12.3462 0.0596649 15.3054 0.132324 18.3108 0.16535H18.4958V0.330484C18.4958 1.61192 18.4429 2.89336 18.4099 4.15498L18.258 7.90681ZM18.258 7.90681L18.1655 4.08892C18.106 2.8273 18.1061 1.5855 18.1061 0.330484L18.2844 0.515432C15.2988 0.548459 12.3396 0.614512 9.33416 0.621118L0.383923 0.660751L0.71419 0.330484L0.67456 7.8936L0.357504 7.59636C1.83049 7.59636 3.30349 7.59636 4.78308 7.59636L9.22847 7.67562L18.258 7.90681Z" fill="#EBEBEB"/>
<path d="M53.1612 111.815H35.2607V119.378H53.1612V111.815Z" fill="#EBEBEB"/>
<path d="M124.446 174.203H106.546V181.766H124.446V174.203Z" fill="#EBEBEB"/>
<path d="M107.734 26.5337L116.611 26.3554L121.11 26.2761C122.616 26.2761 124.128 26.2761 125.634 26.2761H125.932V26.5734V34.1431V34.4734H125.601L116.651 34.4271C113.672 34.4271 110.706 34.3545 107.701 34.3214H107.522V34.1431C107.522 32.855 107.582 31.5802 107.608 30.3186L107.734 26.5337ZM107.734 26.5337L107.826 30.3582C107.826 31.6132 107.906 32.8616 107.919 34.1035L107.734 33.9185C110.719 33.9185 113.679 33.8128 116.684 33.8128L125.634 33.7732L125.304 34.1035L125.344 26.5337L125.634 26.831C124.161 26.831 122.688 26.831 121.209 26.7913L116.763 26.7517L107.734 26.5337Z" fill="#EBEBEB"/>
<path d="M117.722 16.9958L126.599 16.8439L131.097 16.7712C132.603 16.7712 134.116 16.7712 135.622 16.7712H135.913V17.0685V24.6382V24.9685H135.582L126.632 24.9288C123.647 24.9288 120.687 24.8562 117.682 24.8232H117.497V24.6448C117.497 23.3237 117.55 22.0819 117.583 20.8203L117.722 16.9958ZM117.722 16.9958L117.847 20.8071C117.88 22.0621 117.92 23.3105 117.933 24.5523L117.755 24.3674C120.74 24.3674 123.699 24.2617 126.705 24.2617L135.655 24.2221L135.325 24.5523L135.365 16.9826L135.655 17.2799C134.182 17.2799 132.709 17.2799 131.23 17.2402L126.784 17.1676L117.722 16.9958Z" fill="#EBEBEB"/>
<path d="M35.498 105.402V81.5894H11.6858V105.402H35.498Z" fill="#DBDBDB"/>
<path d="M31.8057 101.709V85.2817H15.3782V101.709H31.8057Z" fill="white"/>
<path d="M31.8132 85.2752H15.3857V101.703L31.8132 85.2752Z" fill="#EBEBEB"/>
<path d="M9.3673 105.395H11.6924L11.6924 81.5828H9.3673L9.3673 105.395Z" fill="#C7C7C7"/>
<path d="M64.9717 105.402V81.5894H41.1594V105.402H64.9717Z" fill="#DBDBDB"/>
<path d="M61.2793 101.709V85.2817H44.8518V101.709H61.2793Z" fill="white"/>
<path d="M56.463 85.2752H44.8574V96.8808L56.463 85.2752Z" fill="#EBEBEB"/>
<path d="M38.8409 105.395H41.166V81.5828H38.8409V105.395Z" fill="#C7C7C7"/>
<path d="M64.9775 142.213V111.095H11.6923V142.213H64.9775Z" fill="#DBDBDB"/>
<path d="M61.0879 138.362V114.94H15.5837V138.362H61.0879Z" fill="white"/>
<path d="M45.4127 114.946H15.583V130.297L45.4127 114.946Z" fill="#EBEBEB"/>
<path d="M9.3673 142.213H11.6924L11.6924 111.095H9.3673L9.3673 142.213Z" fill="#C7C7C7"/>
<path d="M64.9775 76.0342V22.749L11.6923 22.749V76.0342H64.9775Z" fill="#DBDBDB"/>
<path d="M61.0879 26.6396H15.5771V72.1438H61.0879V26.6396Z" fill="white"/>
<path d="M15.5771 59.4021C22.4995 52.5193 42.0976 33.0203 48.3991 26.6396H15.5771V59.4021Z" fill="#EBEBEB"/>
<path d="M9.3673 76.0342H11.6924L11.6924 22.7489H9.3673L9.3673 76.0342Z" fill="#C7C7C7"/>
<path d="M0.357422 269.67L35.1808 269.511L69.9975 269.452L139.644 269.346L209.291 269.452L244.108 269.511L278.931 269.67L244.108 269.835L209.291 269.894L139.644 270L69.9975 269.894L35.1808 269.835L0.357422 269.67Z" fill="#263238"/>
<path d="M247.206 4.68958H32.5723V167.868H247.206V4.68958Z" fill="white"/>
<path d="M120.835 30.8096H123.674C124.414 30.8096 124.997 30.9945 125.431 31.3459C125.866 31.6974 126.088 32.2245 126.088 32.9273C126.088 33.6208 125.866 34.1479 125.441 34.4993C125.006 34.8507 124.442 35.0264 123.748 35.0264H122.269V37.3938H120.835V30.8096ZM122.269 31.9933V33.889H123.554C124.303 33.889 124.682 33.5746 124.682 32.9458C124.682 32.3169 124.303 31.9933 123.563 31.9933H122.269ZM130.614 32.5389V33.7503C130.429 33.7133 130.253 33.6948 130.105 33.6948C129.671 33.6948 129.356 33.8335 129.153 34.1109C128.949 34.3884 128.848 34.749 128.848 35.2114V37.3938H127.534V32.6221H128.783V33.5006C129.097 32.844 129.606 32.5111 130.327 32.5111C130.383 32.5111 130.484 32.5204 130.614 32.5389ZM133.957 32.4834C134.688 32.4834 135.279 32.7146 135.723 33.1769C136.167 33.6393 136.398 34.2497 136.398 35.0079C136.398 35.7755 136.167 36.3858 135.723 36.8482C135.279 37.3106 134.678 37.5418 133.938 37.5418C133.189 37.5418 132.588 37.3106 132.144 36.8482C131.691 36.3858 131.469 35.7755 131.469 35.0079C131.469 34.2497 131.691 33.6393 132.154 33.1769C132.607 32.7146 133.208 32.4834 133.957 32.4834ZM133.92 33.4821C133.569 33.4821 133.291 33.6208 133.088 33.8983C132.884 34.1664 132.783 34.5363 132.783 35.0172C132.783 35.4981 132.884 35.8772 133.088 36.1546C133.291 36.4228 133.569 36.5615 133.938 36.5615C134.299 36.5615 134.577 36.4228 134.78 36.1454C134.983 35.868 135.085 35.4888 135.085 34.9987C135.085 34.5271 134.974 34.1572 134.771 33.889C134.567 33.6208 134.281 33.4821 133.92 33.4821ZM142.573 37.3938H141.325V36.7835C141.011 37.2828 140.53 37.5233 139.882 37.5233C139.226 37.5233 138.699 37.3013 138.31 36.839C137.922 36.3766 137.728 35.7662 137.728 34.9895C137.728 34.2404 137.913 33.6393 138.292 33.1862C138.671 32.7238 139.18 32.5019 139.818 32.5019C140.114 32.5019 140.391 32.5574 140.65 32.6868C140.909 32.8071 141.122 32.9828 141.269 33.2139V30.8096H142.573V37.3938ZM141.306 34.9987C141.306 34.5363 141.214 34.1849 141.011 33.926C140.807 33.6671 140.53 33.5376 140.178 33.5376C139.818 33.5376 139.54 33.6671 139.346 33.926C139.143 34.1849 139.05 34.5363 139.05 34.9987C139.05 35.4611 139.143 35.8217 139.346 36.0807C139.549 36.3396 139.827 36.4783 140.178 36.4783C140.539 36.4783 140.816 36.3488 141.011 36.0899C141.214 35.831 141.306 35.4703 141.306 34.9987ZM148.711 32.6221V37.3938H147.463V36.7187C147.093 37.2643 146.575 37.5325 145.909 37.5325C145.382 37.5325 144.975 37.3938 144.68 37.1071C144.384 36.8205 144.245 36.3951 144.245 35.831V32.6221H145.567V35.3501C145.567 35.5351 145.567 35.6738 145.586 35.7847C145.604 35.8957 145.632 35.9974 145.688 36.1084C145.734 36.2194 145.817 36.3026 145.928 36.3581C146.039 36.4136 146.187 36.4321 146.372 36.4321C147.056 36.4321 147.408 35.9882 147.408 35.0819V32.6221H148.711ZM154.928 35.5536C154.844 36.1731 154.604 36.654 154.197 37.0054C153.79 37.3476 153.272 37.5233 152.643 37.5233C151.904 37.5233 151.321 37.2921 150.877 36.8482C150.433 36.3951 150.211 35.794 150.211 35.0449C150.211 34.2774 150.433 33.6578 150.877 33.1862C151.321 32.7238 151.922 32.4834 152.662 32.4834C153.291 32.4834 153.809 32.6498 154.216 32.9735C154.613 33.2972 154.844 33.7318 154.9 34.2866H153.614C153.513 33.741 153.198 33.4636 152.671 33.4636C152.311 33.4636 152.033 33.6023 151.83 33.8798C151.626 34.1572 151.534 34.5363 151.534 35.0264C151.534 35.4981 151.626 35.868 151.82 36.1269C152.015 36.3858 152.292 36.5153 152.643 36.5153C153.217 36.5153 153.55 36.2009 153.661 35.5536H154.928ZM158.975 32.6221V33.5191H158.004V35.7662C158.004 35.905 158.004 36.0067 158.013 36.0714C158.013 36.1361 158.041 36.2009 158.078 36.2749C158.115 36.3396 158.17 36.3858 158.244 36.4043C158.318 36.4228 158.429 36.4321 158.577 36.4321C158.734 36.4321 158.864 36.4321 158.975 36.4136V37.4123C158.651 37.44 158.383 37.4493 158.179 37.4493C157.606 37.4493 157.208 37.3568 157.005 37.1534C156.802 36.9499 156.7 36.5615 156.7 35.9882V33.5099H155.905V32.6221H156.7V31.1795H158.004V32.6221H158.975Z" fill="#C7C7C7"/>
<path d="M247.206 167.868L32.5724 167.961H32.4799V167.868L32.4072 4.71622V4.55109H32.5724L247.206 4.64356H247.312V4.71622L247.206 167.868ZM247.206 167.868L247.14 4.71622L247.206 4.78227L32.5724 4.85493L32.7375 4.6898L32.6648 167.842L32.5724 167.749L247.206 167.868Z" fill="#263238"/>
<path d="M247.206 4.56409H32.5723V10.4759H247.206V4.56409Z" fill="#455A64"/>
<path d="M37.6977 7.52328C37.6912 7.77509 37.6109 8.01946 37.4669 8.22615C37.3229 8.43283 37.1215 8.59275 36.8875 8.68611C36.6536 8.77948 36.3974 8.8022 36.1506 8.75145C35.9039 8.7007 35.6775 8.57872 35.4993 8.4006C35.3212 8.22248 35.1992 7.99604 35.1485 7.7493C35.0977 7.50256 35.1204 7.24636 35.2138 7.0124C35.3072 6.77844 35.4671 6.577 35.6738 6.43299C35.8805 6.28899 36.1248 6.20875 36.3767 6.20221C36.727 6.20221 37.063 6.34139 37.3108 6.58914C37.5585 6.83689 37.6977 7.17291 37.6977 7.52328Z" fill="#C7C7C7"/>
<path d="M42.9488 7.52328C42.9488 7.78456 42.8713 8.03998 42.7261 8.25722C42.581 8.47447 42.3747 8.6438 42.1333 8.74379C41.8919 8.84377 41.6262 8.86994 41.37 8.81896C41.1137 8.76799 40.8783 8.64217 40.6936 8.45741C40.5088 8.27266 40.383 8.03727 40.332 7.78101C40.2811 7.52474 40.3072 7.25912 40.4072 7.01773C40.5072 6.77633 40.6765 6.57001 40.8938 6.42485C41.111 6.27969 41.3664 6.20221 41.6277 6.20221C41.9781 6.20221 42.3141 6.34139 42.5618 6.58914C42.8096 6.83689 42.9488 7.17291 42.9488 7.52328Z" fill="white"/>
<path d="M48.1938 7.52329C48.1873 7.77682 48.1061 8.02278 47.9604 8.23034C47.8147 8.4379 47.6109 8.59783 47.3747 8.69007C47.1385 8.78231 46.8802 8.80276 46.6324 8.74886C46.3846 8.69496 46.1582 8.5691 45.9817 8.38706C45.8051 8.20502 45.6862 7.97491 45.6398 7.72557C45.5935 7.47623 45.6218 7.21877 45.7212 6.98545C45.8206 6.75213 45.9867 6.55334 46.1986 6.41401C46.4105 6.27468 46.6588 6.20101 46.9124 6.20222C47.0841 6.20214 47.254 6.23655 47.4121 6.30342C47.5702 6.37028 47.7133 6.46823 47.8328 6.59145C47.9523 6.71467 48.0459 6.86065 48.1079 7.02073C48.1699 7.1808 48.1991 7.35171 48.1938 7.52329Z" fill="#2B5AAC"/>
<path d="M182.031 92.9899H228.453V48.3906L182.031 48.3906V92.9899Z" fill="#455A64"/>
<path d="M197.349 77.7115H228.453L212.898 62.0899L197.349 77.7115Z" fill="#263238"/>
<path d="M182.031 77.7248H209.615L195.823 67.5526L182.031 77.7248Z" fill="#37474F"/>
<path d="M228.454 77.7115H182.031V92.9896H228.454V77.7115Z" fill="#37474F"/>
<path d="M195.063 59.4213C195.063 60.2052 194.831 60.9714 194.395 61.6232C193.96 62.2749 193.341 62.7829 192.617 63.0829C191.892 63.3828 191.096 63.4613 190.327 63.3084C189.558 63.1555 188.852 62.778 188.298 62.2237C187.743 61.6695 187.366 60.9633 187.213 60.1945C187.06 59.4257 187.138 58.6289 187.438 57.9047C187.738 57.1805 188.246 56.5615 188.898 56.126C189.55 55.6906 190.316 55.4581 191.1 55.4581C192.151 55.4581 193.159 55.8757 193.902 56.6189C194.646 57.3622 195.063 58.3702 195.063 59.4213Z" fill="white"/>
<path d="M156.588 48.7472C157.856 48.6481 159.124 48.5953 160.399 48.5557C161.674 48.516 162.936 48.5028 164.21 48.4962C165.485 48.4896 166.747 48.4962 168.022 48.5557C169.297 48.6151 170.558 48.6415 171.833 48.7472C170.558 48.8529 169.29 48.8991 168.022 48.9388C166.754 48.9784 165.479 48.9916 164.21 48.9916C162.942 48.9916 161.667 48.9916 160.399 48.9388C159.131 48.8859 157.856 48.8463 156.588 48.7472Z" fill="#C7C7C7"/>
<path d="M121.149 48.7472C123.792 48.6481 126.434 48.5953 129.076 48.5557L137.002 48.5028L144.929 48.5557C147.571 48.5953 150.213 48.6415 152.855 48.7472C150.213 48.8529 147.571 48.8991 144.929 48.9388L137.002 48.9916L129.076 48.9388C126.434 48.8991 123.792 48.8463 121.149 48.7472Z" fill="#C7C7C7"/>
<path d="M98.0312 48.7474C99.5835 48.6483 101.142 48.5954 102.701 48.5558C104.26 48.5162 105.812 48.5228 107.371 48.503C108.93 48.4831 110.482 48.503 112.035 48.5558C113.587 48.6086 115.152 48.6417 116.705 48.7474C115.152 48.853 113.593 48.8993 112.035 48.9389C110.476 48.9785 108.923 48.9389 107.371 48.9918C105.819 49.0446 104.253 48.9918 102.701 48.9389C101.149 48.8861 99.5637 48.8464 98.0312 48.7474Z" fill="#C7C7C7"/>
<path d="M66.6758 48.7474C68.7829 48.6483 70.89 48.5954 72.9971 48.5558C75.1042 48.5162 77.2113 48.5228 79.3184 48.503C81.4255 48.4831 83.5326 48.503 85.6397 48.5558C87.7468 48.6086 89.8539 48.6417 91.9676 48.7474C89.8539 48.853 87.7468 48.8993 85.6397 48.9389C83.5326 48.9785 81.4255 48.9389 79.3184 48.9918C77.2113 49.0446 75.1042 48.9918 72.9971 48.9389C70.89 48.8861 68.7829 48.8464 66.6758 48.7474Z" fill="#C7C7C7"/>
<path d="M160.247 55.0684C161.211 54.9627 162.176 54.9164 163.14 54.8768C164.105 54.8372 165.076 54.824 166.04 54.8174C167.004 54.8108 167.969 54.8174 168.933 54.8768C169.897 54.9363 170.868 54.9627 171.833 55.0684C170.868 55.1674 169.897 55.2203 168.933 55.2599C167.969 55.2996 167.004 55.3062 166.04 55.3128C165.076 55.3194 164.105 55.3128 163.14 55.2533C162.176 55.1939 161.211 55.1542 160.247 55.0684Z" fill="#C7C7C7"/>
<path d="M135.82 55.0686C137.551 54.9629 139.282 54.9167 141.012 54.8771C142.743 54.8374 144.473 54.8374 146.204 54.8176C147.934 54.7978 149.665 54.8176 151.396 54.8771C153.126 54.9365 154.857 54.9629 156.587 55.0686C154.857 55.1677 153.126 55.2205 151.396 55.2602C149.665 55.2998 147.934 55.2932 146.204 55.313C144.473 55.3328 142.743 55.313 141.012 55.2536C139.282 55.1941 137.551 55.1545 135.82 55.0686Z" fill="#C7C7C7"/>
<path d="M106.546 55.0686C108.6 54.9629 110.661 54.9167 112.715 54.8771C114.77 54.8374 116.83 54.8374 118.885 54.8176C120.939 54.7978 123 54.8176 125.061 54.8771C127.122 54.9365 129.169 54.9629 131.23 55.0686C129.169 55.1677 127.115 55.2205 125.061 55.2602C123.006 55.2998 120.946 55.2932 118.885 55.313C116.824 55.3328 114.776 55.313 112.715 55.2536C110.654 55.1941 108.6 55.1545 106.546 55.0686Z" fill="#C7C7C7"/>
<path d="M66.6758 55.0686C69.5887 54.9629 72.5083 54.9166 75.4213 54.877L84.1733 54.8176L92.9188 54.877C95.8384 54.9166 98.7513 54.9629 101.671 55.0686C98.7513 55.1676 95.8384 55.2205 92.9188 55.2601L84.1733 55.313L75.4213 55.2535C72.5083 55.2139 69.5887 55.1544 66.6758 55.0686Z" fill="#C7C7C7"/>
<path d="M158.926 61.3899C160.002 61.2842 161.079 61.238 162.156 61.1984C163.232 61.1587 164.303 61.1455 165.379 61.1389C166.456 61.1323 167.533 61.1389 168.603 61.1984C169.673 61.2578 170.756 61.2842 171.833 61.3899C170.756 61.489 169.679 61.5352 168.603 61.5749C167.526 61.6145 166.456 61.6277 165.379 61.6343C164.303 61.6409 163.226 61.6343 162.156 61.5749C161.086 61.5154 160.002 61.489 158.926 61.3899Z" fill="#C7C7C7"/>
<path d="M141.104 61.3899C142.234 61.2842 143.364 61.238 144.493 61.1984C145.623 61.1587 146.752 61.1455 147.888 61.1389C149.024 61.1323 150.147 61.1389 151.277 61.1984C152.406 61.2578 153.536 61.2842 154.672 61.3899C153.536 61.489 152.406 61.5352 151.277 61.5749C150.147 61.6145 149.018 61.6277 147.888 61.6343C146.759 61.6409 145.623 61.6343 144.493 61.5749C143.364 61.5154 142.234 61.489 141.104 61.3899Z" fill="#C7C7C7"/>
<path d="M113.759 61.3898C115.806 61.2841 117.861 61.2379 119.908 61.1982C121.956 61.1586 124.017 61.1586 126.065 61.1388C128.112 61.119 130.166 61.1388 132.221 61.1982C134.275 61.2577 136.323 61.2841 138.377 61.3898C136.323 61.4889 134.268 61.5351 132.221 61.5747C130.173 61.6144 128.119 61.6144 126.065 61.6342C124.01 61.654 121.963 61.6342 119.908 61.5747C117.854 61.5153 115.806 61.4889 113.759 61.3898Z" fill="#C7C7C7"/>
<path d="M92.2773 61.3898C93.8428 61.2841 95.4017 61.2379 96.9605 61.1982C98.5194 61.1586 100.085 61.1586 101.644 61.1388C103.203 61.119 104.768 61.1388 106.327 61.1982C107.886 61.2577 109.451 61.2841 111.01 61.3898C109.451 61.4889 107.886 61.5351 106.327 61.5747C104.768 61.6144 103.203 61.6144 101.644 61.6342C100.085 61.654 98.526 61.6342 96.9605 61.5747C95.3951 61.5153 93.8428 61.4889 92.2773 61.3898Z" fill="#C7C7C7"/>
<path d="M50.8623 61.3898C53.9404 61.2841 57.0251 61.2379 60.1098 61.1982L69.3573 61.1388L78.6047 61.1982C81.6828 61.2379 84.7675 61.2841 87.8522 61.3898C84.7741 61.4889 81.6894 61.5351 78.6047 61.5747L69.3573 61.6342L60.1098 61.5747C57.0251 61.5351 53.9404 61.4889 50.8623 61.3898Z" fill="#C7C7C7"/>
<path d="M103.976 67.7045C105.297 67.6054 106.618 67.5591 107.939 67.5195C109.26 67.4799 110.581 67.4667 111.902 67.4601C113.223 67.4535 114.544 67.4601 115.865 67.5195C117.186 67.579 118.507 67.6054 119.828 67.7045C118.507 67.8102 117.186 67.8564 115.865 67.896C114.544 67.9356 113.223 67.9489 111.902 67.9555C110.581 67.9621 109.26 67.9555 107.939 67.896C106.618 67.8366 105.297 67.8102 103.976 67.7045Z" fill="#C7C7C7"/>
<path d="M76.7891 67.7044C78.7707 67.6053 80.7523 67.5591 82.6876 67.5195C84.623 67.4798 86.6508 67.4798 88.5928 67.46C90.5348 67.4402 92.523 67.46 94.4914 67.5195C96.4598 67.5789 98.4546 67.6053 100.39 67.7044C98.4083 67.8101 96.4267 67.8563 94.4914 67.896C92.556 67.9356 90.5282 67.9356 88.5928 67.9554C86.6574 67.9752 84.6296 67.9554 82.6876 67.896C80.7457 67.8365 78.7575 67.8101 76.7891 67.7044Z" fill="#C7C7C7"/>
<path d="M50.8623 67.7044C52.7316 67.6053 54.5943 67.5591 56.4636 67.5195C58.3329 67.4798 60.1957 67.4798 62.065 67.46C63.9343 67.4402 65.797 67.46 67.6597 67.5195C69.5224 67.5789 71.3983 67.6053 73.261 67.7044C71.3983 67.8101 69.529 67.8563 67.6597 67.896C65.7904 67.9356 63.9277 67.9356 62.065 67.9554C60.2023 67.9752 58.3263 67.9554 56.4636 67.896C54.6009 67.8365 52.7316 67.8101 50.8623 67.7044Z" fill="#C7C7C7"/>
<path d="M156.588 80.3471C157.856 80.2414 159.124 80.1951 160.399 80.1555C161.674 80.1159 162.936 80.1027 164.21 80.0961C165.485 80.0895 166.747 80.0961 168.022 80.1555C169.297 80.215 170.558 80.2414 171.833 80.3471C170.558 80.4527 169.29 80.499 168.022 80.5386C166.754 80.5782 165.479 80.5915 164.21 80.5915C162.942 80.5915 161.667 80.5915 160.399 80.5386C159.131 80.4858 157.856 80.4461 156.588 80.3471Z" fill="#C7C7C7"/>
<path d="M126.163 80.347C128.396 80.2413 130.622 80.1951 132.854 80.1555C135.087 80.1158 137.313 80.1555 139.546 80.1026C141.778 80.0498 144.004 80.1026 146.237 80.1555C148.469 80.2083 150.695 80.2413 152.928 80.347C150.695 80.4527 148.463 80.499 146.237 80.5386C144.011 80.5782 141.772 80.5386 139.546 80.5914C137.32 80.6443 135.08 80.5914 132.854 80.5386C130.628 80.4857 128.416 80.4461 126.163 80.347Z" fill="#C7C7C7"/>
<path d="M99.1807 80.347C101.063 80.2413 102.939 80.1951 104.822 80.1555C106.704 80.1158 108.58 80.1555 110.456 80.1026C112.332 80.0498 114.221 80.1026 116.097 80.1555C117.973 80.2083 119.855 80.2413 121.738 80.347C119.855 80.4527 117.979 80.499 116.097 80.5386C114.214 80.5782 112.338 80.5386 110.456 80.5914C108.573 80.6443 106.698 80.5914 104.822 80.5386C102.946 80.4857 101.063 80.4461 99.1807 80.347Z" fill="#C7C7C7"/>
<path d="M81.8477 80.3471C82.9507 80.2414 84.0538 80.1951 85.1503 80.1555C86.2468 80.1159 87.3565 80.1027 88.453 80.0961C89.5495 80.0895 90.6592 80.0961 91.7557 80.1555C92.8522 80.215 93.9619 80.2414 95.0583 80.3471C93.9552 80.4527 92.8522 80.499 91.7557 80.5386C90.6592 80.5782 89.5495 80.5915 88.453 80.5915C87.3565 80.5915 86.2534 80.5915 85.1503 80.5386C84.0472 80.4858 82.9507 80.4461 81.8477 80.3471Z" fill="#C7C7C7"/>
<path d="M50.8623 80.347C53.1015 80.2413 55.3473 80.1951 57.5865 80.1555C59.8258 80.1158 62.0716 80.1555 64.3108 80.1026C66.55 80.0498 68.7958 80.1026 71.0416 80.1555C73.2874 80.2083 75.52 80.2413 77.7659 80.347C75.52 80.4527 73.2808 80.499 71.0416 80.5386C68.8024 80.5782 66.5566 80.5386 64.3108 80.5914C62.065 80.6443 59.8324 80.5914 57.5865 80.5386C55.3407 80.4857 53.1147 80.4461 50.8623 80.347Z" fill="#C7C7C7"/>
<path d="M159.593 86.6685C160.617 86.5629 161.634 86.5166 162.651 86.477C163.668 86.4373 164.692 86.4241 165.709 86.4175C166.727 86.4109 167.75 86.4175 168.774 86.477C169.798 86.5364 170.809 86.5629 171.832 86.6685C170.809 86.7676 169.791 86.8205 168.774 86.8601C167.757 86.8997 166.733 86.9063 165.709 86.9129C164.685 86.9195 163.675 86.9129 162.651 86.8535C161.627 86.794 160.617 86.7676 159.593 86.6685Z" fill="#C7C7C7"/>
<path d="M135.404 86.6685C137.056 86.5628 138.707 86.5165 140.365 86.4769C142.023 86.4373 143.668 86.4373 145.332 86.4175C146.997 86.3976 148.635 86.4175 150.299 86.4769C151.964 86.5364 153.602 86.5628 155.267 86.6685C153.609 86.7676 151.964 86.8204 150.299 86.86C148.635 86.8997 146.997 86.8931 145.332 86.9129C143.668 86.9327 142.029 86.9129 140.365 86.8534C138.7 86.794 137.056 86.7676 135.404 86.6685Z" fill="#C7C7C7"/>
<path d="M111.348 86.6685C113.072 86.5628 114.802 86.5165 116.526 86.4769C118.25 86.4373 119.981 86.4373 121.711 86.4175C123.442 86.3976 125.159 86.4175 126.89 86.4769C128.621 86.5364 130.345 86.5628 132.069 86.6685C130.345 86.7676 128.614 86.8204 126.89 86.86C125.166 86.8997 123.435 86.8931 121.711 86.9129C119.987 86.9327 118.257 86.9129 116.526 86.8534C114.796 86.794 113.072 86.7676 111.348 86.6685Z" fill="#C7C7C7"/>
<path d="M93.1494 86.6685C94.3318 86.5629 95.5141 86.5166 96.7031 86.477C97.8921 86.4373 99.0678 86.4241 100.25 86.4175C101.433 86.4109 102.615 86.4175 103.797 86.477C104.98 86.5364 106.162 86.5629 107.351 86.6685C106.162 86.7676 104.98 86.8205 103.797 86.8601C102.615 86.8997 101.433 86.9063 100.25 86.9129C99.0678 86.9195 97.8854 86.9129 96.7031 86.8535C95.5207 86.794 94.3318 86.7676 93.1494 86.6685Z" fill="#C7C7C7"/>
<path d="M69.3506 86.6685C71.0416 86.5628 72.7325 86.5165 74.4235 86.4769C76.1144 86.4373 77.812 86.4373 79.503 86.4175C81.194 86.3976 82.8849 86.4175 84.5825 86.4769C86.2801 86.5364 87.9644 86.5628 89.6554 86.6685C87.9644 86.7676 86.2735 86.8204 84.5825 86.86C82.8915 86.8997 81.194 86.8931 79.503 86.9129C77.812 86.9327 76.1144 86.9129 74.4235 86.8534C72.7325 86.794 71.0416 86.7676 69.3506 86.6685Z" fill="#C7C7C7"/>
<path d="M50.8623 86.6685C52.1834 86.5629 53.5044 86.5166 54.8255 86.477C56.1466 86.4373 57.4676 86.4241 58.7887 86.4175C60.1098 86.4109 61.4308 86.4175 62.7519 86.477C64.073 86.5364 65.3941 86.5629 66.7151 86.6685C65.3941 86.7676 64.073 86.8205 62.7519 86.8601C61.4308 86.8997 60.1098 86.9063 58.7887 86.9129C57.4676 86.9195 56.1466 86.9129 54.8255 86.8535C53.5044 86.794 52.1834 86.7676 50.8623 86.6685Z" fill="#C7C7C7"/>
<path d="M115.496 92.9896C116.962 92.884 118.422 92.8377 119.889 92.7981C121.355 92.7585 122.815 92.7584 124.281 92.7386C125.748 92.7188 127.207 92.7386 128.674 92.7981C130.14 92.8575 131.6 92.884 133.066 92.9896C131.6 93.0887 130.14 93.135 128.674 93.1746C127.207 93.2142 125.748 93.2142 124.281 93.234C122.815 93.2538 121.355 93.234 119.889 93.1746C118.422 93.1151 116.962 93.0887 115.496 92.9896Z" fill="#C7C7C7"/>
<path d="M101.645 92.9898C102.543 92.8841 103.441 92.8378 104.346 92.7982C105.251 92.7586 106.143 92.7454 107.041 92.7388C107.939 92.7322 108.838 92.7388 109.736 92.7982C110.634 92.8577 111.539 92.8841 112.438 92.9898C111.539 93.0888 110.641 93.1351 109.736 93.1747C108.831 93.2143 107.939 93.2276 107.041 93.2342C106.143 93.2408 105.244 93.2342 104.346 93.1747C103.448 93.1153 102.543 93.0888 101.645 92.9898Z" fill="#C7C7C7"/>
<path d="M80.0713 92.9896C81.5443 92.884 83.0107 92.8377 84.4837 92.7981C85.9567 92.7585 87.4296 92.7584 88.9026 92.7386C90.3756 92.7188 91.8486 92.7386 93.3216 92.7981C94.7946 92.8575 96.2676 92.884 97.7406 92.9896C96.2676 93.0887 94.7946 93.135 93.3216 93.1746C91.8486 93.2142 90.3756 93.2142 88.9026 93.234C87.4296 93.2538 85.9567 93.234 84.4837 93.1746C83.0107 93.1151 81.5179 93.0887 80.0713 92.9896Z" fill="#C7C7C7"/>
<path d="M50.8623 92.9896C52.9826 92.884 55.1029 92.8377 57.2232 92.7981C59.3436 92.7585 61.4639 92.7584 63.5842 92.7386C65.7045 92.7188 67.8248 92.7386 69.9451 92.7981C72.0654 92.8575 74.1858 92.884 76.3061 92.9896C74.1858 93.0887 72.0654 93.135 69.9451 93.1746C67.8248 93.2142 65.7045 93.2142 63.5842 93.234C61.4639 93.2538 59.3436 93.234 57.2232 93.1746C55.1029 93.1151 52.9826 93.0887 50.8623 92.9896Z" fill="#C7C7C7"/>
<path d="M215.89 99.3043C216.94 99.2052 217.984 99.159 219.034 99.1194C220.084 99.0797 221.121 99.0665 222.171 99.0599C223.222 99.0533 224.265 99.0599 225.309 99.1194C226.353 99.1788 227.403 99.2052 228.453 99.3043C227.403 99.41 226.359 99.4562 225.309 99.4959C224.259 99.5355 223.215 99.5487 222.171 99.5553C221.128 99.5619 220.077 99.5553 219.034 99.4959C217.99 99.4364 216.927 99.41 215.89 99.3043Z" fill="#C7C7C7"/>
<path d="M191.094 99.3046C192.91 99.2055 194.727 99.1592 196.543 99.1196C198.36 99.08 200.176 99.08 201.993 99.0602C203.809 99.0403 205.632 99.0602 207.449 99.1196C209.265 99.1791 211.081 99.2055 212.898 99.3046C211.081 99.4102 209.265 99.4565 207.449 99.4961C205.632 99.5358 203.809 99.5358 201.993 99.5556C200.176 99.5754 198.36 99.5556 196.543 99.4961C194.727 99.4367 192.91 99.4102 191.094 99.3046Z" fill="#C7C7C7"/>
<path d="M160.247 99.3046C162.486 99.2055 164.725 99.1592 166.965 99.1196C169.204 99.08 171.443 99.08 173.682 99.0602C175.922 99.0403 178.161 99.0602 180.4 99.1196C182.639 99.1791 184.878 99.2055 187.118 99.3046C184.878 99.4102 182.639 99.4565 180.4 99.4961C178.161 99.5358 175.922 99.5358 173.682 99.5556C171.443 99.5754 169.204 99.5556 166.965 99.4961C164.725 99.4367 162.486 99.4102 160.247 99.3046Z" fill="#C7C7C7"/>
<path d="M137.538 99.3046C139.123 99.2055 140.715 99.1592 142.301 99.1196C143.886 99.08 145.478 99.08 147.063 99.0602C148.648 99.0403 150.24 99.0602 151.825 99.1196C153.411 99.1791 154.996 99.2055 156.588 99.3046C154.996 99.4102 153.411 99.4565 151.825 99.4961C150.24 99.5358 148.648 99.5358 147.063 99.5556C145.478 99.5754 143.886 99.5556 142.301 99.4961C140.715 99.4367 139.123 99.4102 137.538 99.3046Z" fill="#C7C7C7"/>
<path d="M111.011 99.3046C112.847 99.2055 114.69 99.1592 116.526 99.1196C118.362 99.08 120.199 99.08 122.042 99.0602C123.885 99.0403 125.714 99.0602 127.551 99.1196C129.387 99.1791 131.23 99.2055 133.066 99.3046C131.23 99.4102 129.387 99.4565 127.551 99.4961C125.714 99.5358 123.878 99.5358 122.042 99.5556C120.205 99.5754 118.362 99.5556 116.526 99.4961C114.69 99.4367 112.847 99.4102 111.011 99.3046Z" fill="#C7C7C7"/>
<path d="M86.3262 99.3046C88.0766 99.2055 89.827 99.1592 91.5774 99.1196C93.3278 99.08 95.0849 99.08 96.8617 99.0602C98.6385 99.0403 100.369 99.0602 102.146 99.1196C103.923 99.1791 105.647 99.2055 107.43 99.3046C105.673 99.4102 103.923 99.4565 102.146 99.4961C100.369 99.5358 98.6385 99.5358 96.8617 99.5556C95.0849 99.5754 93.3609 99.5556 91.5774 99.4961C89.794 99.4367 88.0766 99.4102 86.3262 99.3046Z" fill="#C7C7C7"/>
<path d="M51.0273 99.3045C53.6695 99.2054 56.3116 99.1592 59.0066 99.1196L66.9792 99.0601L74.9519 99.1196C77.594 99.1592 80.2692 99.2054 82.9245 99.3045C80.2824 99.4102 77.6403 99.4564 74.9519 99.4961L66.9792 99.5555L59.0066 99.4961C56.3446 99.4564 53.6893 99.4102 51.0273 99.3045Z" fill="#C7C7C7"/>
<path d="M206.358 105.626C208.201 105.527 210.038 105.474 211.88 105.434C213.723 105.395 215.56 105.401 217.396 105.381C219.232 105.362 221.082 105.381 222.918 105.434C224.754 105.487 226.597 105.527 228.44 105.626C226.597 105.732 224.761 105.778 222.918 105.817C221.075 105.857 219.239 105.857 217.396 105.877C215.553 105.897 213.717 105.877 211.88 105.817C210.044 105.758 208.214 105.732 206.358 105.626Z" fill="#C7C7C7"/>
<path d="M185.433 105.626C186.906 105.527 188.385 105.474 189.865 105.434C191.344 105.395 192.817 105.401 194.29 105.381C195.763 105.362 197.243 105.381 198.723 105.434C200.202 105.487 201.675 105.527 203.148 105.626C201.675 105.732 200.196 105.778 198.723 105.817C197.25 105.857 195.77 105.857 194.29 105.877C192.811 105.897 191.338 105.877 189.865 105.817C188.392 105.758 186.906 105.732 185.433 105.626Z" fill="#C7C7C7"/>
<path d="M168.279 105.626C169.33 105.527 170.38 105.474 171.43 105.434C172.48 105.395 173.537 105.388 174.587 105.382C175.638 105.375 176.688 105.382 177.738 105.434C178.788 105.487 179.845 105.527 180.895 105.626C179.845 105.732 178.788 105.778 177.738 105.817C176.688 105.857 175.638 105.87 174.587 105.877C173.537 105.884 172.487 105.877 171.43 105.817C170.373 105.758 169.33 105.732 168.279 105.626Z" fill="#C7C7C7"/>
<path d="M147.062 105.626C148.489 105.527 149.923 105.474 151.349 105.434C152.776 105.395 154.209 105.401 155.636 105.381C157.063 105.362 158.496 105.381 159.923 105.434C161.35 105.487 162.777 105.527 164.21 105.626C162.777 105.732 161.35 105.778 159.923 105.817C158.496 105.857 157.063 105.857 155.636 105.877C154.209 105.897 152.776 105.877 151.349 105.817C149.923 105.758 148.489 105.732 147.062 105.626Z" fill="#C7C7C7"/>
<path d="M118.884 105.626C120.865 105.527 122.847 105.474 124.829 105.434C126.81 105.395 128.792 105.401 130.773 105.381C132.755 105.362 134.737 105.381 136.718 105.434C138.7 105.487 140.681 105.527 142.663 105.626C140.681 105.732 138.7 105.778 136.718 105.817C134.737 105.857 132.755 105.857 130.773 105.877C128.792 105.897 126.81 105.877 124.829 105.817C122.847 105.758 120.865 105.732 118.884 105.626Z" fill="#C7C7C7"/>
<path d="M93.4072 105.626C95.2501 105.527 97.0864 105.474 98.9293 105.434C100.772 105.395 102.608 105.401 104.445 105.381C106.281 105.362 108.124 105.381 109.967 105.434C111.81 105.487 113.646 105.527 115.482 105.626C113.646 105.732 111.803 105.778 109.967 105.817C108.131 105.857 106.288 105.857 104.445 105.877C102.602 105.897 100.766 105.877 98.9293 105.817C97.093 105.758 95.2633 105.732 93.4072 105.626Z" fill="#C7C7C7"/>
<path d="M71.9473 105.626C73.4929 105.527 75.0386 105.474 76.571 105.434C78.1034 105.395 79.6623 105.401 81.1947 105.381C82.7272 105.362 84.286 105.381 85.8185 105.434C87.3509 105.487 88.9164 105.527 90.4422 105.626C88.8966 105.732 87.3443 105.778 85.8185 105.817C84.2926 105.857 82.7206 105.857 81.1947 105.877C79.6689 105.897 78.0968 105.877 76.571 105.817C75.0452 105.758 73.4929 105.732 71.9473 105.626Z" fill="#C7C7C7"/>
<path d="M51.0273 105.626C52.4211 105.527 53.8148 105.474 55.2085 105.434C56.6023 105.395 57.9894 105.401 59.3831 105.381C60.7768 105.362 62.1706 105.381 63.5643 105.434C64.958 105.487 66.3451 105.527 67.7389 105.626C66.3451 105.732 64.9514 105.778 63.5643 105.817C62.1772 105.857 60.7768 105.857 59.3831 105.877C57.9894 105.897 56.6023 105.877 55.2085 105.817C53.8148 105.758 52.4541 105.732 51.0273 105.626Z" fill="#C7C7C7"/>
<path d="M178.841 111.96C180.426 111.855 182.005 111.808 183.59 111.769C185.175 111.729 186.754 111.736 188.339 111.709C189.925 111.683 191.503 111.709 193.089 111.769C194.674 111.828 196.252 111.855 197.831 111.96C196.252 112.066 194.667 112.112 193.089 112.152C191.51 112.191 189.918 112.152 188.339 112.205C186.761 112.257 185.175 112.205 183.59 112.152C182.005 112.099 180.426 112.046 178.841 111.96Z" fill="#C7C7C7"/>
<path d="M154.672 111.96C156.402 111.855 158.133 111.808 159.87 111.769C161.607 111.729 163.338 111.736 165.069 111.709C166.799 111.683 168.536 111.709 170.274 111.769C172.011 111.828 173.741 111.855 175.472 111.96C173.741 112.066 172.004 112.112 170.274 112.152C168.543 112.191 166.806 112.152 165.069 112.205C163.331 112.257 161.601 112.205 159.87 112.152C158.14 112.099 156.402 112.046 154.672 111.96Z" fill="#C7C7C7"/>
<path d="M136.441 111.96C137.624 111.855 138.806 111.808 139.988 111.769C141.171 111.729 142.347 111.716 143.529 111.709C144.711 111.703 145.887 111.709 147.069 111.769C148.252 111.828 149.434 111.855 150.61 111.96C149.434 112.066 148.252 112.112 147.069 112.152C145.887 112.192 144.711 112.205 143.529 112.205C142.347 112.205 141.164 112.205 139.988 112.152C138.813 112.099 137.624 112.046 136.441 111.96Z" fill="#C7C7C7"/>
<path d="M114.848 111.96C116.367 111.855 117.886 111.808 119.405 111.769C120.925 111.729 122.437 111.736 123.956 111.709C125.476 111.683 126.995 111.709 128.514 111.769C130.033 111.828 131.546 111.855 133.065 111.96C131.546 112.066 130.027 112.112 128.514 112.152C127.001 112.191 125.476 112.152 123.956 112.205C122.437 112.257 120.925 112.205 119.405 112.152C117.886 112.099 116.367 112.046 114.848 111.96Z" fill="#C7C7C7"/>
<path d="M101.645 111.96C104.758 111.626 107.898 111.626 111.011 111.96C109.456 112.137 107.892 112.219 106.328 112.205C104.763 112.216 103.199 112.134 101.645 111.96Z" fill="#C7C7C7"/>
<path d="M78.334 111.96C79.9127 111.855 81.4979 111.808 83.0832 111.769C84.6685 111.729 86.2472 111.736 87.8325 111.709C89.4177 111.683 90.9964 111.709 92.5817 111.769C94.167 111.828 95.7457 111.855 97.3309 111.96C95.7457 112.066 94.1604 112.112 92.5817 112.152C91.003 112.191 89.4111 112.152 87.8325 112.205C86.2538 112.257 84.6619 112.205 83.0832 112.152C81.5045 112.099 79.9127 112.046 78.334 111.96Z" fill="#C7C7C7"/>
<path d="M51.0273 111.96C52.9693 111.855 54.9047 111.808 56.84 111.769C58.7754 111.729 60.7108 111.736 62.6527 111.709C64.5947 111.683 66.5235 111.709 68.4588 111.769C70.3942 111.828 72.3362 111.855 74.2715 111.96C72.3362 112.066 70.3942 112.112 68.4588 112.152C66.5235 112.191 64.5881 112.152 62.6527 112.205C60.7174 112.257 58.7754 112.205 56.84 112.152C54.9047 112.099 52.9693 112.046 51.0273 111.96Z" fill="#C7C7C7"/>
<path d="M197.831 124.59C200.387 124.484 202.937 124.438 205.487 124.398L213.142 124.339L220.798 124.398C223.347 124.438 225.897 124.484 228.453 124.59C225.897 124.689 223.347 124.735 220.798 124.775L213.142 124.834L205.487 124.775C202.937 124.735 200.414 124.689 197.831 124.59Z" fill="#C7C7C7"/>
<path d="M160.247 124.59C163.081 124.484 165.921 124.438 168.755 124.398L177.269 124.339L185.783 124.398C188.617 124.438 191.457 124.484 194.291 124.59C191.457 124.689 188.617 124.735 185.783 124.775L177.269 124.834L168.755 124.775C165.921 124.735 163.081 124.689 160.247 124.59Z" fill="#C7C7C7"/>
<path d="M133.885 124.59C135.78 124.484 137.67 124.438 139.559 124.398C141.448 124.359 143.344 124.359 145.239 124.339C147.135 124.319 149.018 124.339 150.913 124.398C152.809 124.458 154.692 124.484 156.587 124.59C154.692 124.689 152.802 124.735 150.913 124.775C149.024 124.814 147.128 124.814 145.239 124.834C143.35 124.854 141.454 124.834 139.559 124.775C137.663 124.715 135.78 124.689 133.885 124.59Z" fill="#C7C7C7"/>
<path d="M115.496 124.59C116.692 124.484 117.881 124.438 119.076 124.398C120.272 124.358 121.461 124.345 122.656 124.339C123.852 124.332 125.041 124.339 126.23 124.398C127.419 124.458 128.621 124.484 129.81 124.59C128.621 124.689 127.425 124.735 126.23 124.775C125.034 124.814 123.845 124.827 122.656 124.834C121.467 124.841 120.265 124.834 119.076 124.775C117.887 124.715 116.692 124.689 115.496 124.59Z" fill="#C7C7C7"/>
<path d="M84.1592 124.59C86.4644 124.484 88.7829 124.438 91.0816 124.398C93.3802 124.359 95.7053 124.359 98.004 124.339C100.303 124.319 102.628 124.339 104.926 124.398C107.225 124.458 109.55 124.484 111.849 124.59C109.543 124.689 107.225 124.735 104.926 124.775C102.628 124.814 100.303 124.814 98.004 124.834C95.7053 124.854 93.3802 124.834 91.0816 124.775C88.7829 124.715 86.4777 124.689 84.1592 124.59Z" fill="#C7C7C7"/>
<path d="M65.0039 124.59C66.325 124.484 67.7121 124.438 69.0662 124.398C70.4203 124.358 71.7744 124.345 73.1285 124.339C74.4826 124.332 75.8367 124.339 77.1974 124.398C78.5581 124.458 79.9056 124.484 81.2596 124.59C79.9386 124.689 78.5515 124.735 77.1974 124.775C75.8433 124.814 74.4826 124.827 73.1285 124.834C71.7744 124.841 70.4203 124.834 69.0662 124.775C67.7121 124.715 66.325 124.689 65.0039 124.59Z" fill="#C7C7C7"/>
<path d="M51.0273 124.59C51.8662 124.484 52.7051 124.438 53.544 124.398C54.3829 124.358 55.2217 124.345 56.0606 124.339C56.8995 124.332 57.7384 124.339 58.5706 124.398C59.4029 124.458 60.2484 124.484 61.0873 124.59C60.2484 124.689 59.4095 124.735 58.5706 124.775C57.7318 124.814 56.8995 124.827 56.0606 124.834C55.2217 124.841 54.3829 124.834 53.544 124.775C52.7051 124.715 51.8662 124.689 51.0273 124.59Z" fill="#C7C7C7"/>
<path d="M187.778 130.904C189.383 130.805 190.995 130.759 192.6 130.719C194.205 130.68 195.817 130.68 197.429 130.66C199.04 130.64 200.646 130.66 202.257 130.719C203.869 130.779 205.474 130.805 207.079 130.904C205.474 131.01 203.862 131.056 202.257 131.096C200.652 131.136 199.04 131.136 197.429 131.155C195.817 131.175 194.212 131.155 192.6 131.096C190.989 131.037 189.383 131.01 187.778 130.904Z" fill="#C7C7C7"/>
<path d="M168.887 130.904C170.082 130.805 171.278 130.759 172.473 130.72C173.669 130.68 174.865 130.667 176.06 130.66C177.256 130.653 178.451 130.66 179.647 130.72C180.842 130.779 182.038 130.805 183.234 130.904C182.038 131.01 180.842 131.056 179.647 131.096C178.451 131.136 177.256 131.149 176.06 131.155C174.865 131.162 173.669 131.155 172.473 131.096C171.278 131.037 170.082 131.01 168.887 130.904Z" fill="#C7C7C7"/>
<path d="M150.979 130.904C152.076 130.805 153.179 130.759 154.282 130.72C155.385 130.68 156.488 130.667 157.585 130.66C158.681 130.653 159.791 130.66 160.888 130.72C161.984 130.779 163.094 130.805 164.19 130.904C163.087 131.01 161.984 131.056 160.888 131.096C159.791 131.136 158.681 131.149 157.585 131.155C156.488 131.162 155.379 131.155 154.282 131.096C153.186 131.037 152.076 131.01 150.979 130.904Z" fill="#C7C7C7"/>
<path d="M128.693 130.904C130.259 130.805 131.824 130.759 133.39 130.719C134.955 130.68 136.527 130.68 138.093 130.66C139.658 130.64 141.224 130.66 142.789 130.719C144.355 130.779 145.92 130.805 147.492 130.904C145.92 131.01 144.355 131.056 142.789 131.096C141.224 131.136 139.658 131.136 138.093 131.155C136.527 131.175 134.955 131.155 133.39 131.096C131.824 131.037 130.259 131.01 128.693 130.904Z" fill="#C7C7C7"/>
<path d="M113.759 130.904C114.723 130.805 115.681 130.759 116.645 130.72C117.61 130.68 118.567 130.667 119.532 130.66C120.496 130.653 121.461 130.66 122.418 130.72C123.376 130.779 124.347 130.805 125.305 130.904C124.347 131.01 123.383 131.056 122.418 131.096C121.454 131.136 120.496 131.149 119.532 131.155C118.567 131.162 117.61 131.155 116.645 131.096C115.681 131.037 114.723 131.01 113.759 130.904Z" fill="#C7C7C7"/>
<path d="M92.2773 130.904C93.7239 130.805 95.1639 130.759 96.6038 130.719C98.0438 130.68 99.4904 130.68 100.93 130.66C102.37 130.64 103.81 130.66 105.25 130.719C106.69 130.779 108.137 130.805 109.577 130.904C108.137 131.01 106.697 131.056 105.25 131.096C103.804 131.136 102.37 131.136 100.93 131.155C99.4904 131.175 98.0438 131.155 96.6038 131.096C95.1639 131.037 93.7239 131.01 92.2773 130.904Z" fill="#C7C7C7"/>
<path d="M74.8467 130.904C76.0224 130.805 77.1982 130.759 78.3739 130.72C79.5497 130.68 80.7254 130.667 81.9012 130.66C83.0769 130.653 84.2527 130.66 85.4284 130.72C86.6042 130.779 87.7733 130.805 88.9491 130.904C87.7733 131.01 86.5976 131.056 85.4284 131.096C84.2593 131.136 83.0769 131.149 81.9012 131.155C80.7254 131.162 79.5497 131.155 78.3739 131.096C77.1982 131.037 76.0224 131.01 74.8467 130.904Z" fill="#C7C7C7"/>
<path d="M51.0273 130.904C52.6523 130.805 54.2706 130.759 55.8889 130.719C57.5072 130.68 59.1321 130.68 60.757 130.66C62.3819 130.64 63.9936 130.66 65.6185 130.719C67.2435 130.779 68.8618 130.805 70.4801 130.904C68.8618 131.01 67.2368 131.056 65.6185 131.096C64.0002 131.136 62.3753 131.136 60.757 131.155C59.1387 131.175 57.5138 131.155 55.8889 131.096C54.264 131.037 52.6523 131.01 51.0273 130.904Z" fill="#C7C7C7"/>
<path d="M168.279 34.9025L175.803 34.7836L183.32 34.7175L198.36 34.6581L213.4 34.7175L220.917 34.7836L228.441 34.9025L220.917 35.028L213.4 35.094L198.36 35.1535L183.32 35.094L175.803 35.028L168.279 34.9025Z" fill="#C7C7C7"/>
<path d="M50.8496 34.9025L58.3731 34.7836L65.89 34.7175L80.9303 34.6581L95.9707 34.7175L103.488 34.7836L111.011 34.9025L103.488 35.028L95.9707 35.094L80.9303 35.1535L65.89 35.094L58.3731 35.028L50.8496 34.9025Z" fill="#C7C7C7"/>
<path d="M62.5016 44.0574H51.4971V55.0619H62.5016V44.0574Z" fill="#EBEBEB"/>
<path d="M247.206 10.4825H32.5723V22.3391H247.206V10.4825Z" fill="#2B5AAC"/>
<path d="M168.174 142.384H113.759V157.735H168.174V142.384Z" fill="#EBEBEB"/>
<path d="M166.852 141.063H112.438V156.414H166.852V141.063Z" fill="#2B5AAC"/>
<path d="M118.571 145.082H121.41C122.15 145.082 122.732 145.267 123.167 145.618C123.601 145.97 123.823 146.497 123.823 147.2C123.823 147.893 123.601 148.42 123.176 148.772C122.741 149.123 122.177 149.299 121.484 149.299H120.004V151.666H118.571V145.082ZM120.004 146.266V148.161H121.29C122.039 148.161 122.418 147.847 122.418 147.218C122.418 146.589 122.039 146.266 121.299 146.266H120.004ZM129.727 146.894V151.666H128.479V150.991C128.109 151.537 127.591 151.805 126.925 151.805C126.398 151.805 125.991 151.666 125.695 151.379C125.399 151.093 125.261 150.667 125.261 150.103V146.894H126.583V149.622C126.583 149.807 126.583 149.946 126.601 150.057C126.62 150.168 126.648 150.27 126.703 150.381C126.749 150.492 126.833 150.575 126.944 150.63C127.055 150.686 127.203 150.704 127.388 150.704C128.072 150.704 128.423 150.261 128.423 149.354V146.894H129.727ZM134.491 146.811V148.023C134.306 147.986 134.131 147.967 133.983 147.967C133.548 147.967 133.234 148.106 133.03 148.383C132.827 148.661 132.725 149.021 132.725 149.484V151.666H131.412V146.894H132.66V147.773C132.975 147.116 133.483 146.783 134.205 146.783C134.26 146.783 134.362 146.793 134.491 146.811ZM140.035 149.826C139.952 150.445 139.712 150.926 139.305 151.278C138.898 151.62 138.38 151.796 137.751 151.796C137.012 151.796 136.429 151.564 135.985 151.121C135.541 150.667 135.319 150.066 135.319 149.317C135.319 148.55 135.541 147.93 135.985 147.459C136.429 146.996 137.03 146.756 137.77 146.756C138.399 146.756 138.917 146.922 139.323 147.246C139.721 147.57 139.952 148.004 140.008 148.559H138.722C138.621 148.013 138.306 147.736 137.779 147.736C137.418 147.736 137.141 147.875 136.938 148.152C136.734 148.43 136.642 148.809 136.642 149.299C136.642 149.77 136.734 150.14 136.928 150.399C137.123 150.658 137.4 150.788 137.751 150.788C138.325 150.788 138.658 150.473 138.769 149.826H140.035ZM142.76 145.082V147.542C143.13 147.033 143.639 146.783 144.268 146.783C145.377 146.783 145.941 147.366 145.941 148.55V151.675H144.628V148.864C144.628 148.531 144.564 148.282 144.453 148.115C144.332 147.939 144.11 147.856 143.787 147.856C143.389 147.856 143.121 147.976 142.973 148.235C142.825 148.485 142.76 148.818 142.76 149.234V151.666H141.466V145.082H142.76ZM152.037 151.666H150.696C150.659 151.546 150.622 151.389 150.604 151.204C150.206 151.611 149.688 151.805 149.06 151.805C148.533 151.805 148.116 151.685 147.811 151.426C147.515 151.167 147.358 150.815 147.358 150.362C147.358 150.159 147.386 149.983 147.441 149.826C147.497 149.678 147.58 149.548 147.7 149.437C147.82 149.336 147.931 149.253 148.042 149.179C148.153 149.114 148.301 149.058 148.486 149.012C148.68 148.975 148.838 148.938 148.949 148.92C149.069 148.901 149.235 148.873 149.448 148.846C149.91 148.79 150.216 148.725 150.373 148.651C150.53 148.587 150.613 148.457 150.613 148.272C150.613 147.847 150.327 147.634 149.753 147.634C149.448 147.634 149.226 147.69 149.087 147.801C148.939 147.912 148.847 148.097 148.81 148.365H147.58C147.654 147.292 148.385 146.756 149.79 146.756C151.177 146.756 151.871 147.274 151.871 148.309V150.371C151.871 150.982 151.926 151.407 152.037 151.666ZM150.595 149.345C150.447 149.437 150.132 149.53 149.67 149.604C149.282 149.659 149.032 149.743 148.912 149.835C148.782 149.946 148.708 150.113 148.708 150.316C148.708 150.51 148.773 150.667 148.902 150.778C149.032 150.889 149.208 150.945 149.43 150.945C149.781 150.945 150.068 150.852 150.28 150.667C150.493 150.482 150.595 150.214 150.595 149.881V149.345ZM157.601 148.282L156.371 148.291C156.334 148.05 156.251 147.875 156.103 147.782C155.955 147.68 155.742 147.634 155.465 147.634C155.234 147.634 155.049 147.671 154.919 147.754C154.79 147.838 154.725 147.958 154.725 148.106C154.725 148.272 154.799 148.393 154.947 148.467C155.095 148.531 155.363 148.605 155.742 148.688C155.816 148.698 155.863 148.707 155.89 148.716C156.112 148.753 156.297 148.79 156.427 148.827C156.556 148.864 156.723 148.92 156.907 148.994C157.102 149.068 157.25 149.16 157.351 149.253C157.462 149.345 157.555 149.474 157.629 149.632C157.712 149.798 157.749 149.983 157.749 150.187C157.749 150.686 157.555 151.084 157.166 151.37C156.778 151.666 156.251 151.805 155.567 151.805C154.919 151.805 154.392 151.666 153.967 151.389C153.551 151.111 153.338 150.686 153.329 150.113H154.577C154.623 150.649 154.966 150.908 155.594 150.908C155.863 150.908 156.075 150.862 156.232 150.751C156.39 150.64 156.464 150.501 156.464 150.316C156.464 150.14 156.399 150.011 156.251 149.937C156.112 149.863 155.853 149.789 155.465 149.696C155.437 149.696 155.409 149.687 155.391 149.678C155.354 149.669 155.252 149.65 155.104 149.613C154.956 149.585 154.855 149.567 154.799 149.548C154.744 149.53 154.642 149.502 154.512 149.465C154.383 149.428 154.281 149.401 154.216 149.364C154.161 149.327 154.078 149.29 153.976 149.234C153.874 149.179 153.8 149.123 153.745 149.058C153.699 149.003 153.643 148.929 153.588 148.846C153.532 148.762 153.486 148.67 153.467 148.559C153.449 148.457 153.44 148.346 153.44 148.217C153.44 147.754 153.615 147.394 153.985 147.135C154.346 146.885 154.864 146.756 155.53 146.756C156.121 146.756 156.612 146.885 157 147.126C157.379 147.375 157.583 147.764 157.601 148.282ZM163.682 150.187C163.534 150.704 163.256 151.102 162.859 151.379C162.461 151.666 161.989 151.805 161.434 151.805C160.704 151.805 160.112 151.583 159.668 151.121C159.224 150.667 159.002 150.066 159.002 149.308C159.002 148.568 159.224 147.958 159.677 147.477C160.121 146.996 160.695 146.756 161.397 146.756C162.119 146.756 162.692 147.005 163.118 147.496C163.543 147.986 163.756 148.651 163.756 149.484V149.613H160.334C160.334 150.029 160.436 150.344 160.63 150.556C160.824 150.778 161.102 150.88 161.453 150.88C161.915 150.88 162.239 150.649 162.424 150.187H163.682ZM162.415 148.781C162.387 148.467 162.285 148.217 162.11 148.013C161.943 147.81 161.703 147.708 161.388 147.708C161.102 147.708 160.861 147.81 160.667 147.995C160.482 148.189 160.362 148.448 160.325 148.781H162.415Z" fill="white"/>
<path d="M147.037 164.553L149.831 171.31L147.037 172.466L144.229 165.662L139.612 169.249V150.226L152.929 163.674L147.037 164.553Z" fill="#263238"/>
<path d="M139.645 148.151C139.415 147.533 139.415 146.854 139.645 146.236C139.874 146.854 139.874 147.533 139.645 148.151Z" fill="#263238"/>
<path d="M138.001 148.832C137.414 148.551 136.945 148.071 136.68 147.478C137.26 147.768 137.725 148.245 138.001 148.832Z" fill="#263238"/>
<path d="M137.313 150.476C136.697 150.705 136.02 150.705 135.404 150.476C136.022 150.256 136.696 150.256 137.313 150.476Z" fill="#263238"/>
<path d="M138.001 152.128C137.725 152.715 137.26 153.192 136.68 153.482C136.945 152.888 137.414 152.408 138.001 152.128Z" fill="#263238"/>
<path d="M141.977 150.476C142.594 150.256 143.268 150.256 143.886 150.476C143.27 150.705 142.592 150.705 141.977 150.476Z" fill="#263238"/>
<path d="M141.29 148.832C141.566 148.245 142.031 147.768 142.611 147.478C142.345 148.071 141.877 148.551 141.29 148.832Z" fill="#263238"/>
<path d="M96.8814 142.55C98.0055 141.941 98.9322 141.023 99.5523 139.905C100.172 138.787 100.46 137.515 100.382 136.238C100.303 134.962 99.862 133.735 99.1097 132.701C98.3573 131.667 97.3253 130.87 96.135 130.403C98.4139 128.87 99.8869 126.301 99.0084 123.434C98.0968 120.468 95.1839 119.035 92.2379 119.471V119.511C94.9659 119.405 97.7203 120.832 98.5262 123.56C99.1867 125.911 98.262 127.853 96.6767 129.306C97.1767 128.42 97.4892 127.44 97.5949 126.427C97.7006 125.415 97.5971 124.392 97.291 123.421C96.9157 122.353 96.2334 121.42 95.3298 120.738C94.4261 120.057 93.3413 119.657 92.2115 119.59C92.37 117.001 91.6302 114.18 89.5693 112.476C88.7162 111.755 87.6717 111.298 86.5633 111.161C85.4549 111.024 84.3305 111.212 83.3273 111.703C83.1836 110.454 82.6768 109.275 81.8697 108.311C81.0625 107.347 79.9905 106.642 78.7862 106.281C77.582 105.92 76.2984 105.921 75.0944 106.282C73.8904 106.644 72.8188 107.35 72.0123 108.315C71.8173 107.432 71.4032 106.612 70.8084 105.931C70.2135 105.25 69.457 104.73 68.6083 104.418C67.7597 104.107 66.8462 104.013 65.9521 104.147C65.0579 104.281 64.2117 104.637 63.4915 105.184C63.2141 104.546 62.76 104.002 62.183 103.614C61.6059 103.227 60.9299 103.013 60.235 102.997C58.5969 102.918 57.1503 103.823 55.9746 104.9C55.3814 104.481 54.6925 104.218 53.9711 104.135C53.2498 104.052 52.5191 104.151 51.8462 104.424C50.992 104.81 50.3022 105.486 49.8995 106.333C49.4968 107.18 49.4072 108.141 49.6467 109.048C47.0706 109.345 44.3161 110.025 42.5393 112.033C41.0795 113.691 40.4388 116.162 41.456 118.17C40.3868 118.439 39.3868 118.933 38.5221 119.617C37.6574 120.301 36.9476 121.161 36.4395 122.14C35.9314 123.118 35.6366 124.194 35.5745 125.295C35.5125 126.396 35.6845 127.497 36.0793 128.527C35.2563 129.025 34.5788 129.731 34.1151 130.574C33.6513 131.417 33.4175 132.367 33.4372 133.329C33.4132 134.654 33.7125 135.964 34.3091 137.147C33.6101 137.647 33.0856 138.354 32.8095 139.168C32.5334 139.982 32.5196 140.862 32.77 141.685C33.0326 142.441 33.4597 143.129 34.0205 143.7C34.5814 144.272 35.262 144.711 36.0132 144.987C36.272 145.386 36.4389 145.837 36.502 146.308C36.6636 147.473 37.1098 148.579 37.8011 149.53C38.4924 150.48 39.4075 151.245 40.4652 151.758C40.3649 152.441 40.4108 153.137 40.6001 153.801C40.7893 154.464 41.1175 155.08 41.5628 155.607C42.0082 156.135 42.5606 156.561 43.1833 156.859C43.806 157.156 44.4849 157.318 45.1748 157.333C45.4027 158.751 46.1797 160.023 47.3379 160.874C48.496 161.724 49.9423 162.085 51.364 161.877C51.6309 162.991 52.1341 164.033 52.8396 164.935C53.5451 165.836 54.4363 166.575 55.4528 167.102C57.038 167.901 59.1517 168.113 60.5257 166.904C60.9748 168.225 62.6592 168.668 63.967 168.304C64.4612 168.154 64.9374 167.95 65.3872 167.697C65.9175 167.299 66.5117 166.996 67.1442 166.798C67.8047 166.706 68.4058 167.115 68.9871 167.294C69.4181 167.419 69.8607 167.501 70.3082 167.538C71.9515 167.633 73.5785 167.167 74.9225 166.217C76.2665 165.266 77.248 163.888 77.7061 162.307C79.9718 162.967 82.1647 161.613 83.6113 159.889C84.0697 159.321 84.4764 158.713 84.8267 158.073C85.1072 157.476 85.5697 156.983 86.1478 156.666C86.5309 156.474 86.9602 156.368 87.3433 156.177C88.6644 155.516 89.2259 154.248 89.6552 152.927C95.7519 154.466 99.5104 147.709 96.8814 142.55ZM33.5561 142.24C33.1692 141.431 33.0427 140.522 33.1941 139.638C33.3456 138.754 33.7674 137.939 34.4015 137.305L34.5204 137.497C34.5204 137.497 34.243 138.019 34.1307 138.29C33.9381 138.789 33.8201 139.314 33.7806 139.848C33.6916 140.962 33.9353 142.077 34.4808 143.052C34.7301 143.48 35.0319 143.875 35.3791 144.228L35.498 144.36C34.6645 143.849 33.9915 143.115 33.5561 142.24ZM53.0286 105.25C52.2056 105.485 51.4753 105.968 50.9373 106.633C50.3994 107.299 50.0801 108.115 50.0232 108.969H49.8845C49.7259 107.185 50.076 105.521 51.985 104.721C52.5758 104.481 53.2194 104.401 53.8512 104.488C54.483 104.574 55.0808 104.826 55.5849 105.217C54.7447 104.994 53.8588 105.012 53.0286 105.27V105.25ZM89.708 152.65C89.708 152.65 89.708 152.61 89.708 152.584C91.6657 152.551 93.5335 151.757 94.9148 150.369C96.2962 148.982 97.0822 147.11 97.106 145.153C97.3702 149.486 95.0782 153.376 89.708 152.65Z" fill="#263238"/>
<path d="M66.8272 185.28C72.5738 209.72 84.3511 238.935 89.3382 243.665C95.6397 249.642 137.306 257.232 139.38 257.443C144.506 257.932 154.487 224.192 149.024 223.432C140.708 222.276 110.475 220.79 108.652 218.941C106.829 217.091 93.9223 200.994 80.7116 182.889C71.6094 170.365 63.2603 170.121 66.8272 185.28Z" fill="#AD6359"/>
<path d="M136.553 255.759C137.101 256.036 144.948 259.927 149.796 261.307C153.41 262.331 163.899 265.006 165.425 261.142C166.468 258.5 160.484 256.202 156.29 254.484C154.083 253.573 151.355 251.281 151.996 249.86C153.119 247.377 158.806 249.86 162.565 251.987C169.797 256.142 179.454 263.633 183.84 259.947C185.498 258.56 183.55 256.05 180.703 253.592C185.327 256.446 190.228 258.784 192.124 257.305C193.22 256.466 193.266 255.323 192.645 254.002C194.065 254.451 195.287 254.359 196.186 253.427C197.672 251.855 196.932 249.557 195.287 247.198C195.563 247.164 195.826 247.064 196.056 246.908C196.286 246.752 196.475 246.544 196.609 246.3C199.746 241.465 183.847 227.713 178.371 226.444C162.254 222.706 145.292 223.512 145.292 223.512C138.984 228.618 136.54 255.746 136.553 255.759Z" fill="#AD6359"/>
<path d="M160.121 240.811C163.957 241.389 167.625 242.778 170.881 244.886C174.977 247.529 177.705 250.699 181.146 253.857C181.164 253.873 181.175 253.896 181.177 253.921C181.178 253.946 181.169 253.97 181.152 253.989C181.136 254.007 181.113 254.018 181.088 254.019C181.063 254.021 181.039 254.012 181.02 253.995C179.382 252.496 172.585 246.855 170.835 245.58C167.669 243.216 164.004 241.608 160.121 240.877C160.121 240.87 160.121 240.804 160.121 240.811Z" fill="#263238"/>
<path d="M163.107 233.961C167.341 235.097 171.693 236.247 175.657 238.222C179.963 240.388 183.345 243.942 186.674 247.363C188.669 249.42 190.62 251.516 192.527 253.652C192.606 253.738 192.487 253.883 192.401 253.797C189.024 250.274 185.545 246.846 181.965 243.513C178.661 240.408 174.775 237.988 170.531 236.392C168.1 235.48 165.61 234.76 163.126 234.04C163.047 234.027 163.06 233.948 163.107 233.961Z" fill="#263238"/>
<path d="M167.592 227.964C171.707 228.789 175.3 229.49 178.953 231.676C183.788 234.562 188.465 239.45 190.109 241.188C191.919 243.103 193.67 245.072 195.394 247.073C195.466 247.159 195.321 247.278 195.248 247.198C191.315 242.806 187.103 238.671 182.639 234.82C180.538 232.959 178.163 231.432 175.597 230.295C173 229.293 170.322 228.515 167.592 227.97C167.592 227.97 167.579 227.964 167.592 227.964Z" fill="#263238"/>
<path d="M141.982 221.464L129.432 261.975C129.432 261.975 94.8134 252.291 88.4789 245.514C82.1444 238.737 70.2878 203.623 66.7407 186.601C63.1936 169.579 71.84 169.949 79.8259 180.656C87.8117 191.363 107.667 217.303 108.77 217.864C109.874 218.426 141.982 221.464 141.982 221.464Z" fill="#2B5AAC"/>
<path d="M125.403 243.546C126.823 239.021 128.283 234.51 129.538 229.932C130.251 227.33 130.978 224.734 131.665 222.125C131.665 222.026 131.526 221.966 131.493 222.065C129.881 226.544 128.283 231.042 126.869 235.6C125.456 240.157 124.042 244.656 122.701 249.207C121.948 251.796 121.268 254.398 120.667 257.034C120.667 257.087 120.74 257.12 120.759 257.067C122.53 252.655 123.976 248.104 125.403 243.546Z" fill="#263238"/>
<path opacity="0.1" d="M111.967 256.505L110.435 255.977C107.548 254.966 104.609 253.876 101.848 252.767L100.791 252.337L99.1462 251.677C98.8687 251.565 98.6045 251.439 98.3337 251.327L98.0497 251.201L97.2174 250.825C96.1143 250.323 95.0707 249.827 94.0997 249.319L93.4392 248.969C91.9201 248.192 90.4857 247.26 89.1589 246.188L88.8088 245.864C88.6899 245.758 88.5842 245.646 88.4852 245.547C82.1308 238.77 70.2874 203.656 66.7668 186.627L66.6479 186.04V185.914C66.4101 184.593 66.1987 183.014 66.0204 181.29C65.4986 172.809 69.508 171.382 74.4884 175.101C86.9989 201.529 106.174 245.276 111.967 256.505Z" fill="black"/>
<path d="M3.75293 269.67H87.7861L71.0349 172.201H8.19172L3.75293 269.67Z" fill="#DBDBDB"/>
<path d="M3.75293 269.67H11.1179L15.2528 172.201H8.19172L3.75293 269.67Z" fill="#A6A6A6"/>
<path d="M97.3305 269.67H10.6817C10.2986 267.946 23.932 192.024 53.1474 170.656C59.6339 165.913 71.1337 168.958 74.3307 173.569C90.4147 196.74 97.3305 269.67 97.3305 269.67Z" fill="#EBEBEB"/>
<path d="M51.2317 171.224C51.2317 171.224 58.8807 204.825 59.6667 207.725C60.4528 210.625 63.2865 269.67 63.2865 269.67H9.89551C9.89551 269.67 21.9106 194.369 51.2317 171.224Z" fill="#2B5AAC"/>
<path d="M74.3301 173.569C74.3301 173.569 77.679 199.329 78.0753 200.822C78.4716 202.315 89.4431 269.67 89.4431 269.67H97.7592C97.7592 269.67 90.4867 191.819 74.3301 173.569Z" fill="#2B5AAC"/>
<path d="M68.0625 187.414C62.8509 187.797 55.4596 178.747 53.0552 171.983C52.8901 171.514 57.3949 154.744 57.9366 151.329C58.0488 150.628 78.532 159.962 78.532 159.962C78.532 159.962 75.2756 166.785 74.3574 172.73C74.2914 173.245 73.1024 187.044 68.0625 187.414Z" fill="#AD6359"/>
<path d="M78.5316 159.968C78.5316 159.968 75.2751 166.785 74.3636 172.73C74.3636 172.789 74.3636 173.06 74.2777 173.483C70.6184 172.789 60.7632 169.691 56.9453 155.807C57.4275 153.825 57.804 152.154 57.9361 151.315C58.0484 150.628 78.5316 159.968 78.5316 159.968Z" fill="#263238"/>
<path d="M60.2417 125.218C56.3445 132.252 55.684 154.836 60.0039 160.82C66.2658 169.5 78.8225 172.882 86.7819 164.823C94.4904 157.022 94.8339 127.576 89.794 121.889C82.3696 113.533 66.0081 114.827 60.2417 125.218Z" fill="#AD6359"/>
<path d="M78.6708 144.069C78.6708 144.016 78.5453 144.142 78.5453 144.201C78.5453 145.721 78.2348 147.464 76.8345 147.9C76.7882 147.9 76.7882 147.993 76.8345 147.986C78.5321 147.834 78.8755 145.516 78.6708 144.069Z" fill="#263238"/>
<path d="M77.3891 142.418C74.9517 142.114 74.5224 147.009 76.7814 147.293C79.0404 147.577 79.4301 142.676 77.3891 142.418Z" fill="#263238"/>
<path d="M87.2835 144.987C87.2835 144.935 87.3958 145.073 87.3826 145.133C87.2042 146.645 87.2504 148.435 88.5781 149.03C88.6177 149.03 88.6111 149.129 88.5781 149.116C86.907 148.7 86.8673 146.361 87.2835 144.987Z" fill="#263238"/>
<path d="M88.7834 143.495C91.234 143.495 90.9962 148.429 88.7239 148.403C86.4517 148.376 86.7159 143.468 88.7834 143.495Z" fill="#263238"/>
<path d="M75.7575 141.024C76.4253 141.12 77.0978 141.179 77.7721 141.203C78.47 141.363 79.2013 141.289 79.8528 140.991C80.0391 140.859 80.1763 140.668 80.2432 140.45C80.3101 140.231 80.3029 139.996 80.2227 139.782C79.8198 138.877 78.9016 138.574 77.9637 138.461C77.0406 138.326 76.0999 138.535 75.3215 139.049C75.1505 139.177 75.0199 139.351 74.9455 139.552C74.8711 139.752 74.856 139.969 74.9021 140.177C74.9481 140.386 75.0533 140.577 75.205 140.727C75.3567 140.877 75.5485 140.98 75.7575 141.024Z" fill="#263238"/>
<path d="M90.8834 141.196C90.2229 141.024 89.6284 140.753 88.9811 140.535C88.2793 140.389 87.6455 140.015 87.1778 139.472C87.0618 139.274 87.015 139.043 87.0449 138.816C87.0748 138.589 87.1797 138.378 87.3429 138.217C88.0827 137.556 89.0537 137.675 89.9388 137.959C90.8456 138.216 91.6234 138.802 92.1186 139.604C92.2161 139.792 92.2578 140.004 92.2385 140.215C92.2193 140.427 92.1401 140.628 92.0101 140.795C91.8802 140.963 91.7051 141.089 91.5054 141.16C91.3057 141.231 91.0899 141.244 90.8834 141.196Z" fill="#263238"/>
<path d="M75.4003 157.795C75.7306 158.178 76.0608 158.7 76.5959 158.792C77.1613 158.832 77.7287 158.751 78.2604 158.555C78.2718 158.549 78.2847 158.548 78.2969 158.551C78.3091 158.554 78.3198 158.562 78.3269 158.572C78.3341 158.582 78.3374 158.595 78.3361 158.608C78.3348 158.62 78.329 158.632 78.3199 158.641C78.0793 158.918 77.7683 159.126 77.4196 159.242C77.071 159.359 76.6975 159.379 76.3383 159.301C76.0355 159.194 75.7715 158.999 75.5798 158.742C75.3881 158.484 75.2773 158.175 75.2616 157.854C75.2352 157.755 75.3541 157.736 75.4003 157.795Z" fill="#263238"/>
<path d="M77.3887 153.396C77.7211 154.029 78.1809 154.586 78.739 155.033C79.2971 155.48 79.9416 155.806 80.6319 155.992C81.2331 156.165 81.856 156.249 82.4814 156.243C82.6021 156.256 82.724 156.256 82.8447 156.243H83.1816C83.2629 156.234 83.3391 156.199 83.3987 156.143C83.4583 156.087 83.498 156.013 83.5119 155.933C83.5182 155.88 83.5182 155.827 83.5119 155.774V155.635C83.644 154.473 83.6836 152.689 83.6836 152.689C84.0931 152.94 86.1804 154.109 86.2002 153.495C86.3455 148.422 86.5041 142.781 85.5397 137.702C85.5327 137.669 85.5147 137.64 85.4889 137.619C85.4631 137.599 85.4309 137.587 85.3977 137.587C85.3645 137.587 85.3323 137.599 85.3065 137.619C85.2806 137.64 85.2627 137.669 85.2557 137.702C84.9254 142.57 85.4604 147.471 85.2028 152.366C84.4619 151.937 83.6634 151.617 82.8315 151.414C82.6664 151.448 82.8315 154.862 82.7126 155.378C82.7166 155.395 82.7166 155.413 82.7126 155.431C80.731 155.51 79.3042 154.77 77.5208 153.304C77.4415 153.171 77.3094 153.264 77.3887 153.396Z" fill="#263238"/>
<path d="M94.067 131.222C93.7037 129.372 92.8912 128.87 92.8912 128.87C92.8912 128.87 93.2413 126.796 91.6825 123.85C90.0575 120.766 87.8712 120.065 87.8712 120.065C87.8712 120.065 86.3057 117.78 82.1311 116.386C81.1668 116.069 78.1679 115.58 77.2036 115.792C76.074 116.043 75.0304 115.343 73.9009 115.131C72.8738 114.962 71.8237 114.996 70.8096 115.23C69.9593 115.423 69.1454 115.751 68.3986 116.201C67.9673 116.478 67.5547 116.782 67.1634 117.113C66.5688 117.574 65.8473 117.841 65.096 117.879C64.2187 117.99 63.3741 118.283 62.6158 118.738C61.8574 119.192 61.2017 119.8 60.6902 120.521C60.0677 121.406 59.6441 122.416 59.4484 123.48C59.1842 124.801 57.6121 125.198 56.8789 126.255C56.3161 127.081 56.025 128.062 56.0463 129.061C56.0676 130.06 56.4002 131.028 56.9978 131.83C55.9731 132.396 55.1673 133.289 54.7088 134.366C54.2504 135.443 54.1656 136.643 54.468 137.774C54.9502 139.578 56.4496 140.562 57.9622 141.216C58.2462 141.339 58.5431 141.43 58.8473 141.487C62.0509 142.491 65.8358 139.558 65.2347 135.694C67.0951 135.434 68.8323 134.614 70.2151 133.342C71.7079 132.021 72.4477 130 72.7912 127.985C73.7067 128.702 74.7809 129.189 75.9235 129.404C77.0661 129.62 78.2438 129.558 79.3576 129.224C80.4714 128.89 81.4888 128.294 82.3242 127.485C83.1597 126.677 83.7889 125.679 84.159 124.577C85.1366 125.971 88.1816 128.54 89.8065 128.296C89.7603 132.886 92.6138 135.02 93.4461 135.119C93.6244 135.178 94.5095 133.349 94.067 131.222ZM62.3614 140.734C63.4644 139.941 64.4024 138.719 65.1884 135.958C65.2436 136.94 65.0079 137.917 64.511 138.767C64.0141 139.616 63.2779 140.3 62.3944 140.734H62.3614ZM77.5536 128.956C78.8502 128.785 80.0878 128.31 81.1648 127.568C82.2419 126.826 83.1277 125.84 83.7495 124.689C83.2839 125.94 82.4475 127.019 81.352 127.781C80.2566 128.544 78.9544 128.954 77.6197 128.956H77.5536Z" fill="#263238"/>
<path d="M61.3709 143.508C61.3709 143.508 57.7974 135.502 54.2569 136.645C50.7165 137.788 52.4603 148.733 55.9479 150.853C56.3771 151.156 56.8632 151.369 57.3769 151.48C57.8905 151.59 58.4213 151.595 58.9371 151.495C59.4529 151.395 59.9432 151.192 60.3785 150.898C60.8137 150.604 61.185 150.224 61.4699 149.783L61.3709 143.508Z" fill="#AD6359"/>
<path d="M54.8317 139.769C54.7723 139.769 54.7459 139.835 54.7921 139.868C57.2229 141.44 58.141 144.149 58.6298 146.87C58.0287 145.747 57.0643 145.007 55.5781 145.688C55.4989 145.727 55.5781 145.846 55.6244 145.846C56.1165 145.787 56.6147 145.883 57.0502 146.119C57.4857 146.356 57.8369 146.722 58.0551 147.167C58.4147 147.913 58.6959 148.695 58.894 149.499C58.9667 149.756 59.4224 149.717 59.3828 149.426C59.3828 149.426 59.3828 149.38 59.3828 149.36C60.083 146.005 58.3986 140.8 54.8317 139.769Z" fill="#263238"/>
<path d="M74.2521 173.503L68.7762 184.527L54.0728 167.294L50.1426 173.199C50.1426 173.199 63.4986 198.127 63.6439 197.044L69.1395 186.938L75.943 194.527L76.3063 176.396L74.2521 173.503Z" fill="#EBEBEB"/>
<path d="M76.6292 185.571C76.5829 182.572 76.6291 179.553 76.4508 176.561C76.4508 176.455 76.2791 176.402 76.246 176.528C75.4996 179.375 75.7176 190.829 75.5855 193.563V193.53C75.3015 193.206 69.284 186.845 69.218 186.925C68.0554 188.51 64.0262 195.868 63.7421 196.542C61.635 192.579 52.6121 176.937 50.0691 173.166C50.0542 173.145 50.0321 173.13 50.007 173.124C49.9819 173.118 49.9555 173.121 49.9327 173.133C49.91 173.146 49.8925 173.166 49.8835 173.19C49.8746 173.214 49.8748 173.241 49.8841 173.265C51.7138 177.42 63.3458 198.055 63.5241 198.009C65.6277 194.549 67.5481 190.982 69.2774 187.321C70.2814 188.695 76.3187 195.835 76.3583 195.393C76.6197 192.126 76.7101 188.847 76.6292 185.571Z" fill="#263238"/>
<path d="M136.394 270H88.5846C84.5091 270 90.4077 258.388 105.296 253.929C120.185 249.471 141.09 265.647 136.394 270Z" fill="#37474F"/>
<path d="M117.636 270C117.678 268.679 117.9 267.37 118.296 266.109C118.685 264.836 119.226 263.614 119.908 262.47C120.599 261.318 121.463 260.28 122.471 259.392C123.439 258.499 124.557 257.783 125.774 257.278C125.509 257.476 125.238 257.661 124.974 257.846L124.571 258.124L124.201 258.441L123.462 259.062L122.801 259.722C121.91 260.646 121.13 261.67 120.476 262.774C119.818 263.879 119.252 265.037 118.785 266.235C118.313 267.461 117.929 268.719 117.636 270Z" fill="#263238"/>
<path d="M123.296 258.949C124.711 259.405 126.087 259.973 127.411 260.647C128.75 261.307 130.036 262.071 131.255 262.932C132.483 263.788 133.593 264.801 134.558 265.944C135.04 266.529 135.457 267.165 135.8 267.84C136.131 268.515 136.325 269.249 136.368 270C136.196 269.297 135.908 268.627 135.516 268.019C135.136 267.404 134.693 266.831 134.195 266.308C133.172 265.268 132.056 264.326 130.859 263.494C129.677 262.635 128.422 261.876 127.16 261.116C126.499 260.739 125.885 260.383 125.238 260.033C124.591 259.683 123.95 259.299 123.296 258.949Z" fill="#263238"/>
<path d="M40.9875 180.967C25.3725 202.963 2.74917 242.337 13.1724 249.352C30.3463 260.878 77.4754 263.97 88.2553 264.234C92.879 264.353 99.2466 233.42 95.8052 229.827C92.3638 226.233 43.0021 228.162 42.3746 225.203C42.0113 223.512 48.0486 207.93 51.1069 189.23C54.6341 167.644 45.3932 174.771 40.9875 180.967Z" fill="#AD6359"/>
<path d="M87.5286 228.109C87.5286 228.109 101.605 226.656 110.859 226.127C116.024 225.837 124.915 226.127 128.805 227.66C134.618 229.939 157.492 243.182 154.401 248.797C151.6 253.876 133.396 240.005 133.396 240.005C133.396 240.005 153.007 252.377 148.509 257.879C144.011 263.381 125.529 244.972 125.529 244.972C125.529 244.972 145.391 258.137 139.863 263.078C135.682 266.81 117.999 251.076 117.999 251.076C117.999 251.076 135.021 262.523 130.853 266.526C126.289 270.971 109.055 257.47 109.055 257.47C96.8223 265.931 87.5418 264.953 81.0158 263.474C79.4371 263.144 87.5286 228.109 87.5286 228.109Z" fill="#AD6359"/>
<path d="M126.889 235.302C129.247 236.676 131.639 238.043 133.865 239.622C136.091 241.201 138.264 242.852 140.331 244.622C145.411 248.975 147.907 252.496 147.729 252.298C143.522 247.555 135.641 241.789 133.409 240.217C131.176 238.645 129.049 236.96 126.803 235.388C126.77 235.348 126.83 235.269 126.889 235.302Z" fill="#263238"/>
<path d="M121.057 243.235C123.99 245.118 126.969 246.875 129.822 248.889C132.676 250.904 136.54 253.824 139.228 256.017C139.433 256.182 139.281 256.552 139.063 256.393C136.289 254.312 132.194 251.499 129.393 249.451C126.592 247.403 123.871 245.243 121.004 243.301C120.958 243.275 121.011 243.209 121.057 243.235Z" fill="#263238"/>
<path d="M114.828 249.147C119.451 251.789 123.586 255.283 127.563 258.81C127.761 258.989 127.563 259.035 127.338 258.87C123.164 255.567 119.907 252.965 114.729 249.305C114.649 249.253 114.729 249.094 114.828 249.147Z" fill="#263238"/>
<path d="M138.151 232.581C140.978 234.178 143.721 235.919 146.368 237.799C147.689 238.75 148.977 239.741 150.212 240.805C151.473 241.852 152.624 243.025 153.647 244.305C154.175 244.964 154.59 245.705 154.876 246.498C155.022 246.923 155.081 247.372 155.048 247.819C155.012 248.277 154.847 248.714 154.572 249.081C154.312 249.451 153.971 249.756 153.575 249.973C153.167 250.186 152.713 250.297 152.253 250.296C151.404 250.27 150.566 250.095 149.776 249.781C148.257 249.18 146.771 248.499 145.324 247.74C143.871 247.02 142.438 246.267 140.978 245.567L141.308 245.025C143.169 246.478 144.891 248.098 146.454 249.867C147.241 250.756 147.937 251.721 148.535 252.747C149.187 253.788 149.511 255.001 149.466 256.228C149.399 256.855 149.151 257.45 148.752 257.939C148.353 258.428 147.821 258.79 147.22 258.982C146.028 259.232 144.787 259.101 143.673 258.606C141.514 257.674 139.465 256.507 137.563 255.125L137.649 255.032C138.333 255.78 138.946 256.589 139.479 257.45C138.91 256.616 138.266 255.836 137.557 255.118L137.22 254.762L137.636 255.026C139.565 256.326 141.626 257.418 143.785 258.282C144.828 258.726 145.982 258.832 147.088 258.586C147.602 258.412 148.054 258.091 148.39 257.665C148.725 257.238 148.929 256.723 148.977 256.182C148.984 255.061 148.66 253.963 148.046 253.024C147.457 252.036 146.774 251.107 146.005 250.25C144.458 248.526 142.755 246.947 140.919 245.534L138.6 243.724L141.242 244.992C142.709 245.701 144.162 246.424 145.602 247.159C147.022 247.917 148.482 248.598 149.975 249.2C150.69 249.497 151.453 249.665 152.227 249.695C152.588 249.699 152.944 249.613 153.265 249.447C153.585 249.28 153.86 249.038 154.064 248.741C154.269 248.443 154.398 248.1 154.439 247.741C154.48 247.383 154.433 247.019 154.301 246.683C154.041 245.947 153.666 245.256 153.191 244.636C152.211 243.363 151.104 242.192 149.889 241.141C148.687 240.065 147.418 239.061 146.13 238.083C143.607 236.141 140.899 234.305 138.151 232.581Z" fill="#263238"/>
<path d="M87.5483 226.266L74.3376 266.176C74.3376 266.176 14.0903 258.507 9.60526 247.621C5.12024 236.736 23.1132 203.762 38.0082 183.49C52.6655 163.555 53.9073 177.03 51.1793 191.641C48.4513 206.252 43.3255 223.261 44.1908 224.41C45.0561 225.559 87.5483 226.266 87.5483 226.266Z" fill="#2B5AAC"/>
<path d="M66.9853 260.495C67.4543 259.352 67.9035 258.203 68.3526 257.054C69.2333 254.715 70.1273 252.377 71.0344 250.039C72.798 245.415 74.4295 240.692 76.0082 235.976C76.8999 233.301 77.8973 230.639 78.6504 227.924C78.66 227.897 78.6584 227.867 78.6461 227.841C78.6337 227.815 78.6115 227.795 78.5843 227.785C78.5571 227.776 78.5273 227.777 78.5013 227.79C78.4753 227.802 78.4552 227.824 78.4456 227.851C77.4218 230.13 76.5697 232.475 75.6515 234.82C74.7334 237.165 73.7822 239.444 72.8971 241.809C71.1467 246.465 69.4755 251.142 67.8506 255.845C67.4015 257.166 66.8928 258.487 66.5296 259.808C66.3248 260.469 66.0672 261.169 65.869 261.856C65.6709 262.543 65.5321 263.249 65.3208 263.936C65.3155 263.951 65.3164 263.968 65.3232 263.982C65.33 263.996 65.3422 264.007 65.3571 264.012C65.372 264.018 65.3884 264.017 65.4026 264.01C65.4169 264.003 65.4278 263.991 65.4331 263.976C65.9086 262.807 66.4833 261.671 66.9853 260.495Z" fill="#263238"/>
<path d="M75.3743 263.434L74.4429 266.222V266.308H74.3438C68.6566 265.786 62.9959 265.066 57.3549 264.201C51.7139 263.335 46.0928 262.292 40.5113 261.056C34.9238 259.859 29.4102 258.339 23.9979 256.505C21.2792 255.582 18.6302 254.465 16.0715 253.163C14.7943 252.502 13.5747 251.735 12.4254 250.871C11.24 250.041 10.2835 248.926 9.64453 247.628C10.3925 248.835 11.4099 249.852 12.6169 250.6C13.8066 251.358 15.0545 252.021 16.349 252.582C18.9413 253.724 21.6017 254.706 24.315 255.521C29.738 257.192 35.2666 258.533 40.8283 259.749C46.39 260.964 51.9716 262.06 57.5663 263.084C63.161 264.108 68.7953 265.105 74.4033 266.037L74.2778 266.116L75.3743 263.434Z" fill="#263238"/>
<path d="M87.0325 227.818L87.4619 226.233L87.528 226.332C81.5831 226.484 75.6383 226.557 69.6935 226.497C63.7487 226.438 57.8039 226.319 51.8591 226.002C50.3663 225.909 48.8735 225.81 47.3807 225.665C46.6277 225.592 45.8879 225.513 45.1151 225.374C44.9124 225.342 44.7117 225.298 44.514 225.242C44.397 225.213 44.2822 225.175 44.1705 225.13C44.0865 225.091 44.0049 225.047 43.9261 224.998C43.8466 224.947 43.7791 224.879 43.7279 224.8C43.691 224.753 43.6599 224.702 43.6355 224.648C43.6316 224.622 43.6316 224.595 43.6355 224.569C43.5761 224.309 43.5627 224.04 43.5958 223.776C43.5958 223.584 43.5958 223.373 43.6619 223.188C44.1243 220.183 44.8112 217.303 45.5048 214.396C46.8919 208.603 48.4508 202.85 50.1285 197.137L46.5022 214.621C45.9341 217.527 45.2736 220.453 44.8971 223.34C44.8971 223.525 44.8971 223.69 44.8442 223.862C44.8511 223.967 44.8511 224.073 44.8442 224.179C44.8329 224.144 44.8173 224.111 44.798 224.08C44.765 224.02 44.6725 223.961 44.6989 223.974L44.8839 224.027C45.0447 224.071 45.2079 224.106 45.3727 224.133C46.0332 224.252 46.806 224.324 47.5326 224.39C48.999 224.522 50.4786 224.615 51.9648 224.694C54.924 224.853 57.892 224.985 60.8688 225.09L69.7794 225.434C75.7242 225.645 81.669 225.909 87.6138 226.193H87.7195V226.279L87.0325 227.818Z" fill="#263238"/>
<path d="M51.0533 200.737C50.7166 201.77 50.2739 202.766 49.7322 203.709C49.2183 204.672 48.5761 205.561 47.8232 206.351C48.2856 205.36 48.7744 204.409 49.2962 203.471C49.8193 202.521 50.4063 201.607 51.0533 200.737Z" fill="#263238"/>
<path d="M144.149 265.052H139.334V268.197H144.149V265.052Z" fill="#455A64"/>
<path d="M150.391 264.848H145.576V267.992H150.391V264.848Z" fill="#455A64"/>
<path d="M156.634 264.636H151.818V267.78H156.634V264.636Z" fill="#455A64"/>
<path d="M162.876 264.432H158.061V267.576H162.876V264.432Z" fill="#455A64"/>
<path d="M169.118 264.22H164.303V267.364H169.118V264.22Z" fill="#455A64"/>
<path d="M175.359 264.016H170.544V267.16H175.359V264.016Z" fill="#455A64"/>
<path d="M181.601 263.804H176.786V266.948H181.601V263.804Z" fill="#455A64"/>
<path d="M187.844 263.6H183.028V266.744H187.844V263.6Z" fill="#455A64"/>
<path d="M194.086 263.388H189.271V266.532H194.086V263.388Z" fill="#455A64"/>
<path d="M195.261 270H138.158V266.182L195.261 264.583V270Z" fill="#37474F"/>
<path d="M241.763 251.67H147.491L162.479 181.482H256.757L241.763 251.67Z" fill="#455A64"/>
<path d="M245.251 251.67H150.973L165.967 181.482H260.245L245.251 251.67Z" fill="#37474F"/>
<path d="M213.756 212.514C213.468 214.108 212.642 215.556 211.416 216.616C210.19 217.676 208.639 218.284 207.019 218.34C206.286 218.363 205.558 218.219 204.889 217.921C204.22 217.622 203.627 217.176 203.155 216.615C202.682 216.055 202.343 215.394 202.163 214.684C201.982 213.974 201.964 213.232 202.111 212.514C202.401 210.915 203.229 209.464 204.459 208.403C205.689 207.342 207.245 206.734 208.869 206.681C209.6 206.66 210.328 206.805 210.996 207.105C211.664 207.405 212.255 207.852 212.725 208.414C213.196 208.975 213.533 209.635 213.711 210.345C213.89 211.056 213.905 211.797 213.756 212.514Z" fill="#263238"/>
<path d="M218.591 270H172.222V266.4L218.591 264.901V270Z" fill="#455A64"/>
<path d="M231.194 270H206.299L191.305 230.665H216.2L231.194 270Z" fill="#455A64"/>
<path d="M235.296 270H210.4L195.406 230.665H220.302L235.296 270Z" fill="#263238"/>
<path d="M249.815 217.342C258.441 225.784 259.888 238.849 258.071 250.296C258.025 250.554 257.622 250.488 257.622 250.244C257.622 247.601 257.701 245.052 257.695 242.482C257.648 242.363 257.609 242.251 257.556 242.132C255.31 240.494 253.236 238.645 251.955 236.115C250.515 233.281 249.973 230.084 248.844 227.125C248.744 226.841 249.048 226.927 249.246 227.072C254.491 230.943 256.162 235.104 257.668 240.672C257.637 237.761 257.331 234.86 256.757 232.006C255.621 226.722 253.381 221.49 249.583 217.567C249.554 217.536 249.537 217.495 249.538 217.452C249.538 217.41 249.556 217.369 249.587 217.339C249.617 217.309 249.659 217.293 249.701 217.293C249.744 217.294 249.785 217.312 249.815 217.342Z" fill="#263238"/>
<path d="M248.19 218.307C246.71 218.36 245.779 220.731 244.623 221.418C244.502 221.517 244.361 221.59 244.21 221.631C244.059 221.672 243.901 221.681 243.746 221.657C243.591 221.632 243.444 221.576 243.312 221.49C243.181 221.404 243.07 221.292 242.985 221.16C241.836 219.562 243.408 217.587 244.887 216.484C243.83 216.92 242.952 217.686 241.816 217.904C241.67 217.952 241.516 217.967 241.363 217.95C241.211 217.933 241.064 217.883 240.932 217.804C240.801 217.726 240.688 217.619 240.601 217.493C240.514 217.366 240.455 217.223 240.429 217.072C239.927 214.892 242.661 213.921 244.537 213.875C243.626 213.214 241.017 211.523 242.404 210.678C243.791 209.832 246.869 212.283 247.866 213.095C249.333 214.284 251.083 216.068 251.169 217.924C251.235 220.117 249.333 218.782 248.19 218.307Z" fill="#2B5AAC"/>
<path opacity="0.1" d="M248.19 218.307C246.71 218.36 245.779 220.731 244.623 221.418C244.502 221.517 244.361 221.59 244.21 221.631C244.059 221.672 243.901 221.681 243.746 221.657C243.591 221.632 243.444 221.576 243.312 221.49C243.181 221.404 243.07 221.292 242.985 221.16C241.836 219.562 243.408 217.587 244.887 216.484C243.83 216.92 242.952 217.686 241.816 217.904C241.67 217.952 241.516 217.967 241.363 217.95C241.211 217.933 241.064 217.883 240.932 217.804C240.801 217.726 240.688 217.619 240.601 217.493C240.514 217.366 240.455 217.223 240.429 217.072C239.927 214.892 242.661 213.921 244.537 213.875C243.626 213.214 241.017 211.523 242.404 210.678C243.791 209.832 246.869 212.283 247.866 213.095C249.333 214.284 251.083 216.068 251.169 217.924C251.235 220.117 249.333 218.782 248.19 218.307Z" fill="black"/>
<path d="M248.633 218.69C246.737 217.831 243.091 219.073 242.78 218.353C242.153 216.893 245.066 215.889 246.638 215.711C245.191 215.321 242.417 214.694 242.503 213.3C242.609 211.596 246.757 213.062 248.857 214.674C251.499 216.702 251.499 218.637 251.05 219.053C250.436 219.568 248.937 218.835 248.633 218.69Z" fill="#2B5AAC"/>
<path d="M269.459 216.504C260.515 224.615 258.573 237.641 259.954 249.121C259.993 249.385 260.396 249.326 260.409 249.121C260.508 246.479 260.522 243.929 260.627 241.36L260.779 241.016C263.091 239.47 265.231 237.713 266.605 235.217C268.151 232.436 268.844 229.272 270.053 226.352C270.165 226.075 269.862 226.147 269.657 226.28C264.267 229.952 262.437 234.047 260.72 239.55C260.866 236.644 261.282 233.758 261.962 230.93C263.283 225.692 265.74 220.546 269.677 216.774C269.713 216.746 269.736 216.704 269.741 216.658C269.745 216.612 269.732 216.566 269.703 216.53C269.674 216.494 269.632 216.471 269.586 216.466C269.541 216.461 269.495 216.475 269.459 216.504Z" fill="#263238"/>
<path d="M271.044 217.554C272.524 217.659 273.363 220.064 274.492 220.797C274.609 220.902 274.746 220.981 274.895 221.028C275.045 221.076 275.202 221.091 275.358 221.073C275.513 221.055 275.663 221.004 275.798 220.923C275.932 220.842 276.048 220.734 276.137 220.605C277.346 219.047 275.846 217.019 274.413 215.856C275.45 216.332 276.302 217.131 277.432 217.389C277.576 217.442 277.73 217.464 277.883 217.453C278.036 217.442 278.185 217.398 278.32 217.324C278.455 217.25 278.572 217.148 278.664 217.025C278.756 216.901 278.82 216.759 278.852 216.609C279.433 214.449 276.738 213.379 274.888 213.26C275.826 212.666 278.495 211.041 277.141 210.149C275.787 209.257 272.623 211.582 271.592 212.355C270.08 213.491 268.29 215.202 268.131 217.058C267.933 219.225 269.882 217.963 271.044 217.554Z" fill="#2B5AAC"/>
<path opacity="0.1" d="M271.044 217.554C272.524 217.659 273.363 220.064 274.492 220.797C274.609 220.902 274.746 220.981 274.895 221.028C275.045 221.076 275.202 221.091 275.358 221.073C275.513 221.055 275.663 221.004 275.798 220.923C275.932 220.842 276.048 220.734 276.137 220.605C277.346 219.047 275.846 217.019 274.413 215.856C275.45 216.332 276.302 217.131 277.432 217.389C277.576 217.442 277.73 217.464 277.883 217.453C278.036 217.442 278.185 217.398 278.32 217.324C278.455 217.25 278.572 217.148 278.664 217.025C278.756 216.901 278.82 216.759 278.852 216.609C279.433 214.449 276.738 213.379 274.888 213.26C275.826 212.666 278.495 211.041 277.141 210.149C275.787 209.257 272.623 211.582 271.592 212.355C270.08 213.491 268.29 215.202 268.131 217.058C267.933 219.225 269.882 217.963 271.044 217.554Z" fill="black"/>
<path d="M270.602 217.897C272.531 217.111 276.124 218.492 276.461 217.785C277.122 216.345 274.275 215.235 272.709 214.978C274.169 214.641 276.963 214.126 276.937 212.725C276.897 211.021 272.69 212.322 270.53 213.855C267.808 215.784 267.749 217.739 268.172 218.148C268.753 218.71 270.279 218.029 270.602 217.897Z" fill="#2B5AAC"/>
<path d="M260.318 237.925C259.713 242.263 258.785 246.551 257.543 250.752C257.517 250.825 257.465 250.886 257.398 250.924C257.33 250.962 257.252 250.974 257.176 250.959C257.1 250.944 257.032 250.902 256.984 250.841C256.937 250.78 256.912 250.704 256.916 250.627C257.504 246.663 258.574 242.793 259.162 238.843C259.794 234.842 260.016 230.787 259.822 226.742C259.446 220.083 257.636 213.003 253.29 207.791C253.197 207.665 253.395 207.494 253.494 207.606C262.194 217.752 260.813 230.19 260.806 231.306C262.035 227.105 263.303 222.29 267.967 218.016C268.165 217.831 268.323 217.917 268.29 218.227C267.458 226.022 265.291 230.084 260.773 234.252C260.674 235.481 260.522 236.716 260.318 237.925Z" fill="#263238"/>
<path d="M253.256 208.954C251.69 208.293 249.53 210.275 247.972 210.394C247.796 210.43 247.615 210.43 247.439 210.393C247.263 210.357 247.097 210.286 246.95 210.183C246.803 210.08 246.678 209.949 246.584 209.797C246.489 209.644 246.426 209.474 246.399 209.297C246.016 207.064 248.645 205.809 250.733 205.407C249.412 205.321 248.123 205.677 246.829 205.327C246.653 205.303 246.485 205.241 246.336 205.146C246.186 205.051 246.058 204.925 245.961 204.777C245.864 204.629 245.8 204.462 245.773 204.286C245.746 204.111 245.757 203.932 245.805 203.762C246.386 201.252 249.709 201.622 251.684 202.52C251.056 201.404 249.213 198.306 251.076 198.127C252.939 197.949 254.901 202.044 255.528 203.412C256.453 205.393 257.371 208.115 256.499 210.077C255.488 212.362 254.194 210.004 253.256 208.954Z" fill="#2B5AAC"/>
<path opacity="0.1" d="M253.256 208.954C251.69 208.293 249.53 210.275 247.972 210.394C247.796 210.43 247.615 210.43 247.439 210.393C247.263 210.357 247.097 210.286 246.95 210.183C246.803 210.08 246.678 209.949 246.584 209.797C246.489 209.644 246.426 209.474 246.399 209.297C246.016 207.064 248.645 205.809 250.733 205.407C249.412 205.321 248.123 205.677 246.829 205.327C246.653 205.303 246.485 205.241 246.336 205.146C246.186 205.051 246.058 204.925 245.961 204.777C245.864 204.629 245.8 204.462 245.773 204.286C245.746 204.111 245.757 203.932 245.805 203.762C246.386 201.252 249.709 201.622 251.684 202.52C251.056 201.404 249.213 198.306 251.076 198.127C252.939 197.949 254.901 202.044 255.528 203.412C256.453 205.393 257.371 208.115 256.499 210.077C255.488 212.362 254.194 210.004 253.256 208.954Z" fill="black"/>
<path d="M253.5 209.555C251.968 207.705 247.555 207.157 247.595 206.252C247.681 204.422 251.208 204.845 252.939 205.44C251.618 204.303 249.068 202.256 249.861 200.849C250.825 199.132 254.398 202.745 255.766 205.473C257.49 208.914 256.486 210.935 255.832 211.12C254.94 211.378 253.751 209.859 253.5 209.555Z" fill="#2B5AAC"/>
<path d="M266.038 240.27L269.875 269.591H246.525C247.008 266.995 251.354 240.237 251.354 240.237L266.038 240.27Z" fill="#2B5AAC"/>
</svg>
