<svg width="288" height="271" viewBox="0 0 288 271" fill="none" xmlns="http://www.w3.org/2000/svg">
<path d="M203.627 260.94C203.522 259.496 204.737 258.213 206.075 257.593C207.413 256.974 208.919 256.763 210.295 256.205C210.84 255.976 211.447 255.586 211.466 255.003C211.466 254.136 210.258 253.764 209.942 252.977C209.607 252.066 210.561 251.223 210.946 250.331C211.801 248.305 209.669 246.26 207.599 245.429C205.53 244.599 203.063 244.004 202.103 242.021C201.751 241.067 201.526 240.072 201.434 239.059C200.95 236.581 199.091 234.139 196.545 233.724C193.998 233.309 191.129 235.583 191.544 238.062C191.798 239.45 192.839 240.54 193.403 241.78C193.967 243.019 193.824 244.965 192.486 245.38C190.292 246.043 188.179 242.071 186.339 243.434C187.095 245.981 187.826 248.522 188.576 251.087C185.694 252.537 182.243 249.91 181.01 246.929C179.777 243.948 179.733 240.584 178.271 237.727C176.808 234.87 172.855 232.726 170.345 234.753C170.221 238.433 175.135 239.921 177.31 242.901C178.878 245.051 178.649 248.546 176.325 249.91C174.001 251.273 170.37 248.9 171.244 246.396C171.56 245.529 172.291 244.804 172.372 243.868C172.458 242.715 171.473 241.78 170.575 241.036C169.174 239.859 167.774 238.7 166.373 237.541C165.513 236.727 164.497 236.094 163.386 235.682C160.499 234.852 157.617 237.169 156.087 239.716C154.556 242.263 153.707 245.293 151.594 247.406C148.564 250.504 142.814 250.697 139.969 247.45C137.125 244.203 138.569 238.155 142.77 236.946C144.363 236.513 146.364 236.55 147.207 235.162C148.669 232.683 144.487 229.585 145.931 227.106C147.034 225.204 149.965 226.071 152.096 225.427C154.228 224.782 155.399 222.675 156.651 220.86C157.902 219.044 159.83 217.241 162.005 217.712C161.837 216.473 161.67 215.091 162.234 213.951C162.798 212.81 164.39 212.048 165.431 212.792C164.366 214.533 165.642 216.95 167.501 217.817C169.36 218.685 171.535 218.48 173.586 218.251C175.637 218.022 178.209 217.26 178.376 215.233C178.438 214.57 178.184 213.87 178.438 213.25C179.337 210.827 183.854 214.155 185.589 212.216C186.593 211.199 185.484 209.402 184.083 209.068C182.683 208.733 181.258 209.235 179.838 209.278C178.419 209.322 176.678 208.597 176.616 207.19C176.554 205.783 178.122 204.811 178.289 203.472C178.562 201.155 174.571 200.553 173.189 202.437C171.808 204.321 172.291 206.905 172.706 209.198C173.121 211.491 173.357 214.205 171.64 215.816C170.909 216.913 169.007 216.336 168.381 215.196C167.755 214.056 167.879 212.631 167.761 211.329C167.644 210.028 167.073 208.516 165.778 208.163C164.88 207.915 163.919 208.349 162.996 208.473C159.359 208.907 156.83 204.253 157.977 200.82C159.123 197.387 162.407 195.156 165.611 193.384C167.953 192.101 170.86 190.905 173.177 192.207C174.262 192.826 175.036 193.836 176.083 194.462C177.942 195.534 180.204 195.144 182.311 195.181C185.65 195.272 188.858 196.503 191.401 198.67C192.343 199.519 193.217 200.925 192.486 201.942C191.755 202.958 189.418 203.243 189.815 204.507C192.294 205.312 195.225 203.429 195.497 200.888C196.102 201.156 196.623 201.581 197.009 202.118C197.395 202.655 197.63 203.285 197.691 203.943C200.349 201.279 205.449 201.669 207.606 204.755C208.188 205.56 208.609 206.533 209.465 207.091C210.32 207.649 211.764 207.357 211.869 206.385C211.887 206.072 211.83 205.759 211.702 205.474C211.2 204.067 210.679 202.685 210.177 201.297C212.117 200.262 214.416 201.88 215.754 203.615C220.643 210.09 224.138 206.199 231.035 207.252C235.701 207.958 237.746 210.914 240.38 214.49C248.435 225.495 259.112 234.511 266.449 246.012C267.223 247.208 267.936 248.429 268.605 249.668C268.481 249.358 268.376 249.048 268.246 248.738C265.377 241.27 261.809 234.089 257.588 227.292C256.689 225.848 255.766 224.417 254.83 223.01C254.241 222.143 253.634 221.256 253.027 220.407C252.258 219.292 251.441 218.214 250.623 217.142C250.003 216.268 249.327 215.425 248.658 214.595C248.2 214.019 247.716 213.436 247.239 212.86C246.762 212.284 246.192 211.559 245.609 210.914L243.85 208.907C243.682 208.702 243.496 208.498 243.286 208.287C242.666 207.587 242.046 206.905 241.383 206.223C241.338 206.14 241.275 206.068 241.197 206.013C241.03 205.827 240.844 205.641 240.652 205.455C240.132 204.879 239.568 204.315 239.022 203.757C238.124 202.852 237.201 201.942 236.265 201.074C235.49 200.306 234.697 199.581 233.879 198.856C233.167 198.236 232.46 197.579 231.729 196.953C230.998 196.327 230.304 195.714 229.573 195.138C228.693 194.394 227.794 193.669 226.877 192.944C224.349 190.936 221.744 189.04 219.063 187.256C218.394 186.803 217.743 186.369 217.074 185.936C216.405 185.502 215.717 185.062 215.048 184.653C214.378 184.244 213.691 183.804 212.997 183.414C212.303 183.023 211.621 182.589 210.927 182.174C210.363 181.84 209.824 181.555 209.254 181.239C208.978 181.065 208.693 180.908 208.399 180.768C207.209 180.105 205.994 179.46 204.78 178.865C204.16 178.555 203.572 178.246 202.921 177.954C202.153 177.558 201.353 177.186 200.56 176.839C200.448 176.772 200.33 176.716 200.207 176.672C199.494 176.337 198.788 176.009 198.05 175.699C197.028 175.265 196.006 174.831 194.952 174.416C193.781 173.939 192.61 173.468 191.414 173.028C190.1 172.532 188.78 172.061 187.442 171.628C186.103 171.194 184.746 170.735 183.389 170.32C182.032 169.905 180.669 169.533 179.287 169.161C176.573 168.443 173.815 167.798 171.033 167.24C170.983 167.229 170.933 167.214 170.884 167.197C169.819 166.993 168.753 166.788 167.687 166.621C167.618 166.599 167.548 166.585 167.476 166.577C167.018 166.497 166.541 166.416 166.057 166.354C164.068 166.02 162.067 165.735 160.034 165.524C159.792 165.484 159.548 165.457 159.303 165.443C158.72 165.357 158.132 165.319 157.524 165.258C156.192 165.134 154.854 165.028 153.49 164.948C152.127 164.867 150.671 164.78 149.246 164.737C147.821 164.694 146.278 164.656 144.797 164.656C140.868 164.656 136.979 164.828 133.128 165.171C132.211 165.233 131.313 165.319 130.414 165.419C129.516 165.518 128.555 165.629 127.589 165.753C126.622 165.877 125.73 166.001 124.788 166.144C123.846 166.286 122.929 166.435 121.987 166.602C121.194 166.726 120.376 166.869 119.583 167.036C117.618 167.408 115.672 167.817 113.751 168.275C112.853 168.48 111.954 168.709 111.056 168.957C110.157 169.205 109.253 169.434 108.379 169.682C106.892 170.097 105.448 170.549 104.01 171.002C102.839 171.398 101.649 171.789 100.503 172.185C100.471 172.188 100.441 172.201 100.416 172.223C99.2266 172.638 98.074 173.071 96.9029 173.53L96.717 173.592C95.6511 174.001 94.5853 174.435 93.5381 174.875C92.2182 175.408 90.9231 175.99 89.6466 176.566C88.5622 177.062 87.4964 177.558 86.4492 178.078C85.4019 178.599 84.1936 179.194 83.0844 179.77L82.9604 179.838C81.8946 180.396 80.8288 180.972 79.7816 181.573C78.7343 182.174 77.6313 182.813 76.5655 183.432C75.5617 184.052 74.5826 184.628 73.5973 185.248C73.2193 185.477 72.8661 185.725 72.4882 185.973C71.4471 186.636 70.4433 187.318 69.3898 188.018C68.1505 188.867 66.9112 189.759 65.7152 190.645C64.6432 191.432 63.6022 192.238 62.5735 193.043C56.6662 197.711 51.1703 202.877 46.1463 208.485C44.3679 210.425 42.6948 212.414 41.0651 214.44C39.6832 216.175 38.3447 217.935 37.0682 219.757C37.4029 219.713 37.7437 219.67 38.0721 219.651C39.9311 219.509 41.945 219.571 43.649 218.759C45.2168 217.997 46.326 216.609 47.745 215.617C51.3824 213.052 57.3436 212.575 58.3227 208.274C58.6573 206.831 58.2607 205.257 58.806 203.869C59.8284 201.285 63.3233 200.913 66.1242 200.956C67.314 200.956 68.7144 201.124 69.2597 202.152C69.6563 202.877 69.427 203.788 69.1296 204.557C67.3696 209.432 63.9816 213.551 59.5372 216.219C55.8998 218.412 51.1532 220.104 50.1493 224.2C50.6512 225.588 53.2042 225.483 53.4087 226.933C53.5575 228.085 52.0517 228.686 51.5064 229.721C50.7132 231.233 52.535 233.073 54.2701 232.987C56.0051 232.9 57.4489 231.667 58.7192 230.508C62.524 227.013 66.5208 223.246 67.8965 218.288C68.5161 216.237 68.6958 213.839 70.3751 212.476C72.3642 210.858 75.9211 211.98 76.5717 214.44C78.22 213.529 80.7916 212.848 81.6468 214.545C81.9442 215.165 81.8574 215.847 82.0062 216.485C82.5453 219.131 86.2075 220.333 86.5855 222.998C87.0192 226.096 83.0286 227.676 79.9117 228.153C77.0922 228.587 74.2666 229.021 71.4471 229.473C70.2042 229.562 69.0001 229.944 67.9336 230.589C66.9298 231.332 66.3039 232.739 66.8864 233.836C67.3131 234.392 67.8063 234.893 68.355 235.329C70.6973 237.64 68.7702 242.418 65.4674 242.523C64.3396 242.567 63.2304 242.151 62.1026 242.108C58.7564 241.966 56.1043 244.878 54.5117 247.797C52.9192 250.715 51.7295 254.043 49.0587 256.026C44.7211 259.229 37.3285 258.504 35.2402 263.412C34.4037 265.395 34.8374 267.626 35.1721 269.757C35.2278 270.092 35.2712 270.439 35.3146 270.786H127.211C129.125 270.024 131.201 269.46 132.837 268.245C136.605 265.457 137.107 260.14 139.48 256.125C141.853 252.109 149.264 250.418 150.38 254.96C158.237 238.328 175.6 263.015 185.924 261.156C188.923 260.617 191.848 259.192 194.865 259.614C200.064 260.332 202.809 265.866 204.625 270.767H208.963C208.467 269.045 208.492 267.149 207.482 265.686C206.273 264.001 203.795 263.015 203.627 260.94ZM133.544 187.107C132.732 188.966 133.097 191.308 131.852 192.932C130.86 194.214 129.144 194.673 127.558 195.045L117.569 197.393C116.071 197.667 114.624 198.164 113.274 198.868C110.659 200.417 109.265 203.342 107.245 205.598C105.225 207.853 101.606 209.47 99.2204 207.593C98.6793 207.104 98.2419 206.512 97.9342 205.851C97.6266 205.19 97.455 204.473 97.4296 203.745C97.249 201.648 97.7488 199.549 98.8548 197.759C99.9888 195.9 101.73 194.481 102.69 192.554C103.651 190.627 103.459 187.795 101.451 186.89C100.385 186.4 99.0407 186.592 98.0926 185.905C96.3885 184.665 97.6093 181.728 99.586 180.985C101.563 180.241 103.763 180.823 105.876 180.954C113.528 181.437 119.161 176.48 124.918 172.359C129.398 169.155 138.935 165.369 144.127 168.641C146.191 169.948 147.003 173.307 145.057 174.782C144.183 175.439 142.981 175.587 142.169 176.318C141.196 177.198 141.06 178.636 140.502 179.82C139.071 182.881 134.888 183.996 133.544 187.107Z" fill="#455A64"/>
<g opacity="0.3">
<path d="M131.852 192.932C133.092 191.308 132.732 188.984 133.544 187.107C134.889 184.009 139.071 182.881 140.521 179.82C141.079 178.636 141.215 177.198 142.188 176.318C143 175.587 144.202 175.439 145.076 174.782C147.022 173.307 146.21 169.948 144.146 168.641C138.966 165.369 129.429 169.155 124.937 172.359C119.18 176.48 113.547 181.437 105.895 180.954C103.782 180.823 101.588 180.247 99.605 180.985C97.6221 181.722 96.4076 184.659 98.1116 185.905C99.0597 186.592 100.404 186.4 101.47 186.89C103.447 187.795 103.645 190.608 102.71 192.554C101.774 194.499 100.008 195.925 98.8738 197.759C97.7678 199.549 97.268 201.648 97.4486 203.745C97.474 204.473 97.6456 205.19 97.9533 205.851C98.2609 206.512 98.6983 207.104 99.2394 207.593C101.625 209.452 105.25 207.859 107.264 205.598C109.278 203.336 110.678 200.417 113.293 198.868C114.643 198.164 116.09 197.667 117.588 197.393L127.577 195.045C129.144 194.673 130.861 194.233 131.852 192.932Z" fill="black"/>
<path d="M194.866 259.62C191.848 259.198 188.923 260.624 185.924 261.163C175.6 263.022 158.237 238.31 150.38 254.966C149.283 250.443 141.854 252.147 139.48 256.162C137.107 260.177 136.605 265.494 132.837 268.283C131.202 269.522 129.119 270.061 127.211 270.823H204.625C202.81 265.872 200.077 260.339 194.866 259.62Z" fill="black"/>
<path d="M86.5794 223.01C86.2014 220.346 82.5392 219.143 82.0001 216.497C81.8513 215.878 81.9381 215.153 81.6407 214.558C80.7855 212.86 78.2139 213.542 76.5656 214.453C75.8964 211.974 72.3395 210.871 70.369 212.488C68.7021 213.851 68.51 216.25 67.8904 218.301C66.5147 223.258 62.5179 227.025 58.7132 230.52C57.4738 231.679 55.999 232.918 54.264 232.999C52.5289 233.08 50.7071 231.245 51.5003 229.733C52.0456 228.699 53.5514 228.097 53.4026 226.945C53.1982 225.495 50.6451 225.6 50.1432 224.212C51.1471 220.116 55.8937 218.425 59.5311 216.231C63.9755 213.563 67.3635 209.444 69.1235 204.569C69.4209 203.801 69.6502 202.89 69.2536 202.165C68.7083 201.136 67.3079 200.969 66.1181 200.969C63.3172 200.925 59.8223 201.297 58.7999 203.881C58.2546 205.269 58.6512 206.843 58.3166 208.287C57.3375 212.587 51.3763 213.064 47.7389 215.63C46.3199 216.621 45.2107 218.009 43.643 218.772C41.9513 219.583 39.9622 219.521 38.066 219.664C37.7376 219.664 37.3968 219.726 37.0621 219.769C35.922 221.335 34.8169 222.944 33.7469 224.596C32.677 226.249 31.6442 227.912 30.6486 229.585C25.9295 237.572 22.09 246.046 19.1973 254.861C18.1728 257.955 17.2681 261.097 16.4831 264.286C15.9544 266.434 15.4834 268.605 15.0703 270.798H15.69C16.1051 269.361 16.415 267.923 16.6752 266.671C16.7434 266.355 16.8054 266.052 16.8673 265.761C17.5614 262.662 18.5838 259.372 21.0315 257.277C23.4791 255.183 27.7672 254.96 29.6696 257.55C31.0266 259.409 30.7168 261.956 30.3636 264.23C30.0104 266.504 29.6696 268.592 29.3164 270.798H35.3085C35.2651 270.451 35.2217 270.104 35.166 269.77C34.8314 267.638 34.3976 265.432 35.2341 263.424C37.3224 258.467 44.746 259.242 49.0526 256.038C51.7234 254.055 52.9193 250.721 54.5056 247.809C56.092 244.897 58.7503 241.978 62.0965 242.12C63.2243 242.164 64.3335 242.579 65.4613 242.536C68.7641 242.43 70.6912 237.653 68.3489 235.341C67.8002 234.905 67.307 234.404 66.8803 233.848C66.2978 232.751 66.9237 231.369 67.9275 230.601C68.994 229.956 70.1981 229.574 71.441 229.486C74.2605 229.033 77.0861 228.599 79.9056 228.166C83.0225 227.695 87.0131 226.096 86.5794 223.01Z" fill="black"/>
<path d="M271.958 259.762C271.462 258.058 270.942 256.366 270.384 254.687C269.826 253.008 269.238 251.347 268.612 249.693C267.943 248.453 267.23 247.214 266.456 246.037C259.119 234.536 248.485 225.52 240.386 214.514C237.753 210.939 235.708 207.983 231.042 207.277C224.145 206.223 220.65 210.115 215.761 203.639C214.441 201.904 212.142 200.287 210.184 201.322C210.686 202.71 211.206 204.092 211.708 205.498C211.837 205.784 211.894 206.097 211.876 206.409C211.77 207.382 210.308 207.649 209.471 207.116C208.635 206.583 208.232 205.585 207.612 204.78C205.437 201.681 200.338 201.303 197.698 203.968C197.637 203.31 197.401 202.679 197.016 202.143C196.63 201.606 196.108 201.181 195.504 200.913C195.231 203.453 192.288 205.337 189.822 204.532C189.425 203.292 191.681 203.038 192.493 201.966C193.304 200.894 192.35 199.543 191.408 198.694C188.864 196.525 185.654 195.291 182.312 195.2C180.205 195.162 177.924 195.553 176.084 194.481C175.018 193.861 174.262 192.826 173.178 192.225C170.86 190.924 167.954 192.12 165.612 193.403C162.408 195.162 159.105 197.375 157.977 200.839C156.85 204.302 159.359 208.894 162.997 208.491C163.914 208.367 164.856 207.934 165.779 208.182C167.074 208.535 167.638 210.041 167.762 211.348C167.886 212.655 167.718 214.056 168.382 215.215C169.045 216.373 170.91 216.95 171.641 215.834C173.357 214.223 173.147 211.497 172.707 209.216C172.267 206.936 171.808 204.333 173.19 202.456C174.572 200.578 178.563 201.173 178.29 203.491C178.123 204.854 176.555 205.845 176.617 207.209C176.679 208.572 178.414 209.359 179.839 209.297C181.264 209.235 182.702 208.739 184.084 209.086C185.466 209.433 186.593 211.218 185.59 212.234C183.854 214.174 179.337 210.846 178.439 213.269C178.185 213.889 178.439 214.589 178.377 215.252C178.209 217.278 175.638 218.022 173.587 218.27C171.536 218.517 169.367 218.703 167.502 217.836C165.636 216.968 164.366 214.552 165.432 212.81C164.391 212.067 162.798 212.81 162.234 213.969C161.671 215.128 161.838 216.448 162.005 217.731C159.83 217.26 157.884 219.075 156.651 220.878C155.418 222.682 154.21 224.807 152.097 225.445C149.984 226.084 147.034 225.222 145.931 227.125C144.487 229.603 148.67 232.745 147.208 235.18C146.365 236.568 144.363 236.531 142.771 236.965C138.57 238.142 137.107 244.221 139.97 247.468C142.833 250.715 148.565 250.529 151.595 247.425C153.708 245.293 154.563 242.3 156.087 239.735C157.612 237.169 160.499 234.87 163.387 235.701C164.498 236.113 165.514 236.745 166.374 237.56C167.774 238.719 169.175 239.877 170.575 241.055C171.474 241.798 172.434 242.734 172.372 243.886C172.292 244.822 171.56 245.547 171.244 246.415C170.371 248.893 174.027 251.291 176.326 249.928C178.625 248.565 178.879 245.07 177.311 242.92C175.136 239.939 170.222 238.452 170.346 234.771C172.855 232.745 176.809 234.87 178.271 237.746C179.734 240.621 179.777 243.992 181.01 246.948C182.243 249.903 185.695 252.556 188.576 251.106C187.827 248.54 187.095 246 186.339 243.453C188.198 242.089 190.293 246.062 192.486 245.398C193.825 244.983 193.992 243.081 193.404 241.798C192.815 240.516 191.799 239.444 191.545 238.08C191.129 235.558 193.974 233.303 196.545 233.743C199.117 234.183 200.951 236.581 201.434 239.078C201.527 240.09 201.752 241.086 202.104 242.04C203.064 244.023 205.555 244.624 207.6 245.448C209.645 246.272 211.801 248.323 210.946 250.35C210.55 251.242 209.608 252.085 209.942 252.996C210.258 253.801 211.467 254.154 211.467 255.022C211.467 255.604 210.847 255.995 210.295 256.224C208.92 256.782 207.414 256.968 206.076 257.612C204.737 258.256 203.523 259.514 203.628 260.958C203.795 263.028 206.286 264.019 207.457 265.736C208.467 267.198 208.443 269.094 208.938 270.817H224.244C223.693 269.714 223.147 268.617 222.59 267.514C223.829 266.479 225.787 266.895 227.064 267.929C227.993 268.781 228.806 269.752 229.48 270.817H274.567C273.856 267.07 272.987 263.385 271.958 259.762Z" fill="black"/>
</g>
<path d="M140.521 179.82C141.079 178.636 141.215 177.198 142.188 176.318C143 175.587 144.202 175.439 145.076 174.782C147.022 173.307 146.21 169.948 144.146 168.641C138.966 165.369 129.429 169.155 124.937 172.359C119.18 176.48 113.547 181.437 105.895 180.954C103.782 180.823 101.588 180.247 99.605 180.985C97.6221 181.722 96.4076 184.659 98.1116 185.905C99.0597 186.592 100.404 186.4 101.47 186.89C103.447 187.795 103.645 190.608 102.71 192.554C101.774 194.499 100.008 195.925 98.8738 197.759C97.7678 199.549 97.268 201.648 97.4486 203.745C97.474 204.473 97.6456 205.19 97.9533 205.851C98.2609 206.512 98.6983 207.104 99.2394 207.593C101.625 209.452 105.25 207.859 107.264 205.598C109.278 203.336 110.678 200.417 113.293 198.868C114.643 198.164 116.09 197.667 117.588 197.393L127.577 195.045C129.163 194.673 130.879 194.214 131.871 192.932C133.11 191.308 132.751 188.984 133.563 187.107C134.889 183.996 139.071 182.881 140.521 179.82Z" fill="#263238"/>
<path d="M194.866 259.62C191.848 259.198 188.923 260.624 185.924 261.163C175.6 263.022 158.237 238.31 150.38 254.966C149.283 250.443 141.854 252.147 139.48 256.162C137.107 260.177 136.605 265.494 132.837 268.283C131.202 269.522 129.119 270.061 127.211 270.823H204.625C202.81 265.872 200.077 260.339 194.866 259.62Z" fill="#263238"/>
<path d="M270.378 254.687C269.821 253.008 269.232 251.347 268.606 249.693C267.937 248.453 267.224 247.214 266.45 246.037C259.113 234.536 248.479 225.52 240.38 214.514C237.747 210.939 235.702 207.983 231.036 207.277C224.139 206.223 220.644 210.115 215.755 203.639C214.435 201.904 212.136 200.287 210.178 201.322C210.68 202.71 211.201 204.092 211.702 205.498C211.831 205.784 211.888 206.097 211.87 206.409C211.764 207.382 210.302 207.649 209.465 207.116C208.629 206.583 208.226 205.585 207.606 204.78C205.431 201.681 200.332 201.303 197.692 203.968C197.631 203.31 197.395 202.679 197.01 202.143C196.624 201.606 196.102 201.181 195.498 200.913C195.226 203.453 192.282 205.337 189.816 204.532C189.419 203.292 191.675 203.038 192.487 201.966C193.298 200.894 192.344 199.543 191.402 198.694C188.858 196.525 185.648 195.291 182.306 195.2C180.199 195.162 177.918 195.553 176.078 194.481C175.012 193.861 174.256 192.826 173.172 192.225C170.854 190.924 167.948 192.12 165.606 193.403C162.402 195.162 159.099 197.375 157.972 200.839C156.844 204.302 159.353 208.894 162.991 208.491C163.908 208.367 164.85 207.934 165.773 208.182C167.068 208.535 167.632 210.041 167.756 211.348C167.88 212.655 167.713 214.056 168.376 215.215C169.039 216.373 170.904 216.95 171.635 215.834C173.352 214.223 173.141 211.497 172.701 209.216C172.261 206.936 171.802 204.333 173.184 202.456C174.566 200.578 178.557 201.173 178.284 203.491C178.117 204.854 176.549 205.845 176.611 207.209C176.673 208.572 178.408 209.359 179.833 209.297C181.258 209.235 182.696 208.739 184.078 209.086C185.46 209.433 186.588 211.218 185.584 212.234C183.849 214.174 179.331 210.846 178.433 213.269C178.179 213.889 178.433 214.589 178.371 215.252C178.204 217.278 175.632 218.022 173.581 218.27C171.53 218.517 169.361 218.703 167.496 217.836C165.631 216.968 164.36 214.552 165.426 212.81C164.385 212.067 162.793 212.81 162.229 213.969C161.665 215.128 161.832 216.448 161.999 217.731C159.824 217.26 157.879 219.075 156.645 220.878C155.412 222.682 154.204 224.807 152.091 225.445C149.978 226.084 147.028 225.222 145.925 227.125C144.481 229.603 148.664 232.745 147.202 235.18C146.359 236.568 144.358 236.531 142.765 236.965C138.564 238.142 137.101 244.221 139.964 247.468C142.827 250.715 148.559 250.529 151.589 247.425C153.702 245.293 154.557 242.3 156.082 239.735C157.606 237.169 160.494 234.87 163.381 235.701C164.492 236.113 165.508 236.745 166.368 237.56C167.768 238.719 169.169 239.877 170.569 241.055C171.468 241.798 172.428 242.734 172.366 243.886C172.286 244.822 171.555 245.547 171.238 246.415C170.365 248.893 174.021 251.291 176.32 249.928C178.619 248.565 178.873 245.07 177.305 242.92C175.13 239.939 170.216 238.452 170.34 234.771C172.85 232.745 176.803 234.87 178.265 237.746C179.728 240.621 179.771 243.992 181.004 246.948C182.238 249.903 185.689 252.556 188.57 251.106C187.821 248.54 187.089 246 186.333 243.453C188.192 242.089 190.287 246.062 192.481 245.398C193.819 244.983 193.986 243.081 193.398 241.798C192.809 240.516 191.793 239.444 191.539 238.08C191.123 235.558 193.968 233.303 196.539 233.743C199.111 234.183 200.945 236.581 201.428 239.078C201.521 240.09 201.746 241.086 202.098 242.04C203.058 244.023 205.549 244.624 207.594 245.448C209.639 246.272 211.795 248.323 210.94 250.35C210.544 251.242 209.602 252.085 209.936 252.996C210.252 253.801 211.461 254.154 211.461 255.022C211.461 255.604 210.841 255.995 210.29 256.224C208.914 256.782 207.408 256.968 206.07 257.612C204.731 258.256 203.517 259.514 203.622 260.958C203.789 263.028 206.28 264.019 207.452 265.736C208.462 267.198 208.437 269.094 208.933 270.817H224.244C223.693 269.714 223.148 268.617 222.59 267.514C223.829 266.479 225.787 266.895 227.064 267.929C227.994 268.781 228.806 269.752 229.481 270.817H274.567C273.857 267.099 272.985 263.42 271.952 259.781C271.457 258.058 270.936 256.366 270.378 254.687Z" fill="#263238"/>
<path d="M227.063 267.911C225.786 266.895 223.822 266.461 222.589 267.496C223.147 268.599 223.692 269.695 224.243 270.798H229.48C228.805 269.733 227.993 268.762 227.063 267.911Z" fill="#455A64"/>
<path d="M35.2465 263.424C37.3348 258.467 44.7584 259.242 49.065 256.038C51.7358 254.055 52.9317 250.721 54.518 247.809C56.1044 244.897 58.7627 241.978 62.1089 242.12C63.2367 242.164 64.3459 242.579 65.4737 242.536C68.7765 242.43 70.7036 237.653 68.3613 235.341C67.8126 234.905 67.3194 234.404 66.8927 233.848C66.3102 232.751 66.9361 231.369 67.9399 230.601C69.0064 229.956 70.2105 229.574 71.4534 229.486C74.2729 229.033 77.0985 228.599 79.918 228.166C83.0163 227.689 87.0255 226.096 86.5918 223.01C86.2138 220.346 82.5516 219.143 82.0125 216.497C81.8637 215.878 81.9505 215.153 81.6531 214.558C80.7979 212.86 78.2263 213.542 76.578 214.453C75.9088 211.974 72.3519 210.871 70.3814 212.488C68.7145 213.851 68.5224 216.25 67.9027 218.301C66.5271 223.258 62.5303 227.025 58.7255 230.52C57.4862 231.679 56.0114 232.918 54.2764 232.999C52.5413 233.08 50.7195 231.245 51.5127 229.733C52.058 228.699 53.5638 228.097 53.415 226.945C53.2105 225.495 50.6575 225.6 50.1556 224.212C51.1595 220.116 55.9061 218.425 59.5435 216.231C63.9879 213.563 67.3759 209.444 69.1359 204.569C69.4333 203.801 69.6626 202.89 69.266 202.165C68.7207 201.136 67.3203 200.969 66.1305 200.969C63.3296 200.925 59.8347 201.297 58.8123 203.881C58.267 205.269 58.6636 206.843 58.329 208.287C57.3499 212.587 51.3887 213.064 47.7513 215.63C46.3323 216.621 45.2231 218.009 43.6553 218.772C41.9637 219.583 39.9746 219.521 38.0784 219.664C37.75 219.664 37.4091 219.726 37.0745 219.769C35.9261 221.335 34.8169 222.944 33.7469 224.596C32.677 226.249 31.6442 227.912 30.6486 229.585C25.9295 237.572 22.09 246.046 19.1973 254.861C18.1728 257.955 17.2681 261.097 16.4831 264.286C15.9544 266.434 15.4834 268.605 15.0703 270.798H15.69C16.1051 269.361 16.415 267.923 16.6752 266.671C16.7434 266.355 16.8054 266.052 16.8673 265.761C17.5614 262.662 18.5838 259.372 21.0315 257.277C23.4791 255.183 27.7672 254.96 29.6696 257.55C31.0266 259.409 30.7168 261.956 30.3636 264.23C30.0104 266.504 29.6696 268.592 29.3164 270.798H35.3085C35.2651 270.451 35.2217 270.104 35.166 269.77C34.8314 267.638 34.3976 265.407 35.2465 263.424Z" fill="#263238"/>
<path d="M29.6697 257.55C27.7673 254.941 23.4731 255.189 21.0378 257.277C18.6025 259.366 17.5677 262.637 16.8736 265.761C16.8117 266.046 16.7497 266.38 16.6816 266.671C16.4213 267.911 16.1115 269.361 15.6963 270.798H29.3289C29.6759 268.605 30.025 266.415 30.3761 264.23C30.7169 261.956 31.0267 259.409 29.6697 257.55Z" fill="#455A64"/>
<path d="M114.08 248.038C114.372 245.95 111.428 244.24 109.216 244.06C108.163 243.973 107.072 244.134 106.074 243.787C103.912 243.031 103.044 240.243 100.937 239.351C99.3572 238.687 97.5416 239.276 96.011 240.045C94.4805 240.813 92.9685 241.786 91.2644 241.904C89.7772 241.996 88.1661 241.445 86.8586 242.17C85.8919 242.709 85.3838 243.831 84.4915 244.488C83.5612 245.06 82.4855 245.353 81.3932 245.33C80.3062 245.301 79.2234 245.478 78.2019 245.851C77.2105 246.303 76.3925 247.344 76.597 248.41L114.08 248.038Z" fill="#FAFAFA"/>
<path d="M123.722 233.173C123.914 231.747 121.9 230.576 120.388 230.452C119.665 230.478 118.94 230.415 118.232 230.266C116.751 229.746 116.162 227.837 114.718 227.224C113.634 226.771 112.395 227.174 111.347 227.701C110.3 228.228 109.259 228.891 108.094 228.971C107.072 229.033 105.969 228.655 105.076 229.151C104.413 229.523 104.066 230.291 103.453 230.737C102.819 231.134 102.081 231.335 101.334 231.314C100.589 231.297 99.8469 231.419 99.1462 231.673C98.7994 231.809 98.5055 232.053 98.308 232.368C98.1104 232.684 98.0198 233.055 98.0495 233.427L123.722 233.173Z" fill="#FAFAFA"/>
<path d="M73.9575 166.168C73.9575 166.168 73.908 166.212 73.7964 166.28L73.3131 166.577L71.4541 167.699L70.097 168.498L68.5045 169.496C67.3705 170.227 66.0259 171.014 64.6626 171.975L62.4628 173.474C61.7006 174.001 60.9384 174.59 60.1267 175.172C58.5032 176.331 56.8487 177.651 55.0826 179.064C51.6187 181.908 47.9255 185.186 44.2695 188.854C40.8544 192.34 37.6177 195.997 34.5718 199.81C33.2023 201.588 31.8763 203.255 30.7361 204.897C30.1598 205.709 29.5835 206.484 29.063 207.252L27.5882 209.47C26.6215 210.865 25.8469 212.191 25.1095 213.337L24.1243 214.936L23.3373 216.305L22.2405 218.195C22.1228 218.4 22.0236 218.561 21.9493 218.685C21.8749 218.809 21.8439 218.852 21.8377 218.846C21.8315 218.84 21.8377 218.784 21.9183 218.672L22.1847 218.164L23.2258 216.243C23.4612 215.822 23.7153 215.363 23.9879 214.855C24.2606 214.347 24.6076 213.82 24.9546 213.238C25.6548 212.085 26.417 210.759 27.3713 209.34L28.8337 207.109C29.348 206.335 29.9243 205.56 30.4944 204.742C31.6284 203.094 32.9731 201.415 34.3115 199.624C40.3497 191.95 47.239 184.986 54.8471 178.865C56.6194 177.483 58.2863 176.145 59.9222 174.999C60.7339 174.416 61.5023 173.827 62.2707 173.307L64.4891 171.826C65.8895 170.853 67.2156 170.078 68.362 169.347C68.9383 168.994 69.465 168.659 69.9669 168.362L71.3426 167.587L73.2573 166.522L73.7592 166.255L73.9575 166.168Z" fill="#263238"/>
<path d="M89.2128 153.143C89.0981 153.206 88.975 153.252 88.8472 153.279L87.7752 153.614C87.3105 153.75 86.7404 153.918 86.0835 154.141C85.4267 154.364 84.6707 154.581 83.8528 154.878C82.2107 155.442 80.2773 156.186 78.1581 157.078C76.0388 157.97 73.7585 159.055 71.4099 160.294C69.0614 161.533 66.905 162.853 64.9716 164.092C63.0383 165.332 61.3528 166.571 59.9648 167.594C59.2645 168.108 58.6511 168.604 58.1058 169.031C57.5605 169.459 57.1019 169.824 56.7239 170.14L55.8502 170.841C55.7561 170.931 55.6497 171.009 55.5342 171.07C55.6187 170.969 55.712 170.876 55.813 170.791L56.6434 170.041C57.009 169.719 57.4551 169.322 57.9942 168.889C58.5333 168.455 59.1344 167.941 59.8532 167.414C61.2227 166.336 62.9144 165.121 64.8105 163.845C66.7067 162.568 68.9127 161.267 71.2612 160.009C73.6097 158.751 75.9149 157.698 78.0403 156.799C80.1658 155.901 82.1239 155.2 83.7846 154.667C84.6088 154.376 85.3647 154.166 86.0278 153.967C86.6908 153.769 87.2671 153.608 87.738 153.49L88.8287 153.217C88.955 153.184 89.0833 153.16 89.2128 153.143Z" fill="#263238"/>
<path d="M13.0131 219.689C11.8759 219.115 10.6219 218.812 9.34848 218.803C8.07508 218.793 6.81664 219.078 5.67105 219.634C4.52547 220.19 3.52362 221.003 2.74344 222.009C1.96326 223.016 1.42578 224.189 1.17281 225.437C0.919835 226.685 0.958191 227.974 1.28489 229.205C1.61159 230.436 2.21783 231.575 3.05645 232.533C3.89507 233.491 4.94346 234.243 6.12007 234.73C7.29668 235.217 8.5698 235.427 9.84038 235.341C10.46 235.298 10.9806 235.118 11.6622 235.007L19.5133 233.575C19.7469 233.538 19.9682 233.446 20.1592 233.306C20.3502 233.167 20.5053 232.984 20.6118 232.773C20.7183 232.562 20.7731 232.328 20.7717 232.092C20.7704 231.855 20.7128 231.623 20.6039 231.413L17.1338 224.379C16.873 223.767 16.5793 223.169 16.2539 222.589C15.4551 221.347 14.3352 220.345 13.0131 219.689ZM12.5173 228.705C12.1939 229.349 11.6866 229.883 11.0598 230.239C10.4329 230.594 9.71454 230.756 8.99563 230.704C8.27671 230.651 7.58953 230.387 7.02102 229.943C6.45252 229.5 6.02823 228.899 5.80185 228.214C5.57546 227.53 5.55715 226.794 5.74924 226.099C5.94132 225.404 6.33516 224.782 6.88094 224.311C7.42671 223.84 8.09989 223.542 8.8153 223.454C9.53071 223.365 10.2562 223.491 10.9 223.816C11.7612 224.251 12.4148 225.01 12.7179 225.926C13.021 226.843 12.9489 227.842 12.5173 228.705Z" fill="#2B5AAC"/>
<path d="M214.633 164.756C215.266 163.651 215.636 162.416 215.714 161.146C215.792 159.875 215.576 158.604 215.082 157.431C214.589 156.257 213.832 155.213 212.87 154.38C211.908 153.547 210.766 152.947 209.535 152.627C208.303 152.306 207.014 152.274 205.768 152.533C204.521 152.792 203.352 153.334 202.349 154.118C201.347 154.903 200.539 155.908 199.988 157.055C199.437 158.202 199.158 159.461 199.172 160.734V160.771C199.172 161.391 199.334 161.924 199.408 162.63L200.418 170.543C200.447 170.772 200.529 170.992 200.658 171.184C200.786 171.376 200.957 171.536 201.158 171.651C201.359 171.765 201.583 171.832 201.814 171.845C202.045 171.858 202.275 171.818 202.488 171.727L209.7 168.628C210.334 168.401 210.955 168.138 211.559 167.841C212.84 167.104 213.901 166.039 214.633 164.756ZM205.654 163.777C205.027 163.42 204.519 162.886 204.196 162.241C203.873 161.595 203.748 160.869 203.838 160.153C203.928 159.437 204.229 158.764 204.702 158.219C205.175 157.675 205.799 157.282 206.495 157.093C207.192 156.903 207.928 156.924 208.612 157.154C209.297 157.383 209.897 157.811 210.338 158.382C210.779 158.953 211.04 159.642 211.089 160.362C211.137 161.082 210.971 161.8 210.611 162.426C210.132 163.261 209.341 163.873 208.412 164.126C207.483 164.379 206.491 164.254 205.654 163.777Z" fill="#2B5AAC"/>
<path d="M91.2087 160.703C90.7734 160.065 90.1971 159.537 89.5243 159.158C88.8515 158.78 88.1005 158.562 87.3297 158.521C86.5589 158.48 85.789 158.617 85.0799 158.922C84.3708 159.227 83.7416 159.692 83.2412 160.279C82.7409 160.867 82.3828 161.562 82.1949 162.311C82.007 163.06 81.9943 163.842 82.1579 164.596C82.3214 165.351 82.6567 166.057 83.1378 166.661C83.6188 167.264 84.2326 167.749 84.9315 168.077C85.2723 168.238 85.6007 168.294 85.9973 168.436L90.5828 169.973C90.7159 170.017 90.8574 170.03 90.9963 170.01C91.1351 169.991 91.2675 169.939 91.3833 169.86C91.499 169.781 91.5949 169.676 91.6635 169.554C91.7321 169.432 91.7715 169.295 91.7787 169.155L91.9956 164.402C92.0365 164.001 92.0551 163.598 92.0514 163.194C91.9972 162.303 91.7062 161.444 91.2087 160.703ZM88.3024 165.338C87.9427 165.585 87.5179 165.72 87.0816 165.725C86.6454 165.731 86.2173 165.607 85.8515 165.369C85.4857 165.131 85.1987 164.79 85.0266 164.389C84.8546 163.988 84.8053 163.545 84.8851 163.116C84.9648 162.687 85.1699 162.292 85.4745 161.979C85.7791 161.667 86.1695 161.452 86.5963 161.361C87.0231 161.271 87.4672 161.309 87.8724 161.471C88.2775 161.633 88.6256 161.911 88.8725 162.271C89.0365 162.51 89.1518 162.778 89.2119 163.062C89.272 163.345 89.2757 163.638 89.2228 163.922C89.1698 164.207 89.0613 164.479 88.9034 164.722C88.7455 164.965 88.5413 165.174 88.3024 165.338Z" fill="#2B5AAC"/>
<path d="M154.78 236.06C154.78 235.289 154.603 234.528 154.261 233.836C153.92 233.145 153.423 232.541 152.811 232.073C152.198 231.604 151.486 231.283 150.729 231.134C149.973 230.985 149.192 231.012 148.447 231.214C147.703 231.416 147.015 231.786 146.437 232.297C145.859 232.808 145.407 233.445 145.115 234.159C144.823 234.872 144.699 235.644 144.754 236.413C144.808 237.183 145.039 237.929 145.429 238.595C145.621 238.923 145.863 239.152 146.111 239.493L149.023 243.354C149.107 243.466 149.215 243.558 149.341 243.621C149.466 243.684 149.605 243.717 149.745 243.717C149.885 243.717 150.024 243.684 150.149 243.621C150.274 243.558 150.383 243.466 150.467 243.354L153.336 239.555C153.596 239.246 153.84 238.923 154.067 238.588C154.525 237.824 154.771 236.951 154.78 236.06ZM149.76 238.229C149.323 238.23 148.894 238.101 148.53 237.859C148.165 237.617 147.881 237.272 147.712 236.868C147.544 236.464 147.499 236.019 147.584 235.589C147.668 235.159 147.879 234.765 148.188 234.455C148.497 234.145 148.891 233.933 149.32 233.848C149.75 233.762 150.195 233.805 150.599 233.972C151.004 234.14 151.35 234.423 151.593 234.787C151.837 235.151 151.966 235.579 151.966 236.017C151.966 236.602 151.734 237.164 151.321 237.579C150.907 237.994 150.346 238.227 149.76 238.229Z" fill="#2B5AAC"/>
<path d="M269.169 219.968C269.762 219.475 270.233 218.852 270.546 218.148C270.859 217.443 271.006 216.676 270.975 215.906C270.944 215.136 270.736 214.383 270.367 213.707C269.999 213.03 269.479 212.447 268.848 212.003C268.218 211.56 267.494 211.267 266.732 211.149C265.971 211.03 265.192 211.089 264.457 211.319C263.721 211.55 263.049 211.947 262.492 212.48C261.935 213.013 261.508 213.666 261.244 214.391C261.114 214.75 261.089 215.085 260.984 215.487L259.881 220.197C259.848 220.333 259.847 220.476 259.879 220.613C259.911 220.75 259.974 220.877 260.063 220.985C260.153 221.094 260.266 221.18 260.395 221.236C260.524 221.293 260.664 221.319 260.804 221.312L265.557 221.089C265.96 221.091 266.363 221.072 266.765 221.033C267.647 220.9 268.478 220.531 269.169 219.968ZM264.28 217.489C264 217.154 263.826 216.743 263.779 216.309C263.733 215.874 263.816 215.436 264.019 215.049C264.222 214.662 264.535 214.344 264.919 214.136C265.303 213.927 265.74 213.837 266.175 213.877C266.61 213.917 267.023 214.085 267.362 214.361C267.702 214.636 267.951 215.005 268.08 215.423C268.209 215.84 268.211 216.286 268.086 216.705C267.962 217.123 267.715 217.496 267.378 217.774C266.931 218.147 266.354 218.328 265.773 218.277C265.193 218.225 264.656 217.947 264.28 217.501V217.489Z" fill="#2B5AAC"/>
<path d="M135.669 52.671L163.926 44.4047L167.749 54.0157L134.944 59.4067L135.669 52.671Z" fill="#FFBE9D"/>
<path d="M135.669 52.671C135.669 52.671 130.216 53.0366 129.671 53.3836C129.126 53.7306 123.474 54.0033 123.474 54.8212C123.474 55.6392 123.741 55.2054 124.639 55.2612C125.538 55.3169 127.682 54.9885 127.707 55.3727C127.731 55.7569 121.101 56.8103 120.89 57.0954C120.68 57.3804 120.103 57.6593 120.928 57.8947C120.928 57.8947 119.905 58.3905 120.122 58.9977C120.189 59.2912 120.354 59.5532 120.589 59.7411C120.824 59.929 121.116 60.0318 121.417 60.0326C122.037 59.9768 126.938 59.7971 126.938 59.7971C126.938 59.7971 121.516 60.0698 121.541 60.6089C121.566 61.148 121.374 61.086 122.043 61.4764C122.712 61.8668 126.281 61.8668 126.281 61.8668L130.433 61.0302C130.433 61.0302 127.521 62.4555 127.161 63.0255C126.802 63.5956 126.604 64.6429 127.161 65.0023C127.719 65.3617 127.961 64.8474 128.401 64.3826C128.841 63.9179 132.41 62.189 133.054 61.7119C133.699 61.2347 136.884 58.1798 136.884 58.1798L135.669 52.671Z" fill="#FFBE9D"/>
<path d="M190.013 6.97088C190.202 6.74797 190.445 6.57729 190.719 6.47515C191.614 6.0821 192.624 6.04443 193.545 6.36981C193.027 5.64643 192.652 4.8302 192.442 3.96552C192.34 3.53018 192.353 3.07597 192.479 2.64706C192.605 2.21814 192.84 1.82913 193.161 1.51785C193.517 1.26882 193.922 1.09763 194.349 1.01542C194.776 0.933216 195.216 0.941831 195.639 1.04071C196.852 1.19552 197.978 1.7518 198.837 2.62085C199.258 3.06094 199.566 3.5959 199.737 4.1805C199.907 4.76509 199.934 5.38212 199.816 5.97942L197.337 7.91896C196.62 8.83893 195.67 9.55117 194.586 9.98244C194.353 10.11 194.091 10.1722 193.825 10.1624C193.56 10.1526 193.303 10.0711 193.08 9.92667C192.931 9.76082 192.836 9.55303 192.808 9.33138C192.78 9.10973 192.821 8.88492 192.925 8.68735C193.146 8.29192 193.448 7.94769 193.811 7.67729C192.884 8.09988 191.867 8.28719 190.849 8.2226C190.674 8.23115 190.499 8.19928 190.338 8.12945C190.177 8.05961 190.034 7.95367 189.92 7.81982C189.854 7.684 189.827 7.53216 189.844 7.3819C189.86 7.23164 189.919 7.08912 190.013 6.97088Z" fill="#263238"/>
<path d="M192.685 1.56742C192.685 1.59841 193.131 1.6108 193.812 1.7967C194.698 2.04522 195.512 2.4972 196.192 3.11658C196.866 3.74152 197.388 4.5133 197.716 5.37215C197.964 6.03519 198.014 6.47515 198.045 6.47515C198.061 6.37044 198.061 6.26384 198.045 6.15912C198.004 5.8789 197.938 5.60301 197.846 5.33497C197.543 4.43823 197.021 3.6311 196.328 2.98645C195.626 2.349 194.773 1.90112 193.85 1.68516C193.575 1.61943 193.295 1.57592 193.013 1.55503C192.904 1.54038 192.793 1.54458 192.685 1.56742Z" fill="#455A64"/>
<path d="M197.245 7.50379C197.335 7.28712 197.465 7.08948 197.629 6.92131C198.178 6.15519 198.941 5.56871 199.823 5.23583C199.901 5.20613 199.985 5.19406 200.068 5.20049C200.152 5.20691 200.233 5.23168 200.306 5.27301C200.517 5.43412 200.442 5.77494 200.269 5.97943C200.071 6.16441 199.896 6.37245 199.748 6.59909L198.416 7.98713C198.295 8.15979 198.121 8.28818 197.92 8.35273C197.821 8.38507 197.716 8.39004 197.614 8.36713C197.513 8.34422 197.419 8.29428 197.344 8.2226C197.258 8.12618 197.202 8.00632 197.185 7.8783C197.167 7.75028 197.188 7.61991 197.245 7.50379Z" fill="#455A64"/>
<path d="M192.021 19.7297C192.372 17.5701 192.909 15.445 193.626 13.3782C194.348 11.3026 195.574 9.43921 197.196 7.95615C197.444 7.73927 199.315 6.3884 199.588 6.5743C199.86 6.7602 198.311 8.12346 198.317 8.35893C198.298 10.6368 197.585 12.8548 196.272 14.7167C195.046 16.5403 193.62 18.2217 192.021 19.7297Z" fill="#263238"/>
<path d="M186.897 29.1052L195.863 12.3124C198.342 7.42323 203.262 4.79586 208.083 7.41084L208.591 7.72686C210.664 9.01383 212.177 11.0341 212.828 13.3857C213.479 15.7372 213.221 18.2477 212.105 20.4176C209.917 24.6622 207.439 29.3469 206.063 31.5033C203.231 35.9401 198.33 33.858 198.33 33.858C198.33 33.858 196.564 36.9563 195.808 38.27C195.808 38.27 195.12 38.6542 190.85 36.2933C186.581 33.9324 186.897 29.1052 186.897 29.1052Z" fill="#FFBE9D"/>
<path d="M198.329 33.858C196.267 32.571 194.618 30.7193 193.577 28.5228C193.577 28.5228 192.957 32.6559 197.685 35.023L198.329 33.858Z" fill="#EB996E"/>
<path d="M208.994 23.1131C208.894 23.2814 208.732 23.4037 208.543 23.4536C208.354 23.5034 208.153 23.4768 207.984 23.3795C207.898 23.3358 207.822 23.2754 207.76 23.2018C207.698 23.1282 207.652 23.0429 207.624 22.9511C207.595 22.8592 207.586 22.7626 207.595 22.667C207.605 22.5713 207.634 22.4786 207.68 22.3943C207.781 22.2256 207.944 22.1031 208.134 22.0533C208.324 22.0035 208.526 22.0302 208.696 22.1278C208.781 22.1721 208.857 22.2329 208.918 22.3068C208.979 22.3806 209.025 22.466 209.053 22.5578C209.08 22.6496 209.089 22.746 209.079 22.8414C209.069 22.9368 209.04 23.0291 208.994 23.1131Z" fill="#263238"/>
<path d="M210.097 21.5144C209.967 21.5144 209.706 20.8947 209.019 20.4609C208.331 20.0272 207.612 20.0705 207.587 19.9404C207.562 19.8103 207.748 19.7793 208.07 19.7545C208.507 19.7268 208.94 19.8374 209.31 20.0705C209.667 20.2924 209.945 20.6223 210.103 21.0124C210.184 21.3037 210.159 21.4958 210.097 21.5144Z" fill="#263238"/>
<path d="M202.506 19.5376C202.457 19.6211 202.392 19.694 202.314 19.7522C202.237 19.8104 202.149 19.8528 202.055 19.877C201.961 19.9012 201.864 19.9066 201.768 19.8931C201.672 19.8795 201.579 19.8471 201.496 19.7979C201.411 19.7548 201.335 19.6949 201.273 19.6219C201.211 19.5489 201.165 19.4642 201.136 19.3728C201.108 19.2814 201.098 19.1853 201.108 19.0901C201.118 18.9949 201.146 18.9027 201.192 18.8188C201.293 18.6501 201.456 18.5277 201.646 18.4779C201.836 18.428 202.038 18.4548 202.209 18.5524C202.294 18.5966 202.369 18.6575 202.43 18.7313C202.492 18.8052 202.537 18.8905 202.565 18.9823C202.593 19.0741 202.602 19.1706 202.592 19.2659C202.582 19.3613 202.552 19.4537 202.506 19.5376Z" fill="#263238"/>
<path d="M203.126 17.7344C202.99 17.7344 202.73 17.1148 202.042 16.6872C201.354 16.2596 200.635 16.2906 200.617 16.1605C200.598 16.0304 200.778 15.9994 201.094 15.9746C201.519 15.9534 201.941 16.0637 202.302 16.2906C202.66 16.5121 202.938 16.8421 203.095 17.2325C203.207 17.5237 203.176 17.722 203.126 17.7344Z" fill="#263238"/>
<path d="M202.239 24.6622C202.672 24.7712 203.088 24.9357 203.479 25.1518C203.664 25.2447 203.857 25.3129 203.956 25.2137C204.091 25.0357 204.163 24.8176 204.16 24.5941C204.259 24.0694 204.365 23.5179 204.476 22.9396C204.697 21.5082 205.032 20.097 205.48 18.7197C205.372 20.1642 205.15 21.598 204.817 23.0077C204.699 23.584 204.588 24.1355 204.476 24.6622C204.455 24.9417 204.337 25.2048 204.142 25.4058C204.078 25.4518 204.005 25.4825 203.927 25.4954C203.85 25.5083 203.771 25.5031 203.695 25.4802C203.581 25.4501 203.472 25.402 203.373 25.3377C202.967 25.1636 202.586 24.9364 202.239 24.6622Z" fill="#263238"/>
<path d="M204.464 16.1853C204.266 16.303 203.702 15.7205 202.89 15.2124C202.079 14.7043 201.316 14.4316 201.316 14.2023C201.316 14.0908 201.564 14.0103 201.936 14.0412C202.423 14.0897 202.891 14.2556 203.299 14.5246C203.716 14.7812 204.064 15.1339 204.316 15.5532C204.526 15.8816 204.557 16.1233 204.464 16.1853Z" fill="#263238"/>
<path d="M211.056 20.1077C210.821 20.1759 210.375 19.6678 209.718 19.2464C209.061 18.825 208.435 18.5895 208.404 18.3479C208.404 18.2301 208.584 18.131 208.925 18.1372C209.369 18.1677 209.798 18.3176 210.164 18.571C210.543 18.812 210.847 19.153 211.044 19.5562C211.193 19.8475 211.168 20.052 211.056 20.1077Z" fill="#263238"/>
<path d="M194.178 15.8506C194.122 15.7701 191.668 13.0374 189.84 16.1543C188.012 19.2712 191.544 20.4361 191.6 20.3494C191.656 20.2626 194.178 15.8506 194.178 15.8506Z" fill="#FFBE9D"/>
<path d="M191.352 18.6205C191.352 18.6205 191.277 18.6205 191.159 18.6205C190.998 18.6006 190.852 18.5183 190.751 18.3913C190.623 18.148 190.562 17.8749 190.575 17.6004C190.588 17.3258 190.675 17.0598 190.825 16.8297C190.974 16.5549 191.187 16.3192 191.445 16.1419C191.527 16.0662 191.626 16.0102 191.733 15.978C191.84 15.9458 191.954 15.9383 192.064 15.956C192.136 15.9769 192.198 16.0214 192.24 16.0822C192.283 16.1429 192.304 16.2164 192.3 16.2906C192.3 16.4021 192.231 16.4517 192.25 16.4703C192.269 16.4889 192.343 16.4703 192.393 16.3154C192.423 16.2292 192.423 16.1351 192.393 16.0489C192.342 15.9361 192.251 15.8458 192.139 15.7949C191.996 15.7462 191.843 15.7349 191.694 15.762C191.545 15.7891 191.406 15.8538 191.29 15.9498C191 16.1419 190.763 16.404 190.602 16.712C190.423 16.9786 190.327 17.2925 190.327 17.6136C190.327 17.9347 190.423 18.2486 190.602 18.5152C190.672 18.5871 190.757 18.6427 190.852 18.678C190.946 18.7133 191.047 18.7276 191.147 18.7197C191.308 18.6887 191.364 18.6267 191.352 18.6205Z" fill="#EB996E"/>
<path d="M212.972 14.159C213.635 14.159 213.046 11.6803 212.117 10.3914C210.723 8.47046 208.145 6.31404 206.125 5.82451C203.702 5.20484 201.378 5.2916 199.253 6.59908C197.14 7.96176 195.428 9.86339 194.295 12.1079C193.899 12.7626 193.685 13.5114 193.676 14.2767C193.725 15.2124 194.295 16.1357 193.738 17.059C193.517 17.3953 193.439 17.8054 193.521 18.1992C193.75 19.1349 194.76 18.9614 195.423 18.5648C196.805 17.7282 197.71 16.3092 198.565 14.9335C199.229 13.9896 199.734 12.9428 200.058 11.8352C200.201 11.2156 200.232 10.5959 200.405 9.97624C200.476 9.67117 200.612 9.38493 200.804 9.1369C200.995 8.88888 201.237 8.68485 201.514 8.53863C201.644 8.49163 201.776 8.45435 201.911 8.42709C202.566 8.2945 203.245 8.33948 203.877 8.55739C204.509 8.77529 205.071 9.15819 205.505 9.66641C206.918 11.2899 209.403 13.9297 210.524 13.7748C211.296 13.7219 212.049 13.5109 212.737 13.1551L212.972 14.159Z" fill="#263238"/>
<path d="M206.533 5.49607C207.563 5.67681 208.546 6.06021 209.425 6.624C210.305 7.18779 211.064 7.92074 211.658 8.78028C211.985 9.22904 212.216 9.73961 212.339 10.2808C212.461 10.8221 212.472 11.3826 212.371 11.9282C212.252 12.4709 211.946 12.9546 211.506 13.2945C211.067 13.6343 210.522 13.8087 209.966 13.7872H209.886C208.293 13.4835 207.525 12.8143 206.453 11.5936C205.554 10.5711 204.947 9.31939 204.042 8.29695C203.067 7.21074 201.79 6.44045 200.374 6.08475C202.339 5.34757 204.464 5.14444 206.533 5.49607Z" fill="#263238"/>
<path d="M200.993 5.8183C200.993 5.8183 201.167 5.8183 201.477 5.87407C201.914 5.94845 202.334 6.10173 202.716 6.32642C203.281 6.65688 203.775 7.09475 204.172 7.61532C204.659 8.25768 205.088 8.94199 205.455 9.66021C205.827 10.384 206.252 11.0799 206.725 11.7423C207.121 12.285 207.612 12.7512 208.175 13.1179C208.553 13.3622 208.974 13.5344 209.414 13.626C209.533 13.6516 209.653 13.6661 209.774 13.6694C209.861 13.6694 209.904 13.6694 209.904 13.6694C209.308 13.5866 208.737 13.3751 208.231 13.0498C207.691 12.6783 207.221 12.2148 206.843 11.6803C206.383 11.0193 205.969 10.3278 205.603 9.61064C205.236 8.88184 204.798 8.19073 204.296 7.54716C203.881 7.01843 203.365 6.57808 202.778 6.25206C202.38 6.0304 201.942 5.89129 201.489 5.84309C201.367 5.83165 201.245 5.83165 201.123 5.84309L200.993 5.8183Z" fill="#455A64"/>
<path d="M202.896 5.54566C203.443 5.62386 203.967 5.81144 204.439 6.09716C204.943 6.41669 205.388 6.82137 205.753 7.29311C206.195 7.87006 206.574 8.49338 206.881 9.1521C207.222 9.85232 207.501 10.5463 207.841 11.1474C208.122 11.689 208.459 12.1999 208.845 12.6718C209.107 12.9901 209.409 13.2733 209.744 13.5145C209.834 13.5795 209.93 13.6375 210.029 13.688C210.091 13.7252 210.128 13.7438 210.134 13.7376C209.688 13.4104 209.286 13.0272 208.938 12.5974C208.572 12.1236 208.252 11.6151 207.984 11.0792C207.668 10.4596 207.364 9.78416 207.03 9.07774C206.723 8.39784 206.336 7.75709 205.877 7.16918C205.494 6.68921 205.028 6.28201 204.501 5.96703C204.146 5.75717 203.755 5.61239 203.349 5.53947C203.238 5.52719 203.125 5.52719 203.014 5.53947C202.934 5.53327 202.896 5.53947 202.896 5.54566Z" fill="#455A64"/>
<path d="M197.375 7.71448C197.331 7.79984 197.302 7.89202 197.288 7.98713C197.224 8.23314 197.178 8.48383 197.152 8.73692C196.964 10.4235 197.338 12.1251 198.218 13.5765C198.347 13.7948 198.494 14.002 198.658 14.1961C198.769 14.3387 198.838 14.413 198.85 14.4068C198.862 14.4006 198.633 14.0722 198.323 13.5083C197.515 12.0454 197.151 10.3787 197.276 8.71213C197.319 8.08008 197.406 7.71448 197.375 7.71448Z" fill="#455A64"/>
<path d="M195.739 9.67261C195.683 9.7421 195.641 9.82215 195.615 9.90808C195.534 10.1338 195.481 10.3692 195.46 10.6083C195.407 11.4062 195.586 12.2025 195.975 12.9011C196.363 13.5846 196.845 14.2104 197.406 14.76C197.619 15.0041 197.858 15.2243 198.119 15.4169C197.932 15.1554 197.725 14.9088 197.499 14.6795C196.975 14.1129 196.515 13.4894 196.13 12.8205C195.758 12.148 195.57 11.3892 195.584 10.6207C195.613 10.3014 195.665 9.98452 195.739 9.67261Z" fill="#455A64"/>
<path d="M210.785 8.70593C210.814 8.97176 210.863 9.2349 210.934 9.4929C211.07 10.1152 211.122 10.7529 211.088 11.3891C211.045 12.0209 210.83 12.629 210.469 13.1489C210.3 13.351 210.12 13.5434 209.93 13.7252C209.999 13.7037 210.064 13.6701 210.122 13.6261C210.286 13.5123 210.434 13.3768 210.562 13.2233C210.956 12.7052 211.189 12.0822 211.231 11.4324C211.273 10.7786 211.201 10.1225 211.02 9.4929C210.983 9.21999 210.904 8.95451 210.785 8.70593Z" fill="#455A64"/>
<path d="M212.11 11.4324C211.942 11.9692 211.67 12.468 211.311 12.9011C210.912 13.3003 210.441 13.62 209.923 13.8429C210.095 13.8451 210.266 13.8047 210.419 13.7252C210.806 13.5698 211.154 13.3282 211.435 13.0188C211.718 12.7091 211.929 12.341 212.054 11.9406C212.115 11.7785 212.134 11.6038 212.11 11.4324Z" fill="#455A64"/>
<path d="M189.828 19.2464C189.865 19.2464 189.753 19.4819 189.685 19.8289C189.642 20.0225 189.663 20.2252 189.747 20.4052C189.807 20.5032 189.889 20.5853 189.987 20.6447C190.086 20.704 190.197 20.7387 190.311 20.746C190.427 20.7502 190.543 20.7291 190.65 20.6841C190.757 20.6392 190.853 20.5715 190.931 20.4857C191.074 20.3455 191.17 20.1632 191.203 19.9652C191.272 19.6182 191.203 19.3827 191.234 19.3455C191.265 19.3084 191.408 19.55 191.383 19.9652C191.367 20.2101 191.271 20.443 191.11 20.6282C191.008 20.7451 190.881 20.8376 190.739 20.8987C190.596 20.9599 190.441 20.9882 190.286 20.9815C190.128 20.9724 189.975 20.9218 189.842 20.8348C189.709 20.7478 189.602 20.6274 189.53 20.4857C189.432 20.2582 189.42 20.0021 189.499 19.7669C189.629 19.4075 189.809 19.234 189.828 19.2464Z" fill="#263238"/>
<path d="M189.275 17.8026C189.275 17.8398 189.133 17.8893 189.059 18.0938C189.015 18.2033 189.015 18.3251 189.059 18.4346C189.091 18.4959 189.136 18.549 189.192 18.5898C189.248 18.6307 189.313 18.6581 189.381 18.6701C189.514 18.6905 189.65 18.6671 189.768 18.6034C189.887 18.5397 189.981 18.4391 190.038 18.3169C190.137 18.1124 190.137 17.9575 190.174 17.9513C190.211 17.9451 190.286 18.1124 190.211 18.3851C190.162 18.5467 190.065 18.6895 189.932 18.794C189.846 18.8612 189.745 18.9078 189.637 18.9303C189.53 18.9529 189.419 18.9508 189.313 18.9242C189.215 18.9073 189.122 18.8671 189.043 18.8069C188.963 18.7467 188.9 18.6683 188.857 18.5784C188.815 18.4884 188.795 18.3895 188.798 18.2901C188.802 18.1906 188.83 18.0936 188.879 18.0071C189.059 17.7468 189.288 17.7654 189.275 17.8026Z" fill="#263238"/>
<path d="M190.274 15.6214C190.274 15.6586 190.119 15.6214 189.914 15.6833C189.791 15.7199 189.683 15.7973 189.609 15.903C189.535 16.0086 189.499 16.1363 189.507 16.2651C189.515 16.3939 189.566 16.5162 189.652 16.612C189.739 16.7078 189.855 16.7714 189.982 16.7925C190.187 16.8359 190.329 16.7925 190.342 16.7925C190.354 16.7925 190.237 16.9536 189.964 16.9536C189.801 16.953 189.643 16.8961 189.518 16.7925C189.439 16.7269 189.375 16.6456 189.329 16.5539C189.283 16.4622 189.257 16.362 189.251 16.2596C189.237 16.0759 189.293 15.8936 189.408 15.7498C189.523 15.6059 189.689 15.5112 189.871 15.485C190.162 15.4727 190.292 15.5966 190.274 15.6214Z" fill="#263238"/>
<path d="M200.51 24.4764C200.616 24.5383 200.194 25.2199 200.473 26.0689C200.752 26.9178 201.533 27.3082 201.477 27.395C201.421 27.4817 201.229 27.395 200.919 27.2462C200.522 26.9978 200.224 26.6187 200.077 26.1742C199.932 25.7451 199.958 25.2766 200.151 24.8667C200.287 24.5693 200.467 24.4454 200.51 24.4764Z" fill="#263238"/>
<path d="M164.043 141.562L160.238 151.873C160.238 151.873 171.157 157.338 171.051 159.457L149.06 157.053L154.221 139.975L164.043 141.562Z" fill="#455A64"/>
<path d="M153.546 150.181C153.327 150.224 153.132 150.346 152.996 150.522C152.861 150.699 152.794 150.919 152.809 151.142C152.842 151.361 152.959 151.559 153.134 151.695C153.309 151.831 153.53 151.894 153.751 151.873C153.982 151.829 154.19 151.701 154.333 151.513C154.476 151.326 154.545 151.092 154.525 150.857C154.466 150.631 154.323 150.436 154.124 150.314C153.926 150.192 153.687 150.151 153.459 150.2" fill="white"/>
<path d="M149.06 157.053L149.586 155.312L170.333 158.249C170.333 158.249 171.262 158.782 171.076 159.488L149.06 157.053Z" fill="white"/>
<path d="M160.257 152.015C160.257 152.121 159.699 152.114 159.129 152.399C158.559 152.685 158.237 153.106 158.138 153.056C158.039 153.007 158.274 152.399 158.968 152.059C159.662 151.718 160.288 151.916 160.257 152.015Z" fill="#263238"/>
<path d="M162.606 153.279C162.606 153.391 162.135 153.521 161.72 153.936C161.305 154.351 161.15 154.816 161.038 154.804C160.927 154.791 160.933 154.184 161.46 153.664C161.986 153.143 162.612 153.18 162.606 153.279Z" fill="#263238"/>
<path d="M163.628 156.192C163.529 156.192 163.436 155.653 163.777 155.095C164.118 154.537 164.645 154.358 164.682 154.475C164.719 154.593 164.372 154.853 164.099 155.312C163.827 155.77 163.734 156.192 163.628 156.192Z" fill="#263238"/>
<path d="M161.1 149.71C161.038 149.803 160.58 149.555 159.972 149.475C159.365 149.394 158.863 149.475 158.826 149.382C158.789 149.289 159.316 148.998 160.028 149.103C160.741 149.208 161.168 149.617 161.1 149.71Z" fill="#263238"/>
<path d="M94.9196 119.917L83.5798 122.073C83.5798 122.073 83.871 134.281 81.9563 135.179L73.7705 114.625L91.2574 111.155L94.9196 119.917Z" fill="#455A64"/>
<path d="M81.9386 115.368C81.8002 115.194 81.6023 115.077 81.3828 115.039C81.1633 115.001 80.9375 115.046 80.7488 115.164C80.569 115.296 80.4473 115.492 80.4092 115.711C80.3711 115.931 80.4195 116.157 80.5443 116.341C80.6904 116.521 80.897 116.641 81.1253 116.678C81.3535 116.716 81.5877 116.669 81.7837 116.546C81.954 116.389 82.0575 116.173 82.0725 115.942C82.0875 115.711 82.0129 115.484 81.8642 115.307" fill="white"/>
<path d="M73.7705 114.625L75.5242 114.296L82.6503 133.977C82.6503 133.977 82.6131 135.055 81.9315 135.216L73.7705 114.625Z" fill="white"/>
<path d="M83.4692 122.154C83.3638 122.191 83.1221 121.708 82.6016 121.342C82.0811 120.976 81.5544 120.877 81.5606 120.772C81.5668 120.667 82.1803 120.58 82.7999 121.032C83.4196 121.485 83.5807 122.135 83.4692 122.154Z" fill="#263238"/>
<path d="M83.4507 124.831C83.364 124.893 83.0169 124.521 82.4593 124.354C81.9016 124.186 81.412 124.261 81.3748 124.161C81.3377 124.062 81.883 123.765 82.577 123.994C83.271 124.223 83.5437 124.781 83.4507 124.831Z" fill="#263238"/>
<path d="M81.3622 127.092C81.3002 127.006 81.7464 126.671 82.4032 126.708C83.0601 126.745 83.4566 127.13 83.3885 127.204C83.3203 127.278 82.9175 127.105 82.3784 127.08C81.8393 127.055 81.4118 127.185 81.3622 127.092Z" fill="#263238"/>
<path d="M85.8978 121.819C85.7863 121.819 85.7925 121.286 85.5818 120.71C85.3711 120.134 85.0489 119.737 85.1232 119.657C85.1976 119.576 85.6933 119.904 85.935 120.586C86.1766 121.268 85.9908 121.844 85.8978 121.819Z" fill="#263238"/>
<path d="M144.133 51.8778C144.133 51.8778 136.697 55.5586 133.066 61.2719C129.435 66.9852 119.111 95.0249 119.111 95.0249C119.111 95.0249 114.86 97.7019 114.203 99.691C113.547 101.68 85.166 110.938 85.166 110.938L87.9483 122.216C87.9483 122.216 122.278 114.78 124.564 112.685C126.851 110.591 147.3 86.4984 147.3 86.4984L162.407 112.524C162.407 112.524 157.158 123.734 155.888 127.811C154.618 131.889 149.915 145.695 149.915 145.695L162.277 146.568C162.277 146.568 173.586 122.154 176.442 117.444C179.299 112.735 178.921 109.699 177.886 106.941C176.851 104.184 162.742 70.0216 162.742 70.0216L167.984 65.2811L150.41 47.9926L144.133 51.8778Z" fill="#263238"/>
<path d="M121.082 106.805C120.882 106.38 120.735 105.933 120.643 105.472C120.372 104.378 120.195 103.263 120.116 102.139C119.991 100.649 120.058 99.1497 120.314 97.6771H120.407C120.357 97.8754 120.326 97.9683 120.308 97.9683C120.289 97.9683 120.308 97.863 120.308 97.6585H120.407C120.31 99.1338 120.31 100.614 120.407 102.089C120.488 103.2 120.637 104.305 120.853 105.398C120.966 105.86 121.042 106.331 121.082 106.805Z" fill="#455A64"/>
<path d="M120.617 106.402C119.861 105.521 119.235 104.536 118.758 103.477C118.186 102.458 117.768 101.36 117.519 100.218C117.599 100.187 118.138 101.643 119 103.347C119.861 105.051 120.691 106.352 120.617 106.402Z" fill="#455A64"/>
<path d="M170.469 112.177C169.458 111.911 168.417 111.778 167.371 111.781C166.341 111.879 165.329 112.113 164.359 112.475C164.589 112.259 164.861 112.095 165.159 111.991C165.858 111.7 166.602 111.531 167.359 111.489C168.116 111.453 168.873 111.552 169.596 111.781C169.912 111.848 170.21 111.984 170.469 112.177Z" fill="#455A64"/>
<path d="M168.517 113.218C168.48 113.299 167.458 112.853 166.119 112.716C164.781 112.58 163.684 112.791 163.641 112.716C164.439 112.448 165.285 112.355 166.123 112.443C166.96 112.532 167.769 112.801 168.493 113.231L168.517 113.218Z" fill="#455A64"/>
<path d="M153.169 79.2235C152.914 79.6967 152.615 80.1448 152.277 80.562C151.694 81.3614 150.851 82.421 149.878 83.6046C148.906 84.7881 147.982 85.7858 147.301 86.4984C146.95 86.9072 146.559 87.2808 146.136 87.6138C146.436 87.1721 146.774 86.7575 147.146 86.3745L149.624 83.4311L152.103 80.4443C152.424 80.0088 152.781 79.6005 153.169 79.2235Z" fill="#455A64"/>
<path d="M120.804 98.2162C120.851 98.0778 120.909 97.9431 120.977 97.8134C121.089 97.5532 121.287 97.1937 121.504 96.6732C121.962 95.6818 122.582 94.2318 123.276 92.41C123.97 90.5881 124.726 88.3945 125.519 85.9407C126.313 83.4868 127.155 80.7789 128.141 77.9656C129.057 75.3131 130.137 72.72 131.375 70.2012C132.389 68.1432 133.583 66.1794 134.944 64.333C135.86 63.0874 136.877 61.9205 137.987 60.8443C138.371 60.454 138.706 60.1937 138.923 60.0016C139.03 59.901 139.144 59.8079 139.263 59.7227C139.173 59.8396 139.071 59.9474 138.96 60.045C138.762 60.2495 138.439 60.5283 138.068 60.9249C136.994 62.0272 136.004 63.2079 135.106 64.457C133.78 66.3092 132.613 68.2702 131.617 70.319C130.397 72.8333 129.327 75.4177 128.413 78.0586C127.428 80.8656 126.554 83.5736 125.773 86.0212C124.993 88.4689 124.193 90.6687 123.468 92.4843C122.743 94.2999 122.099 95.7437 121.609 96.7228C121.374 97.2185 121.163 97.5841 121.027 97.8382C120.967 97.9723 120.892 98.0992 120.804 98.2162Z" fill="#455A64"/>
<path d="M119.521 98.997C119.521 99.0837 118.988 99.2386 118.412 99.6166C117.835 99.9946 117.47 100.441 117.401 100.391C117.333 100.342 117.618 99.7716 118.25 99.375C118.427 99.2315 118.63 99.1243 118.848 99.0594C119.066 98.9945 119.295 98.9733 119.521 98.997Z" fill="#455A64"/>
<path d="M116.967 101.284C116.883 101.353 116.789 101.409 116.689 101.451L115.858 101.866C115.139 102.225 114.08 102.721 112.76 103.31C110.133 104.5 106.458 106.03 102.319 107.511C98.1793 108.992 94.356 110.132 91.5737 110.882C90.1856 111.254 89.0579 111.545 88.2709 111.725L87.3662 111.923C87.2605 111.951 87.1527 111.969 87.0439 111.979C87.1418 111.928 87.246 111.891 87.3538 111.867L88.2399 111.613L91.5241 110.684C94.2878 109.891 98.0863 108.713 102.219 107.238C106.353 105.764 110.033 104.258 112.673 103.124L115.772 101.761L116.627 101.395C116.736 101.345 116.85 101.308 116.967 101.284Z" fill="#455A64"/>
<path d="M143.688 65.6591C143.453 65.9815 143.153 66.2515 142.808 66.4523C141.999 66.9871 141.076 67.3246 140.112 67.4376C139.149 67.5559 138.17 67.4477 137.256 67.1215C136.888 67.012 136.546 66.8286 136.252 66.5824C136.252 66.539 136.673 66.7559 137.361 66.9542C138.252 67.22 139.187 67.3021 140.111 67.1956C141.034 67.0891 141.927 66.7962 142.734 66.3346C143.04 66.0927 143.358 65.8672 143.688 65.6591Z" fill="#455A64"/>
<path d="M152.933 145.819C152.948 145.699 152.973 145.581 153.007 145.465C153.069 145.205 153.156 144.877 153.261 144.468C153.49 143.606 153.844 142.361 154.302 140.83C155.219 137.769 156.595 133.574 158.324 129.02C160.053 124.465 161.831 120.413 163.182 117.519C163.857 116.069 164.421 114.904 164.824 114.111C165.022 113.733 165.177 113.435 165.295 113.193C165.346 113.084 165.408 112.98 165.481 112.884C165.448 113.001 165.404 113.115 165.351 113.224L164.929 114.16C164.545 115.003 164.018 116.174 163.368 117.599C162.066 120.512 160.331 124.57 158.596 129.119C156.861 133.667 155.461 137.85 154.494 140.892C154.029 142.386 153.645 143.613 153.373 144.499C153.242 144.902 153.143 145.224 153.063 145.478C153.033 145.596 152.989 145.71 152.933 145.819Z" fill="#455A64"/>
<path d="M194.5 33.4243L187.832 26.9798C187.832 26.9798 181.394 26.8806 177.918 27.9836C174.442 29.0866 138.588 54.6291 138.588 54.6291C143.384 56.5439 147.598 60.8258 151.564 66.0867C154.91 70.0587 156.038 75.9579 160.908 77.7549C161.943 78.1329 165.636 77.0423 165.636 77.0423L166.485 73.2004L195.653 45.3652C195.653 45.3652 196.979 37.3653 194.5 33.4243Z" fill="#2B5AAC"/>
<g opacity="0.3">
<path d="M173.251 54.3007C169.452 54.4341 165.725 53.2351 162.717 50.9112C167.222 48.5688 171.126 45.2474 174.992 41.9508C177.917 39.4722 182.757 35.3266 186.623 32.7055C178.735 33.6845 167.463 37.3344 160.598 41.3808C154.698 44.8756 149.289 49.4797 142.689 51.3573L141.704 51.2954C141.809 53.2287 143.352 54.8708 145.156 55.5834C147.003 56.2046 148.979 56.3412 150.894 55.98C152.797 55.6208 154.719 55.3684 156.65 55.224C159.6 55.1558 162.469 56.042 165.369 56.5501C168.269 57.0582 171.436 57.1326 173.964 55.6206C174.218 55.4657 174.484 55.2612 174.503 54.9638C174.559 54.4246 173.796 54.2759 173.251 54.3007Z" fill="black"/>
</g>
<path d="M188.303 50.2977C177.249 52.5007 165.834 52.104 154.959 49.1389L155.25 53.0118C160.877 54.3255 166.553 55.6392 172.328 55.8685C178.103 56.0977 184.065 55.1558 189.059 52.231C188.768 51.5866 188.52 50.9421 188.303 50.2977Z" fill="#455A64"/>
<g opacity="0.3">
<path d="M183.228 54.3503C183.017 49.1826 183.162 44.0065 183.662 38.8587L183.779 38.3382C182.639 39.5775 182.298 41.3002 182.081 42.9547C181.411 47.9945 181.432 53.1022 182.143 58.1364L183.383 57.3061C183.395 57.0768 183.253 55.3851 183.228 54.3503Z" fill="black"/>
</g>
<path d="M192.957 30.9022C190.014 28.4236 184.412 29.7063 180.83 31.1501L178.19 36.6279C181.716 35.5249 187.684 31.7202 191.073 33.195C194.463 34.6698 195.659 37.7557 196.458 41.3745C196.86 39.4754 196.747 37.5033 196.132 35.6623C195.516 33.8212 194.42 32.1779 192.957 30.9022Z" fill="#263238"/>
<path d="M180.929 22.2703C177.83 20.0829 173.877 20.3432 170.202 20.7398C163.082 21.5082 158.323 24.9411 150.993 27.4321C146.429 28.9245 142.617 32.1181 140.347 36.3491C137.596 41.6534 137.98 46.5549 141.543 51.3883L142.782 52.578C144.049 53.8135 145.649 54.6531 147.385 54.9942C149.122 55.3354 150.92 55.1633 152.561 54.499C162.01 50.6261 167.99 44.3861 177.657 38.3878C180.483 36.6341 183.364 34.6698 184.194 31.1191C184.584 29.4865 184.482 27.775 183.901 26.2003C183.32 24.6256 182.286 23.2582 180.929 22.2703Z" fill="#455A64"/>
<path d="M183.5 25.5793C183.498 25.7542 183.48 25.9285 183.445 26.0999C183.34 26.5895 183.18 27.0655 182.967 27.5189C182.107 29.1565 180.889 30.5797 179.404 31.683C174.67 35.4357 169.723 38.9116 164.588 42.0934C161.589 43.9523 158.658 45.6378 155.963 47.094C154.612 47.8252 153.323 48.4945 152.102 49.1141C150.981 49.7047 149.826 50.2302 148.644 50.6881C146.927 51.3943 145.044 51.5964 143.216 51.2706C142.726 51.1652 142.25 51.003 141.797 50.7872C141.679 50.7313 141.565 50.6671 141.456 50.5951C141.416 50.5759 141.378 50.5509 141.345 50.5208C141.95 50.8015 142.587 51.0095 143.241 51.1404C145.043 51.4137 146.887 51.1798 148.564 50.465C149.733 49.9967 150.875 49.4629 151.984 48.8663C153.193 48.2466 154.463 47.565 155.82 46.8276C158.503 45.359 161.397 43.6797 164.421 41.8083C169.553 38.6306 174.517 35.1889 179.293 31.4971C180.767 30.4269 181.993 29.0509 182.887 27.4631C183.168 26.8626 183.374 26.23 183.5 25.5793Z" fill="#263238"/>
<path d="M163.355 42.3722C163.281 42.4156 160.988 38.9517 158.243 34.6326C155.498 30.3136 153.323 26.7629 153.397 26.7133C153.472 26.6638 155.764 30.1339 158.516 34.4591C161.267 38.7844 163.43 42.3226 163.355 42.3722Z" fill="#263238"/>
<path d="M160.945 38.5675C160.717 38.6808 160.523 38.8517 160.381 39.0632C160.241 39.3218 160.085 39.5721 159.916 39.813C159.79 39.9725 159.62 40.0911 159.427 40.1538C159.313 40.1845 159.192 40.1871 159.077 40.1612C158.961 40.1352 158.854 40.0817 158.764 40.0051C158.662 39.9202 158.591 39.8052 158.559 39.6767C158.549 39.6093 158.553 39.5405 158.57 39.4745C158.587 39.4085 158.617 39.3466 158.658 39.2925C158.799 39.1418 158.983 39.0398 159.185 39.0012L160.028 38.772C160.511 38.648 160.815 38.5923 160.827 38.6356C160.84 38.679 160.561 38.8091 160.096 38.9888L159.272 39.2863C158.95 39.373 158.739 39.5713 158.968 39.7572C159.019 39.7994 159.079 39.8296 159.144 39.8457C159.208 39.8617 159.275 39.8633 159.34 39.8502C159.477 39.8097 159.599 39.7274 159.687 39.6147C159.892 39.3978 160.028 39.1252 160.201 38.9269C160.33 38.7563 160.507 38.6288 160.71 38.5613C160.858 38.5179 160.945 38.5489 160.945 38.5675Z" fill="#263238"/>
<path d="M174.001 164.272C174.001 165.125 173.748 165.958 173.274 166.667C172.8 167.375 172.126 167.927 171.338 168.253C170.55 168.578 169.683 168.662 168.847 168.495C168.011 168.327 167.244 167.915 166.643 167.311C166.041 166.707 165.632 165.938 165.468 165.101C165.304 164.264 165.392 163.398 165.721 162.611C166.05 161.825 166.605 161.153 167.315 160.682C168.026 160.211 168.86 159.962 169.713 159.966C170.852 159.97 171.943 160.426 172.746 161.233C173.55 162.041 174.001 163.133 174.001 164.272Z" fill="#263238"/>
<path d="M173.574 164.272C173.543 164.272 173.574 163.925 173.394 163.343C173.166 162.515 172.669 161.787 171.981 161.273C171.51 160.924 170.965 160.689 170.389 160.585C169.692 160.458 168.974 160.529 168.317 160.791C167.659 161.053 167.089 161.495 166.671 162.066C166.2 162.705 165.945 163.478 165.945 164.272C165.945 165.066 166.2 165.839 166.671 166.478C167.104 167.079 167.709 167.534 168.406 167.786C169.033 168.019 169.711 168.079 170.37 167.959C170.947 167.856 171.492 167.62 171.962 167.271C172.65 166.758 173.148 166.029 173.375 165.202C173.536 164.619 173.524 164.272 173.555 164.272C173.564 164.355 173.564 164.438 173.555 164.52C173.558 164.76 173.531 164.999 173.474 165.233C173.279 166.107 172.783 166.885 172.074 167.432C171.585 167.816 171.011 168.078 170.401 168.195C169.822 168.308 169.225 168.292 168.653 168.147C168.081 168.002 167.549 167.733 167.093 167.358C166.638 166.983 166.271 166.512 166.019 165.978C165.767 165.445 165.637 164.862 165.637 164.272C165.637 163.682 165.767 163.1 166.019 162.566C166.271 162.033 166.638 161.562 167.093 161.187C167.549 160.812 168.081 160.542 168.653 160.397C169.225 160.253 169.822 160.236 170.401 160.35C171.011 160.467 171.585 160.728 172.074 161.112C172.783 161.659 173.279 162.437 173.474 163.312C173.531 163.545 173.558 163.784 173.555 164.024C173.57 164.106 173.577 164.189 173.574 164.272Z" fill="#455A64"/>
<path d="M115.325 165.766C115.325 166.618 115.072 167.451 114.599 168.159C114.125 168.867 113.453 169.419 112.665 169.745C111.878 170.071 111.012 170.156 110.176 169.989C109.341 169.822 108.573 169.412 107.971 168.809C107.369 168.206 106.959 167.438 106.794 166.602C106.628 165.766 106.715 164.9 107.042 164.113C107.368 163.326 107.921 162.654 108.63 162.182C109.339 161.709 110.173 161.458 111.025 161.459C112.166 161.461 113.26 161.915 114.066 162.723C114.872 163.53 115.325 164.624 115.325 165.766Z" fill="#263238"/>
<path d="M114.898 165.766C114.898 165.766 114.898 165.419 114.724 164.83C114.491 164.005 113.992 163.28 113.305 162.766C112.802 162.391 112.213 162.148 111.592 162.058C110.971 161.968 110.337 162.035 109.748 162.252C109.053 162.504 108.451 162.959 108.02 163.56C107.548 164.199 107.294 164.972 107.294 165.766C107.294 166.559 107.548 167.333 108.02 167.972C108.314 168.375 108.685 168.715 109.112 168.974C109.538 169.232 110.012 169.403 110.506 169.477C110.999 169.551 111.503 169.526 111.986 169.404C112.47 169.281 112.925 169.064 113.324 168.765C114.011 168.249 114.51 167.522 114.743 166.695C114.898 166.113 114.885 165.766 114.916 165.766C114.947 165.766 114.916 165.852 114.916 166.013C114.913 166.253 114.884 166.492 114.83 166.726C114.634 167.6 114.139 168.379 113.429 168.926C112.942 169.309 112.371 169.57 111.762 169.688C110.972 169.843 110.153 169.756 109.414 169.437C108.674 169.118 108.048 168.583 107.618 167.902C107.189 167.22 106.975 166.425 107.006 165.62C107.036 164.816 107.31 164.039 107.79 163.392C108.255 162.75 108.903 162.264 109.649 161.998C110.325 161.758 111.053 161.705 111.756 161.843C112.504 161.983 113.195 162.338 113.746 162.863C114.296 163.389 114.681 164.064 114.854 164.805C114.909 165.039 114.938 165.278 114.941 165.518C114.916 165.679 114.91 165.766 114.898 165.766Z" fill="#455A64"/>
<path d="M183.266 163.312C183.235 163.417 182.064 163.163 179.988 162.63L178.265 162.172L176.195 161.694C174.714 161.36 173.041 160.914 171.151 160.579L168.208 160.003C167.186 159.798 166.107 159.662 164.998 159.476C162.786 159.086 160.394 158.856 157.891 158.54C152.44 158.006 146.964 157.778 141.488 157.859C136.003 157.996 130.531 158.447 125.098 159.21C122.619 159.612 120.227 159.953 118.028 160.449C116.931 160.678 115.859 160.858 114.843 161.1L111.924 161.8C110.065 162.209 108.398 162.723 106.93 163.113L104.885 163.677L103.181 164.204C101.129 164.824 99.9707 165.121 99.9335 165.016C99.8964 164.91 100.975 164.396 102.976 163.609L104.643 162.946C105.263 162.717 105.938 162.5 106.663 162.252C108.119 161.775 109.761 161.18 111.62 160.697L114.539 159.885C115.555 159.612 116.633 159.395 117.743 159.135C119.949 158.596 122.347 158.2 124.863 157.753C135.827 155.98 146.987 155.753 158.015 157.078C160.549 157.419 162.972 157.698 165.184 158.175C166.299 158.385 167.384 158.559 168.412 158.794L171.362 159.482C173.221 159.891 174.919 160.424 176.394 160.839C177.125 161.056 177.813 161.248 178.439 161.459L180.13 162.079C182.2 162.754 183.303 163.206 183.266 163.312Z" fill="#2B5AAC"/>
<path d="M203.734 87.6075C203.845 87.9236 204.52 89.324 204.52 89.324L207.036 95.0683L207.284 103.087C207.129 103.16 206.959 103.196 206.787 103.192C206.615 103.189 206.447 103.145 206.295 103.065C206.143 102.985 206.012 102.871 205.911 102.732C205.811 102.593 205.744 102.432 205.716 102.263C205.499 101.007 205.373 99.7377 205.338 98.464L201.534 103.341C201.534 103.341 200.294 102.43 201.069 101.271L199.489 102.12C199.087 101.564 198.922 100.871 199.03 100.193C199.266 99.1828 201.992 96.289 201.992 96.289L197.233 96.0969C197.233 96.0969 196.415 95.4773 197.202 94.9629C198.378 94.449 199.595 94.0344 200.84 93.7236C200.346 93.604 199.884 93.3815 199.482 93.0708C199.081 92.76 198.749 92.368 198.51 91.9204C198.035 90.9036 197.84 89.7783 197.946 88.661L203.734 87.6075Z" fill="#FFBE9D"/>
<path d="M185.552 47.0631C185.552 47.0631 188.681 68.4476 188.712 69.848C188.836 71.3866 189.043 72.9173 189.332 74.4335C189.332 74.4335 189.239 74.2848 190.404 76.2925C191.569 78.3002 198.961 91.3689 198.961 91.3689L204.538 89.3116C204.538 89.3116 198.775 72.2771 198.267 69.6807C197.759 67.0844 198.658 54.1024 197.294 48.6804C195.931 43.2583 185.552 47.0631 185.552 47.0631Z" fill="#FFBE9D"/>
<path d="M188.26 33.0649C188.013 33.1286 187.776 33.2244 187.554 33.3499C186.469 33.9696 183.414 36.1694 183.216 42.8308C182.943 51.2024 183.383 57.2875 183.383 57.2875L198.875 56.0482C198.801 55.949 197.921 30.7102 188.26 33.0649Z" fill="#2B5AAC"/>
<path d="M198.869 56.0482C198.772 56.0778 198.672 56.0945 198.571 56.0977L197.71 56.1969L194.488 56.5005L183.383 57.4486H183.228V57.2875C183.123 55.5586 183.042 53.6934 183.005 51.7663C182.937 48.8539 182.962 46.0778 183.08 43.5558C183.197 41.0337 183.476 38.7286 184.319 36.9625C184.916 35.5492 185.933 34.3531 187.231 33.5358C187.587 33.3232 187.965 33.1507 188.359 33.0215C188.494 32.9782 188.633 32.9471 188.774 32.9285C188.26 33.1166 187.766 33.3553 187.3 33.6412C186.057 34.4796 185.091 35.6679 184.523 37.0555C183.755 38.7905 183.489 41.0585 183.402 43.5681C183.315 46.0778 183.284 48.8539 183.352 51.7601C183.389 53.681 183.464 55.54 183.569 57.2689L183.396 57.1264L194.5 56.296L197.735 56.0853L198.602 56.042C198.691 56.0341 198.78 56.0362 198.869 56.0482Z" fill="#263238"/>
<path d="M287.375 270.798C287.375 270.885 223.041 270.96 143.694 270.96C64.3458 270.96 0 270.885 0 270.798C0 270.712 64.321 270.637 143.694 270.637C223.066 270.637 287.375 270.705 287.375 270.798Z" fill="#263238"/>
</svg>
