<svg width="457" height="274" viewBox="0 0 457 274" fill="none" xmlns="http://www.w3.org/2000/svg">
<path d="M11.6436 222.085L65.8452 221.836L120.047 221.742L228.44 221.576L336.833 221.742L391.034 221.836L445.236 222.085L391.034 222.345L336.833 222.439L228.44 222.605L120.047 222.439L65.8452 222.345L11.6436 222.085Z" fill="#263238"/>
<path d="M228.439 274C354.603 274 456.878 261.196 456.878 245.402C456.878 229.608 354.603 216.804 228.439 216.804C102.276 216.804 0 229.608 0 245.402C0 261.196 102.276 274 228.439 274Z" fill="#EBEBEB"/>
<path d="M383.925 223.993H247.785C246.284 223.993 245.065 222.775 245.065 221.273V205.161C245.065 205.122 245.065 205.083 245.067 205.044C245.067 205.043 245.067 205.041 245.067 205.039V205.037C245.069 204.986 245.073 204.933 245.078 204.881C245.086 204.784 245.101 204.687 245.12 204.591L261.572 144.153L240.239 12.0138L233.123 9.53867C231.682 9.11765 230.857 7.6072 231.278 6.16432C231.701 4.72351 233.207 3.90332 234.652 4.31914L243.432 7.28079C244.447 7.5781 245.199 8.43675 245.356 9.48461L267.019 143.796C267.065 144.099 267.058 144.408 267.002 144.71L251.029 202.625L377.846 211.642C378.551 211.69 379.209 212.009 379.684 212.531L385.941 219.446C386.661 220.244 386.845 221.392 386.41 222.374C385.975 223.359 385 223.993 383.925 223.993ZM250.504 218.554H377.797L376.39 217L250.504 208.043V218.554Z" fill="#C7C7C7"/>
<path d="M433.776 54.9355H250.249C248.748 54.9355 247.529 53.7171 247.529 52.216C247.529 50.7149 248.748 49.4966 250.249 49.4966H433.776C435.277 49.4966 436.495 50.7149 436.495 52.216C436.495 53.7171 435.277 54.9355 433.776 54.9355Z" fill="#C7C7C7"/>
<path d="M264.331 145.109C263.851 145.109 263.452 144.734 263.427 144.251C263.401 143.752 263.783 143.325 264.284 143.299L402.148 135.923L429.291 51.9384C429.445 51.4623 429.955 51.2004 430.431 51.3542C430.91 51.5081 431.169 52.0185 431.016 52.4946L403.681 137.073C403.565 137.43 403.242 137.68 402.867 137.7L264.379 145.107C264.364 145.109 264.347 145.109 264.331 145.109Z" fill="#C7C7C7"/>
<path d="M405.188 130.124H261.809C261.308 130.124 260.902 129.719 260.902 129.218C260.902 128.717 261.308 128.311 261.809 128.311H405.188C405.689 128.311 406.094 128.717 406.094 129.218C406.094 129.719 405.689 130.124 405.188 130.124Z" fill="#C7C7C7"/>
<path d="M408.831 119.097H260.122C259.621 119.097 259.216 118.692 259.216 118.19C259.216 117.689 259.621 117.284 260.122 117.284H408.831C409.332 117.284 409.737 117.689 409.737 118.19C409.737 118.692 409.332 119.097 408.831 119.097Z" fill="#C7C7C7"/>
<path d="M412.206 108.071H258.433C257.932 108.071 257.526 107.665 257.526 107.164C257.526 106.663 257.932 106.258 258.433 106.258H412.206C412.707 106.258 413.112 106.663 413.112 107.164C413.112 107.665 412.707 108.071 412.206 108.071Z" fill="#C7C7C7"/>
<path d="M415.856 97.042H256.745C256.244 97.042 255.839 96.6366 255.839 96.1356C255.839 95.6345 256.244 95.2291 256.745 95.2291H415.856C416.358 95.2291 416.763 95.6345 416.763 96.1356C416.763 96.6366 416.358 97.042 415.856 97.042Z" fill="#C7C7C7"/>
<path d="M419.348 86.0156H255.058C254.557 86.0156 254.151 85.6102 254.151 85.1092C254.151 84.6081 254.557 84.2027 255.058 84.2027H419.348C419.849 84.2027 420.254 84.6081 420.254 85.1092C420.254 85.6102 419.849 86.0156 419.348 86.0156Z" fill="#C7C7C7"/>
<path d="M423.086 74.9872H253.369C252.868 74.9872 252.463 74.5817 252.463 74.0807C252.463 73.5796 252.868 73.1742 253.369 73.1742H423.086C423.587 73.1742 423.992 73.5796 423.992 74.0807C423.992 74.5828 423.587 74.9872 423.086 74.9872Z" fill="#C7C7C7"/>
<path d="M426.651 63.9607H251.682C251.181 63.9607 250.775 63.5553 250.775 63.0543C250.775 62.5532 251.181 62.1478 251.682 62.1478H426.651C427.152 62.1478 427.558 62.5532 427.558 63.0543C427.558 63.5553 427.152 63.9607 426.651 63.9607Z" fill="#C7C7C7"/>
<path d="M276.705 143.956C276.237 143.956 275.839 143.595 275.803 143.118L268.861 52.2846C268.824 51.7856 269.198 51.3501 269.697 51.3106C270.148 51.2607 270.63 51.6453 270.671 52.1464L277.613 142.979C277.649 143.478 277.276 143.914 276.777 143.953C276.753 143.956 276.73 143.956 276.705 143.956Z" fill="#C7C7C7"/>
<path d="M389.119 138.031C389.041 138.031 388.961 138.021 388.882 137.999C388.399 137.868 388.114 137.371 388.245 136.888L411.332 51.979C411.463 51.4977 411.957 51.2129 412.444 51.3418C412.928 51.4727 413.212 51.9707 413.081 52.453L389.994 137.362C389.883 137.765 389.518 138.031 389.119 138.031Z" fill="#C7C7C7"/>
<path d="M291.191 143.279C290.7 143.279 290.297 142.887 290.285 142.395L288.041 52.2389C288.029 51.7378 288.425 51.322 288.925 51.3095C288.934 51.3095 288.941 51.3095 288.948 51.3095C289.438 51.3095 289.842 51.7004 289.854 52.1931L292.098 142.349C292.11 142.85 291.714 143.266 291.214 143.279C291.206 143.279 291.198 143.279 291.191 143.279Z" fill="#C7C7C7"/>
<path d="M306.055 142.475C306.05 142.475 306.045 142.475 306.037 142.475C305.538 142.467 305.14 142.052 305.149 141.551L306.815 52.1983C306.823 51.7045 307.228 51.3095 307.721 51.3095C307.727 51.3095 307.732 51.3095 307.739 51.3095C308.238 51.3189 308.636 51.7326 308.628 52.2337L306.962 141.586C306.953 142.08 306.549 142.475 306.055 142.475Z" fill="#C7C7C7"/>
<path d="M373.297 138.741C373.234 138.741 373.175 138.736 373.113 138.724C372.622 138.623 372.307 138.142 372.406 137.653L389.949 52.0341C390.05 51.5413 390.535 51.2285 391.021 51.3272C391.512 51.428 391.827 51.9083 391.728 52.3979L374.183 138.017C374.095 138.445 373.718 138.741 373.297 138.741Z" fill="#C7C7C7"/>
<path d="M355.271 139.819C355.222 139.819 355.173 139.816 355.123 139.807C354.629 139.727 354.294 139.26 354.375 138.766L368.578 52.0694C368.66 51.5756 369.13 51.2336 369.619 51.322C370.113 51.402 370.448 51.8688 370.367 52.3626L356.164 139.059C356.091 139.504 355.707 139.819 355.271 139.819Z" fill="#C7C7C7"/>
<path d="M321.273 141.614C321.25 141.614 321.227 141.614 321.204 141.612C320.705 141.573 320.329 141.139 320.366 140.64L326.988 52.1484C327.026 51.6494 327.466 51.2721 327.96 51.3116C328.459 51.35 328.834 51.7846 328.797 52.2835L322.176 140.776C322.139 141.252 321.743 141.614 321.273 141.614Z" fill="#C7C7C7"/>
<path d="M339.098 140.458C339.065 140.458 339.031 140.456 338.996 140.453C338.498 140.398 338.14 139.948 338.195 139.451L347.906 52.1152C347.962 51.6193 348.395 51.2534 348.909 51.3147C349.407 51.3698 349.764 51.8189 349.709 52.3168L339.998 139.653C339.947 140.114 339.554 140.458 339.098 140.458Z" fill="#C7C7C7"/>
<path d="M265.422 238.154C271.032 238.154 275.58 233.605 275.58 227.995C275.58 222.385 271.032 217.837 265.422 217.837C259.812 217.837 255.264 222.385 255.264 227.995C255.264 233.605 259.812 238.154 265.422 238.154Z" fill="#263238"/>
<path d="M270.039 227.995C270.039 230.544 267.972 232.611 265.423 232.611C262.874 232.611 260.808 230.544 260.808 227.995C260.808 225.446 262.874 223.38 265.423 223.38C267.972 223.38 270.039 225.445 270.039 227.995Z" fill="#EBEBEB"/>
<path d="M356.306 238.154C361.916 238.154 366.464 233.605 366.464 227.995C366.464 222.385 361.916 217.837 356.306 217.837C350.696 217.837 346.147 222.385 346.147 227.995C346.147 233.605 350.696 238.154 356.306 238.154Z" fill="#263238"/>
<path d="M360.922 227.995C360.922 230.544 358.855 232.611 356.306 232.611C353.757 232.611 351.69 230.544 351.69 227.995C351.69 225.446 353.757 223.38 356.306 223.38C358.855 223.38 360.922 225.445 360.922 227.995Z" fill="#EBEBEB"/>
<path d="M240.661 9.42641L226.36 4" stroke="#FFC727" stroke-width="6.23725" stroke-miterlimit="10" stroke-linecap="round" stroke-linejoin="round"/>
<path d="M41.6239 251.941L194.197 252.596C231.288 223.489 235.114 180.337 208.657 154.183C192.648 138.371 172.273 141.563 152.948 139.047C146.109 138.322 139.456 136.368 133.311 133.277C113.373 122.768 102.125 97.933 85.3678 77.0798C83.2887 74.4705 81.0953 71.8821 78.7979 69.4704C65.0032 54.7401 37.5593 54.2619 23.1928 74.9695C-13.3367 127.57 3.37915 205.869 41.6239 251.941Z" fill="#C7C7C7"/>
<path d="M38.2037 131.573C42.2059 194.174 114.496 217.543 159.643 198.789C198.906 182.479 186.058 145.263 152.917 139.047C146.077 138.322 139.425 136.368 133.28 133.277C113.342 122.768 102.094 97.933 85.3364 77.0798C60.3251 64.0959 35.3033 85.7392 38.2037 131.573Z" fill="#DBDBDB"/>
<path d="M181.515 261.422C179.155 260.559 125.837 217.938 124.829 215.027C124.434 213.925 130.193 205.796 137.418 196.18C138.987 194.101 140.609 191.959 142.272 189.797C153.052 175.763 164.809 161.116 164.809 161.116L200.559 189.517L177.045 217.418L171.847 223.551C171.847 223.551 184.966 248.999 185.725 252.315C186.484 255.631 183.875 262.284 181.515 261.422Z" fill="#F7A9A0"/>
<path d="M181.515 261.422C179.155 260.559 125.837 217.938 124.829 215.027C124.361 213.686 132.948 201.97 142.272 189.797L177.045 217.418L171.847 223.551C171.847 223.551 184.966 248.999 185.725 252.315C186.484 255.631 183.875 262.284 181.515 261.422Z" fill="white"/>
<path d="M181.515 261.422C179.155 260.559 125.837 217.938 124.829 215.027C124.434 213.925 130.193 205.796 137.418 196.18L171.878 223.551C171.878 223.551 184.997 248.999 185.756 252.315C186.515 255.631 183.875 262.284 181.515 261.422Z" fill="#2B5AAC"/>
<path d="M182.46 258.688C173.697 251.328 137.656 222.449 128.404 215.838C128.321 215.838 128.29 215.838 128.352 215.9C136.877 223.385 173.156 251.962 182.304 258.833C182.533 258.968 182.637 258.833 182.46 258.688Z" fill="#263238"/>
<path d="M183.864 247.648C182.889 246.831 181.756 246.225 180.536 245.867C179.316 245.509 178.035 245.408 176.774 245.569C174.501 245.846 172.421 246.984 170.963 248.75C170.963 248.801 170.963 248.885 171.067 248.833C172.787 247.309 174.955 246.384 177.245 246.196C179.536 246.009 181.825 246.569 183.77 247.793C183.789 247.806 183.813 247.81 183.835 247.805C183.858 247.8 183.877 247.786 183.89 247.767C183.902 247.748 183.906 247.724 183.901 247.702C183.896 247.68 183.883 247.66 183.864 247.648Z" fill="#263238"/>
<path d="M174.633 227.21C171.098 224.299 165.942 222.252 161.378 223.395C161.202 223.447 161.274 223.697 161.378 223.728C165.843 224.582 170.203 225.913 174.383 227.699C174.445 227.715 174.511 227.71 174.569 227.684C174.628 227.658 174.676 227.612 174.705 227.555C174.734 227.498 174.743 227.433 174.73 227.37C174.716 227.307 174.682 227.251 174.633 227.21Z" fill="#263238"/>
<path d="M176.535 230.495C173.001 227.584 167.845 225.537 163.281 226.68C163.105 226.732 163.167 226.982 163.281 227.013C167.718 227.872 172.049 229.203 176.203 230.984C176.268 231.028 176.347 231.044 176.424 231.03C176.501 231.015 176.569 230.971 176.613 230.906C176.658 230.841 176.674 230.761 176.659 230.684C176.645 230.607 176.6 230.539 176.535 230.495Z" fill="#263238"/>
<path d="M178.438 233.739C174.903 230.828 169.747 228.78 165.184 229.923C165.007 229.975 165.069 230.225 165.184 230.256C169.62 231.116 173.952 232.447 178.105 234.227C178.17 234.271 178.25 234.288 178.327 234.273C178.404 234.259 178.472 234.214 178.516 234.149C178.56 234.084 178.576 234.005 178.562 233.928C178.547 233.851 178.503 233.783 178.438 233.739Z" fill="#263238"/>
<path d="M180.34 237.065C176.806 234.154 171.65 232.107 167.086 233.25C166.909 233.25 166.972 233.552 167.086 233.572C171.522 234.44 175.853 235.775 180.007 237.554C180.072 237.598 180.152 237.614 180.229 237.6C180.306 237.585 180.374 237.541 180.418 237.476C180.462 237.411 180.479 237.331 180.464 237.254C180.45 237.177 180.405 237.109 180.34 237.065Z" fill="#263238"/>
<path d="M137.49 209.164C133.467 205.962 128.498 212.21 132.521 215.401C136.544 218.592 141.524 212.366 137.49 209.164Z" fill="white"/>
<path d="M186.13 220.755C185.527 217.802 182.066 217.449 179.706 218.114C175.673 219.334 172.03 221.593 169.144 224.663C169.129 224.675 169.117 224.69 169.109 224.707C169.1 224.724 169.096 224.743 169.096 224.762C169.096 224.781 169.1 224.8 169.109 224.817C169.117 224.834 169.129 224.849 169.144 224.861C169.103 224.939 169.082 225.027 169.082 225.115C169.082 225.203 169.103 225.291 169.144 225.369C169.185 225.448 169.244 225.515 169.316 225.566C169.389 225.617 169.472 225.65 169.56 225.661C173.51 225.932 177.71 226.701 181.629 225.776C183.947 225.214 186.713 223.541 186.13 220.755ZM175.673 224.85C173.718 224.767 171.785 224.58 169.83 224.57C171.844 223.233 173.926 222.001 176.068 220.879C177.114 220.352 178.194 219.893 179.301 219.507C181.026 218.946 186.931 218.759 184.176 222.938C182.7 225.245 177.991 224.954 175.673 224.85Z" fill="#263238"/>
<path d="M159.196 218.894C161.93 221.857 165.849 223.541 169.29 225.505C169.369 225.544 169.457 225.564 169.546 225.561C169.634 225.559 169.721 225.536 169.798 225.493C169.876 225.45 169.942 225.389 169.991 225.315C170.04 225.241 170.07 225.157 170.08 225.069C170.153 225.069 170.225 225.069 170.215 224.934C169.506 220.769 167.713 216.865 165.017 213.613C163.427 211.742 160.36 210.12 158.208 212.23C156.056 214.341 157.595 217.158 159.196 218.894ZM158.666 215.131C158.666 210.12 163.5 213.561 164.622 214.985C165.329 215.918 165.971 216.897 166.545 217.917C167.695 220.046 168.736 222.231 169.664 224.466C168.032 223.426 166.327 222.47 164.653 221.451C162.699 220.225 158.645 217.886 158.666 215.131Z" fill="#263238"/>
<path d="M236.673 134.899C234.23 153.476 188.448 207.095 183.157 213.249L181.951 214.642L144.091 185.535L144.528 184.974L177.866 141.313L78.4023 140.731L116.169 111.374C116.169 111.374 119.236 113.141 125.598 112.216C147.553 109.004 197.045 101.883 208.761 102.351C223.761 102.975 238.918 117.851 236.673 134.899Z" fill="#37474F"/>
<path d="M189.841 125.096C188.603 126.492 187.453 127.964 186.4 129.504C185.226 131.042 184.03 132.622 182.845 134.119V134.171C183.053 133.714 183.261 133.267 183.479 132.81C184.217 131.271 184.81 129.691 185.694 128.215C185.745 128.121 185.61 128.038 185.558 128.132C184.654 129.587 183.604 130.98 182.835 132.518C182.471 133.236 182.128 133.974 181.795 134.712C181.619 135.117 181.431 135.533 181.275 135.949C181.203 136.136 181.12 136.334 181.057 136.542C180.537 137.259 180.018 137.976 179.508 138.714C178.386 140.336 177.429 142.061 176.254 143.673C176.192 143.756 176.338 143.839 176.4 143.756C177.544 142.238 178.833 140.824 180.007 139.317C181.182 137.81 182.325 136.198 183.438 134.618C184.55 133.038 185.59 131.5 186.681 129.961C187.871 128.434 188.965 126.833 189.956 125.169C189.965 125.154 189.968 125.135 189.965 125.118C189.961 125.1 189.95 125.085 189.935 125.075C189.92 125.066 189.901 125.063 189.884 125.066C189.866 125.07 189.851 125.081 189.841 125.096Z" fill="#263238"/>
<path d="M83.9439 31.7869C76.0537 38.0241 68.2468 78.5662 65.2321 83.0778C63.0803 86.2484 60.3775 89.419 60.5022 91.2071C60.627 92.9951 68.1948 101.79 82.5093 104.555C96.8238 107.32 110.93 100.49 112.365 98.6917C113.799 96.8933 110.026 90.7185 110.171 85.1777C110.317 79.6369 115.265 49.22 112.251 40.1552C108.768 29.8741 92.9983 24.6764 83.9439 31.7869Z" fill="#263238"/>
<path d="M113.352 96.9661C111.791 93.3443 111.056 89.4204 111.2 85.4792C111.283 81.0403 111.844 76.6015 112.333 72.1938C112.853 67.5436 113.369 62.8934 113.882 58.2432C114.329 54.137 114.922 49.9892 114.152 45.8934C113.445 41.9197 111.698 38.204 109.09 35.1238C109.09 35.1238 108.975 35.1238 109.017 35.1758C111.434 38.3282 113.05 42.0203 113.726 45.935C114.464 50.3219 113.726 54.8023 113.258 59.1996C112.738 63.7632 112.219 68.3163 111.73 72.8799C111.273 77.0381 110.753 81.3002 110.691 85.5208C110.691 89.4086 111.034 93.7331 113.102 97.0805C113.196 97.2052 113.414 97.1012 113.352 96.9661Z" fill="#263238"/>
<path d="M85.2008 31.5166C81.5416 33.5022 79.7536 37.4316 78.2878 41.2052C76.3127 46.3301 74.4935 51.5278 72.7887 56.7983C71.0215 62.1935 69.5661 67.6823 67.8301 73.0879C66.0781 78.3369 63.5708 83.3026 60.3869 87.8286C60.3142 87.9326 60.387 88.0573 60.5325 87.9637C67.3415 79.9904 69.4414 69.252 72.56 59.4595C74.2856 54.0539 76.1048 48.6829 78.0176 43.3466C79.5665 39.0221 81.1362 34.1259 85.2944 31.6414C85.3151 31.5686 85.2528 31.4855 85.2008 31.5166Z" fill="#263238"/>
<path d="M88.5385 30.0405C80.8875 33.0343 77.8624 41.6001 75.3987 48.9081C72.4672 57.5883 70.3569 66.5284 67.7685 75.3125C66.3235 80.2711 65.0137 85.6559 61.7911 89.7725C61.6975 89.8972 61.8743 90.0532 61.9782 89.9388C64.4523 86.9865 65.7206 83.3169 66.8952 79.6889C68.2986 75.3333 69.5253 70.9256 70.7311 66.518C73.1429 57.7858 75.3467 48.773 79.1098 40.5294C81.0954 36.1841 84.0581 31.9428 88.5697 30.134C88.6216 30.1028 88.5905 29.9885 88.5385 30.0405Z" fill="#263238"/>
<path d="M90.8452 84.9802C97.5918 94.6583 120.701 119.774 136.679 123.443C145.494 125.45 188.042 131.396 193.853 126.094C200.683 119.857 197.513 96.4464 192.086 96.2385C175.453 95.5836 144.839 98.8269 137.178 97.1429C133.716 96.3736 115.347 84.5228 95.7206 75.0422C88.3295 71.4454 86.4999 78.7326 90.8452 84.9802Z" fill="#F7A9A0"/>
<path d="M183.083 94.9286L180.235 130.003C180.235 130.003 141.627 129.389 129.973 122.84C118.32 116.291 99.3484 99.5754 92.0924 87.9533C84.8364 76.3313 87.2585 70.0004 101.448 77.1525C115.638 84.3045 134.714 95.7603 137.25 96.3632C139.787 96.9661 183.083 94.9286 183.083 94.9286Z" fill="#2B5AAC"/>
<path d="M176.878 97.3716C176.878 97.278 176.733 97.2364 176.712 97.3716C176.244 99.7833 176.036 102.257 175.766 104.648C175.496 107.039 175.246 109.7 175.018 112.227C174.56 117.268 173.978 122.341 173.874 127.394C173.874 127.612 174.165 127.612 174.196 127.394C174.955 122.435 175.35 117.383 175.828 112.383C176.057 109.898 176.286 107.424 176.462 104.939C176.639 102.455 176.909 99.8976 176.878 97.3716Z" fill="#263238"/>
<path d="M56.2803 149.068C58.3594 149.744 118.59 132.331 118.59 132.331L111.48 111.426C111.48 111.426 114.994 104.711 113.361 98.2448C111.189 89.6063 95.2007 75.3749 93.9429 74.5745C88.9011 71.2272 84.1712 71.2895 79.9922 73.535C62.5903 82.7557 56.2803 149.068 56.2803 149.068Z" fill="#2B5AAC"/>
<path d="M102.208 82.1007C103.757 83.8991 105.42 85.6143 107.021 87.3816C106.273 86.0717 105.535 84.7411 104.734 83.4625C105.905 84.9779 106.925 86.6038 107.78 88.3171C108.984 89.6535 110.096 91.0706 111.107 92.5585C112.342 94.3296 113.267 96.2983 113.841 98.3799C114.366 100.492 114.451 102.689 114.09 104.835C113.634 107.293 112.956 109.705 112.063 112.039C111.949 112.351 111.512 112.154 111.595 111.852C112.728 107.767 114.007 103.463 113.103 99.2011C112.198 94.939 109.568 91.4254 107.011 88.0781C105.499 86.0303 103.86 84.0791 102.104 82.2358C102 82.1215 102.135 82.0175 102.208 82.1007Z" fill="#263238"/>
<path d="M83.7558 74.6888C83.9949 75.7803 89.0886 82.9219 94.068 82.7556C95.6793 82.7036 95.7729 73.8467 95.7729 73.8467L95.9288 73.1918L98.1118 64.0543L85.9076 56.0602C85.9076 56.0602 83.6622 74.221 83.7558 74.6888Z" fill="#F7A9A0"/>
<path d="M98.1125 64.0439L95.9295 73.1815C93.4636 72.2123 91.2294 70.7349 89.3721 68.8453C87.5148 66.9558 86.0761 64.6965 85.1494 62.2143C85.5236 59.0957 85.8459 56.4449 85.8875 56.0602C85.8899 56.043 85.8899 56.0255 85.8875 56.0083L87.4364 56.9439L98.1125 64.0439Z" fill="#263238"/>
<path d="M112.374 52.8584C111.335 69.3143 101.376 70.5306 97.8208 70.3227C94.6086 70.1251 83.6622 69.0129 82.9865 52.5361C82.3108 36.0594 90.2633 31.3503 97.6857 31.4334C105.108 31.5166 113.404 36.3713 112.374 52.8584Z" fill="#F7A9A0"/>
<path d="M109.931 51.2368C109.557 51.1329 109.225 50.9873 108.892 50.8522C108.489 50.776 108.123 50.5675 107.852 50.2596C107.79 50.145 107.766 50.013 107.785 49.8836C107.803 49.7543 107.864 49.6345 107.956 49.5424C108.167 49.3919 108.413 49.2992 108.67 49.2737C108.927 49.2482 109.186 49.2906 109.422 49.3968C109.931 49.5438 110.368 49.8732 110.649 50.322C110.707 50.4306 110.733 50.554 110.722 50.6769C110.712 50.7999 110.666 50.9172 110.59 51.0143C110.513 51.1114 110.411 51.1842 110.294 51.2237C110.177 51.2632 110.051 51.2678 109.931 51.2368Z" fill="#263238"/>
<path d="M99.1517 49.8333C99.5307 49.8267 99.909 49.7989 100.285 49.7502C100.69 49.776 101.092 49.6662 101.428 49.4383C101.522 49.3485 101.582 49.2296 101.599 49.1012C101.616 48.9728 101.589 48.8424 101.522 48.7314C101.362 48.5282 101.15 48.3719 100.908 48.2786C100.667 48.1854 100.405 48.1586 100.15 48.2012C99.6182 48.2125 99.1087 48.4156 98.7151 48.773C98.6342 48.8618 98.5802 48.9718 98.5594 49.0902C98.5386 49.2085 98.5518 49.3303 98.5976 49.4414C98.6433 49.5526 98.7197 49.6484 98.8178 49.7178C98.9159 49.7871 99.0317 49.8272 99.1517 49.8333Z" fill="#263238"/>
<path d="M101.147 52.5881C101.147 52.5881 101.054 52.5881 101.043 52.6817C100.96 53.8044 100.669 55.0727 99.6191 55.3325V55.3949C100.877 55.3533 101.241 53.6693 101.147 52.5881Z" fill="#263238"/>
<path d="M100.274 51.3199C98.4968 50.9873 97.9562 54.5633 99.6091 54.8752C101.262 55.187 101.771 51.6006 100.274 51.3199Z" fill="#263238"/>
<path d="M99.5366 51.4031C99.1936 51.559 98.8297 51.8708 98.4451 51.8501C98.0605 51.8293 97.7278 51.403 97.4991 50.9976C97.4991 50.9976 97.4368 50.9976 97.4264 50.9976C97.3224 51.6837 97.4264 52.4322 98.1956 52.6401C98.9649 52.848 99.4327 52.2971 99.703 51.6006C99.7653 51.5486 99.6822 51.3407 99.5366 51.4031Z" fill="#263238"/>
<path d="M107.281 53.2327C107.281 53.2327 107.354 53.295 107.343 53.347C107.135 54.4489 107.083 55.7484 108.029 56.2681C108.029 56.2681 108.029 56.3409 108.029 56.3305C106.813 55.9771 106.907 54.241 107.281 53.2327Z" fill="#263238"/>
<path d="M108.445 52.2347C110.254 52.3803 109.828 55.9771 108.164 55.8419C106.501 55.7068 106.938 52.11 108.445 52.2347Z" fill="#263238"/>
<path d="M109.173 52.557C109.433 52.7857 109.672 53.1599 110.015 53.2223C110.358 53.2847 110.742 52.9416 111.054 52.5986H111.106C111.044 53.2951 110.732 53.9812 110.067 54.0332C109.401 54.0851 109.079 53.4406 109.027 52.7337C108.944 52.6506 109.069 52.4634 109.173 52.557Z" fill="#263238"/>
<path d="M99.5986 62.2143C99.8065 62.5262 100.004 62.9316 100.399 63.0356C100.806 63.1287 101.229 63.1287 101.636 63.0356C101.636 63.0356 101.698 63.0356 101.636 63.098C101.437 63.286 101.191 63.4163 100.923 63.4749C100.656 63.5335 100.378 63.5182 100.118 63.4306C99.9061 63.3271 99.729 63.1636 99.6089 62.9603C99.4887 62.757 99.431 62.5229 99.4426 62.2871C99.433 62.2664 99.432 62.2428 99.4397 62.2213C99.4475 62.1999 99.4635 62.1824 99.4842 62.1728C99.5049 62.1631 99.5286 62.1621 99.55 62.1699C99.5715 62.1777 99.5889 62.1937 99.5986 62.2143Z" fill="#263238"/>
<path d="M104.797 58.8357C104.797 58.8357 104.797 60.5198 104.693 61.3098C104.693 61.3826 104.485 61.393 104.215 61.3722C103.527 61.4025 102.844 61.243 102.241 60.9111C101.637 60.5792 101.137 60.0878 100.794 59.4906C100.79 59.4744 100.79 59.457 100.795 59.4409C100.801 59.4248 100.811 59.4107 100.824 59.4005C100.838 59.3903 100.854 59.3845 100.871 59.3839C100.888 59.3833 100.905 59.3879 100.919 59.3971C101.829 60.213 102.977 60.7158 104.194 60.8317C104.277 60.6238 104.09 57.9417 104.194 57.9417C104.794 58.0859 105.374 58.306 105.919 58.5966C106.023 55.0726 105.556 51.5589 105.701 48.0453C105.708 48.022 105.723 48.0017 105.742 47.9872C105.762 47.9728 105.786 47.965 105.81 47.965C105.835 47.965 105.858 47.9728 105.878 47.9872C105.898 48.0017 105.912 48.022 105.919 48.0453C106.532 51.7962 106.769 55.5991 106.626 59.3971C106.626 59.8129 105.088 59.0125 104.797 58.8357Z" fill="#263238"/>
<path d="M82.904 53.3886C84.0504 53.1065 85.104 52.532 85.9621 51.7212C86.8202 50.9105 87.4535 49.8912 87.8003 48.7627C90.8938 48.1438 93.7653 46.708 96.1166 44.6045C95.9295 44.9164 94.6404 47.1514 93.944 48.2741C104.61 48.5548 109.464 41.3819 109.464 41.3819C111.051 43.6045 112.116 46.1555 112.583 48.8458C112.583 48.8458 114.007 42.6086 111.668 37.6604C110.932 35.9723 109.761 34.51 108.274 33.4232C106.787 32.3364 105.038 31.6641 103.206 31.4751C100.803 30.3198 98.1327 29.8336 95.4765 30.0678C92.8202 30.302 90.2762 31.2478 88.1121 32.8057C79.7854 38.6064 82.904 53.3886 82.904 53.3886Z" fill="#263238"/>
<path d="M102.052 48.2117C100.21 48.7593 98.2975 49.0325 96.376 49.0226C99.4276 48.8535 102.372 47.8385 104.879 46.0911C105.939 45.3378 106.902 44.4581 107.749 43.4714C108.714 42.4225 109.463 41.1931 109.952 39.8538C109.948 39.8413 109.946 39.8277 109.948 39.8144C109.95 39.8011 109.954 39.7884 109.962 39.7774C109.97 39.7664 109.98 39.7574 109.992 39.7512C110.004 39.745 110.017 39.7417 110.03 39.7417C110.044 39.7417 110.057 39.745 110.069 39.7512C110.081 39.7574 110.091 39.7664 110.099 39.7774C110.106 39.7884 110.111 39.8011 110.113 39.8144C110.115 39.8277 110.113 39.8413 110.108 39.8538C109.771 41.2291 109.201 42.5368 108.424 43.7209C107.61 44.8676 106.592 45.8544 105.42 46.6316C104.378 47.3124 103.244 47.841 102.052 48.2013" fill="#263238"/>
<path d="M85.5232 53.8979C85.5232 53.8979 82.7372 48.274 80.2319 49.1888C77.7266 50.1036 79.2964 57.8898 81.864 59.3139C82.1788 59.5186 82.5319 59.6573 82.9019 59.7216C83.2718 59.7859 83.651 59.7745 84.0164 59.688C84.3818 59.6015 84.7259 59.4417 85.0277 59.2184C85.3296 58.9951 85.5831 58.7129 85.7727 58.3888L85.5232 53.8979Z" fill="#F7A9A0"/>
<path d="M80.7416 51.4447C80.7416 51.4447 80.6792 51.4966 80.7416 51.5174C82.5296 52.557 83.2677 54.4801 83.6939 56.4137C83.6121 56.2067 83.4865 56.02 83.3255 55.8663C83.1646 55.7126 82.9723 55.5957 82.7618 55.5236C82.5513 55.4514 82.3277 55.4258 82.1063 55.4485C81.885 55.4711 81.6712 55.5415 81.4797 55.6548C81.4685 55.6597 81.4591 55.6676 81.4524 55.6778C81.4458 55.688 81.4422 55.6998 81.4422 55.712C81.4422 55.7241 81.4458 55.736 81.4524 55.7461C81.4591 55.7563 81.4685 55.7643 81.4797 55.7691C81.8301 55.7099 82.1903 55.7623 82.5093 55.919C82.8283 56.0757 83.09 56.3288 83.2573 56.6424C83.5427 57.1619 83.766 57.7132 83.9226 58.2848C83.985 58.4616 84.3072 58.42 84.276 58.2121C84.6815 55.7484 83.3093 52.0788 80.7416 51.4447Z" fill="#263238"/>
<path d="M70.9079 88.2029C66.074 115.657 70.7519 136.219 75.4091 138.766C87.9667 145.627 118.113 131.718 126.627 128.953C130.058 127.841 114.392 101.551 110.878 103.172C102.614 106.987 91.0334 113.474 90.5656 113.422C89.63 113.329 88.5489 106.322 83.7462 85.8951C79.8687 69.408 72.8934 77.007 70.9079 88.2029Z" fill="#F7A9A0"/>
<path d="M154.029 90.1884C154.892 93.6397 146.212 95.043 146.212 95.043C147.657 95.5557 148.875 96.5604 149.653 97.881C150.911 100.272 147.73 103.297 147.73 103.297C149.102 104.152 150.188 105.397 150.848 106.873C151.826 109.274 149.04 112.788 149.04 112.788C149.882 114.272 150.163 116.01 149.83 117.684C148.79 122.113 141.981 123.849 137.989 125.761C133.717 127.841 126.648 128.558 123.436 130.003L109.537 104.544C109.537 104.544 122.999 90.282 130.723 88.1197C134.881 86.9035 152.72 84.9179 154.029 90.1884Z" fill="#F7A9A0"/>
<path d="M146.118 94.9599C141.284 94.752 136.409 95.698 131.71 96.6648C131.606 96.6648 131.647 96.8415 131.71 96.8207C136.367 95.7811 141.409 96.0202 146.087 95.1886C146.102 95.1906 146.117 95.1897 146.132 95.1859C146.146 95.182 146.16 95.1753 146.172 95.1661C146.184 95.157 146.194 95.1455 146.202 95.1324C146.21 95.1193 146.215 95.1049 146.217 95.0898C146.219 95.0748 146.218 95.0595 146.214 95.0449C146.21 95.0302 146.203 95.0165 146.194 95.0044C146.185 94.9923 146.174 94.9822 146.16 94.9745C146.147 94.9669 146.133 94.9619 146.118 94.9599Z" fill="#263238"/>
<path d="M147.511 102.975C146.408 103.036 145.318 103.239 144.267 103.578C143.145 103.869 142.012 104.181 140.889 104.513C138.643 105.179 136.419 105.885 134.205 106.655C134.111 106.655 134.142 106.852 134.205 106.821C136.443 106.163 138.692 105.553 140.951 104.991C142.084 104.711 143.228 104.44 144.361 104.181C145.45 103.999 146.517 103.699 147.542 103.287C147.573 103.272 147.599 103.248 147.616 103.218C147.632 103.188 147.64 103.154 147.636 103.12C147.633 103.085 147.619 103.053 147.596 103.027C147.574 103.001 147.544 102.983 147.511 102.975Z" fill="#263238"/>
<path d="M148.977 112.819C147.981 112.886 147.004 113.122 146.087 113.516L143.031 114.462C140.952 115.085 138.956 115.709 136.887 116.25C136.794 116.25 136.825 116.447 136.887 116.416C138.966 115.865 141.045 115.376 143.176 114.784L146.295 113.931C147.255 113.754 148.175 113.401 149.008 112.892C149.012 112.878 149.011 112.863 149.006 112.85C149 112.837 148.99 112.826 148.977 112.819Z" fill="#263238"/>
<path d="M110.005 102.975L124.485 133.849C124.485 133.849 79.6812 146.916 73.6102 139.047C67.5393 131.178 67.9551 106.447 70.8035 89.336C73.6518 72.2251 81.3548 71.8925 84.7229 87.3609C88.0911 102.829 90.087 112.601 90.6899 112.518C91.2928 112.435 110.005 102.975 110.005 102.975Z" fill="#2B5AAC"/>
<path d="M104.162 107.123C104.162 107.05 103.975 107.123 104.006 107.185C104.817 109.503 105.898 111.738 106.886 113.983C107.874 116.229 108.965 118.609 110.067 120.907C112.219 125.481 114.329 130.128 116.751 134.566C116.758 134.588 116.77 134.608 116.786 134.625C116.801 134.641 116.82 134.654 116.842 134.663C116.863 134.671 116.885 134.675 116.908 134.674C116.931 134.672 116.953 134.666 116.973 134.655C116.993 134.644 117.011 134.629 117.024 134.611C117.038 134.593 117.048 134.572 117.052 134.549C117.057 134.527 117.056 134.504 117.051 134.482C117.046 134.459 117.036 134.439 117.021 134.421C115.171 129.743 112.967 125.19 110.847 120.637C109.807 118.37 108.768 116.125 107.634 113.89C106.501 111.655 105.462 109.295 104.162 107.123Z" fill="#263238"/>
<path d="M100.763 139.525C99.4977 139.604 98.2437 139.813 97.0209 140.149C95.7215 140.377 94.4221 140.585 93.1226 140.752C90.6031 141.105 88.0664 141.323 85.5236 141.407C83.0183 141.469 76.8226 141.095 74.9203 139.327C73.3509 137.803 72.2323 135.875 71.6873 133.756C71.0132 130.851 70.4996 127.912 70.1488 124.951C69.4317 118.695 69.2335 112.392 69.5562 106.104C69.629 104.357 69.7434 102.601 69.8681 100.854C69.9928 99.1077 70.2111 97.2988 70.2631 95.5108C70.2631 95.4485 70.1592 95.4381 70.1488 95.5108C69.5504 98.3553 69.1544 101.239 68.9637 104.139C68.8493 102.341 68.631 100.532 68.6103 98.723C68.6103 98.701 68.6015 98.6798 68.5859 98.6642C68.5703 98.6486 68.5491 98.6399 68.5271 98.6399C68.505 98.6399 68.4839 98.6486 68.4683 98.6642C68.4527 98.6798 68.4439 98.701 68.4439 98.723C68.4439 100.625 68.3504 102.528 68.4439 104.43C68.4439 105.47 68.5895 106.561 68.7038 107.621C68.5583 110.044 68.4855 112.466 68.5167 114.898C68.4399 121.284 69.184 127.653 70.7309 133.849C71.469 136.542 72.6125 139.109 75.0658 140.554C76.9134 141.441 78.9147 141.963 80.96 142.093C85.2806 142.39 89.6216 142.117 93.8711 141.282C95.0562 141.053 96.2413 140.804 97.4263 140.533C98.5937 140.369 99.7358 140.058 100.826 139.608C100.826 139.608 100.826 139.525 100.763 139.525Z" fill="#263238"/>
<path d="M109.932 102.393C106.636 104.045 103.331 105.698 100.046 107.382L95.191 109.867C93.6317 110.678 90.6586 112.279 90.6586 112.279C90.6586 111.53 90.0557 109.378 89.7438 107.985C89.4319 106.592 89.0473 104.96 88.7043 103.453C88.6003 103.058 88.4859 102.673 88.382 102.278C88.3092 101.561 88.2469 100.833 88.1845 100.106C88.0701 98.9413 87.9766 97.7562 87.7999 96.592C87.7999 96.592 87.7375 96.592 87.7271 96.592C87.618 97.7016 87.618 98.8192 87.7271 99.9289C87.2281 98.0993 86.6875 96.2905 86.1678 94.4817H86.0742C86.6668 97.5379 87.2905 100.594 87.987 103.63C88.33 105.095 88.7043 106.561 89.0889 108.027C89.4429 109.608 89.8801 111.17 90.3987 112.705C92.0821 112.065 93.7303 111.336 95.3365 110.522C97.0206 109.725 98.6977 108.907 100.368 108.068C103.601 106.447 106.865 104.794 109.994 102.964C109.994 102.964 110.212 103.38 110.244 103.432C110.275 103.484 110.431 103.339 110.389 103.193C110.348 103.048 110.015 102.361 109.932 102.393Z" fill="#263238"/>
<path d="M138.363 132.851H180.579L199.083 73.1087H156.878L138.363 132.851Z" fill="#263238"/>
<path d="M140.432 132.851H182.647L201.162 73.1087H158.946L140.432 132.851Z" fill="#455A64"/>
<path d="M175.235 101.103C174.902 102.243 174.223 103.25 173.292 103.986C172.36 104.722 171.223 105.149 170.038 105.21C169.533 105.235 169.03 105.136 168.573 104.919C168.116 104.703 167.721 104.377 167.421 103.97C167.121 103.563 166.927 103.089 166.856 102.588C166.784 102.088 166.838 101.578 167.013 101.103C167.337 99.9545 168.012 98.9357 168.944 98.19C169.876 97.4443 171.018 97.0091 172.21 96.9453C172.721 96.9158 173.232 97.015 173.694 97.234C174.157 97.453 174.557 97.7846 174.858 98.1985C175.159 98.6124 175.352 99.0953 175.418 99.6028C175.483 100.11 175.421 100.626 175.235 101.103Z" fill="white"/>
<path d="M194.664 94.0555C196.743 97.8498 202.191 102.507 202.742 105.667C202.909 106.44 202.822 107.246 202.494 107.965C202.166 108.684 201.615 109.278 200.922 109.659C200.922 109.659 204.187 111.062 204.218 114.015C204.218 115.532 201.827 116.894 201.827 116.894C202.548 117.251 203.156 117.8 203.585 118.481C204.014 119.161 204.247 119.947 204.259 120.751C204.155 122.83 201.764 123.869 201.764 123.869C201.764 123.869 203.667 126.198 202.877 128.298C201.276 132.55 183.333 133.558 180.184 127.102C178.728 124.088 183.125 124.088 183.125 124.088C183.125 124.088 176.795 122.57 176.493 118.89C176.192 115.21 181.909 115.532 181.909 115.532C181.909 115.532 175.786 114.015 175.859 110.148C175.932 106.28 181.597 107.445 181.597 107.445C181.597 107.445 177.439 104.96 178.188 102.018C179.393 97.1533 188.386 102.933 192.273 101.779L194.664 94.0555Z" fill="#F7A9A0"/>
<path d="M201.921 116.925C201.983 116.925 202.004 117.029 201.921 117.05C195.226 119.044 188.037 118.572 181.66 115.719C181.442 115.615 181.348 115.304 181.66 115.397C186.068 117.133 196.214 117.736 201.921 116.925Z" fill="#263238"/>
<path d="M181.202 107.081C187.44 109.804 193.947 110.2 200.683 109.742C200.766 109.742 200.766 109.856 200.683 109.888C197.461 111.031 193.136 110.927 189.768 110.522C186.645 110.228 183.655 109.117 181.098 107.299C181.005 107.226 181.067 107.029 181.202 107.081Z" fill="#263238"/>
<path d="M319.753 213.125C318.88 215.484 276.092 268.667 273.181 269.665C272.079 270.05 263.971 264.27 254.366 257.004C252.287 255.434 250.208 253.802 248.004 252.138C234.001 241.317 219.396 229.508 219.396 229.508L247.91 193.841L275.739 217.459L281.851 222.657C281.851 222.657 307.341 209.621 310.657 208.873C313.973 208.124 320.626 210.765 319.753 213.125Z" fill="#F7A9A0"/>
<path d="M319.753 213.124C318.88 215.484 276.092 268.667 273.182 269.665C271.83 270.122 260.146 261.494 248.004 252.138L275.739 217.459L281.851 222.657C281.851 222.657 307.341 209.621 310.657 208.873C313.973 208.124 320.626 210.765 319.753 213.124Z" fill="white"/>
<path d="M319.753 213.125C318.88 215.484 276.093 268.667 273.182 269.665C272.08 270.05 263.972 264.27 254.366 257.004L281.852 222.636C281.852 222.636 307.341 209.6 310.657 208.852C313.973 208.104 320.627 210.765 319.753 213.125Z" fill="#2B5AAC"/>
<path d="M317.007 212.168C309.616 220.911 280.624 256.868 273.991 266.058C273.939 266.131 273.991 266.172 274.043 266.11C281.559 257.606 310.261 221.41 317.163 212.293C317.309 212.095 317.163 211.991 317.007 212.168Z" fill="#263238"/>
<path d="M305.99 210.734C305.172 211.705 304.564 212.836 304.207 214.055C303.849 215.273 303.748 216.553 303.91 217.813C304.166 220.081 305.282 222.165 307.029 223.634C307.081 223.634 307.164 223.634 307.112 223.53C305.588 221.809 304.662 219.639 304.475 217.347C304.287 215.054 304.848 212.763 306.073 210.817C306.074 210.805 306.074 210.794 306.07 210.783C306.066 210.772 306.06 210.762 306.052 210.754C306.044 210.746 306.034 210.74 306.023 210.736C306.012 210.733 306.001 210.732 305.99 210.734Z" fill="#263238"/>
<path d="M285.521 219.892C282.599 223.416 280.531 228.572 281.664 233.136C281.716 233.312 281.965 233.25 281.996 233.136C282.864 228.7 284.209 224.371 286.009 220.225C286.031 220.192 286.046 220.156 286.054 220.118C286.062 220.08 286.062 220.041 286.055 220.003C286.048 219.965 286.033 219.929 286.012 219.896C285.991 219.864 285.963 219.836 285.931 219.814C285.899 219.792 285.863 219.777 285.825 219.769C285.787 219.761 285.748 219.761 285.71 219.768C285.672 219.775 285.635 219.79 285.603 219.811C285.57 219.832 285.542 219.86 285.521 219.892Z" fill="#263238"/>
<path d="M288.815 218C285.894 221.524 283.826 226.68 284.959 231.244C284.959 231.42 285.25 231.358 285.281 231.244C286.157 226.809 287.505 222.48 289.304 218.333C289.348 218.268 289.365 218.188 289.35 218.111C289.336 218.034 289.291 217.966 289.226 217.922C289.161 217.878 289.082 217.861 289.005 217.876C288.928 217.891 288.86 217.935 288.815 218Z" fill="#263238"/>
<path d="M292.101 216.066C289.18 219.601 287.111 224.747 288.244 229.31C288.296 229.487 288.545 229.424 288.577 229.31C289.445 224.875 290.791 220.546 292.589 216.399C292.633 216.334 292.65 216.255 292.635 216.178C292.621 216.101 292.576 216.033 292.511 215.988C292.446 215.944 292.367 215.928 292.29 215.942C292.213 215.957 292.145 216.002 292.101 216.066Z" fill="#263238"/>
<path d="M295.396 214.216C292.474 217.75 290.406 222.896 291.539 227.46C291.539 227.637 291.83 227.574 291.861 227.46C292.738 223.022 294.087 218.69 295.884 214.538C295.927 214.474 295.942 214.394 295.927 214.318C295.911 214.242 295.866 214.176 295.801 214.133C295.736 214.09 295.657 214.075 295.581 214.091C295.505 214.106 295.438 214.151 295.396 214.216Z" fill="#263238"/>
<path d="M267.35 256.972C264.138 260.985 270.375 265.985 273.587 261.962C276.799 257.939 270.562 252.96 267.35 256.972Z" fill="white"/>
<path d="M279.107 208.374C276.154 208.977 275.78 212.428 276.445 214.788C277.645 218.844 279.893 222.512 282.963 225.422C282.974 225.437 282.988 225.45 283.004 225.458C283.02 225.466 283.039 225.471 283.057 225.471C283.075 225.471 283.093 225.466 283.11 225.458C283.126 225.45 283.14 225.437 283.15 225.422C283.23 225.463 283.317 225.484 283.406 225.484C283.495 225.484 283.583 225.463 283.662 225.422C283.742 225.381 283.81 225.323 283.862 225.25C283.914 225.178 283.948 225.094 283.961 225.006C284.242 221.056 285.001 216.867 284.107 212.937C283.535 210.578 281.893 207.802 279.107 208.374ZM283.161 218.852C283.067 220.796 282.88 222.73 282.859 224.684C281.533 222.667 280.308 220.586 279.19 218.447C278.668 217.399 278.213 216.319 277.828 215.214C277.277 213.488 277.111 207.584 281.279 210.349C283.535 211.846 283.275 216.534 283.161 218.852Z" fill="#263238"/>
<path d="M277.152 235.308C280.125 232.585 281.819 228.666 283.805 225.235C283.841 225.155 283.859 225.068 283.855 224.98C283.852 224.893 283.828 224.807 283.786 224.73C283.743 224.653 283.683 224.587 283.611 224.538C283.538 224.488 283.455 224.457 283.368 224.445C283.37 224.426 283.367 224.407 283.361 224.389C283.354 224.371 283.343 224.355 283.329 224.341C283.315 224.328 283.298 224.319 283.279 224.313C283.261 224.308 283.242 224.307 283.223 224.31C279.065 224.993 275.158 226.753 271.892 229.414C270.02 231.005 268.388 234.061 270.488 236.223C272.588 238.385 275.416 236.857 277.152 235.308ZM273.388 235.828C268.378 235.776 271.829 230.984 273.253 229.872C274.196 229.168 275.182 228.526 276.206 227.948C278.285 226.732 280.551 225.869 282.755 224.83C281.715 226.451 280.748 228.156 279.73 229.82C278.524 231.805 276.143 235.818 273.388 235.818V235.828Z" fill="#263238"/>
<path d="M274.252 212.075L244.573 252.118L144.424 182.624L134.767 175.919C134.767 175.919 132.033 177.759 127.916 180.078C122.199 183.196 113.82 187.24 106.408 188.332C93.9336 190.171 73.2155 189.974 62.7473 175.961C53.9216 164.162 58.7139 148.767 58.7139 148.767L72.3631 142.904C72.3631 142.904 104.672 115.99 125.598 115.179C134.486 114.826 147.428 121.562 159.414 128.599C171.4 135.637 274.252 212.075 274.252 212.075Z" fill="#37474F"/>
<path d="M134.767 175.919C134.767 175.919 132.033 177.759 127.916 180.077C120.639 171.366 105.233 155.544 104.766 154.983L134.767 175.919Z" fill="#263238"/>
<path d="M84.1928 133.86C82.2593 135.201 80.3985 136.625 78.4857 138.018C76.573 139.411 74.681 140.648 72.9034 142.176C71.1258 143.704 69.3689 145.294 67.7057 146.906C66.8844 147.685 66.0632 148.475 65.2732 149.286C64.4332 150.064 63.6547 150.905 62.9446 151.802C62.8822 151.896 63.007 151.989 63.0901 151.937C63.995 151.302 64.8563 150.608 65.6682 149.858L68.3502 147.457C70.0862 145.981 71.8535 144.546 73.5479 143.059C75.2424 141.573 76.864 139.941 78.5689 138.496C80.2737 137.051 82.3112 135.377 84.2136 133.911C84.2656 133.943 84.2344 133.828 84.1928 133.86Z" fill="#263238"/>
<path d="M267.288 210.64C265.354 212.719 263.576 214.954 261.778 217.148C259.98 219.341 258.181 221.566 256.404 223.79C252.848 228.229 249.252 232.658 245.759 237.159C243.836 239.622 241.944 242.107 240.156 244.685C240.072 244.799 240.26 244.924 240.343 244.82C244.179 240.61 247.672 236.119 251.227 231.68C254.782 227.241 258.337 222.761 261.82 218.26C263.732 215.796 265.708 213.343 267.454 210.765C267.527 210.661 267.371 210.546 267.288 210.64Z" fill="#263238"/>
<path d="M185.091 211.045C180.112 207.116 174.945 203.415 169.779 199.735C164.612 196.055 159.498 192.396 154.279 188.841C152.782 187.801 151.275 186.814 149.767 185.816C148.26 184.818 146.649 183.882 145.214 182.843C145.131 182.791 145.048 182.926 145.131 182.988C146.493 183.965 147.772 185.067 149.102 186.055C150.433 187.042 151.639 187.999 152.917 188.945C155.423 190.795 157.949 192.614 160.475 194.444C165.589 198.134 170.745 201.794 175.943 205.359C178.906 207.386 181.848 209.424 184.873 211.357C185.05 211.472 185.268 211.181 185.091 211.045Z" fill="#263238"/>
<path d="M217.119 169.734C212.514 165.919 207.576 162.457 202.752 158.954C197.929 155.451 193.012 151.781 188.116 148.247L173.562 137.695C168.843 134.286 164.154 130.824 159.175 127.809C156.451 126.157 153.655 124.628 150.786 123.256C148.003 121.828 145.102 120.642 142.116 119.711C142.022 119.711 141.981 119.815 142.054 119.857C144.507 121.229 147.085 122.383 149.57 123.703C152.054 125.023 154.445 126.385 156.846 127.861C161.784 130.855 166.452 134.265 171.14 137.633C180.87 144.629 190.59 151.667 200.393 158.569C205.881 162.437 211.256 166.512 216.953 170.004C217.077 170.14 217.285 169.869 217.119 169.734Z" fill="#263238"/>
<path d="M443.053 153.694C430.35 170.909 417.064 190.868 413.873 212.449C413.873 212.781 414.362 212.885 414.434 212.563C415.897 206.675 417.776 200.898 420.058 195.276C428.375 192.978 436.608 191.117 440.995 182.801C445.465 174.287 444.893 163.175 444.051 153.891C443.989 153.341 443.313 153.32 443.053 153.694Z" fill="#2B5AAC"/>
<path d="M420.182 195.068C425.889 182.261 433.228 169.401 442.584 158.892C442.647 158.819 442.74 158.892 442.678 158.996C436.586 166.491 431.95 174.662 427.428 182.978C431.638 178.705 436.243 174.88 440.224 170.347C440.242 170.334 440.263 170.328 440.285 170.329C440.307 170.33 440.328 170.339 440.344 170.354C440.36 170.368 440.37 170.388 440.373 170.41C440.376 170.432 440.371 170.454 440.36 170.472C436.399 175.223 432.043 180.389 426.918 183.903C425.532 186.453 424.146 189.007 422.76 191.564C423.114 191.367 423.467 191.201 423.8 191.024C423.862 191.024 423.924 191.086 423.852 191.117C423.467 191.315 423.072 191.523 422.667 191.7C422.001 192.905 421.336 194.122 420.65 195.328C420.432 195.577 420.057 195.338 420.182 195.068Z" fill="#263238"/>
<path d="M424.424 190.598C427.841 188.69 431.101 186.514 434.175 184.09C434.258 184.028 434.382 184.142 434.299 184.204C431.322 186.783 428.057 189.009 424.569 190.837C424.553 190.846 424.536 190.853 424.518 190.856C424.5 190.858 424.481 190.858 424.463 190.853C424.445 190.849 424.429 190.841 424.414 190.83C424.399 190.819 424.386 190.806 424.377 190.79C424.367 190.774 424.361 190.757 424.358 190.739C424.355 190.721 424.356 190.702 424.36 190.684C424.365 190.666 424.373 190.649 424.383 190.635C424.394 190.62 424.408 190.607 424.424 190.598Z" fill="#263238"/>
<path d="M412.438 209.195C412.438 209.455 412.906 209.445 412.906 209.195C412.968 202.085 412.906 194.943 413.01 187.812C414.839 184.132 418.737 182.105 421.461 179.152C423.413 177.005 425.112 174.64 426.524 172.104C429.801 166.039 431.804 159.367 432.407 152.498C433.156 144.899 430.276 119.815 427.064 120.689C425.411 121.136 420.026 133.558 418.602 137.664C416.29 144.427 414.599 151.386 413.55 158.455C410.92 175.192 411.138 192.365 412.438 209.195Z" fill="#2B5AAC"/>
<path d="M412.355 178.539C412.75 169.547 414.767 160.472 416.669 151.75C418.748 142.394 421.097 133.506 425.931 125.127C426.025 124.971 426.254 125.127 426.17 125.273C422.945 131.787 420.449 138.638 418.727 145.7C419.05 145.201 419.445 144.712 419.767 144.234C419.892 144.047 420.203 144.234 420.079 144.421C419.643 145.179 419.135 145.893 418.561 146.552H418.499C416.835 153.268 415.64 160.139 414.621 166.99C414.692 166.895 414.768 166.805 414.85 166.719C414.902 166.719 414.985 166.719 414.954 166.803C414.829 167.031 414.683 167.25 414.548 167.478C414.029 170.961 413.509 174.433 413.072 177.874C419.309 172.572 424.507 166.335 427.532 158.653C427.532 158.653 427.605 158.653 427.595 158.653C424.673 166.615 420.068 173.705 412.979 178.549C412.843 179.475 412.719 180.4 412.584 181.325C412.584 181.512 412.251 181.46 412.251 181.273C412.251 180.462 412.251 179.641 412.324 178.82C412.307 178.799 412.295 178.776 412.287 178.751C412.28 178.725 412.277 178.699 412.28 178.673C412.283 178.647 412.291 178.621 412.304 178.598C412.317 178.575 412.334 178.555 412.355 178.539Z" fill="#263238"/>
<path d="M415.275 165.514C420.005 158.445 424.423 151.594 427.885 143.787C427.893 143.766 427.91 143.75 427.93 143.741C427.95 143.732 427.974 143.732 427.994 143.74C428.015 143.749 428.031 143.765 428.04 143.785C428.049 143.806 428.049 143.829 428.041 143.85C425.12 151.604 421.035 159.443 415.504 165.68C415.4 165.815 415.172 165.649 415.275 165.514Z" fill="#263238"/>
<path d="M421.565 142.041C423.519 138.569 425.588 135.201 427.428 131.645C427.48 131.552 427.615 131.645 427.573 131.739C426.068 135.447 424.154 138.975 421.866 142.259C421.731 142.394 421.451 142.259 421.565 142.041Z" fill="#263238"/>
<path d="M407.594 188.643C407.503 193.35 406.95 198.037 405.941 202.636L406.159 204.174C407.607 199.093 408.448 193.859 408.665 188.581C408.706 188.506 408.727 188.422 408.727 188.337C408.727 188.251 408.706 188.167 408.665 188.092C408.864 181.009 408.338 173.924 407.095 166.948C404.891 153.891 400.088 141.355 390.972 131.604C390.897 131.531 390.805 131.478 390.705 131.449C390.605 131.419 390.5 131.415 390.397 131.435C390.295 131.456 390.199 131.501 390.118 131.566C390.037 131.632 389.973 131.716 389.932 131.812C386.252 141.168 387.541 152.301 390.67 161.626C392.37 166.672 394.801 171.443 397.885 175.784C401.076 180.13 405.057 183.841 407.594 188.643Z" fill="#2B5AAC"/>
<path d="M392.073 135.918C400.702 149.931 406.71 166.543 407.448 183.082C407.448 183.383 406.97 183.456 406.928 183.155C406.721 181.668 406.492 180.192 406.253 178.726C402.677 175.306 398.976 171.699 396.46 167.416C396.408 167.343 396.523 167.26 396.575 167.322C399.536 170.976 402.716 174.448 406.097 177.718C405.473 174.059 404.745 170.441 403.872 166.917L403.196 166.116C403.041 165.94 403.29 165.68 403.446 165.857L403.654 166.085C402.443 161.223 400.936 156.439 399.142 151.76C396.949 149.141 394.485 146.875 392.905 143.714C392.905 143.642 392.978 143.579 393.019 143.642C394.308 145.45 395.556 147.27 397.011 148.943C397.593 149.609 398.238 150.232 398.841 150.887C396.852 145.809 394.489 140.886 391.772 136.157C391.753 136.117 391.748 136.071 391.758 136.028C391.768 135.984 391.793 135.945 391.828 135.918C391.863 135.89 391.906 135.875 391.951 135.875C391.995 135.875 392.038 135.89 392.073 135.918Z" fill="#263238"/>
<path d="M393.82 153.205C396.606 156.958 399.787 160.534 402.386 164.422C402.459 164.526 402.293 164.64 402.199 164.557C398.872 161.439 396.045 157.166 393.633 153.309C393.56 153.185 393.727 153.091 393.82 153.205Z" fill="#263238"/>
<path d="M402.77 165.285L402.895 165.41C402.978 165.493 402.843 165.618 402.76 165.534L402.646 165.42C402.562 165.337 402.687 165.202 402.77 165.285Z" fill="#263238"/>
<path d="M378.55 162.852C379.571 170.673 382.721 178.062 387.656 184.215C389.692 186.631 392.209 188.596 395.047 189.984C398.249 191.564 401.596 193.384 404.902 194.683C406.477 198.69 407.647 202.845 408.395 207.085C408.499 206.721 408.603 206.347 408.717 205.983C406.586 187.739 394.777 172.146 379.683 162.135C379.564 162.058 379.426 162.017 379.285 162.016C379.144 162.015 379.006 162.055 378.886 162.131C378.767 162.206 378.672 162.314 378.612 162.442C378.553 162.57 378.531 162.712 378.55 162.852Z" fill="#2B5AAC"/>
<path d="M383.767 168.248C383.663 168.154 383.767 167.967 383.923 168.05C392.223 174.221 398.839 182.378 403.165 191.772C403.28 192.022 402.937 192.24 402.791 191.991C402.095 190.764 401.377 189.558 400.65 188.383C397.198 187.729 393.934 185.265 391.377 182.999C391.304 182.936 391.377 182.832 391.481 182.895C392.793 184.117 394.256 185.165 395.836 186.013C397.25 186.731 398.758 187.178 400.223 187.749C398.945 185.722 397.614 183.778 396.221 181.886C392.484 180.477 388.98 178.515 385.826 176.065C385.804 176.051 385.788 176.029 385.782 176.004C385.776 175.978 385.781 175.952 385.795 175.93C385.808 175.908 385.83 175.892 385.856 175.886C385.881 175.88 385.908 175.885 385.93 175.899C389.045 177.782 392.259 179.5 395.556 181.044C393.45 178.27 391.18 175.625 388.757 173.123C387.583 172.499 386.397 171.876 385.264 171.221C385.171 171.169 385.264 171.002 385.337 171.044C386.282 171.372 387.183 171.815 388.019 172.364C386.678 170.93 385.275 169.568 383.767 168.248Z" fill="#263238"/>
<path d="M384.09 174.537C384.292 174.663 384.487 174.802 384.672 174.953C384.672 175.005 384.672 175.077 384.599 175.057C384.389 174.955 384.188 174.837 383.996 174.703C383.893 174.641 383.986 174.485 384.09 174.537Z" fill="#263238"/>
<path d="M432.284 246.598H390.899L394.236 208.914L394.974 200.598H428.209L428.947 208.914L432.284 246.598Z" fill="#455A64"/>
<path d="M428.947 208.914H394.236L394.974 200.598H428.209L428.947 208.914Z" fill="#263238"/>
<path d="M430.183 194.787H392.988V203.01H430.183V194.787Z" fill="#455A64"/>
</svg>
