<svg width="353" height="330" viewBox="0 0 353 330" fill="none" xmlns="http://www.w3.org/2000/svg">
<g clip-path="url(#clip0_200_1900)">
<path d="M47.0379 330.038C46.853 330.038 46.7122 329.888 46.7122 329.702V315.099C46.7122 314.914 46.8618 314.764 47.0379 314.764C47.2139 314.764 47.3636 314.914 47.3636 315.099V329.702C47.3636 329.888 47.2139 330.038 47.0379 330.038Z" fill="#2B5AAC"/>
<path d="M51.1841 327.655C50.9992 327.655 50.8584 327.505 50.8584 327.32V319.441C50.8584 319.255 51.008 319.105 51.1841 319.105C51.3602 319.105 51.5098 319.255 51.5098 319.441V327.32C51.5098 327.505 51.3602 327.655 51.1841 327.655Z" fill="#2B5AAC"/>
<path d="M55.3216 325.273C55.1367 325.273 54.9958 325.123 54.9958 324.938V317.058C54.9958 316.873 55.1455 316.723 55.3216 316.723C55.4976 316.723 55.6473 316.873 55.6473 317.058V324.938C55.6473 325.123 55.4976 325.273 55.3216 325.273Z" fill="#2B5AAC"/>
<path d="M59.4678 322.891C59.2829 322.891 59.1421 322.74 59.1421 322.555V314.676C59.1421 314.491 59.2917 314.349 59.4678 314.349C59.6439 314.349 59.7935 314.499 59.7935 314.676V322.555C59.7935 322.74 59.6439 322.891 59.4678 322.891Z" fill="#2B5AAC"/>
<path d="M63.605 320.508C63.4201 320.508 63.2793 320.358 63.2793 320.173V312.293C63.2793 312.108 63.429 311.967 63.605 311.967C63.7811 311.967 63.9307 312.117 63.9307 312.293V320.173C63.9307 320.358 63.7811 320.508 63.605 320.508Z" fill="#2B5AAC"/>
<path d="M67.7513 318.126C67.5664 318.126 67.4255 317.976 67.4255 317.791V303.188C67.4255 303.002 67.5752 302.861 67.7513 302.861C67.9273 302.861 68.077 303.011 68.077 303.188V317.791C68.077 317.976 67.9273 318.126 67.7513 318.126Z" fill="#2B5AAC"/>
<path d="M71.8975 315.743C71.7126 315.743 71.563 315.593 71.563 315.408V307.529C71.563 307.343 71.7126 307.202 71.8975 307.202C72.0824 307.202 72.232 307.352 72.232 307.529V315.408C72.232 315.593 72.0824 315.743 71.8975 315.743Z" fill="#2B5AAC"/>
<path d="M76.0349 313.352C75.8501 313.352 75.7092 313.202 75.7092 313.026V305.146C75.7092 304.961 75.8589 304.82 76.0349 304.82C76.211 304.82 76.3606 304.97 76.3606 305.146V313.026C76.3606 313.211 76.211 313.352 76.0349 313.352Z" fill="#2B5AAC"/>
<path d="M80.1812 310.97C79.9963 310.97 79.8555 310.82 79.8555 310.643V302.764C79.8555 302.579 80.0051 302.438 80.1812 302.438C80.3572 302.438 80.5069 302.588 80.5069 302.764V310.643C80.5069 310.829 80.3572 310.97 80.1812 310.97Z" fill="#2B5AAC"/>
<path d="M84.3274 308.588C84.1426 308.588 84.0017 308.438 84.0017 308.252V300.373C84.0017 300.188 84.1514 300.046 84.3274 300.046C84.5035 300.046 84.6531 300.196 84.6531 300.373V308.252C84.6531 308.438 84.5035 308.588 84.3274 308.588Z" fill="#2B5AAC"/>
<path d="M88.4649 306.205C88.28 306.205 88.1392 306.055 88.1392 305.879V291.276C88.1392 291.09 88.2888 290.94 88.4649 290.94C88.6409 290.94 88.7906 291.09 88.7906 291.276V305.879C88.7906 306.064 88.6409 306.205 88.4649 306.205Z" fill="#2B5AAC"/>
<path d="M92.6109 303.823C92.426 303.823 92.2852 303.673 92.2852 303.496V295.617C92.2852 295.432 92.4348 295.282 92.6109 295.282C92.7869 295.282 92.9366 295.432 92.9366 295.617V303.496C92.9366 303.682 92.7869 303.823 92.6109 303.823Z" fill="#2B5AAC"/>
<path d="M96.7483 301.441C96.5635 301.441 96.4226 301.29 96.4226 301.114V293.235C96.4226 293.049 96.5723 292.908 96.7483 292.908C96.9244 292.908 97.074 293.058 97.074 293.235V301.114C97.074 301.299 96.9244 301.441 96.7483 301.441Z" fill="#2B5AAC"/>
<path d="M100.895 299.058C100.71 299.058 100.569 298.908 100.569 298.732V290.852C100.569 290.667 100.719 290.526 100.895 290.526C101.071 290.526 101.22 290.676 101.22 290.852V298.732C101.22 298.917 101.071 299.058 100.895 299.058Z" fill="#2B5AAC"/>
<path d="M105.041 296.676C104.856 296.676 104.715 296.526 104.715 296.349V288.47C104.715 288.285 104.865 288.143 105.041 288.143C105.217 288.143 105.367 288.293 105.367 288.47V296.349C105.367 296.535 105.217 296.676 105.041 296.676Z" fill="#2B5AAC"/>
<path d="M109.178 294.293C108.993 294.293 108.853 294.143 108.853 293.958V279.355C108.853 279.17 109.002 279.029 109.178 279.029C109.354 279.029 109.504 279.179 109.504 279.355V293.958C109.504 294.143 109.354 294.293 109.178 294.293Z" fill="#2B5AAC"/>
<path d="M113.325 291.902C113.14 291.902 112.99 291.752 112.99 291.576V283.696C112.99 283.511 113.14 283.37 113.325 283.37C113.509 283.37 113.659 283.52 113.659 283.696V291.576C113.659 291.761 113.509 291.902 113.325 291.902Z" fill="#2B5AAC"/>
<path d="M117.471 289.52C117.286 289.52 117.136 289.37 117.136 289.193V281.314C117.136 281.129 117.286 280.988 117.471 280.988C117.656 280.988 117.805 281.138 117.805 281.314V289.193C117.805 289.379 117.656 289.52 117.471 289.52Z" fill="#2B5AAC"/>
<path d="M121.608 287.138C121.423 287.138 121.282 286.988 121.282 286.811V278.932C121.282 278.746 121.432 278.605 121.608 278.605C121.784 278.605 121.934 278.755 121.934 278.932V286.811C121.934 286.996 121.784 287.138 121.608 287.138Z" fill="#2B5AAC"/>
<path d="M125.754 284.755C125.569 284.755 125.428 284.605 125.428 284.429V276.549C125.428 276.364 125.578 276.223 125.754 276.223C125.93 276.223 126.08 276.373 126.08 276.549V284.429C126.08 284.614 125.93 284.755 125.754 284.755Z" fill="#2B5AAC"/>
<path d="M129.892 282.373C129.707 282.373 129.566 282.223 129.566 282.046V267.443C129.566 267.258 129.716 267.117 129.892 267.117C130.068 267.117 130.217 267.267 130.217 267.443V282.046C130.217 282.232 130.068 282.373 129.892 282.373Z" fill="#2B5AAC"/>
<path d="M134.038 279.99C133.853 279.99 133.712 279.84 133.712 279.664V271.785C133.712 271.599 133.862 271.458 134.038 271.458C134.214 271.458 134.364 271.608 134.364 271.785V279.664C134.364 279.849 134.214 279.99 134.038 279.99Z" fill="#2B5AAC"/>
<path d="M138.184 277.608C137.999 277.608 137.858 277.458 137.858 277.282V269.402C137.858 269.217 138.008 269.076 138.184 269.076C138.36 269.076 138.51 269.226 138.51 269.402V277.282C138.51 277.467 138.36 277.608 138.184 277.608Z" fill="#2B5AAC"/>
<path d="M142.322 275.226C142.137 275.226 141.996 275.076 141.996 274.899V267.02C141.996 266.835 142.146 266.693 142.322 266.693C142.498 266.693 142.647 266.843 142.647 267.02V274.899C142.647 275.085 142.498 275.226 142.322 275.226Z" fill="#2B5AAC"/>
<path d="M146.468 272.835C146.283 272.835 146.142 272.685 146.142 272.508V264.629C146.142 264.443 146.292 264.302 146.468 264.302C146.644 264.302 146.794 264.452 146.794 264.629V272.508C146.794 272.693 146.644 272.835 146.468 272.835Z" fill="#2B5AAC"/>
<path d="M150.614 270.452C150.429 270.452 150.288 270.302 150.288 270.126V255.523C150.288 255.338 150.438 255.196 150.614 255.196C150.79 255.196 150.94 255.346 150.94 255.523V270.126C150.94 270.311 150.79 270.452 150.614 270.452Z" fill="#2B5AAC"/>
<path d="M154.751 268.07C154.566 268.07 154.417 267.92 154.417 267.743V259.864C154.417 259.679 154.566 259.538 154.751 259.538C154.936 259.538 155.086 259.688 155.086 259.864V267.743C155.086 267.929 154.936 268.07 154.751 268.07Z" fill="#2B5AAC"/>
<path d="M158.897 265.688C158.713 265.688 158.563 265.538 158.563 265.361V257.482C158.563 257.296 158.713 257.155 158.897 257.155C159.082 257.155 159.232 257.305 159.232 257.482V265.361C159.232 265.546 159.082 265.688 158.897 265.688Z" fill="#2B5AAC"/>
<path d="M163.035 263.305C162.85 263.305 162.709 263.155 162.709 262.979V255.099C162.709 254.914 162.859 254.764 163.035 254.764C163.211 254.764 163.361 254.914 163.361 255.099V262.979C163.361 263.164 163.211 263.305 163.035 263.305Z" fill="#2B5AAC"/>
<path d="M167.181 260.923C166.996 260.923 166.855 260.773 166.855 260.596V252.717C166.855 252.532 167.005 252.391 167.181 252.391C167.357 252.391 167.507 252.54 167.507 252.717V260.596C167.507 260.782 167.357 260.923 167.181 260.923Z" fill="#2B5AAC"/>
<path d="M171.327 258.54C171.143 258.54 171.002 258.39 171.002 258.214V243.611C171.002 243.426 171.151 243.285 171.327 243.285C171.503 243.285 171.653 243.435 171.653 243.611V258.214C171.653 258.399 171.503 258.54 171.327 258.54Z" fill="#2B5AAC"/>
<path d="M175.465 256.158C175.28 256.158 175.139 256.008 175.139 255.832V247.952C175.139 247.767 175.289 247.626 175.465 247.626C175.641 247.626 175.791 247.776 175.791 247.952V255.832C175.791 256.017 175.641 256.158 175.465 256.158Z" fill="#2B5AAC"/>
<path d="M179.611 253.776C179.426 253.776 179.285 253.626 179.285 253.449V245.57C179.285 245.385 179.435 245.243 179.611 245.243C179.787 245.243 179.937 245.393 179.937 245.57V253.449C179.937 253.635 179.787 253.776 179.611 253.776Z" fill="#2B5AAC"/>
<path d="M183.757 251.385C183.572 251.385 183.431 251.235 183.431 251.058V243.179C183.431 242.993 183.581 242.852 183.757 242.852C183.933 242.852 184.083 243.002 184.083 243.179V251.058C184.083 251.243 183.933 251.385 183.757 251.385Z" fill="#2B5AAC"/>
<path d="M187.895 249.002C187.71 249.002 187.569 248.852 187.569 248.676V240.796C187.569 240.611 187.719 240.461 187.895 240.461C188.071 240.461 188.221 240.611 188.221 240.796V248.676C188.221 248.861 188.071 249.002 187.895 249.002Z" fill="#2B5AAC"/>
<path d="M192.041 246.62C191.856 246.62 191.715 246.47 191.715 246.293V231.69C191.715 231.505 191.865 231.364 192.041 231.364C192.217 231.364 192.367 231.514 192.367 231.69V246.293C192.367 246.479 192.217 246.62 192.041 246.62Z" fill="#2B5AAC"/>
<path d="M196.178 244.238C195.993 244.238 195.844 244.088 195.844 243.911V236.032C195.844 235.846 195.993 235.705 196.178 235.705C196.363 235.705 196.513 235.855 196.513 236.032V243.911C196.513 244.096 196.363 244.238 196.178 244.238Z" fill="#2B5AAC"/>
<path d="M200.324 241.855C200.139 241.855 199.99 241.705 199.99 241.529V233.649C199.99 233.464 200.139 233.323 200.324 233.323C200.509 233.323 200.659 233.473 200.659 233.649V241.529C200.659 241.714 200.509 241.855 200.324 241.855Z" fill="#2B5AAC"/>
<path d="M204.47 239.473C204.286 239.473 204.145 239.323 204.145 239.138V231.258C204.145 231.073 204.294 230.932 204.47 230.932C204.647 230.932 204.796 231.082 204.796 231.258V239.138C204.796 239.323 204.647 239.473 204.47 239.473Z" fill="#2B5AAC"/>
<path d="M208.608 237.091C208.423 237.091 208.282 236.941 208.282 236.764V228.885C208.282 228.699 208.432 228.558 208.608 228.558C208.784 228.558 208.934 228.708 208.934 228.885V236.764C208.934 236.949 208.784 237.091 208.608 237.091Z" fill="#2B5AAC"/>
<path d="M212.754 234.708C212.569 234.708 212.428 234.558 212.428 234.382V219.779C212.428 219.593 212.578 219.452 212.754 219.452C212.93 219.452 213.08 219.602 213.08 219.779V234.382C213.08 234.567 212.93 234.708 212.754 234.708Z" fill="#2B5AAC"/>
<path d="M328.927 152.208C328.813 152.208 328.698 152.146 328.637 152.04C328.549 151.882 328.601 151.679 328.76 151.59L349.473 139.679C349.632 139.59 349.834 139.643 349.922 139.802C350.01 139.961 349.957 140.164 349.799 140.252L329.086 152.164C329.033 152.19 328.98 152.208 328.918 152.208H328.927Z" fill="#2B5AAC"/>
<path d="M328.927 35.1463C328.813 35.1463 328.698 35.0846 328.637 34.9787C328.549 34.8199 328.601 34.6169 328.76 34.5287L349.473 22.6169C349.632 22.5287 349.834 22.5816 349.922 22.7405C350.01 22.8993 349.957 23.1022 349.799 23.1905L329.086 35.1022C329.033 35.1287 328.98 35.1463 328.918 35.1463H328.927Z" fill="#2B5AAC"/>
<path d="M346.463 140.19C346.278 140.19 346.137 140.04 346.137 139.864V27.7081C346.137 27.5228 346.287 27.3816 346.463 27.3816C346.639 27.3816 346.788 27.5316 346.788 27.7081V139.855C346.788 140.04 346.639 140.182 346.463 140.182V140.19Z" fill="#2B5AAC"/>
<path d="M340.591 43.9787C340.591 43.9787 340.521 43.9787 340.486 43.961C340.309 43.8993 340.221 43.714 340.283 43.5375L346.155 26.7199C346.199 26.5963 346.304 26.5081 346.436 26.4993C346.56 26.4905 346.692 26.5522 346.753 26.6581L352.625 36.7081C352.722 36.8669 352.66 37.0699 352.51 37.1581C352.352 37.2463 352.149 37.1934 352.061 37.0434L346.551 27.611L340.908 43.7581C340.864 43.8905 340.732 43.9787 340.6 43.9787H340.591Z" fill="#2B5AAC"/>
<path d="M346.463 139.749C346.348 139.749 346.234 139.687 346.181 139.582L340.309 129.532C340.212 129.373 340.274 129.17 340.424 129.082C340.582 128.993 340.785 129.046 340.873 129.196L346.392 138.629L352.035 122.482C352.097 122.314 352.281 122.217 352.457 122.279C352.634 122.34 352.722 122.526 352.66 122.702L346.788 139.52C346.744 139.643 346.639 139.732 346.507 139.74C346.498 139.74 346.489 139.74 346.471 139.74L346.463 139.749Z" fill="#2B5AAC"/>
<path d="M12.442 218.252C12.3276 218.252 12.2132 218.19 12.1515 218.085C12.0635 217.926 12.1163 217.723 12.2748 217.635L32.9882 205.723C33.1467 205.626 33.3491 205.688 33.4372 205.846C33.5252 206.005 33.4724 206.208 33.3139 206.296L12.6005 218.208C12.5477 218.235 12.4949 218.252 12.4332 218.252H12.442Z" fill="#2B5AAC"/>
<path d="M12.442 60.4787C12.3276 60.4787 12.2132 60.4169 12.1515 60.3111C12.0635 60.1522 12.1163 59.9493 12.2748 59.8611L32.9882 47.9493C33.1467 47.8611 33.3491 47.914 33.4372 48.0728C33.5252 48.2317 33.4724 48.4346 33.3139 48.5228L12.6005 60.4346C12.5477 60.4611 12.4949 60.4787 12.4332 60.4787H12.442Z" fill="#2B5AAC"/>
<path d="M29.9776 203.817C29.7927 203.817 29.6519 203.667 29.6519 203.49V53.7111C29.6519 53.5258 29.8015 53.3846 29.9776 53.3846C30.1536 53.3846 30.3033 53.5346 30.3033 53.7111V203.49C30.3033 203.676 30.1536 203.817 29.9776 203.817Z" fill="#2B5AAC"/>
<path d="M24.0972 71.0846C24.0972 71.0846 24.0268 71.0846 23.9916 71.067C23.8155 71.0052 23.7275 70.8199 23.7891 70.6434L29.6607 53.8258C29.7047 53.7023 29.8104 53.614 29.9424 53.6052C30.0745 53.5876 30.1977 53.6582 30.2593 53.764L36.1309 63.814C36.219 63.9729 36.1661 64.1758 36.0165 64.264C35.858 64.3523 35.6556 64.2993 35.5675 64.1493L30.0569 54.717L24.4141 70.864C24.3701 70.9964 24.2381 71.0846 24.106 71.0846H24.0972Z" fill="#2B5AAC"/>
<path d="M29.9777 204.135C29.8633 204.135 29.7489 204.073 29.6961 203.967L23.8245 193.908C23.7364 193.749 23.7892 193.546 23.9389 193.458C24.0973 193.361 24.2998 193.414 24.3878 193.573L29.8985 203.014L35.5412 186.858C35.6029 186.682 35.7877 186.593 35.9638 186.655C36.1398 186.717 36.2279 186.902 36.1662 187.079L30.2947 203.905C30.2506 204.029 30.145 204.117 30.013 204.126C30.0042 204.126 29.9954 204.126 29.9777 204.126V204.135Z" fill="#2B5AAC"/>
<path d="M166.239 117.805C166.054 117.805 165.913 117.655 165.913 117.479V102.876C165.913 102.69 166.063 102.549 166.239 102.549C166.415 102.549 166.565 102.699 166.565 102.876V117.479C166.565 117.664 166.415 117.805 166.239 117.805Z" fill="#2B5AAC"/>
<path d="M170.385 115.423C170.2 115.423 170.06 115.273 170.06 115.096V107.217C170.06 107.032 170.209 106.89 170.385 106.89C170.561 106.89 170.711 107.04 170.711 107.217V115.096C170.711 115.282 170.561 115.423 170.385 115.423Z" fill="#2B5AAC"/>
<path d="M174.523 113.04C174.338 113.04 174.197 112.89 174.197 112.714V104.835C174.197 104.649 174.347 104.508 174.523 104.508C174.699 104.508 174.848 104.658 174.848 104.835V112.714C174.848 112.899 174.699 113.04 174.523 113.04Z" fill="#2B5AAC"/>
<path d="M178.669 110.658C178.484 110.658 178.343 110.508 178.343 110.332V102.452C178.343 102.267 178.493 102.126 178.669 102.126C178.845 102.126 178.995 102.276 178.995 102.452V110.332C178.995 110.517 178.845 110.658 178.669 110.658Z" fill="#2B5AAC"/>
<path d="M182.806 108.276C182.621 108.276 182.48 108.126 182.48 107.949V100.07C182.48 99.8846 182.63 99.7434 182.806 99.7434C182.982 99.7434 183.132 99.8934 183.132 100.07V107.949C183.132 108.135 182.982 108.276 182.806 108.276Z" fill="#2B5AAC"/>
<path d="M186.952 105.893C186.768 105.893 186.627 105.743 186.627 105.567V90.964C186.627 90.7787 186.776 90.6375 186.952 90.6375C187.128 90.6375 187.278 90.7875 187.278 90.964V105.567C187.278 105.752 187.128 105.893 186.952 105.893Z" fill="#2B5AAC"/>
<path d="M191.099 103.502C190.914 103.502 190.773 103.352 190.773 103.176V95.2963C190.773 95.1111 190.923 94.9699 191.099 94.9699C191.275 94.9699 191.424 95.1199 191.424 95.2963V103.176C191.424 103.361 191.275 103.502 191.099 103.502Z" fill="#2B5AAC"/>
<path d="M195.236 101.12C195.051 101.12 194.91 100.97 194.91 100.793V92.914C194.91 92.7287 195.06 92.5875 195.236 92.5875C195.412 92.5875 195.562 92.7375 195.562 92.914V100.793C195.562 100.979 195.412 101.12 195.236 101.12Z" fill="#2B5AAC"/>
<path d="M199.382 98.7375C199.197 98.7375 199.057 98.5875 199.057 98.411V90.5316C199.057 90.3463 199.206 90.2052 199.382 90.2052C199.558 90.2052 199.708 90.3552 199.708 90.5316V98.411C199.708 98.5963 199.558 98.7375 199.382 98.7375Z" fill="#2B5AAC"/>
<path d="M203.529 96.3552C203.344 96.3552 203.203 96.2052 203.203 96.0287V88.1493C203.203 87.964 203.353 87.8228 203.529 87.8228C203.705 87.8228 203.854 87.9728 203.854 88.1493V96.0287C203.854 96.214 203.705 96.3552 203.529 96.3552Z" fill="#2B5AAC"/>
<path d="M207.666 93.9728C207.481 93.9728 207.34 93.8228 207.34 93.6464V79.0434C207.34 78.8581 207.49 78.7169 207.666 78.7169C207.842 78.7169 207.992 78.867 207.992 79.0434V93.6464C207.992 93.8317 207.842 93.9728 207.666 93.9728Z" fill="#2B5AAC"/>
<path d="M211.812 91.5905C211.627 91.5905 211.486 91.4405 211.486 91.264V83.3846C211.486 83.1993 211.636 83.0581 211.812 83.0581C211.988 83.0581 212.138 83.2081 212.138 83.3846V91.264C212.138 91.4493 211.988 91.5905 211.812 91.5905Z" fill="#2B5AAC"/>
<path d="M215.949 89.2081C215.765 89.2081 215.624 89.0581 215.624 88.8817V81.0023C215.624 80.817 215.773 80.6758 215.949 80.6758C216.126 80.6758 216.275 80.8258 216.275 81.0023V88.8817C216.275 89.067 216.126 89.2081 215.949 89.2081Z" fill="#2B5AAC"/>
<path d="M220.096 86.8258C219.911 86.8258 219.761 86.6758 219.761 86.4905V78.6111C219.761 78.4258 219.911 78.2846 220.096 78.2846C220.281 78.2846 220.43 78.4346 220.43 78.6111V86.4905C220.43 86.6758 220.281 86.8258 220.096 86.8258Z" fill="#2B5AAC"/>
<path d="M224.242 84.4434C224.057 84.4434 223.907 84.2934 223.907 84.117V76.2375C223.907 76.0523 224.057 75.9111 224.242 75.9111C224.427 75.9111 224.576 76.0611 224.576 76.2375V84.117C224.576 84.3023 224.427 84.4434 224.242 84.4434Z" fill="#2B5AAC"/>
<path d="M228.379 82.0522C228.195 82.0522 228.054 81.9022 228.054 81.7258V67.1228C228.054 66.9375 228.203 66.7964 228.379 66.7964C228.555 66.7964 228.705 66.9464 228.705 67.1228V81.7258C228.705 81.9111 228.555 82.0522 228.379 82.0522Z" fill="#2B5AAC"/>
<path d="M232.526 79.6699C232.341 79.6699 232.2 79.5199 232.2 79.3346V71.4552C232.2 71.2699 232.35 71.1287 232.526 71.1287C232.702 71.1287 232.851 71.2787 232.851 71.4552V79.3346C232.851 79.5199 232.702 79.6699 232.526 79.6699Z" fill="#2B5AAC"/>
<path d="M236.672 77.2875C236.487 77.2875 236.346 77.1375 236.346 76.9611V69.0817C236.346 68.8964 236.496 68.7552 236.672 68.7552C236.848 68.7552 236.998 68.9052 236.998 69.0817V76.9611C236.998 77.1464 236.848 77.2875 236.672 77.2875Z" fill="#2B5AAC"/>
<path d="M240.809 74.9052C240.624 74.9052 240.483 74.7552 240.483 74.5787V66.6993C240.483 66.514 240.633 66.3728 240.809 66.3728C240.985 66.3728 241.135 66.5228 241.135 66.6993V74.5787C241.135 74.764 240.985 74.9052 240.809 74.9052Z" fill="#2B5AAC"/>
<path d="M244.955 72.5228C244.77 72.5228 244.63 72.3728 244.63 72.1964V64.3169C244.63 64.1317 244.779 63.9905 244.955 63.9905C245.131 63.9905 245.281 64.1405 245.281 64.3169V72.1964C245.281 72.3817 245.131 72.5228 244.955 72.5228Z" fill="#2B5AAC"/>
<path d="M249.093 70.1405C248.908 70.1405 248.767 69.9905 248.767 69.814V55.2111C248.767 55.0258 248.917 54.8846 249.093 54.8846C249.269 54.8846 249.419 55.0346 249.419 55.2111V69.814C249.419 69.9993 249.269 70.1405 249.093 70.1405Z" fill="#2B5AAC"/>
<path d="M253.239 67.7581C253.054 67.7581 252.913 67.6081 252.913 67.4317V59.5522C252.913 59.3669 253.063 59.2169 253.239 59.2169C253.415 59.2169 253.565 59.3669 253.565 59.5522V67.4317C253.565 67.6169 253.415 67.7581 253.239 67.7581Z" fill="#2B5AAC"/>
<path d="M257.385 65.3758C257.2 65.3758 257.06 65.2258 257.06 65.0493V57.1699C257.06 56.9846 257.209 56.8434 257.385 56.8434C257.561 56.8434 257.711 56.9934 257.711 57.1699V65.0493C257.711 65.2346 257.561 65.3758 257.385 65.3758Z" fill="#2B5AAC"/>
<path d="M261.523 62.9846C261.338 62.9846 261.197 62.8346 261.197 62.6581V54.7787C261.197 54.5934 261.347 54.4522 261.523 54.4522C261.699 54.4522 261.848 54.6022 261.848 54.7787V62.6581C261.848 62.8434 261.699 62.9846 261.523 62.9846Z" fill="#2B5AAC"/>
<path d="M265.669 60.6022C265.484 60.6022 265.343 60.4522 265.343 60.2758V52.3964C265.343 52.2111 265.493 52.0699 265.669 52.0699C265.845 52.0699 265.994 52.2199 265.994 52.3964V60.2758C265.994 60.4611 265.845 60.6022 265.669 60.6022Z" fill="#2B5AAC"/>
<path d="M269.815 58.2199C269.63 58.2199 269.489 58.0699 269.489 57.8846V43.2816C269.489 43.0963 269.639 42.9552 269.815 42.9552C269.991 42.9552 270.141 43.1052 270.141 43.2816V57.8846C270.141 58.0699 269.991 58.2199 269.815 58.2199Z" fill="#2B5AAC"/>
<path d="M273.952 55.8375C273.768 55.8375 273.627 55.6875 273.627 55.5111V47.6316C273.627 47.4464 273.776 47.3052 273.952 47.3052C274.128 47.3052 274.278 47.4552 274.278 47.6316V55.5111C274.278 55.6964 274.128 55.8375 273.952 55.8375Z" fill="#2B5AAC"/>
<path d="M278.099 53.4552C277.914 53.4552 277.773 53.3052 277.773 53.1287V45.2493C277.773 45.064 277.923 44.9228 278.099 44.9228C278.275 44.9228 278.424 45.0728 278.424 45.2493V53.1287C278.424 53.314 278.275 53.4552 278.099 53.4552Z" fill="#2B5AAC"/>
<path d="M282.236 51.0728C282.051 51.0728 281.91 50.9228 281.91 50.7463V42.8669C281.91 42.6816 282.06 42.5405 282.236 42.5405C282.412 42.5405 282.562 42.6905 282.562 42.8669V50.7463C282.562 50.9316 282.412 51.0728 282.236 51.0728Z" fill="#2B5AAC"/>
<path d="M286.382 48.6905C286.197 48.6905 286.057 48.5405 286.057 48.364V40.4846C286.057 40.2993 286.206 40.1581 286.382 40.1581C286.558 40.1581 286.708 40.3081 286.708 40.4846V48.364C286.708 48.5493 286.558 48.6905 286.382 48.6905Z" fill="#2B5AAC"/>
<path d="M290.529 46.3081C290.344 46.3081 290.203 46.1581 290.203 45.9817V31.3787C290.203 31.1934 290.353 31.0522 290.529 31.0522C290.705 31.0522 290.854 31.2022 290.854 31.3787V45.9817C290.854 46.167 290.705 46.3081 290.529 46.3081Z" fill="#2B5AAC"/>
<path d="M294.666 43.9258C294.481 43.9258 294.34 43.7758 294.34 43.5905V35.7111C294.34 35.5258 294.49 35.3846 294.666 35.3846C294.842 35.3846 294.992 35.5346 294.992 35.7111V43.5905C294.992 43.7758 294.842 43.9258 294.666 43.9258Z" fill="#2B5AAC"/>
<path d="M298.812 41.5346C298.627 41.5346 298.486 41.3846 298.486 41.2081V33.3287C298.486 33.1434 298.636 33.0022 298.812 33.0022C298.988 33.0022 299.138 33.1522 299.138 33.3287V41.2081C299.138 41.3934 298.988 41.5346 298.812 41.5346Z" fill="#2B5AAC"/>
<path d="M302.958 39.1522C302.773 39.1522 302.624 39.0022 302.624 38.8258V30.9463C302.624 30.761 302.773 30.6199 302.958 30.6199C303.143 30.6199 303.293 30.7699 303.293 30.9463V38.8258C303.293 39.011 303.143 39.1522 302.958 39.1522Z" fill="#2B5AAC"/>
<path d="M307.096 36.7699C306.911 36.7699 306.761 36.6199 306.761 36.4434V28.564C306.761 28.3787 306.911 28.2375 307.096 28.2375C307.281 28.2375 307.43 28.3875 307.43 28.564V36.4434C307.43 36.6287 307.281 36.7699 307.096 36.7699Z" fill="#2B5AAC"/>
<path d="M311.242 34.3875C311.057 34.3875 310.916 34.2375 310.916 34.0611V19.4581C310.916 19.2728 311.066 19.1317 311.242 19.1317C311.418 19.1317 311.568 19.2817 311.568 19.4581V34.0611C311.568 34.2464 311.418 34.3875 311.242 34.3875Z" fill="#2B5AAC"/>
<path d="M315.379 32.0052C315.195 32.0052 315.054 31.8552 315.054 31.6787V23.7993C315.054 23.614 315.203 23.4728 315.379 23.4728C315.555 23.4728 315.705 23.6228 315.705 23.7993V31.6787C315.705 31.864 315.555 32.0052 315.379 32.0052Z" fill="#2B5AAC"/>
<path d="M319.526 29.6228C319.341 29.6228 319.2 29.4728 319.2 29.2964V21.417C319.2 21.2317 319.35 21.0905 319.526 21.0905C319.702 21.0905 319.851 21.2405 319.851 21.417V29.2964C319.851 29.4817 319.702 29.6228 319.526 29.6228Z" fill="#2B5AAC"/>
<path d="M323.672 27.2405C323.487 27.2405 323.346 27.0905 323.346 26.914V19.0346C323.346 18.8493 323.496 18.6993 323.672 18.6993C323.848 18.6993 323.997 18.8493 323.997 19.0346V26.914C323.997 27.0993 323.848 27.2405 323.672 27.2405Z" fill="#2B5AAC"/>
<path d="M327.809 24.8581C327.624 24.8581 327.483 24.7081 327.483 24.5317V16.6522C327.483 16.467 327.633 16.3258 327.809 16.3258C327.985 16.3258 328.135 16.4758 328.135 16.6522V24.5317C328.135 24.717 327.985 24.8581 327.809 24.8581Z" fill="#2B5AAC"/>
<path d="M331.955 22.4758C331.77 22.4758 331.63 22.3258 331.63 22.1493V7.53753C331.63 7.35224 331.779 7.20224 331.955 7.20224C332.131 7.20224 332.281 7.35224 332.281 7.53753V22.1405C332.281 22.3258 332.131 22.4669 331.955 22.4669V22.4758Z" fill="#2B5AAC"/>
<path d="M292.518 108.161C292.456 108.161 292.404 108.143 292.351 108.117L273.372 96.9816C273.275 96.9287 273.213 96.8228 273.204 96.7081L273.099 93.4699C273.099 93.3463 273.16 93.2405 273.257 93.1787C273.363 93.1169 273.486 93.1169 273.592 93.1787L292.509 104.208L331.991 81.3993C332.096 81.3375 332.22 81.3375 332.325 81.3993C332.431 81.4611 332.492 81.5669 332.492 81.6905V85.2199C332.484 85.3346 332.413 85.4493 332.316 85.5022L292.685 108.135C292.632 108.161 292.58 108.179 292.518 108.179V108.161ZM273.865 96.4963L292.518 107.446L331.823 85.0081V82.2463L292.685 104.87C292.58 104.932 292.456 104.932 292.351 104.87L273.776 94.0434L273.856 96.4963H273.865Z" fill="#2B5AAC"/>
<path d="M292.518 104.905C292.456 104.905 292.404 104.888 292.351 104.861L273.266 93.7346C273.16 93.6728 273.099 93.5669 273.099 93.4434C273.099 93.3199 273.16 93.214 273.266 93.161L312.959 70.2905C313.064 70.2287 313.187 70.2287 313.284 70.2905L332.325 81.3728C332.431 81.4346 332.492 81.5405 332.492 81.6552C332.492 81.7699 332.431 81.8846 332.325 81.9375L292.677 104.843C292.624 104.87 292.571 104.888 292.509 104.888L292.518 104.905ZM274.093 93.4522L292.518 104.19L331.506 81.664L313.126 70.961L274.093 93.4522Z" fill="#2B5AAC"/>
<path d="M292.518 108.161C292.456 108.161 292.404 108.143 292.351 108.117L273.266 96.9817C273.16 96.9199 273.099 96.814 273.099 96.6993V93.4611C273.099 93.3464 273.16 93.2317 273.266 93.1699C273.372 93.1081 273.495 93.1081 273.592 93.1699L292.677 104.296C292.782 104.358 292.844 104.464 292.844 104.579V107.835C292.844 107.949 292.782 108.064 292.677 108.126C292.624 108.152 292.571 108.17 292.509 108.17L292.518 108.161ZM273.759 96.4964L292.184 107.252V104.764L273.759 94.0258V96.4964Z" fill="#2B5AAC"/>
<path d="M208.405 131.085C208.344 131.085 208.291 131.067 208.238 131.04L189.259 119.905C189.162 119.852 189.101 119.746 189.092 119.632L188.986 116.393C188.986 116.27 189.048 116.164 189.145 116.102C189.25 116.04 189.373 116.04 189.479 116.102L208.397 127.132L262.685 95.464C262.79 95.4023 262.914 95.4023 263.019 95.464C263.125 95.5258 263.187 95.6317 263.187 95.7552V99.2846C263.178 99.3993 263.107 99.514 263.01 99.567L208.573 131.058C208.52 131.085 208.467 131.102 208.405 131.102V131.085ZM189.752 119.42L208.405 130.37L262.517 99.0728V96.3111L208.573 127.785C208.467 127.846 208.344 127.846 208.238 127.785L189.664 116.967L189.743 119.42H189.752Z" fill="#2B5AAC"/>
<path d="M208.405 127.838C208.344 127.838 208.291 127.82 208.238 127.793L189.153 116.667C189.048 116.605 188.986 116.499 188.986 116.385C188.986 116.27 189.048 116.155 189.153 116.102L243.653 84.3728C243.758 84.3111 243.882 84.3111 243.987 84.3728L263.028 95.4552C263.134 95.5169 263.195 95.6228 263.195 95.7375C263.195 95.8522 263.134 95.9669 263.028 96.0199L208.573 127.785C208.52 127.811 208.467 127.829 208.405 127.829V127.838ZM189.972 116.385L208.405 127.123L262.201 95.7375L243.82 85.0346L189.981 116.376L189.972 116.385Z" fill="#2B5AAC"/>
<path d="M208.405 131.085C208.344 131.085 208.291 131.067 208.238 131.04L189.153 119.905C189.048 119.843 188.986 119.738 188.986 119.623V116.385C188.986 116.27 189.048 116.155 189.153 116.093C189.259 116.032 189.382 116.032 189.479 116.093L208.564 127.22C208.67 127.282 208.731 127.388 208.731 127.502V130.749C208.731 130.864 208.67 130.979 208.564 131.04C208.511 131.067 208.458 131.085 208.397 131.085H208.405ZM189.646 119.429L208.071 130.185V127.696L189.646 116.958V119.429Z" fill="#2B5AAC"/>
<path d="M91.352 283.714C91.2904 283.714 91.2376 283.696 91.1848 283.67L72.2055 272.535C72.1087 272.482 72.0471 272.376 72.0383 272.261L71.9326 269.023C71.9326 268.899 71.9942 268.793 72.0911 268.732C72.1967 268.67 72.3199 268.67 72.4256 268.732L91.3432 279.761L130.825 256.943C130.93 256.882 131.054 256.882 131.159 256.943C131.265 257.005 131.326 257.111 131.326 257.235V260.764C131.318 260.879 131.247 260.993 131.15 261.055L91.5193 283.688C91.4665 283.714 91.4136 283.732 91.352 283.732V283.714ZM72.6985 272.049L91.352 282.999L130.657 260.561V257.799L91.5193 280.423C91.4136 280.485 91.2904 280.485 91.1848 280.423L72.6104 269.605L72.6897 272.058L72.6985 272.049Z" fill="#2B5AAC"/>
<path d="M91.352 280.467C91.2992 280.467 91.2376 280.449 91.1848 280.423L72.0999 269.296C71.9942 269.235 71.9326 269.129 71.9326 269.005C71.9326 268.882 71.9942 268.776 72.0999 268.723L111.793 245.852C111.898 245.79 112.021 245.79 112.127 245.852L131.168 256.935C131.274 256.996 131.335 257.102 131.335 257.226C131.335 257.349 131.274 257.455 131.168 257.508L91.5193 280.414C91.4665 280.44 91.4136 280.458 91.352 280.458V280.467ZM72.9274 269.014L91.352 279.752L130.34 257.226L111.96 246.523L72.9274 269.014Z" fill="#2B5AAC"/>
<path d="M91.352 283.714C91.2904 283.714 91.2376 283.696 91.1848 283.67L72.0999 272.535C71.9942 272.473 71.9326 272.367 71.9326 272.252V269.014C71.9326 268.899 71.9942 268.785 72.0999 268.723C72.2055 268.661 72.3288 268.661 72.4344 268.723L91.5193 279.849C91.6249 279.911 91.6865 280.017 91.6865 280.132V283.379C91.6865 283.493 91.6249 283.608 91.5193 283.67C91.4665 283.696 91.4136 283.714 91.352 283.714ZM72.5928 272.058L91.0175 282.814V280.326L72.5928 269.588V272.058Z" fill="#2B5AAC"/>
<path d="M28.3842 253.767C28.3226 253.767 28.2698 253.749 28.217 253.723L9.23774 242.588C9.1409 242.535 9.07928 242.429 9.07048 242.314L8.96484 239.076C8.96484 238.952 9.02646 238.846 9.1233 238.785C9.22893 238.723 9.35217 238.723 9.45781 238.785L28.3754 249.814L67.8569 226.996C67.9625 226.935 68.0857 226.935 68.1914 226.996C68.297 227.058 68.3586 227.164 68.3586 227.288V230.817C68.3498 230.932 68.2794 231.046 68.1826 231.108L28.5515 253.741C28.4987 253.767 28.4459 253.785 28.3842 253.785V253.767ZM9.7307 242.102L28.3842 253.052L67.6896 230.614V227.852L28.5515 250.476C28.4459 250.538 28.3226 250.538 28.217 250.476L9.64267 239.658L9.7219 242.111L9.7307 242.102Z" fill="#2B5AAC"/>
<path d="M28.3842 250.52C28.3314 250.52 28.2698 250.502 28.217 250.476L9.1321 239.349C9.02646 239.288 8.96484 239.182 8.96484 239.058C8.96484 238.935 9.02646 238.829 9.1321 238.776L48.8248 215.905C48.9304 215.843 49.0537 215.843 49.1593 215.905L68.2002 226.988C68.3058 227.049 68.3674 227.155 68.3674 227.279C68.3674 227.402 68.3058 227.508 68.2002 227.561L28.5515 250.467C28.4987 250.493 28.4459 250.511 28.3842 250.511V250.52ZM9.95958 239.067L28.3842 249.805L67.3727 227.279L48.992 216.576L9.95958 239.067Z" fill="#2B5AAC"/>
<path d="M28.3842 253.767C28.3226 253.767 28.2698 253.749 28.217 253.723L9.1321 242.588C9.02646 242.526 8.96484 242.42 8.96484 242.305V239.067C8.96484 238.952 9.02646 238.838 9.1321 238.776C9.23774 238.714 9.36098 238.714 9.46661 238.776L28.5515 249.902C28.6571 249.964 28.7188 250.07 28.7188 250.185V253.441C28.7188 253.555 28.6571 253.67 28.5515 253.732C28.4987 253.758 28.4459 253.776 28.3842 253.776V253.767ZM9.62507 242.102L28.0497 252.858V250.37L9.62507 239.632V242.102Z" fill="#2B5AAC"/>
<path d="M9.58108 178.626C9.39622 178.626 9.25537 178.476 9.25537 178.299V157.688C9.25537 157.502 9.40502 157.361 9.58108 157.361C9.75714 157.361 9.90679 157.511 9.90679 157.688V178.299C9.90679 178.485 9.75714 178.626 9.58108 178.626Z" fill="#42B72A"/>
<path d="M15.4263 175.255C15.2414 175.255 15.1006 175.105 15.1006 174.929V163.811C15.1006 163.626 15.2502 163.485 15.4263 163.485C15.6024 163.485 15.752 163.635 15.752 163.811V174.929C15.752 175.114 15.6024 175.255 15.4263 175.255Z" fill="#42B72A"/>
<path d="M21.2803 171.893C21.0954 171.893 20.9546 171.743 20.9546 171.567V160.44C20.9546 160.255 21.1042 160.114 21.2803 160.114C21.4564 160.114 21.606 160.264 21.606 160.44V171.567C21.606 171.752 21.4564 171.893 21.2803 171.893Z" fill="#42B72A"/>
<path d="M27.1255 168.532C26.9407 168.532 26.791 168.382 26.791 168.205V157.088C26.791 156.902 26.9407 156.761 27.1255 156.761C27.3104 156.761 27.46 156.911 27.46 157.088V168.205C27.46 168.39 27.3104 168.532 27.1255 168.532Z" fill="#42B72A"/>
<path d="M32.9795 165.17C32.7947 165.17 32.6538 165.02 32.6538 164.843V153.726C32.6538 153.54 32.8035 153.399 32.9795 153.399C33.1556 153.399 33.3052 153.549 33.3052 153.726V164.843C33.3052 165.029 33.1556 165.17 32.9795 165.17Z" fill="#42B72A"/>
<path d="M38.8247 161.799C38.6399 161.799 38.499 161.649 38.499 161.473V140.861C38.499 140.676 38.6487 140.535 38.8247 140.535C39.0008 140.535 39.1504 140.685 39.1504 140.861V161.473C39.1504 161.658 39.0008 161.799 38.8247 161.799Z" fill="#42B72A"/>
<path d="M44.6697 158.438C44.4848 158.438 44.344 158.288 44.344 158.111V146.993C44.344 146.808 44.4936 146.667 44.6697 146.667C44.8458 146.667 44.9954 146.817 44.9954 146.993V158.111C44.9954 158.296 44.8458 158.438 44.6697 158.438Z" fill="#42B72A"/>
<path d="M50.5237 155.067C50.3388 155.067 50.198 154.917 50.198 154.74V143.623C50.198 143.437 50.3476 143.296 50.5237 143.296C50.6998 143.296 50.8494 143.446 50.8494 143.623V154.74C50.8494 154.926 50.6998 155.067 50.5237 155.067Z" fill="#42B72A"/>
<path d="M56.3689 151.705C56.1841 151.705 56.0432 151.555 56.0432 151.379V140.261C56.0432 140.076 56.1929 139.935 56.3689 139.935C56.545 139.935 56.6946 140.085 56.6946 140.261V151.379C56.6946 151.564 56.545 151.705 56.3689 151.705Z" fill="#42B72A"/>
<path d="M62.2229 148.343C62.0381 148.343 61.8972 148.193 61.8972 148.017V136.899C61.8972 136.714 62.0469 136.573 62.2229 136.573C62.399 136.573 62.5486 136.723 62.5486 136.899V148.017C62.5486 148.202 62.399 148.343 62.2229 148.343Z" fill="#42B72A"/>
<path d="M68.0681 144.982C67.8833 144.982 67.7424 144.832 67.7424 144.655V124.043C67.7424 123.858 67.8921 123.717 68.0681 123.717C68.2442 123.717 68.3939 123.867 68.3939 124.043V144.655C68.3939 144.84 68.2442 144.982 68.0681 144.982Z" fill="#42B72A"/>
<path d="M73.9134 141.611C73.7285 141.611 73.5876 141.461 73.5876 141.276V130.158C73.5876 129.973 73.7373 129.832 73.9134 129.832C74.0894 129.832 74.2391 129.982 74.2391 130.158V141.276C74.2391 141.461 74.0894 141.611 73.9134 141.611Z" fill="#42B72A"/>
<path d="M79.7674 138.249C79.5825 138.249 79.4417 138.099 79.4417 137.923V126.805C79.4417 126.62 79.5913 126.479 79.7674 126.479C79.9434 126.479 80.0931 126.629 80.0931 126.805V137.923C80.0931 138.108 79.9434 138.249 79.7674 138.249Z" fill="#42B72A"/>
<path d="M85.6126 134.888C85.4277 134.888 85.2869 134.738 85.2869 134.561V123.443C85.2869 123.258 85.4365 123.117 85.6126 123.117C85.7886 123.117 85.9383 123.267 85.9383 123.443V134.561C85.9383 134.746 85.7886 134.888 85.6126 134.888Z" fill="#42B72A"/>
<path d="M91.4666 131.517C91.2817 131.517 91.1321 131.367 91.1321 131.19V120.073C91.1321 119.888 91.2817 119.746 91.4666 119.746C91.6515 119.746 91.8011 119.896 91.8011 120.073V131.19C91.8011 131.376 91.6515 131.517 91.4666 131.517Z" fill="#42B72A"/>
<path d="M97.3118 128.155C97.1269 128.155 96.9861 128.005 96.9861 127.829V107.217C96.9861 107.032 97.1357 106.882 97.3118 106.882C97.4879 106.882 97.6375 107.032 97.6375 107.217V127.829C97.6375 128.014 97.4879 128.155 97.3118 128.155Z" fill="#42B72A"/>
<path d="M103.157 124.793C102.972 124.793 102.831 124.643 102.831 124.467V113.349C102.831 113.164 102.981 113.023 103.157 113.023C103.333 113.023 103.482 113.173 103.482 113.349V124.467C103.482 124.652 103.333 124.793 103.157 124.793Z" fill="#42B72A"/>
<path d="M109.011 121.423C108.826 121.423 108.685 121.273 108.685 121.096V109.979C108.685 109.793 108.835 109.652 109.011 109.652C109.187 109.652 109.336 109.802 109.336 109.979V121.096C109.336 121.282 109.187 121.423 109.011 121.423Z" fill="#42B72A"/>
<path d="M114.856 118.061C114.671 118.061 114.53 117.911 114.53 117.735V106.617C114.53 106.432 114.68 106.29 114.856 106.29C115.032 106.29 115.182 106.44 115.182 106.617V117.735C115.182 117.92 115.032 118.061 114.856 118.061Z" fill="#42B72A"/>
<path d="M120.701 114.699C120.516 114.699 120.375 114.549 120.375 114.373V103.255C120.375 103.07 120.525 102.929 120.701 102.929C120.877 102.929 121.027 103.079 121.027 103.255V114.373C121.027 114.558 120.877 114.699 120.701 114.699Z" fill="#42B72A"/>
<path d="M126.555 111.329C126.37 111.329 126.229 111.179 126.229 111.002V90.3905C126.229 90.2052 126.379 90.064 126.555 90.064C126.731 90.064 126.881 90.214 126.881 90.3905V111.002C126.881 111.188 126.731 111.329 126.555 111.329Z" fill="#42B72A"/>
<path d="M132.4 107.967C132.216 107.967 132.075 107.817 132.075 107.64V96.5228C132.075 96.3375 132.224 96.1875 132.4 96.1875C132.576 96.1875 132.726 96.3375 132.726 96.5228V107.64C132.726 107.826 132.576 107.967 132.4 107.967Z" fill="#42B72A"/>
<path d="M138.254 104.605C138.07 104.605 137.929 104.455 137.929 104.27V93.1522C137.929 92.9669 138.078 92.8257 138.254 92.8257C138.43 92.8257 138.58 92.9757 138.58 93.1522V104.27C138.58 104.455 138.43 104.605 138.254 104.605Z" fill="#42B72A"/>
<path d="M144.1 101.235C143.915 101.235 143.774 101.085 143.774 100.899V89.7816C143.774 89.5963 143.924 89.4464 144.1 89.4464C144.276 89.4464 144.425 89.5963 144.425 89.7816V100.899C144.425 101.085 144.276 101.235 144.1 101.235Z" fill="#42B72A"/>
<path d="M149.945 97.8728C149.76 97.8728 149.619 97.7228 149.619 97.5463V86.4287C149.619 86.2434 149.769 86.0934 149.945 86.0934C150.121 86.0934 150.271 86.2434 150.271 86.4287V97.5463C150.271 97.7316 150.121 97.8728 149.945 97.8728Z" fill="#42B72A"/>
<path d="M155.799 94.511C155.614 94.511 155.473 94.361 155.473 94.1846V73.5728C155.473 73.3875 155.623 73.2463 155.799 73.2463C155.975 73.2463 156.125 73.3963 156.125 73.5728V94.1846C156.125 94.3699 155.975 94.511 155.799 94.511Z" fill="#42B72A"/>
<path d="M161.644 91.1405C161.459 91.1405 161.318 90.9905 161.318 90.8052V79.6875C161.318 79.5022 161.468 79.3611 161.644 79.3611C161.82 79.3611 161.97 79.5111 161.97 79.6875V90.8052C161.97 90.9905 161.82 91.1405 161.644 91.1405Z" fill="#42B72A"/>
<path d="M167.498 87.7787C167.313 87.7787 167.172 87.6287 167.172 87.4522V76.3346C167.172 76.1493 167.322 76.0081 167.498 76.0081C167.674 76.0081 167.824 76.1581 167.824 76.3346V87.4522C167.824 87.6375 167.674 87.7787 167.498 87.7787Z" fill="#42B72A"/>
<path d="M173.343 84.4169C173.158 84.4169 173.017 84.267 173.017 84.0905V72.9728C173.017 72.7875 173.167 72.6464 173.343 72.6464C173.519 72.6464 173.669 72.7964 173.669 72.9728V84.0905C173.669 84.2758 173.519 84.4169 173.343 84.4169Z" fill="#42B72A"/>
<path d="M179.188 81.0463C179.003 81.0463 178.863 80.8963 178.863 80.7199V69.6022C178.863 69.4169 179.012 69.2758 179.188 69.2758C179.364 69.2758 179.514 69.4258 179.514 69.6022V80.7199C179.514 80.9052 179.364 81.0463 179.188 81.0463Z" fill="#42B72A"/>
<path d="M185.042 77.6846C184.857 77.6846 184.717 77.5346 184.717 77.3581V56.7463C184.717 56.561 184.866 56.4199 185.042 56.4199C185.218 56.4199 185.368 56.5699 185.368 56.7463V77.3581C185.368 77.5434 185.218 77.6846 185.042 77.6846Z" fill="#42B72A"/>
<path d="M190.887 74.3228C190.703 74.3228 190.562 74.1728 190.562 73.9963V62.8787C190.562 62.6934 190.711 62.5522 190.887 62.5522C191.064 62.5522 191.213 62.7022 191.213 62.8787V73.9963C191.213 74.1816 191.064 74.3228 190.887 74.3228Z" fill="#42B72A"/>
<path d="M196.741 70.9522C196.557 70.9522 196.416 70.8022 196.416 70.6258V59.5081C196.416 59.3228 196.565 59.1816 196.741 59.1816C196.918 59.1816 197.067 59.3316 197.067 59.5081V70.6258C197.067 70.8111 196.918 70.9522 196.741 70.9522Z" fill="#42B72A"/>
<path d="M202.587 67.5905C202.402 67.5905 202.261 67.4405 202.261 67.264V56.1464C202.261 55.9611 202.411 55.8199 202.587 55.8199C202.763 55.8199 202.912 55.9699 202.912 56.1464V67.264C202.912 67.4493 202.763 67.5905 202.587 67.5905Z" fill="#42B72A"/>
<path d="M208.432 64.2287C208.247 64.2287 208.106 64.0787 208.106 63.9022V52.7846C208.106 52.5993 208.256 52.4581 208.432 52.4581C208.608 52.4581 208.758 52.6081 208.758 52.7846V63.9022C208.758 64.0875 208.608 64.2287 208.432 64.2287Z" fill="#42B72A"/>
<path d="M214.286 60.8581C214.101 60.8581 213.96 60.7081 213.96 60.5316V39.9199C213.96 39.7346 214.11 39.5934 214.286 39.5934C214.462 39.5934 214.612 39.7434 214.612 39.9199V60.5316C214.612 60.7169 214.462 60.8581 214.286 60.8581Z" fill="#42B72A"/>
<path d="M220.131 57.4964C219.946 57.4964 219.797 57.3464 219.797 57.1699V46.0522C219.797 45.8669 219.946 45.7258 220.131 45.7258C220.316 45.7258 220.466 45.8758 220.466 46.0522V57.1699C220.466 57.3552 220.316 57.4964 220.131 57.4964Z" fill="#42B72A"/>
<path d="M225.976 54.1346C225.791 54.1346 225.651 53.9846 225.651 53.8081V42.6905C225.651 42.5052 225.8 42.364 225.976 42.364C226.152 42.364 226.302 42.514 226.302 42.6905V53.8081C226.302 53.9934 226.152 54.1346 225.976 54.1346Z" fill="#42B72A"/>
<path d="M231.83 50.764C231.645 50.764 231.504 50.614 231.504 50.4375V39.3199C231.504 39.1346 231.654 38.9934 231.83 38.9934C232.006 38.9934 232.156 39.1434 232.156 39.3199V50.4375C232.156 50.6228 232.006 50.764 231.83 50.764Z" fill="#42B72A"/>
<path d="M237.675 47.4022C237.49 47.4022 237.35 47.2522 237.35 47.0758V35.9581C237.35 35.7728 237.499 35.6317 237.675 35.6317C237.851 35.6317 238.001 35.7817 238.001 35.9581V47.0758C238.001 47.2611 237.851 47.4022 237.675 47.4022Z" fill="#42B72A"/>
<path d="M243.529 44.0405C243.344 44.0405 243.204 43.8905 243.204 43.714V23.1022C243.204 22.9169 243.353 22.7758 243.529 22.7758C243.705 22.7758 243.855 22.9258 243.855 23.1022V43.714C243.855 43.8993 243.705 44.0405 243.529 44.0405Z" fill="#42B72A"/>
<path d="M295.863 77.4905C295.802 77.4905 295.749 77.4728 295.696 77.4463L276.717 66.3111C276.62 66.2581 276.558 66.1522 276.549 66.0375L276.444 62.7993C276.444 62.6758 276.505 62.5699 276.602 62.5081C276.708 62.4463 276.831 62.4463 276.937 62.5081L295.854 73.5375L335.336 50.7199C335.441 50.6581 335.565 50.6581 335.67 50.7199C335.776 50.7816 335.838 50.8875 335.838 51.0111V54.5405C335.829 54.6552 335.758 54.7699 335.662 54.8228L296.031 77.4552C295.978 77.4816 295.925 77.4993 295.863 77.4993V77.4905ZM277.21 65.8258L295.863 76.7758L335.169 54.3375V51.5758L296.031 74.1993C295.925 74.2611 295.802 74.2611 295.696 74.1993L277.122 63.3728L277.201 65.8258H277.21Z" fill="#42B72A"/>
<path d="M295.863 74.2434C295.802 74.2434 295.749 74.2258 295.696 74.1993L276.611 63.0728C276.505 63.011 276.444 62.9052 276.444 62.7816C276.444 62.6581 276.505 62.5522 276.611 62.4993L316.304 39.6287C316.409 39.5669 316.533 39.5669 316.63 39.6287L335.67 50.711C335.776 50.7728 335.838 50.8787 335.838 50.9934C335.838 51.1081 335.776 51.2228 335.67 51.2758L296.022 74.1816C295.969 74.2081 295.916 74.2258 295.854 74.2258L295.863 74.2434ZM277.439 62.7905L295.863 73.5287L334.852 51.0022L316.471 40.2993L277.439 62.7905Z" fill="#42B72A"/>
<path d="M295.863 77.4905C295.802 77.4905 295.749 77.4728 295.696 77.4464L276.611 66.3111C276.505 66.2493 276.444 66.1434 276.444 66.0287V62.7905C276.444 62.6758 276.505 62.5611 276.611 62.4993C276.717 62.4375 276.84 62.4375 276.937 62.4993L296.022 73.6258C296.127 73.6875 296.189 73.7934 296.189 73.9081V77.164C296.189 77.2787 296.127 77.3934 296.022 77.4552C295.969 77.4816 295.916 77.4993 295.854 77.4993L295.863 77.4905ZM277.104 65.8258L295.529 76.5816V74.0934L277.104 63.3552V65.8258Z" fill="#42B72A"/>
<path d="M19.3877 290.949C19.326 290.949 19.2732 290.932 19.2204 290.905L0.241154 279.77C0.144322 279.717 0.0827006 279.611 0.0738976 279.496L-0.0317383 276.258C-0.0317383 276.135 0.0298827 276.029 0.126716 275.967C0.232352 275.905 0.355593 275.905 0.461229 275.967L19.3789 286.996L73.6669 255.329C73.7726 255.267 73.8958 255.267 74.0014 255.329C74.1071 255.39 74.1687 255.496 74.1687 255.62V259.149C74.1599 259.264 74.0895 259.379 73.9926 259.432L19.5549 290.914C19.5021 290.94 19.4493 290.958 19.3877 290.958V290.949ZM0.734122 279.285L19.3877 290.235L73.4997 258.937V256.176L19.5549 287.649C19.4493 287.711 19.326 287.711 19.2204 287.649L0.646092 276.832L0.725319 279.285H0.734122Z" fill="#42B72A"/>
<path d="M19.3877 287.702C19.3348 287.702 19.2732 287.685 19.2204 287.658L0.135519 276.532C0.0298827 276.47 -0.0317383 276.364 -0.0317383 276.249C-0.0317383 276.135 0.0298827 276.02 0.135519 275.967L54.6348 244.237C54.7405 244.176 54.8637 244.176 54.9694 244.237L74.0102 255.32C74.1159 255.382 74.1775 255.487 74.1775 255.602C74.1775 255.717 74.1159 255.832 74.0102 255.885L19.5549 287.649C19.5021 287.676 19.4493 287.693 19.3877 287.693V287.702ZM0.954197 276.249L19.3877 286.987L73.1827 255.602L54.8021 244.899L0.954197 276.249Z" fill="#42B72A"/>
<path d="M19.3877 290.949C19.326 290.949 19.2732 290.932 19.2204 290.905L0.135519 279.77C0.0298827 279.708 -0.0317383 279.602 -0.0317383 279.487V276.249C-0.0317383 276.135 0.0298827 276.02 0.135519 275.958C0.241154 275.896 0.364396 275.896 0.470032 275.958L19.5549 287.085C19.6606 287.146 19.7222 287.252 19.7222 287.367V290.623C19.7222 290.737 19.6606 290.852 19.5549 290.914C19.5021 290.94 19.4493 290.958 19.3877 290.958V290.949ZM0.628486 279.285L19.0532 290.04V287.552L0.628486 276.814V279.285Z" fill="#42B72A"/>
<path fill-rule="evenodd" clip-rule="evenodd" d="M152.718 94.5993C153.202 94.0258 154.461 91.3522 153.211 90.6552C151.388 89.9758 149.416 88.7052 149.126 88.5993C148.624 88.4052 145.411 87.4875 144.909 87.364C144.214 87.1875 143.659 88.0081 143.888 89.0758C143.659 89.6405 143.598 90.4875 144.047 90.9728C143.888 91.5463 143.756 91.9611 144.232 92.8081C144.187 93.2228 143.827 93.7875 144.143 94.0964C144.883 95.2875 146.397 95.2787 148.343 95.5964C150.218 95.9052 151.424 96.1258 152.709 94.6081L152.718 94.5993Z" fill="#F2B387"/>
<path fill-rule="evenodd" clip-rule="evenodd" d="M172.859 200.402C172.515 200.349 171.354 202.952 172.366 204.805C172.639 205.299 172.357 207.152 177.498 208.97C178.933 209.482 180.333 209.261 183.255 210.673C183.951 211.008 183.308 211.996 183.81 212.349C185.209 213.355 186.442 213.885 187.067 214.308C188.255 215.102 192.032 215.058 192.938 213.435C193.414 212.57 192.833 208.449 192.833 208.449L172.868 200.402H172.859Z" fill="#DCCF71"/>
<path fill-rule="evenodd" clip-rule="evenodd" d="M192.956 200.491C193.317 199.679 191.926 198.249 191.926 198.249C191.926 198.249 191.706 199.555 191.592 200.27C191.477 200.985 189.294 202.502 185.606 200.72C183.07 199.493 183.519 196.635 183.519 196.635C183.572 196.229 182.648 196.846 182.648 197.596C182.648 199.705 181.82 200.42 180.975 200.605C177.806 200.455 176.301 199.246 175.262 199.299C174.435 199.335 172.938 199.97 172.524 201.108C171.961 202.679 172.797 204.62 173.713 205.811C174.461 206.799 176.054 207.858 177.252 208.061C183.616 209.093 186.979 212.64 189.03 212.667C191.671 212.702 192.357 212.058 192.701 210.893C193.387 208.555 192.762 206.235 192.173 204.638C192.331 202.908 192.727 200.993 192.947 200.491H192.956Z" fill="#1E170E"/>
<path fill-rule="evenodd" clip-rule="evenodd" d="M192.956 200.491C193.317 199.679 191.926 198.249 191.926 198.249C191.926 198.249 191.706 199.555 191.592 200.27C191.477 200.985 189.294 202.502 185.606 200.72C183.07 199.493 183.519 196.635 183.519 196.635C183.572 196.229 182.648 196.846 182.648 197.596C182.648 199.705 181.82 200.42 180.975 200.605C177.806 200.455 176.301 199.246 175.262 199.299C174.435 199.335 172.938 199.97 172.524 201.108C171.961 202.679 172.797 204.62 173.713 205.811C174.461 206.799 176.054 207.858 177.252 208.061C183.616 209.093 186.979 212.64 189.03 212.667C191.671 212.702 192.357 212.058 192.701 210.893C193.387 208.555 192.762 206.235 192.173 204.638C192.331 202.908 192.727 200.993 192.947 200.491H192.956Z" fill="#1E170E"/>
<path fill-rule="evenodd" clip-rule="evenodd" d="M192.956 200.491C193.317 199.679 191.926 198.249 191.926 198.249C191.926 198.249 191.706 199.555 191.592 200.27C191.477 200.985 189.294 202.502 185.606 200.72C183.07 199.493 183.519 196.635 183.519 196.635C183.572 196.229 182.648 196.846 182.648 197.596C182.648 199.705 181.82 200.42 180.975 200.605C177.806 200.455 178.396 198.796 175.359 198.805C173.898 198.805 172.938 199.97 172.524 201.108C171.961 202.679 172.797 204.62 173.713 205.811C174.461 206.799 176.054 207.858 177.252 208.061C183.616 209.093 186.979 212.64 189.03 212.667C191.671 212.702 192.357 212.058 192.701 210.893C193.387 208.555 192.762 206.235 192.173 204.638C192.331 202.908 192.727 200.993 192.947 200.491H192.956Z" fill="#CB6E33"/>
<path d="M177.111 202.193C177.075 202.282 177.111 202.396 177.216 202.449C177.313 202.502 177.419 202.476 177.463 202.396C177.788 201.673 178.185 201.179 178.634 200.888C179.082 200.596 179.584 200.499 180.139 200.552C180.244 200.561 180.315 200.49 180.306 200.385C180.297 200.288 180.209 200.191 180.104 200.182C179.47 200.12 178.898 200.235 178.387 200.561C177.885 200.888 177.454 201.417 177.111 202.193Z" fill="#FFCC00"/>
<path d="M178.114 202.705C178.088 202.793 178.149 202.899 178.255 202.943C178.361 202.988 178.458 202.943 178.484 202.855C178.704 202.088 179.021 201.549 179.426 201.188C179.822 200.835 180.315 200.667 180.87 200.64C180.975 200.64 181.037 200.552 181.01 200.455C180.984 200.358 180.887 200.279 180.782 200.288C180.148 200.314 179.593 200.517 179.135 200.914C178.686 201.302 178.334 201.893 178.105 202.714L178.114 202.705Z" fill="#FFCC00"/>
<path d="M179.285 203.358C179.285 203.455 179.373 203.535 179.479 203.552C179.584 203.561 179.681 203.499 179.681 203.402C179.69 202.608 179.866 201.999 180.165 201.549C180.465 201.108 180.887 200.817 181.424 200.649C181.521 200.614 181.565 200.517 181.512 200.429C181.468 200.341 181.345 200.296 181.248 200.323C180.641 200.517 180.156 200.843 179.813 201.346C179.479 201.841 179.294 202.502 179.276 203.349L179.285 203.358Z" fill="#FFCC00"/>
<path d="M180.544 204.002C180.579 204.09 180.693 204.135 180.799 204.108C180.905 204.082 180.966 203.985 180.931 203.896C180.641 203.155 180.57 202.529 180.685 201.999C180.79 201.479 181.081 201.046 181.512 200.693C181.591 200.623 181.591 200.526 181.512 200.455C181.433 200.393 181.31 200.393 181.23 200.455C180.737 200.861 180.412 201.355 180.288 201.946C180.165 202.529 180.244 203.208 180.553 204.002H180.544Z" fill="#FFCC00"/>
<path fill-rule="evenodd" clip-rule="evenodd" d="M178.757 75.4434C184.083 72.5404 187.745 81.9904 188.07 87.161C188.035 87.4522 192.78 98.7375 191.328 108.496C189.998 113.508 183.352 110.685 182.076 105.69C178.361 99.5493 176.609 93.3905 175.658 91.4228C174.074 88.1228 172.621 77.4287 178.757 75.4346V75.4434Z" fill="#1057CC"/>
<path fill-rule="evenodd" clip-rule="evenodd" d="M153.871 90.5846C152.163 90.364 149.971 94.7934 151.599 96.1787C153.184 96.9552 154.24 97.3081 155.825 98.0846C158.017 97.6258 159.505 93.0199 157.524 91.5816C155.746 91.0963 155.64 91.0699 153.871 90.5846Z" fill="#2B5AAC"/>
<path fill-rule="evenodd" clip-rule="evenodd" d="M179.232 106.29C175.368 108.108 159.293 101.782 154.672 98.6052C153.598 96.4875 155.605 90.3905 157.621 90.9993C159.786 91.2728 172.577 95.2787 178.589 96.7964C182.48 98.764 181.477 103.379 179.232 106.29Z" fill="#1057CC"/>
<path fill-rule="evenodd" clip-rule="evenodd" d="M48.27 204.214V197.482L60.8583 190.149V193.255C56.5184 195.779 54.6962 198.188 54.5906 200.535L48.27 204.223V204.214Z" fill="#4D2C1A"/>
<path fill-rule="evenodd" clip-rule="evenodd" d="M48.2699 204.214V197.482L44.6431 195.382V202.114L48.2699 204.214Z" fill="#934428"/>
<path fill-rule="evenodd" clip-rule="evenodd" d="M60.8582 190.149L48.2699 197.482L44.6431 195.382L57.2313 188.049L60.8582 190.149Z" fill="#FFCC00"/>
<path fill-rule="evenodd" clip-rule="evenodd" d="M138.034 179.861V176.729L134.398 174.629V177.77L138.034 179.861Z" fill="#934428"/>
<path fill-rule="evenodd" clip-rule="evenodd" d="M144.39 176.208V169.255L131.793 176.57V179.764C135.807 177.47 137.295 177.929 137.973 179.905L144.381 176.208H144.39Z" fill="#B36A23"/>
<path fill-rule="evenodd" clip-rule="evenodd" d="M131.802 179.764V176.57L128.166 174.523V177.664L131.802 179.764Z" fill="#934428"/>
<path fill-rule="evenodd" clip-rule="evenodd" d="M144.39 169.29L131.802 176.57L128.166 174.523L140.763 167.19L144.39 169.29Z" fill="#FFCC00"/>
<path fill-rule="evenodd" clip-rule="evenodd" d="M71.3076 217.952V211.22L83.8959 203.888V206.993C79.556 209.517 77.7338 211.926 77.6282 214.273L71.3076 217.961V217.952Z" fill="#B36A23"/>
<path fill-rule="evenodd" clip-rule="evenodd" d="M71.3075 217.952V211.22L67.6807 209.12V215.852L71.3075 217.952Z" fill="#934428"/>
<path fill-rule="evenodd" clip-rule="evenodd" d="M83.9046 203.888L71.3075 211.22L67.6807 209.12L80.2689 201.788L83.9046 203.888Z" fill="#FFCC00"/>
<path fill-rule="evenodd" clip-rule="evenodd" d="M144.39 17.5346L71.3338 59.2258L71.325 211.343L144.39 169.423V17.5346Z" fill="#B36A23"/>
<path fill-rule="evenodd" clip-rule="evenodd" d="M139.575 32.8875L139.601 167.835L77.4167 203.799L76.9941 69.2405L139.575 32.8875Z" fill="#663E29"/>
<path fill-rule="evenodd" clip-rule="evenodd" d="M44.6431 47.7993L71.3601 63.214L71.3249 211.343L44.6431 195.629V47.7993Z" fill="#934428"/>
<path fill-rule="evenodd" clip-rule="evenodd" d="M149.355 18.9463C130.833 35.6493 104.055 50.9316 69.0187 64.7846L39.6431 47.8346V45.911L120.05 2.05811L149.355 17.014V18.9375V18.9463Z" fill="#B36A23"/>
<path fill-rule="evenodd" clip-rule="evenodd" d="M68.9394 64.7405L39.6431 47.8434V45.911L45.6555 42.6375H68.9394V64.7405Z" fill="#B36A23"/>
<path fill-rule="evenodd" clip-rule="evenodd" d="M149.355 17.0228C130.833 33.7258 104.055 49.0081 69.0187 62.861L39.6431 45.9111L120.05 0.134583L149.355 17.0228Z" fill="#D4A007"/>
<path fill-rule="evenodd" clip-rule="evenodd" d="M139.601 167.517L112.937 151.811V48.3552L139.575 32.8875L139.601 167.517Z" fill="#4D2C1A"/>
<path fill-rule="evenodd" clip-rule="evenodd" d="M77.311 172.167L112.778 151.82V48.4522L76.9941 69.2405L77.311 172.167Z" fill="#934428"/>
<path fill-rule="evenodd" clip-rule="evenodd" d="M148.325 30.7522L149.302 31.2463L148.351 165.646L118.483 183.814L117.506 183.32L117.083 48.5758L148.325 30.7522Z" fill="#633126"/>
<path fill-rule="evenodd" clip-rule="evenodd" d="M149.302 31.2463L149.328 166.14L118.483 183.814L118.06 49.061L149.302 31.2463Z" fill="#D4A007"/>
<path fill-rule="evenodd" clip-rule="evenodd" d="M184.452 151.079C183.625 155.79 185.958 168.496 185.852 173.27C189.743 180.073 193.194 201.717 194.065 205.767C195.095 210.664 181.468 209.429 179.989 204.355C179.241 192.232 174.021 189.32 171.433 175.282C169.073 162.496 166.389 148.996 166.283 147.002C166.089 143.561 168.853 141.911 168.827 138.108C168.827 138.108 174.038 127.952 182.296 128.949C187.621 139.546 186.627 149.535 184.452 151.088V151.079Z" fill="#1A8F02"/>
<path fill-rule="evenodd" clip-rule="evenodd" d="M166.353 80.7111C165.64 80.9052 161.318 82.9699 158.158 87.0552C155.851 90.064 155.975 96.7875 156.071 97.6787C156.362 100.538 153.078 128.755 157.198 129.373C155.182 137.588 176.336 130.82 182.41 125.685C186.301 122.852 184.637 104.949 185.245 101.764C185.852 98.5699 188.185 84.0199 183.995 78.1787C183.026 76.8287 181.318 75.2316 179.822 75.4081C174.487 76.0169 167.234 80.4728 166.345 80.7199L166.353 80.7111Z" fill="#2B5AAC"/>
<path fill-rule="evenodd" clip-rule="evenodd" d="M163.686 86.3846C169.628 87.5758 169.936 97.0787 166.882 102.311C166.67 102.514 159.839 114.073 152.48 120.629C148.254 123.62 145.939 116.649 148.158 111.999C149.24 104.905 153.378 99.1081 154.434 96.8493C154.417 91.2375 157.709 83.9669 163.695 86.3846H163.686Z" fill="#1057CC"/>
<path fill-rule="evenodd" clip-rule="evenodd" d="M159.153 85.8728C163.625 84.3728 172.947 91.661 176.442 106.855C178.247 107.464 177.727 105.311 179.541 104.817C176.583 92.2434 169.787 81.0905 163.695 82.0875C161.248 83.0581 161.054 84.0728 159.153 85.8728Z" fill="#2AB00F"/>
<path fill-rule="evenodd" clip-rule="evenodd" d="M175.552 76.8993C186.389 79.1581 181.627 90.6287 178.501 105.823C180.042 106.432 180.465 104.279 182.489 103.785C185.007 91.2111 189.743 78.7169 179.831 75.3993C178.73 75.0287 178.237 75.0993 175.552 76.8993Z" fill="#2AB00F"/>
<path fill-rule="evenodd" clip-rule="evenodd" d="M162.357 56.7463C162.401 58.2199 161.309 60.0905 160.992 61.5199C160.772 62.5257 160.675 62.8169 161.063 63.7169C161.652 65.0934 161.494 66.3463 161.151 67.6963C160.746 69.3287 161.248 71.0581 161.714 72.6728C162.084 73.9522 162.277 75.4434 163.422 76.211C166.283 78.1257 169.496 76.9963 172.383 75.9816C175.244 74.9846 174.76 69.8934 175.649 67.5199C177.26 63.2316 176.072 57.214 171.353 55.3522C169.241 54.5228 165.763 54.1081 163.607 54.9375C162.858 55.2287 162.357 56.7375 162.357 56.7375V56.7463Z" fill="#F0B186"/>
<path fill-rule="evenodd" clip-rule="evenodd" d="M166.327 74.0493C166.327 74.0493 165.403 78.8228 165.878 81.2846C166.195 82.0434 169.082 84.0022 171.38 84.0464C175.033 84.1169 179.259 82.1316 178.017 79.0964C177.348 77.464 175.597 75.8493 176.715 69.2316C177.067 67.1493 166.327 74.0405 166.327 74.0405V74.0493Z" fill="#F0B186"/>
<path fill-rule="evenodd" clip-rule="evenodd" d="M177.04 52.6258C172.603 49.6081 163.123 50.0228 160.262 53.3581C158.624 55.264 161.054 58.4052 161.054 58.4052C162.022 59.6581 163.466 58.811 164.056 62.3405C164.205 63.2669 165.156 64.2816 165.341 65.0758C168.739 79.9434 176.072 73.5728 176.345 72.964C178.519 67.8022 179.971 68.9758 180.966 65.8875C182.48 61.2022 183.29 56.861 177.049 52.6346L177.04 52.6258Z" fill="black"/>
<path fill-rule="evenodd" clip-rule="evenodd" d="M167.427 68.8611C166.811 70.4493 166.459 71.9228 165.764 71.6581C165.068 71.3758 164.32 69.8846 164.927 68.2964C165.552 66.7081 165.887 65.1905 166.626 65.1728C168.035 65.1464 168.035 67.2728 167.418 68.8611H167.427Z" fill="#F0B186"/>
<path fill-rule="evenodd" clip-rule="evenodd" d="M165.764 66.0993C164.998 67.3257 165.623 71.314 165.86 73.6522C165.966 74.6581 166.318 75.8052 166.353 76.7934C166.415 78.5846 167.313 79.0787 162.735 79.8816C160.482 80.2787 158.888 72.1434 161.274 71.0316C162.806 70.3169 163.237 70.211 163.906 68.261C164.205 67.3963 166.345 64.1316 165.764 66.1081V66.0993Z" fill="black"/>
<path fill-rule="evenodd" clip-rule="evenodd" d="M145.922 208.079C145.578 208.026 144.416 210.62 145.429 212.482C145.701 212.976 145.42 214.829 150.561 216.655C151.996 217.167 153.395 216.946 156.318 218.358C157.013 218.693 156.371 219.682 156.872 220.035C158.272 221.041 159.505 221.57 160.13 221.993C161.318 222.788 165.094 222.743 166.001 221.12C166.477 220.255 165.896 216.135 165.896 216.135L145.93 208.088L145.922 208.079Z" fill="#DCCF71"/>
<path fill-rule="evenodd" clip-rule="evenodd" d="M166.019 208.167C166.38 207.355 164.989 205.926 164.989 205.926C164.989 205.926 164.769 207.232 164.654 207.946C164.54 208.661 162.357 210.179 158.668 208.396C156.133 207.17 156.582 204.311 156.582 204.311C156.635 203.905 155.71 204.523 155.71 205.273C155.71 207.382 154.883 208.096 154.038 208.282C150.869 208.132 149.364 206.923 148.325 206.976C147.497 207.011 146.001 207.646 145.587 208.785C145.024 210.364 145.86 212.296 146.775 213.488C147.524 214.476 149.117 215.535 150.314 215.729C156.679 216.761 160.042 220.308 162.093 220.343C164.734 220.379 165.42 219.735 165.764 218.57C166.45 216.232 165.825 213.911 165.235 212.314C165.394 210.576 165.79 208.67 166.01 208.167H166.019Z" fill="#1E170E"/>
<path fill-rule="evenodd" clip-rule="evenodd" d="M166.019 208.167C166.38 207.355 164.989 205.926 164.989 205.926C164.989 205.926 164.769 207.232 164.654 207.946C164.54 208.661 162.357 210.179 158.668 208.396C156.133 207.17 156.582 204.311 156.582 204.311C156.635 203.905 155.71 204.523 155.71 205.273C155.71 207.382 154.883 208.096 154.038 208.282C150.869 208.132 149.364 206.923 148.325 206.976C147.497 207.011 146.001 207.646 145.587 208.785C145.024 210.364 145.86 212.296 146.775 213.488C147.524 214.476 149.117 215.535 150.314 215.729C156.679 216.761 160.042 220.308 162.093 220.343C164.734 220.379 165.42 219.735 165.764 218.57C166.45 216.232 165.825 213.911 165.235 212.314C165.394 210.576 165.79 208.67 166.01 208.167H166.019Z" fill="#1E170E"/>
<path fill-rule="evenodd" clip-rule="evenodd" d="M166.019 208.167C166.38 207.355 164.989 205.926 164.989 205.926C164.989 205.926 164.769 207.232 164.654 207.946C164.54 208.661 162.357 210.179 158.668 208.396C156.133 207.17 156.582 204.311 156.582 204.311C156.635 203.905 155.71 204.523 155.71 205.273C155.71 207.382 154.883 208.096 154.038 208.282C150.869 208.132 151.459 206.473 148.422 206.482C146.96 206.482 145.992 207.646 145.587 208.785C145.024 210.364 145.86 212.296 146.775 213.488C147.524 214.476 149.117 215.535 150.314 215.729C156.679 216.761 160.042 220.308 162.093 220.343C164.734 220.379 165.42 219.735 165.764 218.57C166.45 216.232 165.825 213.911 165.235 212.314C165.394 210.576 165.79 208.67 166.01 208.167H166.019Z" fill="#CB6E33"/>
<path d="M150.182 209.87C150.147 209.958 150.191 210.073 150.288 210.126C150.385 210.179 150.49 210.152 150.534 210.073C150.86 209.349 151.256 208.855 151.705 208.564C152.154 208.273 152.656 208.176 153.21 208.229C153.316 208.238 153.387 208.167 153.378 208.061C153.378 207.964 153.281 207.867 153.175 207.858C152.541 207.796 151.969 207.911 151.459 208.238C150.957 208.564 150.526 209.093 150.182 209.87Z" fill="#FFCC00"/>
<path d="M151.177 210.382C151.151 210.47 151.212 210.576 151.318 210.62C151.423 210.664 151.52 210.62 151.547 210.532C151.767 209.764 152.084 209.226 152.489 208.864C152.885 208.511 153.378 208.343 153.932 208.317C154.038 208.317 154.1 208.229 154.073 208.132C154.047 208.035 153.95 207.955 153.844 207.964C153.211 207.99 152.656 208.185 152.198 208.59C151.749 208.979 151.397 209.57 151.168 210.39L151.177 210.382Z" fill="#FFCC00"/>
<path d="M152.348 211.035C152.348 211.132 152.436 211.211 152.541 211.229C152.647 211.238 152.744 211.176 152.744 211.079C152.753 210.285 152.929 209.676 153.228 209.226C153.527 208.785 153.95 208.493 154.487 208.326C154.584 208.291 154.628 208.193 154.575 208.105C154.531 208.017 154.408 207.973 154.311 207.999C153.703 208.193 153.219 208.52 152.876 209.023C152.541 209.517 152.356 210.179 152.339 211.026L152.348 211.035Z" fill="#FFCC00"/>
<path d="M153.606 211.67C153.642 211.758 153.756 211.802 153.862 211.776C153.967 211.749 154.029 211.652 153.994 211.564C153.703 210.823 153.633 210.196 153.747 209.667C153.853 209.146 154.143 208.714 154.575 208.361C154.654 208.29 154.654 208.193 154.575 208.123C154.496 208.061 154.372 208.061 154.293 208.123C153.8 208.529 153.474 209.023 153.351 209.614C153.228 210.196 153.307 210.876 153.615 211.67H153.606Z" fill="#FFCC00"/>
<path fill-rule="evenodd" clip-rule="evenodd" d="M170.632 154.732C170.315 161.49 168.211 166.767 166.529 174.196C165.182 179.702 168.457 208.264 167.093 215.596C165.781 217.714 157.946 215.914 154.108 211.229C152.77 205.97 150.658 177.946 151.335 171.258C151.899 169.14 152.559 157.873 152.761 153.682C153.272 142.643 155.261 134.208 156.723 131.693C156.723 131.693 165.711 130.688 173.871 132.329C181.028 145.564 171.433 154.079 170.623 154.732H170.632Z" fill="#2AB00F"/>
<path fill-rule="evenodd" clip-rule="evenodd" d="M156.732 131.693C160.649 135.117 177.04 136.246 182.287 128.94C182.225 128.085 182.472 126.549 182.41 125.693C176.459 130.035 163.827 133.14 157.198 129.382C157.04 130.158 156.882 130.926 156.732 131.702V131.693Z" fill="#1A8F02"/>
<path fill-rule="evenodd" clip-rule="evenodd" d="M159.593 178.335C159.645 173.138 160.297 167.932 162.269 162.735C158.158 161.835 154.945 160.379 152.55 157.555C151.177 164.164 148.976 172.811 151.3 174.505C154.32 176.649 156.459 177.876 159.593 178.335Z" fill="#1A8F02"/>
<path fill-rule="evenodd" clip-rule="evenodd" d="M161.142 162.929C156.802 161.411 154.355 160.026 152.251 157.988C151.67 159.32 151.08 160.643 150.499 161.976C152.894 164.376 155.649 166.352 159.39 167.182C160.218 165.902 160.852 164.508 161.142 162.929Z" fill="#2FC410"/>
<path fill-rule="evenodd" clip-rule="evenodd" d="M152.938 163.061C153.175 162.814 153.079 162.285 152.726 161.87C152.374 161.455 151.899 161.314 151.67 161.561C151.441 161.808 151.529 162.338 151.881 162.752C152.233 163.167 152.709 163.308 152.938 163.061Z" fill="#1A8F02"/>
<path fill-rule="evenodd" clip-rule="evenodd" d="M159.135 166.37C159.364 166.123 159.276 165.593 158.924 165.179C158.572 164.764 158.096 164.623 157.867 164.87C157.638 165.117 157.726 165.646 158.079 166.061C158.431 166.476 158.906 166.617 159.135 166.37Z" fill="#1A8F02"/>
<path fill-rule="evenodd" clip-rule="evenodd" d="M155.79 133.723C152.559 145.282 151.089 154.679 152.674 155.49C156.547 157.767 158.44 158.649 162.093 158.861C163.017 155.738 163.378 151.193 164.188 147.761C157.489 145.59 158.131 139.008 159.038 135.117C157.427 134.896 157.207 134.393 155.79 133.723Z" fill="#1A8F02"/>
<path fill-rule="evenodd" clip-rule="evenodd" d="M124.284 106.89C123.465 105.673 121.3 104.093 120.507 103.573C119.495 102.911 118.861 102.788 117.849 102.126C117.752 103.035 117.285 103.396 119.196 104.42C120.243 105.576 121.854 110.27 123.474 108.99C124.231 108.029 125.419 108.338 124.284 106.89Z" fill="#DB9669"/>
<path fill-rule="evenodd" clip-rule="evenodd" d="M124.794 111.364C125.279 110.79 126.537 108.117 125.287 107.42C123.465 106.74 121.493 105.47 121.203 105.364C120.701 105.17 117.488 104.261 116.986 104.129C116.291 103.952 115.736 104.773 115.965 105.84C115.736 106.405 115.675 107.252 116.124 107.738C115.965 108.311 115.833 108.726 116.308 109.573C116.264 109.988 115.903 110.552 116.22 110.861C116.96 112.052 118.474 112.043 120.419 112.361C122.294 112.67 123.5 112.89 124.786 111.373L124.794 111.364Z" fill="#F2B387"/>
<path fill-rule="evenodd" clip-rule="evenodd" d="M125.816 107.146C124.099 107.04 122.198 111.602 123.914 112.882C125.543 113.552 126.626 113.835 128.254 114.505C130.411 113.905 131.59 109.211 129.522 107.896C127.717 107.535 127.611 107.508 125.807 107.146H125.816Z" fill="#2B5AAC"/>
<path fill-rule="evenodd" clip-rule="evenodd" d="M152.154 121.149C148.413 123.223 131.969 117.955 127.145 115.096C125.93 113.049 127.541 106.838 129.592 107.305C131.775 107.438 144.795 110.588 150.895 111.717C154.909 113.429 154.205 118.096 152.154 121.149Z" fill="#1057CC"/>
<path fill-rule="evenodd" clip-rule="evenodd" d="M151.661 89.6581C151.018 88.3346 149.099 86.464 148.395 85.8464C147.48 85.0434 146.881 84.8405 145.966 84.0375C145.745 84.9199 145.226 85.2199 146.969 86.4993C147.841 87.7964 148.774 92.667 150.561 91.6258C151.45 90.7787 152.577 91.2552 151.661 89.6581Z" fill="#DB9669"/>
<path fill-rule="evenodd" clip-rule="evenodd" d="M102.857 99.9905L103.879 100.485L114.926 234.893L86.6776 253.052L85.6564 252.567L73.2002 117.814L102.857 99.9905Z" fill="#633126"/>
<path fill-rule="evenodd" clip-rule="evenodd" d="M103.879 100.485L115.948 235.379L86.6777 253.052L74.2214 118.299L103.879 100.485Z" fill="#D4A007"/>
<path fill-rule="evenodd" clip-rule="evenodd" d="M171.838 130.202C174.655 123.179 176.556 115.485 176.433 106.326C178.502 105.32 180.57 104.323 182.639 103.317C182.568 110.773 182.489 118.229 182.419 125.693C179.347 129.532 175.764 130.758 171.838 130.202Z" fill="#1A8F02"/>
<path fill-rule="evenodd" clip-rule="evenodd" d="M219.418 210.435C219.418 210.435 213.274 213.17 213.846 210.099C214.092 208.793 211.68 209.596 210.835 209.914C210.078 210.399 208.837 214.555 209.022 215.296C209.215 216.064 209.656 216.364 209.101 217.22C208.546 218.076 207.71 217.996 207.05 219.302C206.478 220.423 205.377 225.135 208.053 228.743C209.207 230.305 209.946 231.099 211.566 230.076C212.076 229.758 213.529 224.535 213.925 223.079C214.92 219.346 218.159 217.167 218.899 216.682C219.638 216.196 221.883 214.652 221.883 214.652C221.883 214.652 222.033 213.038 219.418 210.435Z" fill="#DCCF71"/>
<path fill-rule="evenodd" clip-rule="evenodd" d="M219.418 210.435C217.79 209.879 215.184 208.996 212.569 209.94C211.812 210.426 210.219 214.308 210.404 215.049C210.844 216.805 209.189 217.723 208.476 219.117C207.235 221.482 206.601 226.185 210.175 229.608C211.099 230.288 212.332 229.529 212.842 228.929C213.767 227.852 213.52 224.535 213.916 223.079C214.937 218.755 219.436 216.867 220.184 216.382C220.923 215.896 221.883 214.652 221.883 214.652C221.883 214.652 222.033 213.038 219.418 210.435Z" fill="#CB6E33"/>
<path d="M211.592 221.596C211.504 221.579 211.399 221.64 211.363 221.746C211.328 221.852 211.372 221.949 211.469 221.976C212.244 222.152 212.807 222.443 213.177 222.832C213.547 223.211 213.749 223.688 213.802 224.243C213.811 224.349 213.899 224.402 213.995 224.376C214.092 224.349 214.163 224.243 214.154 224.138C214.092 223.502 213.863 222.955 213.441 222.523C213.027 222.099 212.42 221.782 211.592 221.596Z" fill="#FFCC00"/>
<path d="M212.129 220.59C212.05 220.573 211.962 220.635 211.936 220.723C211.909 220.811 211.944 220.899 212.024 220.917C212.693 221.067 213.177 221.314 213.503 221.658C213.82 221.985 213.996 222.399 214.04 222.885C214.048 222.973 214.128 223.026 214.207 222.999C214.295 222.973 214.348 222.885 214.339 222.796C214.286 222.249 214.084 221.773 213.723 221.402C213.362 221.032 212.842 220.758 212.121 220.599L212.129 220.59Z" fill="#FFCC00"/>
<path d="M212.71 219.585C212.631 219.567 212.543 219.629 212.516 219.717C212.49 219.805 212.525 219.893 212.605 219.911C213.274 220.061 213.758 220.308 214.083 220.652C214.4 220.979 214.576 221.393 214.62 221.879C214.629 221.967 214.708 222.02 214.788 221.993C214.876 221.967 214.928 221.879 214.92 221.791C214.867 221.243 214.664 220.767 214.303 220.396C213.943 220.026 213.423 219.752 212.701 219.593L212.71 219.585Z" fill="#FFCC00"/>
<path d="M213.282 218.579C213.203 218.561 213.115 218.623 213.089 218.711C213.062 218.799 213.098 218.888 213.177 218.905C213.846 219.055 214.33 219.302 214.656 219.638C214.973 219.964 215.149 220.379 215.193 220.864C215.201 220.952 215.281 221.005 215.36 220.979C215.448 220.952 215.51 220.864 215.492 220.776C215.439 220.229 215.237 219.752 214.876 219.382C214.515 219.011 213.995 218.738 213.274 218.579H213.282Z" fill="#FFCC00"/>
<path d="M213.863 217.573C213.784 217.555 213.696 217.617 213.67 217.705C213.643 217.793 213.679 217.882 213.758 217.899C214.427 218.049 214.911 218.305 215.237 218.64C215.554 218.967 215.73 219.382 215.774 219.867C215.783 219.955 215.862 220.008 215.941 219.982C216.029 219.955 216.082 219.867 216.073 219.779C216.02 219.232 215.818 218.755 215.457 218.385C215.096 218.014 214.577 217.74 213.855 217.582L213.863 217.573Z" fill="#FFCC00"/>
<path d="M214.445 216.567C214.365 216.549 214.277 216.611 214.251 216.699C214.224 216.788 214.26 216.876 214.339 216.893C215.008 217.043 215.492 217.299 215.818 217.635C216.135 217.961 216.311 218.376 216.355 218.861C216.364 218.949 216.443 219.002 216.522 218.976C216.61 218.949 216.663 218.861 216.654 218.773C216.601 218.226 216.399 217.749 216.038 217.379C215.677 217.008 215.158 216.735 214.436 216.576L214.445 216.567Z" fill="#FFCC00"/>
<path d="M215.017 215.561C214.938 215.543 214.85 215.605 214.823 215.693C214.797 215.782 214.832 215.87 214.911 215.888C215.58 216.038 216.064 216.285 216.39 216.629C216.707 216.955 216.883 217.37 216.927 217.855C216.936 217.943 217.015 217.996 217.094 217.97C217.174 217.943 217.235 217.855 217.226 217.767C217.174 217.22 216.971 216.743 216.61 216.373C216.249 216.002 215.73 215.729 215.008 215.57L215.017 215.561Z" fill="#FFCC00"/>
<path fill-rule="evenodd" clip-rule="evenodd" d="M215.184 209.27C212.693 211.052 210.545 214.167 213.846 220.767C222.394 225.955 228.406 239.252 236.61 245.385C232.394 236.835 233.573 232.767 229.348 224.217C223.538 214.432 218.362 209.552 215.175 209.27H215.184Z" fill="#1A8F02"/>
<path fill-rule="evenodd" clip-rule="evenodd" d="M241.179 148.705C240.501 148.599 231.39 149.543 226.971 151.379C223.855 153.002 224.621 159.699 224.357 160.476C223.485 162.99 218.547 179.129 217.772 182.702C216.997 186.276 214.409 187.017 216.672 189.549C216.997 200.676 231.654 213.479 236.549 206.226C237.746 198.77 248.512 181.255 253.38 169.705C254.551 166.926 260.185 157.988 257.421 152.632C256.716 151.264 254.789 149.808 253.459 149.367C248.723 147.796 242.024 148.846 241.188 148.705H241.179Z" fill="#2B5AAC"/>
<path fill-rule="evenodd" clip-rule="evenodd" d="M250.959 153.311C245.026 154.546 245.493 159.946 248.574 164.102C248.767 164.288 252.024 178.582 261.047 186.029C265.026 190.449 267.773 183.717 267.139 181.052C266.646 178.979 263.468 168.602 260.898 162.982C259.912 154.343 257.658 149.446 250.95 153.311H250.959Z" fill="#2B5AAC"/>
<path fill-rule="evenodd" clip-rule="evenodd" d="M247.288 150.788C252.403 151.158 253.53 159.717 247.253 173.579C248.556 174.735 249.524 173.976 251.523 174.214C256.655 162.726 259.419 154.732 253.547 150.443C250.651 150.364 250.185 149.976 247.28 150.788H247.288Z" fill="#2AB00F"/>
<path fill-rule="evenodd" clip-rule="evenodd" d="M266.954 180.311C273.46 184.476 280.097 190.935 281.206 192.179C281.585 194.526 277.914 198.849 275.088 197.499C271.021 195.558 268.116 194.129 260.299 185.755C256.796 182.288 263.644 178.079 266.954 180.311Z" fill="#1057CC"/>
<path fill-rule="evenodd" clip-rule="evenodd" d="M283.777 195.046C284.367 196.74 282.096 199.361 280.449 200.314C278.909 199.449 277.632 197.958 276.092 197.093C276.013 194.799 278.257 192.002 280.256 192.09C281.664 193.273 282.368 193.864 283.777 195.046Z" fill="#2B5AAC"/>
<path fill-rule="evenodd" clip-rule="evenodd" d="M283.636 196.476C284.965 196.088 285.493 195.938 286.259 196.555C287.641 198.038 290.934 199.096 291.154 199.335C291.541 199.74 289.763 200.402 291.039 201.558C291.488 202.14 288.205 201.205 289.877 203.543C287.307 204.09 286.946 203.217 287.694 205.255C287.351 206.005 285.837 205.343 284.243 204.964C283.592 205.343 281.585 201.576 281.409 199.811L280.546 198.929C279.956 196.97 281.779 196.026 282.958 195.885L283.645 196.476H283.636Z" fill="#DB9669"/>
<path fill-rule="evenodd" clip-rule="evenodd" d="M247.72 233.173C247.72 233.173 249.172 239.755 246.285 238.582C245.061 238.088 245.361 240.611 245.501 241.502C245.827 242.34 249.639 244.388 250.405 244.352C251.197 244.317 251.576 243.938 252.306 244.661C253.037 245.376 252.79 246.179 253.935 247.096C254.921 247.882 259.305 249.893 263.372 247.988C265.123 247.167 266.048 246.593 265.37 244.802C265.159 244.238 260.343 241.776 258.996 241.096C255.546 239.376 254.058 235.767 253.732 234.937C253.407 234.108 252.341 231.602 252.341 231.602C252.341 231.602 250.792 231.135 247.729 233.182L247.72 233.173Z" fill="#DCCF71"/>
<path fill-rule="evenodd" clip-rule="evenodd" d="M247.72 233.173C246.848 234.664 245.475 237.046 245.88 239.808C246.206 240.646 249.683 242.985 250.449 242.949C252.253 242.87 252.826 244.67 254.049 245.649C256.109 247.343 260.59 248.888 264.648 246.064C265.502 245.288 264.991 243.929 264.507 243.311C263.636 242.19 260.352 241.776 258.997 241.096C254.974 239.235 254.014 234.435 253.697 233.614C253.371 232.793 252.341 231.602 252.341 231.602C252.341 231.602 250.792 231.135 247.729 233.182L247.72 233.173Z" fill="#CB6E33"/>
<path d="M257.077 243.073C257.042 243.161 257.077 243.276 257.183 243.329C257.28 243.382 257.386 243.355 257.43 243.276C257.755 242.552 258.151 242.058 258.6 241.767C259.049 241.476 259.551 241.379 260.106 241.432C260.211 241.44 260.282 241.37 260.273 241.264C260.264 241.167 260.176 241.07 260.07 241.061C259.437 240.999 258.864 241.114 258.354 241.44C257.852 241.767 257.421 242.296 257.077 243.073Z" fill="#FFCC00"/>
<path d="M256.206 242.34C256.171 242.411 256.206 242.517 256.294 242.561C256.373 242.605 256.47 242.588 256.505 242.517C256.787 241.89 257.13 241.467 257.518 241.211C257.905 240.964 258.345 240.876 258.82 240.92C258.908 240.92 258.979 240.867 258.97 240.779C258.97 240.69 258.882 240.611 258.794 240.602C258.248 240.549 257.746 240.646 257.306 240.929C256.875 241.211 256.505 241.67 256.206 242.34Z" fill="#FFCC00"/>
<path d="M255.334 241.573C255.299 241.643 255.334 241.749 255.422 241.793C255.502 241.838 255.598 241.82 255.634 241.749C255.915 241.123 256.259 240.699 256.646 240.443C257.033 240.196 257.473 240.108 257.949 240.152C258.037 240.152 258.107 240.099 258.098 240.011C258.098 239.923 258.01 239.843 257.922 239.835C257.377 239.782 256.875 239.879 256.435 240.161C256.003 240.443 255.634 240.902 255.334 241.573Z" fill="#FFCC00"/>
<path d="M254.463 240.805C254.428 240.876 254.463 240.982 254.551 241.026C254.63 241.07 254.727 241.052 254.762 240.982C255.044 240.355 255.387 239.932 255.775 239.676C256.162 239.429 256.593 239.34 257.077 239.385C257.165 239.385 257.236 239.332 257.227 239.243C257.227 239.155 257.139 239.076 257.051 239.067C256.505 239.014 256.003 239.111 255.563 239.393C255.132 239.676 254.762 240.135 254.463 240.805Z" fill="#FFCC00"/>
<path d="M253.591 240.038C253.556 240.108 253.591 240.214 253.679 240.258C253.758 240.302 253.855 240.285 253.89 240.214C254.172 239.588 254.515 239.164 254.903 238.908C255.29 238.661 255.73 238.573 256.206 238.617C256.294 238.617 256.364 238.564 256.355 238.476C256.355 238.388 256.267 238.308 256.179 238.299C255.633 238.246 255.132 238.343 254.692 238.626C254.26 238.908 253.89 239.367 253.591 240.038Z" fill="#FFCC00"/>
<path d="M252.72 239.27C252.685 239.34 252.72 239.446 252.808 239.49C252.887 239.535 252.984 239.517 253.019 239.446C253.301 238.82 253.644 238.396 254.032 238.14C254.419 237.893 254.859 237.805 255.335 237.849C255.423 237.849 255.484 237.796 255.484 237.708C255.484 237.62 255.396 237.54 255.308 237.532C254.762 237.479 254.261 237.576 253.82 237.858C253.389 238.14 253.019 238.599 252.72 239.27Z" fill="#FFCC00"/>
<path d="M251.857 238.511C251.822 238.582 251.857 238.679 251.945 238.732C252.024 238.776 252.121 238.758 252.157 238.687C252.438 238.061 252.782 237.638 253.169 237.382C253.556 237.135 253.996 237.046 254.472 237.09C254.56 237.09 254.63 237.038 254.621 236.949C254.621 236.861 254.533 236.782 254.445 236.773C253.9 236.72 253.398 236.817 252.958 237.099C252.526 237.382 252.157 237.84 251.857 238.511Z" fill="#FFCC00"/>
<path fill-rule="evenodd" clip-rule="evenodd" d="M225.175 200.967C226.584 205.299 225.968 208.696 227.05 213.117C228.785 218.605 252.438 207.293 256.153 210.232C249.366 216.814 246.47 225.999 246.223 236.438C249.322 238.882 252.685 241.529 256.875 239.005C260.572 227.967 268.645 213.929 271.118 209.446C271.805 208.193 273.618 200.023 271.074 198.232C254.736 190.652 245.167 195.84 241.558 193.564C241.206 191.349 241.575 188.49 241.302 187.635C241.302 187.635 237.464 190.088 229.683 191.658C229.63 193.229 224.973 200.34 225.175 200.967Z" fill="#1A8F02"/>
<path fill-rule="evenodd" clip-rule="evenodd" d="M236.61 245.385C238.213 246.417 239.753 247.043 241.355 247.026C243.081 247.008 246.452 245.605 246.575 244.07C246.875 230.729 242.887 223.282 236.549 207.47C241.505 206.235 238.019 197.552 238.389 189.064C227.508 196.343 219.348 193.485 216.672 191.385C213.045 197.164 214.99 207.461 216.364 209.526C218.749 213.108 219.313 212.12 223.96 219.735C228.82 228.752 231.575 239.058 236.61 245.376V245.385Z" fill="#2AB00F"/>
<path fill-rule="evenodd" clip-rule="evenodd" d="M216.188 192.249C220.105 195.673 236.496 196.802 241.743 189.496C241.681 188.64 241.927 187.105 241.866 186.249C235.915 190.59 223.283 193.696 216.654 189.938C216.496 190.714 216.337 191.482 216.188 192.258V192.249Z" fill="#1A8F02"/>
<path fill-rule="evenodd" clip-rule="evenodd" d="M231.32 153.099C228.6 147.673 220.413 153.611 217.2 157.679C217.068 157.935 206.751 164.499 202.384 173.349C200.624 178.229 207.384 181.158 211.267 177.788C217.807 174.867 223.063 169.361 224.955 168.285C228.124 166.476 235.211 158.252 231.311 153.108L231.32 153.099Z" fill="#1057CC"/>
<path fill-rule="evenodd" clip-rule="evenodd" d="M220.677 191.314C227.35 187.211 231.434 179.049 233.829 166.97C241.443 169.185 249.216 168.029 255.141 165.373C251.514 174.073 246.17 189.849 241.267 194.102C238.036 195.443 232.271 196.396 220.677 191.305V191.314Z" fill="#2AB00F"/>
<path fill-rule="evenodd" clip-rule="evenodd" d="M227.42 151.193C232.13 151.414 235.404 157.873 233.195 173.314C234.665 174.532 236.83 174.761 238.697 174.946C240.457 162.152 240.607 150.805 234.568 149.535C231.936 149.552 229.832 150.196 227.42 151.193Z" fill="#2AB00F"/>
<path fill-rule="evenodd" clip-rule="evenodd" d="M231.029 188.19C233.925 182.888 236.179 177.338 237.007 171.232C241.936 172.026 246.567 171.735 250.748 169.864C248.186 176.005 246.857 184.97 243.397 187.97C238.934 188.896 234.665 189.02 231.029 188.182V188.19Z" fill="#1A8F02"/>
<path fill-rule="evenodd" clip-rule="evenodd" d="M238.292 230.623C235.607 226.167 233.441 221.411 232.42 215.985C228.406 217.308 224.876 217.705 221.328 216.523C223.608 222.841 226.24 231.32 229.137 231.585C232.86 231.876 235.343 231.832 238.292 230.623Z" fill="#1A8F02"/>
<path fill-rule="evenodd" clip-rule="evenodd" d="M231.549 216.726C227.015 217.643 224.181 217.705 221.293 217.043C221.487 218.473 221.681 219.902 221.874 221.332C225.202 222.152 228.609 222.435 232.271 221.243C232.306 219.735 232.121 218.226 231.549 216.735V216.726Z" fill="#2FC410"/>
<path fill-rule="evenodd" clip-rule="evenodd" d="M232.271 196.405C232.693 204.479 234.973 206.058 237.235 213.135C232.781 212.076 229.33 213.311 225.642 216.073C223.424 212.949 220.175 210.796 220.07 205.67C225.985 204.514 228.503 203.702 227.191 196.943C228.758 197.367 230.712 196.467 232.279 196.405H232.271Z" fill="#1A8F02"/>
<path fill-rule="evenodd" clip-rule="evenodd" d="M237.482 172.149C243.186 172.352 246.646 171.858 250.026 170.473C250.079 172.255 250.123 174.029 250.176 175.811C246.294 177.479 242.2 178.511 237.508 177.788C237.156 175.952 237.086 174.082 237.482 172.149Z" fill="#2FC410"/>
<path fill-rule="evenodd" clip-rule="evenodd" d="M224.55 221.005C224.621 220.679 224.26 220.273 223.74 220.096C223.221 219.92 222.737 220.043 222.666 220.37C222.596 220.696 222.957 221.102 223.476 221.279C223.996 221.455 224.48 221.332 224.55 221.005Z" fill="#015C42"/>
<path fill-rule="evenodd" clip-rule="evenodd" d="M231.619 220.679C231.69 220.352 231.329 219.946 230.809 219.77C230.29 219.593 229.806 219.717 229.735 220.043C229.665 220.37 230.026 220.776 230.545 220.952C231.065 221.129 231.549 221.005 231.619 220.679Z" fill="#1A8F02"/>
<path fill-rule="evenodd" clip-rule="evenodd" d="M246.936 175.44C246.813 175.132 247.104 174.673 247.588 174.417C248.072 174.161 248.565 174.205 248.697 174.514C248.82 174.823 248.53 175.282 248.045 175.538C247.561 175.793 247.068 175.749 246.945 175.44H246.936Z" fill="#1A8F02"/>
<path fill-rule="evenodd" clip-rule="evenodd" d="M238.811 176.685C238.688 176.376 238.978 175.917 239.462 175.652C239.947 175.396 240.44 175.44 240.572 175.749C240.695 176.058 240.404 176.517 239.92 176.782C239.436 177.038 238.943 176.993 238.82 176.685H238.811Z" fill="#1A8F02"/>
<path fill-rule="evenodd" clip-rule="evenodd" d="M243.943 141.364C242.957 143.923 240.941 146.543 239.964 149.076C239.198 151.07 241.919 154.176 242.737 155.217C246.496 160.035 249.322 157.44 249.894 154.776C250.141 153.558 250.334 152.049 250.369 150.779C250.413 149.367 247.922 148.635 248.433 147.329L243.943 141.364Z" fill="#DB9669"/>
<path fill-rule="evenodd" clip-rule="evenodd" d="M262.966 136.423C262.412 137.932 262.429 139.555 262.253 141.143C262.315 143.049 260.017 142.829 260.757 145.749C260.387 147.549 259.014 150.152 257.958 151.652C257.288 152.808 256.496 154.573 254.102 155.155C250.466 156.126 248.336 152.146 245.713 150.082C243.107 148.035 245.669 144.788 245.581 142.017C245.431 137.014 247.693 131.04 253.239 130.776C255.713 130.661 259.454 131.464 261.399 133.079C262.086 133.643 263.574 134.888 262.966 136.414V136.423Z" fill="#F2B387"/>
<path fill-rule="evenodd" clip-rule="evenodd" d="M250.818 139.714C249.85 139.829 249.621 139.855 248.996 140.852C248.477 141.699 247.79 141.54 247.323 143.455C247.139 143.879 244.586 141.373 242.438 144.373C239.885 139.829 242.411 129.938 245.994 128.482C251.32 130.74 253.213 131.438 254.26 135.188C254.146 136.882 252.06 139.564 250.809 139.723L250.818 139.714Z" fill="black"/>
<path fill-rule="evenodd" clip-rule="evenodd" d="M256.743 127.917C264.093 132.002 267.06 136.467 262.967 138.179C261.576 138.761 258.662 138.505 254.155 135.814C253.354 132.805 251.884 130.97 246.003 128.473C248.996 124.511 254.824 126.858 256.743 127.917Z" fill="black"/>
<path fill-rule="evenodd" clip-rule="evenodd" d="M243.662 141.311C243.741 143.129 244.445 144.567 245.237 144.523C246.03 144.488 246.839 142.952 246.751 141.143C246.681 139.335 245.748 137.94 244.956 137.985C244.163 138.011 243.582 139.511 243.662 141.311Z" fill="#F2B387"/>
<path fill-rule="evenodd" clip-rule="evenodd" d="M258.891 150.276C258.759 149.649 258.697 149.085 257.57 148.899C257.06 148.82 256.25 148.855 255.37 148.996V151.14C255.678 151.052 256.039 150.946 256.558 150.805C257.65 151.529 257.896 152.358 256.778 152.402C256.62 152.402 256.496 152.402 256.408 152.376C256.206 152.323 256.162 152.182 256.065 151.882C256.021 151.74 255.713 151.82 255.361 151.961V158.385C258.988 156.602 259.199 151.811 258.882 150.276H258.891ZM255.37 148.996C253.935 149.217 252.315 149.702 251.593 150.338C249.674 151.767 248.028 149.288 247.456 146.87C247.104 145.37 247.341 144.143 247.579 142.652L246.831 141.682C245.228 144.276 243.811 146.102 243.908 147.62C244.19 152.093 246.646 159.796 253.23 158.993C254.049 158.896 254.753 158.676 255.37 158.376V151.952C254.841 152.164 254.208 152.535 254.119 152.552C253.107 152.782 252.896 151.829 253.847 151.564C254.524 151.379 254.885 151.264 255.378 151.123V148.979L255.37 148.996Z" fill="black"/>
<path fill-rule="evenodd" clip-rule="evenodd" d="M306.946 249.302L263.688 273.999L242.975 261.84L242.861 258.311L286.18 239.746L306.964 245.446L306.946 249.302Z" fill="#B36A23"/>
<path fill-rule="evenodd" clip-rule="evenodd" d="M306.964 245.446L263.688 270.452L242.861 258.311L286.18 233.349L306.964 245.446Z" fill="#D4A007"/>
<path fill-rule="evenodd" clip-rule="evenodd" d="M263.688 270.452V273.999L242.861 261.841V258.311L263.688 270.452Z" fill="#934428"/>
<path fill-rule="evenodd" clip-rule="evenodd" d="M306.515 245.57L306.497 145.599L285.678 133.635L282.562 135.293L287.914 232.264L303.187 247.493L306.515 245.57Z" fill="#B36A23"/>
<path fill-rule="evenodd" clip-rule="evenodd" d="M303.187 247.493L303.425 147.364L282.562 135.293L282.386 235.44L303.187 247.493Z" fill="#934428"/>
<path fill-rule="evenodd" clip-rule="evenodd" d="M303.425 147.364L306.497 145.599L285.617 133.538L282.562 135.293L303.425 147.364Z" fill="#D4A007"/>
<path fill-rule="evenodd" clip-rule="evenodd" d="M211.971 203.773C212.833 204.955 213.573 207.54 213.793 208.458C214.075 209.64 213.969 210.276 214.242 211.458C213.362 211.238 212.86 211.555 212.543 209.411C211.812 208.035 207.965 204.911 209.726 203.817C210.888 203.429 211.002 202.211 211.971 203.773Z" fill="#DB9669"/>
<path fill-rule="evenodd" clip-rule="evenodd" d="M204.418 206.446L223.441 216.929C224.013 217.246 224.876 217.29 225.369 216.999C225.862 216.708 225.791 216.223 225.228 215.879L205.597 203.817C204.286 203.014 202.877 205.59 204.409 206.438L204.418 206.446Z" fill="#E0AB14"/>
<path fill-rule="evenodd" clip-rule="evenodd" d="M204.048 205.891L216.812 212.993V212.393L204.074 204.858C203.951 205.193 203.925 205.564 204.048 205.891Z" fill="#F8C300"/>
<path fill-rule="evenodd" clip-rule="evenodd" d="M226.936 220.167C227.543 217.229 227.517 213.849 226.821 209.358L223.177 207.293L218.767 209.879L219.136 220.882L222.121 222.982L226.936 220.158V220.167Z" fill="#E0AB14"/>
<path fill-rule="evenodd" clip-rule="evenodd" d="M226.83 209.358L221.742 206.42L216.971 209.217L217.129 209.764L220.325 213.17L226.83 209.358Z" fill="#CF9420"/>
<path fill-rule="evenodd" clip-rule="evenodd" d="M216.989 209.199L217.121 220.149L222.147 222.973C222.702 220.07 222.719 216.488 222.05 212.129L216.989 209.199Z" fill="#F8C300"/>
<path fill-rule="evenodd" clip-rule="evenodd" d="M225.959 215.57C226.311 215.888 226.214 216.655 225.747 217.282C225.281 217.908 224.621 218.155 224.277 217.829C223.925 217.511 224.022 216.743 224.489 216.117C224.955 215.49 225.615 215.243 225.959 215.57Z" fill="#CF9420"/>
<path fill-rule="evenodd" clip-rule="evenodd" d="M207.745 200.852C208.432 200.588 211.354 200.314 211.663 201.735C211.777 203.685 212.428 205.97 212.446 206.279C212.481 206.817 212.428 210.152 212.402 210.673C212.376 211.388 211.425 211.635 210.474 211.052C209.867 211.07 209.039 210.849 208.705 210.258C208.115 210.205 207.675 210.196 207.006 209.464C206.592 209.367 205.949 209.517 205.747 209.102C204.823 207.999 205.272 206.579 205.536 204.629C205.782 202.758 205.923 201.549 207.754 200.852H207.745Z" fill="#F2B387"/>
<path fill-rule="evenodd" clip-rule="evenodd" d="M211.742 201.364C211.522 203.076 206.698 204.09 205.765 202.167C205.413 200.438 205.333 199.317 204.981 197.588C205.967 195.576 210.791 195.285 211.689 197.57C211.715 199.414 211.715 199.529 211.733 201.373L211.742 201.364Z" fill="#2B5AAC"/>
<path fill-rule="evenodd" clip-rule="evenodd" d="M202.93 172.811C200.201 176.111 202.296 193.29 204.198 198.567C205.976 200.146 212.367 199.714 212.288 197.605C212.569 195.435 211.9 182.023 211.935 175.802C211.011 171.532 206.293 171.346 202.921 172.802L202.93 172.811Z" fill="#1057CC"/>
<path fill-rule="evenodd" clip-rule="evenodd" d="M147.753 240.629L234.286 290.332L255 278.173L255.114 274.643L168.519 231.073L147.744 236.773L147.753 240.629Z" fill="#934428"/>
<path fill-rule="evenodd" clip-rule="evenodd" d="M147.744 236.773L234.286 286.785L255.114 274.643L168.519 224.676L147.744 236.773Z" fill="#D4A007"/>
<path fill-rule="evenodd" clip-rule="evenodd" d="M234.286 286.785V290.332L255.114 278.173V274.643L234.286 286.785Z" fill="#B36A23"/>
<path fill-rule="evenodd" clip-rule="evenodd" d="M155.764 238.767L199.022 263.473L219.735 251.314L219.849 247.785L176.53 229.22L155.746 234.92L155.764 238.767Z" fill="#934428"/>
<path fill-rule="evenodd" clip-rule="evenodd" d="M155.746 234.92L199.022 259.926L219.849 247.785L176.53 222.823L155.746 234.92Z" fill="#D4A007"/>
<path fill-rule="evenodd" clip-rule="evenodd" d="M199.021 259.926V263.473L219.849 251.314V247.785L199.021 259.926Z" fill="#B36A23"/>
<path fill-rule="evenodd" clip-rule="evenodd" d="M329.605 239.296L335.547 253.079L335.459 270.002L322.017 261.938L326.797 239.173L328.355 238.529C328.901 238.493 329.385 238.793 329.605 239.296Z" fill="#FFCC00"/>
<path fill-rule="evenodd" clip-rule="evenodd" d="M335.521 253.026L335.547 253.079L335.468 270.161L322.017 262.096L322.396 260.535L335.521 253.026Z" fill="#CF9420"/>
<path fill-rule="evenodd" clip-rule="evenodd" d="M321.049 245.958L326.489 239.438C326.771 239.093 327.193 238.961 327.633 239.032C328.074 239.102 328.417 239.376 328.593 239.782L334.5 253.582L334.412 270.24L320.969 262.176L321.049 245.958Z" fill="#E0AB14"/>
<path fill-rule="evenodd" clip-rule="evenodd" d="M285.96 267.02L299.402 275.067L321.929 262.343V247.493L321.049 246.964L285.96 267.02Z" fill="#FFCC00"/>
<path fill-rule="evenodd" clip-rule="evenodd" d="M286.347 267.832L299.279 276.179L321.929 263.226V247.493L286.347 267.832Z" fill="#CF9420"/>
<path fill-rule="evenodd" clip-rule="evenodd" d="M317.844 238.899L306.524 264.196C306.18 264.964 306.215 266.058 306.629 266.658C307.043 267.258 307.659 267.117 308.038 266.367L321.295 240.143C322.184 238.388 318.769 236.861 317.853 238.899H317.844Z" fill="#E0AB14"/>
<path fill-rule="evenodd" clip-rule="evenodd" d="M318.504 238.37L310.819 255.338L311.585 255.267L319.825 238.291C319.385 238.167 318.909 238.176 318.513 238.37H318.504Z" fill="#F8C300"/>
<path fill-rule="evenodd" clip-rule="evenodd" d="M302.782 268.97C306.568 269.438 310.846 269.058 316.462 267.717L318.698 262.873L314.974 257.526L301.075 259.132L298.715 263.146L302.782 268.979V268.97Z" fill="#E0AB14"/>
<path fill-rule="evenodd" clip-rule="evenodd" d="M316.462 267.717L319.666 260.941L315.626 255.152L314.948 255.417L310.969 259.838L316.462 267.717Z" fill="#CF9420"/>
<path fill-rule="evenodd" clip-rule="evenodd" d="M315.643 255.179L301.787 256.476L298.724 263.164C302.456 263.57 306.999 263.226 312.448 261.92L315.634 255.179H315.643Z" fill="#F8C300"/>
<path fill-rule="evenodd" clip-rule="evenodd" d="M308.495 267.249C308.126 267.726 307.14 267.69 306.303 267.161C305.467 266.632 305.08 265.82 305.45 265.343C305.819 264.867 306.805 264.902 307.642 265.432C308.478 265.961 308.865 266.773 308.495 267.249Z" fill="#CF9420"/>
<path fill-rule="evenodd" clip-rule="evenodd" d="M333.144 253.635L303.505 277.37L299.411 275.499L299.253 274.952L327.554 239.79L328.329 240.161L333.144 253.635Z" fill="#C6C6C6"/>
<path fill-rule="evenodd" clip-rule="evenodd" d="M299.244 274.97L327.554 239.79L328.329 240.161L332.986 253.193L303.416 276.876L299.244 274.97Z" fill="#575756"/>
<path fill-rule="evenodd" clip-rule="evenodd" d="M328.39 240.329L332.986 253.193L303.416 276.876L300.168 275.393L328.39 240.329Z" fill="#878787"/>
<path fill-rule="evenodd" clip-rule="evenodd" d="M345.591 243.39C343.038 247.229 339.632 249.161 335.794 251.755V247.211C336.577 247.882 338.443 246.488 339.429 245.349C339.949 244.74 338.47 243.232 337.325 241.317C336.683 240.24 336.198 238.979 335.794 238.176V233.729C336.146 233.561 336.533 233.385 336.938 233.199C338.699 232.423 336.639 235.44 337.308 236.296C339.588 237.929 341.586 240.426 342.678 243.417C343.038 243.999 346.516 241.988 345.582 243.39H345.591ZM335.794 251.755C334.728 252.479 333.628 253.246 332.501 254.12L328.698 253.017L326.471 247.158L328.408 240.47C331.366 236.826 332.228 235.458 335.794 233.729V238.176C335.556 237.717 335.345 237.408 335.142 237.373C334.227 237.223 331.832 238.643 332.052 239.808C332.633 242.799 333.575 244.414 335.688 247.105C335.723 247.149 335.75 247.185 335.794 247.211V251.755Z" fill="#FED836"/>
<path fill-rule="evenodd" clip-rule="evenodd" d="M345.829 243.32C343.285 247.149 339.702 248.94 335.794 251.455V247.211C336.577 247.882 338.443 246.488 339.429 245.349C339.949 244.74 338.47 243.232 337.325 241.317C336.683 240.24 336.199 238.979 335.794 238.176V233.658C336.111 233.49 336.436 233.314 336.788 233.138C338.778 232.132 336.859 234.946 337.528 235.811C339.808 237.435 341.507 240.143 342.598 243.126C342.959 243.708 346.753 241.926 345.82 243.329L345.829 243.32ZM335.794 251.455C334.693 252.161 333.567 252.929 332.431 253.82L328.575 252.699L326.375 246.902L328.329 240.161C331.005 237.143 332.246 235.59 335.794 233.649V238.167C335.556 237.708 335.345 237.399 335.142 237.364C334.227 237.214 331.832 238.635 332.052 239.799C332.633 242.79 333.575 244.405 335.688 247.096C335.723 247.14 335.75 247.176 335.794 247.202V251.446V251.455Z" fill="#FFCC00"/>
<path fill-rule="evenodd" clip-rule="evenodd" d="M337.554 234.223C337.404 234.814 337.264 235.458 337.537 235.802C339.817 237.426 341.516 240.135 342.607 243.117C342.871 243.541 344.922 242.729 345.688 242.773L335.794 250.67V247.202C336.577 247.873 338.443 246.479 339.429 245.34C339.949 244.732 338.47 243.223 337.325 241.308C336.683 240.232 336.198 238.97 335.794 238.167V234.814C336.419 234.496 337.026 234.267 337.545 234.223H337.554ZM335.802 250.67L333.945 252.152C332.528 253.432 330.811 251.023 331.691 250.017L334.156 247.458C332.114 244.432 330.591 239.499 331.278 238.449C331.727 237.77 333.857 235.82 335.802 234.823V238.176C335.565 237.717 335.353 237.408 335.151 237.373C334.235 237.223 331.841 238.643 332.061 239.808C332.642 242.799 333.584 244.414 335.697 247.105C335.732 247.149 335.758 247.185 335.802 247.211V250.679V250.67Z" fill="#1D1D1B"/>
<path fill-rule="evenodd" clip-rule="evenodd" d="M345.829 243.32C342.563 248.226 337.466 250.652 332.299 254.676L332.176 253.74L342.176 244.705L345.239 242.773C345.838 242.649 346.26 242.658 345.82 243.32H345.829Z" fill="#FFED00"/>
<path fill-rule="evenodd" clip-rule="evenodd" d="M332.184 253.74L332.008 253.696L332.096 254.473L331.947 254.596L332.299 254.685L332.184 253.74Z" fill="#FED836"/>
<path fill-rule="evenodd" clip-rule="evenodd" d="M298.398 289.952L298.486 274.326L333.698 254.199L334.588 254.72L334.499 269.314L298.398 289.952Z" fill="#FFCC00"/>
<path fill-rule="evenodd" clip-rule="evenodd" d="M326.383 240.32L293.469 259.14C292.888 259.476 292.413 260.226 292.413 260.808C292.413 261.39 292.888 261.593 293.469 261.267L327.264 241.943C328.628 241.167 327.941 239.446 326.383 240.329V240.32Z" fill="#FFCC00"/>
<path fill-rule="evenodd" clip-rule="evenodd" d="M294.472 259.405L300.414 273.188L300.326 289.996L286.884 281.932L291.664 259.282L293.222 258.638C293.768 258.602 294.252 258.902 294.472 259.405Z" fill="#FFCC00"/>
<path fill-rule="evenodd" clip-rule="evenodd" d="M299.217 290.896L299.358 274.811L335.547 254.164L335.468 270.161L299.217 290.896Z" fill="#CF9420"/>
<path fill-rule="evenodd" clip-rule="evenodd" d="M300.379 273.108L300.414 273.188L300.326 289.996L290.661 284.199L290.696 278.649L300.379 273.108Z" fill="#CF9420"/>
<path fill-rule="evenodd" clip-rule="evenodd" d="M285.916 266.005L291.356 259.538C291.647 259.193 292.06 259.061 292.501 259.132C292.941 259.202 293.284 259.476 293.46 259.882L299.367 273.682L299.279 290.852L285.837 282.788L285.916 265.996V266.005Z" fill="#E0AB14"/>
<path fill-rule="evenodd" clip-rule="evenodd" d="M224.066 295.238L184.426 317.87L165.447 306.735L165.341 303.496L205.034 286.485L224.075 291.708L224.066 295.238Z" fill="#934428"/>
<path fill-rule="evenodd" clip-rule="evenodd" d="M224.075 291.708L184.426 314.623L165.341 303.496L205.034 280.626L224.075 291.708Z" fill="#D4A007"/>
<path fill-rule="evenodd" clip-rule="evenodd" d="M184.426 314.623V317.87L165.341 306.735V303.496L184.426 314.623Z" fill="#B36A23"/>
</g>
<defs>
<clipPath id="clip0_200_1900">
<rect width="353" height="330" fill="white"/>
</clipPath>
</defs>
</svg>
