<svg width="309" height="270" viewBox="0 0 309 270" fill="none" xmlns="http://www.w3.org/2000/svg">
<path d="M287.508 15.9637H39.7495C28.0526 15.9637 18.5703 25.4459 18.5703 37.1428V193.169C18.5703 204.866 28.0526 214.348 39.7495 214.348H287.508C299.205 214.348 308.687 204.866 308.687 193.169V37.1428C308.687 25.4459 299.205 15.9637 287.508 15.9637Z" fill="#2B5AAC"/>
<path d="M11.8012 13.6756C11.3051 13.6735 10.8297 13.4766 10.4775 13.1272L7.07372 9.74232C6.71763 9.38624 6.51758 8.90331 6.51758 8.39973C6.51758 7.89616 6.71763 7.4132 7.07372 7.05711C7.4298 6.70103 7.91273 6.50098 8.41631 6.50098C8.91988 6.50098 9.40284 6.70103 9.75893 7.05711L13.1438 10.4609C13.496 10.8152 13.6937 11.2945 13.6937 11.7941C13.6937 12.2936 13.496 12.7729 13.1438 13.1272C12.9671 13.3025 12.7575 13.4411 12.5272 13.5352C12.2968 13.6293 12.0501 13.677 11.8012 13.6756Z" fill="#2B5AAC"/>
<path d="M6.67521 25.551H1.891C1.38947 25.551 0.908489 25.3518 0.553858 24.9972C0.199228 24.6425 0 24.1616 0 23.66C0 23.1585 0.199228 22.6775 0.553858 22.3229C0.908489 21.9683 1.38947 21.769 1.891 21.769H6.67521C7.17674 21.769 7.65772 21.9683 8.01235 22.3229C8.36698 22.6775 8.56621 23.1585 8.56621 23.66C8.56621 24.1616 8.36698 24.6425 8.01235 24.9972C7.65772 25.3518 7.17674 25.551 6.67521 25.551Z" fill="#2B5AAC"/>
<path d="M23.8467 8.56989C23.3673 8.57106 22.9053 8.39009 22.5542 8.06361C22.2032 7.73712 21.9892 7.28948 21.9557 6.81125L21.6153 2.02703C21.5973 1.77857 21.6286 1.52903 21.7073 1.29269C21.786 1.05635 21.9107 0.837888 22.0741 0.649871C22.2375 0.461854 22.4365 0.307984 22.6596 0.197089C22.8826 0.0861944 23.1254 0.020465 23.3739 0.00367888C23.8726 -0.0274579 24.3633 0.140015 24.7389 0.469532C25.1145 0.799048 25.3444 1.26381 25.3784 1.76229L25.7377 6.54651C25.7557 6.79497 25.7244 7.04454 25.6457 7.28088C25.567 7.51722 25.4423 7.73568 25.2789 7.9237C25.1155 8.11171 24.9165 8.26558 24.6934 8.37648C24.4704 8.48737 24.2276 8.5531 23.979 8.56989H23.8467Z" fill="#2B5AAC"/>
<path d="M184.788 193.944L260.863 270V193.944H184.788Z" fill="#2B5AAC"/>
<path d="M205.645 160.625L201.863 144.57C200.908 140.35 200.908 135.97 201.863 131.749L207.12 108.887C209.271 99.1379 208.107 88.9497 203.811 79.9373C199.516 70.9249 192.335 63.6041 183.407 59.1351C183.575 58.7144 183.72 58.2852 183.842 57.8492C184.153 56.4623 184.187 55.0278 183.943 53.6277C183.699 52.2276 183.182 50.8892 182.42 49.689C181.659 48.4888 180.669 47.4503 179.506 46.6327C178.344 45.8152 177.032 45.2347 175.645 44.9243C174.258 44.6138 172.823 44.5796 171.423 44.8236C170.023 45.0676 168.685 45.585 167.485 46.3462C166.284 47.1074 165.246 48.0975 164.428 49.2601C163.611 50.4226 163.03 51.7348 162.72 53.1217C162.626 53.5638 162.569 54.0129 162.55 54.4644C152.57 54.6985 142.953 58.2552 135.222 64.5711C127.492 70.8871 122.089 79.6015 119.87 89.3343L114.745 112.215C113.804 116.428 111.93 120.376 109.261 123.769L99.0689 136.723C98.072 137.993 97.4128 139.496 97.153 141.09C96.8931 142.684 97.041 144.317 97.5827 145.839C98.1245 147.36 99.0425 148.72 100.251 149.791C101.46 150.862 102.92 151.61 104.496 151.964L194.318 172.084C195.889 172.424 197.519 172.361 199.059 171.903C200.598 171.445 201.998 170.606 203.127 169.463C204.256 168.321 205.079 166.912 205.519 165.367C205.96 163.822 206.003 162.191 205.645 160.625Z" fill="white"/>
<path d="M137.817 165.579C137.133 165.429 136.423 165.449 135.75 165.638C135.076 165.827 134.46 166.179 133.955 166.664C133.45 167.148 133.072 167.749 132.855 168.414C132.638 169.08 132.589 169.788 132.711 170.477C133.227 173.515 134.635 176.332 136.757 178.567C138.879 180.802 141.618 182.356 144.625 183.029C147.633 183.702 150.773 183.465 153.645 182.348C156.517 181.23 158.992 179.284 160.754 176.755C161.157 176.185 161.413 175.525 161.5 174.833C161.588 174.14 161.503 173.437 161.255 172.785C161.006 172.133 160.601 171.552 160.076 171.094C159.55 170.635 158.919 170.313 158.239 170.155L137.817 165.579Z" fill="white"/>
<path d="M68.8327 133.754C68.3641 133.757 67.9021 133.643 67.4891 133.422C67.0762 133.2 66.7254 132.879 66.4689 132.487C57.5376 119.106 54.2873 102.725 57.4328 86.948C60.5783 71.1708 69.8621 57.2891 83.2421 48.3564C83.869 47.9401 84.6356 47.79 85.3732 47.9389C86.1108 48.0878 86.7591 48.5237 87.1753 49.1506C87.5916 49.7775 87.7418 50.5441 87.5928 51.2817C87.4439 52.0194 87.008 52.6676 86.3811 53.0839C74.2686 61.1965 65.8718 73.7855 63.0352 88.0852C60.1987 102.385 63.1544 117.226 71.2531 129.348C71.6714 129.972 71.8248 130.737 71.6794 131.475C71.534 132.212 71.1019 132.862 70.4778 133.281C69.9902 133.602 69.4163 133.767 68.8327 133.754Z" fill="white"/>
<path d="M80.8409 125.698C80.3762 125.695 79.9193 125.578 79.5104 125.357C79.1015 125.136 78.7532 124.818 78.496 124.431C71.6981 114.238 69.2241 101.763 71.6174 89.747C74.0107 77.7309 81.0756 67.156 91.2603 60.3452C91.5707 60.1379 91.9189 59.9937 92.285 59.9209C92.6512 59.8482 93.028 59.8482 93.3942 59.9211C93.7603 59.994 94.1085 60.1382 94.4188 60.3456C94.7292 60.5531 94.9957 60.8196 95.203 61.13C95.4104 61.4404 95.5545 61.7887 95.6273 62.1548C95.7001 62.5209 95.7001 62.8978 95.6272 63.2639C95.5543 63.63 95.41 63.9782 95.2026 64.2886C94.9952 64.5989 94.7286 64.8654 94.4182 65.0727C85.4788 71.0385 79.2753 80.3111 77.1724 90.8506C75.0694 101.39 77.2393 112.333 83.2046 121.273C83.6229 121.898 83.7762 122.663 83.6309 123.4C83.4855 124.138 83.0533 124.787 82.4293 125.206C81.9589 125.521 81.4069 125.692 80.8409 125.698Z" fill="white"/>
<path d="M92.867 117.661C92.4033 117.664 91.9463 117.551 91.537 117.333C91.1278 117.115 90.779 116.799 90.5221 116.413C88.2053 112.944 86.5953 109.052 85.7842 104.96C84.9731 100.868 84.9769 96.656 85.7954 92.5654C86.6139 88.4747 88.231 84.5856 90.5541 81.1206C92.8772 77.6556 95.8608 74.6827 99.3342 72.372C99.9586 71.9842 100.709 71.8539 101.428 72.0086C102.147 72.1634 102.777 72.5911 103.187 73.2016C103.596 73.8121 103.752 74.5578 103.623 75.2814C103.493 76.005 103.088 76.6501 102.492 77.0806C99.6433 78.9824 97.197 81.4268 95.2931 84.2742C93.3891 87.1216 92.0648 90.3161 91.3957 93.6755C90.7267 97.0348 90.726 100.493 91.3938 103.853C92.0615 107.212 93.3846 110.407 95.2874 113.255C95.7008 113.881 95.8512 114.645 95.7061 115.381C95.561 116.117 95.1321 116.766 94.5121 117.189C94.0245 117.51 93.4506 117.675 92.867 117.661Z" fill="white"/>
<path d="M232.367 173.635C231.733 173.633 231.117 173.419 230.619 173.027C230.12 172.634 229.768 172.086 229.618 171.47C229.468 170.854 229.528 170.205 229.79 169.628C230.052 169.05 230.5 168.577 231.062 168.283C244.018 161.589 253.785 150.025 258.218 136.132C262.65 122.239 261.385 107.154 254.699 94.194C254.496 93.8613 254.364 93.4903 254.31 93.1041C254.257 92.718 254.284 92.3249 254.389 91.9495C254.494 91.5742 254.676 91.2245 254.922 90.9225C255.169 90.6204 255.475 90.3723 255.821 90.1938C256.168 90.0153 256.548 89.9102 256.937 89.885C257.326 89.8598 257.716 89.915 258.083 90.0472C258.449 90.1795 258.785 90.386 259.068 90.6537C259.351 90.9214 259.577 91.2447 259.73 91.6034C263.381 98.6854 265.602 106.418 266.265 114.358C266.928 122.299 266.02 130.292 263.593 137.882C261.167 145.471 257.268 152.508 252.121 158.591C246.974 164.674 240.679 169.683 233.596 173.332C233.213 173.52 232.793 173.623 232.367 173.635Z" fill="white"/>
<path d="M225.729 160.795C225.095 160.793 224.479 160.579 223.981 160.187C223.483 159.795 223.13 159.247 222.98 158.63C222.83 158.014 222.891 157.365 223.152 156.788C223.414 156.21 223.862 155.737 224.424 155.443C229.156 153.004 233.361 149.655 236.798 145.59C240.235 141.524 242.836 136.82 244.454 131.748C246.071 126.676 246.673 121.335 246.225 116.03C245.776 110.725 244.286 105.56 241.84 100.832C241.494 100.162 241.428 99.3824 241.657 98.6643C241.886 97.9461 242.391 97.3483 243.06 97.0023C243.73 96.6562 244.509 96.5903 245.227 96.819C245.945 97.0478 246.543 97.5524 246.889 98.222C249.676 103.612 251.374 109.499 251.884 115.546C252.395 121.593 251.708 127.682 249.864 133.463C248.02 139.245 245.055 144.606 241.137 149.241C237.22 153.875 232.427 157.692 227.034 160.474C226.633 160.688 226.184 160.799 225.729 160.795Z" fill="white"/>
<path d="M219.092 147.955C218.46 147.945 217.849 147.725 217.356 147.33C216.862 146.936 216.513 146.388 216.364 145.774C216.215 145.16 216.273 144.514 216.531 143.936C216.789 143.359 217.231 142.884 217.787 142.585C220.832 141.018 223.537 138.866 225.749 136.252C227.961 133.639 229.636 130.614 230.677 127.353C231.719 124.091 232.107 120.656 231.819 117.244C231.532 113.832 230.574 110.51 229.001 107.469C228.655 106.799 228.589 106.02 228.818 105.302C229.046 104.584 229.551 103.986 230.221 103.64C230.89 103.294 231.67 103.228 232.388 103.456C233.106 103.685 233.704 104.19 234.05 104.859C237.898 112.349 238.618 121.059 236.051 129.078C233.485 137.098 227.841 143.771 220.359 147.634C219.967 147.836 219.533 147.946 219.092 147.955Z" fill="white"/>
</svg>
