<svg width="267" height="271" viewBox="0 0 267 271" fill="none" xmlns="http://www.w3.org/2000/svg">
<path d="M237.264 187.573H254.184V180.423H237.264V187.573Z" fill="#EBEBEB"/>
<path d="M246.708 196.589L255.238 196.41L259.442 196.34C260.841 196.308 262.234 196.34 263.627 196.301L263.34 196.589V189.439L263.659 189.758L255.199 189.72C252.382 189.72 249.558 189.643 246.74 189.612L246.912 189.439C246.912 190.608 246.861 191.784 246.829 192.972L246.708 196.589ZM246.708 196.589L246.593 193.081C246.561 191.893 246.516 190.685 246.51 189.471V189.247H246.689C249.506 189.209 252.331 189.145 255.148 189.139L263.608 189.1H263.927V189.42L263.889 196.57V196.857H263.608C262.183 196.857 260.752 196.857 259.327 196.825L255.072 196.755L246.708 196.589Z" fill="#EBEBEB"/>
<path d="M122.089 126.363L130.625 126.184L134.823 126.113C136.222 126.081 137.615 126.113 139.008 126.081L138.72 126.363L138.688 119.213L139.008 119.532L130.548 119.494C127.73 119.494 124.906 119.424 122.089 119.385L122.261 119.213C122.261 120.382 122.21 121.558 122.178 122.753L122.089 126.363ZM122.089 126.363L121.999 122.797C121.967 121.609 121.929 120.401 121.916 119.187V119.015H122.095C124.913 118.983 127.737 118.913 130.555 118.906L139.014 118.868H139.334V119.187L139.302 126.337V126.631H139.021C137.596 126.631 136.164 126.631 134.746 126.593L130.484 126.522L122.089 126.363Z" fill="#EBEBEB"/>
<path d="M131.525 135.378H148.444V128.228H131.525V135.378Z" fill="#EBEBEB"/>
<path d="M112.505 135.378L121.041 135.199L125.245 135.129C126.644 135.097 128.031 135.129 129.424 135.097L129.143 135.378L129.104 128.228L129.424 128.548L120.964 128.509C118.146 128.509 115.329 128.439 112.505 128.401L112.683 128.228C112.683 129.397 112.626 130.573 112.6 131.768L112.505 135.378ZM112.505 135.378L112.415 131.838C112.415 130.65 112.345 129.442 112.332 128.228V128.056H112.505C115.329 128.056 118.146 127.953 120.964 127.947L129.424 127.909H129.75V128.228L129.718 135.378V135.666H129.43C128.005 135.666 126.574 135.666 125.156 135.627L120.9 135.557L112.505 135.378Z" fill="#EBEBEB"/>
<path d="M148.138 44.8206H165.058V37.6708H148.138V44.8206Z" fill="#EBEBEB"/>
<path d="M3.37271 196.589L11.909 196.41L16.1132 196.34C17.5061 196.308 18.899 196.34 20.2919 196.301L20.0108 196.589L19.9725 189.439L20.2919 189.758L11.8323 189.72C9.01458 189.72 6.19045 189.643 3.37271 189.612L3.54523 189.439C3.54523 190.608 3.49411 191.784 3.46216 192.972L3.37271 196.589ZM3.37271 196.589L3.28326 193.081C3.25131 191.893 3.21297 190.685 3.2002 189.471V189.247H3.37271C6.19045 189.209 9.01458 189.145 11.8323 189.139L20.2919 189.1H20.6114V189.42V196.57V196.857H20.3239C18.899 196.857 17.4678 196.857 16.0493 196.825L11.794 196.755L3.37271 196.589Z" fill="#EBEBEB"/>
<path d="M12.8096 15.5825L21.3459 15.4036L25.5501 15.3333C26.9494 15.3014 28.3359 15.3333 29.7288 15.295L29.4477 15.5825L29.4093 8.42636L29.7288 8.74584L21.2692 8.7075C18.4515 8.7075 15.6337 8.63083 12.8096 8.59888L12.9885 8.42636C12.9885 9.59563 12.931 10.7713 12.899 11.9661L12.8096 15.5825ZM12.8096 15.5825L12.7393 12.0428C12.7393 10.8543 12.669 9.64674 12.6562 8.43275V8.26024H12.8288C15.6529 8.22829 18.4706 8.15801 21.2884 8.15162L29.748 8.11328H30.0738V8.42636L29.9908 15.5825V15.8701H29.7033C28.2784 15.8701 26.8472 15.8701 25.4287 15.8317L21.1734 15.7614L12.8096 15.5825Z" fill="#EBEBEB"/>
<path d="M3.37278 24.5981L20.292 24.5981V17.4483H3.37278V24.5981Z" fill="#EBEBEB"/>
<path d="M246.708 15.5825L255.238 15.4036L259.442 15.3333C260.841 15.3014 262.234 15.3333 263.627 15.295L263.34 15.5825V8.43275L263.659 8.75222L255.199 8.71389C252.382 8.71389 249.558 8.63721 246.74 8.60527L246.912 8.43275C246.912 9.60202 246.861 10.7777 246.829 11.9725L246.708 15.5825ZM246.708 15.5825L246.593 12.0428C246.561 10.8543 246.516 9.64674 246.51 8.43275V8.26024H246.689C249.506 8.22829 252.331 8.15801 255.148 8.15162L263.608 8.11328H263.927V8.42636L263.908 15.5825V15.8701H263.627C262.202 15.8701 260.771 15.8701 259.346 15.8317L255.091 15.7614L246.708 15.5825Z" fill="#EBEBEB"/>
<path d="M81.9182 219.77H35.9463V270.674H81.9182V219.77Z" fill="#EBEBEB"/>
<path d="M12.2154 270.681H35.9521L35.9521 219.77H12.2154L12.2154 270.681Z" fill="#DBDBDB"/>
<path d="M13.8447 267.198C15.6082 263.578 17.3504 259.957 19.0713 256.336L24.2403 245.327L29.3519 234.331C31.0557 230.659 32.7255 226.975 34.3612 223.277C32.5977 226.898 30.8555 230.529 29.1346 234.171L23.9848 245.123L18.8732 256.119C17.1736 259.795 15.4975 263.488 13.8447 267.198Z" fill="#EBEBEB"/>
<path d="M13.8447 223.277C15.4975 226.979 17.1672 230.664 18.854 234.331L23.9656 245.327L29.1155 256.279C30.8406 259.921 32.5828 263.541 34.342 267.141C32.6893 263.443 31.0195 259.759 29.3327 256.087L24.2212 245.091L19.0713 234.139C17.3461 230.519 15.6039 226.898 13.8447 223.277Z" fill="#EBEBEB"/>
<path d="M81.9182 142.885H35.9463V190.282H81.9182V142.885Z" fill="#EBEBEB"/>
<path d="M12.2154 190.289H35.9521L35.9521 142.886H12.2154L12.2154 190.289Z" fill="#DBDBDB"/>
<path d="M55.0312 153.888H56.0088H56.7372L57.1525 153.038L57.7404 153.888L58.5327 152.144L59.2866 153.888H61.4398H62.4174L62.7752 152.725L63.1075 153.888H63.7464V142.885H55.0312V153.888Z" fill="#DBDBDB"/>
<path d="M13.8447 187.267C15.6082 183.902 17.3504 180.515 19.0713 177.107L24.2212 166.884L29.3327 156.661C31.0366 153.254 32.7063 149.822 34.342 146.368C32.5785 149.742 30.8363 153.124 29.1155 156.514L23.9656 166.705L18.854 176.929C17.1672 180.375 15.4975 183.821 13.8447 187.267Z" fill="#EBEBEB"/>
<path d="M13.8447 146.393C15.4975 149.831 17.1672 153.253 18.854 156.661L23.9656 166.884L29.1155 177.107C30.8406 180.515 32.5828 183.897 34.342 187.254C32.6893 183.812 31.0195 180.381 29.3327 176.96L24.2212 166.737L19.0713 156.546C17.3461 153.151 15.6039 149.767 13.8447 146.393Z" fill="#EBEBEB"/>
<path d="M38.9749 187.343H44.0801V182.238H38.9749V187.343Z" fill="white"/>
<path d="M78.8577 190.289H32.8857V219.77H78.8577V190.289Z" fill="#DBDBDB"/>
<path d="M9.14901 219.77H32.8857L32.8857 190.289H9.14901L9.14901 219.77Z" fill="#C7C7C7"/>
<path d="M51.9707 201.291H52.9419H53.6767L54.092 200.441L54.6798 201.291L55.4721 199.547L56.2261 201.291H58.3729H59.3569L59.7083 200.128L60.0469 201.291H60.6859V190.289H51.9707V201.291Z" fill="white"/>
<path d="M10.7842 218C12.5434 215.87 14.2856 213.721 16.0107 211.553L21.1606 205.074L26.2722 198.563C27.9504 196.391 29.6181 194.21 31.2751 192.02C29.5201 194.15 27.7779 196.299 26.0485 198.467L20.8986 204.953L15.7871 211.457C14.1046 213.642 12.4369 215.823 10.7842 218Z" fill="#DBDBDB"/>
<path d="M10.7842 192.04C12.4412 194.229 14.1109 196.41 15.7935 198.582L20.905 205.093L26.0549 211.572C27.7588 213.727 29.4967 215.87 31.2687 218C29.6202 215.81 27.9526 213.629 26.2658 211.457L21.1542 204.953L16.0043 198.467C14.2835 196.329 12.5434 194.186 10.7842 192.04Z" fill="#DBDBDB"/>
<path d="M257.851 226.146H211.879V270.681H257.851V226.146Z" fill="#DBDBDB"/>
<path d="M188.149 270.681H211.886V226.146H188.149V270.681Z" fill="#C7C7C7"/>
<path d="M230.965 237.149H231.936H232.671L233.086 236.299L233.674 237.149L234.466 235.405L235.22 237.149H237.367H238.351L238.709 235.98L239.041 237.149H239.68V226.146H230.965V237.149Z" fill="white"/>
<path d="M189.778 268.029C191.538 264.796 193.28 261.55 195.005 258.291L200.155 248.503L205.266 238.676C206.97 235.392 208.638 232.099 210.269 228.798C208.514 232.031 206.772 235.277 205.043 238.535L199.893 248.318L194.813 258.151C193.126 261.435 191.448 264.728 189.778 268.029Z" fill="#DBDBDB"/>
<path d="M189.778 228.798C191.435 232.099 193.105 235.392 194.788 238.676L199.867 248.503L205.017 258.291C206.742 261.55 208.484 264.796 210.244 268.029C208.595 264.723 206.928 261.431 205.241 258.151L200.129 248.318L194.979 238.535C193.271 235.277 191.538 232.031 189.778 228.798Z" fill="#DBDBDB"/>
<path d="M177.919 5.87061V114.555H252.714V5.87061H177.919ZM249.953 111.763H180.679V8.59889H249.953V111.763Z" fill="#EBEBEB"/>
<path d="M249.954 8.59888H180.68V111.763H249.954V8.59888Z" fill="white"/>
<path d="M180.68 64.7556L249.954 64.7556V61.9953L180.68 61.9953V64.7556Z" fill="#EBEBEB"/>
<path d="M172.834 122.439L257.794 122.439V114.516L172.834 114.516V122.439Z" fill="#DBDBDB"/>
<path d="M175.089 125.608L255.545 127.295V122.439H175.089V125.608Z" fill="#EBEBEB"/>
<path d="M180.68 8.59888H249.954V79.4768H180.68V8.59888ZM247.398 11.1546H183.235V76.9211H247.398V11.1546Z" fill="#DBDBDB"/>
<path d="M227.846 8.59888H226.466V76.921H227.846V8.59888Z" fill="#DBDBDB"/>
<path d="M204.167 8.59888H202.787V76.921H204.167V8.59888Z" fill="#DBDBDB"/>
<path d="M14.2861 5.87061V114.555H89.0808V5.87061H14.2861ZM86.3206 111.763H17.0464V8.59889H86.3206V111.763Z" fill="#EBEBEB"/>
<path d="M86.3201 8.59888H17.0459V111.763H86.3201V8.59888Z" fill="white"/>
<path d="M17.0461 64.7556L86.3203 64.7556V61.9953L17.0461 61.9953V64.7556Z" fill="#EBEBEB"/>
<path d="M9.19991 122.439L94.1602 122.439V114.516L9.19991 114.516V122.439Z" fill="#DBDBDB"/>
<path d="M11.4551 125.608L91.9108 127.295V122.439H11.4551V125.608Z" fill="#EBEBEB"/>
<path d="M17.0459 8.59888H86.3201V79.4768H17.0459V8.59888ZM83.7643 11.1546H19.6017V76.9211H83.7643V11.1546Z" fill="#DBDBDB"/>
<path d="M64.2131 8.59888H62.833V76.921H64.2131V8.59888Z" fill="#DBDBDB"/>
<path d="M40.5334 8.59888H39.1533V76.921H40.5334V8.59888Z" fill="#DBDBDB"/>
<path d="M190.18 218.032H126.49V270.655H190.18V218.032Z" fill="#2B5AAC"/>
<path opacity="0.1" d="M190.18 218.032H126.49V270.655H190.18V218.032Z" fill="black"/>
<path d="M215.419 218.038H190.181V270.662H215.419V218.038Z" fill="#2B5AAC"/>
<path opacity="0.2" d="M215.419 218.038H190.181V270.662H215.419V218.038Z" fill="black"/>
<path d="M213.674 267.032C211.808 263.292 209.957 259.54 208.122 255.774L202.646 244.452L197.24 233.085C195.451 229.29 193.677 225.482 191.918 221.661C193.792 225.405 195.645 229.158 197.477 232.919L202.946 244.241L208.352 255.608C210.149 259.403 211.923 263.211 213.674 267.032Z" fill="#2B5AAC"/>
<path d="M213.674 221.661C211.919 225.495 210.145 229.303 208.352 233.085L202.946 244.452L197.477 255.774C195.641 259.535 193.788 263.288 191.918 267.032C193.677 263.199 195.451 259.391 197.24 255.608L202.646 244.241L208.122 232.925C209.957 229.156 211.808 225.401 213.674 221.661Z" fill="#2B5AAC"/>
<path d="M162.84 229.405H161.837H161.077L160.649 228.53L160.042 229.405L159.217 227.603L158.444 229.405H156.221H155.205L154.834 228.204L154.489 229.405H153.831V218.038H162.84V229.405Z" fill="white"/>
<path d="M194.02 165.415H146.502V218.032H194.02V165.415Z" fill="#2B5AAC"/>
<path d="M218.556 165.415H194.021V218.038H218.556V165.415Z" fill="#2B5AAC"/>
<path opacity="0.1" d="M218.556 165.415H194.021V218.038H218.556V165.415Z" fill="black"/>
<g opacity="0.1">
<path d="M190.538 214.409C187.05 210.665 183.591 206.912 180.162 203.151L169.92 191.803L159.831 180.436C156.483 176.641 153.169 172.833 149.889 169.012C153.382 172.756 156.84 176.511 160.265 180.277L170.488 191.592L180.577 202.959C183.938 206.771 187.258 210.588 190.538 214.409Z" fill="black"/>
<path d="M190.539 169.037C187.254 172.871 183.94 176.679 180.597 180.462L170.508 191.803L160.285 203.125C156.877 206.886 153.418 210.639 149.908 214.383C153.192 210.55 156.506 206.741 159.85 202.959L169.92 191.618L180.143 180.302C183.581 176.532 187.046 172.777 190.539 169.037Z" fill="black"/>
</g>
<path d="M215.105 209.131H210.805V215.201H215.105V209.131Z" fill="white"/>
<path d="M0.248047 270.681L33.5625 270.521L66.877 270.47L133.5 270.361L200.122 270.47L233.437 270.521L266.751 270.681L233.437 270.834L200.122 270.891L133.5 271L66.877 270.891L33.5625 270.834L0.248047 270.681Z" fill="#263238"/>
<path d="M158.878 89.4445C158.52 89.2145 158.162 88.9908 157.805 88.7736L158.054 88.3583L159.14 89.0419L158.878 89.4445Z" fill="#263238"/>
<path d="M143.274 153.467H142.814V152.987C143.668 153.006 144.521 152.974 145.37 152.891L145.421 153.371C144.725 153.422 143.996 153.467 143.274 153.467ZM148.015 152.943L147.913 152.476C148.744 152.288 149.56 152.038 150.354 151.729L150.526 152.176C149.709 152.489 148.87 152.741 148.015 152.93V152.943ZM152.891 151.026L152.654 150.61C153.389 150.182 154.087 149.694 154.744 149.154L155.05 149.518C154.374 150.082 153.652 150.589 152.891 151.032V151.026ZM156.935 147.703L156.584 147.377C157.157 146.747 157.684 146.077 158.162 145.371L158.558 145.639C158.068 146.37 157.526 147.064 156.935 147.716V147.703ZM159.861 143.365L159.427 143.16C159.791 142.391 160.088 141.591 160.315 140.771L160.775 140.899C160.543 141.748 160.237 142.575 159.861 143.371V143.365ZM161.242 138.304L160.762 138.266C160.762 137.921 160.807 137.57 160.807 137.231C160.805 136.757 160.778 136.283 160.724 135.813C160.227 135.779 159.732 135.717 159.242 135.627L159.325 135.154C160.105 135.295 160.896 135.368 161.689 135.372H161.855V135.851H161.682H161.203C161.254 136.313 161.28 136.778 161.28 137.244C161.286 137.589 161.267 137.953 161.242 138.311V138.304ZM164.481 135.531L164.372 135.065C165.194 134.87 165.99 134.579 166.743 134.196L166.96 134.624C166.173 135.026 165.341 135.332 164.481 135.538V135.531ZM156.699 134.937C155.872 134.639 155.071 134.276 154.303 133.851L154.539 133.436C155.283 133.847 156.058 134.197 156.858 134.484L156.699 134.937ZM160.136 133.25C159.856 132.451 159.487 131.686 159.037 130.969L159.44 130.714C159.913 131.459 160.299 132.257 160.59 133.091L160.136 133.25ZM169.158 133.148L168.851 132.784C169.5 132.236 170.092 131.626 170.621 130.963L170.992 131.263C170.446 131.958 169.832 132.596 169.158 133.167V133.148ZM152.137 132.381L152.002 132.254C151.37 131.698 150.866 131.011 150.526 130.241L150.974 130.062C151.285 130.767 151.748 131.395 152.328 131.902L152.456 132.017L152.137 132.381ZM172.474 129.116L172.065 128.867C172.513 128.126 172.928 127.366 173.292 126.618L173.727 126.829C173.356 127.589 172.934 128.362 172.474 129.116ZM157.446 129.021C156.862 128.455 156.22 127.954 155.529 127.525L155.434 127.462L155.683 127.053L155.785 127.117C156.497 127.566 157.159 128.091 157.759 128.682L157.446 129.021ZM151.102 127.787L150.705 127.519C150.979 127.135 151.342 126.822 151.762 126.609C152.183 126.395 152.649 126.286 153.121 126.292V126.771C152.728 126.769 152.34 126.86 151.989 127.037C151.638 127.213 151.334 127.471 151.102 127.787ZM174.742 124.42L174.295 124.254C174.591 123.452 174.845 122.635 175.056 121.807L175.516 121.922C175.31 122.769 175.054 123.603 174.749 124.42H174.742ZM176.02 119.353L175.541 119.289C175.655 118.442 175.721 117.589 175.739 116.734H176.218C176.201 117.61 176.135 118.484 176.02 119.353ZM175.65 114.178C175.573 113.32 175.451 112.467 175.286 111.622L175.758 111.526C175.925 112.382 176.049 113.246 176.129 114.114L175.65 114.178ZM174.659 109.156C174.417 108.351 174.129 107.539 173.797 106.734L174.244 106.555C174.576 107.367 174.883 108.197 175.119 109.015L174.659 109.156ZM172.743 104.396C172.359 103.648 171.931 102.894 171.465 102.153L171.874 101.904C172.334 102.651 172.768 103.418 173.151 104.178L172.743 104.396ZM170.053 100.013C169.561 99.3225 169.03 98.6388 168.481 97.9743L168.851 97.6676C169.407 98.3385 169.944 99.035 170.442 99.7314L170.053 100.013ZM166.781 96.0383C166.2 95.3994 165.586 94.8052 164.96 94.2173L165.286 93.8659C165.925 94.4665 166.564 95.0863 167.126 95.7125L166.781 96.0383ZM163.031 92.505C162.392 91.9619 161.695 91.4252 161.012 90.914L161.293 90.5306C161.989 91.0418 162.679 91.5849 163.337 92.1408L163.031 92.505Z" fill="#263238"/>
<path d="M140.138 153.237C139.708 153.183 139.282 153.106 138.86 153.007L138.975 152.54C138.975 152.54 139.435 152.655 140.202 152.764L140.138 153.237Z" fill="#263238"/>
<path d="M133.691 152.285C133.391 154.84 138.611 156.272 139.007 152.923C139.403 149.575 133.991 149.71 133.691 152.285Z" fill="#263238"/>
<path d="M140.528 156.514C140.042 157.479 138.323 157.613 136.547 156.374C135.341 155.453 134.321 154.31 133.544 153.006C135.046 152.85 136.564 152.982 138.017 153.396C140.119 154.105 141.039 155.537 140.528 156.514Z" fill="#EBEBEB"/>
<path d="M133.563 153.007C134.573 153.46 135.563 153.952 136.554 154.438C137.544 154.923 138.522 155.441 139.486 155.978C138.477 155.524 137.487 155.032 136.496 154.546C135.506 154.061 134.528 153.543 133.563 153.007Z" fill="#263238"/>
<path d="M138.202 156.495C137.973 156.229 137.759 155.95 137.563 155.658C137.37 155.369 137.195 155.068 137.039 154.757C137.268 155.023 137.482 155.303 137.678 155.594C137.872 155.883 138.047 156.184 138.202 156.495Z" fill="#263238"/>
<path d="M136.055 154.252C136.406 154.161 136.762 154.089 137.122 154.035C137.484 153.984 137.849 153.952 138.214 153.939C137.507 154.116 136.783 154.22 136.055 154.252Z" fill="#263238"/>
<path d="M135.499 154.674C135.279 154.401 135.122 154.082 135.039 153.741C135.259 154.015 135.416 154.333 135.499 154.674Z" fill="#263238"/>
<path d="M141.371 149.825C141.122 148.77 139.486 148.246 137.473 149.039C136.084 149.657 134.827 150.535 133.768 151.626C135.204 152.124 136.722 152.341 138.24 152.265C140.393 152.086 141.627 150.911 141.371 149.825Z" fill="#EBEBEB"/>
<path d="M133.768 151.626C134.854 151.422 135.934 151.166 137.007 150.917C138.08 150.668 139.154 150.4 140.202 150.099C139.122 150.304 138.042 150.559 136.969 150.809C135.895 151.058 134.835 151.326 133.768 151.626Z" fill="#263238"/>
<path d="M139.09 149.301C138.812 149.498 138.545 149.712 138.291 149.94C138.038 150.178 137.797 150.43 137.569 150.693C137.85 150.5 138.117 150.286 138.368 150.055C138.623 149.817 138.864 149.566 139.09 149.301Z" fill="#263238"/>
<path d="M136.471 150.987C137.118 151.324 137.799 151.592 138.503 151.786C137.857 151.446 137.175 151.179 136.471 150.987Z" fill="#263238"/>
<path d="M136.055 150.451C135.916 150.555 135.789 150.675 135.678 150.809C135.568 150.945 135.471 151.093 135.391 151.249C135.53 151.143 135.656 151.021 135.768 150.885C135.884 150.755 135.98 150.609 136.055 150.451Z" fill="#263238"/>
<path d="M133.691 152.285C133.874 152.306 134.047 152.381 134.187 152.5C134.328 152.619 134.43 152.778 134.48 152.955C134.531 153.132 134.528 153.32 134.472 153.496C134.415 153.671 134.308 153.826 134.164 153.941C134.02 154.056 133.845 154.125 133.662 154.141C133.478 154.156 133.294 154.117 133.133 154.028C132.971 153.939 132.84 153.804 132.755 153.641C132.67 153.477 132.636 153.292 132.656 153.109C132.685 152.863 132.81 152.638 133.004 152.483C133.198 152.329 133.445 152.258 133.691 152.285Z" fill="#455A64"/>
<path d="M133.908 150.425C134.03 150.44 134.148 150.478 134.255 150.538C134.363 150.598 134.457 150.678 134.533 150.774C134.61 150.871 134.666 150.981 134.7 151.1C134.733 151.218 134.743 151.341 134.729 151.464C134.715 151.586 134.676 151.704 134.617 151.811C134.557 151.918 134.476 152.013 134.38 152.089C134.283 152.165 134.173 152.222 134.055 152.255C133.936 152.289 133.813 152.299 133.691 152.285C133.444 152.256 133.219 152.13 133.065 151.936C132.911 151.741 132.841 151.493 132.87 151.246C132.898 151 133.024 150.775 133.219 150.621C133.413 150.467 133.661 150.396 133.908 150.425Z" fill="#455A64"/>
<path d="M75.9947 212.447C75.9947 212.447 62.3724 239.724 62.366 239.724C61.2415 245.353 60.3597 250.317 60.1361 252.924C60.1328 252.939 60.1328 252.954 60.1361 252.969C60.0182 253.573 60.0422 254.197 60.2064 254.79C60.2031 254.805 60.2031 254.82 60.2064 254.835C61.6568 256.304 106.421 266.61 108.127 266.444C109.833 266.278 109.469 261.467 108.05 259.684C106.632 257.902 91.2526 246.266 91.2526 246.266L104.568 218.945L75.9947 212.447Z" fill="#D3766A"/>
<path d="M107.449 266.47C105.769 266.636 61.6754 256.323 60.2313 254.86C60.2292 254.845 60.2292 254.83 60.2313 254.815C60.0641 254.223 60.0379 253.599 60.1547 252.994C60.1493 252.98 60.1493 252.964 60.1547 252.95C60.3719 250.343 61.26 245.378 62.3782 239.743L65.6368 233.213L93.8845 240.957L91.2776 246.311C91.2776 246.311 105.973 257.921 107.398 259.729C108.823 261.537 109.136 266.31 107.449 266.47Z" fill="#EBEBEB"/>
<path d="M108.062 265.754C106.356 265.882 61.4835 254.445 60.0522 252.924C59.5027 252.356 60.787 245.717 62.5697 237.743L62.6272 237.494L91.6607 244.554L91.5266 245.04C91.5266 245.04 106.74 257.103 108.139 258.943C109.538 260.783 109.762 265.633 108.062 265.754Z" fill="#263238"/>
<path d="M107.993 263.882C100.479 261.774 69.9628 253.953 62.3722 252.432C62.3083 252.432 62.2955 252.464 62.3722 252.483C69.7775 254.739 100.357 262.31 107.98 263.984C108.127 264.042 108.152 263.927 107.993 263.882Z" fill="white"/>
<path d="M93.9355 245.749C91.0985 244.433 87.3416 243.96 84.5302 245.506C84.4216 245.564 84.5302 245.717 84.6069 245.711C87.686 245.518 90.7769 245.655 93.8268 246.12C93.8716 246.122 93.916 246.11 93.9527 246.084C93.9894 246.058 94.0162 246.021 94.0288 245.978C94.0415 245.934 94.0391 245.888 94.0221 245.847C94.0052 245.805 93.9746 245.771 93.9355 245.749Z" fill="white"/>
<path d="M95.7507 247.589C92.9202 246.279 89.1632 245.806 86.3455 247.346C86.2368 247.404 86.3455 247.557 86.4285 247.557C89.5076 247.361 92.5989 247.498 95.6485 247.966C95.6951 247.971 95.7417 247.958 95.7803 247.932C95.8188 247.905 95.8466 247.866 95.8589 247.821C95.8711 247.776 95.867 247.727 95.8472 247.685C95.8274 247.643 95.7932 247.609 95.7507 247.589Z" fill="white"/>
<path d="M97.571 249.436C94.7341 248.119 90.9771 247.646 88.1658 249.186C88.0572 249.25 88.1658 249.404 88.2488 249.397C91.3258 249.204 94.4146 249.341 97.4624 249.806C97.5072 249.809 97.5515 249.796 97.5882 249.77C97.6249 249.745 97.6518 249.707 97.6644 249.664C97.677 249.621 97.6747 249.575 97.6577 249.533C97.6407 249.492 97.6102 249.457 97.571 249.436Z" fill="white"/>
<path d="M109.156 264.323C109.878 264.834 109.015 267.486 108.382 267.556C107.75 267.626 58.8771 254.937 58.104 254.534C57.3309 254.132 58.3915 251.231 59.3819 251.34C60.3722 251.448 109.156 264.323 109.156 264.323Z" fill="#2B5AAC"/>
<path d="M68.7548 244.407C65.9179 241.954 62.097 246.362 64.9211 248.822C67.7452 251.282 71.5981 246.867 68.7548 244.407Z" fill="white"/>
<path d="M65.7197 231.034L98.4592 239.289C98.4592 239.289 128.975 184.219 128.291 170.219C127.352 150.91 104.682 91.5399 104.682 91.5399H77.5402C77.5402 91.5399 95.552 155.722 95.8012 166.52C95.9098 172.168 65.7197 231.034 65.7197 231.034Z" fill="#455A64"/>
<path d="M99.8583 232.644C98.114 231.948 82.5301 227.45 70.9014 224.977C70.8886 224.981 70.8775 224.989 70.8696 225C70.8617 225.011 70.8574 225.024 70.8574 225.038C70.8574 225.051 70.8617 225.064 70.8696 225.075C70.8775 225.086 70.8886 225.094 70.9014 225.098C74.5625 226.376 97.6667 232.465 99.8327 232.766C99.8838 232.785 99.9349 232.695 99.8583 232.644Z" fill="#263238"/>
<path d="M98.0506 152.732C95.891 143.671 93.578 134.637 91.15 125.66C88.722 116.682 86.1215 107.622 83.2655 98.7154C82.9204 97.6228 82.5562 96.543 82.2048 95.4568C82.1947 95.422 82.1711 95.3928 82.1393 95.3754C82.1076 95.358 82.0702 95.354 82.0355 95.3641C82.0008 95.3743 81.9715 95.3979 81.9541 95.4296C81.9367 95.4614 81.9327 95.4987 81.9429 95.5335C84.4986 104.408 87.0544 113.264 89.476 122.171C91.8976 131.078 94.2042 140.01 96.3766 149.007C96.9197 151.23 97.45 153.447 97.9675 155.677C98.569 157.963 99.0342 160.282 99.3604 162.622C99.6291 164.859 99.4752 167.126 98.9068 169.306C98.2903 171.448 97.4841 173.53 96.498 175.529C92.5834 184.027 88.6709 192.527 84.7606 201.029C80.8503 209.553 80.2177 211.495 76.4543 220.089C75.9879 221.156 75.5215 222.223 75.0742 223.284C75.0742 223.354 75.1445 223.418 75.1828 223.341C79.4638 214.92 80.1219 212.895 84.128 204.32C88.1342 195.745 92.1148 187.068 96.0891 178.436C97.8781 174.539 99.9802 170.565 100.249 166.207C100.517 161.658 99.0857 157.096 98.0506 152.732Z" fill="#263238"/>
<path d="M99.5332 223.233L100.581 253.263C100.754 259.013 101.003 264.042 101.38 266.63C101.377 266.644 101.377 266.66 101.38 266.674C101.401 267.288 101.563 267.889 101.853 268.431L101.891 268.47C103.635 269.575 149.569 269.549 151.173 269.006C152.776 268.463 151.358 263.863 149.575 262.438C147.793 261.013 130.196 253.161 130.196 253.161L128.861 223.162L99.5332 223.233Z" fill="#D3766A"/>
<path d="M100.363 247.116C100.363 247.116 100.581 253.263 100.581 253.282C100.753 259.033 101.002 264.061 101.379 266.649C101.376 266.664 101.376 266.679 101.379 266.694C101.467 267.296 101.625 267.886 101.852 268.451L101.89 268.489C103.635 269.594 149.568 269.569 151.172 269.026C152.776 268.483 151.357 263.882 149.575 262.457C147.792 261.032 130.196 253.18 130.196 253.18L130.061 246.925L100.363 247.116Z" fill="#EBEBEB"/>
<path d="M151.198 268.975C149.575 269.492 103.277 268.776 101.527 267.626C100.888 267.198 100.568 260.451 100.453 252.292V252.036L130.33 252.164V252.675C130.33 252.675 147.933 260.873 149.716 262.336C151.498 263.799 152.827 268.476 151.198 268.975Z" fill="#263238"/>
<path d="M150.706 267.198C142.905 266.885 111.405 266.361 103.667 266.649C103.603 266.649 103.603 266.693 103.667 266.693C111.392 267.173 142.898 267.447 150.706 267.332C150.866 267.294 150.872 267.198 150.706 267.198Z" fill="white"/>
<path d="M132.822 252.79C129.762 252.151 125.992 252.579 123.615 254.707C123.519 254.79 123.615 254.918 123.743 254.892C126.693 253.992 129.73 253.407 132.803 253.148C132.84 253.136 132.873 253.113 132.896 253.082C132.92 253.052 132.934 253.014 132.936 252.976C132.938 252.937 132.928 252.898 132.908 252.865C132.888 252.832 132.858 252.806 132.822 252.79Z" fill="white"/>
<path d="M135.02 254.157C131.953 253.518 128.189 253.953 125.813 256.106C125.717 256.189 125.813 256.317 125.934 256.285C128.885 255.384 131.925 254.801 135.001 254.547C135.047 254.541 135.09 254.519 135.121 254.485C135.153 254.451 135.172 254.407 135.174 254.36C135.176 254.314 135.162 254.268 135.134 254.231C135.106 254.194 135.065 254.168 135.02 254.157Z" fill="white"/>
<path d="M137.211 255.531C134.151 254.892 130.387 255.32 128.004 257.448C127.914 257.531 128.004 257.659 128.132 257.633C131.082 256.734 134.119 256.149 137.192 255.889C137.229 255.877 137.261 255.854 137.285 255.824C137.309 255.793 137.323 255.756 137.325 255.717C137.327 255.678 137.317 255.639 137.297 255.606C137.277 255.573 137.247 255.547 137.211 255.531Z" fill="white"/>
<path d="M151.932 267.326C152.757 267.658 152.533 270.438 151.932 270.648C151.332 270.859 100.817 269.856 99.9928 269.652C99.1686 269.447 99.5008 266.374 100.504 266.227C101.507 266.08 151.932 267.326 151.932 267.326Z" fill="#2B5AAC"/>
<path d="M108.018 257.327C104.689 255.595 101.992 260.77 105.328 262.502C108.663 264.234 111.353 259.058 108.018 257.327Z" fill="white"/>
<path d="M104.345 91.4889C104.223 92.0448 97.4567 118.797 96.6133 119.296C95.6549 119.864 121.2 154.233 124.228 171.108C126.145 181.899 130.618 244.803 130.618 244.803H98.0445C98.0445 244.803 94.8498 191.381 93.7892 173.778C93.3739 166.948 67.7522 135.372 65.3179 114.318C64.5511 107.686 69.3177 91.4634 69.3177 91.4634L104.345 91.4889Z" fill="#455A64"/>
<path d="M97.2197 219.386C96.8363 210.537 96.4849 201.668 95.8396 192.832C95.4754 187.822 94.7598 182.973 94.2614 177.983C94.2614 177.721 94.025 177.657 94.0314 177.925C94.2614 186.813 94.9962 195.605 95.469 204.486C95.9418 213.367 96.3955 215.437 96.9002 224.293C97.1814 229.302 97.4306 234.312 97.8203 239.315C97.8245 239.327 97.8326 239.339 97.8435 239.346C97.8544 239.354 97.8676 239.359 97.881 239.359C97.8945 239.359 97.9076 239.354 97.9185 239.346C97.9294 239.339 97.9375 239.327 97.9417 239.315C97.9609 230.421 97.6095 228.267 97.2197 219.386Z" fill="#263238"/>
<path d="M124.26 171.529C123.981 169.192 123.528 166.879 122.905 164.609C122.234 162.41 121.35 160.28 120.266 158.252C118.049 153.997 115.525 149.882 113.091 145.748C110.657 141.614 108.12 137.39 105.551 133.263C104.107 130.946 102.657 128.631 101.2 126.318C99.7178 123.985 98.1524 121.698 96.6253 119.398C96.6135 119.378 96.5943 119.364 96.5722 119.359C96.55 119.354 96.5266 119.357 96.5071 119.369C96.4876 119.381 96.4737 119.4 96.4683 119.422C96.4629 119.444 96.4665 119.468 96.4784 119.487C98.9702 123.666 101.437 127.851 103.928 132.03C106.42 136.208 108.874 140.4 111.327 144.591C113.781 148.783 116.164 152.847 118.477 157.038C119.616 159.028 120.597 161.105 121.41 163.249C122.166 165.47 122.716 167.756 123.052 170.079C123.921 175.491 124.63 180.941 125.716 186.302C125.721 186.314 125.729 186.326 125.74 186.333C125.751 186.341 125.764 186.346 125.777 186.346C125.791 186.346 125.804 186.341 125.815 186.333C125.825 186.326 125.834 186.314 125.838 186.302C125.499 181.369 124.911 176.43 124.26 171.529Z" fill="#263238"/>
<path d="M127.748 239.219C125.889 238.976 111.698 238.484 99.8266 238.995C99.7499 238.995 99.7563 239.11 99.8266 239.117C103.692 239.455 125.55 239.609 127.729 239.353C127.787 239.347 127.812 239.232 127.748 239.219Z" fill="#263238"/>
<path d="M100.862 117.468C97.5432 118.678 94.3363 120.174 91.2778 121.941C91.2515 121.953 91.2311 121.975 91.2209 122.002C91.2107 122.029 91.2116 122.058 91.2235 122.085C91.2354 122.111 91.2572 122.131 91.2841 122.142C91.3111 122.152 91.341 122.151 91.3673 122.139C94.6003 120.746 97.9036 119.417 101.06 117.852C101.111 117.825 101.149 117.78 101.167 117.726C101.184 117.671 101.179 117.612 101.153 117.561C101.126 117.51 101.081 117.472 101.027 117.454C100.972 117.437 100.913 117.442 100.862 117.468Z" fill="#263238"/>
<path d="M101.84 95.3225C101.84 95.2139 101.635 95.1883 101.635 95.3225C101.636 98.933 101.454 102.541 101.092 106.133C100.939 107.801 99.5968 116.995 96.7088 116.357C96.2232 116.241 95.9804 115.769 95.9037 115.034C95.9118 114.08 96.0406 113.131 96.2871 112.21C96.6066 110.293 96.8622 108.376 97.0283 106.402C97.367 102.774 97.3285 99.1211 96.9133 95.5014C96.9079 95.481 96.8958 95.4629 96.8791 95.45C96.8623 95.4371 96.8418 95.4301 96.8206 95.4301C96.7995 95.4301 96.7789 95.4371 96.7622 95.45C96.7454 95.4629 96.7334 95.481 96.728 95.5014C96.8117 100.53 96.5169 105.558 95.8462 110.542C95.482 112.938 94.2744 116.548 96.7855 116.932C99.2965 117.315 100.99 111.264 101.296 109.609C102.096 104.891 102.278 100.088 101.84 95.3225Z" fill="#263238"/>
<path d="M96.7856 116.555C96.5296 117.178 96.3161 117.819 96.1466 118.471C95.9627 118.973 95.8718 119.503 95.8783 120.037C95.8814 120.059 95.891 120.079 95.906 120.095C95.9209 120.111 95.9404 120.123 95.9619 120.127C95.9834 120.132 96.0058 120.131 96.0263 120.122C96.0467 120.114 96.0642 120.1 96.0763 120.082C96.3782 119.611 96.6045 119.095 96.7472 118.554C96.9708 117.96 97.2009 117.379 97.3862 116.778C97.4158 116.699 97.4126 116.61 97.3773 116.533C97.3419 116.456 97.2773 116.396 97.1977 116.366C97.118 116.336 97.0299 116.34 96.9526 116.375C96.8753 116.41 96.8152 116.475 96.7856 116.555Z" fill="#263238"/>
<path d="M98.1465 182.366C97.8398 177.816 97.859 173.018 95.923 168.801C94.8947 166.746 93.7113 164.772 92.3832 162.897C91.0627 160.878 89.7593 158.848 88.4729 156.808C83.3614 148.649 78.4287 140.323 73.9369 131.793C71.7709 127.685 69.7774 123.442 68.6912 118.906C67.632 114.132 67.4308 109.208 68.097 104.364C68.2504 103.156 68.4165 101.955 68.6146 100.753C68.6152 100.737 68.6102 100.721 68.6003 100.708C68.5905 100.695 68.5765 100.686 68.5606 100.682C68.5448 100.679 68.5281 100.68 68.5135 100.688C68.4988 100.695 68.4871 100.707 68.4804 100.722C67.4291 105.328 67.0695 110.066 67.4133 114.778C67.905 119.284 69.174 123.67 71.1639 127.742C73.1447 132.03 75.5024 136.157 77.8281 140.266C80.2263 144.525 82.6947 148.723 85.2335 152.859C87.7892 156.987 90.4217 161.031 93.0605 165.095C94.4065 167.012 95.4556 169.121 96.1722 171.35C96.7531 173.677 97.0872 176.059 97.1689 178.455C97.8079 188.512 100.364 221.948 101.271 231.954C101.38 233.232 101.495 234.51 101.616 235.788C101.612 235.801 101.612 235.815 101.614 235.828C101.617 235.842 101.623 235.855 101.631 235.866C101.639 235.877 101.65 235.885 101.663 235.892C101.675 235.898 101.688 235.901 101.702 235.901C101.716 235.901 101.73 235.898 101.742 235.892C101.754 235.885 101.765 235.877 101.773 235.866C101.782 235.855 101.787 235.842 101.79 235.828C101.793 235.815 101.792 235.801 101.788 235.788C101.405 225.744 98.8046 192.391 98.1465 182.366Z" fill="#263238"/>
<path d="M82.5117 100.306C82.5117 100.236 82.3967 100.262 82.3967 100.306C82.3008 103.099 82.3967 105.987 81.3041 108.613C80.3201 111.034 78.3394 112.734 76.1222 114.005C74.8328 114.729 73.5039 115.379 72.1416 115.954C72.0458 115.999 72.0841 116.152 72.1927 116.12C74.7485 115.302 77.3873 114.414 79.5278 112.702C81.8152 110.862 82.8184 108.197 82.927 105.322C82.9661 103.64 82.8269 101.959 82.5117 100.306Z" fill="#263238"/>
<path d="M96.6899 54.7944C100.345 66.0142 110.216 85.125 113.743 87.4316C116.868 89.4698 131.57 87.1952 138.023 85.6425C140.426 85.0611 135.02 66.749 132.458 67.4199C129.385 68.2249 120.229 70.2887 119.564 69.7776C118.9 69.2664 109.667 57.8932 103.124 51.1971C97.1691 45.1335 95.3098 50.5518 96.6899 54.7944Z" fill="#D3766A"/>
<path d="M136.611 85.7831C137.844 85.6298 148.278 85.1442 153.064 82.5437C155.619 81.1572 162.143 76.5696 161.491 74.9211C160.897 73.4196 158.801 74.2374 158.801 74.2374C158.801 74.2374 161.683 72.1481 160.84 70.0651C159.996 67.9822 156.514 69.5476 156.514 69.5476C156.514 69.5476 159.319 67.1835 158.328 65.1708C157.338 63.1581 154.105 65.3114 154.105 65.3114C154.105 65.3114 156.769 63.2731 155.255 61.9569C153.428 60.3723 148.936 64.6916 145.901 65.7011C145.211 65.9312 131.614 69.3687 131.614 69.3687L136.611 85.7831Z" fill="#D3766A"/>
<path d="M153.99 65.2539C150.681 68.4166 148.681 69.2281 144.259 70.1226C144.176 70.1226 144.182 70.276 144.259 70.2632C148.668 69.784 151.319 69.1259 154.137 65.4072C154.291 65.2219 154.144 65.1005 153.99 65.2539Z" fill="#263238"/>
<path d="M156.405 69.4709C152.68 72.4612 150.521 73.3557 145.958 74.6336C145.895 74.6336 145.92 74.7678 145.99 74.755C150.565 73.8733 153.198 73.1576 156.527 69.6818C156.68 69.5284 156.578 69.3368 156.405 69.4709Z" fill="#263238"/>
<path d="M158.578 74.2886C154.744 76.921 152.437 78.0136 147.85 78.6845C147.828 78.6845 147.807 78.6933 147.791 78.7088C147.775 78.7244 147.767 78.7455 147.767 78.7676C147.767 78.7896 147.775 78.8107 147.791 78.8263C147.807 78.8419 147.828 78.8506 147.85 78.8506C152.597 78.6206 155.517 77.2852 158.629 74.4164C158.859 74.2375 158.814 74.1289 158.578 74.2886Z" fill="#263238"/>
<path d="M128.049 69.9565C128.049 69.9565 131.851 65.6564 133.933 64.1358C136.016 62.6151 145.882 59.8037 146.61 61.8995C147.549 64.6086 142.176 67.3496 139.371 68.3464C139.371 68.3464 141.55 74.608 138.093 77.4066C134.636 80.2052 128.049 69.9565 128.049 69.9565Z" fill="#D3766A"/>
<path d="M146.629 62.7365C145.702 65.8226 141.933 66.896 139.281 68.0653C139.242 68.0822 139.207 68.1081 139.18 68.1408C139.152 68.1735 139.133 68.2122 139.123 68.2537C139.113 68.2953 139.113 68.3386 139.122 68.3802C139.132 68.4218 139.152 68.4606 139.179 68.4934C139.92 71.1769 140.176 75.1767 138.297 77.4386C138.246 77.5025 138.329 77.5919 138.393 77.5344C140.738 75.3876 140.802 71.4325 139.805 68.5445C142.546 67.388 146.278 66.1421 146.655 62.7493C146.661 62.7365 146.635 62.7365 146.629 62.7365Z" fill="#263238"/>
<path d="M136.604 88.9332L131.786 66.9919L119.864 69.1579C115.161 63.7716 105.762 53.0054 101.973 49.7724C97.5007 45.977 94.5744 48.8267 96.2228 54.5772C99.9479 67.7203 110.842 87.0164 113.692 88.8373C117.825 91.489 136.604 88.9332 136.604 88.9332Z" fill="#2B5AAC"/>
<path opacity="0.1" d="M119.583 75.8347C120.173 75.9631 120.774 76.0337 121.378 76.0456C122.656 76.2181 123.218 78.103 122.055 78.8186C121.445 79.1947 120.754 79.4225 120.04 79.4835C119.325 79.5445 118.606 79.4372 117.94 79.17C116.663 78.6716 115.583 77.4321 115.858 75.9753C115.905 75.7037 116.022 75.4491 116.197 75.2362C116.372 75.0232 116.6 74.8593 116.857 74.7602C117.114 74.6611 117.393 74.6304 117.666 74.6709C117.938 74.7114 118.196 74.8218 118.413 74.9913C118.767 75.3189 119.16 75.6021 119.583 75.8347ZM116.286 70.6146C115.826 72.787 119.186 74.6527 120.905 73.4962C121.044 73.3913 121.157 73.2565 121.236 73.1018C121.315 72.9472 121.359 72.7766 121.363 72.6029C121.367 72.4291 121.332 72.2566 121.261 72.0983C121.189 71.9399 121.083 71.7996 120.95 71.688C120.445 71.2791 120.023 71.2152 119.576 70.8446C119.42 70.7225 119.282 70.5783 119.167 70.4165C118.914 70.0672 118.589 69.7754 118.215 69.5603C118.021 69.4771 117.81 69.4392 117.598 69.4494C117.387 69.4596 117.18 69.5176 116.995 69.6191C116.809 69.7206 116.648 69.8629 116.526 70.0354C116.403 70.2078 116.321 70.4058 116.286 70.6146ZM110.925 70.7296C110.235 71.6305 110.752 72.9851 111.359 73.8029C111.633 74.2102 112.009 74.5378 112.45 74.7521C112.891 74.9665 113.381 75.0601 113.87 75.0233C114.049 74.9982 114.216 74.9221 114.352 74.8042C114.488 74.6862 114.587 74.5315 114.637 74.3586C114.687 74.1857 114.685 74.002 114.633 73.8297C114.581 73.6574 114.481 73.5039 114.343 73.3876C113.959 73.0953 113.652 72.7137 113.449 72.2758C113.148 71.5985 112.95 70.7232 112.171 70.4293C111.958 70.3417 111.723 70.3236 111.499 70.3776C111.275 70.4315 111.074 70.5547 110.925 70.7296ZM125.077 84.9397C124.177 86.7607 126.918 88.8308 128.579 88.473C129.135 88.3516 129.671 87.6232 129.18 87.0993C128.783 86.6776 128.311 86.3453 127.94 85.8981C127.486 85.355 127.237 84.6585 126.528 84.3838C126.261 84.2721 125.961 84.2676 125.691 84.3711C125.421 84.4746 125.201 84.6782 125.077 84.9397ZM99.3409 62.6086C99.1837 62.3095 98.9661 62.0462 98.7019 61.8355C99.0597 62.7513 99.4367 63.6693 99.8328 64.5893C99.8541 63.8964 99.6839 63.2111 99.3409 62.6086ZM102.9 60.6918C102.775 59.1135 102.158 57.614 101.136 56.4045C100.37 55.4141 99.0406 53.8487 97.6349 54.1873C97.4855 54.234 97.3551 54.3276 97.263 54.4542C97.1709 54.5808 97.1221 54.7337 97.1237 54.8902C97.0343 55.97 98.2738 57.1265 98.8105 57.9891C99.4495 59.0753 99.9543 60.2765 100.644 61.3563C100.789 61.5783 101.001 61.7477 101.249 61.8391C101.498 61.9306 101.769 61.9392 102.023 61.8638C102.277 61.7883 102.499 61.6327 102.657 61.4203C102.815 61.208 102.9 60.9501 102.9 60.6854V60.6918ZM102.484 67.5604C102.734 67.5475 102.973 67.4549 103.166 67.2962C103.36 67.1375 103.497 66.9211 103.558 66.6787C103.657 66.1826 103.624 65.6692 103.462 65.1899C103.367 64.7336 103.145 64.3131 102.823 63.976C102.708 63.8692 102.567 63.7943 102.414 63.7585C102.261 63.7227 102.101 63.7272 101.95 63.7717C101.8 63.8161 101.663 63.8989 101.554 64.012C101.445 64.1251 101.367 64.2646 101.328 64.4168C101.277 64.7899 101.277 65.1683 101.328 65.5414C101.328 65.7011 101.328 65.8608 101.328 66.027C101.325 66.2677 101.35 66.508 101.405 66.7426C101.473 66.976 101.616 67.181 101.81 67.3272C102.005 67.4734 102.241 67.5529 102.484 67.554V67.5604Z" fill="#030402"/>
<path d="M132.433 87.0163C131.883 85.7384 130.516 80.0646 130.215 78.6525C129.915 77.2405 128.803 71.5283 128.478 70.0779C128.478 69.9948 128.567 69.9501 128.586 70.0268C128.931 71.458 130.471 77.0935 130.81 78.4992C131.148 79.9048 132.42 85.5723 132.509 86.9971C132.511 87.0021 132.511 87.0074 132.51 87.0125C132.509 87.0176 132.507 87.0226 132.505 87.027C132.499 87.036 132.491 87.0425 132.481 87.045C132.47 87.0476 132.46 87.046 132.451 87.0406C132.442 87.0352 132.435 87.0264 132.433 87.0163Z" fill="#263238"/>
<path opacity="0.1" d="M121.359 90.0321C118.005 90.0321 115.059 89.7126 113.692 88.8372C110.823 86.9843 99.9291 67.7521 96.1785 54.5835C95.2328 51.2866 95.8015 48.9353 97.2966 48.2516L121.359 90.0321Z" fill="black"/>
<path d="M67.2917 94.4984C67.3747 94.6198 107.245 99.7313 107.673 99.3607C107.898 98.2508 108.058 97.1286 108.152 95.9999C108.152 95.9999 104.497 52.5901 102.606 50.0407C100.951 47.8172 95.9291 46.2071 92.5107 47.6575C85.3354 50.6988 68.1542 89.4827 68.3395 91.1056C68.3267 91.0864 67.1894 94.345 67.2917 94.4984Z" fill="#2B5AAC"/>
<path opacity="0.1" d="M81.6683 89.2143C82.2832 89.5129 82.925 89.7525 83.5851 89.9299C84.9141 90.4602 85.0355 92.6774 83.5851 93.1246C82.8141 93.3692 81.9966 93.4302 81.1978 93.3026C80.3991 93.175 79.6412 92.8625 78.9847 92.3898C77.7068 91.4953 76.8826 89.8341 77.5727 88.3517C77.6993 88.0697 77.8964 87.8249 78.145 87.6411C78.3935 87.4572 78.6852 87.3404 78.992 87.3019C79.2988 87.2634 79.6103 87.3045 79.8966 87.4212C80.183 87.5379 80.4344 87.7263 80.6268 87.9684C80.9846 88.3837 81.2019 88.9332 81.6683 89.2143ZM79.4831 82.614C78.3905 84.8695 81.5533 87.815 83.7449 87.0163C83.9284 86.9429 84.0925 86.8279 84.2241 86.6804C84.3557 86.5328 84.4513 86.3568 84.5033 86.166C84.5553 85.9753 84.5624 85.775 84.5239 85.5811C84.4854 85.3872 84.4025 85.2048 84.2816 85.0484C83.8471 84.4669 83.3998 84.2817 83.0037 83.7705C82.867 83.5938 82.7571 83.3979 82.6778 83.1891C82.4889 82.743 82.2131 82.339 81.8664 82.0006C81.106 81.2658 79.8857 81.7834 79.4831 82.614ZM75.79 80.2116C74.5952 80.6589 74.2885 82.269 74.378 83.4063C74.3963 83.9588 74.561 84.4965 74.8551 84.9646C75.1492 85.4327 75.5622 85.8144 76.052 86.0707C76.2368 86.1533 76.4416 86.1805 76.6417 86.1492C76.8417 86.1178 77.0283 86.0292 77.179 85.894C77.3297 85.7589 77.4381 85.5829 77.4909 85.3875C77.5438 85.1921 77.5389 84.9855 77.4768 84.7928C77.274 84.2819 77.2036 83.728 77.2724 83.1827C77.381 82.3648 77.7069 81.4064 77.1638 80.6716C77.0126 80.4598 76.7983 80.3012 76.5516 80.2186C76.3048 80.136 76.0382 80.1335 75.79 80.2116ZM88.8884 87.815C88.5859 87.7891 88.285 87.8799 88.0474 88.0688C87.8098 88.2577 87.6534 88.5304 87.6105 88.8309C87.5778 89.1538 87.6588 89.4779 87.8396 89.7474C88.0204 90.0169 88.2897 90.2148 88.6008 90.3069C89.0365 90.4507 89.5069 90.4507 89.9426 90.3069C90.1656 90.2187 90.3494 90.0531 90.4602 89.8405C90.5884 89.6347 90.6404 89.3905 90.6071 89.1504C90.5717 88.9263 90.4691 88.7184 90.3127 88.554C90.1564 88.3897 89.9538 88.2768 89.7318 88.2303C89.6915 88.1773 89.6443 88.13 89.5912 88.0898C89.3884 87.9322 89.1443 87.8368 88.8884 87.815ZM79.0934 72.3973C78.0199 73.4963 78.4544 75.9946 79.6812 76.838C79.8391 76.958 80.0257 77.0347 80.2225 77.0603C80.4192 77.086 80.6192 77.0597 80.8027 76.9841C80.9861 76.9086 81.1466 76.7863 81.2682 76.6295C81.3898 76.4728 81.4683 76.2869 81.4958 76.0904C81.5147 75.8373 81.5147 75.5832 81.4958 75.3301C81.4958 75.0553 81.4574 74.8828 81.4958 74.6911C81.5913 74.1448 81.6107 73.5879 81.5533 73.0363C81.5036 72.7746 81.3807 72.5325 81.1988 72.338C81.0168 72.1436 80.7834 72.0048 80.5257 71.9378C80.2679 71.8709 79.9964 71.8785 79.7429 71.9599C79.4893 72.0412 79.2641 72.1929 79.0934 72.3973ZM72.1608 88.2942C70.6849 90.0449 73.1192 93.048 75.0297 93.1055C75.6686 93.1055 76.4545 92.4665 76.0584 91.7637C75.7389 91.2014 75.3108 90.703 75.0297 90.1216C74.6847 89.406 74.6016 88.569 73.8988 88.0834C73.6366 87.8907 73.3109 87.8053 72.988 87.8444C72.6651 87.8836 72.3693 88.0445 72.1608 88.2942ZM107.411 87.7383C107.171 87.7744 106.946 87.8811 106.767 88.0449C106.587 88.2087 106.46 88.4223 106.402 88.6584C106.197 89.3676 106.172 90.0002 105.641 90.5752C105.067 91.0268 104.552 91.5483 104.108 92.1279C104.034 92.2726 103.999 92.4341 104.006 92.5965C104.012 92.759 104.062 92.9168 104.148 93.0547C104.234 93.1925 104.355 93.3055 104.498 93.3827C104.641 93.46 104.802 93.4987 104.964 93.4952C106.08 93.3581 107.101 92.8005 107.82 91.9362C107.692 90.7222 107.565 89.2974 107.418 87.7128L107.411 87.7383ZM104.217 82.4671C103.859 83.336 103.923 84.32 103.622 85.2273C103.359 86.0591 103.045 86.8742 102.683 87.6681C102.415 88.2431 102.951 89.1504 103.648 88.8437C104.781 88.4089 105.707 87.5622 106.242 86.4732C106.728 85.4701 107.264 83.7833 106.798 82.7162C106.332 81.6492 104.747 81.1828 104.204 82.4415L104.217 82.4671ZM100.575 91.1758C100.044 91.8619 99.3643 92.4189 98.5875 92.8052C98.4024 92.8626 98.2316 92.9587 98.0865 93.0872C97.9414 93.2157 97.8253 93.3735 97.7458 93.5503C97.6663 93.727 97.6253 93.9187 97.6255 94.1125C97.6257 94.3063 97.6671 94.4978 97.747 94.6744C97.8268 94.851 97.9433 95.0086 98.0887 95.1368C98.2341 95.2649 98.405 95.3607 98.5903 95.4178C98.7755 95.4748 98.9707 95.4919 99.163 95.4677C99.3553 95.4436 99.5403 95.3789 99.7057 95.2779C100.367 94.9944 100.958 94.5695 101.437 94.033C101.916 93.4965 102.272 92.8614 102.479 92.1726C102.779 91.0672 101.284 90.3452 100.562 91.1503L100.575 91.1758ZM94.7347 59.8676C95.0917 59.9432 95.4641 59.8776 95.7737 59.6846C96.0834 59.4917 96.3064 59.1863 96.3959 58.8326C96.7537 57.4588 95.527 56.0468 94.5558 55.1906C93.5846 54.3344 92.2172 53.5549 90.8563 53.9958C90.6751 54.0545 90.5119 54.1585 90.3822 54.298C90.2525 54.4374 90.1606 54.6077 90.1152 54.7927C90.0697 54.9776 90.0723 55.1711 90.1226 55.3548C90.1729 55.5385 90.2693 55.7063 90.4027 55.8423C90.9969 56.5835 91.8211 57.1202 92.4537 57.8486C93.0862 58.577 93.6101 59.6568 94.7219 59.8421L94.7347 59.8676ZM99.6354 65.2923C100.172 64.5191 99.7568 63.3754 99.3734 62.6407C99.1692 62.2353 98.8519 61.898 98.4597 61.6695C98.1958 61.5006 97.8759 61.4428 97.5696 61.5086C97.2632 61.5744 96.9953 61.7585 96.824 62.0209C96.6498 62.3842 96.6223 62.8007 96.7474 63.1838C96.8007 63.3842 96.8735 63.5789 96.9646 63.7652V63.8227V63.8738C97.0788 64.484 97.3373 65.058 97.7185 65.5478C97.8505 65.6807 98.0114 65.7813 98.1887 65.8416C98.3659 65.902 98.5548 65.9205 98.7404 65.8958C98.926 65.871 99.1034 65.8037 99.2586 65.699C99.4139 65.5943 99.5428 65.4551 99.6354 65.2923ZM102.932 60.7174C102.807 59.1391 102.19 57.6397 101.169 56.4301C100.402 55.4398 99.0731 53.8744 97.6674 54.213C97.518 54.2597 97.3876 54.3532 97.2956 54.4798C97.2035 54.6064 97.1546 54.7593 97.1563 54.9158C97.0668 55.9957 98.3064 57.1521 98.8431 58.0147C99.482 59.1009 99.9868 60.3021 100.677 61.3819C100.827 61.5917 101.04 61.7487 101.285 61.8305C101.53 61.9123 101.794 61.9148 102.04 61.8377C102.287 61.7605 102.502 61.6076 102.657 61.4007C102.811 61.1939 102.896 60.9436 102.9 60.6855L102.932 60.7174ZM98.1083 71.6561C98.342 71.7072 98.5839 71.7072 98.8175 71.6561C99.1717 71.5471 99.471 71.3072 99.6545 70.9853C99.8262 70.6425 99.9118 70.2631 99.9037 69.8799C99.8922 69.5168 99.7936 69.1618 99.6162 68.8448L99.4054 68.5828L99.1242 68.3784C98.9484 68.2877 98.7543 68.2378 98.5565 68.2324C98.3587 68.227 98.1623 68.2663 97.9817 68.3474C97.8012 68.4284 97.6413 68.5491 97.5139 68.7005C97.3865 68.8519 97.2948 69.0301 97.2457 69.2218C97.1394 69.5939 97.0646 69.9744 97.0221 70.3591L97.0796 70.7105C97.1244 70.8868 97.2122 71.0493 97.3352 71.1833C97.5282 71.4064 97.7882 71.561 98.0764 71.6242L98.1083 71.6561ZM102.517 67.5861C102.767 67.5732 103.006 67.4806 103.199 67.3219C103.392 67.1632 103.529 66.9468 103.59 66.7043C103.69 66.2083 103.657 65.6948 103.495 65.2156C103.399 64.7592 103.178 64.3387 102.856 64.0016C102.74 63.8949 102.599 63.82 102.446 63.7841C102.293 63.7483 102.134 63.7529 101.983 63.7973C101.832 63.8418 101.696 63.9246 101.586 64.0377C101.477 64.1508 101.4 64.2903 101.361 64.4425C101.309 64.8156 101.309 65.1939 101.361 65.567C101.361 65.7267 101.361 65.8865 101.361 66.0526C101.357 66.2934 101.383 66.5336 101.437 66.7682C101.509 66.9918 101.648 67.1875 101.836 67.3283C102.024 67.4691 102.25 67.5481 102.485 67.5541L102.517 67.5861Z" fill="#030402"/>
<path d="M100.274 56.8453C97.8393 56.6217 94.7213 51.4207 94.1271 48.1173C94.0887 47.8873 95.0599 45.9641 96.127 43.5745C96.7659 42.1241 97.456 40.4884 97.9671 38.9549L106.81 44.5201C105.617 46.256 104.641 48.1314 103.903 50.1045C103.837 50.3127 103.79 50.5266 103.762 50.7434C103.765 50.7796 103.765 50.8158 103.762 50.852C103.539 52.1299 102.631 57.0625 100.274 56.8453Z" fill="#D3766A"/>
<path d="M103.762 50.7562C103.764 50.7924 103.764 50.8286 103.762 50.8648C103.422 50.7981 103.086 50.7063 102.759 50.5901C97.226 48.5966 98.2036 41.3382 98.5933 39.3319L100.798 40.7248L106.836 44.5585C105.643 46.2937 104.669 48.1693 103.935 50.1428C103.859 50.3416 103.801 50.5469 103.762 50.7562Z" fill="#263238"/>
<path d="M98.894 28.7128C97.0666 32.0033 96.7472 42.5714 98.7726 45.3764C101.699 49.4401 107.577 51.0246 111.302 47.2932C114.912 43.6385 115.078 29.8565 112.727 27.1985C109.251 23.2498 101.59 23.8504 98.894 28.7128Z" fill="#D3766A"/>
<path d="M107.379 37.2554C107.379 37.2554 107.322 37.2554 107.322 37.3193C107.322 38.0477 107.194 38.8783 106.529 39.0955V39.1403C107.341 39.0508 107.494 37.9454 107.379 37.2554Z" fill="#263238"/>
<path d="M106.76 36.4759C105.59 36.3481 105.418 38.6867 106.498 38.8081C107.577 38.9295 107.737 36.5846 106.76 36.4759Z" fill="#263238"/>
<path d="M111.571 37.5046C111.571 37.5046 111.622 37.543 111.622 37.5749C111.539 38.2969 111.571 39.1403 112.203 39.4279C112.203 39.4279 112.203 39.479 112.203 39.4726C111.405 39.2937 111.379 38.1755 111.571 37.5046Z" fill="#263238"/>
<path d="M112.28 36.8018C113.449 36.8018 113.353 39.1467 112.28 39.1467C111.206 39.1467 111.296 36.7954 112.28 36.8018Z" fill="#263238"/>
<path d="M107.705 36.0031C107.379 36.0733 107.066 36.0797 106.746 36.1181C106.415 36.2046 106.065 36.1799 105.749 36.0478C105.658 35.9872 105.588 35.898 105.553 35.794C105.517 35.69 105.516 35.577 105.551 35.4727C105.656 35.2822 105.809 35.1227 105.996 35.0105C106.182 34.8983 106.395 34.8373 106.612 34.8338C107.053 34.7489 107.51 34.8358 107.89 35.0766C107.969 35.1359 108.029 35.2164 108.065 35.3087C108.1 35.4009 108.108 35.5013 108.089 35.5981C108.07 35.695 108.023 35.7844 107.955 35.856C107.887 35.9277 107.8 35.9786 107.705 36.0031Z" fill="#263238"/>
<path d="M113.328 34.623C113.017 34.536 112.712 34.4315 112.414 34.31C112.078 34.2466 111.772 34.0736 111.545 33.818C111.488 33.7243 111.464 33.6144 111.477 33.5056C111.49 33.3968 111.538 33.2954 111.615 33.2174C111.79 33.084 111.997 33.0004 112.216 32.9757C112.434 32.9509 112.655 32.9859 112.855 33.0768C113.286 33.1949 113.659 33.4679 113.903 33.8435C113.953 33.9327 113.977 34.0345 113.971 34.1368C113.965 34.2391 113.929 34.3374 113.868 34.4199C113.807 34.5023 113.724 34.5654 113.628 34.6015C113.532 34.6375 113.428 34.645 113.328 34.623Z" fill="#263238"/>
<path d="M106.849 43.0186C107.79 42.7934 108.771 42.7934 109.711 43.0186C109.795 43.0186 109.878 42.8525 109.897 42.7758L109.948 41.2424C110.146 41.3574 111.143 41.8813 111.143 41.6002C111.247 39.1078 111.095 36.6114 110.689 34.1501C110.685 34.1358 110.676 34.1233 110.664 34.1144C110.652 34.1056 110.637 34.1008 110.622 34.1008C110.607 34.1008 110.592 34.1056 110.58 34.1144C110.568 34.1233 110.559 34.1358 110.555 34.1501C110.453 36.4567 110.747 38.7569 110.676 41.0762C110.324 40.8808 109.945 40.7367 109.552 40.6482C109.469 40.6482 109.552 42.2775 109.552 42.5203C108.672 42.2173 107.709 42.27 106.868 42.6672C106.536 42.8781 106.402 43.1592 106.849 43.0186Z" fill="#263238"/>
<path d="M104.957 44.5394C105.117 44.7183 105.277 44.9611 105.532 44.9994C105.801 45.0122 106.069 44.9665 106.318 44.8652C106.318 44.8652 106.363 44.8652 106.318 44.9036C106.208 45.0392 106.063 45.1419 105.898 45.2005C105.734 45.2591 105.556 45.2713 105.385 45.2358C105.246 45.1912 105.122 45.1071 105.029 44.9937C104.936 44.8804 104.878 44.7425 104.861 44.5969C104.874 44.5266 104.932 44.5138 104.957 44.5394Z" fill="#263238"/>
<path opacity="0.2" d="M101.98 25.3583C101.884 27.0004 101.494 32.0928 100.702 33.1279C99.9096 34.163 98.2355 36.5718 97.3857 36.9615C97.5008 33.5688 98.0247 30.3421 98.9 28.6553C99.6177 27.3038 100.68 26.1663 101.98 25.3583Z" fill="#263238"/>
<path d="M111.084 30.3356C110.638 30.7903 110.082 31.123 109.47 31.302C108.858 31.481 108.211 31.5002 107.589 31.3579C106.953 31.2164 106.365 30.9133 105.88 30.4779C105.395 30.0426 105.031 29.4896 104.823 28.8724C104.823 28.834 104.752 28.8724 104.765 28.8724C104.928 29.5387 105.27 30.1478 105.754 30.6333C106.238 31.1189 106.847 31.4623 107.513 31.6262C108.178 31.7531 108.864 31.7017 109.503 31.4773C110.141 31.2528 110.709 30.8633 111.148 30.3483C111.187 30.3547 111.135 30.2972 111.084 30.3356Z" fill="#263238"/>
<path d="M107.877 20.8665C106.895 20.8001 105.912 20.9818 105.019 21.395C104.126 21.8081 103.351 22.4394 102.766 23.2306C102.267 24.0359 102.055 24.9862 102.165 25.927H102.248C102.26 25.1014 102.495 24.2945 102.928 23.5916C103.361 22.8886 103.976 22.3158 104.708 21.9336C105.508 21.4858 106.401 21.2291 107.316 21.1836C108.232 21.1382 109.145 21.3052 109.986 21.6716C110.812 22.0124 111.491 22.6349 111.902 23.4287C111.941 23.5117 112.107 23.4734 112.075 23.3903C111.551 21.9975 109.858 20.9624 107.877 20.8665Z" fill="#263238"/>
<path d="M120.081 26.438C119.804 25.3563 119.152 24.4079 118.241 23.7608C116.963 22.8472 115.468 22.8599 113.973 22.9111C113.928 22.9111 113.935 22.975 113.973 22.9686C115.244 22.8358 116.527 23.0733 117.666 23.6522C118.594 24.2088 119.3 25.0688 119.666 26.0866C120.014 27.1305 119.974 28.265 119.553 29.2816C119.131 30.2982 118.357 31.1285 117.372 31.6199C116.799 31.8892 116.177 32.0384 115.544 32.0582C114.911 32.0779 114.281 31.9679 113.692 31.7349C113.647 31.7349 113.609 31.7796 113.654 31.8051C114.45 32.1571 115.33 32.2792 116.192 32.1578C117.055 32.0363 117.866 31.6761 118.535 31.1179C119.203 30.5597 119.702 29.8256 119.976 28.9986C120.249 28.1717 120.286 27.2847 120.081 26.438Z" fill="#263238"/>
<path d="M98.2549 30.7893C98.2549 30.7893 96.4914 26.7703 98.3763 24.6618C99.4433 23.4734 102.651 23.8823 102.651 23.8823C103.609 22.6661 105.011 21.8801 106.548 21.6971C109.289 21.269 112.414 23.122 112.414 23.122C112.414 23.122 115.085 21.8441 117.378 23.3967C120.573 25.5627 119.774 30.6296 116.286 32.0097C113.832 32.9873 110.778 30.6487 110.778 30.6487C110.471 30.6487 107.162 32.3355 104.983 29.3325C104.983 29.3325 102.913 30.9107 101.258 29.5689C100.943 30.0561 100.486 30.4345 99.9489 30.6529C99.4116 30.8712 98.8202 30.9188 98.2549 30.7893Z" fill="#263238"/>
<path d="M99.296 37.4662C99.296 37.4662 97.622 33.7156 95.9671 34.2715C94.3123 34.8274 95.1173 39.9261 96.753 40.9229C96.9524 41.0615 97.1775 41.1587 97.4151 41.2087C97.6527 41.2588 97.898 41.2606 98.1363 41.2141C98.3746 41.1676 98.6012 41.0738 98.8026 40.9382C99.004 40.8025 99.1761 40.6279 99.3088 40.4245L99.296 37.4662Z" fill="#D3766A"/>
<path d="M96.2363 35.7156V35.7603C97.3736 36.4951 97.8017 37.7666 98.0254 39.0381C97.9773 38.9011 97.9 38.7761 97.7989 38.6719C97.6978 38.5677 97.5753 38.4866 97.4398 38.4344C97.3043 38.3821 97.1591 38.3599 97.0142 38.3693C96.8693 38.3786 96.7282 38.4194 96.6005 38.4886C96.5622 38.4886 96.6005 38.5589 96.6005 38.5589C96.8332 38.532 97.0685 38.5793 97.2727 38.694C97.477 38.8087 97.6398 38.9851 97.7378 39.1978C97.9113 39.5434 98.0442 39.9079 98.134 40.284C98.134 40.4054 98.3768 40.3863 98.364 40.284C98.6899 38.6355 97.8912 36.2012 96.2363 35.7156Z" fill="#263238"/>
<path d="M187.859 44.9103L119.068 65.981L131.471 106.473L200.262 85.4025L187.859 44.9103Z" fill="#2B5AAC"/>
<path opacity="0.2" d="M187.859 44.9103L119.068 65.981L131.471 106.473L200.262 85.4025L187.859 44.9103Z" fill="black"/>
<path opacity="0.2" d="M187.856 44.9105L164.738 51.9915L177.141 92.4837L200.259 85.4027L187.856 44.9105Z" fill="black"/>
<path d="M186.749 46.9737C185.969 50.5603 185.211 54.1469 184.474 57.7335L182.296 68.5189L180.187 79.3489C179.497 82.9526 178.824 86.5626 178.168 90.179C178.947 86.5967 179.706 83.0101 180.443 79.4192L182.621 68.6339L184.73 57.8293C185.42 54.2087 186.093 50.5901 186.749 46.9737Z" fill="#2B5AAC"/>
<path d="M198.102 84.0451C195.547 81.4212 192.968 78.8079 190.365 76.2053L182.57 68.4358L174.724 60.7237C172.1 58.1679 169.463 55.6122 166.813 53.0564C169.369 55.6846 171.948 58.2979 174.551 60.8962L182.346 68.6658L190.192 76.3778C192.821 78.9592 195.457 81.5149 198.102 84.0451Z" fill="#2B5AAC"/>
<path d="M132.28 71.199L132.659 71.083L131.029 65.7618L130.651 65.8779L132.28 71.199Z" fill="#263238"/>
<path d="M131.381 71.4694L131.76 71.3533L130.13 66.0322L129.751 66.1482L131.381 71.4694Z" fill="#263238"/>
<path d="M130.473 71.759L130.852 71.643L129.222 66.3218L128.843 66.4379L130.473 71.759Z" fill="#263238"/>
<path d="M129.574 72.0198L129.953 71.9038L128.324 66.5824L127.945 66.6983L129.574 72.0198Z" fill="#263238"/>
<path d="M128.667 72.3014L129.046 72.1854L127.416 66.8643L127.037 66.9803L128.667 72.3014Z" fill="#263238"/>
<path d="M127.766 72.5719L128.145 72.4559L126.515 67.1347L126.136 67.2507L127.766 72.5719Z" fill="#263238"/>
<path d="M126.854 72.8697L127.232 72.7537L125.603 67.4325L125.224 67.5485L126.854 72.8697Z" fill="#263238"/>
<path d="M125.95 73.1382L126.329 73.0222L124.698 67.7013L124.32 67.8174L125.95 73.1382Z" fill="#263238"/>
<path d="M125.039 73.425L125.418 73.309L123.788 67.9879L123.409 68.1039L125.039 73.425Z" fill="#263238"/>
<path d="M134.86 65.0303L133.288 65.0687L136.694 64.0144L135.365 64.8706L135.965 66.8257C137.045 66.6405 137.773 67.5414 138.323 69.3304L134.917 70.4038C134.368 68.6212 134.464 67.4647 135.46 67.011L134.86 65.0303Z" fill="#263238"/>
<path d="M138.284 66.3912L139.172 66.1164L138.374 63.5096L140.648 62.8131L141.447 65.42L142.341 65.1453L141.14 68.4805L138.284 66.3912Z" fill="#263238"/>
<path opacity="0.1" d="M119.071 65.9823L120.087 69.3048L167.637 61.4586L164.737 51.9958L119.071 65.9823Z" fill="black"/>
<path d="M209.175 89.9938L186.052 97.0733L177.139 92.4857L200.262 85.3998L209.175 89.9938Z" fill="#2B5AAC"/>
<path opacity="0.2" d="M209.175 89.9938L186.052 97.0733L177.139 92.4857L200.262 85.3998L209.175 89.9938Z" fill="black"/>
<path d="M126.656 115.27L149.78 108.184L154.591 99.3926L131.467 106.472L126.656 115.27Z" fill="#2B5AAC"/>
<path opacity="0.1" d="M126.656 115.27L149.78 108.184L154.591 99.3926L131.467 106.472L126.656 115.27Z" fill="black"/>
<path d="M88.6006 59.7334C91.9806 71.0363 101.379 90.4027 104.868 92.7668C107.941 94.8817 122.695 92.9584 129.148 91.5592C131.563 91.0416 126.592 72.6017 124.036 73.2087C120.944 73.9435 111.737 75.7645 111.085 75.2597C110.433 74.755 101.501 63.1198 95.1114 56.2959C89.3098 50.0854 87.3227 55.4589 88.6006 59.7334Z" fill="#D3766A"/>
<path d="M122.707 74.7103C122.707 74.7103 127.595 69.2026 131.058 67.1005C134.714 65.0082 138.823 63.8351 143.032 63.6821C147.575 63.5032 158.686 66.1996 158.462 69.5348C158.264 72.557 147.051 69.2218 147.051 69.2218C147.051 69.2218 159.044 70.7361 158.136 74.3333C157.229 77.9306 144.431 73.311 144.431 73.311C144.431 73.311 156.718 75.1384 155.223 78.7101C154.073 81.4 142.246 77.8731 142.246 77.8731C142.246 77.8731 152.801 79.5215 151.734 82.3457C150.559 85.4573 139.435 82.8887 139.435 82.8887C135.531 89.5849 130.924 91.195 127.518 91.917C126.668 92.064 122.707 74.7103 122.707 74.7103Z" fill="#D3766A"/>
<path d="M142.936 68.4294C144.348 68.5572 145.786 68.6786 147.185 68.9278C148.585 69.177 149.971 69.4837 151.345 69.8671C153.144 70.3296 154.885 70.9963 156.533 71.8542C153.498 70.5443 148.502 69.5604 147.102 69.2984C145.703 69.0364 144.316 68.7234 142.924 68.4742C142.885 68.4869 142.898 68.4294 142.936 68.4294Z" fill="#263238"/>
<path d="M141.933 73.4706C143.728 73.707 145.53 73.8795 147.319 74.199C149.108 74.5185 150.763 74.9785 152.52 75.4194C152.654 75.4513 152.59 75.5152 152.456 75.4833C150.68 75.1127 149.019 74.9082 147.242 74.5632C145.466 74.2182 143.703 73.7965 141.92 73.5089C141.895 73.5089 141.901 73.4642 141.933 73.4706Z" fill="#263238"/>
<path d="M140.291 77.6365C143.062 77.9373 145.794 78.524 148.444 79.3872C148.578 79.4256 148.489 79.4959 148.348 79.4639C145.652 78.825 143.537 78.3138 140.285 77.7324C140.234 77.726 140.234 77.6301 140.291 77.6365Z" fill="#263238"/>
<path d="M127.685 94.8306L123.391 72.7743L111.424 74.6527C106.849 69.1578 97.7119 58.168 93.9805 54.8455C89.6038 50.9416 86.6071 53.7274 88.1086 59.5098C91.5461 72.7295 101.974 92.2556 104.798 94.1725C108.849 96.9199 127.685 94.8306 127.685 94.8306Z" fill="#2B5AAC"/>
<path opacity="0.1" d="M119.583 75.8348C120.173 75.9631 120.775 76.0338 121.378 76.0457C122.656 76.2182 123.219 78.1031 122.056 78.8187C121.445 79.1948 120.755 79.4226 120.04 79.4836C119.326 79.5446 118.607 79.4372 117.941 79.1701C116.663 78.6717 115.583 77.4322 115.858 75.9754C115.906 75.7038 116.023 75.4492 116.198 75.2362C116.373 75.0233 116.6 74.8593 116.857 74.7603C117.115 74.6612 117.393 74.6304 117.666 74.6709C117.939 74.7115 118.196 74.8218 118.414 74.9914C118.768 75.319 119.16 75.6022 119.583 75.8348ZM118.305 73.573C118.706 73.7662 119.148 73.8601 119.592 73.8468C120.037 73.8334 120.472 73.7132 120.861 73.4963C121.004 73.4007 121.119 73.2682 121.193 73.1129L118.305 73.573ZM112.088 74.5441C112.597 74.9158 113.225 75.0864 113.852 75.0234C114.068 74.9937 114.267 74.8893 114.414 74.7282C114.561 74.5671 114.647 74.3595 114.657 74.1416L112.088 74.5441ZM125.634 84.3903C125.381 84.4962 125.176 84.6919 125.059 84.9398C124.522 86.0196 125.27 87.1824 126.337 87.8789L125.634 84.3903ZM106.389 88.6328C106.184 89.3421 106.159 89.9746 105.629 90.5497C105.057 91.0099 104.547 91.5401 104.108 92.1279C104.034 92.2726 103.998 92.4341 104.005 92.5965C104.012 92.759 104.061 92.9168 104.148 93.0546C104.234 93.1925 104.355 93.3055 104.498 93.3827C104.641 93.46 104.801 93.4987 104.964 93.4952C106.077 93.3582 107.098 92.808 107.825 91.9536C108.552 91.0991 108.931 90.0028 108.887 88.882C108.851 88.5948 108.719 88.3283 108.512 88.1261C108.305 87.9239 108.035 87.7981 107.747 87.7691C107.459 87.7402 107.17 87.8099 106.926 87.9668C106.683 88.1237 106.5 88.3585 106.408 88.6328H106.389ZM104.185 82.4415C103.827 83.3104 103.891 84.2944 103.59 85.2017C103.327 86.0335 103.013 86.8486 102.651 87.6425C102.383 88.2175 102.919 89.1248 103.616 88.8181C104.749 88.3833 105.675 87.5366 106.21 86.4477C106.696 85.4445 107.232 83.7577 106.766 82.6907C106.299 81.6236 104.747 81.1828 104.204 82.4415H104.185ZM94.7026 59.8421C95.0596 59.9176 95.432 59.852 95.7417 59.6591C96.0514 59.4661 96.2743 59.1607 96.3639 58.807C96.7217 57.4333 95.4949 56.0212 94.5237 55.165C93.5525 54.3088 92.1852 53.5293 90.8242 53.9702C90.643 54.0289 90.4799 54.1329 90.3501 54.2724C90.2204 54.4119 90.1285 54.5821 90.0831 54.7671C90.0376 54.9521 90.0402 55.1456 90.0905 55.3293C90.1408 55.5129 90.2372 55.6807 90.3706 55.8167C90.9648 56.5579 91.789 57.0946 92.4216 57.823C93.0541 58.5514 93.61 59.6568 94.7218 59.8421H94.7026ZM99.6352 65.2923C100.172 64.5191 99.7566 63.3754 99.3733 62.6406C99.1691 62.2353 98.8517 61.8979 98.4596 61.6694C98.1957 61.5006 97.8758 61.4428 97.5694 61.5086C97.2631 61.5744 96.9952 61.7585 96.8239 62.0209C96.6496 62.3842 96.6222 62.8007 96.7472 63.1837C96.8006 63.3841 96.8733 63.5789 96.9645 63.7652V63.8227V63.8738C97.0787 64.484 97.3372 65.0579 97.7184 65.5478C97.8504 65.6807 98.0113 65.7812 98.1885 65.8416C98.3658 65.902 98.5546 65.9205 98.7403 65.8957C98.9259 65.871 99.1032 65.8036 99.2585 65.6989C99.4138 65.5943 99.5427 65.4551 99.6352 65.2923ZM98.1082 71.6817C98.3418 71.7327 98.5837 71.7327 98.8174 71.6817C99.1716 71.5727 99.4709 71.3327 99.6544 71.0108C99.8261 70.6681 99.9116 70.2887 99.9036 69.9054C99.892 69.5424 99.7934 69.1874 99.6161 68.8703L99.4052 68.6084L99.1241 68.4039C98.9482 68.3132 98.7542 68.2633 98.5564 68.2579C98.3586 68.2526 98.1621 68.2919 97.9816 68.3729C97.8011 68.454 97.6412 68.5747 97.5137 68.7261C97.3863 68.8775 97.2947 69.0556 97.2456 69.2473C97.1392 69.6195 97.0644 69.9999 97.022 70.3846L97.0795 70.7361C97.1242 70.9124 97.212 71.0748 97.335 71.2089C97.5317 71.4225 97.7913 71.568 98.0762 71.6242L98.1082 71.6817ZM103.469 65.1964L102.191 63.7588C101.987 63.7345 101.781 63.7861 101.612 63.904C101.444 64.0218 101.325 64.1976 101.277 64.3977C101.226 64.7708 101.226 65.1492 101.277 65.5223C101.277 65.682 101.277 65.8417 101.277 66.0079C101.274 66.2486 101.3 66.4889 101.354 66.7235C101.424 66.9667 101.573 67.1794 101.778 67.3277C101.983 67.4759 102.232 67.5512 102.485 67.5413C102.735 67.5284 102.974 67.4358 103.167 67.2771C103.36 67.1185 103.497 66.902 103.558 66.6596C103.654 66.1723 103.623 65.6684 103.469 65.1964Z" fill="#030402"/>
<path d="M123.557 92.8051C123.039 91.4953 121.825 85.8087 121.538 84.3838C121.25 82.959 120.298 77.234 120.011 75.7709C120.011 75.6942 120.1 75.6431 120.119 75.7261C120.426 77.1638 121.838 82.8312 122.138 84.2496C122.439 85.6681 123.582 91.3547 123.634 92.7859C123.636 92.7961 123.634 92.8068 123.629 92.8158C123.624 92.8248 123.615 92.8313 123.605 92.8338C123.595 92.8364 123.584 92.8348 123.575 92.8294C123.566 92.824 123.559 92.8153 123.557 92.8051Z" fill="#263238"/>
<path d="M119.609 95.4503C117.647 95.5653 115.685 95.61 113.724 95.5972C111.755 95.6058 109.788 95.4927 107.833 95.2586C106.831 95.1594 105.852 94.9006 104.932 94.4919C104.105 93.908 103.387 93.1835 102.811 92.3514C101.653 90.7525 100.604 89.0768 99.6735 87.3357C97.7567 83.8918 96.1082 80.3073 94.4981 76.742C92.888 73.1767 91.4248 69.5092 90.083 65.8161C91.7123 69.3878 93.3225 72.9659 94.9965 76.512C96.6705 80.0581 98.3637 83.5915 100.191 87.0482C101.103 88.7723 102.11 90.4447 103.207 92.0575C103.719 92.8605 104.368 93.5676 105.124 94.1468C105.995 94.5486 106.924 94.8096 107.878 94.9199C111.769 95.3914 115.69 95.5687 119.609 95.4503Z" fill="#263238"/>
<path d="M91.3291 68.9341C91.0667 68.6691 90.8293 68.3803 90.6199 68.0716C90.4031 67.7658 90.237 67.4271 90.1279 67.0684C90.2242 67.2271 90.3287 67.3807 90.441 67.5285L90.7541 67.9821C90.9644 68.2878 91.1564 68.6057 91.3291 68.9341Z" fill="#263238"/>
<path d="M101.418 63.0112C103.034 64.6341 104.485 66.4168 105.986 68.1228C107.488 69.8288 108.926 71.6306 110.459 73.3302L111.028 73.9691C111.13 74.065 111.226 74.1736 111.322 74.263C111.417 74.3525 111.417 74.3461 111.462 74.3844C111.462 74.3844 111.507 74.3844 111.532 74.3844C112.018 74.3844 112.631 74.2758 113.181 74.2055L116.58 73.7008C118.842 73.3685 121.11 73.0235 123.378 72.7168L123.468 73.279L123.334 72.7232H123.366C121.123 73.2024 118.893 73.6305 116.618 74.0458C115.487 74.2502 114.357 74.4292 113.219 74.6017C112.638 74.7026 112.051 74.7708 111.462 74.8061C111.415 74.8121 111.368 74.8121 111.322 74.8061C111.259 74.7873 111.201 74.757 111.149 74.7167C111.085 74.6666 111.023 74.6133 110.964 74.5569L110.651 74.2502C110.446 74.0394 110.255 73.8285 110.063 73.6113C108.561 71.867 107.105 70.1035 105.673 68.3145L103.533 65.6245C102.83 64.7875 102.191 63.8674 101.418 63.0112Z" fill="#263238"/>
<path d="M102.255 63.2029C102.496 63.4986 102.709 63.815 102.894 64.1486C103.074 64.4781 103.201 64.8338 103.271 65.2028C103.194 65.0303 103.098 64.877 103.009 64.7108L102.747 64.2189C102.565 63.8893 102.4 63.5502 102.255 63.2029Z" fill="#263238"/>
<path d="M25.6205 230.28C25.384 224.302 25.4672 218.315 25.8697 212.345C26.7508 200.041 28.6291 187.829 31.486 175.83C33.0514 169.07 34.981 162.412 36.9937 155.779C37.0512 155.581 37.3707 155.639 37.3195 155.843C31.1026 179.254 25.9975 203.419 26.3489 227.75C26.4511 234.561 27.237 241.251 27.8824 248.017C27.8824 248.203 27.6012 248.273 27.5629 248.088C26.2786 242.28 25.8633 236.197 25.6205 230.28Z" fill="#2B5AAC"/>
<path d="M37.3196 155.811C37.3196 155.811 46.7376 179.721 44.6291 185.337C42.5206 190.953 38.1694 192.154 38.1694 192.154C38.1694 192.154 43.9199 200.384 39.9073 208.128C35.8948 215.872 26.9368 215.476 26.3362 224.229C26.3362 224.204 25.8378 187.618 37.3196 155.811Z" fill="#2B5AAC"/>
<path d="M27.3651 209.099C27.3493 209.058 27.3493 209.013 27.3651 208.971C28.6071 192.649 31.674 176.518 36.5083 160.878C36.5083 160.834 36.5978 160.846 36.585 160.878C34.7193 167.868 33.0708 174.897 31.6396 181.963C32.8982 180.768 34.4357 179.907 36.1122 179.459C36.1122 179.459 36.1569 179.459 36.1122 179.503C34.3427 180.158 32.7531 181.222 31.4735 182.609C31.2008 183.989 30.9346 185.375 30.6748 186.768C32.7769 184.417 35.6969 183.248 38.6168 182.136C38.6552 182.136 38.6807 182.187 38.6168 182.2C35.5755 183.439 32.5405 185.037 30.4831 187.656C29.759 191.622 29.12 195.603 28.5663 199.598C30.089 198.011 32.0403 196.901 34.1826 196.403C34.2465 196.403 34.2848 196.487 34.1826 196.506C31.9715 197.145 29.9937 198.412 28.4896 200.154H28.4513C28.2638 201.56 28.0871 202.968 27.9209 204.377C29.1346 203.376 30.5055 202.581 31.9782 202.026C32.0166 202.026 32.0357 202.071 31.9782 202.084C30.536 202.723 29.2152 203.607 28.0743 204.697C28.0743 204.697 28.0743 204.697 28.0232 204.697C27.8698 206.032 27.7101 207.374 27.5759 208.716C29.6978 206.153 32.4503 204.187 35.5627 203.01C35.569 203.008 35.5757 203.006 35.5825 203.006C35.5893 203.007 35.596 203.008 35.6022 203.011C35.6084 203.013 35.6141 203.017 35.6188 203.022C35.6235 203.027 35.6273 203.033 35.6298 203.039C35.6323 203.045 35.6336 203.052 35.6335 203.059C35.6334 203.065 35.632 203.072 35.6293 203.078C35.6266 203.085 35.6228 203.09 35.6179 203.095C35.6131 203.1 35.6073 203.103 35.601 203.106C32.5268 204.46 29.826 206.539 27.7293 209.163C27.7077 209.194 27.6767 209.217 27.6409 209.228C27.6052 209.24 27.5667 209.239 27.5312 209.227C27.3267 211.284 27.1414 213.348 26.9945 215.412H26.9434C27.0456 213.323 27.1925 211.208 27.3651 209.099Z" fill="#263238"/>
<path d="M34.93 177.107C36.6351 176.045 38.5843 175.438 40.591 175.344C40.6358 175.344 40.6422 175.408 40.591 175.414C38.6527 175.773 36.7705 176.387 34.9939 177.242C34.9772 177.245 34.9598 177.243 34.9446 177.235C34.9294 177.227 34.9171 177.215 34.9098 177.199C34.9025 177.184 34.9005 177.167 34.9041 177.15C34.9078 177.133 34.9169 177.118 34.93 177.107Z" fill="#263238"/>
<path d="M33.7863 202.416C35.0978 201.667 36.5398 201.175 38.0353 200.966C38.0864 200.966 38.0928 201.036 38.0353 201.042C36.5702 201.337 35.1531 201.834 33.8247 202.518C33.78 202.544 33.7288 202.448 33.7863 202.416Z" fill="#263238"/>
<path d="M0.861279 185.727C4.84354 188.482 8.50038 191.68 11.7616 195.26C15.1338 199.043 17.7379 203.446 19.429 208.224C23.0028 218.181 24.9257 228.655 25.1219 239.232C25.2444 245.09 24.6804 250.942 23.4415 256.669C23.4307 256.709 23.4052 256.743 23.3702 256.765C23.3352 256.788 23.2932 256.796 23.2523 256.789C23.2115 256.782 23.1748 256.759 23.1495 256.726C23.1243 256.694 23.1122 256.652 23.1157 256.611C24.6589 246.504 24.6072 236.218 22.9623 226.127C21.3394 216.236 18.8028 205.477 12.5156 197.439C9.05892 193.081 4.79078 189.624 0.599313 186.053C0.350125 185.874 0.63126 185.567 0.861279 185.727Z" fill="#2B5AAC"/>
<path d="M23.7164 232.114C21.4512 228.445 18.7877 225.038 15.7744 221.955C11.059 217.246 7.09113 213.898 6.47774 210.78C5.86436 207.662 11.1995 205.374 11.1995 205.374C11.1995 205.374 4.67592 206.544 2.89327 203.802C1.11062 201.061 0.248047 185.222 0.248047 185.222C0.248047 185.222 12.1004 193.72 17.6401 205.56C23.1797 217.399 23.7164 232.114 23.7164 232.114Z" fill="#2B5AAC"/>
<path d="M4.48414 200.109C5.26488 199.998 6.0555 199.972 6.84184 200.033C6.93768 200.033 6.93129 200.199 6.84184 200.199C6.06233 200.199 5.28282 200.161 4.49692 200.199C4.43302 200.186 4.43302 200.109 4.48414 200.109Z" fill="#263238"/>
<path d="M13.0208 215.444C14.2751 215.47 15.5147 215.719 16.682 216.179C16.682 216.179 16.682 216.236 16.682 216.23C15.4744 215.942 14.254 215.821 13.0336 215.623C12.9122 215.623 12.9186 215.444 13.0208 215.444Z" fill="#263238"/>
<path d="M15.5827 210.147C16.1036 210.143 16.6237 210.19 17.1353 210.288C17.1865 210.288 17.1801 210.384 17.1353 210.384C16.6165 210.409 16.0964 210.384 15.5827 210.307C15.5654 210.302 15.5501 210.291 15.5392 210.277C15.5283 210.263 15.5225 210.245 15.5225 210.227C15.5225 210.209 15.5283 210.191 15.5392 210.177C15.5501 210.163 15.5654 210.152 15.5827 210.147Z" fill="#263238"/>
<path d="M58.4877 202.55C54.6296 203.858 50.9321 205.598 47.4659 207.738C43.8769 210.031 40.7637 212.994 38.2971 216.466C33.1034 223.7 29.1258 231.732 26.5214 240.248C25.0721 244.96 24.1758 249.826 23.8506 254.745C23.8506 254.783 23.8654 254.818 23.8918 254.845C23.9181 254.871 23.9539 254.886 23.9912 254.886C24.0284 254.886 24.0642 254.871 24.0906 254.845C24.1169 254.818 24.1317 254.783 24.1317 254.745C25.2114 246.221 27.6196 237.919 31.2687 230.14C34.866 222.511 39.4088 214.39 46.3542 209.342C50.1367 206.588 54.3857 204.793 58.6219 202.889C58.871 202.787 58.7433 202.473 58.4877 202.55Z" fill="#2B5AAC"/>
<path d="M29.2754 234.804C31.9548 232.357 34.897 230.214 38.0481 228.415C42.9552 225.693 46.9358 223.897 48.1562 221.52C49.3765 219.144 45.6004 216.051 45.6004 216.051C45.6004 216.051 50.6033 218.505 52.6799 216.69C54.7564 214.875 59.114 202.256 59.114 202.256C59.114 202.256 47.5619 206.371 40.3419 214.703C33.1218 223.035 29.2754 234.804 29.2754 234.804Z" fill="#2B5AAC"/>
<path d="M38.8659 223.201C39.9999 223.122 41.1386 223.26 42.2204 223.61C42.2204 223.61 42.2204 223.667 42.2204 223.661C41.1149 223.475 39.9988 223.36 38.8787 223.316C38.8635 223.318 38.8482 223.313 38.8362 223.304C38.8242 223.294 38.8165 223.28 38.8148 223.265C38.8131 223.25 38.8175 223.234 38.8271 223.222C38.8367 223.21 38.8507 223.203 38.8659 223.201Z" fill="#263238"/>
<path d="M48.9484 209.975C49.4655 209.937 49.9853 209.967 50.4947 210.064C50.5044 210.068 50.5129 210.074 50.5188 210.083C50.5248 210.091 50.528 210.102 50.528 210.112C50.528 210.122 50.5248 210.133 50.5188 210.141C50.5129 210.15 50.5044 210.156 50.4947 210.16C49.9899 210.102 49.4851 210.122 48.974 210.109C48.9582 210.108 48.9432 210.102 48.9314 210.092C48.9195 210.081 48.9114 210.067 48.9085 210.052C48.9055 210.036 48.9079 210.02 48.9151 210.006C48.9223 209.992 48.9341 209.981 48.9484 209.975Z" fill="#263238"/>
<path d="M14.3691 270.681H40.4508L36.7321 243.43L35.7801 236.446H19.0398L18.0878 243.43L14.3691 270.681Z" fill="#455A64"/>
<path d="M18.0869 243.43H36.7313L35.7792 236.446H19.0389L18.0869 243.43Z" fill="#263238"/>
<path d="M16.637 239.935H38.1758V234.018H16.637V239.935Z" fill="#455A64"/>
<path d="M153.308 14.6689C153.308 17.2984 152.577 19.8761 151.197 22.1144C149.817 24.3528 147.842 26.1637 145.493 27.3452C143.144 28.5267 140.513 29.0323 137.893 28.8056C135.274 28.5789 132.768 27.6288 130.657 26.0613L123.699 27.8375L126.594 21.365C125.575 19.4619 125.004 17.3516 124.923 15.1945C124.843 13.0374 125.255 10.8903 126.129 8.91656C127.003 6.94281 128.316 5.19434 129.967 3.80412C131.618 2.41389 133.565 1.41852 135.659 0.893682C137.752 0.368846 139.938 0.328373 142.05 0.775337C144.162 1.2223 146.144 2.14494 147.846 3.47308C149.547 4.80122 150.924 6.4999 151.87 8.43995C152.817 10.38 153.308 12.5103 153.308 14.6689Z" fill="white"/>
<path d="M153.307 14.6625C153.307 17.2953 152.582 19.8771 151.212 22.1254C150.878 22.6921 150.511 23.2383 150.113 23.7611C149.689 24.2616 149.234 24.7353 148.752 25.1795C147.798 26.0782 146.723 26.8375 145.557 27.435C144.387 28.0319 143.14 28.4621 141.851 28.7129C141.204 28.8417 140.548 28.9228 139.89 28.9557C139.233 29.01 138.572 29.01 137.915 28.9557C135.258 28.7495 132.709 27.8094 130.555 26.2402L130.746 26.2785L123.807 28.1059L123.245 28.2528L123.482 27.7161L126.35 21.2309V21.4992C125.307 19.5592 124.724 17.405 124.646 15.2035C124.569 13.0019 124.999 10.8121 125.903 8.80341C126.809 6.80038 128.157 5.0287 129.845 3.62158C131.532 2.23521 133.511 1.24884 135.633 0.736493C137.756 0.224142 139.967 0.199109 142.1 0.663277C144.215 1.14422 146.195 2.09166 147.896 3.43629C149.587 4.77682 150.953 6.48346 151.891 8.42789C152.828 10.3723 153.312 12.5039 153.307 14.6625ZM153.307 14.6625C153.306 11.4166 152.182 8.27115 150.125 5.76012C148.068 3.24908 145.206 1.52723 142.024 0.886908C139.93 0.470154 137.769 0.535706 135.705 1.07859C133.647 1.61006 131.738 2.60685 130.127 3.99217C128.529 5.39249 127.256 7.12361 126.395 9.06538C125.546 11.0017 125.148 13.1057 125.232 15.2184C125.331 17.31 125.889 19.3542 126.868 21.2053L126.938 21.3395L126.874 21.4736L123.954 27.9398L123.628 27.5564L130.599 25.8312H130.708L130.791 25.8951C132.857 27.4644 135.32 28.4269 137.902 28.6745C138.541 28.7215 139.181 28.7215 139.819 28.6745C141.772 28.6074 143.687 28.1215 145.436 27.2497C146.602 26.6819 147.678 25.9456 148.63 25.0645C149.113 24.6269 149.567 24.1595 149.991 23.6652C150.398 23.1569 150.776 22.6257 151.122 22.0743C152.517 19.851 153.273 17.2868 153.307 14.6625Z" fill="#263238"/>
<path d="M140.1 16.2024V17.7678C140.105 17.9242 140.077 18.0799 140.019 18.2253C139.961 18.3707 139.875 18.5028 139.764 18.6134C139.653 18.7241 139.521 18.811 139.376 18.8688C139.23 18.9267 139.075 18.9543 138.918 18.9498C138.763 18.9498 138.61 18.9192 138.467 18.8597C138.324 18.8003 138.194 18.7131 138.085 18.6032C137.975 18.4934 137.889 18.363 137.83 18.2197C137.772 18.0763 137.742 17.9227 137.743 17.7678V15.2695C137.743 15.2695 137.743 15.2695 137.743 15.2184C137.743 15.1673 137.743 15.2184 137.743 15.1737C137.751 14.8638 137.877 14.5687 138.095 14.349C138.314 14.1292 138.608 14.0013 138.918 13.9916C139.283 14.0094 139.647 13.9529 139.99 13.8256C140.332 13.6983 140.645 13.5028 140.909 13.2509C141.173 12.9991 141.384 12.6962 141.528 12.3606C141.672 12.025 141.746 11.6636 141.746 11.2985C141.746 10.9334 141.672 10.572 141.528 10.2364C141.384 9.9008 141.173 9.59789 140.909 9.34606C140.645 9.09423 140.332 8.89872 139.99 8.7714C139.647 8.64408 139.283 8.58758 138.918 8.60535C138.451 8.60388 137.993 8.72534 137.588 8.95752C137.183 9.1897 136.846 9.5244 136.612 9.92797C136.533 10.0641 136.428 10.1833 136.303 10.2789C136.178 10.3744 136.036 10.4444 135.884 10.4847C135.732 10.5251 135.574 10.5351 135.418 10.5141C135.262 10.4931 135.112 10.4416 134.976 10.3624C134.843 10.2835 134.726 10.1789 134.633 10.0548C134.541 9.93069 134.473 9.78946 134.435 9.63922C134.397 9.48899 134.389 9.33273 134.412 9.17942C134.435 9.02612 134.487 8.87879 134.567 8.74592C134.987 8.02215 135.581 7.41409 136.294 6.97632C137.007 6.53856 137.818 6.2848 138.654 6.23783C139.49 6.19085 140.324 6.35214 141.082 6.7072C141.84 7.06227 142.497 7.59999 142.996 8.2721C143.495 8.94421 143.819 9.72966 143.939 10.5579C144.059 11.3862 143.972 12.2314 143.685 13.0175C143.398 13.8037 142.92 14.5063 142.294 15.0622C141.669 15.618 140.915 16.0098 140.1 16.2024ZM140.1 21.4737V21.9081C140.104 22.064 140.076 22.219 140.017 22.3637C139.959 22.5083 139.872 22.6396 139.762 22.7496C139.651 22.8596 139.519 22.9459 139.374 23.0034C139.229 23.0608 139.074 23.0882 138.918 23.0838C138.606 23.0838 138.307 22.9599 138.087 22.7395C137.866 22.519 137.743 22.22 137.743 21.9081V21.4737C137.746 21.1623 137.871 20.8645 138.09 20.6437C138.31 20.4229 138.607 20.2966 138.918 20.2916C139.074 20.2899 139.228 20.3193 139.373 20.3781C139.517 20.4369 139.648 20.5239 139.758 20.634C139.868 20.7441 139.955 20.8751 140.014 21.0193C140.073 21.1635 140.102 21.318 140.1 21.4737Z" fill="#2B5AAC"/>
</svg>
