<svg width="444" height="270" viewBox="0 0 444 270" fill="none" xmlns="http://www.w3.org/2000/svg">
<path d="M403.24 14.902C403.614 12.211 399.813 9.99605 396.963 9.76757C395.599 9.65333 394.183 9.86277 392.895 9.41216C390.102 8.44112 388.985 4.82989 386.263 3.70018C384.225 2.83704 381.877 3.60498 379.916 4.60141C377.955 5.59783 375.987 6.84812 373.779 6.98774C371.875 7.10833 369.774 6.39751 368.067 7.33681C366.797 8.03494 366.163 9.47563 365.008 10.3261C363.853 11.1765 362.406 11.3352 361.003 11.4114C359.6 11.4875 358.153 11.5002 356.878 12.0841C355.602 12.668 354.548 13.9881 354.815 15.397L403.24 14.902Z" fill="#F5F5F5"/>
<path d="M97.5295 62.8253H43.8877V232.826H97.5295V62.8253Z" fill="#F5F5F5"/>
<path d="M97.5289 62.8253H70.708V232.357H97.5289V62.8253Z" fill="#EBEBEB"/>
<path d="M68.9564 46.14H50.0117V62.8317H68.9564V46.14Z" fill="#F5F5F5"/>
<path d="M68.9509 46.14H64.4385V62.8317H68.9509V46.14Z" fill="#EBEBEB"/>
<path d="M39.4199 62.8254V61.8544H99.0974V62.8254" fill="#E0E0E0"/>
<path d="M59.0115 70.105H54.4736V79.6757H59.0115V70.105Z" fill="#FAFAFA"/>
<path d="M70.7086 83.4455C70.7086 83.5407 64.7047 83.6232 57.2981 83.6232C49.8916 83.6232 43.8877 83.5407 43.8877 83.4455C43.8877 83.3503 49.8916 83.2615 57.2981 83.2615C64.7047 83.2615 70.7086 83.3376 70.7086 83.4455Z" fill="#E0E0E0"/>
<path d="M86.0672 70.105H81.5293V79.6757H86.0672V70.105Z" fill="#E0E0E0"/>
<path d="M97.7574 83.4455C97.7574 83.5407 91.7535 83.6232 84.347 83.6232C76.9404 83.6232 70.9365 83.5407 70.9365 83.4455C70.9365 83.3503 76.9404 83.2615 84.347 83.2615C91.7535 83.2615 97.7574 83.3376 97.7574 83.4455Z" fill="#E0E0E0"/>
<path d="M86.0672 89.1132H81.5293V98.6902H86.0672V89.1132Z" fill="#E0E0E0"/>
<path d="M97.7574 102.447C97.7574 102.543 91.7535 102.625 84.347 102.625C76.9404 102.625 70.9365 102.543 70.9365 102.447C70.9365 102.352 76.9404 102.263 84.347 102.263C91.7535 102.263 97.7574 102.346 97.7574 102.447Z" fill="#E0E0E0"/>
<path d="M86.0672 108.693H81.5293V118.263H86.0672V108.693Z" fill="#E0E0E0"/>
<path d="M97.7574 122.027C97.7574 122.128 91.7535 122.211 84.347 122.211C76.9404 122.211 70.9365 122.128 70.9365 122.027C70.9365 121.925 76.9404 121.843 84.347 121.843C91.7535 121.843 97.7574 121.925 97.7574 122.027Z" fill="#E0E0E0"/>
<path d="M86.0672 128.278H81.5293V137.849H86.0672V128.278Z" fill="#E0E0E0"/>
<path d="M97.7574 141.606C97.7574 141.708 91.7535 141.79 84.347 141.79C76.9404 141.79 70.9365 141.708 70.9365 141.606C70.9365 141.505 76.9404 141.422 84.347 141.422C91.7535 141.422 97.7574 141.505 97.7574 141.606Z" fill="#E0E0E0"/>
<path d="M86.0672 147.299H81.5293V156.87H86.0672V147.299Z" fill="#E0E0E0"/>
<path d="M97.7574 160.627C97.7574 160.729 91.7535 160.811 84.347 160.811C76.9404 160.811 70.9365 160.729 70.9365 160.627C70.9365 160.526 76.9404 160.443 84.347 160.443C91.7535 160.443 97.7574 160.526 97.7574 160.627Z" fill="#E0E0E0"/>
<path d="M86.0672 166.396H81.5293V175.967H86.0672V166.396Z" fill="#E0E0E0"/>
<path d="M86.0672 185.741H81.5293V195.311H86.0672V185.741Z" fill="#E0E0E0"/>
<path d="M97.7574 179.724C97.7574 179.826 91.7535 179.908 84.347 179.908C76.9404 179.908 70.9365 179.826 70.9365 179.724C70.9365 179.623 76.9404 179.546 84.347 179.546C91.7535 179.546 97.7574 179.629 97.7574 179.724Z" fill="#E0E0E0"/>
<path d="M59.0115 89.4052H54.4736V98.9759H59.0115V89.4052Z" fill="#FAFAFA"/>
<path d="M70.7086 102.733C70.7086 102.835 64.7047 102.917 57.2981 102.917C49.8916 102.917 43.8877 102.835 43.8877 102.733C43.8877 102.632 49.8916 102.549 57.2981 102.549C64.7047 102.549 70.7086 102.632 70.7086 102.733Z" fill="#E0E0E0"/>
<path d="M59.0115 108.699H54.4736V118.27H59.0115V108.699Z" fill="#FAFAFA"/>
<path d="M70.7086 122.033C70.7086 122.135 64.7047 122.217 57.2981 122.217C49.8916 122.217 43.8877 122.135 43.8877 122.033C43.8877 121.932 49.8916 121.849 57.2981 121.849C64.7047 121.849 70.7086 121.932 70.7086 122.033Z" fill="#E0E0E0"/>
<path d="M59.0115 127.999H54.4736V137.57H59.0115V127.999Z" fill="#FAFAFA"/>
<path d="M70.7086 141.333C70.7086 141.428 64.7047 141.511 57.2981 141.511C49.8916 141.511 43.8877 141.428 43.8877 141.333C43.8877 141.238 49.8916 141.149 57.2981 141.149C64.7047 141.149 70.7086 141.232 70.7086 141.333Z" fill="#E0E0E0"/>
<path d="M59.0115 147.299H54.4736V156.87H59.0115V147.299Z" fill="#FAFAFA"/>
<path d="M70.7086 160.627C70.7086 160.729 64.7047 160.811 57.2981 160.811C49.8916 160.811 43.8877 160.729 43.8877 160.627C43.8877 160.526 49.8916 160.443 57.2981 160.443C64.7047 160.443 70.7086 160.526 70.7086 160.627Z" fill="#E0E0E0"/>
<path d="M59.0115 166.593H54.4736V176.164H59.0115V166.593Z" fill="#FAFAFA"/>
<path d="M70.7086 179.915C70.7086 180.016 64.7047 180.099 57.2981 180.099C49.8916 180.099 43.8877 180.016 43.8877 179.915C43.8877 179.813 49.8916 179.73 57.2981 179.73C64.7047 179.73 70.7086 179.826 70.7086 179.915Z" fill="#E0E0E0"/>
<path d="M59.0115 185.893H54.4736V195.464H59.0115V185.893Z" fill="#FAFAFA"/>
<path d="M309.189 24.0537H231.868V269.098H309.189V24.0537Z" fill="#F5F5F5"/>
<path d="M309.184 24.0537H270.526V268.425H309.184V24.0537Z" fill="#EBEBEB"/>
<path d="M268 0H240.696V24.0601H268V0Z" fill="#F5F5F5"/>
<path d="M267.999 0H261.494V24.0601H267.999V0Z" fill="#EBEBEB"/>
<path d="M225.427 24.0537V22.6511H311.449V24.0537" fill="#E0E0E0"/>
<path d="M253.675 34.551H247.132V48.3486H253.675V34.551Z" fill="#FAFAFA"/>
<path d="M270.526 53.7624C270.526 53.9084 261.875 54.029 251.2 54.029C240.525 54.029 231.868 53.9084 231.868 53.7624C231.868 53.6164 240.519 53.5022 251.2 53.5022C261.881 53.5022 270.526 53.6164 270.526 53.7624Z" fill="#E0E0E0"/>
<path d="M292.669 34.551H286.126V48.3486H292.669V34.551Z" fill="#E0E0E0"/>
<path d="M309.526 53.7624C309.526 53.9084 300.869 54.029 290.194 54.029C279.519 54.029 270.862 53.9084 270.862 53.7624C270.862 53.6164 279.519 53.5022 290.194 53.5022C300.869 53.5022 309.526 53.6164 309.526 53.7624Z" fill="#E0E0E0"/>
<path d="M292.669 61.9496H286.126V75.7472H292.669V61.9496Z" fill="#E0E0E0"/>
<path d="M309.526 81.1672C309.526 81.3132 300.869 81.4274 290.194 81.4274C279.519 81.4274 270.862 81.3132 270.862 81.1672C270.862 81.0212 279.519 80.9006 290.194 80.9006C300.869 80.9006 309.526 81.0212 309.526 81.1672Z" fill="#E0E0E0"/>
<path d="M292.669 90.1731H286.126V103.971H292.669V90.1731Z" fill="#E0E0E0"/>
<path d="M309.526 109.391C309.526 109.537 300.869 109.657 290.194 109.657C279.519 109.657 270.862 109.537 270.862 109.391C270.862 109.245 279.519 109.124 290.194 109.124C300.869 109.124 309.526 109.245 309.526 109.391Z" fill="#E0E0E0"/>
<path d="M292.669 118.403H286.126V132.201H292.669V118.403Z" fill="#E0E0E0"/>
<path d="M309.526 137.614C309.526 137.76 300.869 137.881 290.194 137.881C279.519 137.881 270.862 137.76 270.862 137.614C270.862 137.468 279.519 137.354 290.194 137.354C300.869 137.354 309.526 137.468 309.526 137.614Z" fill="#E0E0E0"/>
<path d="M292.669 145.82H286.126V159.618H292.669V145.82Z" fill="#E0E0E0"/>
<path d="M309.526 165.038C309.526 165.178 300.869 165.298 290.194 165.298C279.519 165.298 270.862 165.178 270.862 165.038C270.862 164.899 279.519 164.772 290.194 164.772C300.869 164.772 309.526 164.892 309.526 165.038Z" fill="#E0E0E0"/>
<path d="M292.669 173.346H286.126V187.143H292.669V173.346Z" fill="#E0E0E0"/>
<path d="M292.669 201.239H286.126V215.037H292.669V201.239Z" fill="#E0E0E0"/>
<path d="M309.526 192.563C309.526 192.709 300.869 192.83 290.194 192.83C279.519 192.83 270.862 192.709 270.862 192.563C270.862 192.417 279.519 192.303 290.194 192.303C300.869 192.303 309.526 192.417 309.526 192.563Z" fill="#E0E0E0"/>
<path d="M253.675 62.3684H247.132V76.166H253.675V62.3684Z" fill="#FAFAFA"/>
<path d="M270.526 81.586C270.526 81.7257 261.875 81.8462 251.2 81.8462C240.525 81.8462 231.868 81.7257 231.868 81.586C231.868 81.4464 240.519 81.3195 251.2 81.3195C261.881 81.3195 270.526 81.4401 270.526 81.586Z" fill="#E0E0E0"/>
<path d="M253.675 90.1858H247.132V103.983H253.675V90.1858Z" fill="#FAFAFA"/>
<path d="M270.526 109.403C270.526 109.543 261.875 109.664 251.2 109.664C240.525 109.664 231.868 109.543 231.868 109.403C231.868 109.264 240.519 109.137 251.2 109.137C261.881 109.137 270.526 109.257 270.526 109.403Z" fill="#E0E0E0"/>
<path d="M253.675 118.003H247.132V131.801H253.675V118.003Z" fill="#FAFAFA"/>
<path d="M270.526 137.221C270.526 137.36 261.875 137.481 251.2 137.481C240.525 137.481 231.868 137.36 231.868 137.221C231.868 137.081 240.519 136.954 251.2 136.954C261.881 136.954 270.526 137.075 270.526 137.221Z" fill="#E0E0E0"/>
<path d="M253.675 145.82H247.132V159.618H253.675V145.82Z" fill="#FAFAFA"/>
<path d="M270.526 165.038C270.526 165.178 261.875 165.298 251.2 165.298C240.525 165.298 231.868 165.178 231.868 165.038C231.868 164.899 240.519 164.772 251.2 164.772C261.881 164.772 270.526 164.892 270.526 165.038Z" fill="#E0E0E0"/>
<path d="M253.675 173.638H247.132V187.435H253.675V173.638Z" fill="#FAFAFA"/>
<path d="M270.526 192.855C270.526 193.001 261.875 193.116 251.2 193.116C240.525 193.116 231.868 193.001 231.868 192.855C231.868 192.709 240.519 192.589 251.2 192.589C261.881 192.589 270.526 192.709 270.526 192.855Z" fill="#E0E0E0"/>
<path d="M253.675 201.455H247.132V215.253H253.675V201.455Z" fill="#FAFAFA"/>
<path d="M336.474 135.215H294.23V269.091H336.474V135.215Z" fill="#F5F5F5"/>
<path d="M336.474 135.215H315.353V268.723H336.474V135.215Z" fill="#EBEBEB"/>
<path d="M313.969 122.071H299.055V135.215H313.969V122.071Z" fill="#F5F5F5"/>
<path d="M313.968 122.071H310.414V135.215H313.968V122.071Z" fill="#EBEBEB"/>
<path d="M290.708 135.215V134.447H337.711V135.215" fill="#E0E0E0"/>
<path d="M306.143 140.946H302.57V148.486H306.143V140.946Z" fill="#FAFAFA"/>
<path d="M315.352 151.45C315.352 151.526 310.624 151.589 304.791 151.589C298.959 151.589 294.23 151.526 294.23 151.45C294.23 151.374 298.959 151.304 304.791 151.304C310.624 151.304 315.352 151.355 315.352 151.45Z" fill="#E0E0E0"/>
<path d="M327.449 140.946H323.876V148.486H327.449V140.946Z" fill="#E0E0E0"/>
<path d="M336.658 151.45C336.658 151.526 331.93 151.589 326.097 151.589C320.264 151.589 315.536 151.526 315.536 151.45C315.536 151.374 320.264 151.304 326.097 151.304C331.93 151.304 336.658 151.355 336.658 151.45Z" fill="#E0E0E0"/>
<path d="M327.449 155.918H323.876V163.458H327.449V155.918Z" fill="#E0E0E0"/>
<path d="M336.658 166.415C336.658 166.498 331.93 166.561 326.097 166.561C320.264 166.561 315.536 166.498 315.536 166.415C315.536 166.333 320.264 166.269 326.097 166.269C331.93 166.269 336.658 166.339 336.658 166.415Z" fill="#E0E0E0"/>
<path d="M327.449 171.34H323.876V178.88H327.449V171.34Z" fill="#E0E0E0"/>
<path d="M336.658 181.819C336.658 181.895 331.93 181.965 326.097 181.965C320.264 181.965 315.536 181.895 315.536 181.819C315.536 181.742 320.264 181.673 326.097 181.673C331.93 181.673 336.658 181.755 336.658 181.819Z" fill="#E0E0E0"/>
<path d="M327.449 186.756H323.876V194.296H327.449V186.756Z" fill="#E0E0E0"/>
<path d="M336.658 197.26C336.658 197.336 331.93 197.4 326.097 197.4C320.264 197.4 315.536 197.336 315.536 197.26C315.536 197.184 320.264 197.114 326.097 197.114C331.93 197.114 336.658 197.177 336.658 197.26Z" fill="#E0E0E0"/>
<path d="M327.449 201.741H323.876V209.281H327.449V201.741Z" fill="#E0E0E0"/>
<path d="M336.658 212.238C336.658 212.321 331.93 212.384 326.097 212.384C320.264 212.384 315.536 212.321 315.536 212.238C315.536 212.155 320.264 212.092 326.097 212.092C331.93 212.092 336.658 212.155 336.658 212.238Z" fill="#E0E0E0"/>
<path d="M327.449 216.782H323.876V224.322H327.449V216.782Z" fill="#E0E0E0"/>
<path d="M327.449 232.014H323.876V239.554H327.449V232.014Z" fill="#E0E0E0"/>
<path d="M336.658 227.28C336.658 227.356 331.93 227.419 326.097 227.419C320.264 227.419 315.536 227.356 315.536 227.28C315.536 227.203 320.264 227.134 326.097 227.134C331.93 227.134 336.658 227.197 336.658 227.28Z" fill="#E0E0E0"/>
<path d="M306.143 156.146H302.57V163.686H306.143V156.146Z" fill="#FAFAFA"/>
<path d="M315.352 166.644C315.352 166.726 310.624 166.79 304.791 166.79C298.959 166.79 294.23 166.726 294.23 166.644C294.23 166.561 298.959 166.498 304.791 166.498C310.624 166.498 315.352 166.587 315.352 166.644Z" fill="#E0E0E0"/>
<path d="M306.143 171.347H302.57V178.886H306.143V171.347Z" fill="#FAFAFA"/>
<path d="M315.352 181.819C315.352 181.895 310.624 181.958 304.791 181.958C298.959 181.958 294.23 181.895 294.23 181.819C294.23 181.742 298.959 181.673 304.791 181.673C310.624 181.673 315.352 181.761 315.352 181.819Z" fill="#E0E0E0"/>
<path d="M306.143 186.54H302.57V194.08H306.143V186.54Z" fill="#FAFAFA"/>
<path d="M315.352 197.051C315.352 197.133 310.624 197.196 304.791 197.196C298.959 197.196 294.23 197.133 294.23 197.051C294.23 196.968 298.959 196.911 304.791 196.911C310.624 196.911 315.352 196.962 315.352 197.051Z" fill="#E0E0E0"/>
<path d="M306.143 201.741H302.57V209.281H306.143V201.741Z" fill="#FAFAFA"/>
<path d="M315.352 212.238C315.352 212.321 310.624 212.384 304.791 212.384C298.959 212.384 294.23 212.321 294.23 212.238C294.23 212.155 298.959 212.092 304.791 212.092C310.624 212.092 315.352 212.155 315.352 212.238Z" fill="#E0E0E0"/>
<path d="M306.143 216.935H302.57V224.474H306.143V216.935Z" fill="#FAFAFA"/>
<path d="M315.352 227.438C315.352 227.514 310.624 227.578 304.791 227.578C298.959 227.578 294.23 227.514 294.23 227.438C294.23 227.362 298.959 227.292 304.791 227.292C310.624 227.292 315.352 227.356 315.352 227.438Z" fill="#E0E0E0"/>
<path d="M306.143 232.135H302.57V239.675H306.143V232.135Z" fill="#FAFAFA"/>
<path d="M124.624 182.783H79.1436V269.098H124.624V182.783Z" fill="#E0E0E0"/>
<path d="M124.623 182.783H103.298V269.098H124.623V182.783Z" fill="#EBEBEB"/>
<path d="M92.7699 190.901H88.6826V200.833H92.7699V190.901Z" fill="#F5F5F5"/>
<path d="M92.7699 229.786H88.6826V239.719H92.7699V229.786Z" fill="#F5F5F5"/>
<path d="M103.298 204.736C103.298 204.825 97.8906 204.889 91.2393 204.889C84.588 204.889 79.1807 204.825 79.1807 204.736C79.1807 204.647 84.588 204.584 91.2393 204.584C97.8906 204.584 103.298 204.666 103.298 204.736Z" fill="#F5F5F5"/>
<path d="M92.7699 210.493H88.6826V220.425H92.7699V210.493Z" fill="#F5F5F5"/>
<path d="M103.298 224.341C103.298 224.424 97.8906 224.493 91.2393 224.493C84.588 224.493 79.1807 224.424 79.1807 224.341C79.1807 224.259 84.588 224.182 91.2393 224.182C97.8906 224.182 103.298 224.239 103.298 224.341Z" fill="#F5F5F5"/>
<path d="M111.917 190.901H107.83V200.833H111.917V190.901Z" fill="#E0E0E0"/>
<path d="M120.789 190.901H116.702V200.833H120.789V190.901Z" fill="#E0E0E0"/>
<path d="M111.917 209.756H107.83V219.689H111.917V209.756Z" fill="#E0E0E0"/>
<path d="M120.789 209.756H116.702V219.689H120.789V209.756Z" fill="#E0E0E0"/>
<path d="M111.917 228.606H107.83V238.538H111.917V228.606Z" fill="#E0E0E0"/>
<path d="M120.789 228.606H116.702V238.538H120.789V228.606Z" fill="#E0E0E0"/>
<path d="M128.044 180.695H75.7285V182.859H128.044V180.695Z" fill="#E0E0E0"/>
<path d="M124.941 183.088C124.941 183.17 114.786 183.24 102.239 183.24C89.6917 183.24 79.5371 183.17 79.5371 183.088C79.5371 183.005 89.6917 182.929 102.239 182.929C114.786 182.929 124.941 182.974 124.941 183.088Z" fill="#EBEBEB"/>
<path d="M79.6635 269.034H6.42329L6.09961 153.278H79.3462L79.6635 269.034Z" fill="#EBEBEB"/>
<path d="M79.3467 153.278H42.7266V269.034H79.3467V153.278Z" fill="#E0E0E0"/>
<path d="M40.3274 130.487H14.4648V153.278H40.3274V130.487Z" fill="#EBEBEB"/>
<path d="M40.3267 130.487H34.1641V153.278H40.3267V130.487Z" fill="#E0E0E0"/>
<path d="M81.4909 151.945H0V153.271H81.4909V151.945Z" fill="#E0E0E0"/>
<path d="M26.7573 163.217H20.5566V176.291H26.7573V163.217Z" fill="white"/>
<path d="M42.7261 181.419C42.7261 181.558 34.5262 181.666 24.416 181.666C14.3058 181.666 6.09961 181.558 6.09961 181.419C6.09961 181.279 14.2995 181.184 24.416 181.184C34.5326 181.184 42.7261 181.279 42.7261 181.419Z" fill="#E0E0E0"/>
<path d="M63.7016 163.217H57.501V176.291H63.7016V163.217Z" fill="#F5F5F5"/>
<path d="M79.6641 181.419C79.6641 181.558 71.4642 181.666 61.354 181.666C51.2438 181.666 43.0439 181.558 43.0439 181.419C43.0439 181.279 51.2375 181.171 61.354 181.171C71.4706 181.171 79.6641 181.279 79.6641 181.419Z" fill="#EBEBEB"/>
<path d="M63.7016 189.168H57.501V202.242H63.7016V189.168Z" fill="#F5F5F5"/>
<path d="M79.6641 207.377C79.6641 207.51 71.4642 207.624 61.354 207.624C51.2438 207.624 43.0439 207.51 43.0439 207.377C43.0439 207.243 51.2375 207.123 61.354 207.123C71.4706 207.123 79.6641 207.237 79.6641 207.377Z" fill="#EBEBEB"/>
<path d="M63.7016 215.906H57.501V228.98H63.7016V215.906Z" fill="#F5F5F5"/>
<path d="M79.6641 234.115C79.6641 234.248 71.4642 234.362 61.354 234.362C51.2438 234.362 43.0439 234.248 43.0439 234.115C43.0439 233.982 51.2375 233.861 61.354 233.861C71.4706 233.861 79.6641 233.975 79.6641 234.115Z" fill="#EBEBEB"/>
<path d="M63.7016 242.645H57.501V255.719H63.7016V242.645Z" fill="#F5F5F5"/>
<path d="M79.6641 260.847C79.6641 260.987 71.4642 261.101 61.354 261.101C51.2438 261.101 43.0439 260.987 43.0439 260.847C43.0439 260.707 51.2375 260.599 61.354 260.599C71.4706 260.599 79.6641 260.714 79.6641 260.847Z" fill="#EBEBEB"/>
<path d="M26.7573 189.568H20.5566V202.642H26.7573V189.568Z" fill="white"/>
<path d="M42.7261 207.77C42.7261 207.91 34.5262 208.017 24.416 208.017C14.3058 208.017 6.09961 207.91 6.09961 207.77C6.09961 207.63 14.2995 207.522 24.416 207.522C34.5326 207.522 42.7261 207.63 42.7261 207.77Z" fill="#E0E0E0"/>
<path d="M26.7573 215.919H20.5566V228.993H26.7573V215.919Z" fill="white"/>
<path d="M42.7261 234.121C42.7261 234.261 34.5262 234.369 24.416 234.369C14.3058 234.369 6.09961 234.261 6.09961 234.121C6.09961 233.982 14.2995 233.861 24.416 233.861C34.5326 233.861 42.7261 233.982 42.7261 234.121Z" fill="#E0E0E0"/>
<path d="M26.7573 242.27H20.5566V255.344H26.7573V242.27Z" fill="white"/>
<path d="M42.7261 260.472C42.7261 260.612 34.5262 260.72 24.416 260.72C14.3058 260.72 6.09961 260.612 6.09961 260.472C6.09961 260.333 14.2995 260.225 24.416 260.225C34.5326 260.225 42.7261 260.333 42.7261 260.472Z" fill="#E0E0E0"/>
<path d="M426.863 89.7923C427.389 85.9462 421.963 82.811 417.882 82.4556C415.94 82.2969 413.915 82.5952 412.075 81.9542C408.083 80.5643 406.49 75.4045 402.593 73.7607C399.68 72.5294 396.323 73.6274 393.505 75.03C390.687 76.4326 387.888 78.2351 384.734 78.4382C381.992 78.6159 379.022 77.5941 376.61 78.9395C374.82 79.936 373.881 81.9986 372.231 83.2172C370.581 84.4357 368.518 84.6579 366.519 84.7658C364.52 84.8737 362.444 84.8927 360.623 85.7305C358.801 86.5682 357.291 88.4912 357.672 90.4587L426.863 89.7923Z" fill="#F5F5F5"/>
<path d="M443.091 226.734H384.169V269.091H443.091V226.734Z" fill="#EBEBEB"/>
<path d="M399.972 226.734C400.061 226.734 399.972 235.676 399.972 235.676H395.612V226.734H399.972Z" fill="#F5F5F5"/>
<path d="M413.631 269.091H443.092V226.734H413.631V269.091Z" fill="#E0E0E0"/>
<path d="M393.854 260.802H385.965V266.381H393.854V260.802Z" fill="white"/>
<path d="M399.255 260.802H395.313V266.381H399.255V260.802Z" fill="white"/>
<path d="M437.493 199.151H399.128V226.734H437.493V199.151Z" fill="#EBEBEB"/>
<path d="M409.422 199.151C409.473 199.151 409.422 204.977 409.422 204.977H406.579V199.151H409.422Z" fill="#F5F5F5"/>
<path d="M418.314 226.734H437.493V199.151H418.314V226.734Z" fill="#E0E0E0"/>
<path d="M405.436 221.333H400.302V224.969H405.436V221.333Z" fill="white"/>
<path d="M408.952 221.333H406.382V224.969H408.952V221.333Z" fill="white"/>
<path d="M45.3406 15.8538C45.6389 13.6769 42.5671 11.8808 40.2633 11.6967C39.159 11.6079 38.0166 11.7729 36.9694 11.4111C34.71 10.6241 33.796 7.70469 31.6001 6.77173C29.95 6.0736 28.0523 6.69557 26.453 7.5016C24.8536 8.30762 23.2797 9.31674 21.4899 9.40559C19.935 9.50714 18.2468 8.92959 16.8886 9.69119C15.8731 10.256 15.34 11.4238 14.407 12.1093C13.4344 12.7123 12.3081 13.0209 11.1639 12.9978C10.0265 12.9655 8.89346 13.1508 7.82558 13.5436C6.79108 14.0133 5.92159 15.1049 6.15007 16.2219L45.3406 15.8538Z" fill="#EBEBEB"/>
<path d="M437.564 60.0709C437.855 57.9448 434.86 56.1995 432.607 56.0154C431.534 55.9329 430.417 56.0916 429.395 55.7425C427.193 54.9682 426.311 52.1186 424.159 51.211C422.554 50.5383 420.701 51.1412 419.139 51.9218C417.578 52.7025 416.036 53.6989 414.297 53.8258C412.78 53.9274 411.123 53.3625 409.81 54.1051C408.82 54.6572 408.306 55.7933 407.392 56.466C406.438 57.0503 405.336 57.3477 404.218 57.3228C403.109 57.2936 402.004 57.4745 400.962 57.8559C399.953 58.3129 399.122 59.3791 399.331 60.4644L437.564 60.0709Z" fill="#EBEBEB"/>
<path d="M112.812 29.3405C113.358 25.3611 107.735 22.0863 103.527 21.7245C101.508 21.5658 99.4204 21.8705 97.5164 21.2104C93.3847 19.7697 91.7346 14.4322 87.7045 12.7313C84.6899 11.462 81.2246 12.5917 78.3051 14.0641C75.3857 15.5365 72.4979 17.3834 69.2358 17.5928C66.3925 17.7769 63.3144 16.7233 60.8265 18.1069C58.9796 19.1414 58.0086 21.2802 56.3013 22.5496C54.5941 23.8189 52.4616 24.041 50.3862 24.1553C48.3109 24.2695 46.1721 24.2885 44.2871 25.1517C42.4022 26.0148 40.8472 28.0077 41.2344 30.0449L112.812 29.3405Z" fill="#F5F5F5"/>
<path d="M442.876 269.091C442.876 269.186 345.963 269.256 226.456 269.256C106.948 269.256 10.0352 269.186 10.0352 269.091C10.0352 268.996 106.929 268.926 226.487 268.926C346.045 268.926 442.876 269.002 442.876 269.091Z" fill="#263238"/>
<path d="M183.152 242.518C183.826 242.675 184.462 242.967 185.02 243.376C185.578 243.785 186.048 244.303 186.402 244.898C187.106 246.092 187.525 247.432 187.627 248.814C187.906 251.473 186.992 254.418 185.875 256.836C183.273 255.408 182.067 252.197 181.515 250.527C180.69 247.887 180.798 242.613 183.152 242.518Z" fill="#2B5AAC"/>
<path d="M189.353 260.561C189.042 259.852 188.923 259.073 189.009 258.303C189.094 257.533 189.382 256.799 189.842 256.176C190.314 255.563 190.903 255.049 191.575 254.666C192.248 254.282 192.989 254.036 193.758 253.942C194.106 253.86 194.467 253.855 194.817 253.929C195.167 254.002 195.497 254.152 195.782 254.367C196.011 254.61 196.173 254.91 196.249 255.235C196.326 255.56 196.316 255.9 196.22 256.22C196.01 256.857 195.639 257.428 195.141 257.877C193.51 259.476 191.638 260.733 189.353 260.561Z" fill="#2B5AAC"/>
<path d="M188.306 269.123C188.273 268.943 188.258 268.76 188.262 268.577C188.262 268.184 188.23 267.682 188.211 267.079C188.103 265.421 188.264 263.756 188.687 262.148C189.139 260.535 190.016 259.073 191.226 257.915C191.594 257.572 192 257.274 192.438 257.026C192.556 256.956 192.679 256.894 192.806 256.842C192.889 256.804 192.933 256.785 192.939 256.791C192.358 257.144 191.814 257.555 191.315 258.016C190.163 259.185 189.324 260.626 188.878 262.205C188.46 263.795 188.285 265.438 188.357 267.079C188.357 267.714 188.357 268.222 188.357 268.577C188.358 268.76 188.341 268.943 188.306 269.123Z" fill="#263238"/>
<path d="M183.438 246.554C183.472 246.625 183.497 246.7 183.514 246.776C183.565 246.948 183.622 247.17 183.698 247.411C183.857 247.989 184.079 248.82 184.333 249.855C184.86 251.917 185.545 254.773 186.237 257.953C186.929 261.133 187.475 264.014 187.849 266.115C188.033 267.162 188.179 268.019 188.268 268.596C188.312 268.875 188.344 269.104 188.369 269.275C188.375 269.356 188.375 269.436 188.369 269.516C188.339 269.441 188.318 269.362 188.306 269.282C188.268 269.11 188.223 268.888 188.166 268.609C188.052 268.006 187.887 267.162 187.69 266.14C187.284 264.052 186.707 261.164 186.028 257.991C185.348 254.818 184.676 251.955 184.187 249.886C183.946 248.864 183.749 248.033 183.609 247.43L183.457 246.795C183.442 246.716 183.435 246.635 183.438 246.554Z" fill="#263238"/>
<path d="M185.926 262.967C185.315 261.453 184.354 260.106 183.12 259.038C181.886 257.97 180.416 257.211 178.83 256.823C178.024 256.633 177.021 256.614 176.539 257.293C176.057 257.972 176.412 258.911 176.869 259.603C177.855 261.028 179.24 262.13 180.85 262.769C182.461 263.408 184.225 263.557 185.919 263.195" fill="#2B5AAC"/>
<path d="M179.726 259.209C179.898 259.223 180.068 259.255 180.233 259.305C180.431 259.349 180.626 259.405 180.817 259.47C181.046 259.552 181.306 259.616 181.579 259.743C181.882 259.861 182.179 259.997 182.468 260.149C182.802 260.316 183.126 260.503 183.439 260.707C184.159 261.178 184.823 261.729 185.419 262.351C186.005 262.982 186.516 263.678 186.942 264.426C187.124 264.753 187.287 265.09 187.431 265.436C187.561 265.734 187.675 266.039 187.773 266.349C187.855 266.606 187.923 266.866 187.976 267.13C188.03 267.326 188.068 267.525 188.091 267.727C188.127 267.896 188.146 268.068 188.148 268.241C188.103 268.241 188.021 267.511 187.64 266.394C187.538 266.089 187.419 265.791 187.285 265.499C187.138 265.161 186.97 264.833 186.783 264.515C186.36 263.784 185.855 263.103 185.279 262.484C184.704 261.876 184.066 261.331 183.375 260.86C183.068 260.653 182.75 260.462 182.423 260.288C182.125 260.117 181.826 259.99 181.56 259.87C180.437 259.4 179.713 259.248 179.726 259.209Z" fill="#263238"/>
<path d="M385.261 262.421C385.502 261.494 384.893 260.561 384.208 259.882C383.522 259.203 382.703 258.613 382.348 257.712C381.77 256.265 382.545 254.392 381.561 253.187C380.983 252.476 379.949 252.235 379.435 251.479C379.197 251.059 379.04 250.599 378.972 250.121C378.423 247.718 377.239 245.507 375.544 243.717C375.433 245.859 375.898 247.991 376.89 249.893C377.355 250.623 377.696 251.425 377.899 252.266C378.115 253.644 377.347 255.059 377.683 256.411C378.07 257.953 379.803 258.987 379.886 260.574C379.955 261.92 378.781 263.113 378.87 264.446C378.942 265.016 379.147 265.561 379.467 266.039C379.929 266.927 380.632 267.668 381.495 268.176C382.358 268.684 383.346 268.94 384.347 268.914L387.184 269.015L385.261 262.421Z" fill="#2B5AAC"/>
<g opacity="0.3">
<path d="M385.261 262.421C385.502 261.494 384.893 260.561 384.208 259.882C383.522 259.203 382.703 258.613 382.348 257.712C381.77 256.265 382.545 254.392 381.561 253.187C380.983 252.476 379.949 252.235 379.435 251.479C379.197 251.059 379.04 250.599 378.972 250.121C378.423 247.718 377.239 245.507 375.544 243.717C375.433 245.859 375.898 247.991 376.89 249.893C377.355 250.623 377.696 251.425 377.899 252.266C378.115 253.644 377.347 255.059 377.683 256.411C378.07 257.953 379.803 258.987 379.886 260.574C379.955 261.92 378.781 263.113 378.87 264.446C378.942 265.016 379.147 265.561 379.467 266.039C379.929 266.927 380.632 267.668 381.495 268.176C382.358 268.684 383.346 268.94 384.347 268.914L387.184 269.015L385.261 262.421Z" fill="black"/>
</g>
<path d="M387.755 269.079C388.013 269.124 388.278 269.124 388.536 269.079C388.849 269.033 389.157 268.956 389.456 268.85C389.867 268.703 390.251 268.489 390.592 268.215C390.8 268.047 390.962 267.829 391.062 267.581C391.145 267.307 391.19 267.023 391.195 266.737C391.2 266.429 391.223 266.121 391.265 265.816C391.316 265.494 391.433 265.185 391.607 264.909C392.066 264.324 392.426 263.668 392.674 262.967C392.812 262.143 392.786 261.299 392.598 260.485C392.393 259.605 392.417 258.688 392.667 257.82C392.972 256.937 393.588 256.131 393.899 255.135C394.21 254.139 394.064 253.041 394.133 251.962C394.152 251.418 394.277 250.883 394.502 250.388C394.73 249.886 395.047 249.417 395.295 248.89C395.727 247.783 395.974 246.612 396.025 245.425C396.095 244.828 396.164 244.225 396.228 243.616C396.27 243.001 396.376 242.393 396.545 241.801C396.733 241.203 396.96 240.618 397.224 240.049C397.356 239.75 397.466 239.443 397.554 239.129C397.605 238.799 397.624 238.494 397.643 238.158C397.675 237.503 397.649 236.847 397.567 236.197C397.491 235.562 397.37 234.889 397.3 234.235V234.121V233.994L397.186 234.051C396.585 234.351 396.062 234.785 395.657 235.321C395.265 235.849 394.951 236.43 394.724 237.047C394.316 238.255 394.021 239.498 393.842 240.76C393.66 241.963 393.264 243.123 392.674 244.187C392.363 244.688 391.988 245.152 391.658 245.64C391.306 246.121 391.066 246.674 390.954 247.259C390.789 248.458 391.449 249.512 391.309 250.572C391.248 251.094 391.072 251.597 390.795 252.044C390.535 252.495 390.237 252.914 389.945 253.313C389.652 253.724 389.399 254.162 389.189 254.621C388.987 255.069 388.869 255.551 388.84 256.043C388.771 256.995 388.904 257.902 388.84 258.759C388.763 259.574 388.526 260.365 388.142 261.088C387.799 261.786 387.419 262.415 387.101 262.992C386.942 263.287 386.798 263.59 386.67 263.9C386.556 264.188 386.473 264.488 386.422 264.795C386.344 265.331 386.344 265.876 386.422 266.413C386.5 267.162 386.781 267.875 387.235 268.476C387.306 268.562 387.382 268.645 387.463 268.723C387.521 268.782 387.585 268.835 387.654 268.882L387.812 268.996C387.612 268.833 387.429 268.65 387.266 268.45C386.825 267.851 386.558 267.142 386.492 266.4C386.43 265.87 386.442 265.334 386.53 264.807C386.586 264.508 386.671 264.214 386.784 263.931C386.912 263.628 387.056 263.331 387.216 263.043C387.533 262.408 387.92 261.812 388.269 261.107C388.663 260.373 388.909 259.569 388.993 258.74C389.069 257.864 388.936 256.95 388.993 256.017C389.023 255.543 389.139 255.079 389.335 254.646C389.544 254.2 389.795 253.775 390.084 253.377C390.37 252.958 390.675 252.539 390.941 252.076C391.231 251.612 391.415 251.09 391.481 250.546C391.62 249.41 390.966 248.35 391.131 247.24C391.243 246.679 391.478 246.151 391.817 245.691C392.134 245.209 392.515 244.752 392.832 244.231C393.439 243.152 393.844 241.972 394.026 240.747C394.208 239.497 394.501 238.265 394.901 237.066C395.126 236.465 395.434 235.899 395.815 235.384C396.199 234.866 396.699 234.444 397.275 234.153L397.148 234.077V234.191C397.218 234.857 397.339 235.505 397.415 236.152C397.49 236.784 397.514 237.421 397.484 238.056C397.477 238.373 397.449 238.689 397.402 239.002C397.32 239.306 397.214 239.603 397.085 239.89C396.818 240.465 396.589 241.057 396.399 241.661C396.229 242.262 396.123 242.879 396.082 243.502C396.012 244.136 395.942 244.72 395.879 245.317C395.83 246.484 395.589 247.635 395.168 248.725C394.933 249.239 394.616 249.715 394.375 250.235C394.145 250.75 394.018 251.304 394 251.866C393.937 252.958 394.076 254.031 393.784 254.995C393.492 255.96 392.87 256.766 392.559 257.68C392.305 258.569 392.283 259.509 392.496 260.409C392.684 261.208 392.717 262.035 392.591 262.846C392.345 263.532 391.992 264.175 391.544 264.75C391.366 265.039 391.247 265.36 391.195 265.696C391.156 266.003 391.135 266.313 391.131 266.622C391.132 266.902 391.091 267.18 391.011 267.447C390.916 267.679 390.765 267.884 390.573 268.044C390.24 268.315 389.865 268.53 389.462 268.679C389.168 268.789 388.864 268.87 388.555 268.92C388.365 268.959 388.171 268.978 387.977 268.977L387.755 269.079Z" fill="#263238"/>
<path d="M396.686 235.689C396.684 235.719 396.684 235.748 396.686 235.778L396.622 236.032C396.565 236.254 396.502 236.59 396.394 237.015C396.286 237.441 396.026 237.904 395.804 238.494C395.544 239.15 395.319 239.82 395.131 240.5C394.915 241.261 394.725 242.099 394.496 242.994C394.326 243.957 394.021 244.89 393.589 245.767C393.36 246.224 393.094 246.694 392.891 247.202C392.685 247.724 392.546 248.27 392.478 248.827C392.328 249.979 392.116 251.124 391.843 252.254C391.278 254.577 390.733 256.792 390.244 258.803C389.755 260.815 389.279 262.611 388.898 264.147C388.518 265.683 388.219 266.883 388.01 267.752C387.908 268.165 387.832 268.495 387.775 268.73L387.718 268.99C387.715 269.019 387.715 269.049 387.718 269.079C387.718 269.079 387.718 269.047 387.75 268.99L387.826 268.742C387.889 268.501 387.978 268.177 388.092 267.765C388.315 266.902 388.638 265.683 389.038 264.179C389.438 262.675 389.895 260.847 390.415 258.848C390.936 256.849 391.462 254.621 392.034 252.298C392.305 251.161 392.517 250.011 392.668 248.852C392.736 248.309 392.868 247.776 393.062 247.265C393.265 246.77 393.519 246.307 393.754 245.837C394.183 244.949 394.487 244.005 394.655 243.032C394.852 242.131 395.036 241.293 395.239 240.538C395.442 239.783 395.67 239.11 395.873 238.526C396.076 237.942 396.33 237.466 396.432 237.028C396.533 236.59 396.584 236.267 396.629 236.038L396.686 235.765C396.686 235.721 396.686 235.689 396.686 235.689Z" fill="#263238"/>
<path d="M388.258 269.085C390.111 267.987 390.638 264.642 389.87 262.637C389.102 260.631 387.743 258.791 387.534 256.645C387.375 254.995 387.915 253.307 387.534 251.695C387.02 249.525 384.9 247.843 384.919 245.609C384.919 244.339 385.649 243.172 385.592 241.921C385.522 240.385 384.323 239.167 383.612 237.815C382.495 235.74 382.425 233.296 382.038 230.973C381.651 228.65 380.768 226.163 378.712 225.02C378.414 226.994 377.893 228.346 378.078 231.011C378.141 231.976 379.252 233.81 379.404 235.911C379.493 237.18 379.556 238.45 379.632 239.681C379.648 240.91 379.849 242.13 380.229 243.298C380.565 244.174 381.105 244.974 381.352 245.875C381.822 247.582 381.206 249.429 381.587 251.156C381.905 252.615 382.92 253.872 383.123 255.357C383.415 257.439 382.07 259.603 382.755 261.589C383.098 262.58 383.91 263.373 384.139 264.388C384.323 265.182 384.139 266.013 384.285 266.806C384.545 268.076 386.988 269.079 388.289 269.002" fill="#2B5AAC"/>
<path d="M379.22 226.981C379.22 226.981 379.22 227.019 379.22 227.089L379.264 227.413C379.302 227.698 379.353 228.117 379.448 228.682C379.543 229.247 379.829 229.837 380.083 230.586C380.337 231.335 380.553 232.173 380.762 233.125C380.971 234.077 381.149 235.124 381.333 236.254C381.481 237.473 381.801 238.666 382.285 239.795C382.539 240.392 382.831 240.982 383.053 241.61C383.265 242.26 383.395 242.934 383.44 243.616C383.545 245.061 383.727 246.5 383.986 247.925C384.551 250.845 385.09 253.637 385.585 256.176C386.08 258.715 386.569 260.968 386.963 262.884C387.356 264.801 387.68 266.324 387.908 267.403C388.016 267.924 388.105 268.336 388.169 268.628L388.245 268.945L388.276 269.053C388.279 269.017 388.279 268.981 388.276 268.945L388.219 268.622C388.162 268.33 388.086 267.911 387.991 267.384C387.775 266.305 387.47 264.763 387.102 262.859C386.734 260.955 386.233 258.613 385.731 256.074C385.23 253.536 384.71 250.762 384.145 247.824C383.889 246.402 383.707 244.968 383.599 243.527C383.55 242.832 383.416 242.146 383.199 241.483C382.971 240.849 382.679 240.246 382.418 239.662C381.939 238.544 381.617 237.365 381.46 236.159C381.27 235.029 381.086 233.975 380.864 233.023C380.672 232.166 380.436 231.319 380.159 230.485C379.924 229.748 379.632 229.139 379.524 228.581C379.416 228.022 379.359 227.622 379.302 227.343C379.302 227.21 379.258 227.108 379.245 227.026C379.238 227.01 379.229 226.996 379.22 226.981Z" fill="#263238"/>
<path d="M334.208 185.328H52.373V213.495H334.208V185.328Z" fill="#2B5AAC"/>
<g opacity="0.4">
<path d="M334.208 185.328H52.373V213.495H334.208V185.328Z" fill="black"/>
</g>
<path d="M273.148 217.049H189.956V243.134H273.148V217.049Z" fill="#455A64"/>
<path d="M131.821 205.25V239.732H160.229L171.615 223.231H379.029V205.25H131.821Z" fill="#263238"/>
<path d="M130.049 96.0628C130.018 95.5084 129.771 94.9883 129.36 94.6144C128.949 94.2406 128.408 94.0428 127.854 94.0636C116.626 94.5269 63.3272 96.9704 52.3666 102.238C43.9763 106.275 34.7864 121.341 28.3064 131.49C23.6607 138.763 13.3982 154.909 11.3228 163.166C9.56482 170.147 8.50493 184.668 8.62551 191.872L11.5577 229.99H59.8619L64.6981 217.398C66.2414 213.387 68.9639 209.938 72.5068 207.505C76.0496 205.073 80.2465 203.771 84.544 203.772H132.544V140.515L130.049 96.0628Z" fill="#2B5AAC"/>
<path d="M46.6419 106.458C39.9906 112.805 33.3139 123.594 28.3064 131.49C24.0034 138.223 14.8896 152.561 11.9131 161.205C11.8559 161.363 11.8115 161.516 11.7607 161.674C13.2332 161.268 15.4989 160.437 16.2034 159.04C17.2633 156.927 18.6215 149.685 35.4147 122.35C40.5174 114.017 45.4931 109.143 46.6419 106.458Z" fill="#455A64"/>
<path d="M105.235 103.634C92.8839 104.339 66.1075 106.173 57.5522 109.08C46.4075 112.888 33.8983 142.393 33.308 143.688L24.8797 165.267C24.8324 165.408 24.8194 165.558 24.8416 165.705C24.8638 165.852 24.9206 165.992 25.0073 166.113C25.0941 166.233 25.2083 166.332 25.3406 166.4C25.4729 166.468 25.6194 166.504 25.7682 166.504H47.5562C48.3814 166.504 49.2001 166.358 49.9743 166.073L107.278 144.71C108.543 144.238 109.634 143.39 110.404 142.281C111.175 141.171 111.587 139.853 111.588 138.503V109.645C111.588 108.826 111.421 108.016 111.098 107.264C110.774 106.512 110.3 105.833 109.706 105.271C109.111 104.708 108.408 104.273 107.639 103.991C106.87 103.71 106.052 103.589 105.235 103.634Z" fill="#263238"/>
<path d="M27.3105 164.384C27.3105 164.384 35.3835 146.277 38.0998 140.343C42.1998 131.382 51.7768 113.053 58.2441 111.079C64.1909 109.296 81.2887 107.125 105.355 105.748H105.584C106.617 105.751 107.607 106.164 108.338 106.895C109.068 107.627 109.479 108.617 109.481 109.651V139.163C109.478 139.89 109.255 140.6 108.84 141.197C108.425 141.794 107.838 142.251 107.158 142.508L64.8192 147.731C63.122 147.94 61.4908 148.517 60.0386 149.42C58.5865 150.323 57.3483 151.531 56.4099 152.96L49.0732 164.15C48.6425 164.309 48.1869 164.391 47.7277 164.391L27.3105 164.384Z" fill="#455A64"/>
<path d="M63.2829 148.054L48.8887 164.086L56.8537 110.857L58.8466 110.171L54.9243 149.603C54.9058 149.801 54.9385 150 55.0192 150.182C55.0998 150.364 55.2258 150.522 55.3851 150.641C55.5443 150.76 55.7315 150.836 55.9286 150.863C56.1257 150.889 56.3263 150.864 56.511 150.79L63.2829 148.054Z" fill="#263238"/>
<path d="M7.68072 195.572C7.62995 194.88 7.86477 194.303 8.22018 194.303L15.9377 193.592C16.5724 193.528 17.1626 194.728 17.2388 196.13L17.5878 202.052C17.6449 203.004 17.3593 203.81 16.9532 203.88L9.08333 205.238C8.72791 205.301 8.3852 204.775 8.33442 204.076L7.68072 195.572Z" fill="#EBEBEB"/>
<path d="M63.2831 223.237H7.67383V245.533H63.2831V223.237Z" fill="#263238"/>
<path d="M100.404 268.82C117.196 268.175 130.285 254.04 129.64 237.248C128.995 220.457 114.86 207.368 98.0684 208.013C81.2771 208.658 68.188 222.793 68.833 239.584C69.4781 256.376 83.6131 269.465 100.404 268.82Z" fill="#263238"/>
<path d="M68.8366 237.891C68.84 237.919 68.84 237.946 68.8366 237.974C68.7302 246.036 71.8284 253.811 77.4507 259.591C83.073 265.37 90.7596 268.682 98.8219 268.798C106.884 268.914 114.663 265.825 120.449 260.21C126.235 254.594 129.556 246.912 129.682 238.85C129.682 238.85 129.682 238.799 129.682 238.773L68.8366 237.891Z" fill="#263238"/>
<path d="M77.893 238.101C77.8306 242.326 79.0227 246.474 81.3183 250.022C83.614 253.569 86.9101 256.356 90.7899 258.031C94.6696 259.705 98.9587 260.19 103.115 259.427C107.271 258.663 111.107 256.684 114.138 253.74C117.169 250.796 119.259 247.019 120.143 242.887C121.027 238.755 120.667 234.454 119.106 230.527C117.546 226.6 114.856 223.224 111.377 220.826C107.898 218.428 103.785 217.116 99.5604 217.055C93.8966 216.974 88.4324 219.145 84.3692 223.092C80.306 227.038 77.9765 232.437 77.893 238.101Z" fill="#FAFAFA"/>
<path d="M99.56 217.055C93.8962 216.974 88.432 219.145 84.3688 223.092C80.3056 227.038 77.9761 232.437 77.8926 238.101L120.612 238.735C120.695 233.069 118.524 227.601 114.576 223.536C110.628 219.47 105.227 217.139 99.56 217.055Z" fill="#E0E0E0"/>
<path d="M86.2455 238.221C86.2081 240.794 86.9346 243.321 88.3332 245.481C89.7317 247.641 91.7395 249.338 94.1025 250.357C96.4655 251.376 99.0777 251.672 101.609 251.206C104.14 250.741 106.476 249.535 108.321 247.742C110.167 245.948 111.439 243.648 111.978 241.131C112.516 238.615 112.296 235.995 111.345 233.604C110.394 231.213 108.756 229.157 106.637 227.697C104.518 226.237 102.013 225.438 99.4402 225.401C95.9905 225.352 92.6626 226.675 90.1882 229.079C87.7139 231.483 86.2957 234.772 86.2455 238.221Z" fill="#263238"/>
<path d="M40.2385 122.96H37.757C34.9599 122.96 32.6924 125.227 32.6924 128.024V148.162C32.6924 150.959 34.9599 153.227 37.757 153.227H40.2385C43.0357 153.227 45.3032 150.959 45.3032 148.162V128.024C45.3032 125.227 43.0357 122.96 40.2385 122.96Z" fill="#263238"/>
<path d="M27.4755 171.937H26.8408V139.931C26.8425 138.405 27.4495 136.941 28.5287 135.862C29.6079 134.783 31.071 134.176 32.5972 134.174H34.1204V134.809H32.5972C31.2394 134.811 29.9376 135.351 28.9775 136.311C28.0173 137.271 27.4772 138.573 27.4755 139.931V171.937Z" fill="#263238"/>
<path d="M31.7971 171.975L30.0328 142.051C30.008 141.539 30.0867 141.028 30.2641 140.547C30.4416 140.067 30.7142 139.627 31.0655 139.254C31.4169 138.881 31.8399 138.583 32.3091 138.378C32.7783 138.173 33.2841 138.064 33.7963 138.058V138.693C33.3692 138.693 32.9466 138.781 32.5544 138.95C32.1623 139.119 31.8089 139.367 31.5159 139.678C31.2229 139.989 30.9965 140.356 30.8506 140.758C30.7047 141.159 30.6424 141.586 30.6674 142.012L32.4318 171.943L31.7971 171.975Z" fill="#263238"/>
<path d="M33.7965 169.056H25.2412V178.963H33.7965V169.056Z" fill="#263238"/>
<path d="M30.6362 150.25H27.1582V150.885H30.6362V150.25Z" fill="#263238"/>
<path d="M59.6785 104.491L60.4337 104.39L62.6614 104.129L71.2928 103.133L103.47 99.4709C105.184 99.2868 106.929 99.0584 108.738 98.8997C109.662 98.8293 110.591 98.8891 111.499 99.0774C112.421 99.2931 113.311 99.6303 114.145 100.08C115.866 101.037 117.26 102.487 118.15 104.244C118.61 105.141 118.921 106.108 119.07 107.106C119.15 107.61 119.195 108.119 119.204 108.629V110.159C119.204 118.352 119.204 127.149 119.204 136.472C119.204 155.118 119.204 175.859 119.204 198.034V198.199H85.7759C83.8676 198.136 81.9574 198.228 80.0639 198.472C76.1578 199.034 72.4726 200.629 69.3888 203.091C66.305 205.554 63.9344 208.794 62.5218 212.479C62.2476 213.156 62.0165 213.849 61.83 214.555C61.6237 215.253 61.4605 215.963 61.3413 216.681L61.1763 217.76L61.1001 218.299L61.0684 218.839L61.0176 219.924V220.47V220.533C61.1572 220.393 60.8209 220.749 60.8462 220.711H18.457V220.533C18.457 210.969 18.457 201.747 18.457 192.938C18.457 188.533 18.457 184.232 18.457 180.035V173.828C18.457 172.806 18.457 171.797 18.457 170.788C18.4777 169.784 18.5497 168.782 18.6728 167.786C19.1568 163.946 20.3765 160.236 22.265 156.857C24.0125 153.57 25.7049 150.396 27.3423 147.337L36.3419 130.474L43.6469 116.785C44.18 115.79 44.6919 114.828 45.1827 113.897C45.4366 113.44 45.6587 112.977 45.9253 112.545C46.1881 112.123 46.4741 111.716 46.7821 111.326C47.8827 109.954 49.1785 108.75 50.6282 107.753C52.6247 106.398 54.8568 105.427 57.2096 104.891C58.0174 104.697 58.8383 104.564 59.6658 104.491L59.0311 104.586C58.6186 104.65 58.0093 104.758 57.2096 104.942C54.8707 105.495 52.6543 106.476 50.6726 107.836C49.2352 108.834 47.9521 110.038 46.8646 111.409C46.5573 111.792 46.2754 112.195 46.0205 112.615C45.7603 113.034 45.5382 113.503 45.2843 113.967L43.7547 116.861L36.5132 130.563C33.7969 135.678 30.8013 141.321 27.5645 147.439L22.4872 156.959C20.6161 160.312 19.4113 163.995 18.9394 167.805C18.8184 168.793 18.7485 169.787 18.7299 170.782C18.7299 171.778 18.7299 172.8 18.7299 173.815V180.022C18.7299 184.215 18.7299 188.516 18.7299 192.925C18.7299 201.734 18.7299 210.956 18.7299 220.52L18.5713 220.368H60.7955C60.8399 220.336 60.4908 220.673 60.6368 220.52V220.451V219.905L60.6939 218.8V218.255L60.7764 217.709L60.9415 216.611C61.062 215.882 61.2274 215.161 61.4365 214.453C61.6263 213.736 61.8616 213.033 62.141 212.346C63.5761 208.607 65.9824 205.319 69.1116 202.82C72.2408 200.321 75.9799 198.702 79.9433 198.129C81.8371 197.888 83.7471 197.797 85.6553 197.857H118.931L118.766 198.015C118.766 175.865 118.766 155.125 118.766 136.453C118.766 127.13 118.766 118.333 118.766 110.14C118.807 109.133 118.765 108.125 118.639 107.125C118.494 106.15 118.192 105.204 117.744 104.326C116.882 102.609 115.522 101.193 113.841 100.264C113.031 99.8206 112.164 99.4897 111.264 99.2805C110.378 99.0935 109.47 99.0315 108.567 99.0964C106.771 99.2488 105.013 99.4772 103.305 99.6613L71.1342 103.222L62.4964 104.167L60.2687 104.402L59.6785 104.491Z" fill="#263238"/>
<path d="M109.075 174.634C109.075 174.634 109.252 174.634 109.57 174.558C110.036 174.475 110.481 174.298 110.877 174.038C111.502 173.628 111.969 173.02 112.204 172.311C112.347 171.869 112.405 171.404 112.375 170.94C112.361 170.426 112.229 169.922 111.988 169.468C111.712 168.948 111.301 168.512 110.799 168.205C110.296 167.898 109.721 167.731 109.132 167.723H104.943H95.3469C94.548 167.724 93.7773 168.019 93.1816 168.551C92.5859 169.084 92.2068 169.817 92.1165 170.61C92.0168 171.364 92.1567 172.13 92.5163 172.8C92.873 173.434 93.4316 173.93 94.103 174.209C94.7668 174.44 95.4721 174.526 96.172 174.463H98.2029H101.852L107.139 174.514H108.58C108.746 174.51 108.911 174.523 109.075 174.552C108.91 174.572 108.745 174.582 108.58 174.583H107.139L101.852 174.634H98.2029H96.172C95.8166 174.634 95.4739 174.634 95.0994 174.634C94.7186 174.606 94.3442 174.52 93.9888 174.38C93.2547 174.076 92.6428 173.535 92.2498 172.844C91.8557 172.117 91.7002 171.285 91.8055 170.464C91.9036 169.593 92.3187 168.788 92.9717 168.203C93.6247 167.618 94.4701 167.293 95.3469 167.291H104.943H109.132C110.047 167.309 110.92 167.683 111.564 168.334C112.209 168.984 112.575 169.86 112.584 170.775C112.605 171.26 112.534 171.745 112.375 172.203C112.114 172.94 111.61 173.567 110.947 173.981C110.533 174.238 110.067 174.401 109.582 174.457C109.421 174.536 109.251 174.596 109.075 174.634Z" fill="#263238"/>
<path d="M107.913 166.663C106.104 166.822 104.288 166.875 102.474 166.821C100.657 166.875 98.8388 166.822 97.0283 166.663C98.8386 166.499 100.657 166.444 102.474 166.498C104.288 166.444 106.105 166.5 107.913 166.663Z" fill="white"/>
<path d="M65.8156 245.717L60.7383 245.348C62.0647 227.165 64.0068 216.287 66.6787 212.092C71.8068 204.032 76.9032 202.572 82.5453 201.614C87.8004 200.719 93.0998 200.928 98.2279 201.138L99.4972 201.189C110.083 201.601 132.259 201.233 132.5 201.233L132.582 206.31C132.36 206.31 110.045 206.685 99.3195 206.266L98.0502 206.215C93.1823 206.025 88.1558 205.815 83.4212 206.628C78.3756 207.484 75.0182 208.468 70.9691 214.827C69.7442 216.725 67.4467 223.319 65.8156 245.717Z" fill="#263238"/>
<path d="M385.248 38.5875H135.203V205.073H385.248V38.5875Z" fill="#2B5AAC"/>
<path d="M382.253 201.779C382.253 200.706 382.202 139.645 382.12 42.351L382.253 42.478L137.907 42.5161L138.072 42.351C138.072 99.0202 138.072 152.96 138.072 201.779L137.92 201.626L382.266 201.779L137.92 201.931H137.742V201.779C137.742 152.96 137.742 99.0202 137.742 42.351V42.1924H137.926L382.272 42.2241H382.405V42.3574C382.304 139.645 382.253 200.712 382.253 201.779Z" fill="#263238"/>
<g opacity="0.5">
<path d="M170.655 127.898L173.016 175.516L358.459 136.942L355.178 87.3044L170.655 127.898Z" fill="black"/>
</g>
<path d="M325.425 83.8391L362.851 75.0744L361.372 71.0887L325.425 83.8391Z" fill="#FAFAFA"/>
<path d="M157.842 111.847L183.863 105.754L182.835 102.987L157.842 111.847Z" fill="#FAFAFA"/>
<path d="M246.93 174.545L284.356 165.774L282.883 161.795L246.93 174.545Z" fill="#FAFAFA"/>
<path d="M296.542 63.9043C296.542 63.9932 276.563 68.7722 251.881 74.573C227.198 80.3739 207.162 85.0133 207.137 84.9244C207.111 84.8356 227.11 80.0565 251.804 74.2557C276.499 68.4549 296.523 63.8155 296.542 63.9043Z" fill="#FAFAFA"/>
<path d="M207.345 121.253C207.345 121.341 198.777 123.157 188.166 125.289C177.554 127.421 168.942 129.097 168.923 129.008C168.904 128.919 177.491 127.104 188.102 124.965C198.714 122.827 207.326 121.164 207.345 121.253Z" fill="#FAFAFA"/>
<path d="M207.682 117.489C207.653 117.379 207.64 117.266 207.644 117.153C207.644 116.892 207.644 116.575 207.612 116.194C207.612 115.312 207.612 114.119 207.562 112.666C207.562 109.638 207.511 105.545 207.485 101.019C207.46 96.4943 207.397 92.3944 207.365 89.3734C207.365 87.92 207.327 86.7268 207.314 85.8446V84.8799C207.298 84.7705 207.298 84.6593 207.314 84.5499C207.343 84.6575 207.358 84.7685 207.358 84.8799C207.358 85.1402 207.397 85.4511 207.422 85.8383C207.473 86.6697 207.523 87.8756 207.574 89.367C207.682 92.3436 207.765 96.4626 207.796 101.013C207.828 105.564 207.796 109.683 207.796 112.659C207.796 114.119 207.758 115.312 207.746 116.194C207.746 116.575 207.746 116.892 207.714 117.153C207.713 117.265 207.702 117.378 207.682 117.489Z" fill="#FAFAFA"/>
<path d="M99.6615 117.426C99.6615 117.426 99.5854 117.502 99.4267 117.622L98.7286 118.124C98.0939 118.562 97.2244 119.171 96.1201 119.926C93.9051 121.424 90.8207 123.468 87.3808 125.67C83.9409 127.872 80.7993 129.821 78.4955 131.21C77.3531 131.902 76.4201 132.48 75.7728 132.835L75.0239 133.254C74.9386 133.309 74.847 133.354 74.751 133.387C74.751 133.387 74.8271 133.311 74.9858 133.203L75.703 132.721L78.3749 131.014L87.1904 125.391L95.9741 119.729L98.6461 118.022L99.3823 117.565C99.4701 117.509 99.5637 117.462 99.6615 117.426Z" fill="#FAFAFA"/>
<path d="M88.8158 120.294C88.8158 120.294 88.7397 120.37 88.581 120.491L87.8829 120.992C87.2482 121.424 86.3787 122.04 85.2681 122.788C83.0531 124.293 79.9686 126.33 76.5351 128.5C73.1016 130.671 69.9536 132.657 67.6498 134.047C66.5074 134.739 65.5744 135.317 64.9271 135.666L64.1782 136.091C64.0943 136.147 64.0023 136.19 63.9053 136.218C63.9764 136.148 64.0552 136.086 64.1401 136.034L64.8573 135.558L67.5229 133.844L76.3447 128.227L85.1284 122.566L87.8004 120.853L88.5302 120.402C88.6203 120.354 88.7163 120.317 88.8158 120.294Z" fill="#FAFAFA"/>
<path d="M35.3837 138.769C35.2865 138.596 35.2199 138.407 35.187 138.211C35.0854 137.849 34.9458 137.316 34.7872 136.656C34.3699 134.931 34.1569 133.163 34.1525 131.388C34.1435 129.595 34.5566 127.826 35.3584 126.222C35.6092 125.742 35.9113 125.291 36.2596 124.877C36.377 124.718 36.5183 124.579 36.6785 124.464C36.2733 125.066 35.9005 125.689 35.5614 126.33C34.8382 127.924 34.468 129.656 34.4762 131.407C34.4954 133.16 34.6846 134.908 35.041 136.624C35.1997 137.331 35.3142 138.048 35.3837 138.769Z" fill="#FAFAFA"/>
<path d="M9.53967 183.767C9.51672 183.541 9.51672 183.314 9.53967 183.088C9.53967 182.631 9.53968 181.971 9.57776 181.184C9.62853 179.553 9.74911 177.3 9.94586 174.837C10.1426 172.375 10.3774 170.115 10.5805 168.491C10.6821 167.678 10.7709 167.025 10.8407 166.587C10.8646 166.352 10.9136 166.12 10.9867 165.895C11.0186 166.131 11.0186 166.37 10.9867 166.606L10.8217 168.51C10.6821 170.211 10.4917 172.413 10.2822 174.856C10.0728 177.3 9.94586 179.496 9.82527 181.203C9.76815 181.965 9.71738 182.606 9.6793 183.107C9.65998 183.332 9.61309 183.554 9.53967 183.767Z" fill="#FAFAFA"/>
<path d="M79.0925 196.086C79.0925 196.156 77.8676 196.327 75.9699 196.943C74.8592 197.303 73.7754 197.742 72.7268 198.256C70.1574 199.532 67.8328 201.251 65.8597 203.334C65.054 204.179 64.3095 205.08 63.632 206.031C62.4833 207.662 61.9438 208.785 61.8867 208.754C61.9811 208.477 62.1 208.209 62.2421 207.954C62.3841 207.644 62.5452 207.343 62.7245 207.053C62.9276 206.71 63.1497 206.31 63.4416 205.898C64.0987 204.916 64.833 203.989 65.6376 203.124C66.6348 202.068 67.7197 201.097 68.8807 200.224C70.0525 199.373 71.297 198.628 72.5999 197.996C73.6641 197.485 74.7677 197.061 75.9001 196.727C76.3761 196.568 76.8267 196.479 77.2139 196.384C77.5467 196.303 77.8836 196.24 78.223 196.194C78.5087 196.13 78.7999 196.094 79.0925 196.086Z" fill="#FAFAFA"/>
<path d="M141.595 157.771C141.586 157.68 141.586 157.589 141.595 157.498C141.595 157.304 141.595 157.037 141.595 156.699C141.595 155.975 141.595 154.941 141.55 153.621C141.512 150.93 141.461 147.064 141.391 142.298C141.22 132.721 140.985 119.526 140.725 104.948C140.465 90.3699 140.243 77.1498 140.154 67.5918C140.109 62.8127 140.097 58.9413 140.103 56.2694C140.103 54.9429 140.103 53.9084 140.103 53.1912V52.3916C140.103 52.2075 140.103 52.1187 140.103 52.1187C140.112 52.2094 140.112 52.3008 140.103 52.3916C140.103 52.582 140.103 52.8485 140.103 53.1912C140.103 53.9084 140.103 54.9429 140.148 56.2694C140.186 58.9603 140.236 62.8191 140.306 67.5854C140.478 77.1625 140.712 90.3572 140.973 104.942C141.233 119.526 141.461 132.734 141.544 142.292C141.588 147.077 141.607 150.942 141.601 153.614C141.601 154.941 141.601 155.975 141.601 156.699C141.601 157.035 141.601 157.302 141.601 157.498C141.604 157.589 141.602 157.68 141.595 157.771Z" fill="#FAFAFA"/>
<path d="M325.222 268.784C342.012 268.113 355.079 253.957 354.407 237.167C353.736 220.377 339.58 207.31 322.79 207.981C306 208.653 292.933 222.808 293.604 239.599C294.276 256.389 308.431 269.456 325.222 268.784Z" fill="#263238"/>
<path d="M293.572 237.891C293.572 237.891 293.572 237.948 293.572 237.974C293.455 246.041 296.549 253.825 302.172 259.612C307.794 265.399 315.485 268.715 323.553 268.831C331.621 268.947 339.404 265.854 345.191 260.231C350.978 254.608 354.294 246.917 354.41 238.85V238.773L293.572 237.891Z" fill="#263238"/>
<path d="M302.627 238.101C302.566 242.324 303.759 246.47 306.054 250.016C308.35 253.561 311.645 256.347 315.523 258.02C319.402 259.692 323.689 260.177 327.843 259.414C331.997 258.65 335.831 256.672 338.861 253.729C341.891 250.786 343.98 247.011 344.865 242.881C345.749 238.751 345.389 234.451 343.83 230.526C342.27 226.6 339.582 223.225 336.105 220.828C332.628 218.43 328.518 217.117 324.295 217.055C318.631 216.974 313.167 219.145 309.103 223.092C305.04 227.038 302.711 232.437 302.627 238.101Z" fill="#FAFAFA"/>
<path d="M324.295 217.055C321.491 217.014 318.705 217.526 316.099 218.561C313.492 219.597 311.114 221.135 309.102 223.09C307.09 225.044 305.483 227.376 304.372 229.951C303.261 232.527 302.668 235.296 302.628 238.101L345.341 238.735C345.384 235.93 344.873 233.143 343.838 230.535C342.804 227.926 341.265 225.547 339.311 223.534C337.356 221.521 335.024 219.912 332.448 218.8C329.871 217.689 327.101 217.096 324.295 217.055Z" fill="#E0E0E0"/>
<path d="M311.005 238.221C310.968 240.794 311.694 243.321 313.093 245.481C314.491 247.641 316.499 249.338 318.862 250.357C321.225 251.376 323.837 251.672 326.368 251.206C328.899 250.741 331.235 249.535 333.081 247.742C334.927 245.948 336.199 243.648 336.737 241.131C337.276 238.615 337.055 235.995 336.105 233.604C335.154 231.213 333.516 229.157 331.397 227.697C329.278 226.237 326.773 225.438 324.2 225.401C320.75 225.352 317.422 226.675 314.948 229.079C312.474 231.483 311.055 234.772 311.005 238.221Z" fill="#263238"/>
<path d="M283.994 246.745C283.994 246.745 279.361 203.588 324.079 203.588C365.332 203.588 364.419 240.703 364.025 246.446H357.558C357.558 246.446 360.852 209.864 324.079 209.864C287.307 209.864 290.506 247.189 290.506 247.189C290.506 247.189 287.789 247.056 283.994 246.745Z" fill="#455A64"/>
<path d="M307.946 208.056C307.836 208.112 307.719 208.155 307.597 208.183C307.363 208.265 307.013 208.348 306.582 208.5C305.341 208.895 304.126 209.367 302.945 209.915C299.036 211.708 295.572 214.346 292.805 217.638C290.037 220.931 288.034 224.796 286.939 228.955C286.604 230.207 286.347 231.479 286.171 232.763C286.101 233.22 286.076 233.575 286.038 233.817C286.027 233.941 286.006 234.064 285.974 234.185C285.959 234.063 285.959 233.939 285.974 233.817C285.974 233.569 285.974 233.182 286.05 232.75C286.176 231.445 286.401 230.151 286.723 228.879C287.764 224.656 289.759 220.728 292.556 217.397C295.353 214.067 298.877 211.422 302.856 209.668C304.053 209.133 305.288 208.688 306.55 208.335C306.994 208.208 307.35 208.138 307.585 208.081C307.704 208.059 307.825 208.051 307.946 208.056Z" fill="#FAFAFA"/>
<path d="M417.787 251.974L423.194 260.111L425.625 267.778C425.665 267.909 425.733 268.031 425.822 268.135C425.912 268.24 426.022 268.324 426.146 268.384C426.27 268.444 426.405 268.477 426.543 268.482C426.68 268.487 426.817 268.463 426.945 268.412C427.1 268.36 427.239 268.27 427.35 268.15C427.461 268.031 427.54 267.885 427.58 267.727C428.075 265.721 429.858 258.334 429.433 257.756C429.008 257.179 424.292 248.801 424.292 248.801L417.787 251.974Z" fill="#455A64"/>
<g opacity="0.6">
<path d="M426.945 268.406L429.052 257.198L429.275 257.547C429.467 257.848 429.546 258.208 429.497 258.562C429.363 259.508 428.932 262.116 427.593 267.701C427.554 267.863 427.476 268.012 427.365 268.135C427.254 268.258 427.114 268.351 426.958 268.406H426.945Z" fill="white"/>
</g>
<g opacity="0.6">
<path d="M425.67 255.605C425.622 255.744 425.623 255.895 425.674 256.033C425.725 256.17 425.822 256.286 425.949 256.36C426.086 256.42 426.24 256.425 426.381 256.374C426.521 256.323 426.637 256.221 426.704 256.087C426.762 255.94 426.763 255.776 426.707 255.628C426.651 255.48 426.541 255.359 426.4 255.288C426.251 255.239 426.088 255.251 425.948 255.321C425.808 255.391 425.701 255.514 425.651 255.662" fill="white"/>
</g>
<path d="M426.546 263.608C426.185 263.472 425.801 263.409 425.416 263.424C425.037 263.495 424.675 263.637 424.35 263.843C424.35 263.843 424.394 263.697 424.572 263.544C424.809 263.355 425.095 263.238 425.397 263.208C425.698 263.173 426.003 263.228 426.273 263.367C426.476 263.475 426.565 263.589 426.546 263.608Z" fill="#263238"/>
<path d="M426.66 265.087C426.338 265.099 426.018 265.135 425.701 265.195C425.402 265.308 425.111 265.444 424.832 265.601C424.781 265.569 425.067 265.144 425.644 264.966C425.811 264.903 425.99 264.881 426.167 264.902C426.344 264.923 426.513 264.986 426.66 265.087Z" fill="#263238"/>
<path d="M426.749 261.494C426.25 261.479 425.752 261.503 425.257 261.564C424.777 261.689 424.308 261.853 423.854 262.053C424.21 261.663 424.695 261.415 425.219 261.355C425.73 261.222 426.271 261.271 426.749 261.494Z" fill="#263238"/>
<path d="M425.308 258.886C425.308 258.949 424.737 259.045 424.134 259.4C423.531 259.755 423.144 260.193 423.093 260.155C423.285 259.744 423.615 259.411 424.026 259.216C424.4 258.956 424.855 258.839 425.308 258.886Z" fill="#263238"/>
<path d="M423.778 256.455C423.334 256.566 422.907 256.736 422.509 256.963C422.162 257.243 421.852 257.568 421.589 257.928C421.589 257.928 421.589 257.763 421.709 257.528C421.875 257.231 422.108 256.977 422.389 256.785C422.67 256.594 422.991 256.47 423.328 256.424C423.62 256.398 423.778 256.43 423.778 256.455Z" fill="#263238"/>
<path d="M422.261 256.493C422.175 256.405 422.106 256.302 422.058 256.189C421.901 255.885 421.808 255.552 421.785 255.211C421.747 254.965 421.79 254.714 421.906 254.494C421.952 254.425 422.018 254.371 422.095 254.341C422.172 254.31 422.257 254.304 422.337 254.323C422.491 254.373 422.622 254.477 422.706 254.615C422.863 254.904 422.914 255.24 422.85 255.563C422.786 255.886 422.612 256.177 422.357 256.385C422.1 256.585 421.79 256.705 421.466 256.728C421.142 256.752 420.818 256.679 420.535 256.519C420.464 256.48 420.402 256.425 420.355 256.359C420.308 256.294 420.276 256.218 420.262 256.138C420.253 256.055 420.271 255.971 420.313 255.899C420.355 255.827 420.42 255.77 420.497 255.738C420.728 255.653 420.978 255.632 421.22 255.675C421.558 255.712 421.887 255.809 422.192 255.96C422.305 256.008 422.408 256.077 422.496 256.163C422.091 255.992 421.664 255.879 421.227 255.827C421.013 255.798 420.795 255.822 420.592 255.897C420.549 255.913 420.513 255.943 420.489 255.982C420.465 256.021 420.454 256.067 420.459 256.113C420.474 256.164 420.499 256.212 420.532 256.253C420.566 256.295 420.608 256.329 420.656 256.354C420.904 256.485 421.185 256.542 421.465 256.518C421.745 256.494 422.013 256.391 422.236 256.22C422.445 256.039 422.589 255.795 422.646 255.525C422.703 255.254 422.671 254.973 422.553 254.723C422.499 254.623 422.412 254.547 422.306 254.507C422.261 254.495 422.214 254.497 422.171 254.513C422.128 254.529 422.091 254.558 422.065 254.596C421.957 254.789 421.917 255.012 421.95 255.23C421.985 255.665 422.09 256.092 422.261 256.493Z" fill="#263238"/>
<path d="M412.646 256.627L412.011 264.795C412.011 264.795 420.116 267.568 420.148 269.091L404.281 269.053L404.726 256.29L412.646 256.627Z" fill="#455A64"/>
<g opacity="0.6">
<path d="M407.143 263.913C406.988 263.95 406.853 264.045 406.765 264.178C406.677 264.311 406.642 264.472 406.667 264.63C406.704 264.785 406.797 264.92 406.929 265.009C407.06 265.099 407.221 265.135 407.378 265.112C407.542 265.069 407.684 264.966 407.776 264.824C407.869 264.683 407.905 264.511 407.879 264.344C407.83 264.183 407.718 264.049 407.569 263.971C407.421 263.892 407.247 263.876 407.086 263.925" fill="white"/>
</g>
<g opacity="0.6">
<path d="M404.301 269.053L404.345 267.784L419.685 268.355C419.846 268.441 419.984 268.565 420.086 268.717C420.188 268.869 420.251 269.043 420.269 269.225L404.301 269.053Z" fill="white"/>
</g>
<path d="M412.284 264.725C412.284 264.801 411.891 264.82 411.497 265.055C411.104 265.29 410.863 265.607 410.825 265.575C410.787 265.544 410.888 265.093 411.364 264.82C411.84 264.547 412.303 264.655 412.284 264.725Z" fill="#263238"/>
<path d="M413.922 265.48C413.922 265.556 413.599 265.67 413.319 265.988C413.04 266.305 412.958 266.622 412.875 266.622C412.793 266.622 412.767 266.178 413.123 265.791C413.478 265.404 413.922 265.404 413.922 265.48Z" fill="#263238"/>
<path d="M414.791 267.498C414.722 267.498 414.626 267.118 414.842 266.699C415.058 266.28 415.426 266.128 415.477 266.197C415.528 266.267 415.274 266.483 415.102 266.832C414.931 267.181 414.868 267.498 414.791 267.498Z" fill="#263238"/>
<path d="M412.221 262.846C412.183 262.916 411.834 262.796 411.396 262.808C410.958 262.821 410.609 262.942 410.571 262.878C410.533 262.815 410.87 262.542 411.39 262.535C411.91 262.529 412.259 262.789 412.221 262.846Z" fill="#263238"/>
<g opacity="0.3">
<path d="M412.519 258.245L412.411 259.698L404.611 259.318L404.656 258.004L412.519 258.245Z" fill="black"/>
</g>
<path d="M412.317 261.196C412.054 261.258 411.78 261.247 411.523 261.164C411.238 261.099 410.961 261.001 410.698 260.872C410.544 260.798 410.395 260.711 410.254 260.612C410.165 260.56 410.086 260.494 410.019 260.415C409.974 260.356 409.95 260.284 409.95 260.209C409.95 260.135 409.974 260.062 410.019 260.003C410.061 259.951 410.114 259.909 410.175 259.88C410.235 259.851 410.301 259.837 410.368 259.838C410.467 259.843 410.565 259.86 410.66 259.889C410.828 259.938 410.992 260.002 411.149 260.079C411.413 260.212 411.655 260.386 411.866 260.593C412.221 260.949 412.336 261.228 412.304 261.228C412.272 261.228 412.101 261.006 411.739 260.707C411.524 260.538 411.29 260.395 411.041 260.282C410.897 260.214 410.746 260.161 410.59 260.124C410.425 260.073 410.286 260.066 410.235 260.124C410.184 260.181 410.235 260.162 410.235 260.212C410.281 260.27 410.337 260.32 410.4 260.358C410.533 260.451 410.67 260.535 410.813 260.612C411.054 260.745 411.307 260.855 411.568 260.942C411.823 261.01 412.073 261.095 412.317 261.196Z" fill="#263238"/>
<path d="M412.209 261.304C412.068 261.072 412.006 260.8 412.031 260.53C412.031 260.059 412.155 259.597 412.393 259.191C412.437 259.084 412.51 258.992 412.602 258.924C412.695 258.856 412.805 258.814 412.919 258.803C412.989 258.81 413.056 258.835 413.113 258.877C413.17 258.918 413.215 258.974 413.243 259.038C413.276 259.135 413.3 259.235 413.313 259.337C413.34 259.576 413.319 259.818 413.251 260.049C413.184 260.28 413.071 260.495 412.919 260.682C412.589 261.076 412.285 261.158 412.285 261.133C412.285 261.107 412.539 260.955 412.792 260.568C412.935 260.344 413.03 260.094 413.072 259.832C413.094 259.678 413.094 259.522 413.072 259.368C413.072 259.197 413.002 259.064 412.932 259.076C412.862 259.089 412.716 259.191 412.646 259.324C412.562 259.459 412.49 259.601 412.431 259.749C412.332 260.001 412.27 260.266 412.247 260.536C412.183 260.999 412.253 261.291 412.209 261.304Z" fill="#263238"/>
<path d="M418.447 189.435C418.447 189.435 421.36 195.407 422.122 199.665C422.338 200.871 413.783 262.091 413.783 262.091L403.666 261.71L408.407 204.743L406.719 193.319L418.447 189.435Z" fill="#263238"/>
<path d="M393.872 193.135C393.802 197.27 394.014 201.405 394.507 205.511C395.256 211.515 396.97 218.35 397.528 222.171C398.759 230.624 401.184 232.224 401.184 232.224L420.592 257.058L428.208 250.21L411.072 222.837C411.072 222.837 406.515 192.462 406.674 193.281C406.832 194.099 393.872 193.135 393.872 193.135Z" fill="#263238"/>
<path d="M401.591 232.592C401.646 232.683 401.707 232.77 401.775 232.852L402.327 233.563L404.364 236.19C406.084 238.431 408.426 241.502 411.022 244.898C413.618 248.293 415.979 251.378 417.73 253.574C418.6 254.672 419.317 255.554 419.825 256.157L420.409 256.842C420.474 256.926 420.546 257.005 420.624 257.077C420.572 256.984 420.511 256.897 420.44 256.817L419.888 256.1L417.851 253.479L411.193 244.765C408.604 241.357 406.237 238.285 404.485 236.095C403.615 234.991 402.898 234.115 402.397 233.512L401.807 232.82C401.743 232.737 401.67 232.66 401.591 232.592Z" fill="#455A64"/>
<path d="M399.426 197.787C399.415 198.128 399.321 198.461 399.153 198.758C398.473 200.257 397.227 201.425 395.688 202.008C395.379 202.148 395.043 202.219 394.704 202.217C395.724 201.785 396.672 201.201 397.516 200.484C398.288 199.689 398.932 198.779 399.426 197.787Z" fill="#455A64"/>
<path d="M420.371 194.322C419.907 194.533 419.392 194.606 418.887 194.532C418.383 194.457 417.911 194.239 417.527 193.903C417.572 193.82 418.162 194.093 418.936 194.201C419.711 194.309 420.352 194.233 420.371 194.322Z" fill="#455A64"/>
<path d="M409.448 202.763C409.48 202.896 409.504 203.032 409.518 203.169C409.556 203.461 409.601 203.848 409.664 204.337C409.778 205.384 409.943 206.875 410.153 208.69C410.546 212.422 411.086 217.576 411.708 223.503V223.434L414.519 227.927L424.287 243.648C425.512 245.647 426.508 247.272 427.213 248.433L427.974 249.728C428.072 249.876 428.155 250.033 428.222 250.197C428.11 250.059 428.008 249.912 427.917 249.759L427.079 248.49L424.065 243.762C421.526 239.732 418.054 234.204 414.215 228.098L411.409 223.599V223.561C410.838 217.652 410.33 212.473 409.969 208.735L409.575 204.368C409.537 203.88 409.505 203.492 409.486 203.194C409.456 203.052 409.443 202.907 409.448 202.763Z" fill="#455A64"/>
<path d="M406.497 149.413L412.552 151.355L413.009 164.194C413.009 164.194 416.284 179.28 416.994 181.184C417.828 183.465 418.447 185.819 418.841 188.216C418.841 188.216 417.674 196.733 409.163 197.736C400.652 198.739 392.731 193.852 392.731 193.852C392.731 193.852 389.894 181.159 387.292 169.773C384.817 158.939 386.829 152.478 386.829 152.478L396.152 149.127L406.497 149.413Z" fill="#455A64"/>
<path d="M410.995 156.56L405.432 157.233L405.605 158.663L411.168 157.99L410.995 156.56Z" fill="#FAFAFA"/>
<path d="M412.336 141.2C412.283 140.887 412.115 140.606 411.864 140.411C411.614 140.216 411.3 140.122 410.984 140.147C411.125 140.04 411.238 139.899 411.311 139.737C411.384 139.576 411.415 139.399 411.402 139.222C411.388 139.045 411.331 138.874 411.235 138.725C411.138 138.576 411.006 138.454 410.85 138.37C411.147 137.917 411.266 137.37 411.183 136.836C411.099 136.301 410.82 135.816 410.4 135.475L404.009 144.291C404.5 144.681 405.066 144.968 405.671 145.134C406.277 145.3 406.909 145.341 407.531 145.256C408.778 145.072 409.976 144.641 411.054 143.986C411.351 143.859 411.596 143.635 411.752 143.352C411.872 143.053 411.701 142.622 411.371 142.615C411.679 142.543 411.949 142.357 412.128 142.095C412.306 141.833 412.381 141.514 412.336 141.2Z" fill="#263238"/>
<path d="M396.462 136.383C396.343 136.354 396.218 136.363 396.103 136.407C395.989 136.451 395.891 136.529 395.822 136.63C395.753 136.731 395.716 136.851 395.717 136.974C395.718 137.097 395.757 137.216 395.827 137.316C395.637 137.29 395.443 137.317 395.266 137.392C395.089 137.468 394.936 137.59 394.823 137.745C394.71 137.901 394.64 138.084 394.623 138.275C394.605 138.467 394.64 138.66 394.723 138.833C394.273 138.808 393.827 138.93 393.453 139.182C393.265 139.311 393.116 139.491 393.026 139.701C392.936 139.912 392.908 140.143 392.946 140.369C392.999 140.586 393.134 140.774 393.324 140.893C393.514 141.012 393.743 141.051 393.961 141.004C393.85 141.199 393.796 141.423 393.808 141.647C393.819 141.872 393.894 142.089 394.025 142.273C394.094 142.358 394.181 142.427 394.279 142.476C394.378 142.524 394.485 142.551 394.595 142.554C394.705 142.557 394.814 142.536 394.915 142.493C395.016 142.45 395.106 142.386 395.18 142.305C395.058 142.469 394.995 142.67 395.001 142.874C395.007 143.079 395.081 143.275 395.212 143.433C395.343 143.59 395.523 143.699 395.723 143.742C395.923 143.784 396.132 143.759 396.316 143.669C396.266 143.873 396.281 144.087 396.36 144.282C396.439 144.476 396.578 144.64 396.756 144.752C396.934 144.863 397.142 144.915 397.352 144.901C397.561 144.886 397.76 144.806 397.922 144.672L396.462 136.383Z" fill="#263238"/>
<path d="M396.856 134.695L396.577 150.301C396.556 151.531 397.004 152.724 397.828 153.637C398.653 154.55 399.794 155.116 401.019 155.22C401.681 155.278 402.347 155.2 402.977 154.991C403.607 154.782 404.188 154.445 404.682 154.003C405.177 153.56 405.576 153.021 405.854 152.418C406.133 151.815 406.284 151.162 406.3 150.498C406.3 149.013 406.351 147.794 406.351 147.794C406.351 147.794 410.159 147.54 410.533 143.796C410.755 141.625 410.812 136.675 410.825 132.873C410.83 131.635 410.369 130.441 409.535 129.526C408.7 128.612 407.552 128.044 406.319 127.936L404.053 127.739C403.121 127.71 402.192 127.869 401.321 128.205C400.451 128.541 399.657 129.049 398.986 129.697C398.315 130.345 397.781 131.122 397.415 131.98C397.049 132.839 396.859 133.762 396.856 134.695Z" fill="#FFBE9D"/>
<path d="M406.338 147.794C404.602 147.63 402.949 146.969 401.578 145.89C401.578 145.89 402.543 148.727 406.319 148.721L406.338 147.794Z" fill="#EB996E"/>
<path d="M409.765 136.688C409.695 136.751 409.314 136.415 408.737 136.364C408.159 136.313 407.715 136.567 407.658 136.491C407.601 136.415 407.709 136.332 407.905 136.218C408.168 136.065 408.472 135.999 408.775 136.028C409.076 136.055 409.36 136.177 409.587 136.377C409.752 136.523 409.803 136.656 409.765 136.688Z" fill="#263238"/>
<path d="M403.666 136.935C403.655 137.075 403.589 137.205 403.484 137.297C403.378 137.39 403.241 137.437 403.101 137.43C403.033 137.43 402.965 137.417 402.901 137.39C402.838 137.363 402.781 137.324 402.733 137.275C402.685 137.226 402.648 137.168 402.623 137.104C402.597 137.04 402.585 136.972 402.587 136.904C402.598 136.764 402.664 136.634 402.769 136.542C402.875 136.449 403.012 136.401 403.152 136.409C403.221 136.409 403.288 136.422 403.352 136.449C403.415 136.475 403.472 136.514 403.52 136.564C403.568 136.613 403.605 136.671 403.631 136.735C403.656 136.799 403.668 136.867 403.666 136.935Z" fill="#263238"/>
<path d="M409.25 137.443C409.239 137.583 409.174 137.713 409.068 137.805C408.963 137.897 408.826 137.945 408.686 137.938C408.617 137.936 408.55 137.921 408.487 137.894C408.425 137.866 408.368 137.826 408.321 137.777C408.274 137.727 408.237 137.669 408.213 137.605C408.188 137.541 408.176 137.473 408.178 137.405C408.188 137.265 408.253 137.134 408.358 137.041C408.464 136.948 408.602 136.901 408.743 136.91C408.812 136.91 408.88 136.924 408.943 136.951C409.006 136.978 409.064 137.018 409.111 137.068C409.159 137.117 409.195 137.176 409.219 137.241C409.243 137.306 409.254 137.374 409.25 137.443Z" fill="#263238"/>
<path d="M404.155 136.193C404.085 136.256 403.704 135.92 403.127 135.869C402.549 135.818 402.099 136.072 402.042 135.996C401.984 135.92 402.092 135.837 402.289 135.723C402.552 135.571 402.855 135.505 403.157 135.532C403.46 135.559 403.746 135.679 403.977 135.875C404.142 136.028 404.193 136.161 404.155 136.193Z" fill="#263238"/>
<path d="M405.868 140.654C406.187 140.585 406.513 140.555 406.839 140.566C406.992 140.566 407.131 140.566 407.163 140.451C407.191 140.301 407.171 140.145 407.106 140.007C406.998 139.633 406.884 139.252 406.769 138.846C406.448 137.86 406.208 136.85 406.052 135.825C406.449 136.782 406.769 137.768 407.011 138.776C407.118 139.188 407.226 139.575 407.328 139.944C407.395 140.132 407.395 140.339 407.328 140.527C407.302 140.577 407.265 140.621 407.22 140.655C407.175 140.689 407.123 140.713 407.068 140.724C406.983 140.733 406.898 140.733 406.814 140.724C406.497 140.74 406.179 140.717 405.868 140.654Z" fill="#263238"/>
<path d="M404.136 140.902C404.231 140.902 404.18 141.537 404.675 142.025C405.17 142.514 405.843 142.508 405.843 142.59C405.843 142.673 405.678 142.704 405.399 142.685C405.031 142.656 404.685 142.499 404.421 142.241C404.167 141.996 404.019 141.661 404.009 141.308C404.009 141.042 404.098 140.896 404.136 140.902Z" fill="#263238"/>
<path d="M404.472 134.327C404.396 134.479 403.837 134.327 403.145 134.378C402.453 134.428 401.876 134.536 401.819 134.378C401.762 134.219 401.895 134.168 402.13 134.035C402.439 133.872 402.783 133.785 403.133 133.781C403.483 133.771 403.83 133.843 404.148 133.99C404.383 134.124 404.497 134.257 404.472 134.327Z" fill="#263238"/>
<path d="M409.835 135.025C409.721 135.152 409.334 134.981 408.858 134.93C408.382 134.879 407.969 134.93 407.887 134.797C407.804 134.663 407.925 134.6 408.115 134.492C408.365 134.364 408.648 134.314 408.927 134.346C409.206 134.379 409.469 134.494 409.683 134.676C409.841 134.854 409.886 134.968 409.835 135.025Z" fill="#263238"/>
<path d="M397.871 137.621C397.808 137.589 395.333 136.631 395.212 139.207C395.092 141.784 397.681 141.397 397.694 141.321C397.706 141.245 397.871 137.621 397.871 137.621Z" fill="#FFBE9D"/>
<path d="M396.964 140.299C396.964 140.299 396.913 140.331 396.837 140.362C396.728 140.403 396.609 140.403 396.5 140.362C396.34 140.248 396.214 140.093 396.134 139.913C396.053 139.734 396.022 139.536 396.043 139.341C396.052 139.12 396.106 138.904 396.202 138.706C396.234 138.628 396.283 138.558 396.345 138.502C396.408 138.446 396.483 138.405 396.564 138.382C396.616 138.371 396.67 138.379 396.717 138.405C396.763 138.431 396.799 138.472 396.818 138.522C396.818 138.598 396.818 138.649 396.818 138.649C396.818 138.649 396.875 138.611 396.862 138.503C396.851 138.438 396.817 138.38 396.767 138.338C396.7 138.28 396.614 138.25 396.526 138.255C396.419 138.271 396.318 138.314 396.233 138.379C396.147 138.445 396.08 138.531 396.037 138.63C395.913 138.847 395.846 139.091 395.84 139.341C395.815 139.569 395.857 139.8 395.962 140.004C396.067 140.208 396.23 140.377 396.43 140.489C396.498 140.512 396.57 140.52 396.642 140.512C396.713 140.504 396.781 140.481 396.843 140.445C396.951 140.362 396.97 140.305 396.964 140.299Z" fill="#EB996E"/>
<path d="M396.45 137.392C396.695 137.397 396.935 137.469 397.143 137.6C397.351 137.73 397.519 137.915 397.63 138.135C397.763 138.516 397.763 138.934 397.897 139.315C398.03 139.696 398.379 140.064 398.779 140.001C398.916 139.972 399.043 139.908 399.146 139.814C399.25 139.72 399.327 139.601 399.369 139.468C399.448 139.198 399.474 138.916 399.445 138.636C399.401 137.424 399.255 136.212 399.312 135.006C399.326 133.784 399.696 132.593 400.378 131.579C400.73 131.077 401.21 130.68 401.769 130.43C402.327 130.18 402.944 130.085 403.552 130.157C404.345 130.29 405.037 130.792 405.817 130.957C406.284 131.06 406.767 131.056 407.232 130.946C407.697 130.836 408.131 130.623 408.502 130.322C408.597 130.246 409.022 130.017 409.022 130.017C409.033 129.731 408.963 129.447 408.819 129.199C407.379 127.606 404.58 126.946 402.473 127.295C401.394 127.461 400.365 127.86 399.457 128.463C398.548 129.067 397.782 129.862 397.211 130.792C396.145 132.664 396.17 135.393 396.488 137.405" fill="#263238"/>
<path d="M411.282 132.232C411.055 132.594 410.737 132.89 410.359 133.091C409.981 133.291 409.558 133.389 409.131 133.375C408.276 133.336 407.436 133.135 406.656 132.785C405.419 132.359 404.143 132.055 402.848 131.877C402.721 131.877 402.568 131.877 402.511 131.744C402.454 131.61 402.594 131.433 402.733 131.337C403.933 130.563 406.681 130.265 408.109 130.328C408.825 130.343 409.525 130.541 410.143 130.904C410.76 131.266 411.275 131.78 411.638 132.397" fill="#263238"/>
<path d="M410.908 132.315C410.165 131.378 409.085 130.768 407.899 130.614C405.623 130.423 403.338 130.863 401.296 131.887C399.253 132.91 397.533 134.477 396.323 136.415C396.093 135.321 395.979 134.207 395.98 133.089C396.044 132.321 396.907 127.815 401.692 126.8C401.712 126.787 408.997 124.699 410.908 132.315Z" fill="#455A64"/>
<path d="M396.824 135.444C398.513 133.349 400.637 131.646 403.05 130.455C405.882 129.164 408.868 128.245 411.936 127.72C412.723 127.534 413.541 127.519 414.335 127.676C414.729 127.762 415.092 127.958 415.38 128.241C415.668 128.524 415.871 128.882 415.966 129.275C416.124 130.265 414.265 131.617 413.427 132.131C412.585 132.591 411.719 133.004 410.831 133.368C410.831 133.368 411.015 131.572 408.159 130.944C404.256 130.087 396.824 135.444 396.824 135.444Z" fill="#455A64"/>
<path d="M414.836 127.802C414.566 127.745 414.292 127.703 414.017 127.676C413.259 127.647 412.499 127.698 411.752 127.828C409.274 128.245 406.85 128.933 404.523 129.878C402.179 130.779 400.026 132.114 398.176 133.813C397.624 134.331 397.138 134.915 396.729 135.552C396.45 136.009 396.342 136.288 396.317 136.275C396.291 136.263 396.317 136.199 396.367 136.066C396.437 135.867 396.522 135.674 396.621 135.488C396.994 134.81 397.464 134.189 398.017 133.648C399.845 131.868 402.018 130.481 404.402 129.573C406.751 128.614 409.208 127.949 411.72 127.593C412.485 127.485 413.261 127.47 414.03 127.549C414.248 127.565 414.463 127.617 414.665 127.701C414.779 127.758 414.842 127.79 414.836 127.802Z" fill="#263238"/>
<path d="M405.57 128.799C406.502 128.403 407.492 128.16 408.502 128.082C408.281 127.875 408.036 127.696 407.772 127.549C406.986 127.61 406.215 127.797 405.487 128.101L405.57 128.799Z" fill="#FAFAFA"/>
<path d="M411.339 133.584C411.457 133.42 411.529 133.227 411.548 133.026C411.566 132.824 411.531 132.621 411.445 132.438C411.359 132.255 411.225 132.098 411.058 131.984C410.891 131.87 410.697 131.802 410.495 131.788C410.628 131.735 410.749 131.654 410.85 131.552C410.95 131.45 411.029 131.328 411.08 131.194C411.131 131.059 411.154 130.916 411.148 130.773C411.141 130.629 411.104 130.489 411.041 130.36C410.891 130.111 410.663 129.918 410.392 129.812C410.121 129.707 409.822 129.694 409.543 129.776C409.267 129.868 409.016 130.024 408.812 130.231C408.608 130.439 408.456 130.692 408.369 130.969C408.251 130.794 408.089 130.652 407.901 130.557C407.712 130.461 407.502 130.416 407.29 130.425C407.079 130.434 406.874 130.496 406.694 130.607C406.513 130.718 406.365 130.874 406.262 131.058C406.205 130.899 406.091 130.768 405.941 130.69C405.792 130.613 405.618 130.594 405.456 130.639C405.134 130.746 404.839 130.921 404.593 131.153C404.345 131.388 404.025 131.534 403.685 131.566L403.463 131.661C403.645 131.953 403.927 132.169 404.257 132.267C404.586 132.365 404.941 132.339 405.253 132.194C405.25 132.411 405.318 132.622 405.445 132.796C405.573 132.971 405.755 133.099 405.962 133.161C406.169 133.224 406.391 133.217 406.594 133.142C406.797 133.067 406.97 132.928 407.087 132.746C407.126 132.907 407.205 133.054 407.316 133.176C407.427 133.298 407.567 133.39 407.723 133.445C407.878 133.499 408.045 133.513 408.208 133.487C408.371 133.46 408.524 133.393 408.654 133.292C408.725 133.478 408.839 133.644 408.986 133.778C409.133 133.911 409.309 134.008 409.5 134.061C409.692 134.115 409.893 134.122 410.088 134.083C410.283 134.044 410.466 133.96 410.622 133.838C410.784 134.095 410.889 134.384 410.931 134.685C410.972 134.986 410.949 135.292 410.863 135.583C411.072 135.537 411.264 135.433 411.417 135.282C411.57 135.132 411.677 134.941 411.727 134.733C411.776 134.524 411.766 134.306 411.698 134.103C411.629 133.9 411.505 133.72 411.339 133.584Z" fill="#263238"/>
<path d="M400.606 132.95C399.721 133.342 398.871 133.811 398.068 134.352C397.261 134.904 396.615 135.659 396.195 136.542L397.465 137.754C397.814 137.868 398.099 137.989 398.366 137.754C398.504 137.634 398.609 137.483 398.674 137.312C398.738 137.141 398.759 136.957 398.734 136.777C398.902 136.813 399.077 136.802 399.24 136.745C399.403 136.688 399.546 136.588 399.656 136.455C399.765 136.322 399.836 136.161 399.86 135.991C399.885 135.82 399.862 135.647 399.794 135.488C399.92 135.458 400.035 135.396 400.129 135.307C400.223 135.217 400.291 135.105 400.327 134.981C400.36 134.856 400.36 134.725 400.328 134.601C400.296 134.476 400.232 134.362 400.143 134.27C400.286 134.261 400.424 134.211 400.539 134.125C400.655 134.04 400.742 133.922 400.791 133.787C400.841 133.652 400.849 133.506 400.816 133.366C400.784 133.226 400.71 133.099 400.606 133V132.95Z" fill="#263238"/>
<path d="M412.552 151.355C412.552 151.355 416.303 153.608 417.432 155.613C418.562 157.619 424.566 172.254 424.318 174.653C424.071 177.052 418.435 178.531 418.435 178.531L412.552 170.915L415.243 169.31L412.552 164.124V151.355Z" fill="#455A64"/>
<path d="M418.447 178.512C418.447 178.512 404.815 181.241 399.864 175.339L401.299 170.357C401.299 170.357 410.304 172.489 413.122 171.575L418.447 178.512Z" fill="#FFBE9D"/>
<path d="M419.856 166.403C419.907 166.504 418.257 167.196 416.537 168.51C414.817 169.824 413.731 171.245 413.643 171.175C413.797 170.82 414.012 170.494 414.277 170.211C414.876 169.483 415.556 168.825 416.302 168.25C417.053 167.679 417.863 167.191 418.72 166.796C419.074 166.602 419.458 166.469 419.856 166.403Z" fill="#263238"/>
<path d="M415.484 169.125C414.998 168.357 414.587 167.543 414.259 166.695C413.824 165.897 413.45 165.067 413.142 164.213C413.74 164.91 414.219 165.701 414.557 166.555C414.985 167.364 415.297 168.229 415.484 169.125Z" fill="#263238"/>
<path d="M413.008 162.963C412.972 162.247 412.861 161.536 412.678 160.843C412.563 160.133 412.378 159.436 412.126 158.761C412.279 160.188 412.574 161.595 413.008 162.963Z" fill="#263238"/>
<path d="M388.535 153.259C388.796 153.532 392.54 156.013 393.79 160.24C395.041 164.467 396.418 168.878 396.418 168.878L401.299 169.513L398.544 180.771C396.68 180.484 394.9 179.799 393.324 178.763C391.749 177.727 390.414 176.365 389.411 174.768C387.233 170.972 385.471 166.953 384.156 162.779C384.156 162.779 384.569 149.108 388.535 153.259Z" fill="#455A64"/>
<path d="M399.623 169.29C399.623 169.29 397.554 164.657 397.274 164.594C396.995 164.53 393.003 163.128 393.003 163.128C392.882 163.453 392.882 163.812 393.003 164.137L391.562 164.321C391.562 164.321 391.778 165.203 392.267 165.324L391.747 165.787C392.007 166.131 392.341 166.413 392.724 166.612C392.871 166.685 393.033 166.723 393.197 166.723C393.361 166.723 393.523 166.685 393.67 166.612C393.67 166.612 393.492 166.942 394.304 167.463C395.117 167.983 396.532 168.732 396.532 168.732L399.623 169.29Z" fill="#FFBE9D"/>
<path d="M396.539 168.757C396.539 168.757 395.124 167.983 394.312 167.488C393.607 167.044 393.626 166.739 393.677 166.65C393.531 166.716 393.373 166.75 393.214 166.75C393.054 166.75 392.896 166.716 392.75 166.65C392.367 166.446 392.031 166.163 391.767 165.819L392.243 165.317C391.767 165.178 391.557 164.346 391.551 164.308L392.985 164.124C392.87 163.8 392.87 163.446 392.985 163.121C393.023 163.121 396.99 164.53 397.263 164.588C397.536 164.645 399.529 169.1 399.617 169.29L396.539 168.757ZM393.011 164.131L391.57 164.315C391.57 164.416 391.817 165.19 392.268 165.305L391.741 165.768C391.997 166.108 392.327 166.386 392.706 166.58C392.852 166.652 393.013 166.689 393.176 166.689C393.338 166.689 393.499 166.652 393.645 166.58V166.618C393.645 166.618 393.48 166.948 394.28 167.456C395.08 167.964 396.457 168.726 396.508 168.726L399.573 169.265C398.849 167.659 397.447 164.638 397.237 164.594C397.028 164.549 393.188 163.204 392.972 163.128C392.859 163.455 392.873 163.813 393.011 164.131Z" fill="#EB996E"/>
<path d="M393.13 164.15C393.973 164.559 394.847 164.901 395.745 165.172C396.113 165.305 396.475 165.4 396.76 165.54C397.016 165.661 397.225 165.861 397.357 166.111C397.598 166.542 397.687 166.853 397.725 166.841C397.709 166.558 397.631 166.283 397.496 166.035C397.363 165.748 397.14 165.512 396.862 165.362C396.523 165.21 396.176 165.078 395.821 164.969C394.945 164.631 394.045 164.357 393.13 164.15Z" fill="#EB996E"/>
<path d="M392.197 165.317C392.419 165.45 392.665 165.538 392.921 165.578C393.378 165.705 394.025 165.806 394.711 165.99C395.295 166.135 395.845 166.394 396.329 166.752C396.697 167.037 396.856 167.285 396.887 167.266C396.799 167.015 396.64 166.795 396.43 166.631C395.951 166.219 395.381 165.926 394.768 165.774C394.063 165.584 393.409 165.508 392.953 165.425C392.706 165.361 392.452 165.325 392.197 165.317Z" fill="#EB996E"/>
<path d="M395.86 167.437C395.625 167.12 395.285 166.895 394.901 166.803C394.539 166.639 394.132 166.601 393.746 166.695C393.746 166.764 394.254 166.796 394.831 167.006C395.409 167.215 395.821 167.488 395.86 167.437Z" fill="#EB996E"/>
<path d="M400.88 170.712L413.186 164.505L415.439 169.094C415.439 169.094 404.097 180.334 398.785 180.188" fill="#FFBE9D"/>
<path d="M393.403 157.701C393.421 158.012 393.477 158.318 393.568 158.615C393.702 159.167 393.892 159.929 394.12 160.767C394.349 161.605 394.565 162.366 394.755 162.912C394.825 163.212 394.932 163.502 395.072 163.775C395.05 163.468 394.995 163.163 394.907 162.868C394.774 162.315 394.584 161.554 394.355 160.71C394.127 159.866 393.911 159.117 393.721 158.577C393.649 158.274 393.542 157.98 393.403 157.701Z" fill="#263238"/>
<path d="M393.936 172.978C393.974 172.978 394.082 172.413 394.368 171.531C394.53 171.018 394.779 170.537 395.104 170.109C395.494 169.6 396.056 169.251 396.684 169.125C397.341 169.095 397.999 169.17 398.633 169.348L400.245 169.671C400.447 169.698 400.645 169.749 400.835 169.824C400.97 169.883 401.076 169.992 401.133 170.128C401.158 170.186 401.171 170.249 401.171 170.312C401.171 170.376 401.158 170.438 401.133 170.496C401.133 170.496 401.305 170.395 401.235 170.103C401.21 170.02 401.169 169.942 401.113 169.876C401.057 169.809 400.989 169.755 400.911 169.716C400.709 169.622 400.496 169.556 400.276 169.519L398.671 169.151C398.015 168.955 397.33 168.874 396.646 168.91C395.955 169.046 395.34 169.438 394.926 170.008C394.596 170.459 394.351 170.966 394.203 171.505C394.099 171.864 394.016 172.229 393.955 172.597C393.93 172.722 393.923 172.851 393.936 172.978Z" fill="#263238"/>
<path d="M392.242 170.503C392.578 169.908 393.029 169.386 393.569 168.967C394.165 168.611 394.805 168.334 395.473 168.142C395.26 168.108 395.042 168.125 394.838 168.192C394.343 168.296 393.874 168.499 393.461 168.789C393.042 169.08 392.696 169.465 392.452 169.912C392.332 170.088 392.259 170.291 392.242 170.503Z" fill="#263238"/>
<path d="M384.156 162.779C384.156 162.779 384.156 162.861 384.22 163.02C384.283 163.179 384.353 163.42 384.448 163.693C384.658 164.327 384.943 165.14 385.299 166.162C385.654 167.183 386.086 168.453 386.695 169.786C387.304 171.118 388.021 172.553 388.891 174.006C389.703 175.382 390.739 176.614 391.956 177.649C392.949 178.496 394.061 179.191 395.257 179.712C396.067 180.06 396.921 180.297 397.795 180.416C398.031 180.451 398.268 180.475 398.506 180.486C398.671 180.486 398.754 180.486 398.754 180.486C398.754 180.486 398.417 180.448 397.808 180.34C396.954 180.187 396.123 179.929 395.333 179.572C392.722 178.366 390.544 176.388 389.094 173.904C388.231 172.464 387.533 171.01 386.892 169.709C386.251 168.408 385.838 167.171 385.451 166.117C385.064 165.064 384.766 164.245 384.537 163.667L384.27 163.033C384.241 162.944 384.203 162.859 384.156 162.779Z" fill="#263238"/>
<path d="M387.685 153.526C387.685 153.589 388.624 153.932 389.696 154.573C390.769 155.214 391.537 155.88 391.6 155.842C390.562 154.7 389.205 153.897 387.704 153.538L387.685 153.526Z" fill="#263238"/>
<path d="M397.021 183.431C397.223 183.554 397.435 183.66 397.655 183.748C397.865 183.85 398.118 183.964 398.417 184.078C398.715 184.192 399.051 184.345 399.445 184.465C400.342 184.785 401.258 185.052 402.187 185.265C403.328 185.517 404.483 185.699 405.646 185.811C406.811 185.907 407.981 185.928 409.149 185.874C410.102 185.83 411.051 185.73 411.992 185.576C412.392 185.519 412.754 185.436 413.065 185.373C413.376 185.309 413.655 185.24 413.871 185.182C414.102 185.131 414.329 185.063 414.55 184.979C414.315 185.003 414.081 185.044 413.852 185.1C413.636 185.144 413.363 185.201 413.046 185.252C412.728 185.303 412.367 185.379 411.967 185.424C411.028 185.558 410.084 185.643 409.136 185.677C407.978 185.716 406.819 185.686 405.665 185.589C404.511 185.481 403.365 185.308 402.231 185.068C401.307 184.866 400.394 184.616 399.496 184.319C399.102 184.205 398.766 184.072 398.461 183.964C398.157 183.856 397.903 183.754 397.693 183.672C397.475 183.576 397.25 183.496 397.021 183.431Z" fill="#263238"/>
<path d="M407.017 189.822C407.871 189.712 408.708 189.499 409.511 189.187C410.336 188.95 411.129 188.614 411.872 188.184C411.872 188.127 410.78 188.533 409.441 188.978C408.102 189.422 407.004 189.765 407.017 189.822Z" fill="#263238"/>
<g opacity="0.3">
<path d="M416.41 178.848C413.597 179.404 410.708 179.447 407.88 178.975C406.853 178.664 405.779 178.535 404.707 178.595C403.857 178.801 403.036 179.112 402.263 179.521C400.803 180.122 399.216 180.351 397.646 180.188C396.075 180.025 394.57 179.475 393.264 178.588C393.723 179.465 394.385 180.22 395.196 180.788C396.006 181.357 396.941 181.723 397.922 181.857C399.885 182.106 401.879 181.928 403.767 181.336C404.891 180.97 406.054 180.735 407.233 180.638C408.73 180.6 410.197 181.089 411.675 181.114C413.41 181.164 415.114 180.65 416.53 179.648L416.41 178.848Z" fill="black"/>
</g>
<g opacity="0.3">
<path d="M411.536 188.622C410.905 189.682 410.035 190.578 408.994 191.24C407.953 191.901 406.772 192.309 405.545 192.43C405.015 192.497 404.477 192.454 403.965 192.303C403.708 192.228 403.47 192.101 403.264 191.929C403.059 191.758 402.891 191.546 402.771 191.307C403.34 190.942 403.97 190.682 404.631 190.539L411.466 188.667" fill="black"/>
</g>
<path d="M415.255 169.278C415.088 169.483 414.904 169.672 414.703 169.843C414.334 170.198 413.801 170.706 413.173 171.353C412.545 172 411.796 172.8 410.882 173.593C409.968 174.387 408.927 175.205 407.829 176.056C406.796 176.864 405.713 177.606 404.586 178.277C403.662 178.828 402.684 179.281 401.667 179.629C400.981 179.862 400.276 180.034 399.559 180.143C399.3 180.189 399.036 180.204 398.772 180.188C399.726 179.986 400.667 179.728 401.59 179.413C402.579 179.037 403.531 178.569 404.434 178.017C405.533 177.337 406.592 176.596 407.607 175.796C408.705 174.945 409.752 174.139 410.66 173.365C411.567 172.591 412.329 171.823 412.989 171.188C413.649 170.553 414.207 170.071 414.601 169.747C414.799 169.564 415.018 169.407 415.255 169.278Z" fill="#EB996E"/>
</svg>
