<svg preserveAspectRatio="none" width="100%" height="100%" overflow="visible" style="display: block;" viewBox="0 0 20 20" fill="none" xmlns="http://www.w3.org/2000/svg">
<g id="map:plumber" clip-path="url(#clip0_4037_753)">
<path id="Vector" d="M18.3884 17.7584C18.3884 16.9608 16.9332 14.7316 16.9332 14.7316C16.9332 14.7316 15.456 16.9608 15.456 17.7584C15.456 18.5544 16.1128 19.2 16.9224 19.2C17.732 19.2 18.3884 18.5544 18.3884 17.7584ZM7.8664 5.2684H4.934V2.3776H5.7336V0.8H0.4V2.3776H1.2V6.8456C1.2 8.0072 2.1552 8.9484 3.3332 8.9484H7.8664V9.7372H9.4668V4.4804H7.8664V5.2684ZM18.7992 11.8396V7.3716C18.7992 6.2104 17.8444 5.2688 16.6676 5.2688H12.1336V4.4808H10.5332V9.738H12.1336V8.9488H15.0664V11.8396H14.2676V13.4172H19.6V11.8396H18.7992Z" fill="var(--fill-0, black)"/>
</g>
<defs>
<clipPath id="clip0_4037_753">
<rect width="20" height="20" fill="white"/>
</clipPath>
</defs>
</svg>
