<svg preserveAspectRatio="none" width="100%" height="100%" overflow="visible" style="display: block;" viewBox="0 0 20 20" fill="none" xmlns="http://www.w3.org/2000/svg">
<g id="material-symbols:door-sliding-rounded">
<path id="Vector" d="M7.5 10.8333C7.73611 10.8333 7.93417 10.7533 8.09417 10.5933C8.25417 10.4333 8.33389 10.2356 8.33333 10C8.33278 9.76444 8.25278 9.56667 8.09333 9.40667C7.93389 9.24667 7.73611 9.16667 7.5 9.16667C7.26389 9.16667 7.06611 9.24667 6.90667 9.40667C6.74722 9.56667 6.66722 9.76444 6.66667 10C6.66611 10.2356 6.74611 10.4336 6.90667 10.5942C7.06722 10.7547 7.265 10.8344 7.5 10.8333ZM12.5 10.8333C12.7361 10.8333 12.9342 10.7533 13.0942 10.5933C13.2542 10.4333 13.3339 10.2356 13.3333 10C13.3328 9.76444 13.2528 9.56667 13.0933 9.40667C12.9339 9.24667 12.7361 9.16667 12.5 9.16667C12.2639 9.16667 12.0661 9.24667 11.9067 9.40667C11.7472 9.56667 11.6672 9.76444 11.6667 10C11.6661 10.2356 11.7461 10.4336 11.9067 10.5942C12.0672 10.7547 12.265 10.8344 12.5 10.8333ZM3.33333 17.5C3.09722 17.5 2.89944 17.42 2.74 17.26C2.58056 17.1 2.50056 16.9022 2.5 16.6667C2.5 16.4444 2.60083 16.2883 2.8025 16.1983C3.00417 16.1083 3.18111 15.9867 3.33333 15.8333V4.16667C3.33333 3.70833 3.49667 3.31611 3.82333 2.99C4.15 2.66389 4.54222 2.50056 5 2.5H9.58333V15.8333H10.4167V2.5H15C15.4583 2.5 15.8508 2.66333 16.1775 2.99C16.5042 3.31667 16.6672 3.70889 16.6667 4.16667V15.8333C16.9028 15.8333 17.1008 15.9133 17.2608 16.0733C17.4208 16.2333 17.5006 16.4311 17.5 16.6667C17.4994 16.9022 17.4194 17.1003 17.26 17.2608C17.1006 17.4214 16.9028 17.5011 16.6667 17.5H3.33333Z" fill="var(--fill-0, black)"/>
</g>
</svg>
