<svg preserveAspectRatio="none" width="100%" height="100%" overflow="visible" style="display: block;" viewBox="0 0 48 48" fill="none" xmlns="http://www.w3.org/2000/svg">
<g id="Group">
<path id="Vector" d="M38.4375 0.824219V9.37591H46.9885L38.4375 0.824219Z" fill="var(--fill-0, white)"/>
<path id="Vector_2" d="M37.0314 12.1875C36.2548 12.1875 35.6252 11.5579 35.6252 10.7813V1.52588e-05H15.4689C13.1427 1.52588e-05 11.2502 1.89255 11.2502 4.21877V19.9396C11.7135 19.8976 12.1823 19.875 12.6564 19.875C17.4497 19.875 21.7405 22.0665 24.5801 25.5H39.8439C40.6205 25.5 41.2502 26.1296 41.2502 26.9063C41.2502 27.6829 40.6205 28.3125 39.8439 28.3125H26.4328C27.3313 30.0657 27.8839 31.9754 28.0606 33.9375H39.8439C40.6205 33.9375 41.2502 34.5671 41.2502 35.3438C41.2502 36.1204 40.6205 36.75 39.8439 36.75H28.0606C27.64 41.3943 25.1586 45.4525 21.54 48H43.5939C45.9201 48 47.8127 46.1075 47.8127 43.7813V12.1875H37.0314ZM39.8439 19.875H19.2189C18.4423 19.875 17.8127 19.2454 17.8127 18.4688C17.8127 17.6921 18.4423 17.0625 19.2189 17.0625H39.8439C40.6205 17.0625 41.2502 17.6921 41.2502 18.4688C41.2502 19.2454 40.6205 19.875 39.8439 19.875Z" fill="var(--fill-0, white)"/>
<path id="Vector_3" d="M12.6562 22.6875C5.67756 22.6875 -3.8336e-05 28.3651 -3.8336e-05 35.3437C-3.8336e-05 42.3224 5.67756 48 12.6562 48C19.6349 48 25.3125 42.3224 25.3125 35.3437C25.3125 28.3651 19.6349 22.6875 12.6562 22.6875ZM16.4062 36.75H12.6562C11.8796 36.75 11.25 36.1203 11.25 35.3437V29.7187C11.25 28.9421 11.8796 28.3125 12.6562 28.3125C13.4328 28.3125 14.0625 28.9421 14.0625 29.7187V33.9375H16.4062C17.1828 33.9375 17.8125 34.5671 17.8125 35.3437C17.8125 36.1203 17.1828 36.75 16.4062 36.75Z" fill="var(--fill-0, white)"/>
</g>
</svg>
