<svg preserveAspectRatio="none" width="100%" height="100%" overflow="visible" style="display: block;" viewBox="0 0 18 18" fill="none" xmlns="http://www.w3.org/2000/svg">
<g id="Group">
<path id="Vector" d="M10.375 16.4167H6C4.67392 16.4167 3.40215 15.8899 2.46447 14.9522C1.52678 14.0145 1 12.7427 1 11.4167V6C1 4.67392 1.52678 3.40215 2.46447 2.46447C3.40215 1.52678 4.67392 1 6 1H11.4167C12.7427 1 14.0145 1.52678 14.9522 2.46447C15.8899 3.40215 16.4167 4.67392 16.4167 6V10.375" stroke="var(--stroke-0, #2B5AAC)" stroke-width="1.5" stroke-linecap="round"/>
<path id="Vector_2" d="M4.95898 11.1667L6.79648 8.72175C6.90901 8.57118 7.07397 8.46836 7.2587 8.43363C7.44343 8.39891 7.63447 8.43482 7.79398 8.53425L9.58648 9.66675C9.75213 9.77223 9.95254 9.80854 10.1447 9.76787C10.3368 9.7272 10.5053 9.6128 10.614 9.44925L12.459 6.66675M14.4865 15.3167L15.389 15.7909C15.4271 15.8109 15.4701 15.8198 15.513 15.8166C15.5559 15.8135 15.5971 15.7983 15.6318 15.7728C15.6666 15.7474 15.6935 15.7127 15.7095 15.6727C15.7254 15.6328 15.7299 15.5891 15.7223 15.5467L15.5498 14.5426C15.5438 14.5057 15.5467 14.4679 15.5583 14.4324C15.5699 14.3968 15.5898 14.3646 15.6165 14.3384L16.3465 13.6267C16.3778 13.5969 16.4 13.5589 16.4106 13.517C16.4213 13.4751 16.4199 13.4311 16.4067 13.39C16.3935 13.3488 16.3689 13.3122 16.3359 13.2844C16.3028 13.2566 16.2626 13.2386 16.2198 13.2326L15.2115 13.0876C15.1747 13.0818 15.1399 13.0672 15.1099 13.0452C15.0798 13.0232 15.0555 12.9943 15.039 12.9609L14.5782 12.0401C14.5593 12.0011 14.5299 11.9683 14.4933 11.9453C14.4567 11.9224 14.4143 11.9102 14.3711 11.9102C14.3278 11.9102 14.2855 11.9224 14.2488 11.9453C14.2122 11.9683 14.1828 12.0011 14.164 12.0401L13.7032 12.9609C13.6866 12.9943 13.6623 13.0232 13.6323 13.0452C13.6023 13.0672 13.5674 13.0818 13.5307 13.0876L12.5357 13.2326C12.5036 13.2369 12.4729 13.2479 12.4454 13.2649C12.418 13.2819 12.3944 13.3046 12.3763 13.3313C12.3582 13.3581 12.346 13.3883 12.3404 13.4202C12.3348 13.452 12.3361 13.4846 12.344 13.5159C12.354 13.5582 12.3759 13.5967 12.4073 13.6267L13.1373 14.3384C13.164 14.3646 13.1839 14.3968 13.1955 14.4324C13.2071 14.4679 13.21 14.5057 13.204 14.5426L13.0315 15.5467C13.0239 15.5891 13.0284 15.6328 13.0444 15.6727C13.0603 15.7127 13.0872 15.7474 13.122 15.7728C13.1567 15.7983 13.1979 15.8135 13.2408 15.8166C13.2837 15.8198 13.3267 15.8109 13.3648 15.7909L14.2673 15.3159C14.3011 15.298 14.3387 15.2886 14.3769 15.2886C14.4151 15.2886 14.4527 15.2988 14.4865 15.3167Z" stroke="var(--stroke-0, #2B5AAC)" stroke-width="1.5" stroke-linecap="round" stroke-linejoin="round"/>
</g>
</svg>
