<svg preserveAspectRatio="none" width="100%" height="100%" overflow="visible" style="display: block;" viewBox="0 0 20 20" fill="none" xmlns="http://www.w3.org/2000/svg">
<g id="mdi:fan">
<path id="Vector" d="M10 9.16667C9.77899 9.16667 9.56703 9.25446 9.41075 9.41074C9.25446 9.56702 9.16667 9.77899 9.16667 10C9.16667 10.221 9.25446 10.433 9.41075 10.5893C9.56703 10.7455 9.77899 10.8333 10 10.8333C10.221 10.8333 10.433 10.7455 10.5893 10.5893C10.7455 10.433 10.8333 10.221 10.8333 10C10.8333 9.77899 10.7455 9.56702 10.5893 9.41074C10.433 9.25446 10.221 9.16667 10 9.16667ZM10.4167 1.66667C14.1667 1.66667 14.2583 4.64167 12.2917 5.625C11.4667 6.03333 11.1 6.90833 10.9417 7.68333C11.3417 7.85 11.6917 8.10833 11.9583 8.44167C15.0417 6.775 18.3583 7.43333 18.3583 10.4167C18.3583 14.1667 15.3833 14.25 14.4 12.275C13.9833 11.45 13.1 11.0833 12.325 10.925C12.1583 11.325 11.9 11.6667 11.5667 11.95C13.225 15.025 12.5667 18.3333 9.58333 18.3333C5.83333 18.3333 5.75833 15.35 7.725 14.3667C8.54167 13.9583 8.90833 13.0917 9.075 12.325C8.66667 12.1583 8.30833 11.8917 8.04167 11.5583C4.96667 13.2083 1.66667 12.5583 1.66667 9.58333C1.66667 5.83333 4.63333 5.74167 5.61667 7.71667C6.03333 8.54167 6.90833 8.9 7.68333 9.05833C7.84167 8.65833 8.10833 8.30833 8.45 8.04167C6.79167 4.96667 7.45 1.66667 10.4167 1.66667Z" fill="var(--fill-0, black)"/>
</g>
</svg>
