<svg preserveAspectRatio="none" width="100%" height="100%" overflow="visible" style="display: block;" viewBox="0 0 24 24" fill="none" xmlns="http://www.w3.org/2000/svg">
<g id="si:user-line">
<path id="Vector" d="M19.523 21.99H4.488C2.985 21.99 1.825 20.856 2.022 19.366L2.136 18.497C2.343 17.297 3.441 16.542 4.633 16.283L11.928 15H12.072L19.367 16.283C20.579 16.563 21.657 17.276 21.864 18.497L21.978 19.377C22.175 20.867 21.015 22 19.512 22L19.523 21.99ZM17 7C17 8.32608 16.4732 9.59785 15.5355 10.5355C14.5979 11.4732 13.3261 12 12 12C10.6739 12 9.40215 11.4732 8.46447 10.5355C7.52678 9.59785 7 8.32608 7 7C7 5.67392 7.52678 4.40215 8.46447 3.46447C9.40215 2.52678 10.6739 2 12 2C13.3261 2 14.5979 2.52678 15.5355 3.46447C16.4732 4.40215 17 5.67392 17 7Z" stroke="var(--stroke-0, #2C3E50)" stroke-width="1.5" stroke-linecap="round" stroke-linejoin="round"/>
</g>
</svg>
