<svg preserveAspectRatio="none" width="100%" height="100%" overflow="visible" style="display: block;" viewBox="0 0 602 96" fill="none" xmlns="http://www.w3.org/2000/svg">
<path id="Vector 6" d="M2 94C11.4307 88.6127 17.9596 84.0542 38.2719 84.0542C58.5841 84.0542 65.113 58.7754 94.1305 56.7034C123.148 54.6313 133.304 91.928 162.322 91.0992C191.339 90.2703 186.986 38.0551 216.729 32.6678C246.472 27.2805 258.079 9.8754 287.097 9.04659C316.114 8.21778 322.643 56.7034 350.935 56.7034C379.227 56.7034 387.207 25.2085 412.597 25.2085C437.988 25.2085 451.771 43.0279 482.239 43.4424C512.708 43.4424 513.433 78.2525 541 78.2525C568.566 78.2525 580.173 1.58726 599.76 2.00167" stroke="var(--stroke-0, #2B5AAC)" stroke-width="3" stroke-linecap="round" stroke-linejoin="round"/>
</svg>
