<svg preserveAspectRatio="none" width="100%" height="100%" overflow="visible" style="display: block;" viewBox="0 0 20 20" fill="none" xmlns="http://www.w3.org/2000/svg">
<g id="mdi:carpet">
<path id="Vector" d="M10 11.6667C9.08333 11.6667 8.33333 10.925 8.33333 10C8.33333 9.075 9.08333 8.33333 10 8.33333C10.9167 8.33333 11.6667 9.08333 11.6667 10C11.6667 10.9167 10.925 11.6667 10 11.6667ZM19.1667 15.8333H0.833334V14.1667H3.33333V12.5H0.833334V10.8333H3.33333V9.16667H0.833334V7.5H3.33333V5.83333H0.833334V4.16667H19.1667V5.83333H16.6667V7.5H19.1667V9.16667H16.6667V10.8333H19.1667V12.5H16.6667V14.1667H19.1667V15.8333ZM10 13.2667C10.5167 13.85 11.3833 14.0083 12.0833 13.6083C12.7833 13.2083 13.075 12.3667 12.8333 11.6333C13.5917 11.4833 14.1667 10.8083 14.1667 10C14.1667 9.19167 13.5917 8.51667 12.8333 8.36667C13.075 7.63333 12.7833 6.79167 12.0833 6.39167C11.3833 5.99167 10.5167 6.15 10 6.73333C9.74655 6.4428 9.39999 6.24939 9.01966 6.1862C8.63932 6.12302 8.24885 6.19399 7.91507 6.38697C7.58129 6.57995 7.32496 6.88294 7.18996 7.24408C7.05495 7.60522 7.04967 8.00206 7.175 8.36667C6.40833 8.51667 5.83333 9.19167 5.83333 10C5.83333 10.8083 6.40833 11.4833 7.175 11.6333C7.04967 11.9979 7.05495 12.3948 7.18996 12.7559C7.32496 13.1171 7.58129 13.4201 7.91507 13.613C8.24885 13.806 8.63932 13.877 9.01966 13.8138C9.39999 13.7506 9.74655 13.5572 10 13.2667Z" fill="var(--fill-0, black)"/>
</g>
</svg>
