<svg preserveAspectRatio="none" width="100%" height="100%" overflow="visible" style="display: block;" viewBox="0 0 20 20" fill="none" xmlns="http://www.w3.org/2000/svg">
<g id="material-symbols:tools-power-drill">
<path id="Vector" d="M5.625 8.33333H9.375C9.54167 8.33333 9.6875 8.27083 9.8125 8.14583C9.9375 8.02083 10 7.875 10 7.70833C10 7.54167 9.9375 7.39583 9.8125 7.27083C9.6875 7.14583 9.54167 7.08333 9.375 7.08333H5.625C5.45833 7.08333 5.3125 7.14583 5.1875 7.27083C5.0625 7.39583 5 7.54167 5 7.70833C5 7.875 5.0625 8.02083 5.1875 8.14583C5.3125 8.27083 5.45833 8.33333 5.625 8.33333ZM5.625 6.25H9.375C9.54167 6.25 9.6875 6.1875 9.8125 6.0625C9.9375 5.9375 10 5.79167 10 5.625C10 5.45833 9.9375 5.3125 9.8125 5.1875C9.6875 5.0625 9.54167 5 9.375 5H5.625C5.45833 5 5.3125 5.0625 5.1875 5.1875C5.0625 5.3125 5 5.45833 5 5.625C5 5.79167 5.0625 5.9375 5.1875 6.0625C5.3125 6.1875 5.45833 6.25 5.625 6.25ZM14.1667 9.16667V4.16667H15C15.4583 4.16667 15.8508 4.33 16.1775 4.65667C16.5042 4.98333 16.6672 5.37556 16.6667 5.83333H18.3333C18.5694 5.83333 18.7675 5.91333 18.9275 6.07333C19.0875 6.23333 19.1672 6.43111 19.1667 6.66667C19.1661 6.90222 19.0861 7.10028 18.9267 7.26083C18.7672 7.42139 18.5694 7.50111 18.3333 7.5H16.6667C16.6667 7.95833 16.5036 8.35083 16.1775 8.6775C15.8514 9.00417 15.4589 9.16722 15 9.16667H14.1667ZM10 12.9167H5V10.8333C4.08333 10.8333 3.29861 10.5069 2.64583 9.85417C1.99306 9.20139 1.66667 8.41667 1.66667 7.5V5.83333C1.66667 4.91667 1.99306 4.13194 2.64583 3.47917C3.29861 2.82639 4.08333 2.5 5 2.5H11.6667C12.125 2.5 12.5175 2.66333 12.8442 2.99C13.1708 3.31667 13.3339 3.70889 13.3333 4.16667V9.16667C13.3333 9.625 13.1703 10.0175 12.8442 10.3442C12.5181 10.6708 12.1256 10.8339 11.6667 10.8333H10V12.9167ZM4.58333 17.5C4.23611 17.5 3.94111 17.3786 3.69833 17.1358C3.45556 16.8931 3.33389 16.5978 3.33333 16.25V15C3.33333 14.6528 3.455 14.3578 3.69833 14.115C3.94167 13.8722 4.23667 13.7506 4.58333 13.75H10.4167C10.7639 13.75 11.0592 13.8717 11.3025 14.115C11.5458 14.3583 11.6672 14.6533 11.6667 15V16.25C11.6667 16.5972 11.5453 16.8925 11.3025 17.1358C11.0597 17.3792 10.7644 17.5006 10.4167 17.5H4.58333Z" fill="var(--fill-0, black)"/>
</g>
</svg>
