<svg preserveAspectRatio="none" width="100%" height="100%" overflow="visible" style="display: block;" viewBox="0 0 89 72" fill="none" xmlns="http://www.w3.org/2000/svg">
<path id="Vector" d="M4.554 0H83.49C86.0008 0 88.044 2.019 88.044 4.5V46.5H71.1972C71.2922 46.0337 71.342 45.5596 71.346 45.084V36C71.346 33.519 69.3028 31.5 66.792 31.5C66.1924 31.5 65.6231 31.6215 65.0979 31.83C64.8395 30.8769 64.2708 30.0344 63.4796 29.4325C62.6883 28.8307 61.7185 28.503 60.72 28.5C59.9048 28.5 59.1504 28.7295 58.487 29.1015C58.0787 28.4594 57.5125 27.93 56.8412 27.5625C56.1699 27.195 55.4154 27.0015 54.648 27C54.1137 27 53.6067 27.108 53.13 27.276V24H60.72C63.2308 24 65.274 21.981 65.274 19.5V13.5C65.274 11.019 63.2308 9 60.72 9H27.324C24.8132 9 22.77 11.019 22.77 13.5V19.5C22.77 21.981 24.8132 24 27.324 24H44.022V42.879L39.9659 38.871C39.0754 37.996 37.8715 37.5033 36.6157 37.5C35.3595 37.5012 34.1552 37.9948 33.267 38.8725C32.3787 39.7502 31.8792 40.9403 31.878 42.1815C31.878 43.4145 32.3835 44.6205 33.2655 45.492L34.2856 46.5H0V4.5C0 2.019 2.04323 0 4.554 0ZM63.9139 54.8295C63.809 55.0383 63.7544 55.2683 63.7545 55.5015V57H47.9961L46.8971 54.8295C46.8243 54.6849 46.7279 54.5531 46.6117 54.4395L35.4104 43.371C35.1071 43.0524 34.9413 42.6296 34.9481 42.1922C34.9549 41.7548 35.1338 41.3373 35.4468 41.028C35.7598 40.7187 36.1824 40.5419 36.625 40.5352C37.0676 40.5285 37.4955 40.6923 37.8179 40.992L44.4653 47.5605C44.6773 47.771 44.9478 47.9144 45.2424 47.9727C45.5371 48.0309 45.8427 48.0014 46.1203 47.8878C46.3979 47.7741 46.6352 47.5816 46.8018 47.3345C46.9685 47.0874 47.0572 46.7969 47.0565 46.5V22.5C47.074 22.1138 47.2415 21.7491 47.5243 21.4819C47.8071 21.2147 48.1832 21.0656 48.5745 21.0656C48.9657 21.0656 49.3419 21.2147 49.6247 21.4819C49.9074 21.7491 50.075 22.1138 50.0925 22.5V43.5H53.1285V31.5C53.146 31.1138 53.3135 30.7491 53.5963 30.4819C53.8791 30.2147 54.2552 30.0656 54.6465 30.0656C55.0377 30.0656 55.4139 30.2147 55.6967 30.4819C55.9794 30.7491 56.147 31.1138 56.1645 31.5V42H59.2005V33C59.218 32.6138 59.3855 32.2491 59.6683 31.9819C59.9511 31.7147 60.3272 31.5656 60.7185 31.5656C61.1097 31.5656 61.4859 31.7147 61.7687 31.9819C62.0514 32.2491 62.219 32.6138 62.2365 33V43.5H65.2725V36C65.29 35.6138 65.4575 35.2491 65.7403 34.9819C66.0231 34.7147 66.3992 34.5656 66.7905 34.5656C67.1817 34.5656 67.5579 34.7147 67.8407 34.9819C68.1234 35.2491 68.291 35.6138 68.3085 36V45.084C68.3085 45.78 68.143 46.4745 67.8273 47.097L63.9139 54.8295ZM52.8492 21C52.2207 19.2585 50.5509 18 48.5745 18C46.5981 18 44.9283 19.2585 44.2998 21H27.3225C26.4846 21 25.8045 20.3265 25.8045 19.5V13.5C25.8045 12.6735 26.4846 12 27.3225 12H60.7185C61.5564 12 62.2365 12.6735 62.2365 13.5V19.5C62.2365 20.3265 61.5564 21 60.7185 21H52.8492ZM0 52.5V49.5H37.3216L44.2922 56.3895L44.6019 57H4.554C2.04323 57 0 54.981 0 52.5ZM39.043 60H44.022V66H37.0195L39.043 60ZM68.31 72H19.734V70.5C19.734 70.1022 19.8939 69.7206 20.1786 69.4393C20.4633 69.158 20.8494 69 21.252 69H66.792C67.1946 69 67.5807 69.158 67.8654 69.4393C68.1501 69.7206 68.31 70.1022 68.31 70.5V72ZM65.277 66H47.058V60H65.274L65.277 66ZM83.49 57H66.7905V55.854L70.0071 49.5H88.044V52.5C88.044 54.981 86.0008 57 83.49 57Z" fill="var(--fill-0, white)"/>
</svg>
