<svg preserveAspectRatio="none" width="100%" height="100%" overflow="visible" style="display: block;" viewBox="0 0 18 20" fill="none" xmlns="http://www.w3.org/2000/svg">
<g id="bell icon">
<path id="Vector" d="M6.99969 2.92486C6.99969 2.41436 7.2104 1.92476 7.58545 1.56378C7.9605 1.2028 8.46919 1 8.99959 1C9.53 1 10.0387 1.2028 10.4137 1.56378C10.7888 1.92476 10.9995 2.41436 10.9995 2.92486C12.1478 3.44749 13.1268 4.26103 13.8314 5.27829C14.536 6.29556 14.9397 7.47819 14.9993 8.69945V11.5867C15.0745 12.1851 15.2947 12.7581 15.6421 13.2596C15.9894 13.7611 16.4543 14.177 16.9992 14.474H1C1.54491 14.177 2.00976 13.7611 2.35712 13.2596C2.70448 12.7581 2.92465 12.1851 2.9999 11.5867V8.69945C3.05946 7.47819 3.46318 6.29556 4.16779 5.27829C4.8724 4.26103 5.85134 3.44749 6.99969 2.92486" stroke="var(--stroke-0, black)" stroke-width="2" stroke-linecap="round" stroke-linejoin="round"/>
<path id="Vector_2" d="M6 14.4741V15.4365C6 16.2023 6.31606 16.9367 6.87864 17.4782C7.44122 18.0196 8.20425 18.3238 8.99986 18.3238C9.79547 18.3238 10.5585 18.0196 11.1211 17.4782C11.6837 16.9367 11.9997 16.2023 11.9997 15.4365V14.4741" stroke="var(--stroke-0, black)" stroke-width="2" stroke-linecap="round" stroke-linejoin="round"/>
</g>
</svg>
