<svg preserveAspectRatio="none" width="100%" height="100%" overflow="visible" style="display: block;" viewBox="0 0 20 20" fill="none" xmlns="http://www.w3.org/2000/svg">
<g id="fluent:document-border-32-filled">
<path id="Vector" d="M5.625 1.25C4.96196 1.25 4.32607 1.51339 3.85723 1.98223C3.38839 2.45107 3.125 3.08696 3.125 3.75V16.25C3.125 16.913 3.38839 17.5489 3.85723 18.0178C4.32607 18.4866 4.96196 18.75 5.625 18.75H14.375C15.038 18.75 15.6739 18.4866 16.1428 18.0178C16.6116 17.5489 16.875 16.913 16.875 16.25V3.75C16.875 3.08696 16.6116 2.45107 16.1428 1.98223C15.6739 1.51339 15.038 1.25 14.375 1.25H5.625ZM4.375 3.75C4.375 3.41848 4.5067 3.10054 4.74112 2.86612C4.97554 2.6317 5.29348 2.5 5.625 2.5H14.375C14.7065 2.5 15.0245 2.6317 15.2589 2.86612C15.4933 3.10054 15.625 3.41848 15.625 3.75V16.25C15.625 16.5815 15.4933 16.8995 15.2589 17.1339C15.0245 17.3683 14.7065 17.5 14.375 17.5H5.625C5.29348 17.5 4.97554 17.3683 4.74112 17.1339C4.5067 16.8995 4.375 16.5815 4.375 16.25V3.75ZM6.40625 3.75C5.975 3.75 5.625 4.1 5.625 4.53125V15.4688C5.625 15.9 5.975 16.25 6.40625 16.25H13.5938C14.025 16.25 14.375 15.9 14.375 15.4688V4.53125C14.375 4.1 14.025 3.75 13.5938 3.75H6.40625Z" fill="var(--fill-0, black)"/>
</g>
</svg>
