<svg preserveAspectRatio="none" width="100%" height="100%" overflow="visible" style="display: block;" viewBox="0 0 19 20" fill="none" xmlns="http://www.w3.org/2000/svg">
<g id="bell icon">
<path id="Vector" d="M7.07199 2.94806C7.07199 2.4314 7.28524 1.9359 7.66481 1.57057C8.04438 1.20524 8.5592 1 9.09599 1C9.63279 1 10.1476 1.20524 10.5272 1.57057C10.9067 1.9359 11.12 2.4314 11.12 2.94806C12.2822 3.47698 13.2729 4.30033 13.986 5.32985C14.6991 6.35937 15.1077 7.55626 15.168 8.79223V11.7143C15.2441 12.3199 15.467 12.8998 15.8185 13.4073C16.1701 13.9148 16.6405 14.3358 17.192 14.6364H1C1.55148 14.3358 2.02193 13.9148 2.37347 13.4073C2.72502 12.8998 2.94784 12.3199 3.024 11.7143V8.79223C3.08427 7.55626 3.49286 6.35937 4.20596 5.32985C4.91907 4.30033 5.90981 3.47698 7.07199 2.94806" stroke="var(--stroke-0, #2C3E50)" stroke-width="1.75" stroke-linecap="round" stroke-linejoin="round"/>
<path id="Vector_2" d="M6.0603 14.6364V15.6104C6.0603 16.3854 6.38017 17.1287 6.94953 17.6767C7.51889 18.2247 8.29111 18.5325 9.09631 18.5325C9.90151 18.5325 10.6737 18.2247 11.2431 17.6767C11.8125 17.1287 12.1323 16.3854 12.1323 15.6104V14.6364" stroke="var(--stroke-0, #2C3E50)" stroke-width="1.75" stroke-linecap="round" stroke-linejoin="round"/>
</g>
</svg>
