<svg preserveAspectRatio="none" width="100%" height="100%" overflow="visible" style="display: block;" viewBox="0 0 20 20" fill="none" xmlns="http://www.w3.org/2000/svg">
<g id="material-symbols:hardware-rounded">
<path id="Vector" d="M8.33333 17.5C8.09722 17.5 7.89944 17.42 7.74 17.26C7.58056 17.1 7.50056 16.9022 7.5 16.6667V10.8333H12.5V16.6667C12.5 16.9028 12.42 17.1008 12.26 17.2608C12.1 17.4208 11.9022 17.5006 11.6667 17.5H8.33333ZM7.5 9.16667V6.66667H4.33333C4.06944 6.66667 3.85417 6.56944 3.6875 6.375C3.52083 6.18056 3.46528 5.95139 3.52083 5.6875C3.70139 4.74306 4.17028 3.97583 4.9275 3.38583C5.68472 2.79583 6.54222 2.50056 7.5 2.5H11.6667C11.9028 2.5 12.1008 2.58 12.2608 2.74C12.4208 2.9 12.5006 3.09778 12.5 3.33333V5L14.625 2.875C14.7361 2.76389 14.8717 2.67361 15.0317 2.60417C15.1917 2.53472 15.3547 2.5 15.5208 2.5H15.8333C16.0694 2.5 16.2675 2.57972 16.4275 2.73917C16.5875 2.89861 16.6672 3.09667 16.6667 3.33333V8.33333C16.6667 8.56944 16.5867 8.7675 16.4267 8.9275C16.2667 9.0875 16.0689 9.16722 15.8333 9.16667H15.5208C15.3542 9.16667 15.1911 9.13194 15.0317 9.0625C14.8722 8.99306 14.7367 8.90278 14.625 8.79167L12.5 6.66667V9.16667H7.5Z" fill="var(--fill-0, black)"/>
</g>
</svg>
