<svg preserveAspectRatio="none" width="100%" height="100%" overflow="visible" style="display: block;" viewBox="0 0 20 20" fill="none" xmlns="http://www.w3.org/2000/svg">
<g id="solar:washing-machine-minimalistic-bold">
<path id="Vector" d="M6.7625 11.84C6.66806 11.9011 6.5725 11.9617 6.47583 12.0217C6.56609 12.9263 7.00077 13.7616 7.68988 14.3546C8.37898 14.9476 9.26974 15.2529 10.1777 15.2072C11.0857 15.1616 11.9414 14.7686 12.5676 14.1095C13.1938 13.4504 13.5425 12.5758 13.5417 11.6667V11.6625C13.43 11.6819 13.3178 11.7 13.205 11.7167L13.1925 11.7192C13.0586 11.7397 12.9236 11.7617 12.7875 11.785C12.2042 11.89 11.7317 11.8475 11.3225 11.6967C10.9417 11.5567 10.655 11.3333 10.4433 11.1692L10.4233 11.1542C10.1942 10.9758 10.0442 10.865 9.85833 10.7958C9.68917 10.7342 9.4475 10.6933 9.0475 10.7658C8.46083 10.8708 7.93667 11.1208 7.45167 11.4067C7.245 11.5292 7.05167 11.6533 6.8625 11.7758L6.7625 11.84Z" fill="var(--fill-0, black)"/>
<path id="Vector_2" fill-rule="evenodd" clip-rule="evenodd" d="M2.5 8.33333C2.5 5.19083 2.5 3.61917 3.47667 2.64333C4.45333 1.6675 6.02417 1.66667 9.16667 1.66667H10.8333C13.9758 1.66667 15.5475 1.66667 16.5233 2.64333C17.4992 3.62 17.5 5.19083 17.5 8.33333V11.6667C17.5 14.8092 17.5 16.3808 16.5233 17.3567C15.5467 18.3325 13.9758 18.3333 10.8333 18.3333H9.16667C6.02417 18.3333 4.4525 18.3333 3.47667 17.3567C2.50083 16.38 2.5 14.8092 2.5 11.6667V8.33333ZM14.7917 11.6667C14.7917 11.4833 14.7817 11.3031 14.7617 11.1258L14.7783 11.115L14.7025 10.7417C14.4701 9.57588 13.8128 8.53803 12.8583 7.8296C11.9037 7.12117 10.72 6.79271 9.53685 6.90797C8.35372 7.02324 7.25564 7.57402 6.45577 8.45338C5.65591 9.33274 5.21132 10.4779 5.20833 11.6667C5.20833 12.9375 5.71317 14.1563 6.61178 15.0549C7.51039 15.9535 8.72917 16.4583 10 16.4583C11.2708 16.4583 12.4896 15.9535 13.3882 15.0549C14.2868 14.1563 14.7917 12.9375 14.7917 11.6667ZM6.66667 4.375C6.50091 4.375 6.34194 4.44085 6.22472 4.55806C6.10751 4.67527 6.04167 4.83424 6.04167 5C6.04167 5.16576 6.10751 5.32473 6.22472 5.44194C6.34194 5.55915 6.50091 5.625 6.66667 5.625H13.3333C13.4991 5.625 13.6581 5.55915 13.7753 5.44194C13.8925 5.32473 13.9583 5.16576 13.9583 5C13.9583 4.83424 13.8925 4.67527 13.7753 4.55806C13.6581 4.44085 13.4991 4.375 13.3333 4.375H6.66667Z" fill="var(--fill-0, black)"/>
</g>
</svg>
