<svg preserveAspectRatio="none" width="100%" height="100%" overflow="visible" style="display: block;" viewBox="0 0 20 20" fill="none" xmlns="http://www.w3.org/2000/svg">
<g id="tabler:bulb-filled">
<path id="Vector" d="M3.33333 9.16667C3.54573 9.1669 3.75003 9.24823 3.90447 9.39404C4.05892 9.53985 4.15186 9.73913 4.16431 9.95116C4.17676 10.1632 4.10777 10.372 3.97145 10.5349C3.83512 10.6977 3.64175 10.8024 3.43083 10.8275L3.33333 10.8333H2.5C2.2876 10.8331 2.08331 10.7518 1.92886 10.606C1.77441 10.4602 1.68147 10.2609 1.66902 10.0488C1.65658 9.8368 1.72556 9.62802 1.86189 9.46514C1.99821 9.30226 2.19159 9.19759 2.4025 9.1725L2.5 9.16667H3.33333ZM10 1.66667C10.2041 1.66669 10.4011 1.74163 10.5536 1.87726C10.7062 2.0129 10.8036 2.19979 10.8275 2.4025L10.8333 2.5V3.33333C10.8331 3.54573 10.7518 3.75003 10.606 3.90447C10.4602 4.05892 10.2609 4.15186 10.0488 4.16431C9.8368 4.17676 9.62802 4.10777 9.46514 3.97145C9.30226 3.83512 9.19759 3.64175 9.1725 3.43083L9.16667 3.33333V2.5C9.16667 2.27899 9.25446 2.06702 9.41074 1.91074C9.56702 1.75446 9.77899 1.66667 10 1.66667ZM17.5 9.16667C17.7124 9.1669 17.9167 9.24823 18.0711 9.39404C18.2256 9.53985 18.3185 9.73913 18.331 9.95116C18.3434 10.1632 18.2744 10.372 18.1381 10.5349C18.0018 10.6977 17.8084 10.8024 17.5975 10.8275L17.5 10.8333H16.6667C16.4543 10.8331 16.25 10.7518 16.0955 10.606C15.9411 10.4602 15.8481 10.2609 15.8357 10.0488C15.8232 9.8368 15.8922 9.62802 16.0286 9.46514C16.1649 9.30226 16.3583 9.19759 16.5692 9.1725L16.6667 9.16667H17.5ZM4.0775 4.0775C4.22099 3.93402 4.41191 3.84783 4.61443 3.83509C4.81695 3.82236 5.01716 3.88396 5.1775 4.00833L5.25583 4.0775L5.83917 4.66083C5.98862 4.8108 6.0754 5.01203 6.08186 5.22365C6.08832 5.43528 6.01399 5.64143 5.87396 5.80023C5.73393 5.95904 5.53871 6.05859 5.32794 6.07867C5.11717 6.09874 4.90666 6.03784 4.73917 5.90833L4.66083 5.83917L4.0775 5.25583C3.92127 5.09956 3.83351 4.88764 3.83351 4.66667C3.83351 4.4457 3.92127 4.23377 4.0775 4.0775ZM14.7442 4.0775C14.8941 3.92804 15.0954 3.84127 15.307 3.83481C15.5186 3.82835 15.7248 3.90268 15.8836 4.04271C16.0424 4.18274 16.1419 4.37796 16.162 4.58873C16.1821 4.7995 16.1212 5.01001 15.9917 5.1775L15.9225 5.25583L15.3392 5.83917C15.1892 5.98862 14.988 6.07539 14.7763 6.08186C14.5647 6.08832 14.3586 6.01399 14.1998 5.87396C14.041 5.73393 13.9414 5.53871 13.9213 5.32794C13.9013 5.11717 13.9622 4.90666 14.0917 4.73917L14.1608 4.66083L14.7442 4.0775ZM11.6667 15C11.8877 15 12.0996 15.0878 12.2559 15.2441C12.4122 15.4004 12.5 15.6123 12.5 15.8333C12.5 16.4964 12.2366 17.1323 11.7678 17.6011C11.2989 18.0699 10.663 18.3333 10 18.3333C9.33696 18.3333 8.70107 18.0699 8.23223 17.6011C7.76339 17.1323 7.5 16.4964 7.5 15.8333C7.50003 15.6292 7.57496 15.4322 7.7106 15.2797C7.84623 15.1272 8.03312 15.0297 8.23583 15.0058L8.33333 15H11.6667ZM10 5C11.0494 5 12.0722 5.33019 12.9236 5.94379C13.7749 6.55739 14.4116 7.4233 14.7434 8.41886C15.0753 9.41442 15.0855 10.4892 14.7726 11.4908C14.4597 12.4925 13.8395 13.3704 13 14C12.8851 14.0863 12.7499 14.1414 12.6075 14.16L12.5 14.1667H7.5C7.31969 14.1667 7.14425 14.1082 7 14C6.16047 13.3704 5.54033 12.4925 5.22743 11.4908C4.91453 10.4892 4.92473 9.41442 5.25658 8.41886C5.58844 7.4233 6.22512 6.55739 7.07645 5.94379C7.92778 5.33019 8.95059 5 10 5Z" fill="var(--fill-0, black)"/>
</g>
</svg>
