<svg preserveAspectRatio="none" width="100%" height="100%" overflow="visible" style="display: block;" viewBox="0 0 62 62" fill="none" xmlns="http://www.w3.org/2000/svg">
<g id="Group">
<path id="Vector" d="M36.8175 0.497305C37.1354 0.815373 37.3141 1.24671 37.3141 1.69646C37.3141 2.1462 37.1354 2.57754 36.8175 2.89561L32.9283 6.78479L36.8175 10.674C37.1264 10.9939 37.2974 11.4223 37.2935 11.867C37.2897 12.3117 37.1113 12.7371 36.7968 13.0516C36.4823 13.3661 36.0569 13.5445 35.6122 13.5483C35.1675 13.5522 34.7391 13.3812 34.4192 13.0723L30.53 9.18309L26.6408 13.0723C26.4832 13.2297 26.2962 13.3546 26.0903 13.4398C25.8844 13.525 25.6638 13.5688 25.4411 13.5687C25.2183 13.5686 24.9977 13.5247 24.7919 13.4394C24.5861 13.354 24.3991 13.229 24.2417 13.0714C24.0842 12.9138 23.9593 12.7268 23.8741 12.5209C23.7889 12.3151 23.7451 12.0945 23.7452 11.8717C23.7453 11.6489 23.7892 11.4283 23.8746 11.2225C23.9599 11.0167 24.0849 10.8297 24.2425 10.6723L28.1317 6.78479L24.2425 2.89561C24.085 2.73802 23.9601 2.55096 23.8749 2.34511C23.7898 2.13925 23.746 1.91864 23.746 1.69586C23.7461 1.47307 23.7901 1.25249 23.8754 1.0467C23.9607 0.840902 24.0858 0.653931 24.2433 0.496456C24.4009 0.338982 24.588 0.214088 24.7938 0.128906C24.9997 0.0437236 25.2203 -7.86456e-05 25.4431 1.06001e-07C25.6659 7.88576e-05 25.8865 0.0440367 26.0923 0.129364C26.298 0.214692 26.485 0.339719 26.6425 0.497305L30.53 4.38649L34.4192 0.497305C34.7372 0.179333 35.1686 0.000706161 35.6183 0.000706161C36.0681 0.000706161 36.4994 0.179333 36.8175 0.497305ZM22.3853 45.334C23.5209 45.7124 24.7444 45.7387 25.8952 45.4094C27.046 45.08 28.0704 44.4105 28.8339 43.4886V61.0994L8.48054 53.4278V40.7002L22.3853 45.334Z" fill="var(--fill-0, white)"/>
<path id="Vector_2" fill-rule="evenodd" clip-rule="evenodd" d="M52.5789 53.4279L32.2255 61.0994V43.4887C32.989 44.4105 34.0134 45.0801 35.1642 45.4094C36.315 45.7387 37.5385 45.7124 38.6741 45.334L52.5789 40.7003V53.4279ZM46.3304 49.9491C46.7573 49.807 47.1102 49.5011 47.3116 49.0987C47.5129 48.6963 47.5462 48.2305 47.404 47.8036C47.2619 47.3767 46.956 47.0237 46.5536 46.8224C46.1512 46.621 45.6853 46.5878 45.2584 46.7299L37.6259 49.2741C37.1991 49.4162 36.8461 49.7222 36.6448 50.1245C36.4434 50.5269 36.4102 50.9928 36.5523 51.4197C36.6945 51.8466 37.0004 52.1995 37.4027 52.4009C37.8051 52.6022 38.271 52.6355 38.6979 52.4933L46.3304 49.9491ZM31.084 15.3587C30.7247 15.2343 30.3341 15.2343 29.9748 15.3587L7.92874 22.9912L7.88973 23.003C7.59333 23.1133 7.33367 23.3042 7.14005 23.5543L0.372566 32.0145C0.201635 32.2278 0.0847852 32.4792 0.0319675 32.7474C-0.0208502 33.0156 -0.00807128 33.2926 0.069217 33.5547C0.146505 33.8169 0.286013 34.0565 0.475859 34.2532C0.665704 34.4498 0.900264 34.5977 1.15956 34.6841L24.0571 42.3166C24.4038 42.4319 24.7785 42.4321 25.1254 42.3172C25.4723 42.2023 25.7728 41.9784 25.9821 41.6789L30.5294 35.1828L35.075 41.6789C35.2845 41.9787 35.5852 42.2028 35.9325 42.3178C36.2797 42.4327 36.6548 42.4323 37.0018 42.3166L59.8993 34.6841C60.1587 34.5979 60.3935 34.4502 60.5835 34.2536C60.7735 34.057 60.9132 33.8174 60.9907 33.5552C61.0681 33.293 61.0811 33.016 61.0284 32.7477C60.9757 32.4794 60.8589 32.2279 60.688 32.0145L53.9205 23.5543C53.7177 23.293 53.443 23.0966 53.1301 22.9895L31.084 15.3587ZM30.5294 30.432L47.3939 24.594L30.5294 18.756L13.665 24.594L30.5294 30.432Z" fill="var(--fill-0, white)"/>
</g>
</svg>
