<svg preserveAspectRatio="none" width="100%" height="100%" overflow="visible" style="display: block;" viewBox="0 0 83 58" fill="none" xmlns="http://www.w3.org/2000/svg">
<g id="Shape" filter="url(#filter0_dd_4037_858)">
<path fill-rule="evenodd" clip-rule="evenodd" d="M42.7715 46.5387C41.9937 47.6305 40.7325 47.6305 39.9547 46.5387L38.3158 44.3508C37.9265 43.8311 37.7318 43.5712 37.485 43.3838C37.2665 43.2178 37.0189 43.0939 36.755 43.0185C36.457 42.9333 36.1324 42.9333 35.483 42.9333H15.8237C13.1032 42.9333 12.1167 42.6253 11.1222 42.0469C10.1276 41.4686 9.34706 40.6198 8.81516 39.5383C8.28326 38.4568 8 37.3841 8 34.4259V12.5074C8 9.54922 8.28326 8.47649 8.81516 7.39501C9.34706 6.31353 10.1276 5.46478 11.1222 4.88639C12.1167 4.30801 13.1032 4 15.8237 4H67.3094C70.0298 4 71.0164 4.30801 72.0109 4.88639C73.0055 5.46478 73.786 6.31353 74.3179 7.39501C74.8498 8.47649 75.1331 9.54922 75.1331 12.5074V34.4259C75.1331 37.3841 74.8498 38.4568 74.3179 39.5383C73.786 40.6198 73.0055 41.4686 72.0109 42.0469C71.0164 42.6253 70.0298 42.9333 67.3094 42.9333H49.0142C47.7155 42.9333 47.0662 42.9333 46.4702 43.1036C45.9424 43.2545 45.4473 43.5022 45.0101 43.8342C44.5166 44.2091 44.1273 44.7288 43.3487 45.7682L42.7715 46.5387Z" fill="var(--fill-0, black)"/>
</g>
<defs>
<filter id="filter0_dd_4037_858" x="0.921212" y="0.460606" width="81.2906" height="57.5152" filterUnits="userSpaceOnUse" color-interpolation-filters="sRGB">
<feFlood flood-opacity="0" result="BackgroundImageFix"/>
<feColorMatrix in="SourceAlpha" type="matrix" values="0 0 0 0 0 0 0 0 0 0 0 0 0 0 0 0 0 0 127 0" result="hardAlpha"/>
<feOffset dy="3.53939"/>
<feGaussianBlur stdDeviation="3.53939"/>
<feColorMatrix type="matrix" values="0 0 0 0 0.196487 0 0 0 0 0.196487 0 0 0 0 0.279476 0 0 0 0.06 0"/>
<feBlend mode="multiply" in2="BackgroundImageFix" result="effect1_dropShadow_4037_858"/>
<feColorMatrix in="SourceAlpha" type="matrix" values="0 0 0 0 0 0 0 0 0 0 0 0 0 0 0 0 0 0 127 0" result="hardAlpha"/>
<feOffset dy="3.53939"/>
<feGaussianBlur stdDeviation="1.7697"/>
<feColorMatrix type="matrix" values="0 0 0 0 0.196487 0 0 0 0 0.196487 0 0 0 0 0.279476 0 0 0 0.08 0"/>
<feBlend mode="multiply" in2="effect1_dropShadow_4037_858" result="effect2_dropShadow_4037_858"/>
<feBlend mode="normal" in="SourceGraphic" in2="effect2_dropShadow_4037_858" result="shape"/>
</filter>
</defs>
</svg>
