<svg preserveAspectRatio="none" width="100%" height="100%" overflow="visible" style="display: block;" viewBox="0 0 21 21" fill="none" xmlns="http://www.w3.org/2000/svg">
<g id="message">
<path id="Vector" d="M7.4375 16.625H7C3.5 16.625 1.75 15.75 1.75 11.375V7C1.75 3.5 3.5 1.75 7 1.75H14C17.5 1.75 19.25 3.5 19.25 7V11.375C19.25 14.875 17.5 16.625 14 16.625H13.5625C13.2912 16.625 13.0287 16.7562 12.8625 16.975L11.55 18.725C10.9725 19.495 10.0275 19.495 9.45 18.725L8.1375 16.975C7.9975 16.7825 7.67375 16.625 7.4375 16.625Z" stroke="var(--stroke-0, #2C3E50)" stroke-width="1.3125" stroke-miterlimit="10" stroke-linecap="round" stroke-linejoin="round"/>
<path id="Vector_2" d="M13.9969 9.625H14.0048" stroke="var(--stroke-0, #2C3E50)" stroke-width="1.75" stroke-linecap="round" stroke-linejoin="round"/>
<path id="Vector_3" d="M10.4952 9.625H10.5031" stroke="var(--stroke-0, #2C3E50)" stroke-width="1.75" stroke-linecap="round" stroke-linejoin="round"/>
<path id="Vector_4" d="M6.99519 9.625H7.00305" stroke="var(--stroke-0, #2C3E50)" stroke-width="1.75" stroke-linecap="round" stroke-linejoin="round"/>
<path id="Vector_5" opacity="0" d="M20.5625 0.4375V20.5625H0.4375V0.4375H20.5625Z" stroke="var(--stroke-0, #2C3E50)" stroke-width="0.875"/>
</g>
</svg>
