<svg preserveAspectRatio="none" width="100%" height="100%" overflow="visible" style="display: block;" viewBox="0 0 20 20" fill="none" xmlns="http://www.w3.org/2000/svg">
<g id="ri:building-fill">
<path id="Vector" d="M17.5 15.8333H19.1667V17.5H0.833334V15.8333H2.5V3.33333C2.5 3.11232 2.5878 2.90036 2.74408 2.74408C2.90036 2.5878 3.11232 2.5 3.33333 2.5H11.6667C11.8877 2.5 12.0996 2.5878 12.2559 2.74408C12.4122 2.90036 12.5 3.11232 12.5 3.33333V15.8333H14.1667V7.5H16.6667C16.8877 7.5 17.0996 7.5878 17.2559 7.74408C17.4122 7.90036 17.5 8.11232 17.5 8.33333V15.8333ZM5.83333 9.16667V10.8333H9.16667V9.16667H5.83333ZM5.83333 5.83333V7.5H9.16667V5.83333H5.83333Z" fill="var(--fill-0, black)"/>
</g>
</svg>
